<?xml version="1.0" encoding="us-ascii" standalone="no"?><svg xmlns="http://www.w3.org/2000/svg" xmlns:xlink="http://www.w3.org/1999/xlink" contentStyleType="text/css" height="455px" preserveAspectRatio="none" style="width:971px;height:455px;background:#FFFFFF;" version="1.1" viewBox="0 0 971 455" width="971px" zoomAndPan="magnify"><defs/><g><!--cluster routes--><g id="cluster_routes"><path d="M8.5,159.6 L55.5,159.6 A3.75,3.75 0 0 1 58,162.1 L65,182.0883 L961.5,182.0883 A2.5,2.5 0 0 1 964,184.5883 L964,446.16 A2.5,2.5 0 0 1 961.5,448.66 L8.5,448.66 A2.5,2.5 0 0 1 6,446.16 L6,162.1 A2.5,2.5 0 0 1 8.5,159.6 " fill="none" style="stroke:#000000;stroke-width:1.5;"/><line style="stroke:#000000;stroke-width:1.5;" x1="6" x2="65" y1="182.0883" y2="182.0883"/><text fill="#000000" font-family="sans-serif" font-size="14" font-weight="bold" lengthAdjust="spacing" textLength="46" x="10" y="175.1352">routes</text><text fill="#000000" font-family="sans-serif" font-size="14" font-style="italic" lengthAdjust="spacing" textLength="72" x="453" y="197.6234">&#171;Modules&#187;</text></g><!--cluster api_connect--><g id="cluster_api_connect"><path d="M32.5,218.6 L117.5,218.6 A3.75,3.75 0 0 1 120,221.1 L127,241.0883 L937.5,241.0883 A2.5,2.5 0 0 1 940,243.5883 L940,422.16 A2.5,2.5 0 0 1 937.5,424.66 L32.5,424.66 A2.5,2.5 0 0 1 30,422.16 L30,221.1 A2.5,2.5 0 0 1 32.5,218.6 " fill="none" style="stroke:#000000;stroke-width:1.5;"/><line style="stroke:#000000;stroke-width:1.5;" x1="30" x2="127" y1="241.0883" y2="241.0883"/><text fill="#000000" font-family="sans-serif" font-size="14" font-weight="bold" lengthAdjust="spacing" textLength="84" x="34" y="234.1352">api_connect</text><text fill="#000000" font-family="sans-serif" font-size="14" font-style="italic" lengthAdjust="spacing" textLength="57" x="460.5" y="256.6234">&#171;Modul&#187;</text></g><!--class BeamRequestTask--><g id="elem_BeamRequestTask"><rect codeLine="8" fill="#F1F1F1" height="139.0625" id="BeamRequestTask" rx="2.5" ry="2.5" style="stroke:#181818;stroke-width:0.5;" width="879" x="45.5" y="269.6"/><ellipse cx="418.75" cy="289.9105" fill="#FF7700" rx="11" ry="11" style="stroke:#181818;stroke-width:1.0;"/><path d="M418.4834,290.9735 Q416.6323,290.268 415.9766,289.4918 Q415.3208,288.7157 415.3208,287.4042 Q415.3208,285.7191 416.3999,284.7563 Q417.479,283.7934 419.3633,283.7934 Q420.2183,283.7934 421.0732,283.9884 Q421.9282,284.1835 422.7666,284.5653 L422.7666,286.956 Q421.978,286.3998 421.1646,286.1093 Q420.3511,285.8188 419.5542,285.8188 Q418.666,285.8188 418.1929,286.1757 Q417.7197,286.5326 417.7197,287.1967 Q417.7197,287.7113 418.0642,288.0475 Q418.4087,288.3837 419.5044,288.7904 L420.5586,289.1889 Q422.0527,289.7367 422.7583,290.6415 Q423.4639,291.5463 423.4639,292.9242 Q423.4639,294.8002 422.3557,295.7257 Q421.2476,296.6513 419.0063,296.6513 Q418.085,296.6513 417.1594,296.4313 Q416.2339,296.2113 415.3706,295.7797 L415.3706,293.2479 Q416.3501,293.9452 417.2673,294.2855 Q418.1846,294.6259 419.0811,294.6259 Q419.9858,294.6259 420.4839,294.215 Q420.9819,293.8041 420.9819,293.0653 Q420.9819,292.5092 420.6499,292.09 Q420.3179,291.6708 419.687,291.4301 Z " fill="#000000"/><text fill="#000000" font-family="sans-serif" font-size="12" font-style="italic" lengthAdjust="spacing" textLength="44" x="479.25" y="286.2016">&#171;Struct&#187;</text><text fill="#000000" font-family="sans-serif" font-size="14" lengthAdjust="spacing" textLength="124" x="439.25" y="302.268">BeamRequestTask</text><line style="stroke:#181818;stroke-width:0.5;" x1="46.5" x2="923.5" y1="310.2211" y2="310.2211"/><line style="stroke:#181818;stroke-width:1.0;" x1="46.5" x2="923.5" y1="318.2211" y2="318.2211"/><ellipse cx="56.5" cy="331.9652" fill="#84BE84" rx="3" ry="3" style="stroke:#038048;stroke-width:1.0;"/><text fill="#000000" font-family="sans-serif" font-size="14" lengthAdjust="spacing" textLength="843" x="65.5" y="335.7563">read_overview_day(Query(query_day): Query&lt;GetTimestamp&gt;): Result&lt;Json&lt;Vec&lt;EntryRelatedData&gt;&gt;, Json&lt;ErrorType&gt;&gt;</text><ellipse cx="56.5" cy="348.4535" fill="#84BE84" rx="3" ry="3" style="stroke:#038048;stroke-width:1.0;"/><text fill="#000000" font-family="sans-serif" font-size="14" lengthAdjust="spacing" textLength="557" x="65.5" y="352.2445">joinroom(Path(id): Path&lt;i32&gt;): Result&lt;Json&lt;ResponseType&gt;, Json&lt;ErrorType&gt;&gt;</text><ellipse cx="56.5" cy="364.9418" fill="#84BE84" rx="3" ry="3" style="stroke:#038048;stroke-width:1.0;"/><text fill="#000000" font-family="sans-serif" font-size="14" lengthAdjust="spacing" textLength="853" x="65.5" y="368.7328">joinrooms(Path(entry_id): Path&lt;i32&gt;, Json(payload): Json&lt;Vec&lt;String&gt;&gt;): Result&lt;Json&lt;ResponseType&gt;, Json&lt;ErrorType&gt;&gt;</text><ellipse cx="56.5" cy="381.4301" fill="#84BE84" rx="3" ry="3" style="stroke:#038048;stroke-width:1.0;"/><text fill="#000000" font-family="sans-serif" font-size="14" lengthAdjust="spacing" textLength="659" x="65.5" y="385.2211">delete_participant(Path(entry_id): Path&lt;i32&gt;): Result&lt;Json&lt;ResponseType&gt;, Json&lt;ErrorType&gt;&gt;</text><ellipse cx="56.5" cy="397.9184" fill="#84BE84" rx="3" ry="3" style="stroke:#038048;stroke-width:1.0;"/><text fill="#000000" font-family="sans-serif" font-size="14" lengthAdjust="spacing" textLength="246" x="65.5" y="401.7094">get_user(): Json&lt;std::string::String&gt;</text></g><!--class servieces--><g id="elem_servieces"><rect codeLine="1" fill="#F1F1F1" height="89.5977" id="servieces" rx="2.5" ry="2.5" style="stroke:#181818;stroke-width:0.5;" width="217" x="376.5" y="7"/><ellipse cx="449.75" cy="27.3105" fill="#6A3100" rx="11" ry="11" style="stroke:#181818;stroke-width:1.0;"/><path d="M445.4639,21.4175 L448.3857,21.4175 L449.8633,26.8545 L451.3325,21.4175 L454.271,21.4175 L454.271,33.8105 L452.1626,33.8105 L452.1626,23.8828 L450.8511,29.3032 L448.9004,29.3032 L447.5723,23.8828 L447.5723,33.8105 L445.4639,33.8105 Z " fill="#000000"/><text fill="#000000" font-family="sans-serif" font-size="12" font-style="italic" lengthAdjust="spacing" textLength="54" x="474.25" y="23.6016">&#171;Module&#187;</text><text fill="#000000" font-family="sans-serif" font-size="14" lengthAdjust="spacing" textLength="62" x="470.25" y="39.668">servieces</text><line style="stroke:#181818;stroke-width:0.5;" x1="377.5" x2="592.5" y1="47.6211" y2="47.6211"/><line style="stroke:#181818;stroke-width:1.0;" x1="377.5" x2="592.5" y1="55.6211" y2="55.6211"/><ellipse cx="387.5" cy="69.3652" fill="#84BE84" rx="3" ry="3" style="stroke:#038048;stroke-width:1.0;"/><text fill="#000000" font-family="sans-serif" font-size="14" lengthAdjust="spacing" textLength="191" x="396.5" y="73.1563">front_public_route(): Router</text><ellipse cx="387.5" cy="85.8535" fill="#84BE84" rx="3" ry="3" style="stroke:#038048;stroke-width:1.0;"/><text fill="#000000" font-family="sans-serif" font-size="14" lengthAdjust="spacing" textLength="186" x="396.5" y="89.6445">back_token_route(): Router</text></g><!--link servieces to BeamRequestTask--><g id="link_servieces_BeamRequestTask"><path codeLine="18" d="M485,97.07 C485,143.09 485,215.74 485,269.27 " fill="none" id="servieces-BeamRequestTask" style="stroke:#181818;stroke-width:1.0;"/><text fill="#000000" font-family="sans-serif" font-size="13" lengthAdjust="spacing" textLength="22" x="486" y="140.1684">use</text></g><!--SRC=[fPDHIyCm4CVV-oa2ldJCmdIWK4f1SHC4GRVXQxYbvuphaYovAaNstKtITU9047OFwRLt_V_l5n9HWtFCeVsGAD2nec3fupaxkxePNun60_QegwR6icHV2VEHPV4nPAzMA-AcMTPISAiRmdIGirb8BDltB46iEUargkEEP9SONuGLibW9lfsJAylEgQ-3aLnefL1GtzItX11n_bk4pGot3JfQW5j7Yhcdc4wlhmF5d6mZw43HnvwcZo6p21NN7t4tFda5RVhSe6tJRLZ3koU8Nufxf8NSU3_Oc39meMjgAXwSLiKBYcAYoBOph86mkWE2iZndiJYnLjj5Q_oU7fc_Qwcirflq2UWjbPLN3LaXnvV73ZutMZcCElyMTfqoXj7uR_rE8pNGrXf2vG3YjqwgLNdQ11NMICWDM9926b3qzoWd6QsGUEDFSzeZEAhot4M6FD-p7FxP9TswItukG9OTdwQSUSLl]--></g></svg>