<?xml version="1.0" encoding="UTF-8" standalone="no"?><svg xmlns="http://www.w3.org/2000/svg" xmlns:xlink="http://www.w3.org/1999/xlink" contentStyleType="text/css" height="265px" preserveAspectRatio="none" style="width:615px;height:265px;background:#FFFFFF;" version="1.1" viewBox="0 0 615 265" width="615px" zoomAndPan="magnify"><defs/><g><line style="stroke:#C0C0C0;stroke-width:1.0;" x1="0" x2="0" y1="0" y2="249.8672"/><line style="stroke:#C0C0C0;stroke-width:1.0;" x1="16" x2="16" y1="0" y2="249.8672"/><line style="stroke:#C0C0C0;stroke-width:1.0;" x1="32" x2="32" y1="0" y2="249.8672"/><line style="stroke:#C0C0C0;stroke-width:1.0;" x1="48" x2="48" y1="0" y2="249.8672"/><line style="stroke:#C0C0C0;stroke-width:1.0;" x1="64" x2="64" y1="0" y2="249.8672"/><line style="stroke:#C0C0C0;stroke-width:1.0;" x1="80" x2="80" y1="0" y2="249.8672"/><line style="stroke:#C0C0C0;stroke-width:1.0;" x1="96" x2="96" y1="0" y2="249.8672"/><line style="stroke:#C0C0C0;stroke-width:1.0;" x1="112" x2="112" y1="0" y2="249.8672"/><line style="stroke:#C0C0C0;stroke-width:1.0;" x1="128" x2="128" y1="0" y2="249.8672"/><line style="stroke:#C0C0C0;stroke-width:1.0;" x1="144" x2="144" y1="0" y2="249.8672"/><line style="stroke:#C0C0C0;stroke-width:1.0;" x1="160" x2="160" y1="0" y2="249.8672"/><line style="stroke:#C0C0C0;stroke-width:1.0;" x1="176" x2="176" y1="0" y2="249.8672"/><line style="stroke:#C0C0C0;stroke-width:1.0;" x1="192" x2="192" y1="0" y2="249.8672"/><line style="stroke:#C0C0C0;stroke-width:1.0;" x1="208" x2="208" y1="0" y2="249.8672"/><line style="stroke:#C0C0C0;stroke-width:1.0;" x1="224" x2="224" y1="0" y2="249.8672"/><line style="stroke:#C0C0C0;stroke-width:1.0;" x1="240" x2="240" y1="0" y2="249.8672"/><line style="stroke:#C0C0C0;stroke-width:1.0;" x1="256" x2="256" y1="0" y2="249.8672"/><line style="stroke:#C0C0C0;stroke-width:1.0;" x1="272" x2="272" y1="0" y2="249.8672"/><line style="stroke:#C0C0C0;stroke-width:1.0;" x1="288" x2="288" y1="0" y2="249.8672"/><line style="stroke:#C0C0C0;stroke-width:1.0;" x1="304" x2="304" y1="0" y2="249.8672"/><line style="stroke:#C0C0C0;stroke-width:1.0;" x1="320" x2="320" y1="0" y2="249.8672"/><line style="stroke:#C0C0C0;stroke-width:1.0;" x1="336" x2="336" y1="0" y2="249.8672"/><line style="stroke:#C0C0C0;stroke-width:1.0;" x1="352" x2="352" y1="0" y2="249.8672"/><line style="stroke:#C0C0C0;stroke-width:1.0;" x1="368" x2="368" y1="0" y2="249.8672"/><line style="stroke:#C0C0C0;stroke-width:1.0;" x1="384" x2="384" y1="0" y2="249.8672"/><line style="stroke:#C0C0C0;stroke-width:1.0;" x1="400" x2="400" y1="0" y2="249.8672"/><line style="stroke:#C0C0C0;stroke-width:1.0;" x1="416" x2="416" y1="0" y2="249.8672"/><line style="stroke:#C0C0C0;stroke-width:1.0;" x1="432" x2="432" y1="0" y2="249.8672"/><line style="stroke:#C0C0C0;stroke-width:1.0;" x1="448" x2="448" y1="0" y2="249.8672"/><line style="stroke:#C0C0C0;stroke-width:1.0;" x1="464" x2="464" y1="0" y2="249.8672"/><line style="stroke:#C0C0C0;stroke-width:1.0;" x1="480" x2="480" y1="0" y2="249.8672"/><line style="stroke:#C0C0C0;stroke-width:1.0;" x1="496" x2="496" y1="0" y2="249.8672"/><line style="stroke:#C0C0C0;stroke-width:1.0;" x1="512" x2="512" y1="0" y2="249.8672"/><line style="stroke:#C0C0C0;stroke-width:1.0;" x1="528" x2="528" y1="0" y2="249.8672"/><text fill="#000000" font-family="Serif" font-size="10" lengthAdjust="spacing" textLength="5" x="5.5" y="10.4785">1</text><text fill="#000000" font-family="Serif" font-size="10" lengthAdjust="spacing" textLength="5" x="21.5" y="10.4785">2</text><text fill="#000000" font-family="Serif" font-size="10" lengthAdjust="spacing" textLength="5" x="37.5" y="10.4785">3</text><text fill="#000000" font-family="Serif" font-size="10" lengthAdjust="spacing" textLength="5" x="53.5" y="10.4785">4</text><text fill="#000000" font-family="Serif" font-size="10" lengthAdjust="spacing" textLength="5" x="69.5" y="10.4785">5</text><text fill="#000000" font-family="Serif" font-size="10" lengthAdjust="spacing" textLength="5" x="85.5" y="10.4785">6</text><text fill="#000000" font-family="Serif" font-size="10" lengthAdjust="spacing" textLength="5" x="101.5" y="10.4785">7</text><text fill="#000000" font-family="Serif" font-size="10" lengthAdjust="spacing" textLength="5" x="117.5" y="10.4785">8</text><text fill="#000000" font-family="Serif" font-size="10" lengthAdjust="spacing" textLength="5" x="133.5" y="10.4785">9</text><text fill="#000000" font-family="Serif" font-size="10" lengthAdjust="spacing" textLength="10" x="147" y="10.4785">10</text><text fill="#000000" font-family="Serif" font-size="10" lengthAdjust="spacing" textLength="10" x="163" y="10.4785">11</text><text fill="#000000" font-family="Serif" font-size="10" lengthAdjust="spacing" textLength="10" x="179" y="10.4785">12</text><text fill="#000000" font-family="Serif" font-size="10" lengthAdjust="spacing" textLength="10" x="195" y="10.4785">13</text><text fill="#000000" font-family="Serif" font-size="10" lengthAdjust="spacing" textLength="10" x="211" y="10.4785">14</text><text fill="#000000" font-family="Serif" font-size="10" lengthAdjust="spacing" textLength="10" x="227" y="10.4785">15</text><text fill="#000000" font-family="Serif" font-size="10" lengthAdjust="spacing" textLength="10" x="243" y="10.4785">16</text><text fill="#000000" font-family="Serif" font-size="10" lengthAdjust="spacing" textLength="10" x="259" y="10.4785">17</text><text fill="#000000" font-family="Serif" font-size="10" lengthAdjust="spacing" textLength="10" x="275" y="10.4785">18</text><text fill="#000000" font-family="Serif" font-size="10" lengthAdjust="spacing" textLength="10" x="291" y="10.4785">19</text><text fill="#000000" font-family="Serif" font-size="10" lengthAdjust="spacing" textLength="10" x="307" y="10.4785">20</text><text fill="#000000" font-family="Serif" font-size="10" lengthAdjust="spacing" textLength="10" x="323" y="10.4785">21</text><text fill="#000000" font-family="Serif" font-size="10" lengthAdjust="spacing" textLength="10" x="339" y="10.4785">22</text><text fill="#000000" font-family="Serif" font-size="10" lengthAdjust="spacing" textLength="10" x="355" y="10.4785">23</text><text fill="#000000" font-family="Serif" font-size="10" lengthAdjust="spacing" textLength="10" x="371" y="10.4785">24</text><text fill="#000000" font-family="Serif" font-size="10" lengthAdjust="spacing" textLength="10" x="387" y="10.4785">25</text><text fill="#000000" font-family="Serif" font-size="10" lengthAdjust="spacing" textLength="10" x="403" y="10.4785">26</text><text fill="#000000" font-family="Serif" font-size="10" lengthAdjust="spacing" textLength="10" x="419" y="10.4785">27</text><text fill="#000000" font-family="Serif" font-size="10" lengthAdjust="spacing" textLength="10" x="435" y="10.4785">28</text><text fill="#000000" font-family="Serif" font-size="10" lengthAdjust="spacing" textLength="10" x="451" y="10.4785">29</text><text fill="#000000" font-family="Serif" font-size="10" lengthAdjust="spacing" textLength="10" x="467" y="10.4785">30</text><text fill="#000000" font-family="Serif" font-size="10" lengthAdjust="spacing" textLength="10" x="483" y="10.4785">31</text><text fill="#000000" font-family="Serif" font-size="10" lengthAdjust="spacing" textLength="10" x="499" y="10.4785">32</text><text fill="#000000" font-family="Serif" font-size="10" lengthAdjust="spacing" textLength="10" x="515" y="10.4785">33</text><line style="stroke:#C0C0C0;stroke-width:1.0;" x1="0" x2="528" y1="0" y2="0"/><line style="stroke:#C0C0C0;stroke-width:1.0;" x1="0" x2="528" y1="13" y2="13"/><line style="stroke:#181818;stroke-width:1.5;" x1="23" x2="23" y1="31.8359" y2="42.7539"/><line style="stroke:#181818;stroke-width:1.5;" x1="23" x2="31" y1="42.7539" y2="42.7539"/><polygon fill="#181818" points="27,38.7539,27,42.7539,27,46.7539,31,42.7539" style="stroke:#181818;stroke-width:1.5;"/><line style="stroke:#181818;stroke-width:1.5;" x1="23" x2="23" y1="31.8359" y2="60.5898"/><line style="stroke:#181818;stroke-width:1.5;" x1="23" x2="31" y1="60.5898" y2="60.5898"/><polygon fill="#181818" points="27,56.5898,27,60.5898,27,64.5898,31,60.5898" style="stroke:#181818;stroke-width:1.5;"/><line style="stroke:#181818;stroke-width:1.5;" x1="247" x2="247" y1="49.6719" y2="78.4258"/><line style="stroke:#181818;stroke-width:1.5;" x1="247" x2="255" y1="78.4258" y2="78.4258"/><polygon fill="#181818" points="251,74.4258,251,78.4258,251,82.4258,255,78.4258" style="stroke:#181818;stroke-width:1.5;"/><line style="stroke:#181818;stroke-width:1.5;" x1="247" x2="247" y1="49.6719" y2="96.2617"/><line style="stroke:#181818;stroke-width:1.5;" x1="247" x2="255" y1="96.2617" y2="96.2617"/><polygon fill="#181818" points="251,92.2617,251,96.2617,251,100.2617,255,96.2617" style="stroke:#181818;stroke-width:1.5;"/><line style="stroke:#181818;stroke-width:1.5;" x1="247" x2="247" y1="49.6719" y2="114.0977"/><line style="stroke:#181818;stroke-width:1.5;" x1="247" x2="255" y1="114.0977" y2="114.0977"/><polygon fill="#181818" points="251,110.0977,251,114.0977,251,118.0977,255,114.0977" style="stroke:#181818;stroke-width:1.5;"/><line style="stroke:#181818;stroke-width:1.5;" x1="264" x2="264" y1="121.0156" y2="131.9336"/><line style="stroke:#181818;stroke-width:1.5;" x1="264" x2="287" y1="131.9336" y2="131.9336"/><polygon fill="#181818" points="283,127.9336,283,131.9336,283,135.9336,287,131.9336" style="stroke:#181818;stroke-width:1.5;"/><line style="stroke:#181818;stroke-width:1.5;" x1="279" x2="279" y1="103.1797" y2="131.9336"/><line style="stroke:#181818;stroke-width:1.5;" x1="279" x2="287" y1="131.9336" y2="131.9336"/><polygon fill="#181818" points="283,127.9336,283,131.9336,283,135.9336,287,131.9336" style="stroke:#181818;stroke-width:1.5;"/><line style="stroke:#181818;stroke-width:1.5;" x1="264" x2="264" y1="85.3438" y2="131.9336"/><line style="stroke:#181818;stroke-width:1.5;" x1="264" x2="287" y1="131.9336" y2="131.9336"/><polygon fill="#181818" points="283,127.9336,283,131.9336,283,135.9336,287,131.9336" style="stroke:#181818;stroke-width:1.5;"/><line style="stroke:#181818;stroke-width:1.5;" x1="295" x2="295" y1="138.8516" y2="149.7695"/><line style="stroke:#181818;stroke-width:1.5;" x1="295" x2="303" y1="149.7695" y2="149.7695"/><polygon fill="#181818" points="299,145.7695,299,149.7695,299,153.7695,303,149.7695" style="stroke:#181818;stroke-width:1.5;"/><line style="stroke:#181818;stroke-width:1.5;" x1="295" x2="295" y1="138.8516" y2="167.6055"/><line style="stroke:#181818;stroke-width:1.5;" x1="295" x2="303" y1="167.6055" y2="167.6055"/><polygon fill="#181818" points="299,163.6055,299,167.6055,299,171.6055,303,167.6055" style="stroke:#181818;stroke-width:1.5;"/><line style="stroke:#181818;stroke-width:1.5;" x1="327" x2="327" y1="174.5234" y2="185.4414"/><line style="stroke:#181818;stroke-width:1.5;" x1="327" x2="335" y1="185.4414" y2="185.4414"/><polygon fill="#181818" points="331,181.4414,331,185.4414,331,189.4414,335,185.4414" style="stroke:#181818;stroke-width:1.5;"/><line style="stroke:#181818;stroke-width:1.5;" x1="360" x2="360" y1="192.3594" y2="203.2773"/><line style="stroke:#181818;stroke-width:1.5;" x1="360" x2="383" y1="203.2773" y2="203.2773"/><polygon fill="#181818" points="379,199.2773,379,203.2773,379,207.2773,383,203.2773" style="stroke:#181818;stroke-width:1.5;"/><line style="stroke:#181818;stroke-width:1.5;" x1="375" x2="375" y1="156.6875" y2="203.2773"/><line style="stroke:#181818;stroke-width:1.5;" x1="375" x2="383" y1="203.2773" y2="203.2773"/><polygon fill="#181818" points="379,199.2773,379,203.2773,379,207.2773,383,203.2773" style="stroke:#181818;stroke-width:1.5;"/><line style="stroke:#181818;stroke-width:1.5;" x1="391" x2="391" y1="210.1953" y2="221.1133"/><line style="stroke:#181818;stroke-width:1.5;" x1="391" x2="399" y1="221.1133" y2="221.1133"/><polygon fill="#181818" points="395,217.1133,395,221.1133,395,225.1133,399,221.1133" style="stroke:#181818;stroke-width:1.5;"/><line style="stroke:#181818;stroke-width:1.5;" x1="40" x2="40" y1="67.5078" y2="221.1133"/><line style="stroke:#181818;stroke-width:1.5;" x1="40" x2="399" y1="221.1133" y2="221.1133"/><polygon fill="#181818" points="395,217.1133,395,221.1133,395,225.1133,399,221.1133" style="stroke:#181818;stroke-width:1.5;"/><line style="stroke:#181818;stroke-width:1.5;" x1="503" x2="503" y1="228.0313" y2="238.9492"/><line style="stroke:#181818;stroke-width:1.5;" x1="503" x2="511" y1="238.9492" y2="238.9492"/><polygon fill="#181818" points="507,234.9492,507,238.9492,507,242.9492,511,238.9492" style="stroke:#181818;stroke-width:1.5;"/><rect fill="#E2E2F0" height="13.8359" style="stroke:none;stroke-width:1.0;" width="28" x="2" y="18"/><line style="stroke:#181818;stroke-width:1.0;" x1="2" x2="30" y1="18" y2="18"/><line style="stroke:#181818;stroke-width:1.0;" x1="2" x2="30" y1="31.8359" y2="31.8359"/><line style="stroke:#181818;stroke-width:1.0;" x1="2" x2="2" y1="18" y2="31.8359"/><line style="stroke:#181818;stroke-width:1.0;" x1="30" x2="30" y1="18" y2="31.8359"/><rect fill="#E2E2F0" height="13.8359" style="stroke:none;stroke-width:1.0;" width="220" x="34" y="35.8359"/><line style="stroke:#181818;stroke-width:1.0;" x1="34" x2="254" y1="35.8359" y2="35.8359"/><line style="stroke:#181818;stroke-width:1.0;" x1="34" x2="254" y1="49.6719" y2="49.6719"/><line style="stroke:#181818;stroke-width:1.0;" x1="34" x2="34" y1="35.8359" y2="49.6719"/><line style="stroke:#181818;stroke-width:1.0;" x1="254" x2="254" y1="35.8359" y2="49.6719"/><rect fill="#E2E2F0" height="13.8359" style="stroke:none;stroke-width:1.0;" width="12" x="34" y="53.6719"/><line style="stroke:#181818;stroke-width:1.0;" x1="34" x2="46" y1="53.6719" y2="53.6719"/><line style="stroke:#181818;stroke-width:1.0;" x1="34" x2="46" y1="67.5078" y2="67.5078"/><line style="stroke:#181818;stroke-width:1.0;" x1="34" x2="34" y1="53.6719" y2="67.5078"/><line style="stroke:#181818;stroke-width:1.0;" x1="46" x2="46" y1="53.6719" y2="67.5078"/><rect fill="#E2E2F0" height="13.8359" style="stroke:none;stroke-width:1.0;" width="12" x="258" y="71.5078"/><line style="stroke:#181818;stroke-width:1.0;" x1="258" x2="270" y1="71.5078" y2="71.5078"/><line style="stroke:#181818;stroke-width:1.0;" x1="258" x2="270" y1="85.3438" y2="85.3438"/><line style="stroke:#181818;stroke-width:1.0;" x1="258" x2="258" y1="71.5078" y2="85.3438"/><line style="stroke:#181818;stroke-width:1.0;" x1="270" x2="270" y1="71.5078" y2="85.3438"/><rect fill="#E2E2F0" height="13.8359" style="stroke:none;stroke-width:1.0;" width="28" x="258" y="89.3438"/><line style="stroke:#181818;stroke-width:1.0;" x1="258" x2="286" y1="89.3438" y2="89.3438"/><line style="stroke:#181818;stroke-width:1.0;" x1="258" x2="286" y1="103.1797" y2="103.1797"/><line style="stroke:#181818;stroke-width:1.0;" x1="258" x2="258" y1="89.3438" y2="103.1797"/><line style="stroke:#181818;stroke-width:1.0;" x1="286" x2="286" y1="89.3438" y2="103.1797"/><rect fill="#E2E2F0" height="13.8359" style="stroke:none;stroke-width:1.0;" width="12" x="258" y="107.1797"/><line style="stroke:#181818;stroke-width:1.0;" x1="258" x2="270" y1="107.1797" y2="107.1797"/><line style="stroke:#181818;stroke-width:1.0;" x1="258" x2="270" y1="121.0156" y2="121.0156"/><line style="stroke:#181818;stroke-width:1.0;" x1="258" x2="258" y1="107.1797" y2="121.0156"/><line style="stroke:#181818;stroke-width:1.0;" x1="270" x2="270" y1="107.1797" y2="121.0156"/><rect fill="#E2E2F0" height="13.8359" style="stroke:none;stroke-width:1.0;" width="12" x="290" y="125.0156"/><line style="stroke:#181818;stroke-width:1.0;" x1="290" x2="302" y1="125.0156" y2="125.0156"/><line style="stroke:#181818;stroke-width:1.0;" x1="290" x2="302" y1="138.8516" y2="138.8516"/><line style="stroke:#181818;stroke-width:1.0;" x1="290" x2="290" y1="125.0156" y2="138.8516"/><line style="stroke:#181818;stroke-width:1.0;" x1="302" x2="302" y1="125.0156" y2="138.8516"/><rect fill="#E2E2F0" height="13.8359" style="stroke:none;stroke-width:1.0;" width="76" x="306" y="142.8516"/><line style="stroke:#181818;stroke-width:1.0;" x1="306" x2="382" y1="142.8516" y2="142.8516"/><line style="stroke:#181818;stroke-width:1.0;" x1="306" x2="382" y1="156.6875" y2="156.6875"/><line style="stroke:#181818;stroke-width:1.0;" x1="306" x2="306" y1="142.8516" y2="156.6875"/><line style="stroke:#181818;stroke-width:1.0;" x1="382" x2="382" y1="142.8516" y2="156.6875"/><rect fill="#E2E2F0" height="13.8359" style="stroke:none;stroke-width:1.0;" width="28" x="306" y="160.6875"/><line style="stroke:#181818;stroke-width:1.0;" x1="306" x2="334" y1="160.6875" y2="160.6875"/><line style="stroke:#181818;stroke-width:1.0;" x1="306" x2="334" y1="174.5234" y2="174.5234"/><line style="stroke:#181818;stroke-width:1.0;" x1="306" x2="306" y1="160.6875" y2="174.5234"/><line style="stroke:#181818;stroke-width:1.0;" x1="334" x2="334" y1="160.6875" y2="174.5234"/><rect fill="#E2E2F0" height="13.8359" style="stroke:none;stroke-width:1.0;" width="28" x="338" y="178.5234"/><line style="stroke:#181818;stroke-width:1.0;" x1="338" x2="366" y1="178.5234" y2="178.5234"/><line style="stroke:#181818;stroke-width:1.0;" x1="338" x2="366" y1="192.3594" y2="192.3594"/><line style="stroke:#181818;stroke-width:1.0;" x1="338" x2="338" y1="178.5234" y2="192.3594"/><line style="stroke:#181818;stroke-width:1.0;" x1="366" x2="366" y1="178.5234" y2="192.3594"/><rect fill="#E2E2F0" height="13.8359" style="stroke:none;stroke-width:1.0;" width="12" x="386" y="196.3594"/><line style="stroke:#181818;stroke-width:1.0;" x1="386" x2="398" y1="196.3594" y2="196.3594"/><line style="stroke:#181818;stroke-width:1.0;" x1="386" x2="398" y1="210.1953" y2="210.1953"/><line style="stroke:#181818;stroke-width:1.0;" x1="386" x2="386" y1="196.3594" y2="210.1953"/><line style="stroke:#181818;stroke-width:1.0;" x1="398" x2="398" y1="196.3594" y2="210.1953"/><rect fill="#E2E2F0" height="13.8359" style="stroke:none;stroke-width:1.0;" width="108" x="402" y="214.1953"/><line style="stroke:#181818;stroke-width:1.0;" x1="402" x2="510" y1="214.1953" y2="214.1953"/><line style="stroke:#181818;stroke-width:1.0;" x1="402" x2="510" y1="228.0313" y2="228.0313"/><line style="stroke:#181818;stroke-width:1.0;" x1="402" x2="402" y1="214.1953" y2="228.0313"/><line style="stroke:#181818;stroke-width:1.0;" x1="510" x2="510" y1="214.1953" y2="228.0313"/><rect fill="#E2E2F0" height="13.8359" style="stroke:none;stroke-width:1.0;" width="12" x="514" y="232.0313"/><line style="stroke:#181818;stroke-width:1.0;" x1="514" x2="526" y1="232.0313" y2="232.0313"/><line style="stroke:#181818;stroke-width:1.0;" x1="514" x2="526" y1="245.8672" y2="245.8672"/><line style="stroke:#181818;stroke-width:1.0;" x1="514" x2="514" y1="232.0313" y2="245.8672"/><line style="stroke:#181818;stroke-width:1.0;" x1="526" x2="526" y1="232.0313" y2="245.8672"/><text fill="#000000" font-family="sans-serif" font-size="11" lengthAdjust="spacing" textLength="176" x="34" y="29.4189">Entscheidung der Geschäftsführung</text><text fill="#000000" font-family="sans-serif" font-size="11" lengthAdjust="spacing" textLength="84" x="38" y="47.2549">Angebot einholen</text><text fill="#000000" font-family="sans-serif" font-size="11" lengthAdjust="spacing" textLength="103" x="50" y="65.0908">Mitarbeiterinformation</text><text fill="#000000" font-family="sans-serif" font-size="11" lengthAdjust="spacing" textLength="105" x="274" y="82.9268">Testen des Gerätes 1</text><text fill="#000000" font-family="sans-serif" font-size="11" lengthAdjust="spacing" textLength="105" x="290" y="100.7627">Testen des Gerätes 2</text><text fill="#000000" font-family="sans-serif" font-size="11" lengthAdjust="spacing" textLength="105" x="274" y="118.5986">Testen des Gerätes 3</text><text fill="#000000" font-family="sans-serif" font-size="11" lengthAdjust="spacing" textLength="121" x="306" y="136.4346">Auswahl der Lieferanten</text><text fill="#000000" font-family="sans-serif" font-size="11" lengthAdjust="spacing" textLength="46" x="310" y="154.2705">Lieferung</text><text fill="#000000" font-family="sans-serif" font-size="11" lengthAdjust="spacing" textLength="69" x="338" y="172.1064">Raumauswahl</text><text fill="#000000" font-family="sans-serif" font-size="11" lengthAdjust="spacing" textLength="80" x="370" y="189.9424">Elektroinstalation</text><text fill="#000000" font-family="sans-serif" font-size="11" lengthAdjust="spacing" textLength="96" x="402" y="207.7783">Computer aufstellen</text><text fill="#000000" font-family="sans-serif" font-size="11" lengthAdjust="spacing" textLength="94" x="406" y="225.6143">Mitarbeiterschulung</text><text fill="#000000" font-family="sans-serif" font-size="11" lengthAdjust="spacing" textLength="83" x="530" y="243.4502">Arbeitsaufnahme</text><line style="stroke:#C0C0C0;stroke-width:1.0;" x1="0" x2="0" y1="250.8672" y2="263.8672"/><line style="stroke:#C0C0C0;stroke-width:1.0;" x1="16" x2="16" y1="250.8672" y2="263.8672"/><line style="stroke:#C0C0C0;stroke-width:1.0;" x1="32" x2="32" y1="250.8672" y2="263.8672"/><line style="stroke:#C0C0C0;stroke-width:1.0;" x1="48" x2="48" y1="250.8672" y2="263.8672"/><line style="stroke:#C0C0C0;stroke-width:1.0;" x1="64" x2="64" y1="250.8672" y2="263.8672"/><line style="stroke:#C0C0C0;stroke-width:1.0;" x1="80" x2="80" y1="250.8672" y2="263.8672"/><line style="stroke:#C0C0C0;stroke-width:1.0;" x1="96" x2="96" y1="250.8672" y2="263.8672"/><line style="stroke:#C0C0C0;stroke-width:1.0;" x1="112" x2="112" y1="250.8672" y2="263.8672"/><line style="stroke:#C0C0C0;stroke-width:1.0;" x1="128" x2="128" y1="250.8672" y2="263.8672"/><line style="stroke:#C0C0C0;stroke-width:1.0;" x1="144" x2="144" y1="250.8672" y2="263.8672"/><line style="stroke:#C0C0C0;stroke-width:1.0;" x1="160" x2="160" y1="250.8672" y2="263.8672"/><line style="stroke:#C0C0C0;stroke-width:1.0;" x1="176" x2="176" y1="250.8672" y2="263.8672"/><line style="stroke:#C0C0C0;stroke-width:1.0;" x1="192" x2="192" y1="250.8672" y2="263.8672"/><line style="stroke:#C0C0C0;stroke-width:1.0;" x1="208" x2="208" y1="250.8672" y2="263.8672"/><line style="stroke:#C0C0C0;stroke-width:1.0;" x1="224" x2="224" y1="250.8672" y2="263.8672"/><line style="stroke:#C0C0C0;stroke-width:1.0;" x1="240" x2="240" y1="250.8672" y2="263.8672"/><line style="stroke:#C0C0C0;stroke-width:1.0;" x1="256" x2="256" y1="250.8672" y2="263.8672"/><line style="stroke:#C0C0C0;stroke-width:1.0;" x1="272" x2="272" y1="250.8672" y2="263.8672"/><line style="stroke:#C0C0C0;stroke-width:1.0;" x1="288" x2="288" y1="250.8672" y2="263.8672"/><line style="stroke:#C0C0C0;stroke-width:1.0;" x1="304" x2="304" y1="250.8672" y2="263.8672"/><line style="stroke:#C0C0C0;stroke-width:1.0;" x1="320" x2="320" y1="250.8672" y2="263.8672"/><line style="stroke:#C0C0C0;stroke-width:1.0;" x1="336" x2="336" y1="250.8672" y2="263.8672"/><line style="stroke:#C0C0C0;stroke-width:1.0;" x1="352" x2="352" y1="250.8672" y2="263.8672"/><line style="stroke:#C0C0C0;stroke-width:1.0;" x1="368" x2="368" y1="250.8672" y2="263.8672"/><line style="stroke:#C0C0C0;stroke-width:1.0;" x1="384" x2="384" y1="250.8672" y2="263.8672"/><line style="stroke:#C0C0C0;stroke-width:1.0;" x1="400" x2="400" y1="250.8672" y2="263.8672"/><line style="stroke:#C0C0C0;stroke-width:1.0;" x1="416" x2="416" y1="250.8672" y2="263.8672"/><line style="stroke:#C0C0C0;stroke-width:1.0;" x1="432" x2="432" y1="250.8672" y2="263.8672"/><line style="stroke:#C0C0C0;stroke-width:1.0;" x1="448" x2="448" y1="250.8672" y2="263.8672"/><line style="stroke:#C0C0C0;stroke-width:1.0;" x1="464" x2="464" y1="250.8672" y2="263.8672"/><line style="stroke:#C0C0C0;stroke-width:1.0;" x1="480" x2="480" y1="250.8672" y2="263.8672"/><line style="stroke:#C0C0C0;stroke-width:1.0;" x1="496" x2="496" y1="250.8672" y2="263.8672"/><line style="stroke:#C0C0C0;stroke-width:1.0;" x1="512" x2="512" y1="250.8672" y2="263.8672"/><line style="stroke:#C0C0C0;stroke-width:1.0;" x1="528" x2="528" y1="250.8672" y2="263.8672"/><text fill="#000000" font-family="Serif" font-size="10" lengthAdjust="spacing" textLength="5" x="5.5" y="261.3457">1</text><text fill="#000000" font-family="Serif" font-size="10" lengthAdjust="spacing" textLength="5" x="21.5" y="261.3457">2</text><text fill="#000000" font-family="Serif" font-size="10" lengthAdjust="spacing" textLength="5" x="37.5" y="261.3457">3</text><text fill="#000000" font-family="Serif" font-size="10" lengthAdjust="spacing" textLength="5" x="53.5" y="261.3457">4</text><text fill="#000000" font-family="Serif" font-size="10" lengthAdjust="spacing" textLength="5" x="69.5" y="261.3457">5</text><text fill="#000000" font-family="Serif" font-size="10" lengthAdjust="spacing" textLength="5" x="85.5" y="261.3457">6</text><text fill="#000000" font-family="Serif" font-size="10" lengthAdjust="spacing" textLength="5" x="101.5" y="261.3457">7</text><text fill="#000000" font-family="Serif" font-size="10" lengthAdjust="spacing" textLength="5" x="117.5" y="261.3457">8</text><text fill="#000000" font-family="Serif" font-size="10" lengthAdjust="spacing" textLength="5" x="133.5" y="261.3457">9</text><text fill="#000000" font-family="Serif" font-size="10" lengthAdjust="spacing" textLength="10" x="147" y="261.3457">10</text><text fill="#000000" font-family="Serif" font-size="10" lengthAdjust="spacing" textLength="10" x="163" y="261.3457">11</text><text fill="#000000" font-family="Serif" font-size="10" lengthAdjust="spacing" textLength="10" x="179" y="261.3457">12</text><text fill="#000000" font-family="Serif" font-size="10" lengthAdjust="spacing" textLength="10" x="195" y="261.3457">13</text><text fill="#000000" font-family="Serif" font-size="10" lengthAdjust="spacing" textLength="10" x="211" y="261.3457">14</text><text fill="#000000" font-family="Serif" font-size="10" lengthAdjust="spacing" textLength="10" x="227" y="261.3457">15</text><text fill="#000000" font-family="Serif" font-size="10" lengthAdjust="spacing" textLength="10" x="243" y="261.3457">16</text><text fill="#000000" font-family="Serif" font-size="10" lengthAdjust="spacing" textLength="10" x="259" y="261.3457">17</text><text fill="#000000" font-family="Serif" font-size="10" lengthAdjust="spacing" textLength="10" x="275" y="261.3457">18</text><text fill="#000000" font-family="Serif" font-size="10" lengthAdjust="spacing" textLength="10" x="291" y="261.3457">19</text><text fill="#000000" font-family="Serif" font-size="10" lengthAdjust="spacing" textLength="10" x="307" y="261.3457">20</text><text fill="#000000" font-family="Serif" font-size="10" lengthAdjust="spacing" textLength="10" x="323" y="261.3457">21</text><text fill="#000000" font-family="Serif" font-size="10" lengthAdjust="spacing" textLength="10" x="339" y="261.3457">22</text><text fill="#000000" font-family="Serif" font-size="10" lengthAdjust="spacing" textLength="10" x="355" y="261.3457">23</text><text fill="#000000" font-family="Serif" font-size="10" lengthAdjust="spacing" textLength="10" x="371" y="261.3457">24</text><text fill="#000000" font-family="Serif" font-size="10" lengthAdjust="spacing" textLength="10" x="387" y="261.3457">25</text><text fill="#000000" font-family="Serif" font-size="10" lengthAdjust="spacing" textLength="10" x="403" y="261.3457">26</text><text fill="#000000" font-family="Serif" font-size="10" lengthAdjust="spacing" textLength="10" x="419" y="261.3457">27</text><text fill="#000000" font-family="Serif" font-size="10" lengthAdjust="spacing" textLength="10" x="435" y="261.3457">28</text><text fill="#000000" font-family="Serif" font-size="10" lengthAdjust="spacing" textLength="10" x="451" y="261.3457">29</text><text fill="#000000" font-family="Serif" font-size="10" lengthAdjust="spacing" textLength="10" x="467" y="261.3457">30</text><text fill="#000000" font-family="Serif" font-size="10" lengthAdjust="spacing" textLength="10" x="483" y="261.3457">31</text><text fill="#000000" font-family="Serif" font-size="10" lengthAdjust="spacing" textLength="10" x="499" y="261.3457">32</text><text fill="#000000" font-family="Serif" font-size="10" lengthAdjust="spacing" textLength="10" x="515" y="261.3457">33</text><line style="stroke:#C0C0C0;stroke-width:1.0;" x1="0" x2="528" y1="250.8672" y2="250.8672"/><!--MD5=[f02ebd346333a8ff121f32a3d40a4c2c]
@startgantt
[Entscheidung der Geschäftsführung] lasts 2 days
[Angebot einholen ] lasts 14 days
[Angebot einholen ] starts at [Entscheidung der Geschäftsführung]'s end 
[Mitarbeiterinformation] lasts 1 day 
[Mitarbeiterinformation] starts at [Entscheidung der Geschäftsführung]'s end
[Testen des Gerätes 1 ] lasts 1 day 
[Testen des Gerätes 1 ] starts at [Angebot einholen ]'s end
[Testen des Gerätes 2 ] lasts 2 days
[Testen des Gerätes 2 ] starts at [Angebot einholen ]'s end 
[Testen des Gerätes 3 ] lasts 1 day 
[Testen des Gerätes 3 ] starts at [Angebot einholen ]'s end 
[Auswahl der Lieferanten] lasts 1 day
[Auswahl der Lieferanten] starts at [Testen des Gerätes 3 ]'s end 
[Auswahl der Lieferanten] starts at [Testen des Gerätes 2 ]'s end 
[Auswahl der Lieferanten] starts at [Testen des Gerätes 1 ]'s end 
[Lieferung] lasts 5 days 
[Lieferung] starts at [Auswahl der Lieferanten]'s end 
[Raumauswahl] lasts 2 days 
[Raumauswahl] starts at [Auswahl der Lieferanten]'s end 
[Elektroinstalation] lasts 2 days
[Elektroinstalation] starts at [Raumauswahl]'s end 
[Computer aufstellen] lasts 1 day 
[Computer aufstellen] starts at [Elektroinstalation]'s end 
[Computer aufstellen] starts at [Lieferung]'s end 
[Mitarbeiterschulung] lasts 7 days
[Mitarbeiterschulung] starts at [Computer aufstellen]'s end 
[Mitarbeiterschulung] starts at [Mitarbeiterinformation]'s end 
[Arbeitsaufnahme] lasts 1 day 
[Arbeitsaufnahme] starts at [Mitarbeiterschulung]'s end 

@endgantt

PlantUML version 1.2022.7(Mon Aug 22 19:01:30 CEST 2022)
(GPL source distribution)
Java Runtime: OpenJDK Runtime Environment
JVM: OpenJDK 64-Bit Server VM
Default Encoding: UTF-8
Language: de
Country: DE
--></g></svg>