<svg xmlns="http://www.w3.org/2000/svg" xmlns:xlink="http://www.w3.org/1999/xlink" contentStyleType="text/css" height="521px" preserveAspectRatio="none" style="width:2027px;height:521px;background:#FFFFFF;" version="1.1" viewBox="0 0 2027 521" width="2027px" zoomAndPan="magnify"><defs/><g><!--cluster routes--><g id="cluster_routes"><path d="M8.5,6 L55.793,6 A3.75,3.75 0 0 1 58.293,8.5 L65.293,28.4883 L2017.5,28.4883 A2.5,2.5 0 0 1 2020,30.9883 L2020,371.21 A2.5,2.5 0 0 1 2017.5,373.71 L8.5,373.71 A2.5,2.5 0 0 1 6,371.21 L6,8.5 A2.5,2.5 0 0 1 8.5,6 " fill="none" style="stroke:#000000;stroke-width:1.5;"/><line style="stroke:#000000;stroke-width:1.5;" x1="6" x2="65.293" y1="28.4883" y2="28.4883"/><text fill="#000000" font-family="sans-serif" font-size="14" font-weight="bold" lengthAdjust="spacing" textLength="46.293" x="10" y="21.5352">routes</text><text fill="#000000" font-family="sans-serif" font-size="14" font-style="italic" lengthAdjust="spacing" textLength="71.8115" x="981.0942" y="44.0234">&#171;Modules&#187;</text></g><!--cluster mod--><g id="cluster_mod"><path d="M934.5,65 L967.2939,65 A3.75,3.75 0 0 1 969.7939,67.5 L976.7939,87.4883 L1259.5,87.4883 A2.5,2.5 0 0 1 1262,89.9883 L1262,202.61 A2.5,2.5 0 0 1 1259.5,205.11 L934.5,205.11 A2.5,2.5 0 0 1 932,202.61 L932,67.5 A2.5,2.5 0 0 1 934.5,65 " fill="none" style="stroke:#000000;stroke-width:1.5;"/><line style="stroke:#000000;stroke-width:1.5;" x1="932" x2="976.7939" y1="87.4883" y2="87.4883"/><text fill="#000000" font-family="sans-serif" font-size="14" font-weight="bold" lengthAdjust="spacing" textLength="31.7939" x="936" y="80.5352">mod</text><text fill="#000000" font-family="sans-serif" font-size="14" font-style="italic" lengthAdjust="spacing" textLength="71.8115" x="1065.0942" y="103.0234">&#171;Modules&#187;</text></g><!--cluster entities--><g id="cluster_entities"><path d="M298.5,406.71 L353.4697,406.71 A3.75,3.75 0 0 1 355.9697,409.21 L362.9697,429.1983 L904.5,429.1983 A2.5,2.5 0 0 1 907,431.6983 L907,511.83 A2.5,2.5 0 0 1 904.5,514.33 L298.5,514.33 A2.5,2.5 0 0 1 296,511.83 L296,409.21 A2.5,2.5 0 0 1 298.5,406.71 " fill="none" style="stroke:#000000;stroke-width:1.5;"/><line style="stroke:#000000;stroke-width:1.5;" x1="296" x2="362.9697" y1="429.1983" y2="429.1983"/><text fill="#000000" font-family="sans-serif" font-size="14" font-weight="bold" lengthAdjust="spacing" textLength="53.9697" x="300" y="422.2452">entities</text></g><!--class read--><g id="elem_read"><rect codeLine="3" fill="#F1F1F1" height="89.5977" id="read" rx="2.5" ry="2.5" style="stroke:#181818;stroke-width:0.5;" width="681.8604" x="22.07" y="268.11"/><ellipse cx="333.0324" cy="288.4205" fill="#6A3100" rx="11" ry="11" style="stroke:#181818;stroke-width:1;"/><path d="M328.7463,282.5275 L331.6681,282.5275 L333.1457,287.9645 L334.6149,282.5275 L337.5534,282.5275 L337.5534,294.9205 L335.445,294.9205 L335.445,284.9928 L334.1335,290.4132 L332.1828,290.4132 L330.8547,284.9928 L330.8547,294.9205 L328.7463,294.9205 Z " fill="#000000"/><text fill="#000000" font-family="sans-serif" font-size="12" font-style="italic" lengthAdjust="spacing" textLength="55.4355" x="351.5324" y="284.7116">&#171;Module&#187;</text><text fill="#000000" font-family="sans-serif" font-size="14" lengthAdjust="spacing" textLength="30.0713" x="364.2145" y="300.778">read</text><line style="stroke:#181818;stroke-width:0.5;" x1="23.07" x2="702.9304" y1="308.7311" y2="308.7311"/><line style="stroke:#181818;stroke-width:1;" x1="23.07" x2="702.9304" y1="316.7311" y2="316.7311"/><ellipse cx="33.07" cy="330.4752" fill="#84BE84" rx="3" ry="3" style="stroke:#038048;stroke-width:1;"/><text fill="#000000" font-family="sans-serif" font-size="14" lengthAdjust="spacing" textLength="655.8604" x="42.07" y="334.2663">get_overview_day(db, customday: Option&lt;String&gt;): Result&lt;Vec&lt;EntryRelatedData&gt;, ErrorType&gt;</text><text fill="#000000" font-family="sans-serif" font-size="14" lengthAdjust="spacing" textLength="4.4297" x="42.07" y="350.7545">&#160;</text></g><!--class create--><g id="elem_create"><rect codeLine="8" fill="#F1F1F1" height="89.5977" id="create" rx="2.5" ry="2.5" style="stroke:#181818;stroke-width:0.5;" width="716.6279" x="738.69" y="268.11"/><ellipse cx="1067.0362" cy="288.4205" fill="#6A3100" rx="11" ry="11" style="stroke:#181818;stroke-width:1;"/><path d="M1062.7501,282.5275 L1065.6719,282.5275 L1067.1495,287.9645 L1068.6187,282.5275 L1071.5572,282.5275 L1071.5572,294.9205 L1069.4488,294.9205 L1069.4488,284.9928 L1068.1373,290.4132 L1066.1866,290.4132 L1064.8585,284.9928 L1064.8585,294.9205 L1062.7501,294.9205 Z " fill="#000000"/><text fill="#000000" font-family="sans-serif" font-size="12" font-style="italic" lengthAdjust="spacing" textLength="55.4355" x="1085.5362" y="284.7116">&#171;Module&#187;</text><text fill="#000000" font-family="sans-serif" font-size="14" lengthAdjust="spacing" textLength="41.4668" x="1092.5206" y="300.778">create</text><line style="stroke:#181818;stroke-width:0.5;" x1="739.69" x2="1454.3179" y1="308.7311" y2="308.7311"/><line style="stroke:#181818;stroke-width:1;" x1="739.69" x2="1454.3179" y1="316.7311" y2="316.7311"/><ellipse cx="749.69" cy="330.4752" fill="#84BE84" rx="3" ry="3" style="stroke:#038048;stroke-width:1;"/><text fill="#000000" font-family="sans-serif" font-size="14" lengthAdjust="spacing" textLength="547.1963" x="758.69" y="334.2663">post_joinroom(db, entry_id: i32, user_name): Result&lt;ResponseType, ErrorType&gt;</text><ellipse cx="749.69" cy="346.9635" fill="#84BE84" rx="3" ry="3" style="stroke:#038048;stroke-width:1;"/><text fill="#000000" font-family="sans-serif" font-size="14" lengthAdjust="spacing" textLength="690.6279" x="758.69" y="350.7545">post_joinrooms(db, room_id: i32, days: Vec&lt;String&gt;, user_name): Result&lt;ResponseType, ErrorType&gt;</text></g><!--class delete--><g id="elem_delete"><rect codeLine="13" fill="#F1F1F1" height="73.1094" id="delete" rx="2.5" ry="2.5" style="stroke:#181818;stroke-width:0.5;" width="514.0518" x="1489.97" y="276.36"/><ellipse cx="1717.0281" cy="296.6705" fill="#6A3100" rx="11" ry="11" style="stroke:#181818;stroke-width:1;"/><path d="M1712.742,290.7775 L1715.6638,290.7775 L1717.1414,296.2145 L1718.6106,290.7775 L1721.5491,290.7775 L1721.5491,303.1705 L1719.4407,303.1705 L1719.4407,293.2428 L1718.1292,298.6632 L1716.1785,298.6632 L1714.8504,293.2428 L1714.8504,303.1705 L1712.742,303.1705 Z " fill="#000000"/><text fill="#000000" font-family="sans-serif" font-size="12" font-style="italic" lengthAdjust="spacing" textLength="55.4355" x="1735.5281" y="292.9616">&#171;Module&#187;</text><text fill="#000000" font-family="sans-serif" font-size="14" lengthAdjust="spacing" textLength="41.4941" x="1742.4988" y="309.028">delete</text><line style="stroke:#181818;stroke-width:0.5;" x1="1490.97" x2="2003.0218" y1="316.9811" y2="316.9811"/><line style="stroke:#181818;stroke-width:1;" x1="1490.97" x2="2003.0218" y1="324.9811" y2="324.9811"/><ellipse cx="1500.97" cy="338.7252" fill="#84BE84" rx="3" ry="3" style="stroke:#038048;stroke-width:1;"/><text fill="#000000" font-family="sans-serif" font-size="14" lengthAdjust="spacing" textLength="488.0518" x="1509.97" y="342.5163">delete_participant(db, entry_id: i32): Result&lt;ResponseType, ErrorType&gt;</text></g><!--class BeamBackendConnector--><g id="elem_BeamBackendConnector"><rect codeLine="18" fill="#F1F1F1" height="73.1094" id="BeamBackendConnector" rx="2.5" ry="2.5" style="stroke:#181818;stroke-width:0.5;" width="298.8906" x="947.55" y="116"/><ellipse cx="1011.1003" cy="136.3105" fill="#FF7700" rx="11" ry="11" style="stroke:#181818;stroke-width:1;"/><path d="M1010.8337,137.3735 Q1008.9826,136.668 1008.3269,135.8918 Q1007.6711,135.1157 1007.6711,133.8042 Q1007.6711,132.1191 1008.7502,131.1563 Q1009.8293,130.1934 1011.7136,130.1934 Q1012.5686,130.1934 1013.4235,130.3884 Q1014.2785,130.5835 1015.1169,130.9653 L1015.1169,133.356 Q1014.3283,132.7998 1013.5148,132.5093 Q1012.7014,132.2188 1011.9045,132.2188 Q1011.0163,132.2188 1010.5432,132.5757 Q1010.07,132.9326 1010.07,133.5967 Q1010.07,134.1113 1010.4145,134.4475 Q1010.759,134.7837 1011.8547,135.1904 L1012.9089,135.5889 Q1014.403,136.1367 1015.1086,137.0415 Q1015.8142,137.9463 1015.8142,139.3242 Q1015.8142,141.2002 1014.706,142.1257 Q1013.5979,143.0513 1011.3566,143.0513 Q1010.4353,143.0513 1009.5097,142.8313 Q1008.5842,142.6113 1007.7209,142.1797 L1007.7209,139.6479 Q1008.7004,140.3452 1009.6176,140.6855 Q1010.5349,141.0259 1011.4313,141.0259 Q1012.3361,141.0259 1012.8342,140.615 Q1013.3322,140.2041 1013.3322,139.4653 Q1013.3322,138.9092 1013.0002,138.49 Q1012.6682,138.0708 1012.0373,137.8301 Z " fill="#000000"/><text fill="#000000" font-family="sans-serif" font-size="12" font-style="italic" lengthAdjust="spacing" textLength="46.5176" x="1089.9865" y="132.6016">&#171;Struct&#187;</text><text fill="#000000" font-family="sans-serif" font-size="14" lengthAdjust="spacing" textLength="163.29" x="1031.6003" y="148.668">BeamBackendConnector</text><line style="stroke:#181818;stroke-width:0.5;" x1="948.55" x2="1245.4406" y1="156.6211" y2="156.6211"/><line style="stroke:#181818;stroke-width:1;" x1="948.55" x2="1245.4406" y1="164.6211" y2="164.6211"/><ellipse cx="958.55" cy="178.3652" fill="#84BE84" rx="3" ry="3" style="stroke:#038048;stroke-width:1;"/><text fill="#000000" font-family="sans-serif" font-size="14" lengthAdjust="spacing" textLength="272.8906" x="967.55" y="182.1563">process_task(db: &amp;DatabaseConnection)</text></g><!--class mrbs_area--><g id="elem_mrbs_area"><rect codeLine="26" fill="#F1F1F1" height="56.6211" id="mrbs_area" rx="2.5" ry="2.5" style="stroke:#181818;stroke-width:0.5;" width="102.7383" x="311.63" y="441.71"/><ellipse cx="326.63" cy="462.0205" fill="#FF7700" rx="11" ry="11" style="stroke:#181818;stroke-width:1;"/><path d="M326.3634,463.0835 Q324.5123,462.378 323.8566,461.6018 Q323.2008,460.8257 323.2008,459.5142 Q323.2008,457.8291 324.2799,456.8663 Q325.359,455.9034 327.2433,455.9034 Q328.0983,455.9034 328.9532,456.0984 Q329.8082,456.2935 330.6466,456.6753 L330.6466,459.066 Q329.858,458.5098 329.0446,458.2193 Q328.2311,457.9288 327.4342,457.9288 Q326.546,457.9288 326.0729,458.2857 Q325.5997,458.6426 325.5997,459.3067 Q325.5997,459.8213 325.9442,460.1575 Q326.2887,460.4937 327.3844,460.9004 L328.4386,461.2989 Q329.9327,461.8467 330.6383,462.7515 Q331.3439,463.6563 331.3439,465.0342 Q331.3439,466.9102 330.2357,467.8357 Q329.1276,468.7613 326.8863,468.7613 Q325.965,468.7613 325.0394,468.5413 Q324.1139,468.3213 323.2506,467.8897 L323.2506,465.3579 Q324.2301,466.0552 325.1473,466.3955 Q326.0646,466.7359 326.9611,466.7359 Q327.8658,466.7359 328.3639,466.325 Q328.8619,465.9141 328.8619,465.1753 Q328.8619,464.6192 328.5299,464.2 Q328.1979,463.7808 327.567,463.5401 Z " fill="#000000"/><text fill="#000000" font-family="sans-serif" font-size="12" font-style="italic" lengthAdjust="spacing" textLength="46.5176" x="352.7404" y="458.3116">&#171;Struct&#187;</text><text fill="#000000" font-family="sans-serif" font-size="14" lengthAdjust="spacing" textLength="70.7383" x="340.63" y="474.378">mrbs_area</text><line style="stroke:#181818;stroke-width:0.5;" x1="312.63" x2="413.3683" y1="482.3311" y2="482.3311"/><line style="stroke:#181818;stroke-width:0.5;" x1="312.63" x2="413.3683" y1="490.3311" y2="490.3311"/></g><!--class mrbs_room--><g id="elem_mrbs_room"><rect codeLine="27" fill="#F1F1F1" height="56.6211" id="mrbs_room" rx="2.5" ry="2.5" style="stroke:#181818;stroke-width:0.5;" width="109.7451" x="449.13" y="441.71"/><ellipse cx="464.13" cy="462.0205" fill="#FF7700" rx="11" ry="11" style="stroke:#181818;stroke-width:1;"/><path d="M463.8634,463.0835 Q462.0123,462.378 461.3566,461.6018 Q460.7008,460.8257 460.7008,459.5142 Q460.7008,457.8291 461.7799,456.8663 Q462.859,455.9034 464.7433,455.9034 Q465.5983,455.9034 466.4532,456.0984 Q467.3082,456.2935 468.1466,456.6753 L468.1466,459.066 Q467.358,458.5098 466.5446,458.2193 Q465.7311,457.9288 464.9342,457.9288 Q464.046,457.9288 463.5729,458.2857 Q463.0997,458.6426 463.0997,459.3067 Q463.0997,459.8213 463.4442,460.1575 Q463.7887,460.4937 464.8844,460.9004 L465.9386,461.2989 Q467.4327,461.8467 468.1383,462.7515 Q468.8439,463.6563 468.8439,465.0342 Q468.8439,466.9102 467.7357,467.8357 Q466.6276,468.7613 464.3863,468.7613 Q463.465,468.7613 462.5394,468.5413 Q461.6139,468.3213 460.7506,467.8897 L460.7506,465.3579 Q461.7301,466.0552 462.6473,466.3955 Q463.5646,466.7359 464.4611,466.7359 Q465.3658,466.7359 465.8639,466.325 Q466.3619,465.9141 466.3619,465.1753 Q466.3619,464.6192 466.0299,464.2 Q465.6979,463.7808 465.067,463.5401 Z " fill="#000000"/><text fill="#000000" font-family="sans-serif" font-size="12" font-style="italic" lengthAdjust="spacing" textLength="46.5176" x="493.7438" y="458.3116">&#171;Struct&#187;</text><text fill="#000000" font-family="sans-serif" font-size="14" lengthAdjust="spacing" textLength="77.7451" x="478.13" y="474.378">mrbs_room</text><line style="stroke:#181818;stroke-width:0.5;" x1="450.13" x2="557.8751" y1="482.3311" y2="482.3311"/><line style="stroke:#181818;stroke-width:0.5;" x1="450.13" x2="557.8751" y1="490.3311" y2="490.3311"/></g><!--class mrbs_entry--><g id="elem_mrbs_entry"><rect codeLine="28" fill="#F1F1F1" height="56.6211" id="mrbs_entry" rx="2.5" ry="2.5" style="stroke:#181818;stroke-width:0.5;" width="108.5146" x="593.74" y="441.71"/><ellipse cx="608.74" cy="462.0205" fill="#FF7700" rx="11" ry="11" style="stroke:#181818;stroke-width:1;"/><path d="M608.4734,463.0835 Q606.6223,462.378 605.9666,461.6018 Q605.3108,460.8257 605.3108,459.5142 Q605.3108,457.8291 606.3899,456.8663 Q607.469,455.9034 609.3533,455.9034 Q610.2083,455.9034 611.0632,456.0984 Q611.9182,456.2935 612.7566,456.6753 L612.7566,459.066 Q611.968,458.5098 611.1546,458.2193 Q610.3411,457.9288 609.5442,457.9288 Q608.656,457.9288 608.1829,458.2857 Q607.7097,458.6426 607.7097,459.3067 Q607.7097,459.8213 608.0542,460.1575 Q608.3987,460.4937 609.4944,460.9004 L610.5486,461.2989 Q612.0427,461.8467 612.7483,462.7515 Q613.4539,463.6563 613.4539,465.0342 Q613.4539,466.9102 612.3457,467.8357 Q611.2376,468.7613 608.9963,468.7613 Q608.075,468.7613 607.1494,468.5413 Q606.2239,468.3213 605.3606,467.8897 L605.3606,465.3579 Q606.3401,466.0552 607.2573,466.3955 Q608.1746,466.7359 609.0711,466.7359 Q609.9758,466.7359 610.4739,466.325 Q610.9719,465.9141 610.9719,465.1753 Q610.9719,464.6192 610.6399,464.2 Q610.3079,463.7808 609.677,463.5401 Z " fill="#000000"/><text fill="#000000" font-family="sans-serif" font-size="12" font-style="italic" lengthAdjust="spacing" textLength="46.5176" x="637.7385" y="458.3116">&#171;Struct&#187;</text><text fill="#000000" font-family="sans-serif" font-size="14" lengthAdjust="spacing" textLength="76.5146" x="622.74" y="474.378">mrbs_entry</text><line style="stroke:#181818;stroke-width:0.5;" x1="594.74" x2="701.2546" y1="482.3311" y2="482.3311"/><line style="stroke:#181818;stroke-width:0.5;" x1="594.74" x2="701.2546" y1="490.3311" y2="490.3311"/></g><!--class mrbs_participants--><g id="elem_mrbs_participants"><rect codeLine="29" fill="#F1F1F1" height="56.6211" id="mrbs_participants" rx="2.5" ry="2.5" style="stroke:#181818;stroke-width:0.5;" width="154.124" x="736.94" y="441.71"/><ellipse cx="751.94" cy="462.0205" fill="#FF7700" rx="11" ry="11" style="stroke:#181818;stroke-width:1;"/><path d="M751.6734,463.0835 Q749.8223,462.378 749.1666,461.6018 Q748.5108,460.8257 748.5108,459.5142 Q748.5108,457.8291 749.5899,456.8663 Q750.669,455.9034 752.5533,455.9034 Q753.4083,455.9034 754.2632,456.0984 Q755.1182,456.2935 755.9566,456.6753 L755.9566,459.066 Q755.168,458.5098 754.3546,458.2193 Q753.5411,457.9288 752.7442,457.9288 Q751.856,457.9288 751.3829,458.2857 Q750.9097,458.6426 750.9097,459.3067 Q750.9097,459.8213 751.2542,460.1575 Q751.5987,460.4937 752.6944,460.9004 L753.7486,461.2989 Q755.2427,461.8467 755.9483,462.7515 Q756.6539,463.6563 756.6539,465.0342 Q756.6539,466.9102 755.5457,467.8357 Q754.4376,468.7613 752.1963,468.7613 Q751.275,468.7613 750.3494,468.5413 Q749.4239,468.3213 748.5606,467.8897 L748.5606,465.3579 Q749.5401,466.0552 750.4573,466.3955 Q751.3746,466.7359 752.2711,466.7359 Q753.1758,466.7359 753.6739,466.325 Q754.1719,465.9141 754.1719,465.1753 Q754.1719,464.6192 753.8399,464.2 Q753.5079,463.7808 752.877,463.5401 Z " fill="#000000"/><text fill="#000000" font-family="sans-serif" font-size="12" font-style="italic" lengthAdjust="spacing" textLength="46.5176" x="803.7432" y="458.3116">&#171;Struct&#187;</text><text fill="#000000" font-family="sans-serif" font-size="14" lengthAdjust="spacing" textLength="122.124" x="765.94" y="474.378">mrbs_participants</text><line style="stroke:#181818;stroke-width:0.5;" x1="737.94" x2="890.064" y1="482.3311" y2="482.3311"/><line style="stroke:#181818;stroke-width:0.5;" x1="737.94" x2="890.064" y1="490.3311" y2="490.3311"/></g><!--link BeamBackendConnector to read--><g id="link_BeamBackendConnector_read"><path codeLine="33" d="M947.14,185.89 C837.91,209.45 688.62,241.66 568.3,267.62 " fill="none" id="BeamBackendConnector-read" style="stroke:#181818;stroke-width:1;"/><text fill="#000000" font-family="sans-serif" font-size="13" lengthAdjust="spacing" textLength="21.9375" x="774.95" y="234.6784">use</text></g><!--link BeamBackendConnector to create--><g id="link_BeamBackendConnector_create"><path codeLine="34" d="M1097,189.49 C1097,212.67 1097,242.98 1097,267.64 " fill="none" id="BeamBackendConnector-create" style="stroke:#181818;stroke-width:1;"/><text fill="#000000" font-family="sans-serif" font-size="13" lengthAdjust="spacing" textLength="21.9375" x="1098" y="234.6784">use</text></g><!--link BeamBackendConnector to delete--><g id="link_BeamBackendConnector_delete"><path codeLine="35" d="M1244.9,189.59 C1350.92,215.42 1493.14,250.06 1599.15,275.89 " fill="none" id="BeamBackendConnector-delete" style="stroke:#181818;stroke-width:1;"/><text fill="#000000" font-family="sans-serif" font-size="13" lengthAdjust="spacing" textLength="21.9375" x="1442.49" y="234.6784">use</text></g><!--link read to mrbs_area--><g id="link_read_mrbs_area"><path codeLine="36" d="M363,357.94 C363,384.81 363,418.33 363,441.48 " fill="none" id="read-mrbs_area" style="stroke:#181818;stroke-width:1;"/></g><!--link read to mrbs_room--><g id="link_read_mrbs_room"><path codeLine="37" d="M403.03,357.94 C427.45,384.81 457.92,418.33 478.96,441.48 " fill="none" id="read-mrbs_room" style="stroke:#181818;stroke-width:1;"/></g><!--link read to mrbs_entry--><g id="link_read_mrbs_entry"><path codeLine="38" d="M497.69,358.16 C524.61,369.56 551.97,383.1 576,398.71 C594.02,410.42 611.35,427.11 624.48,441.29 " fill="none" id="read-mrbs_entry" style="stroke:#181818;stroke-width:1;"/></g><!--link read to mrbs_participants--><g id="link_read_mrbs_participants"><path codeLine="39" d="M608.53,358.16 C646.75,369.02 685.09,382.37 720,398.71 C743.26,409.59 766.39,426.8 783.89,441.46 " fill="none" id="read-mrbs_participants" style="stroke:#181818;stroke-width:1;"/></g><!--link create to mrbs_participants--><g id="link_create_mrbs_participants"><path codeLine="40" d="M1016.28,358.15 C967.43,384.92 906.65,418.24 864.54,441.32 " fill="none" id="create-mrbs_participants" style="stroke:#181818;stroke-width:1;"/></g><!--link create to mrbs_entry--><g id="link_create_mrbs_entry"><path codeLine="41" d="M816.41,358.13 C782.52,368.85 749.24,382.17 719,398.71 C699.67,409.28 682.05,426.67 669.19,441.51 " fill="none" id="create-mrbs_entry" style="stroke:#181818;stroke-width:1;"/></g><!--link delete to mrbs_participants--><g id="link_delete_mrbs_participants"><path codeLine="42" d="M1614.21,349.91 C1569.57,361.17 1519.34,372.93 1473,381.71 C1264.35,421.22 1015.2,449.04 891.55,461.56 " fill="none" id="delete-mrbs_participants" style="stroke:#181818;stroke-width:1;"/></g><!--SRC=[bPJTQjj048NlzHG3XIGcDgGDD224eFcx2uMaz5QiTmUpZRGhTaOfflZTExjIR3bnJAGBoLgT6NrdTDQjqizgXH1ynqXG50_UT3LIMSA_3EJGjIA2WCh8GpXxcCENxpyklrvSpA2NRfMBHRgSmmgvyYyONYp-hOnQdvdb77H7x1kvo-5dozQxuec3TQjobiCZKbTpyHjrSUSuh1-nLepcLh4gvt0NWW-_rYsMgNywRKPiMk0OFqtNUkBgZxSkUDyaD8plhAp9mLv-cqD762gd6joHoQNrZZ1Il0Dwqv9Ip_Xhrr9iKmxHts1w-bl6ZWtMEC5nBwzQ5TXgsoh7xsrFecY7q3JU74ZCZlCQLNCjMdJcnZk7cdr8r4z2VNz_THMfPIATvhtg4Vth8KCENYDHnOgUXJ-7avYFfI8SUakcPjkQpO2RRR9NMl5hsKh8ny5kmf8g9GawmhLvguyVTue-JNfAmUXJqT4wCNXwAi4AI-jCvrQG7PpvOf5sS1vJzw6YtqV7DKFoUb7wKv35xGptL-AKzbVI7FQNnawpOIT_vbdVQi0vMF0V]--></g></svg>