<svg xmlns="http://www.w3.org/2000/svg" xmlns:xlink="http://www.w3.org/1999/xlink" contentStyleType="text/css" height="521px" preserveAspectRatio="none" style="width:1226px;height:521px;background:#FFFFFF;" version="1.1" viewBox="0 0 1226 521" width="1226px" zoomAndPan="magnify"><defs/><g><!--cluster routes--><g id="cluster_routes"><path d="M8.5,6 L55.793,6 A3.75,3.75 0 0 1 58.293,8.5 L65.293,28.4883 L1216.5,28.4883 A2.5,2.5 0 0 1 1219,30.9883 L1219,371.21 A2.5,2.5 0 0 1 1216.5,373.71 L8.5,373.71 A2.5,2.5 0 0 1 6,371.21 L6,8.5 A2.5,2.5 0 0 1 8.5,6 " fill="none" style="stroke:#000000;stroke-width:1.5;"/><line style="stroke:#000000;stroke-width:1.5;" x1="6" x2="65.293" y1="28.4883" y2="28.4883"/><text fill="#000000" font-family="sans-serif" font-size="14" font-weight="bold" lengthAdjust="spacing" textLength="46.293" x="10" y="21.5352">routes</text><text fill="#000000" font-family="sans-serif" font-size="14" font-style="italic" lengthAdjust="spacing" textLength="71.8115" x="580.5942" y="44.0234">&#171;Modules&#187;</text></g><!--cluster mod--><g id="cluster_mod"><path d="M501.5,65 L534.2939,65 A3.75,3.75 0 0 1 536.7939,67.5 L543.7939,87.4883 L826.5,87.4883 A2.5,2.5 0 0 1 829,89.9883 L829,202.61 A2.5,2.5 0 0 1 826.5,205.11 L501.5,205.11 A2.5,2.5 0 0 1 499,202.61 L499,67.5 A2.5,2.5 0 0 1 501.5,65 " fill="none" style="stroke:#000000;stroke-width:1.5;"/><line style="stroke:#000000;stroke-width:1.5;" x1="499" x2="543.7939" y1="87.4883" y2="87.4883"/><text fill="#000000" font-family="sans-serif" font-size="14" font-weight="bold" lengthAdjust="spacing" textLength="31.7939" x="503" y="80.5352">mod</text><text fill="#000000" font-family="sans-serif" font-size="14" font-style="italic" lengthAdjust="spacing" textLength="71.8115" x="632.0942" y="103.0234">&#171;Modules&#187;</text></g><!--cluster entities--><g id="cluster_entities"><path d="M143.5,406.71 L198.4697,406.71 A3.75,3.75 0 0 1 200.9697,409.21 L207.9697,429.1983 L749.5,429.1983 A2.5,2.5 0 0 1 752,431.6983 L752,511.83 A2.5,2.5 0 0 1 749.5,514.33 L143.5,514.33 A2.5,2.5 0 0 1 141,511.83 L141,409.21 A2.5,2.5 0 0 1 143.5,406.71 " fill="none" style="stroke:#000000;stroke-width:1.5;"/><line style="stroke:#000000;stroke-width:1.5;" x1="141" x2="207.9697" y1="429.1983" y2="429.1983"/><text fill="#000000" font-family="sans-serif" font-size="14" font-weight="bold" lengthAdjust="spacing" textLength="53.9697" x="145" y="422.2452">entities</text></g><!--class read--><g id="elem_read"><rect codeLine="3" fill="#F1F1F1" height="89.5977" id="read" rx="2.5" ry="2.5" style="stroke:#181818;stroke-width:0.5;" width="371.5703" x="22.21" y="268.11"/><ellipse cx="178.0274" cy="288.4205" fill="#6A3100" rx="11" ry="11" style="stroke:#181818;stroke-width:1;"/><path d="M173.7413,282.5275 L176.6631,282.5275 L178.1407,287.9645 L179.6099,282.5275 L182.5484,282.5275 L182.5484,294.9205 L180.44,294.9205 L180.44,284.9928 L179.1285,290.4132 L177.1778,290.4132 L175.8496,284.9928 L175.8496,294.9205 L173.7413,294.9205 Z " fill="#000000"/><text fill="#000000" font-family="sans-serif" font-size="12" font-style="italic" lengthAdjust="spacing" textLength="55.4355" x="196.5274" y="284.7116">&#171;Module&#187;</text><text fill="#000000" font-family="sans-serif" font-size="14" lengthAdjust="spacing" textLength="30.0713" x="209.2095" y="300.778">read</text><line style="stroke:#181818;stroke-width:0.5;" x1="23.21" x2="392.7803" y1="308.7311" y2="308.7311"/><line style="stroke:#181818;stroke-width:1;" x1="23.21" x2="392.7803" y1="316.7311" y2="316.7311"/><ellipse cx="33.21" cy="330.4752" fill="#84BE84" rx="3" ry="3" style="stroke:#038048;stroke-width:1;"/><text fill="#000000" font-family="sans-serif" font-size="14" lengthAdjust="spacing" textLength="345.5703" x="42.21" y="334.2663">get_overview_day(db, customday: Option&lt;String&gt;)</text><text fill="#000000" font-family="sans-serif" font-size="14" lengthAdjust="spacing" textLength="4.4297" x="42.21" y="350.7545">&#160;</text></g><!--class create--><g id="elem_create"><rect codeLine="8" fill="#F1F1F1" height="89.5977" id="create" rx="2.5" ry="2.5" style="stroke:#181818;stroke-width:0.5;" width="471.1357" x="428.43" y="268.11"/><ellipse cx="634.0301" cy="288.4205" fill="#6A3100" rx="11" ry="11" style="stroke:#181818;stroke-width:1;"/><path d="M629.744,282.5275 L632.6658,282.5275 L634.1434,287.9645 L635.6126,282.5275 L638.5511,282.5275 L638.5511,294.9205 L636.4427,294.9205 L636.4427,284.9928 L635.1312,290.4132 L633.1805,290.4132 L631.8524,284.9928 L631.8524,294.9205 L629.744,294.9205 Z " fill="#000000"/><text fill="#000000" font-family="sans-serif" font-size="12" font-style="italic" lengthAdjust="spacing" textLength="55.4355" x="652.5301" y="284.7116">&#171;Module&#187;</text><text fill="#000000" font-family="sans-serif" font-size="14" lengthAdjust="spacing" textLength="41.4668" x="659.5145" y="300.778">create</text><line style="stroke:#181818;stroke-width:0.5;" x1="429.43" x2="898.5657" y1="308.7311" y2="308.7311"/><line style="stroke:#181818;stroke-width:1;" x1="429.43" x2="898.5657" y1="316.7311" y2="316.7311"/><ellipse cx="439.43" cy="330.4752" fill="#84BE84" rx="3" ry="3" style="stroke:#038048;stroke-width:1;"/><text fill="#000000" font-family="sans-serif" font-size="14" lengthAdjust="spacing" textLength="301.7041" x="448.43" y="334.2663">post_joinroom(db, entry_id: i32, user_name)</text><ellipse cx="439.43" cy="346.9635" fill="#84BE84" rx="3" ry="3" style="stroke:#038048;stroke-width:1;"/><text fill="#000000" font-family="sans-serif" font-size="14" lengthAdjust="spacing" textLength="445.1357" x="448.43" y="350.7545">post_joinrooms(db, room_id: i32, days: Vec&lt;String&gt;, user_name)</text></g><!--class delete--><g id="elem_delete"><rect codeLine="13" fill="#F1F1F1" height="73.1094" id="delete" rx="2.5" ry="2.5" style="stroke:#181818;stroke-width:0.5;" width="268.5596" x="934.72" y="276.36"/><ellipse cx="1039.032" cy="296.6705" fill="#6A3100" rx="11" ry="11" style="stroke:#181818;stroke-width:1;"/><path d="M1034.7459,290.7775 L1037.6678,290.7775 L1039.1453,296.2145 L1040.6145,290.7775 L1043.553,290.7775 L1043.553,303.1705 L1041.4446,303.1705 L1041.4446,293.2428 L1040.1331,298.6632 L1038.1824,298.6632 L1036.8543,293.2428 L1036.8543,303.1705 L1034.7459,303.1705 Z " fill="#000000"/><text fill="#000000" font-family="sans-serif" font-size="12" font-style="italic" lengthAdjust="spacing" textLength="55.4355" x="1057.532" y="292.9616">&#171;Module&#187;</text><text fill="#000000" font-family="sans-serif" font-size="14" lengthAdjust="spacing" textLength="41.4941" x="1064.5027" y="309.028">delete</text><line style="stroke:#181818;stroke-width:0.5;" x1="935.72" x2="1202.2796" y1="316.9811" y2="316.9811"/><line style="stroke:#181818;stroke-width:1;" x1="935.72" x2="1202.2796" y1="324.9811" y2="324.9811"/><ellipse cx="945.72" cy="338.7252" fill="#84BE84" rx="3" ry="3" style="stroke:#038048;stroke-width:1;"/><text fill="#000000" font-family="sans-serif" font-size="14" lengthAdjust="spacing" textLength="242.5596" x="954.72" y="342.5163">delete_participant(db, entry_id: i32)</text></g><!--class BeamBackendConnector--><g id="elem_BeamBackendConnector"><rect codeLine="18" fill="#F1F1F1" height="73.1094" id="BeamBackendConnector" rx="2.5" ry="2.5" style="stroke:#181818;stroke-width:0.5;" width="298.8906" x="514.55" y="116"/><ellipse cx="578.1003" cy="136.3105" fill="#FF7700" rx="11" ry="11" style="stroke:#181818;stroke-width:1;"/><path d="M577.8337,137.3735 Q575.9826,136.668 575.3269,135.8918 Q574.6711,135.1157 574.6711,133.8042 Q574.6711,132.1191 575.7502,131.1563 Q576.8293,130.1934 578.7136,130.1934 Q579.5686,130.1934 580.4235,130.3884 Q581.2785,130.5835 582.1169,130.9653 L582.1169,133.356 Q581.3283,132.7998 580.5148,132.5093 Q579.7014,132.2188 578.9045,132.2188 Q578.0163,132.2188 577.5432,132.5757 Q577.07,132.9326 577.07,133.5967 Q577.07,134.1113 577.4145,134.4475 Q577.759,134.7837 578.8547,135.1904 L579.9089,135.5889 Q581.403,136.1367 582.1086,137.0415 Q582.8142,137.9463 582.8142,139.3242 Q582.8142,141.2002 581.706,142.1257 Q580.5979,143.0513 578.3566,143.0513 Q577.4353,143.0513 576.5097,142.8313 Q575.5842,142.6113 574.7209,142.1797 L574.7209,139.6479 Q575.7004,140.3452 576.6176,140.6855 Q577.5349,141.0259 578.4313,141.0259 Q579.3361,141.0259 579.8342,140.615 Q580.3322,140.2041 580.3322,139.4653 Q580.3322,138.9092 580.0002,138.49 Q579.6682,138.0708 579.0373,137.8301 Z " fill="#000000"/><text fill="#000000" font-family="sans-serif" font-size="12" font-style="italic" lengthAdjust="spacing" textLength="46.5176" x="656.9865" y="132.6016">&#171;Struct&#187;</text><text fill="#000000" font-family="sans-serif" font-size="14" lengthAdjust="spacing" textLength="163.29" x="598.6003" y="148.668">BeamBackendConnector</text><line style="stroke:#181818;stroke-width:0.5;" x1="515.55" x2="812.4406" y1="156.6211" y2="156.6211"/><line style="stroke:#181818;stroke-width:1;" x1="515.55" x2="812.4406" y1="164.6211" y2="164.6211"/><ellipse cx="525.55" cy="178.3652" fill="#84BE84" rx="3" ry="3" style="stroke:#038048;stroke-width:1;"/><text fill="#000000" font-family="sans-serif" font-size="14" lengthAdjust="spacing" textLength="272.8906" x="534.55" y="182.1563">process_task(db: &amp;DatabaseConnection)</text></g><!--class mrbs_area--><g id="elem_mrbs_area"><rect codeLine="26" fill="#F1F1F1" height="56.6211" id="mrbs_area" rx="2.5" ry="2.5" style="stroke:#181818;stroke-width:0.5;" width="102.7383" x="156.63" y="441.71"/><ellipse cx="171.63" cy="462.0205" fill="#FF7700" rx="11" ry="11" style="stroke:#181818;stroke-width:1;"/><path d="M171.3634,463.0835 Q169.5123,462.378 168.8566,461.6018 Q168.2008,460.8257 168.2008,459.5142 Q168.2008,457.8291 169.2799,456.8663 Q170.359,455.9034 172.2433,455.9034 Q173.0983,455.9034 173.9532,456.0984 Q174.8082,456.2935 175.6466,456.6753 L175.6466,459.066 Q174.858,458.5098 174.0446,458.2193 Q173.2311,457.9288 172.4342,457.9288 Q171.546,457.9288 171.0729,458.2857 Q170.5997,458.6426 170.5997,459.3067 Q170.5997,459.8213 170.9442,460.1575 Q171.2887,460.4937 172.3844,460.9004 L173.4386,461.2989 Q174.9327,461.8467 175.6383,462.7515 Q176.3439,463.6563 176.3439,465.0342 Q176.3439,466.9102 175.2357,467.8357 Q174.1276,468.7613 171.8863,468.7613 Q170.965,468.7613 170.0394,468.5413 Q169.1139,468.3213 168.2506,467.8897 L168.2506,465.3579 Q169.2301,466.0552 170.1473,466.3955 Q171.0646,466.7359 171.9611,466.7359 Q172.8658,466.7359 173.3639,466.325 Q173.8619,465.9141 173.8619,465.1753 Q173.8619,464.6192 173.5299,464.2 Q173.1979,463.7808 172.567,463.5401 Z " fill="#000000"/><text fill="#000000" font-family="sans-serif" font-size="12" font-style="italic" lengthAdjust="spacing" textLength="46.5176" x="197.7404" y="458.3116">&#171;Struct&#187;</text><text fill="#000000" font-family="sans-serif" font-size="14" lengthAdjust="spacing" textLength="70.7383" x="185.63" y="474.378">mrbs_area</text><line style="stroke:#181818;stroke-width:0.5;" x1="157.63" x2="258.3683" y1="482.3311" y2="482.3311"/><line style="stroke:#181818;stroke-width:0.5;" x1="157.63" x2="258.3683" y1="490.3311" y2="490.3311"/></g><!--class mrbs_room--><g id="elem_mrbs_room"><rect codeLine="27" fill="#F1F1F1" height="56.6211" id="mrbs_room" rx="2.5" ry="2.5" style="stroke:#181818;stroke-width:0.5;" width="109.7451" x="294.13" y="441.71"/><ellipse cx="309.13" cy="462.0205" fill="#FF7700" rx="11" ry="11" style="stroke:#181818;stroke-width:1;"/><path d="M308.8634,463.0835 Q307.0123,462.378 306.3566,461.6018 Q305.7008,460.8257 305.7008,459.5142 Q305.7008,457.8291 306.7799,456.8663 Q307.859,455.9034 309.7433,455.9034 Q310.5983,455.9034 311.4532,456.0984 Q312.3082,456.2935 313.1466,456.6753 L313.1466,459.066 Q312.358,458.5098 311.5446,458.2193 Q310.7311,457.9288 309.9342,457.9288 Q309.046,457.9288 308.5729,458.2857 Q308.0997,458.6426 308.0997,459.3067 Q308.0997,459.8213 308.4442,460.1575 Q308.7887,460.4937 309.8844,460.9004 L310.9386,461.2989 Q312.4327,461.8467 313.1383,462.7515 Q313.8439,463.6563 313.8439,465.0342 Q313.8439,466.9102 312.7357,467.8357 Q311.6276,468.7613 309.3863,468.7613 Q308.465,468.7613 307.5394,468.5413 Q306.6139,468.3213 305.7506,467.8897 L305.7506,465.3579 Q306.7301,466.0552 307.6473,466.3955 Q308.5646,466.7359 309.4611,466.7359 Q310.3658,466.7359 310.8639,466.325 Q311.3619,465.9141 311.3619,465.1753 Q311.3619,464.6192 311.0299,464.2 Q310.6979,463.7808 310.067,463.5401 Z " fill="#000000"/><text fill="#000000" font-family="sans-serif" font-size="12" font-style="italic" lengthAdjust="spacing" textLength="46.5176" x="338.7438" y="458.3116">&#171;Struct&#187;</text><text fill="#000000" font-family="sans-serif" font-size="14" lengthAdjust="spacing" textLength="77.7451" x="323.13" y="474.378">mrbs_room</text><line style="stroke:#181818;stroke-width:0.5;" x1="295.13" x2="402.8751" y1="482.3311" y2="482.3311"/><line style="stroke:#181818;stroke-width:0.5;" x1="295.13" x2="402.8751" y1="490.3311" y2="490.3311"/></g><!--class mrbs_entry--><g id="elem_mrbs_entry"><rect codeLine="28" fill="#F1F1F1" height="56.6211" id="mrbs_entry" rx="2.5" ry="2.5" style="stroke:#181818;stroke-width:0.5;" width="108.5146" x="438.74" y="441.71"/><ellipse cx="453.74" cy="462.0205" fill="#FF7700" rx="11" ry="11" style="stroke:#181818;stroke-width:1;"/><path d="M453.4734,463.0835 Q451.6223,462.378 450.9666,461.6018 Q450.3108,460.8257 450.3108,459.5142 Q450.3108,457.8291 451.3899,456.8663 Q452.469,455.9034 454.3533,455.9034 Q455.2083,455.9034 456.0632,456.0984 Q456.9182,456.2935 457.7566,456.6753 L457.7566,459.066 Q456.968,458.5098 456.1546,458.2193 Q455.3411,457.9288 454.5442,457.9288 Q453.656,457.9288 453.1829,458.2857 Q452.7097,458.6426 452.7097,459.3067 Q452.7097,459.8213 453.0542,460.1575 Q453.3987,460.4937 454.4944,460.9004 L455.5486,461.2989 Q457.0427,461.8467 457.7483,462.7515 Q458.4539,463.6563 458.4539,465.0342 Q458.4539,466.9102 457.3457,467.8357 Q456.2376,468.7613 453.9963,468.7613 Q453.075,468.7613 452.1494,468.5413 Q451.2239,468.3213 450.3606,467.8897 L450.3606,465.3579 Q451.3401,466.0552 452.2573,466.3955 Q453.1746,466.7359 454.0711,466.7359 Q454.9758,466.7359 455.4739,466.325 Q455.9719,465.9141 455.9719,465.1753 Q455.9719,464.6192 455.6399,464.2 Q455.3079,463.7808 454.677,463.5401 Z " fill="#000000"/><text fill="#000000" font-family="sans-serif" font-size="12" font-style="italic" lengthAdjust="spacing" textLength="46.5176" x="482.7385" y="458.3116">&#171;Struct&#187;</text><text fill="#000000" font-family="sans-serif" font-size="14" lengthAdjust="spacing" textLength="76.5146" x="467.74" y="474.378">mrbs_entry</text><line style="stroke:#181818;stroke-width:0.5;" x1="439.74" x2="546.2546" y1="482.3311" y2="482.3311"/><line style="stroke:#181818;stroke-width:0.5;" x1="439.74" x2="546.2546" y1="490.3311" y2="490.3311"/></g><!--class mrbs_participants--><g id="elem_mrbs_participants"><rect codeLine="29" fill="#F1F1F1" height="56.6211" id="mrbs_participants" rx="2.5" ry="2.5" style="stroke:#181818;stroke-width:0.5;" width="154.124" x="581.94" y="441.71"/><ellipse cx="596.94" cy="462.0205" fill="#FF7700" rx="11" ry="11" style="stroke:#181818;stroke-width:1;"/><path d="M596.6734,463.0835 Q594.8223,462.378 594.1666,461.6018 Q593.5108,460.8257 593.5108,459.5142 Q593.5108,457.8291 594.5899,456.8663 Q595.669,455.9034 597.5533,455.9034 Q598.4083,455.9034 599.2632,456.0984 Q600.1182,456.2935 600.9566,456.6753 L600.9566,459.066 Q600.168,458.5098 599.3546,458.2193 Q598.5411,457.9288 597.7442,457.9288 Q596.856,457.9288 596.3829,458.2857 Q595.9097,458.6426 595.9097,459.3067 Q595.9097,459.8213 596.2542,460.1575 Q596.5987,460.4937 597.6944,460.9004 L598.7486,461.2989 Q600.2427,461.8467 600.9483,462.7515 Q601.6539,463.6563 601.6539,465.0342 Q601.6539,466.9102 600.5457,467.8357 Q599.4376,468.7613 597.1963,468.7613 Q596.275,468.7613 595.3494,468.5413 Q594.4239,468.3213 593.5606,467.8897 L593.5606,465.3579 Q594.5401,466.0552 595.4573,466.3955 Q596.3746,466.7359 597.2711,466.7359 Q598.1758,466.7359 598.6739,466.325 Q599.1719,465.9141 599.1719,465.1753 Q599.1719,464.6192 598.8399,464.2 Q598.5079,463.7808 597.877,463.5401 Z " fill="#000000"/><text fill="#000000" font-family="sans-serif" font-size="12" font-style="italic" lengthAdjust="spacing" textLength="46.5176" x="648.7432" y="458.3116">&#171;Struct&#187;</text><text fill="#000000" font-family="sans-serif" font-size="14" lengthAdjust="spacing" textLength="122.124" x="610.94" y="474.378">mrbs_participants</text><line style="stroke:#181818;stroke-width:0.5;" x1="582.94" x2="735.064" y1="482.3311" y2="482.3311"/><line style="stroke:#181818;stroke-width:0.5;" x1="582.94" x2="735.064" y1="490.3311" y2="490.3311"/></g><!--link BeamBackendConnector to read--><g id="link_BeamBackendConnector_read"><path codeLine="33" d="M560.24,189.59 C493.49,212.77 406.27,243.06 335.33,267.69 " fill="none" id="BeamBackendConnector-read" style="stroke:#181818;stroke-width:1;"/><text fill="#000000" font-family="sans-serif" font-size="13" lengthAdjust="spacing" textLength="21.9375" x="464.3" y="234.6784">use</text></g><!--link BeamBackendConnector to create--><g id="link_BeamBackendConnector_create"><path codeLine="34" d="M664,189.49 C664,212.67 664,242.98 664,267.64 " fill="none" id="BeamBackendConnector-create" style="stroke:#181818;stroke-width:1;"/><text fill="#000000" font-family="sans-serif" font-size="13" lengthAdjust="spacing" textLength="21.9375" x="665" y="234.6784">use</text></g><!--link BeamBackendConnector to delete--><g id="link_BeamBackendConnector_delete"><path codeLine="35" d="M756.15,189.59 C822.21,215.42 910.82,250.06 976.88,275.89 " fill="none" id="BeamBackendConnector-delete" style="stroke:#181818;stroke-width:1;"/><text fill="#000000" font-family="sans-serif" font-size="13" lengthAdjust="spacing" textLength="21.9375" x="879.64" y="234.6784">use</text></g><!--link read to mrbs_area--><g id="link_read_mrbs_area"><path codeLine="36" d="M208,357.94 C208,384.81 208,418.33 208,441.48 " fill="none" id="read-mrbs_area" style="stroke:#181818;stroke-width:1;"/></g><!--link read to mrbs_room--><g id="link_read_mrbs_room"><path codeLine="37" d="M248.03,357.94 C272.45,384.81 302.92,418.33 323.96,441.48 " fill="none" id="read-mrbs_room" style="stroke:#181818;stroke-width:1;"/></g><!--link read to mrbs_entry--><g id="link_read_mrbs_entry"><path codeLine="38" d="M342.69,358.16 C369.61,369.56 396.97,383.1 421,398.71 C439.02,410.42 456.35,427.11 469.48,441.29 " fill="none" id="read-mrbs_entry" style="stroke:#181818;stroke-width:1;"/></g><!--link read to mrbs_participants--><g id="link_read_mrbs_participants"><path codeLine="39" d="M326.5,358.17 C353.94,367.11 383.24,375.61 411,381.71 C478.26,396.48 500.95,373.42 565,398.71 C589.45,408.36 613.13,426.14 630.6,441.41 " fill="none" id="read-mrbs_participants" style="stroke:#181818;stroke-width:1;"/></g><!--link create to mrbs_participants--><g id="link_create_mrbs_participants"><path codeLine="40" d="M662.58,357.94 C661.71,384.81 660.63,418.33 659.89,441.48 " fill="none" id="create-mrbs_participants" style="stroke:#181818;stroke-width:1;"/></g><!--link create to mrbs_entry--><g id="link_create_mrbs_entry"><path codeLine="41" d="M610.4,358.05 C595.2,370.92 578.77,385.17 564,398.71 C549.04,412.42 532.92,428.29 519.83,441.47 " fill="none" id="create-mrbs_entry" style="stroke:#181818;stroke-width:1;"/></g><!--link delete to mrbs_participants--><g id="link_delete_mrbs_participants"><path codeLine="42" d="M992.26,349.81 C968.35,360.54 941.76,372.02 917,381.71 C857.11,405.14 788.04,428.32 736.44,444.9 " fill="none" id="delete-mrbs_participants" style="stroke:#181818;stroke-width:1;"/></g><!--SRC=[bPFVQy8m4CVV-rSS3APb5jo42KM4kU6Rx47OQud9KJ9jKfBK8QF_-wvfTUtiHFFG7ydtc_laxf8plcKfWj65GmkpsKgBOeTsFeVl06Zm7RCM3391Yp1SZU3k-MNoE1w7K4jFoYZohmT8qILwZsOlyIiHx30Kcn7mmZgTqLyCxxcJMitMpaYLpaFlye-o5P5JI8TNnyorTScdbifedVc0g9mv95B482TF8oWicaIn34FeirZlgRv-BGHhO_X0VaHjxt86B727Dm3NyYHdnaakSwRSENKxIDuKAjEYfqg_60jasOAqgCIhLWgvqyP3hGbgkPnEAoWwJy5Tnzs2EmvAaT4ShKqSirl2Y-7-ZJcsOHQRlQcEuSbJDhX16HnfwJZIIMgiTZDbPcCJHlMzm5N-rLUbkKNl4tcBeLK9Uz571nmCg2tCHYfHg1I2tfn7aRyrSTKp_ohgBh-iQHgh5lcBI9Ed77PdgYnrPtmUkbFjamRDFRjchTwgmUar_000]--></g></svg>