<svg xmlns="http://www.w3.org/2000/svg" xmlns:xlink="http://www.w3.org/1999/xlink" contentStyleType="text/css" height="406px" preserveAspectRatio="none" style="width:2313px;height:406px;background:#FFFFFF;" version="1.1" viewBox="0 0 2313 406" width="2313px" zoomAndPan="magnify"><defs/><g><!--cluster Room Booking System over Samply.Beam--><g id="cluster_Room Booking System over Samply.Beam"><rect fill="none" height="352.81" rx="2.5" ry="2.5" style="stroke:#181818;stroke-width:1;" width="2300" x="7" y="48.06"/><text fill="#000000" font-family="sans-serif" font-size="14" font-weight="bold" lengthAdjust="spacing" textLength="295.5449" x="1009.2275" y="63.5952">Room Booking System over Samply.Beam</text></g><!--cluster Client--><g id="cluster_Client"><rect fill="none" height="173.65" rx="2.5" ry="2.5" style="stroke:#181818;stroke-width:1;" width="1278" x="31" y="91.06"/><text fill="#000000" font-family="sans-serif" font-size="14" font-weight="bold" lengthAdjust="spacing" textLength="42.1504" x="648.9248" y="106.5952">Client</text></g><!--cluster BeamRequestTask--><g id="cluster_BeamRequestTask"><rect fill="none" height="106.65" rx="2.5" ry="2.5" style="stroke:#181818;stroke-width:1;" width="757" x="55" y="134.06"/><text fill="#000000" font-family="sans-serif" font-size="14" font-weight="bold" lengthAdjust="spacing" textLength="131.6191" x="367.6904" y="149.5952">BeamRequestTask</text></g><!--cluster Beam.Proxy Client--><g id="cluster_Beam.Proxy Client"><rect fill="none" height="102.84" rx="2.5" ry="2.5" style="stroke:#181818;stroke-width:1;" width="449" x="836" y="135.96"/><text fill="#000000" font-family="sans-serif" font-size="14" font-weight="bold" lengthAdjust="spacing" textLength="129.377" x="995.8115" y="151.4952">Beam.Proxy Client</text></g><!--cluster Broker test-no-real-data.broker.samply.de--><g id="cluster_Broker test-no-real-data.broker.samply.de"><rect fill="none" height="122.43" rx="2.5" ry="2.5" style="stroke:#181818;stroke-width:1;" width="326" x="1333" y="126.17"/><text fill="#000000" font-family="sans-serif" font-size="14" font-weight="bold" lengthAdjust="spacing" textLength="310.9326" x="1340.5337" y="141.7052">Broker test-no-real-data.broker.samply.de</text></g><!--cluster Backend Connector--><g id="cluster_Backend Connector"><rect fill="none" height="283.46" rx="2.5" ry="2.5" style="stroke:#181818;stroke-width:1;" width="600" x="1683" y="93.41"/><text fill="#000000" font-family="sans-serif" font-size="14" font-weight="bold" lengthAdjust="spacing" textLength="138.585" x="1913.7075" y="108.9452">Backend Connector</text></g><!--cluster Beam.Proxy Backend Connector--><g id="cluster_Beam.Proxy Backend Connector"><rect fill="none" height="101.94" rx="2.5" ry="2.5" style="stroke:#181818;stroke-width:1;" width="336" x="1707" y="136.41"/><text fill="#000000" font-family="sans-serif" font-size="14" font-weight="bold" lengthAdjust="spacing" textLength="225.8115" x="1762.0942" y="151.9452">Beam.Proxy Backend Connector</text></g><g id="elem_generate Task"><ellipse cx="141.9983" cy="206.3817" fill="#F1F1F1" rx="70.9083" ry="16.5817" style="stroke:#181818;stroke-width:0.5;"/><text fill="#000000" font-family="sans-serif" font-size="14" lengthAdjust="spacing" textLength="95.8467" x="92.7626" y="210.0161">generate Task</text></g><g id="elem_ID"><ellipse cx="324.0021" cy="206.379" fill="#F1F1F1" rx="21.7521" ry="14.659" style="stroke:#181818;stroke-width:0.5;"/><text fill="#000000" font-family="sans-serif" font-size="14" lengthAdjust="spacing" textLength="14.5195" x="316.7424" y="209.67">ID</text></g><g id="elem_waiting on Result"><ellipse cx="515.0004" cy="206.3841" fill="#F1F1F1" rx="79.6204" ry="18.3241" style="stroke:#181818;stroke-width:0.5;"/><text fill="#000000" font-family="sans-serif" font-size="14" lengthAdjust="spacing" textLength="117.1748" x="456.413" y="209.6751">waiting on Result</text></g><g id="elem_create Task"><ellipse cx="915.9995" cy="206.3759" fill="#F1F1F1" rx="64.3795" ry="15.2759" style="stroke:#181818;stroke-width:0.5;"/><text fill="#000000" font-family="sans-serif" font-size="14" lengthAdjust="spacing" textLength="77.7998" x="874.0996" y="210.3935">create Task</text></g><g id="elem_recieve Result"><ellipse cx="1198.996" cy="206.3832" fill="#F1F1F1" rx="70.116" ry="16.4232" style="stroke:#181818;stroke-width:0.5;"/><text fill="#000000" font-family="sans-serif" font-size="14" lengthAdjust="spacing" textLength="93.7822" x="1150.3727" y="210.1187">recieve Result</text></g><g id="elem_check registrated destinations"><ellipse cx="1496.0041" cy="206.3848" fill="#F1F1F1" rx="119.0741" ry="26.2148" style="stroke:#181818;stroke-width:0.5;"/><text fill="#000000" font-family="sans-serif" font-size="14" lengthAdjust="spacing" textLength="205.0166" x="1393.4958" y="209.6758">check registrated destinations</text></g><g id="elem_process Tasks"><ellipse cx="1790.001" cy="344.2922" fill="#F1F1F1" rx="70.911" ry="16.5822" style="stroke:#181818;stroke-width:0.5;"/><text fill="#000000" font-family="sans-serif" font-size="14" lengthAdjust="spacing" textLength="95.8535" x="1740.7632" y="347.9263">process Tasks</text></g><g id="elem_generate Result"><ellipse cx="2192.002" cy="206.3804" fill="#F1F1F1" rx="74.852" ry="17.3704" style="stroke:#181818;stroke-width:0.5;"/><text fill="#000000" font-family="sans-serif" font-size="14" lengthAdjust="spacing" textLength="105.7041" x="2139.15" y="209.6714">generate Result</text></g><g id="elem_recieve Task"><ellipse cx="1789.9995" cy="206.3819" fill="#F1F1F1" rx="66.5095" ry="15.7019" style="stroke:#181818;stroke-width:0.5;"/><text fill="#000000" font-family="sans-serif" font-size="14" lengthAdjust="spacing" textLength="83.9248" x="1745.0371" y="210.3995">recieve Task</text></g><g id="elem_create Result"><ellipse cx="1959.0041" cy="206.3788" fill="#F1F1F1" rx="67.8441" ry="15.9688" style="stroke:#181818;stroke-width:0.5;"/><text fill="#000000" font-family="sans-serif" font-size="14" lengthAdjust="spacing" textLength="87.6572" x="1912.1755" y="210.3964">create Result</text></g><!--link generate Task to ID--><g id="link_generate Task_ID"><path d="M213.15,206.38 C244.85,206.38 279.94,206.38 301.97,206.38 " fill="none" id="generate Task-ID" style="stroke:#181818;stroke-width:1;stroke-dasharray:7.0,7.0;"/><text fill="#000000" font-family="sans-serif" font-size="13" lengthAdjust="spacing" textLength="53.7266" x="231.08" y="199.9484">depends</text></g><!--link ID to waiting on Result--><g id="link_ID_waiting on Result"><path d="M345.91,206.38 C367.76,206.38 402.65,206.38 435.08,206.38 " fill="none" id="ID-waiting on Result" style="stroke:#181818;stroke-width:1;stroke-dasharray:7.0,7.0;"/><text fill="#000000" font-family="sans-serif" font-size="13" lengthAdjust="spacing" textLength="53.7266" x="364.07" y="199.9484">depends</text></g><!--link waiting on Result to waiting on Result--><g id="link_waiting on Result_waiting on Result"><path d="M566.57,191.98 C598.83,188.44 629.62,193.24 629.62,206.38 C629.62,219.52 604.794,224.9863 572.534,221.4363 " fill="none" id="waiting on Result-to-waiting on Result" style="stroke:#181818;stroke-width:1;"/><polygon fill="#181818" points="566.57,220.78,575.0785,225.7404,571.54,221.3269,575.9535,217.7884,566.57,220.78" style="stroke:#181818;stroke-width:1;"/><text fill="#000000" font-family="sans-serif" font-size="13" lengthAdjust="spacing" textLength="171.4565" x="635.62" y="211.4484">waiting on incoming Result</text></g><!--link generate Task to create Task--><g id="link_generate Task_create Task"><path d="M151.99,189.73 C172.3,157.74 221.86,88.5 285,62.19 C393.1,17.15 707.75,8.85 812,62.19 C865.85,89.75 896.0274,154.0411 908.2274,185.2811 " fill="none" id="generate Task-to-create Task" style="stroke:#181818;stroke-width:1;"/><polygon fill="#181818" points="910.41,190.87,910.862,181.0315,908.5912,186.2126,903.4101,183.9417,910.41,190.87" style="stroke:#181818;stroke-width:1;"/><text fill="#000000" font-family="sans-serif" font-size="13" lengthAdjust="spacing" textLength="54.1836" x="505" y="28.6284">init Task</text></g><!--reverse link recieve Result to waiting on Result--><g id="link_recieve Result_waiting on Result"><path d="M1179.5955,185.79 C1148.4355,153.77 1077.72,87.83 998,62.19 C823.26,6 610.62,138.68 539.49,188.46 " fill="none" id="recieve Result-backto-waiting on Result" style="stroke:#181818;stroke-width:1;"/><polygon fill="#181818" points="1183.78,190.09,1180.3699,180.8503,1180.2929,186.5067,1174.6366,186.4297,1183.78,190.09" style="stroke:#181818;stroke-width:1;"/><text fill="#000000" font-family="sans-serif" font-size="13" lengthAdjust="spacing" textLength="110.3667" x="1018" y="28.6284">requesting Result</text></g><!--link create Task to check registrated destinations--><g id="link_create Task_check registrated destinations"><path d="M929.75,191.07 C959.21,159.55 1032.22,88.16 1111,62.19 C1184.45,37.99 1211.11,39.36 1285,62.19 C1360.24,85.45 1428.194,141.6757 1465.484,176.4857 " fill="none" id="create Task-to-check registrated destinations" style="stroke:#181818;stroke-width:1;"/><polygon fill="#181818" points="1469.87,180.58,1466.0206,171.5146,1466.215,177.1681,1460.5615,177.3626,1469.87,180.58" style="stroke:#181818;stroke-width:1;"/><text fill="#000000" font-family="sans-serif" font-size="13" lengthAdjust="spacing" textLength="30.1196" x="981" y="28.6284">send</text></g><!--reverse link recieve Result to check registrated destinations--><g id="link_recieve Result_check registrated destinations"><path d="M1275.38,206.38 C1307.38,206.38 1340.13,206.38 1376.47,206.38 " fill="none" id="recieve Result-backto-check registrated destinations" style="stroke:#181818;stroke-width:1;"/><polygon fill="#181818" points="1269.38,206.38,1278.38,210.38,1274.38,206.38,1278.38,202.38,1269.38,206.38" style="stroke:#181818;stroke-width:1;"/><text fill="#000000" font-family="sans-serif" font-size="13" lengthAdjust="spacing" textLength="30.1196" x="1308.02" y="199.9484">send</text></g><!--link check registrated destinations to recieve Task--><g id="link_check registrated destinations_recieve Task"><path d="M1615.16,206.38 C1651.93,206.38 1685.11,206.38 1717.04,206.38 " fill="none" id="check registrated destinations-to-recieve Task" style="stroke:#181818;stroke-width:1;"/><polygon fill="#181818" points="1723.04,206.38,1714.04,202.38,1718.04,206.38,1714.04,210.38,1723.04,206.38" style="stroke:#181818;stroke-width:1;"/><text fill="#000000" font-family="sans-serif" font-size="13" lengthAdjust="spacing" textLength="30.1196" x="1654.28" y="199.9484">send</text></g><!--link create Result to check registrated destinations--><g id="link_create Result_check registrated destinations"><path d="M1955.07,190.03 C1946.52,158.54 1922.95,90.16 1874,62.19 C1809.55,25.38 1777.91,40.28 1707,62.19 C1631.76,85.45 1563.806,141.6757 1526.516,176.4857 " fill="none" id="create Result-to-check registrated destinations" style="stroke:#181818;stroke-width:1;"/><polygon fill="#181818" points="1522.13,180.58,1531.4385,177.3626,1525.785,177.1681,1525.9794,171.5146,1522.13,180.58" style="stroke:#181818;stroke-width:1;"/><text fill="#000000" font-family="sans-serif" font-size="13" lengthAdjust="spacing" textLength="30.1196" x="1738" y="28.6284">send</text></g><!--reverse link recieve Task to process Tasks--><g id="link_recieve Task_process Tasks"><path d="M1790,228.45 C1790,254.29 1790,300.86 1790,327.32 " fill="none" id="recieve Task-backto-process Tasks" style="stroke:#181818;stroke-width:1;"/><polygon fill="#181818" points="1790,222.45,1786,231.45,1790,227.45,1794,231.45,1790,222.45" style="stroke:#181818;stroke-width:1;"/><text fill="#000000" font-family="sans-serif" font-size="13" lengthAdjust="spacing" textLength="93.1455" x="1791" y="294.2784">reqesting Task</text></g><!--link process Tasks to process Tasks--><g id="link_process Tasks_process Tasks"><path d="M1847.2,334.14 C1873.26,333.11 1895.91,336.49 1895.91,344.29 C1895.91,352.09 1879.2552,355.7093 1853.1952,354.6693 " fill="none" id="process Tasks-to-process Tasks" style="stroke:#181818;stroke-width:1;"/><polygon fill="#181818" points="1847.2,354.43,1856.0333,358.7857,1852.196,354.6294,1856.3523,350.7921,1847.2,354.43" style="stroke:#181818;stroke-width:1;"/><text fill="#000000" font-family="sans-serif" font-size="13" lengthAdjust="spacing" textLength="168.9302" x="1901.91" y="349.3584">waiting on incoming Tasks</text></g><!--link generate Result to create Result--><g id="link_generate Result_create Result"><path d="M2116.73,206.38 C2087.99,206.38 2061.4,206.38 2033.33,206.38 " fill="none" id="generate Result-to-create Result" style="stroke:#181818;stroke-width:1;"/><polygon fill="#181818" points="2027.33,206.38,2036.33,210.38,2032.33,206.38,2036.33,202.38,2027.33,206.38" style="stroke:#181818;stroke-width:1;"/><text fill="#000000" font-family="sans-serif" font-size="13" lengthAdjust="spacing" textLength="54.1836" x="2045" y="199.9484">init Task</text></g><!--SRC=[bL91ReCm4BppYXMdv00FYA8Uabvwgv9-m8KLjG1lOZjfKSNVkyQKOY1fwvErisFFxAp6p0fLL0ZnWQY67L4fLG77nbYiWQweuIZgKzMaEnHr39yHyD43RLz9LBOlXr3i60SyNz3O5s7AUDJbpgf0XLfO18Uk8ONLq-Dw0pcUKEKcx6N4DRmBQPq-Kd10SwdiJp-4X7ad90_B3ungKcLKkxi7XoVRM_xIPqqVJJ-6tnmw0Pd6eR3X_wJjxY6FFv5unK7vDbbMhlrqRmfkewbaJIL7QfcKA4fOIvNamehqjGDIuxFESMmbqEnDl65Myhk5DDRvopa49qDOISgmCCE9H7Vj_Fs9kGcHbGp2dfJYAkduzlxr-TobU8_tzNIslttquGKcnuCQBzp_HjNEX-QdlaruPYTD6HhJbOoFlqy_MA59NoTZIbtQ-GwBviiRs0aSJXUuZTel]--></g></svg>