<svg xmlns="http://www.w3.org/2000/svg" xmlns:xlink="http://www.w3.org/1999/xlink" contentStyleType="text/css" height="455px" preserveAspectRatio="none" style="width:965px;height:455px;background:#FFFFFF;" version="1.1" viewBox="0 0 965 455" width="965px" zoomAndPan="magnify"><defs/><g><!--cluster routes--><g id="cluster_routes"><path d="M8.5,159.6 L55.793,159.6 A3.75,3.75 0 0 1 58.293,162.1 L65.293,182.0883 L955.5,182.0883 A2.5,2.5 0 0 1 958,184.5883 L958,446.16 A2.5,2.5 0 0 1 955.5,448.66 L8.5,448.66 A2.5,2.5 0 0 1 6,446.16 L6,162.1 A2.5,2.5 0 0 1 8.5,159.6 " fill="none" style="stroke:#000000;stroke-width:1.5;"/><line style="stroke:#000000;stroke-width:1.5;" x1="6" x2="65.293" y1="182.0883" y2="182.0883"/><text fill="#000000" font-family="sans-serif" font-size="14" font-weight="bold" lengthAdjust="spacing" textLength="46.293" x="10" y="175.1352">routes</text><text fill="#000000" font-family="sans-serif" font-size="14" font-style="italic" lengthAdjust="spacing" textLength="71.8115" x="450.0942" y="197.6234">&#171;Modules&#187;</text></g><!--cluster api_connect--><g id="cluster_api_connect"><path d="M32.5,218.6 L118.6689,218.6 A3.75,3.75 0 0 1 121.1689,221.1 L128.1689,241.0883 L931.5,241.0883 A2.5,2.5 0 0 1 934,243.5883 L934,422.16 A2.5,2.5 0 0 1 931.5,424.66 L32.5,424.66 A2.5,2.5 0 0 1 30,422.16 L30,221.1 A2.5,2.5 0 0 1 32.5,218.6 " fill="none" style="stroke:#000000;stroke-width:1.5;"/><line style="stroke:#000000;stroke-width:1.5;" x1="30" x2="128.1689" y1="241.0883" y2="241.0883"/><text fill="#000000" font-family="sans-serif" font-size="14" font-weight="bold" lengthAdjust="spacing" textLength="85.1689" x="34" y="234.1352">api_connect</text><text fill="#000000" font-family="sans-serif" font-size="14" font-style="italic" lengthAdjust="spacing" textLength="56.875" x="457.5625" y="256.6234">&#171;Modul&#187;</text></g><!--class BeamRequestTask--><g id="elem_BeamRequestTask"><rect codeLine="8" fill="#F1F1F1" height="139.0625" id="BeamRequestTask" rx="2.5" ry="2.5" style="stroke:#181818;stroke-width:0.5;" width="872.8291" x="45.59" y="269.6"/><ellipse cx="416.3131" cy="289.9105" fill="#FF7700" rx="11" ry="11" style="stroke:#181818;stroke-width:1;"/><path d="M416.0465,290.9735 Q414.1955,290.268 413.5397,289.4918 Q412.8839,288.7157 412.8839,287.4042 Q412.8839,285.7191 413.963,284.7563 Q415.0421,283.7934 416.9264,283.7934 Q417.7814,283.7934 418.6364,283.9884 Q419.4914,284.1835 420.3297,284.5653 L420.3297,286.956 Q419.5412,286.3998 418.7277,286.1093 Q417.9142,285.8188 417.1173,285.8188 Q416.2292,285.8188 415.756,286.1757 Q415.2829,286.5326 415.2829,287.1967 Q415.2829,287.7113 415.6274,288.0475 Q415.9718,288.3837 417.0675,288.7904 L418.1217,289.1889 Q419.6159,289.7367 420.3214,290.6415 Q421.027,291.5463 421.027,292.9242 Q421.027,294.8002 419.9189,295.7257 Q418.8107,296.6513 416.5695,296.6513 Q415.6481,296.6513 414.7226,296.4313 Q413.797,296.2113 412.9338,295.7797 L412.9338,293.2479 Q413.9132,293.9452 414.8305,294.2855 Q415.7477,294.6259 416.6442,294.6259 Q417.549,294.6259 418.047,294.215 Q418.5451,293.8041 418.5451,293.0653 Q418.5451,292.5092 418.213,292.09 Q417.881,291.6708 417.2502,291.4301 Z " fill="#000000"/><text fill="#000000" font-family="sans-serif" font-size="12" font-style="italic" lengthAdjust="spacing" textLength="46.5176" x="474.9958" y="286.2016">&#171;Struct&#187;</text><text fill="#000000" font-family="sans-serif" font-size="14" lengthAdjust="spacing" textLength="122.8828" x="436.8131" y="302.268">BeamRequestTask</text><line style="stroke:#181818;stroke-width:0.5;" x1="46.59" x2="917.4191" y1="310.2211" y2="310.2211"/><line style="stroke:#181818;stroke-width:1;" x1="46.59" x2="917.4191" y1="318.2211" y2="318.2211"/><ellipse cx="56.59" cy="331.9652" fill="#84BE84" rx="3" ry="3" style="stroke:#038048;stroke-width:1;"/><text fill="#000000" font-family="sans-serif" font-size="14" lengthAdjust="spacing" textLength="837.7988" x="65.59" y="335.7563">read_overview_day(Query(query_day): Query&lt;GetTimestamp&gt;): Result&lt;Json&lt;Vec&lt;EntryRelatedData&gt;&gt;, Json&lt;ErrorType&gt;&gt;</text><ellipse cx="56.59" cy="348.4535" fill="#84BE84" rx="3" ry="3" style="stroke:#038048;stroke-width:1;"/><text fill="#000000" font-family="sans-serif" font-size="14" lengthAdjust="spacing" textLength="551.8857" x="65.59" y="352.2445">joinroom(Path(id): Path&lt;i32&gt;): Result&lt;Json&lt;ResponseType&gt;, Json&lt;ErrorType&gt;&gt;</text><ellipse cx="56.59" cy="364.9418" fill="#84BE84" rx="3" ry="3" style="stroke:#038048;stroke-width:1;"/><text fill="#000000" font-family="sans-serif" font-size="14" lengthAdjust="spacing" textLength="846.8291" x="65.59" y="368.7328">joinrooms(Path(entry_id): Path&lt;i32&gt;, Json(payload): Json&lt;Vec&lt;String&gt;&gt;): Result&lt;Json&lt;ResponseType&gt;, Json&lt;ErrorType&gt;&gt;</text><ellipse cx="56.59" cy="381.4301" fill="#84BE84" rx="3" ry="3" style="stroke:#038048;stroke-width:1;"/><text fill="#000000" font-family="sans-serif" font-size="14" lengthAdjust="spacing" textLength="653.7959" x="65.59" y="385.2211">delete_participant(Path(entry_id): Path&lt;i32&gt;): Result&lt;Json&lt;ResponseType&gt;, Json&lt;ErrorType&gt;&gt;</text><ellipse cx="56.59" cy="397.9184" fill="#84BE84" rx="3" ry="3" style="stroke:#038048;stroke-width:1;"/><text fill="#000000" font-family="sans-serif" font-size="14" lengthAdjust="spacing" textLength="245.5605" x="65.59" y="401.7094">get_user(): Json&lt;std::string::String&gt;</text></g><!--class servieces--><g id="elem_servieces"><rect codeLine="1" fill="#F1F1F1" height="89.5977" id="servieces" rx="2.5" ry="2.5" style="stroke:#181818;stroke-width:0.5;" width="213.8994" x="375.05" y="7"/><ellipse cx="446.8171" cy="27.3105" fill="#6A3100" rx="11" ry="11" style="stroke:#181818;stroke-width:1;"/><path d="M442.531,21.4175 L445.4528,21.4175 L446.9304,26.8545 L448.3996,21.4175 L451.3381,21.4175 L451.3381,33.8105 L449.2297,33.8105 L449.2297,23.8828 L447.9182,29.3032 L445.9675,29.3032 L444.6394,23.8828 L444.6394,33.8105 L442.531,33.8105 Z " fill="#000000"/><text fill="#000000" font-family="sans-serif" font-size="12" font-style="italic" lengthAdjust="spacing" textLength="55.4355" x="470.5319" y="23.6016">&#171;Module&#187;</text><text fill="#000000" font-family="sans-serif" font-size="14" lengthAdjust="spacing" textLength="61.8652" x="467.3171" y="39.668">servieces</text><line style="stroke:#181818;stroke-width:0.5;" x1="376.05" x2="587.9494" y1="47.6211" y2="47.6211"/><line style="stroke:#181818;stroke-width:1;" x1="376.05" x2="587.9494" y1="55.6211" y2="55.6211"/><ellipse cx="386.05" cy="69.3652" fill="#84BE84" rx="3" ry="3" style="stroke:#038048;stroke-width:1;"/><text fill="#000000" font-family="sans-serif" font-size="14" lengthAdjust="spacing" textLength="187.8994" x="395.05" y="73.1563">front_public_route(): Router</text><ellipse cx="386.05" cy="85.8535" fill="#84BE84" rx="3" ry="3" style="stroke:#038048;stroke-width:1;"/><text fill="#000000" font-family="sans-serif" font-size="14" lengthAdjust="spacing" textLength="183.3262" x="395.05" y="89.6445">back_token_route(): Router</text></g><!--link servieces to BeamRequestTask--><g id="link_servieces_BeamRequestTask"><path codeLine="18" d="M482,97.07 C482,143.09 482,215.74 482,269.27 " fill="none" id="servieces-BeamRequestTask" style="stroke:#181818;stroke-width:1;"/><text fill="#000000" font-family="sans-serif" font-size="13" lengthAdjust="spacing" textLength="21.9375" x="483" y="140.1684">use</text></g><!--SRC=[fPDHIyCm4CVV-oa2ldJCmdIWK4f1SHC4GRVXQxYbvuphaYovAaNstKtITU9047OFwRLt_V_l5n9HWtFCeVsGAD2nec3fupaxkxePNun60_QegwR6icHV2VEHPV4nPAzMA-AcMTPISAiRmdIGirb8BDltB46iEUargkEEP9SONuGLibW9lfsJAylEgQ-3aLnefL1GtzItX11n_bk4pGot3JfQW5j7Yhcdc4wlhmF5d6mZw43HnvwcZo6p21NN7t4tFda5RVhSe6tJRLZ3koU8Nufxf8NSU3_Oc39meMjgAXwSLiKBYcAYoBOph86mkWE2iZndiJYnLjj5Q_oU7fc_Qwcirflq2UWjbPLN3LaXnvV73ZutMZcCElyMTfqoXj7uR_rE8pNGrXf2vG3YjqwgLNdQ11NMICWDM9926b3qzoWd6QsGUEDFSzeZEAhot4M6FD-p7FxP9TswItukG9OTdwQSUSLl]--></g></svg>