<svg xmlns="http://www.w3.org/2000/svg" xmlns:xlink="http://www.w3.org/1999/xlink" contentStyleType="text/css" height="848px" preserveAspectRatio="none" style="width:2999px;height:848px;background:#FFFFFF;" version="1.1" viewBox="0 0 2999 848" width="2999px" zoomAndPan="magnify"><defs/><g><!--cluster Room Booking System over Samply.Beam--><g id="cluster_Room Booking System over Samply.Beam"><rect fill="none" height="798.08" rx="2.5" ry="2.5" style="stroke:#181818;stroke-width:1;" width="2941" x="52.18" y="44.45"/><text fill="#000000" font-family="sans-serif" font-size="14" font-weight="bold" lengthAdjust="spacing" textLength="295.5449" x="1374.9075" y="59.9852">Room Booking System over Samply.Beam</text></g><!--cluster Client--><g id="cluster_Client"><rect fill="none" height="550.05" rx="2.5" ry="2.5" style="stroke:#181818;stroke-width:1;" width="1278" x="76.18" y="87.45"/><text fill="#000000" font-family="sans-serif" font-size="14" font-weight="bold" lengthAdjust="spacing" textLength="42.1504" x="694.1048" y="102.9852">Client</text></g><!--cluster BeamRequestTask--><g id="cluster_BeamRequestTask"><rect fill="none" height="106.65" rx="2.5" ry="2.5" style="stroke:#181818;stroke-width:1;" width="757" x="100.18" y="130.45"/><text fill="#000000" font-family="sans-serif" font-size="14" font-weight="bold" lengthAdjust="spacing" textLength="131.6191" x="412.8704" y="145.9852">BeamRequestTask</text></g><!--cluster Beam.Proxy Client--><g id="cluster_Beam.Proxy Client"><rect fill="none" height="102.85" rx="2.5" ry="2.5" style="stroke:#181818;stroke-width:1;" width="449" x="881.18" y="132.35"/><text fill="#000000" font-family="sans-serif" font-size="14" font-weight="bold" lengthAdjust="spacing" textLength="129.377" x="1040.9915" y="147.8852">Beam.Proxy Client</text></g><!--cluster Broker test-no-real-data.broker.samply.de--><g id="cluster_Broker test-no-real-data.broker.samply.de"><rect fill="none" height="122.43" rx="2.5" ry="2.5" style="stroke:#181818;stroke-width:1;" width="326" x="1378.18" y="122.56"/><text fill="#000000" font-family="sans-serif" font-size="14" font-weight="bold" lengthAdjust="spacing" textLength="310.9326" x="1385.7137" y="138.0952">Broker test-no-real-data.broker.samply.de</text></g><!--cluster Backend Connector--><g id="cluster_Backend Connector"><rect fill="none" height="728.73" rx="2.5" ry="2.5" style="stroke:#181818;stroke-width:1;" width="1093" x="1728.18" y="89.8"/><text fill="#000000" font-family="sans-serif" font-size="14" font-weight="bold" lengthAdjust="spacing" textLength="138.585" x="2205.3875" y="105.3352">Backend Connector</text></g><!--cluster Beam.Proxy Backend Connector--><g id="cluster_Beam.Proxy Backend Connector"><rect fill="none" height="101.94" rx="2.5" ry="2.5" style="stroke:#181818;stroke-width:1;" width="336" x="1752.18" y="132.8"/><text fill="#000000" font-family="sans-serif" font-size="14" font-weight="bold" lengthAdjust="spacing" textLength="225.8115" x="1807.2742" y="148.3352">Beam.Proxy Backend Connector</text></g><!--cluster MRBS database--><g id="cluster_MRBS database"><path d="M2845.18,696.5 C2845.18,686.5 2907.18,686.5 2907.18,686.5 C2907.18,686.5 2969.18,686.5 2969.18,696.5 L2969.18,805.82 C2969.18,815.82 2907.18,815.82 2907.18,815.82 C2907.18,815.82 2845.18,815.82 2845.18,805.82 L2845.18,696.5 " fill="none" style="stroke:#181818;stroke-width:1;"/><path d="M2845.18,696.5 C2845.18,706.5 2907.18,706.5 2907.18,706.5 C2907.18,706.5 2969.18,706.5 2969.18,696.5 " fill="none" style="stroke:#181818;stroke-width:1;"/><text fill="#000000" font-family="sans-serif" font-size="14" font-weight="bold" lengthAdjust="spacing" textLength="108.835" x="2852.7625" y="722.0352">MRBS database</text></g><g id="elem_request day view"><ellipse cx="393.1825" cy="346.2305" fill="#F1F1F1" rx="78.2025" ry="18.0405" style="stroke:#181818;stroke-width:0.5;"/><text fill="#000000" font-family="sans-serif" font-size="14" lengthAdjust="spacing" textLength="113.7979" x="336.2836" y="349.5215">request day view</text></g><g id="elem_request delete participant"><ellipse cx="690.1793" cy="484.8879" fill="#F1F1F1" rx="105.0893" ry="23.4179" style="stroke:#181818;stroke-width:0.5;"/><text fill="#000000" font-family="sans-serif" font-size="14" lengthAdjust="spacing" textLength="174.7949" x="602.7819" y="488.1789">request delete participant</text></g><g id="elem_request join room"><ellipse cx="378.1768" cy="484.8934" fill="#F1F1F1" rx="81.5168" ry="18.7034" style="stroke:#181818;stroke-width:0.5;"/><text fill="#000000" font-family="sans-serif" font-size="14" lengthAdjust="spacing" textLength="121.6523" x="317.3506" y="488.1844">request join room</text></g><g id="elem_request join rooms"><ellipse cx="177.1753" cy="484.8851" fill="#F1F1F1" rx="84.5753" ry="19.3151" style="stroke:#181818;stroke-width:0.5;"/><text fill="#000000" font-family="sans-serif" font-size="14" lengthAdjust="spacing" textLength="128.7891" x="112.7808" y="488.1761">request join rooms</text></g><g id="elem_update day view"><ellipse cx="530.1774" cy="603.7975" fill="#F1F1F1" rx="76.4874" ry="17.6975" style="stroke:#181818;stroke-width:0.5;"/><text fill="#000000" font-family="sans-serif" font-size="14" lengthAdjust="spacing" textLength="109.6758" x="475.3395" y="607.0885">update day view</text></g><g id="elem_generate Task"><ellipse cx="187.1783" cy="202.7717" fill="#F1F1F1" rx="70.9083" ry="16.5817" style="stroke:#181818;stroke-width:0.5;"/><text fill="#000000" font-family="sans-serif" font-size="14" lengthAdjust="spacing" textLength="95.8467" x="137.9426" y="206.4061">generate Task</text></g><g id="elem_ID"><ellipse cx="369.1821" cy="202.769" fill="#F1F1F1" rx="21.7521" ry="14.659" style="stroke:#181818;stroke-width:0.5;"/><text fill="#000000" font-family="sans-serif" font-size="14" lengthAdjust="spacing" textLength="14.5195" x="361.9224" y="206.06">ID</text></g><g id="elem_waiting on Result"><ellipse cx="560.1804" cy="202.7741" fill="#F1F1F1" rx="79.6204" ry="18.3241" style="stroke:#181818;stroke-width:0.5;"/><text fill="#000000" font-family="sans-serif" font-size="14" lengthAdjust="spacing" textLength="117.1748" x="501.593" y="206.0651">waiting on Result</text></g><g id="elem_create Task"><ellipse cx="961.1795" cy="202.7659" fill="#F1F1F1" rx="64.3795" ry="15.2759" style="stroke:#181818;stroke-width:0.5;"/><text fill="#000000" font-family="sans-serif" font-size="14" lengthAdjust="spacing" textLength="77.7998" x="919.2796" y="206.7835">create Task</text></g><g id="elem_recieve Result"><ellipse cx="1244.176" cy="202.7732" fill="#F1F1F1" rx="70.116" ry="16.4232" style="stroke:#181818;stroke-width:0.5;"/><text fill="#000000" font-family="sans-serif" font-size="14" lengthAdjust="spacing" textLength="93.7822" x="1195.5527" y="206.5087">recieve Result</text></g><g id="elem_check registrated destinations"><ellipse cx="1541.1841" cy="202.7748" fill="#F1F1F1" rx="119.0741" ry="26.2148" style="stroke:#181818;stroke-width:0.5;"/><text fill="#000000" font-family="sans-serif" font-size="14" lengthAdjust="spacing" textLength="205.0166" x="1438.6758" y="206.0658">check registrated destinations</text></g><g id="elem_process Tasks"><ellipse cx="2005.181" cy="346.2322" fill="#F1F1F1" rx="70.911" ry="16.5822" style="stroke:#181818;stroke-width:0.5;"/><text fill="#000000" font-family="sans-serif" font-size="14" lengthAdjust="spacing" textLength="95.8535" x="1955.9432" y="349.8663">process Tasks</text></g><g id="elem_extracting endpoint"><ellipse cx="2105.183" cy="484.8926" fill="#F1F1F1" rx="86.863" ry="19.7726" style="stroke:#181818;stroke-width:0.5;"/><text fill="#000000" font-family="sans-serif" font-size="14" lengthAdjust="spacing" textLength="134.0664" x="2038.1498" y="488.1836">extracting endpoint</text></g><g id="elem_generate Result"><ellipse cx="2046.182" cy="785.1604" fill="#F1F1F1" rx="74.852" ry="17.3704" style="stroke:#181818;stroke-width:0.5;"/><text fill="#000000" font-family="sans-serif" font-size="14" lengthAdjust="spacing" textLength="105.7041" x="1993.33" y="788.4514">generate Result</text></g><g id="elem_day overview"><ellipse cx="1963.1821" cy="603.8004" fill="#F1F1F1" rx="67.8021" ry="15.9604" style="stroke:#181818;stroke-width:0.5;"/><text fill="#000000" font-family="sans-serif" font-size="14" lengthAdjust="spacing" textLength="87.541" x="1916.4116" y="607.818">day overview</text></g><g id="elem_join room"><ellipse cx="2533.1757" cy="603.8038" fill="#F1F1F1" rx="58.6657" ry="14.7638" style="stroke:#181818;stroke-width:0.5;"/><text fill="#000000" font-family="sans-serif" font-size="14" lengthAdjust="spacing" textLength="66.0215" x="2497.165" y="607.8214">join room</text></g><g id="elem_join rooms"><ellipse cx="2129.1793" cy="603.8039" fill="#F1F1F1" rx="62.8193" ry="14.9639" style="stroke:#181818;stroke-width:0.5;"/><text fill="#000000" font-family="sans-serif" font-size="14" lengthAdjust="spacing" textLength="73.1582" x="2089.6002" y="607.8214">join rooms</text></g><g id="elem_delete participant"><ellipse cx="2332.1806" cy="603.8021" fill="#F1F1F1" rx="80.4606" ry="18.4921" style="stroke:#181818;stroke-width:0.5;"/><text fill="#000000" font-family="sans-serif" font-size="14" lengthAdjust="spacing" textLength="119.1641" x="2272.5986" y="607.0931">delete participant</text></g><g id="elem_recieve Task"><ellipse cx="2005.1795" cy="202.7719" fill="#F1F1F1" rx="66.5095" ry="15.7019" style="stroke:#181818;stroke-width:0.5;"/><text fill="#000000" font-family="sans-serif" font-size="14" lengthAdjust="spacing" textLength="83.9248" x="1960.2171" y="206.7895">recieve Task</text></g><g id="elem_create Result"><ellipse cx="1836.1841" cy="202.7688" fill="#F1F1F1" rx="67.8441" ry="15.9688" style="stroke:#181818;stroke-width:0.5;"/><text fill="#000000" font-family="sans-serif" font-size="14" lengthAdjust="spacing" textLength="87.6572" x="1789.3555" y="206.7864">create Result</text></g><g id="elem_MRBS"><ellipse cx="2898.1774" cy="785.159" fill="#F1F1F1" rx="37.2974" ry="14.659" style="stroke:#181818;stroke-width:0.5;"/><text fill="#000000" font-family="sans-serif" font-size="14" lengthAdjust="spacing" textLength="36.5039" x="2879.9255" y="788.45">MRBS</text></g><!--entity User--><g id="elem_User"><ellipse cx="21.1826" cy="316.49" fill="#F1F1F1" rx="8" ry="8" style="stroke:#181818;stroke-width:0.5;"/><path d="M21.1826,324.49 L21.1826,351.49 M8.1826,332.49 L34.1826,332.49 M21.1826,351.49 L8.1826,366.49 M21.1826,351.49 L34.1826,366.49 " fill="none" style="stroke:#181818;stroke-width:0.5;"/><text fill="#000000" font-family="sans-serif" font-size="14" lengthAdjust="spacing" textLength="30.3652" x="6" y="381.5252">User</text></g><!--link User to request day view--><g id="link_User_request day view"><path d="M36.8,346.23 C129.38,346.23 215.95,346.23 308.53,346.23 " fill="none" id="User-to-request day view" style="stroke:#181818;stroke-width:1;"/><polygon fill="#181818" points="314.53,346.23,305.53,342.23,309.53,346.23,305.53,350.23,314.53,346.23" style="stroke:#181818;stroke-width:1;"/></g><!--link User to request delete participant--><g id="link_User_request delete participant"><path d="M36.69,359.86 C47.26,367.92 61.89,378.02 76.18,384.48 C273.91,473.72 343.19,432.5 558.18,461.48 C575,463.74 587.0413,465.5559 604.1213,468.3959 " fill="none" id="User-to-request delete participant" style="stroke:#181818;stroke-width:1;"/><polygon fill="#181818" points="610.04,469.38,601.818,463.958,605.1077,468.5599,600.5058,471.8496,610.04,469.38" style="stroke:#181818;stroke-width:1;"/></g><!--link User to request join room--><g id="link_User_request join room"><path d="M36.62,364.79 C54.82,384.31 86.95,415.2 121.18,431.48 C185.73,462.17 209.2,446.91 279.18,461.48 C293.16,464.38 302.3464,466.3825 316.3864,469.5425 " fill="none" id="User-to-request join room" style="stroke:#181818;stroke-width:1;"/><polygon fill="#181818" points="322.24,470.86,314.338,464.9814,317.362,469.7621,312.5813,472.7862,322.24,470.86" style="stroke:#181818;stroke-width:1;"/></g><!--link User to request join rooms--><g id="link_User_request join rooms"><path d="M35.89,384.58 C43.63,400.57 54.4,418.51 68.18,431.48 C85.61,447.88 103.5857,457.8006 124.3157,466.2706 " fill="none" id="User-to-request join rooms" style="stroke:#181818;stroke-width:1;"/><polygon fill="#181818" points="129.87,468.54,123.0515,461.4331,125.2414,466.6488,120.0257,468.8387,129.87,468.54" style="stroke:#181818;stroke-width:1;"/></g><!--link request day view to request join room--><g id="link_request day view_request join room"><path d="M391.28,364.54 C388.43,390.54 383.06,439.44 380.16,465.86 " fill="none" id="request day view-request join room" style="stroke:#181818;stroke-width:1;stroke-dasharray:7.0,7.0;"/><text fill="#000000" font-family="sans-serif" font-size="13" lengthAdjust="spacing" textLength="53.7266" x="386.68" y="428.0484">depends</text></g><!--link request day view to request delete participant--><g id="link_request day view_request delete participant"><path d="M414.66,363.77 C439.6,382.34 482.54,412.36 523.18,431.48 C554.39,446.15 590.76,458.12 621.57,466.89 " fill="none" id="request day view-request delete participant" style="stroke:#181818;stroke-width:1;stroke-dasharray:7.0,7.0;"/><text fill="#000000" font-family="sans-serif" font-size="13" lengthAdjust="spacing" textLength="53.7266" x="524.18" y="428.0484">depends</text></g><!--link request day view to request join rooms--><g id="link_request day view_request join rooms"><path d="M367.13,363.72 C326.17,389.63 247.08,439.67 205.04,466.27 " fill="none" id="request day view-request join rooms" style="stroke:#181818;stroke-width:1;stroke-dasharray:7.0,7.0;"/><text fill="#000000" font-family="sans-serif" font-size="13" lengthAdjust="spacing" textLength="53.7266" x="286.18" y="428.0484">depends</text></g><!--reverse link request day view to update day view--><g id="link_request day view_update day view"><path d="M412.675,368.8244 C424.385,382.0644 436.55,396.62 449.18,414.48 C489.38,471.27 515.42,551.15 525.48,585.74 " fill="none" id="request day view-backto-update day view" style="stroke:#181818;stroke-width:1;"/><polygon fill="#181818" points="408.7,364.33,411.6663,373.7216,412.0125,368.0753,417.6588,368.4215,408.7,364.33" style="stroke:#181818;stroke-width:1;"/><text fill="#000000" font-family="sans-serif" font-size="13" lengthAdjust="spacing" textLength="18.7319" x="499.22" y="489.9584">set</text></g><!--link request delete participant to update day view--><g id="link_request delete participant_update day view"><path d="M660.46,507.61 C629.19,530.46 585.5342,562.3597 557.3742,582.9397 " fill="none" id="request delete participant-to-update day view" style="stroke:#181818;stroke-width:1;"/><polygon fill="#181818" points="552.53,586.48,562.1565,584.3991,556.5669,583.5298,557.4361,577.9401,552.53,586.48" style="stroke:#181818;stroke-width:1;"/></g><!--link request join room to update day view--><g id="link_request join room_update day view"><path d="M400.61,503.14 C429.84,525.63 475.8339,561.0021 504.3739,582.9521 " fill="none" id="request join room-to-update day view" style="stroke:#181818;stroke-width:1;"/><polygon fill="#181818" points="509.13,586.61,504.4345,577.9525,505.1666,583.5618,499.5573,584.2939,509.13,586.61" style="stroke:#181818;stroke-width:1;"/></g><!--reverse link generate Task to request day view--><g id="link_generate Task_request day view"><path d="M221.0829,221.187 C241.7129,232.107 264.66,245.04 288.18,260.99 C319.71,282.36 353.66,310.67 374.16,328.42 " fill="none" id="generate Task-backto-request day view" style="stroke:#181818;stroke-width:1;"/><polygon fill="#181818" points="215.78,218.38,221.8631,226.1257,220.1991,220.7191,225.6057,219.0552,215.78,218.38" style="stroke:#181818;stroke-width:1;"/></g><!--reverse link generate Task to request delete participant--><g id="link_generate Task_request delete participant"><path d="M225.2304,220.2289 C253.7504,231.9389 291.11,245.53 330.18,252.99 C349.19,256.62 487.98,250.4 504.18,260.99 C555.42,294.48 526.75,336.83 565.18,384.48 C590.78,416.2 628.19,444.27 655.42,462.42 " fill="none" id="generate Task-backto-request delete participant" style="stroke:#181818;stroke-width:1;"/><polygon fill="#181818" points="219.68,217.95,226.4863,225.0686,224.3053,219.8491,229.5248,217.6681,219.68,217.95" style="stroke:#181818;stroke-width:1;"/></g><!--reverse link generate Task to request join room--><g id="link_generate Task_request join room"><path d="M198.8075,224.9485 C216.5675,257.0085 255.85,325.99 297.18,384.48 C318.26,414.29 345.57,446.71 362.48,466.15 " fill="none" id="generate Task-backto-request join room" style="stroke:#181818;stroke-width:1;"/><polygon fill="#181818" points="195.9,219.7,196.7622,229.511,198.3229,224.0737,203.7602,225.6344,195.9,219.7" style="stroke:#181818;stroke-width:1;"/></g><!--reverse link generate Task to request join rooms--><g id="link_generate Task_request join rooms"><path d="M186.4055,225.6362 C184.6755,274.0062 179.69,413.53 177.85,465.33 " fill="none" id="generate Task-backto-request join rooms" style="stroke:#181818;stroke-width:1;"/><polygon fill="#181818" points="186.62,219.64,182.3009,228.4913,186.4413,224.6368,190.2958,228.7772,186.62,219.64" style="stroke:#181818;stroke-width:1;"/></g><!--link generate Task to ID--><g id="link_generate Task_ID"><path d="M258.33,202.77 C290.03,202.77 325.12,202.77 347.15,202.77 " fill="none" id="generate Task-ID" style="stroke:#181818;stroke-width:1;stroke-dasharray:7.0,7.0;"/><text fill="#000000" font-family="sans-serif" font-size="13" lengthAdjust="spacing" textLength="53.7266" x="276.26" y="196.3384">depends</text></g><!--link ID to waiting on Result--><g id="link_ID_waiting on Result"><path d="M391.09,202.77 C412.94,202.77 447.84,202.77 480.27,202.77 " fill="none" id="ID-waiting on Result" style="stroke:#181818;stroke-width:1;stroke-dasharray:7.0,7.0;"/><text fill="#000000" font-family="sans-serif" font-size="13" lengthAdjust="spacing" textLength="53.7266" x="409.25" y="196.3384">depends</text></g><!--link waiting on Result to request day view--><g id="link_waiting on Result_request day view"><path d="M540.04,220.84 C507.85,248.1 449.778,297.2917 417.718,324.4517 " fill="none" id="waiting on Result-to-request day view" style="stroke:#181818;stroke-width:1;"/><polygon fill="#181818" points="413.14,328.33,422.5926,325.5645,416.955,325.098,417.4215,319.4605,413.14,328.33" style="stroke:#181818;stroke-width:1;"/><text fill="#000000" font-family="sans-serif" font-size="13" lengthAdjust="spacing" textLength="38.8794" x="492.64" y="274.5584">return</text></g><!--link waiting on Result to request join room--><g id="link_waiting on Result_request join room"><path d="M562.64,221.23 C569.56,271.64 587.89,414.95 575.18,431.48 C572.93,434.41 495.3472,454.4103 437.7972,468.9503 " fill="none" id="waiting on Result-to-request join room" style="stroke:#181818;stroke-width:1;"/><polygon fill="#181818" points="431.98,470.42,441.6856,472.0936,436.8277,469.1952,439.726,464.3373,431.98,470.42" style="stroke:#181818;stroke-width:1;"/><text fill="#000000" font-family="sans-serif" font-size="13" lengthAdjust="spacing" textLength="38.8794" x="580.2" y="351.2984">return</text></g><!--link waiting on Result to request delete participant--><g id="link_waiting on Result_request delete participant"><path d="M573.33,221.07 C588.14,241.14 612.21,275.63 628.18,307.99 C654.19,360.69 672.866,421.304 682.476,455.484 " fill="none" id="waiting on Result-to-request delete participant" style="stroke:#181818;stroke-width:1;"/><polygon fill="#181818" points="684.1,461.26,685.5147,451.5133,682.7467,456.4466,677.8133,453.6786,684.1,461.26" style="stroke:#181818;stroke-width:1;"/><text fill="#000000" font-family="sans-serif" font-size="13" lengthAdjust="spacing" textLength="38.8794" x="660.64" y="351.2984">return</text></g><!--link waiting on Result to waiting on Result--><g id="link_waiting on Result_waiting on Result"><path d="M620.92,190.54 C649.61,189.12 674.8,193.2 674.8,202.77 C674.8,212.35 655.6027,216.7266 626.9127,215.3066 " fill="none" id="waiting on Result-to-waiting on Result" style="stroke:#181818;stroke-width:1;"/><polygon fill="#181818" points="620.92,215.01,629.7113,219.45,625.9139,215.2572,630.1067,211.4598,620.92,215.01" style="stroke:#181818;stroke-width:1;"/><text fill="#000000" font-family="sans-serif" font-size="13" lengthAdjust="spacing" textLength="171.4565" x="680.8" y="207.8384">waiting on incoming Result</text></g><!--link generate Task to create Task--><g id="link_generate Task_create Task"><path d="M197.57,185.94 C218.22,154.31 267.84,86.9 330.18,61.27 C438.5,16.74 752.69,8.39 857.18,61.27 C910.23,88.12 940.5469,150.6091 953.0669,181.5091 " fill="none" id="generate Task-to-create Task" style="stroke:#181818;stroke-width:1;"/><polygon fill="#181818" points="955.32,187.07,955.6475,177.2266,953.4424,182.4359,948.233,180.2308,955.32,187.07" style="stroke:#181818;stroke-width:1;"/><text fill="#000000" font-family="sans-serif" font-size="13" lengthAdjust="spacing" textLength="54.1836" x="550.18" y="25.0184">init Task</text></g><!--reverse link recieve Result to waiting on Result--><g id="link_recieve Result_waiting on Result"><path d="M1224.1727,182.042 C1192.6027,150.392 1122.11,86.27 1043.18,61.27 C868.67,6 656.31,135.96 584.93,184.99 " fill="none" id="recieve Result-backto-waiting on Result" style="stroke:#181818;stroke-width:1;"/><polygon fill="#181818" points="1228.41,186.29,1224.8861,177.0931,1224.8789,182.75,1219.2221,182.7428,1228.41,186.29" style="stroke:#181818;stroke-width:1;"/><text fill="#000000" font-family="sans-serif" font-size="13" lengthAdjust="spacing" textLength="110.3667" x="1063.18" y="25.0184">requesting Result</text></g><!--link create Task to check registrated destinations--><g id="link_create Task_check registrated destinations"><path d="M974.99,187.74 C1004.58,156.79 1077.81,86.71 1156.18,61.27 C1229.74,37.39 1256.2,38.76 1330.18,61.27 C1404.66,83.93 1472.306,138.5677 1509.886,172.8277 " fill="none" id="create Task-to-check registrated destinations" style="stroke:#181818;stroke-width:1;"/><polygon fill="#181818" points="1514.32,176.87,1510.3639,167.8506,1510.625,173.5015,1504.9742,173.7626,1514.32,176.87" style="stroke:#181818;stroke-width:1;"/><text fill="#000000" font-family="sans-serif" font-size="13" lengthAdjust="spacing" textLength="30.1196" x="1026.18" y="25.0184">send</text></g><!--reverse link recieve Result to check registrated destinations--><g id="link_recieve Result_check registrated destinations"><path d="M1320.57,202.77 C1352.56,202.77 1385.31,202.77 1421.66,202.77 " fill="none" id="recieve Result-backto-check registrated destinations" style="stroke:#181818;stroke-width:1;"/><polygon fill="#181818" points="1314.57,202.77,1323.57,206.77,1319.57,202.77,1323.57,198.77,1314.57,202.77" style="stroke:#181818;stroke-width:1;"/><text fill="#000000" font-family="sans-serif" font-size="13" lengthAdjust="spacing" textLength="30.1196" x="1353.2" y="196.3384">send</text></g><!--link check registrated destinations to recieve Task--><g id="link_check registrated destinations_recieve Task"><path d="M1568.04,176.87 C1605.63,142.61 1677.71,83.93 1752.18,61.27 C1824.04,39.41 1855.91,24.11 1921.18,61.27 C1969.35,88.69 1991.1574,150.0252 1999.6674,180.9352 " fill="none" id="check registrated destinations-to-recieve Task" style="stroke:#181818;stroke-width:1;"/><polygon fill="#181818" points="2001.26,186.72,2002.7276,176.9811,1999.9328,181.8994,1995.0145,179.1046,2001.26,186.72" style="stroke:#181818;stroke-width:1;"/><text fill="#000000" font-family="sans-serif" font-size="13" lengthAdjust="spacing" textLength="30.1196" x="1784.18" y="25.0184">send</text></g><!--link create Result to check registrated destinations--><g id="link_create Result_check registrated destinations"><path d="M1768.16,202.77 C1736.27,202.77 1703.32,202.77 1666.75,202.77 " fill="none" id="create Result-to-check registrated destinations" style="stroke:#181818;stroke-width:1;"/><polygon fill="#181818" points="1660.75,202.77,1669.75,206.77,1665.75,202.77,1669.75,198.77,1660.75,202.77" style="stroke:#181818;stroke-width:1;"/><text fill="#000000" font-family="sans-serif" font-size="13" lengthAdjust="spacing" textLength="30.1196" x="1699.3" y="196.3384">send</text></g><!--reverse link recieve Task to process Tasks--><g id="link_recieve Task_process Tasks"><path d="M2005.18,224.91 C2005.18,251.85 2005.18,301.87 2005.18,329.34 " fill="none" id="recieve Task-backto-process Tasks" style="stroke:#181818;stroke-width:1;"/><polygon fill="#181818" points="2005.18,218.91,2001.18,227.91,2005.18,223.91,2009.18,227.91,2005.18,218.91" style="stroke:#181818;stroke-width:1;"/><text fill="#000000" font-family="sans-serif" font-size="13" lengthAdjust="spacing" textLength="93.1455" x="2006.18" y="274.5584">reqesting Task</text></g><!--link process Tasks to process Tasks--><g id="link_process Tasks_process Tasks"><path d="M2050.91,333.11 C2081.41,329.42 2111.09,333.79 2111.09,346.23 C2111.09,358.67 2087.3663,363.7726 2056.8663,360.0726 " fill="none" id="process Tasks-to-process Tasks" style="stroke:#181818;stroke-width:1;"/><polygon fill="#181818" points="2050.91,359.35,2059.3628,364.4047,2055.8736,359.9521,2060.3262,356.463,2050.91,359.35" style="stroke:#181818;stroke-width:1;"/><text fill="#000000" font-family="sans-serif" font-size="13" lengthAdjust="spacing" textLength="168.9302" x="2117.09" y="351.2984">waiting on incoming Tasks</text></g><!--link process Tasks to extracting endpoint--><g id="link_process Tasks_extracting endpoint"><path d="M2016.65,362.91 C2035.12,388.15 2067.8472,432.8676 2087.7472,460.0676 " fill="none" id="process Tasks-to-extracting endpoint" style="stroke:#181818;stroke-width:1;"/><polygon fill="#181818" points="2091.29,464.91,2089.2041,455.2846,2088.3377,460.8747,2082.7476,460.0083,2091.29,464.91" style="stroke:#181818;stroke-width:1;"/></g><!--link process Tasks to generate Result--><g id="link_process Tasks_generate Result"><path d="M1984.61,362.53 C1947.26,391.75 1869.45,459.64 1840.18,538.31 C1837.55,545.39 1838.69,547.91 1840.18,555.31 C1848.8,597.95 1852.21,610.61 1878.18,645.5 C1918.37,699.5 1983.89,745.44 2020.09,768.43 " fill="none" id="process Tasks-generate Result" style="stroke:#181818;stroke-width:1;stroke-dasharray:7.0,7.0;"/><text fill="#000000" font-family="sans-serif" font-size="13" lengthAdjust="spacing" textLength="53.7266" x="1841.18" y="551.8784">depends</text></g><!--link extracting endpoint to day overview--><g id="link_extracting endpoint_day overview"><path d="M2031.78,495.87 C1982.03,504.32 1922.61,518.27 1907.18,538.31 C1893.25,556.41 1911.253,572.9045 1931.863,585.7045 " fill="none" id="extracting endpoint-to-day overview" style="stroke:#181818;stroke-width:1;"/><polygon fill="#181818" points="1936.96,588.87,1931.4249,580.7237,1932.7125,586.2321,1927.2041,587.5197,1936.96,588.87" style="stroke:#181818;stroke-width:1;"/><text fill="#000000" font-family="sans-serif" font-size="13" lengthAdjust="spacing" textLength="182.5713" x="1908.18" y="551.8784">parameter day(default today)</text></g><!--link extracting endpoint to join room--><g id="link_extracting endpoint_join room"><path d="M2188.78,490.75 C2283.14,497.43 2429.82,511.75 2478.18,538.31 C2499.59,550.07 2513.2596,568.5531 2522.4096,583.7131 " fill="none" id="extracting endpoint-to-join room" style="stroke:#181818;stroke-width:1;"/><polygon fill="#181818" points="2525.51,588.85,2524.284,579.0778,2522.9263,584.5693,2517.4348,583.2116,2525.51,588.85" style="stroke:#181818;stroke-width:1;"/><text fill="#000000" font-family="sans-serif" font-size="13" lengthAdjust="spacing" textLength="270.334" x="2500.9" y="551.8784">parameters room id and day(default today)</text></g><!--link extracting endpoint to join rooms--><g id="link_extracting endpoint_join rooms"><path d="M2101.32,505.08 C2099.21,519.2 2097.8,538.75 2102.18,555.31 C2105.38,567.41 2109.0976,574.6907 2115.2076,583.7207 " fill="none" id="extracting endpoint-to-join rooms" style="stroke:#181818;stroke-width:1;"/><polygon fill="#181818" points="2118.57,588.69,2116.8393,578.9944,2115.768,584.5489,2110.2135,583.4776,2118.57,588.69" style="stroke:#181818;stroke-width:1;"/><text fill="#000000" font-family="sans-serif" font-size="13" lengthAdjust="spacing" textLength="185.3198" x="2103.18" y="551.8784">parameters room id and days</text></g><!--link extracting endpoint to delete participant--><g id="link_extracting endpoint_delete participant"><path d="M2182.42,494.09 C2218.91,501.11 2261.34,514.13 2293.18,538.31 C2308.81,550.18 2317.1825,564.754 2323.3625,579.364 " fill="none" id="extracting endpoint-to-delete participant" style="stroke:#181818;stroke-width:1;"/><polygon fill="#181818" points="2325.7,584.89,2325.8778,575.0427,2323.7521,580.285,2318.5098,578.1594,2325.7,584.89" style="stroke:#181818;stroke-width:1;"/><text fill="#000000" font-family="sans-serif" font-size="13" lengthAdjust="spacing" textLength="159.4658" x="2309.73" y="551.8784">parameter participants id</text></g><!--link day overview to generate Result--><g id="link_day overview_generate Result"><path d="M1970.26,620.09 C1985.74,653.56 2020.0105,727.5946 2036.0105,762.1746 " fill="none" id="day overview-to-generate Result" style="stroke:#181818;stroke-width:1;"/><polygon fill="#181818" points="2038.53,767.62,2038.3809,757.7723,2036.4304,763.0822,2031.1205,761.1317,2038.53,767.62" style="stroke:#181818;stroke-width:1;"/></g><!--link join room to generate Result--><g id="link_join room_generate Result"><path d="M2508.13,617.61 C2487.74,627.31 2457.89,639.9 2430.18,645.5 C2411.12,649.36 2095.43,641.43 2080.18,653.5 C2071.15,660.65 2057.1007,727.9114 2050.5307,761.5314 " fill="none" id="join room-to-generate Result" style="stroke:#181818;stroke-width:1;"/><polygon fill="#181818" points="2049.38,767.42,2055.0319,759.3542,2050.339,762.5128,2047.1804,757.8199,2049.38,767.42" style="stroke:#181818;stroke-width:1;"/></g><!--link join rooms to generate Result--><g id="link_join rooms_generate Result"><path d="M2098.12,617.16 C2082.47,625.09 2064.8,637.03 2055.18,653.5 C2034.08,689.62 2037.7,735.3973 2041.95,761.6173 " fill="none" id="join rooms-to-generate Result" style="stroke:#181818;stroke-width:1;"/><polygon fill="#181818" points="2042.91,767.54,2045.4185,758.0159,2042.11,762.6044,2037.5215,759.296,2042.91,767.54" style="stroke:#181818;stroke-width:1;"/></g><!--link delete participant to generate Result--><g id="link_delete participant_generate Result"><path d="M2293.55,620.49 C2269.66,629.46 2238.13,639.98 2209.18,645.5 C2193.88,648.42 2080.83,643.15 2069.18,653.5 C2052.49,668.35 2048.126,729.7346 2046.876,761.4946 " fill="none" id="delete participant-to-generate Result" style="stroke:#181818;stroke-width:1;"/><polygon fill="#181818" points="2046.64,767.49,2050.9909,758.6543,2046.8366,762.4939,2042.997,758.3397,2046.64,767.49" style="stroke:#181818;stroke-width:1;"/></g><!--link generate Result to create Result--><g id="link_generate Result_create Result"><path d="M2011.49,769.41 C1965.81,748.33 1885.84,705.39 1839.18,645.5 C1735.02,511.8 1806.4313,285.383 1828.4513,224.433 " fill="none" id="generate Result-to-create Result" style="stroke:#181818;stroke-width:1;"/><polygon fill="#181818" points="1830.49,218.79,1823.6699,225.8954,1828.7911,223.4925,1831.194,228.6137,1830.49,218.79" style="stroke:#181818;stroke-width:1;"/><text fill="#000000" font-family="sans-serif" font-size="13" lengthAdjust="spacing" textLength="54.1836" x="1788.22" y="489.9584">init Task</text></g><!--link day overview to MRBS--><g id="link_day overview_MRBS"><path d="M1988,618.91 C2004.77,627.85 2027.7,638.92 2049.18,645.5 C2119.26,666.96 2139.14,664.45 2212.18,670.5 C2229.04,671.9 2806.15,670.73 2821.18,678.5 C2859.29,698.2 2880.8121,740.8533 2890.6621,764.7333 " fill="none" id="day overview-to-MRBS" style="stroke:#181818;stroke-width:1;"/><polygon fill="#181818" points="2892.95,770.28,2893.216,760.4347,2891.0434,765.6578,2885.8204,763.4852,2892.95,770.28" style="stroke:#181818;stroke-width:1;"/><text fill="#000000" font-family="sans-serif" font-size="13" lengthAdjust="spacing" textLength="47.5439" x="2213.18" y="667.0684">request</text></g><!--link join room to MRBS--><g id="link_join room_MRBS"><path d="M2589.76,608 C2651.43,613.91 2750.7,630.71 2821.18,678.5 C2856.31,702.32 2878.6243,742.3057 2889.4843,765.0457 " fill="none" id="join room-to-MRBS" style="stroke:#181818;stroke-width:1;"/><polygon fill="#181818" points="2892.07,770.46,2891.801,760.6148,2889.9153,765.9481,2884.5819,764.0624,2892.07,770.46" style="stroke:#181818;stroke-width:1;"/><text fill="#000000" font-family="sans-serif" font-size="13" lengthAdjust="spacing" textLength="47.5439" x="2808.74" y="667.0684">request</text></g><!--link join rooms to MRBS--><g id="link_join rooms_MRBS"><path d="M2156.64,617.64 C2177.47,626.84 2207.05,638.74 2234.18,645.5 C2325.39,668.22 2350.42,663.94 2444.18,670.5 C2465.08,671.96 2802.61,668.81 2821.18,678.5 C2859.21,698.35 2880.7629,740.9371 2890.6429,764.7771 " fill="none" id="join rooms-to-MRBS" style="stroke:#181818;stroke-width:1;"/><polygon fill="#181818" points="2892.94,770.32,2893.1896,760.4743,2891.0257,765.701,2885.7991,763.5371,2892.94,770.32" style="stroke:#181818;stroke-width:1;"/><text fill="#000000" font-family="sans-serif" font-size="13" lengthAdjust="spacing" textLength="47.5439" x="2445.18" y="667.0684">request</text></g><!--link delete participant to MRBS--><g id="link_delete participant_MRBS"><path d="M2372.1,620.3 C2396.35,629.08 2428.13,639.48 2457.18,645.5 C2573.02,669.51 2604.33,660.18 2722.18,670.5 C2744.17,672.43 2801.93,667.71 2821.18,678.5 C2858.41,699.36 2880.1055,741.0599 2890.2755,764.6599 " fill="none" id="delete participant-to-MRBS" style="stroke:#181818;stroke-width:1;"/><polygon fill="#181818" points="2892.65,770.17,2892.7617,760.3218,2890.6712,765.5782,2885.4148,763.4878,2892.65,770.17" style="stroke:#181818;stroke-width:1;"/><text fill="#000000" font-family="sans-serif" font-size="13" lengthAdjust="spacing" textLength="47.5439" x="2723.18" y="667.0684">request</text></g><!--SRC=[fLRBafim4BpxAwPyyXxW0rnRU_3caaEgKdRo0LgOE0eW4KdshYl5lsU4A10Wi9puP4lJJS-hCSkCLF1Tezeep0mJvn9XUvIoWeEK1HTdEDsqmGha5HMSM5MNj_I0hDh2dmtGPu2zbXo5wOxjnz92yW8xXRylg0tax0PNZkzFAo5Oea6ecJ8yupKJPYNub-G258cDYT53q5mGf6c8TazwQXIvZeK6vCF399xaAEnpai3kKkUCdjoVxa6Z2Q020XDRhob-3XtAie3e8TuesL4vEe9lJ1TRRpnQyZCAL9R6tdQfB8_BVSZA-Dm51yOf7gFNGTJUpvy2xMnZwSO6l3DkxCP90KVKbz8CyJ06p2DTIsQLsrClp4M9n-3-0lmBFj25UAANS26yCouoMTdlxhAdR9O6CFsgvCUjCwXx8sW5P0hxWpqzZvls-nX73-5unLxvSn9MtbLbKN2pcKfMiY0NCmHAX4n8IvdGgh7qhRr8jNFX7FrKHffT4ZynAuZtpBMn-UNK5ok36Iw5RWr2v9lLTE8fvacmhA1BU9L2e7tB-6B3_Lc5k1pNzNJ6x_BecZTAqY-KFt2FbQgP5yrpXbh93BLkZxHhVzVzqGXDubePKsXevjkxPHPBWn-KHDOYINPDo-ovu1IHUWimTPq15A9q3xDMO_yRT7P3EyygMdvbFMYNumz6Z60a_NgAeVEjf-VIxGdm71YDntyIwrNck9n3_ZPaxfrheXuOHxLoLDFQ3y7Jrsr4fBuRklZwNuPCRto3x0TcR95kGQnblJ5DE_xbU3ZrFsTB7QYA1GpEEGwVrYKgLaS4BzOc06espLy0]--></g></svg>