<svg xmlns="http://www.w3.org/2000/svg" xmlns:xlink="http://www.w3.org/1999/xlink" contentStyleType="text/css" height="186px" preserveAspectRatio="none" style="width:925px;height:186px;background:#FFFFFF;" version="1.1" viewBox="0 0 925 186" width="925px" zoomAndPan="magnify"><defs/><g><!--class AreaRelatedData--><g id="elem_AreaRelatedData"><rect codeLine="2" fill="#F1F1F1" height="106.0859" id="AreaRelatedData" rx="2.5" ry="2.5" style="stroke:#181818;stroke-width:0.5;" width="252.0986" x="665.96" y="39.98"/><ellipse cx="731.5679" cy="60.2905" fill="#FF7700" rx="11" ry="11" style="stroke:#181818;stroke-width:1;"/><path d="M731.3013,61.3535 Q729.4502,60.648 728.7945,59.8718 Q728.1387,59.0957 728.1387,57.7842 Q728.1387,56.0991 729.2178,55.1362 Q730.2969,54.1734 732.1812,54.1734 Q733.0362,54.1734 733.8912,54.3684 Q734.7461,54.5635 735.5845,54.9453 L735.5845,57.336 Q734.7959,56.7798 733.9825,56.4893 Q733.169,56.1987 732.3721,56.1987 Q731.4839,56.1987 731.0108,56.5557 Q730.5376,56.9126 730.5376,57.5767 Q730.5376,58.0913 730.8821,58.4275 Q731.2266,58.7637 732.3223,59.1704 L733.3765,59.5689 Q734.8706,60.1167 735.5762,61.0215 Q736.2818,61.9263 736.2818,63.3042 Q736.2818,65.1802 735.1736,66.1057 Q734.0655,67.0313 731.8243,67.0313 Q730.9029,67.0313 729.9773,66.8113 Q729.0518,66.5913 728.1885,66.1597 L728.1885,63.6279 Q729.168,64.3252 730.0852,64.6655 Q731.0025,65.0059 731.899,65.0059 Q732.8038,65.0059 733.3018,64.595 Q733.7998,64.1841 733.7998,63.4453 Q733.7998,62.8892 733.4678,62.47 Q733.1358,62.0508 732.5049,61.8101 Z " fill="#000000"/><text fill="#000000" font-family="sans-serif" font-size="12" font-style="italic" lengthAdjust="spacing" textLength="46.5176" x="785.0005" y="56.5816">&#171;Struct&#187;</text><text fill="#000000" font-family="sans-serif" font-size="14" lengthAdjust="spacing" textLength="112.3828" x="752.0679" y="72.648">AreaRelatedData</text><line style="stroke:#181818;stroke-width:0.5;" x1="666.96" x2="917.0586" y1="80.6011" y2="80.6011"/><ellipse cx="676.96" cy="94.3452" fill="none" rx="3" ry="3" style="stroke:#038048;stroke-width:1;"/><text fill="#000000" font-family="sans-serif" font-size="14" lengthAdjust="spacing" textLength="43.4697" x="685.96" y="98.1362">id: i32</text><ellipse cx="676.96" cy="110.8335" fill="none" rx="3" ry="3" style="stroke:#038048;stroke-width:1;"/><text fill="#000000" font-family="sans-serif" font-size="14" lengthAdjust="spacing" textLength="122.1104" x="685.96" y="114.6245">area_name: String</text><ellipse cx="676.96" cy="127.3218" fill="none" rx="3" ry="3" style="stroke:#038048;stroke-width:1;"/><text fill="#000000" font-family="sans-serif" font-size="14" lengthAdjust="spacing" textLength="226.0986" x="685.96" y="131.1128">rooms: Vec&lt;RoomsRelatedData&gt;</text><line style="stroke:#181818;stroke-width:0.5;" x1="666.96" x2="917.0586" y1="138.0659" y2="138.0659"/></g><!--class RoomsRelatedData--><g id="elem_RoomsRelatedData"><rect codeLine="9" fill="#F1F1F1" height="172.0391" id="RoomsRelatedData" rx="2.5" ry="2.5" style="stroke:#181818;stroke-width:0.5;" width="264.8066" x="189.61" y="7"/><ellipse cx="253.902" cy="27.3105" fill="#FF7700" rx="11" ry="11" style="stroke:#181818;stroke-width:1;"/><path d="M253.6354,28.3735 Q251.7843,27.668 251.1286,26.8918 Q250.4728,26.1157 250.4728,24.8042 Q250.4728,23.1191 251.5519,22.1563 Q252.631,21.1934 254.5153,21.1934 Q255.3703,21.1934 256.2252,21.3884 Q257.0802,21.5835 257.9186,21.9653 L257.9186,24.356 Q257.13,23.7998 256.3165,23.5093 Q255.5031,23.2188 254.7062,23.2188 Q253.818,23.2188 253.3449,23.5757 Q252.8717,23.9326 252.8717,24.5967 Q252.8717,25.1113 253.2162,25.4475 Q253.5607,25.7837 254.6564,26.1904 L255.7106,26.5889 Q257.2047,27.1367 257.9103,28.0415 Q258.6159,28.9463 258.6159,30.3242 Q258.6159,32.2002 257.5077,33.1257 Q256.3996,34.0513 254.1583,34.0513 Q253.237,34.0513 252.3114,33.8313 Q251.3859,33.6113 250.5226,33.1797 L250.5226,30.6479 Q251.5021,31.3452 252.4193,31.6855 Q253.3366,32.0259 254.233,32.0259 Q255.1378,32.0259 255.6359,31.615 Q256.1339,31.2041 256.1339,30.4653 Q256.1339,29.9092 255.8019,29.49 Q255.4699,29.0708 254.839,28.8301 Z " fill="#000000"/><text fill="#000000" font-family="sans-serif" font-size="12" font-style="italic" lengthAdjust="spacing" textLength="46.5176" x="315.0045" y="23.6016">&#171;Struct&#187;</text><text fill="#000000" font-family="sans-serif" font-size="14" lengthAdjust="spacing" textLength="127.7227" x="274.402" y="39.668">RoomsRelatedData</text><line style="stroke:#181818;stroke-width:0.5;" x1="190.61" x2="453.4166" y1="47.6211" y2="47.6211"/><ellipse cx="200.61" cy="61.3652" fill="none" rx="3" ry="3" style="stroke:#038048;stroke-width:1;"/><text fill="#000000" font-family="sans-serif" font-size="14" lengthAdjust="spacing" textLength="43.4697" x="209.61" y="65.1563">id: i32</text><ellipse cx="200.61" cy="77.8535" fill="none" rx="3" ry="3" style="stroke:#038048;stroke-width:1;"/><text fill="#000000" font-family="sans-serif" font-size="14" lengthAdjust="spacing" textLength="129.1172" x="209.61" y="81.6445">room_name: String</text><ellipse cx="200.61" cy="94.3418" fill="none" rx="3" ry="3" style="stroke:#038048;stroke-width:1;"/><text fill="#000000" font-family="sans-serif" font-size="14" lengthAdjust="spacing" textLength="124.9063" x="209.61" y="98.1328">description: String</text><ellipse cx="200.61" cy="110.8301" fill="none" rx="3" ry="3" style="stroke:#038048;stroke-width:1;"/><text fill="#000000" font-family="sans-serif" font-size="14" lengthAdjust="spacing" textLength="85.8252" x="209.61" y="114.6211">capacity: i32</text><ellipse cx="200.61" cy="127.3184" fill="none" rx="3" ry="3" style="stroke:#038048;stroke-width:1;"/><text fill="#000000" font-family="sans-serif" font-size="14" lengthAdjust="spacing" textLength="85.2373" x="209.61" y="131.1094">entry_id: i32</text><ellipse cx="200.61" cy="143.8066" fill="none" rx="3" ry="3" style="stroke:#038048;stroke-width:1;"/><text fill="#000000" font-family="sans-serif" font-size="14" lengthAdjust="spacing" textLength="146.7676" x="209.61" y="147.5977">registration_limit: i32</text><ellipse cx="200.61" cy="160.2949" fill="none" rx="3" ry="3" style="stroke:#038048;stroke-width:1;"/><text fill="#000000" font-family="sans-serif" font-size="14" lengthAdjust="spacing" textLength="238.8066" x="209.61" y="164.0859">participants: Vec&lt;ParticipantsList&gt;</text><line style="stroke:#181818;stroke-width:0.5;" x1="190.61" x2="453.4166" y1="171.0391" y2="171.0391"/></g><!--class ParticipantsList--><g id="elem_ParticipantsList"><rect codeLine="19" fill="#F1F1F1" height="89.5977" id="ParticipantsList" rx="2.5" ry="2.5" style="stroke:#181818;stroke-width:0.5;" width="141.4727" x="489.27" y="48.22"/><ellipse cx="507.0979" cy="68.5305" fill="#FF7700" rx="11" ry="11" style="stroke:#181818;stroke-width:1;"/><path d="M506.8313,69.5935 Q504.9802,68.888 504.3244,68.1118 Q503.6687,67.3357 503.6687,66.0242 Q503.6687,64.3391 504.7478,63.3763 Q505.8269,62.4134 507.7112,62.4134 Q508.5661,62.4134 509.4211,62.6084 Q510.2761,62.8035 511.1145,63.1853 L511.1145,65.576 Q510.3259,65.0198 509.5124,64.7293 Q508.699,64.4388 507.9021,64.4388 Q507.0139,64.4388 506.5408,64.7957 Q506.0676,65.1526 506.0676,65.8167 Q506.0676,66.3313 506.4121,66.6675 Q506.7566,67.0037 507.8523,67.4104 L508.9065,67.8089 Q510.4006,68.3567 511.1062,69.2615 Q511.8117,70.1663 511.8117,71.5442 Q511.8117,73.4202 510.7036,74.3457 Q509.5954,75.2713 507.3542,75.2713 Q506.4328,75.2713 505.5073,75.0513 Q504.5818,74.8313 503.7185,74.3997 L503.7185,71.8679 Q504.698,72.5652 505.6152,72.9055 Q506.5325,73.2459 507.4289,73.2459 Q508.3337,73.2459 508.8318,72.835 Q509.3298,72.4241 509.3298,71.6853 Q509.3298,71.1292 508.9978,70.71 Q508.6658,70.2908 508.0349,70.0501 Z " fill="#000000"/><text fill="#000000" font-family="sans-serif" font-size="12" font-style="italic" lengthAdjust="spacing" textLength="46.5176" x="550.0617" y="64.8216">&#171;Struct&#187;</text><text fill="#000000" font-family="sans-serif" font-size="14" lengthAdjust="spacing" textLength="103.1885" x="521.7263" y="80.888">ParticipantsList</text><line style="stroke:#181818;stroke-width:0.5;" x1="490.27" x2="629.7427" y1="88.8411" y2="88.8411"/><ellipse cx="500.27" cy="102.5852" fill="none" rx="3" ry="3" style="stroke:#038048;stroke-width:1;"/><text fill="#000000" font-family="sans-serif" font-size="14" lengthAdjust="spacing" textLength="43.4697" x="509.27" y="106.3763">id: i32</text><ellipse cx="500.27" cy="119.0735" fill="none" rx="3" ry="3" style="stroke:#038048;stroke-width:1;"/><text fill="#000000" font-family="sans-serif" font-size="14" lengthAdjust="spacing" textLength="115.4727" x="509.27" y="122.8645">username: String</text><line style="stroke:#181818;stroke-width:0.5;" x1="490.27" x2="629.7427" y1="129.8177" y2="129.8177"/></g><!--class EntryRelatedData--><g id="elem_EntryRelatedData"><rect fill="#F1F1F1" height="48" id="EntryRelatedData" rx="2.5" ry="2.5" style="stroke:#181818;stroke-width:0.5;" width="148.0195" x="7" y="69.02"/><ellipse cx="22" cy="85.02" fill="#ADD1B2" rx="11" ry="11" style="stroke:#181818;stroke-width:1;"/><path d="M24.4731,91.1631 Q23.8921,91.4619 23.2529,91.6113 Q22.6138,91.7607 21.9082,91.7607 Q19.4014,91.7607 18.0815,90.1089 Q16.7617,88.457 16.7617,85.3359 Q16.7617,82.2065 18.0815,80.5547 Q19.4014,78.9028 21.9082,78.9028 Q22.6138,78.9028 23.2612,79.0522 Q23.9087,79.2016 24.4731,79.5005 L24.4731,82.2231 Q23.8423,81.6421 23.2488,81.3723 Q22.6553,81.1025 22.0244,81.1025 Q20.6797,81.1025 19.9949,82.1692 Q19.3101,83.2358 19.3101,85.3359 Q19.3101,87.4277 19.9949,88.4944 Q20.6797,89.561 22.0244,89.561 Q22.6553,89.561 23.2488,89.2912 Q23.8423,89.0215 24.4731,88.4404 Z " fill="#000000"/><text fill="#000000" font-family="sans-serif" font-size="14" lengthAdjust="spacing" textLength="116.0195" x="36" y="90.311">EntryRelatedData</text><line style="stroke:#181818;stroke-width:0.5;" x1="8" x2="154.0195" y1="101.02" y2="101.02"/><line style="stroke:#181818;stroke-width:0.5;" x1="8" x2="154.0195" y1="109.02" y2="109.02"/></g><!--reverse link EntryRelatedData to RoomsRelatedData--><g id="link_EntryRelatedData_RoomsRelatedData"><path codeLine="24" d="M167.38,93.02 C178.66,93.02 177.95,93.02 189.23,93.02 " fill="none" id="EntryRelatedData-backto-RoomsRelatedData" style="stroke:#181818;stroke-width:1;"/><polygon fill="#181818" points="155.38,93.02,161.38,97.02,167.38,93.02,161.38,89.02,155.38,93.02" style="stroke:#181818;stroke-width:1;"/></g><!--reverse link RoomsRelatedData to ParticipantsList--><g id="link_RoomsRelatedData_ParticipantsList"><path codeLine="25" d="M466.49,93.02 C478.03,93.02 477.57,93.02 489.11,93.02 " fill="none" id="RoomsRelatedData-backto-ParticipantsList" style="stroke:#181818;stroke-width:1;"/><polygon fill="#181818" points="454.49,93.02,460.49,97.02,466.49,93.02,460.49,89.02,454.49,93.02" style="stroke:#181818;stroke-width:1;"/></g><!--SRC=[bL0z2y8m4DtpAmvS_0JHGIYb8AYJWoYubYCzvA1DIt8E8lvt4-qGeukPBlVkthltT8tEmTeI7gb6eMg3Wf3dC3nDOR3RhLRp-GXEOgzQYWBk2loR05SPy7BH_z2lbmORoi8acqlVjstRk0pEfFDZA2E9GZsKKlgbdcB_oWUPN_8LEMsv4svDWcZiKBFSOXOoOczbmamNTc8nK9GrDomnsg4LrjoXaTxb8Uhi_URBvTja2lrhykh8VdZqpDjmSXpSUFOLflfArm-bnwWd]--></g></svg>