<svg xmlns="http://www.w3.org/2000/svg" xmlns:xlink="http://www.w3.org/1999/xlink" contentStyleType="text/css" height="572px" preserveAspectRatio="none" style="width:809px;height:572px;background:#FFFFFF;" version="1.1" viewBox="0 0 809 572" width="809px" zoomAndPan="magnify"><defs/><g><!--cluster Browser--><g id="cluster_Browser"><rect fill="none" height="97.49" rx="2.5" ry="2.5" style="stroke:#181818;stroke-width:1;" width="102" x="7" y="7"/><path d="M75.6865,7 L75.6865,16.4883 L65.6865,26.4883 L7,26.4883 " fill="none" style="stroke:#181818;stroke-width:1;"/><text fill="#000000" font-family="sans-serif" font-size="14" font-weight="bold" lengthAdjust="spacing" textLength="58.6865" x="10" y="21.5352">Browser</text></g><!--cluster Client Komponente--><g id="cluster_Client Komponente"><rect fill="none" height="203.98" rx="2.5" ry="2.5" style="stroke:#181818;stroke-width:1;" width="349" x="133" y="7"/><path d="M280.9082,7 L280.9082,16.4883 L270.9082,26.4883 L133,26.4883 " fill="none" style="stroke:#181818;stroke-width:1;"/><text fill="#000000" font-family="sans-serif" font-size="14" font-weight="bold" lengthAdjust="spacing" textLength="137.9082" x="136" y="21.5352">Client Komponente</text></g><!--cluster central Service--><g id="cluster_central Service"><polygon fill="none" points="311,244.98,321,234.98,722,234.98,722,327.46,712,337.46,311,337.46,311,244.98" style="stroke:#181818;stroke-width:1;"/><line style="stroke:#181818;stroke-width:1;" x1="712" x2="722" y1="244.98" y2="234.98"/><line style="stroke:#181818;stroke-width:1;" x1="311" x2="712" y1="244.98" y2="244.98"/><line style="stroke:#181818;stroke-width:1;" x1="712" x2="712" y1="244.98" y2="337.46"/><text fill="#000000" font-family="sans-serif" font-size="14" font-weight="bold" lengthAdjust="spacing" textLength="105.3623" x="459.8188" y="261.5152">central Service</text></g><!--cluster Server Meeting Room Booking--><g id="cluster_Server Meeting Room Booking"><path d="M312.5,361.46 L530.2129,361.46 A3.75,3.75 0 0 1 532.7129,363.96 L539.7129,383.9483 L799.5,383.9483 A2.5,2.5 0 0 1 802,386.4483 L802,562.94 A2.5,2.5 0 0 1 799.5,565.44 L312.5,565.44 A2.5,2.5 0 0 1 310,562.94 L310,363.96 A2.5,2.5 0 0 1 312.5,361.46 " fill="none" style="stroke:#000000;stroke-width:1.5;"/><line style="stroke:#000000;stroke-width:1.5;" x1="310" x2="539.7129" y1="383.9483" y2="383.9483"/><text fill="#000000" font-family="sans-serif" font-size="14" font-weight="bold" lengthAdjust="spacing" textLength="216.7129" x="314" y="376.9952">Server Meeting Room Booking</text></g><!--entity User--><g id="elem_User"><rect fill="#F1F1F1" height="46.4883" rx="2.5" ry="2.5" style="stroke:#181818;stroke-width:0.5;" width="70.3652" x="22.82" y="42"/><rect fill="#F1F1F1" height="10" style="stroke:#181818;stroke-width:0.5;" width="15" x="73.1852" y="47"/><rect fill="#F1F1F1" height="2" style="stroke:#181818;stroke-width:0.5;" width="4" x="71.1852" y="49"/><rect fill="#F1F1F1" height="2" style="stroke:#181818;stroke-width:0.5;" width="4" x="71.1852" y="53"/><text fill="#000000" font-family="sans-serif" font-size="14" lengthAdjust="spacing" textLength="30.3652" x="37.82" y="75.5352">User</text></g><!--entity Client_Frontend--><g id="elem_Client_Frontend"><rect fill="#F1F1F1" height="46.4883" rx="2.5" ry="2.5" style="stroke:#181818;stroke-width:0.5;" width="147.5635" x="149.22" y="42"/><rect fill="#F1F1F1" height="10" style="stroke:#181818;stroke-width:0.5;" width="15" x="276.7835" y="47"/><rect fill="#F1F1F1" height="2" style="stroke:#181818;stroke-width:0.5;" width="4" x="274.7835" y="49"/><rect fill="#F1F1F1" height="2" style="stroke:#181818;stroke-width:0.5;" width="4" x="274.7835" y="53"/><text fill="#000000" font-family="sans-serif" font-size="14" lengthAdjust="spacing" textLength="107.5635" x="164.22" y="75.5352">Client_Frontend</text></g><!--entity Client_Backend--><g id="elem_Client_Backend"><rect fill="#F1F1F1" height="46.4883" rx="2.5" ry="2.5" style="stroke:#181818;stroke-width:0.5;" width="142.9424" x="148.53" y="148.49"/><rect fill="#F1F1F1" height="10" style="stroke:#181818;stroke-width:0.5;" width="15" x="271.4724" y="153.49"/><rect fill="#F1F1F1" height="2" style="stroke:#181818;stroke-width:0.5;" width="4" x="269.4724" y="155.49"/><rect fill="#F1F1F1" height="2" style="stroke:#181818;stroke-width:0.5;" width="4" x="269.4724" y="159.49"/><text fill="#000000" font-family="sans-serif" font-size="14" lengthAdjust="spacing" textLength="102.9424" x="163.53" y="182.0252">Client_Backend</text></g><!--entity Samply.Proxy1--><g id="elem_Samply.Proxy1"><rect fill="#F1F1F1" height="46.4883" rx="2.5" ry="2.5" style="stroke:#181818;stroke-width:0.5;" width="139.7637" x="326.12" y="148.49"/><rect fill="#F1F1F1" height="10" style="stroke:#181818;stroke-width:0.5;" width="15" x="445.8837" y="153.49"/><rect fill="#F1F1F1" height="2" style="stroke:#181818;stroke-width:0.5;" width="4" x="443.8837" y="155.49"/><rect fill="#F1F1F1" height="2" style="stroke:#181818;stroke-width:0.5;" width="4" x="443.8837" y="159.49"/><text fill="#000000" font-family="sans-serif" font-size="14" lengthAdjust="spacing" textLength="99.7637" x="341.12" y="182.0252">Samply.Proxy1</text></g><!--entity Samply.Broker--><g id="elem_Samply.Broker"><rect fill="#F1F1F1" height="46.4883" rx="2.5" ry="2.5" style="stroke:#181818;stroke-width:0.5;" width="137.0361" x="327.48" y="274.98"/><rect fill="#F1F1F1" height="10" style="stroke:#181818;stroke-width:0.5;" width="15" x="444.5161" y="279.98"/><rect fill="#F1F1F1" height="2" style="stroke:#181818;stroke-width:0.5;" width="4" x="442.5161" y="281.98"/><rect fill="#F1F1F1" height="2" style="stroke:#181818;stroke-width:0.5;" width="4" x="442.5161" y="285.98"/><text fill="#000000" font-family="sans-serif" font-size="14" lengthAdjust="spacing" textLength="97.0361" x="342.48" y="308.5152">Samply.Broker</text></g><!--entity Public Key Infrastructure--><g id="elem_Public Key Infrastructure"><rect fill="#F1F1F1" height="46.4883" rx="2.5" ry="2.5" style="stroke:#181818;stroke-width:0.5;" width="206.3594" x="499.82" y="274.98"/><rect fill="#F1F1F1" height="10" style="stroke:#181818;stroke-width:0.5;" width="15" x="686.1794" y="279.98"/><rect fill="#F1F1F1" height="2" style="stroke:#181818;stroke-width:0.5;" width="4" x="684.1794" y="281.98"/><rect fill="#F1F1F1" height="2" style="stroke:#181818;stroke-width:0.5;" width="4" x="684.1794" y="285.98"/><text fill="#000000" font-family="sans-serif" font-size="14" lengthAdjust="spacing" textLength="166.3594" x="514.82" y="308.5152">Public Key Infrastructure</text></g><!--entity Samply.Proxy2--><g id="elem_Samply.Proxy2"><rect fill="#F1F1F1" height="46.4883" rx="2.5" ry="2.5" style="stroke:#181818;stroke-width:0.5;" width="139.7637" x="326.12" y="396.46"/><rect fill="#F1F1F1" height="10" style="stroke:#181818;stroke-width:0.5;" width="15" x="445.8837" y="401.46"/><rect fill="#F1F1F1" height="2" style="stroke:#181818;stroke-width:0.5;" width="4" x="443.8837" y="403.46"/><rect fill="#F1F1F1" height="2" style="stroke:#181818;stroke-width:0.5;" width="4" x="443.8837" y="407.46"/><text fill="#000000" font-family="sans-serif" font-size="14" lengthAdjust="spacing" textLength="99.7637" x="341.12" y="429.9952">Samply.Proxy2</text></g><!--entity Backend_Connector--><g id="elem_Backend_Connector"><rect fill="#F1F1F1" height="46.4883" rx="2.5" ry="2.5" style="stroke:#181818;stroke-width:0.5;" width="173.6357" x="501.18" y="396.46"/><rect fill="#F1F1F1" height="10" style="stroke:#181818;stroke-width:0.5;" width="15" x="654.8157" y="401.46"/><rect fill="#F1F1F1" height="2" style="stroke:#181818;stroke-width:0.5;" width="4" x="652.8157" y="403.46"/><rect fill="#F1F1F1" height="2" style="stroke:#181818;stroke-width:0.5;" width="4" x="652.8157" y="407.46"/><text fill="#000000" font-family="sans-serif" font-size="14" lengthAdjust="spacing" textLength="133.6357" x="516.18" y="429.9952">Backend_Connector</text></g><!--entity MRBS--><g id="elem_MRBS"><rect fill="#F1F1F1" height="46.4883" rx="2.5" ry="2.5" style="stroke:#181818;stroke-width:0.5;" width="76.5039" x="709.75" y="396.46"/><rect fill="#F1F1F1" height="10" style="stroke:#181818;stroke-width:0.5;" width="15" x="766.2539" y="401.46"/><rect fill="#F1F1F1" height="2" style="stroke:#181818;stroke-width:0.5;" width="4" x="764.2539" y="403.46"/><rect fill="#F1F1F1" height="2" style="stroke:#181818;stroke-width:0.5;" width="4" x="764.2539" y="407.46"/><text fill="#000000" font-family="sans-serif" font-size="14" lengthAdjust="spacing" textLength="36.5039" x="724.75" y="429.9952">MRBS</text></g><!--entity Database--><g id="elem_Database"><rect fill="#F1F1F1" height="46.4883" rx="2.5" ry="2.5" style="stroke:#181818;stroke-width:0.5;" width="102.665" x="609.67" y="502.95"/><rect fill="#F1F1F1" height="10" style="stroke:#181818;stroke-width:0.5;" width="15" x="692.335" y="507.95"/><rect fill="#F1F1F1" height="2" style="stroke:#181818;stroke-width:0.5;" width="4" x="690.335" y="509.95"/><rect fill="#F1F1F1" height="2" style="stroke:#181818;stroke-width:0.5;" width="4" x="690.335" y="513.95"/><text fill="#000000" font-family="sans-serif" font-size="14" lengthAdjust="spacing" textLength="62.665" x="624.67" y="536.4852">Database</text></g><!--link User to Client_Frontend--><g id="link_User_Client_Frontend"><path d="M93.45,65.24 C111.92,65.24 130.39,65.24 148.86,65.24 " fill="none" id="User-Client_Frontend" style="stroke:#181818;stroke-width:1;stroke-dasharray:7.0,7.0;"/></g><!--link Client_Frontend to Client_Backend--><g id="link_Client_Frontend_Client_Backend"><path d="M222.35,88.92 C221.85,106.44 221.15,130.59 220.65,148.1 " fill="none" id="Client_Frontend-Client_Backend" style="stroke:#181818;stroke-width:1;"/></g><!--link Client_Backend to Samply.Proxy1--><g id="link_Client_Backend_Samply.Proxy1"><path d="M291.84,171.73 C303.24,171.73 314.63,171.73 326.02,171.73 " fill="none" id="Client_Backend-Samply.Proxy1" style="stroke:#181818;stroke-width:1;"/></g><!--link Samply.Proxy1 to Samply.Broker--><g id="link_Samply.Proxy1_Samply.Broker"><path d="M396,195.27 C396,217.84 396,252.34 396,274.84 " fill="none" id="Samply.Proxy1-Samply.Broker" style="stroke:#181818;stroke-width:1;"/></g><!--link Samply.Broker to Samply.Proxy2--><g id="link_Samply.Broker_Samply.Proxy2"><path d="M396,321.69 C396,343.06 396,375 396,396.33 " fill="none" id="Samply.Broker-Samply.Proxy2" style="stroke:#181818;stroke-width:1;"/></g><!--link Samply.Broker to Public Key Infrastructure--><g id="link_Samply.Broker_Public Key Infrastructure"><path d="M464.73,298.22 C476.34,298.22 487.96,298.22 499.57,298.22 " fill="none" id="Samply.Broker-Public Key Infrastructure" style="stroke:#181818;stroke-width:1;"/></g><!--link Samply.Proxy2 to Backend_Connector--><g id="link_Samply.Proxy2_Backend_Connector"><path d="M466.12,419.71 C477.71,419.71 489.29,419.71 500.88,419.71 " fill="none" id="Samply.Proxy2-Backend_Connector" style="stroke:#181818;stroke-width:1;"/></g><!--link Backend_Connector to Database--><g id="link_Backend_Connector_Database"><path d="M603.84,443.38 C616.08,460.91 632.95,485.05 645.19,502.57 " fill="none" id="Backend_Connector-Database" style="stroke:#181818;stroke-width:1;"/></g><!--link MRBS to Database--><g id="link_MRBS_Database"><path d="M729.12,443.38 C714.53,460.91 694.42,485.05 679.84,502.57 " fill="none" id="MRBS-Database" style="stroke:#181818;stroke-width:1;"/></g><!--SRC=[VP1HQuCm58NVyoikllJ9mleJx1YCKYYLxMMK4kEjY7glnBXDnlxxOapNDSfyoZqvddloNRHi4A94yqU7Ee8l0VPxUx73INmBSPdkjtM9P637JSjaJnXvutHnVj9iHSfFTseYLNKJKzcqzR0-QFuS7bmuSMwpbRLgMKEA-hrK-Dl1-ssrQYpZj4EVrQM27GxmJBPRPtIlJA_HvOdMBfI5pHopKCCUqPHKm96vWOIviaEOx_fiVBvlVDuo4Ih3rxtxOvBwuwCqCfFTj76rWbVKMKbvJmMIcC31UW7CJ84udfCA1OXdu8BPnGIiWlclvVhScULVkC7Veti1rOBcLj-GJI3lnHy0]--></g></svg>