<svg xmlns="http://www.w3.org/2000/svg" xmlns:xlink="http://www.w3.org/1999/xlink" contentStyleType="text/css" height="697px" preserveAspectRatio="none" style="width:3003px;height:697px;background:#FFFFFF;" version="1.1" viewBox="0 0 3003 697" width="3003px" zoomAndPan="magnify"><defs/><g><!--cluster routes--><g id="cluster_routes"><path d="M8.5,260.36 L55.793,260.36 A3.75,3.75 0 0 1 58.293,262.86 L65.293,282.8483 L955.5,282.8483 A2.5,2.5 0 0 1 958,285.3483 L958,546.92 A2.5,2.5 0 0 1 955.5,549.42 L8.5,549.42 A2.5,2.5 0 0 1 6,546.92 L6,262.86 A2.5,2.5 0 0 1 8.5,260.36 " fill="none" style="stroke:#000000;stroke-width:1.5;"/><line style="stroke:#000000;stroke-width:1.5;" x1="6" x2="65.293" y1="282.8483" y2="282.8483"/><text fill="#000000" font-family="sans-serif" font-size="14" font-weight="bold" lengthAdjust="spacing" textLength="46.293" x="10" y="275.8952">routes</text><text fill="#000000" font-family="sans-serif" font-size="14" font-style="italic" lengthAdjust="spacing" textLength="71.8115" x="450.0942" y="298.3834">&#171;Modules&#187;</text></g><!--cluster api_connect--><g id="cluster_api_connect"><path d="M32.5,319.36 L118.6689,319.36 A3.75,3.75 0 0 1 121.1689,321.86 L128.1689,341.8483 L931.5,341.8483 A2.5,2.5 0 0 1 934,344.3483 L934,522.92 A2.5,2.5 0 0 1 931.5,525.42 L32.5,525.42 A2.5,2.5 0 0 1 30,522.92 L30,321.86 A2.5,2.5 0 0 1 32.5,319.36 " fill="none" style="stroke:#000000;stroke-width:1.5;"/><line style="stroke:#000000;stroke-width:1.5;" x1="30" x2="128.1689" y1="341.8483" y2="341.8483"/><text fill="#000000" font-family="sans-serif" font-size="14" font-weight="bold" lengthAdjust="spacing" textLength="85.1689" x="34" y="334.8952">api_connect</text><text fill="#000000" font-family="sans-serif" font-size="14" font-style="italic" lengthAdjust="spacing" textLength="56.875" x="457.5625" y="357.3834">&#171;Modul&#187;</text></g><!--cluster group--><g id="cluster_group"><path d="M984.5,6 L1028.5117,6 A3.75,3.75 0 0 1 1031.0117,8.5 L1038.0117,28.4883 L2993.5,28.4883 A2.5,2.5 0 0 1 2996,30.9883 L2996,498.19 A2.5,2.5 0 0 1 2993.5,500.69 L984.5,500.69 A2.5,2.5 0 0 1 982,498.19 L982,8.5 A2.5,2.5 0 0 1 984.5,6 " fill="none" style="stroke:#000000;stroke-width:1.5;"/><line style="stroke:#000000;stroke-width:1.5;" x1="982" x2="1038.0117" y1="28.4883" y2="28.4883"/><text fill="#000000" font-family="sans-serif" font-size="14" font-weight="bold" lengthAdjust="spacing" textLength="43.0117" x="986" y="21.5352">group</text><text fill="#000000" font-family="sans-serif" font-size="14" font-style="italic" lengthAdjust="spacing" textLength="71.8115" x="1957.0942" y="44.0234">&#171;Modules&#187;</text></g><!--cluster mod--><g id="cluster_mod"><path d="M1543.5,65 L1576.2939,65 A3.75,3.75 0 0 1 1578.7939,67.5 L1585.7939,87.4883 L1868.5,87.4883 A2.5,2.5 0 0 1 1871,89.9883 L1871,202.61 A2.5,2.5 0 0 1 1868.5,205.11 L1543.5,205.11 A2.5,2.5 0 0 1 1541,202.61 L1541,67.5 A2.5,2.5 0 0 1 1543.5,65 " fill="none" style="stroke:#000000;stroke-width:1.5;"/><line style="stroke:#000000;stroke-width:1.5;" x1="1541" x2="1585.7939" y1="87.4883" y2="87.4883"/><text fill="#000000" font-family="sans-serif" font-size="14" font-weight="bold" lengthAdjust="spacing" textLength="31.7939" x="1545" y="80.5352">mod</text><text fill="#000000" font-family="sans-serif" font-size="14" font-style="italic" lengthAdjust="spacing" textLength="71.8115" x="1674.0942" y="103.0234">&#171;Modules&#187;</text></g><!--cluster entities--><g id="cluster_entities"><path d="M1274.5,582.42 L1329.4697,582.42 A3.75,3.75 0 0 1 1331.9697,584.92 L1338.9697,604.9083 L1880.5,604.9083 A2.5,2.5 0 0 1 1883,607.4083 L1883,687.54 A2.5,2.5 0 0 1 1880.5,690.04 L1274.5,690.04 A2.5,2.5 0 0 1 1272,687.54 L1272,584.92 A2.5,2.5 0 0 1 1274.5,582.42 " fill="none" style="stroke:#000000;stroke-width:1.5;"/><line style="stroke:#000000;stroke-width:1.5;" x1="1272" x2="1338.9697" y1="604.9083" y2="604.9083"/><text fill="#000000" font-family="sans-serif" font-size="14" font-weight="bold" lengthAdjust="spacing" textLength="53.9697" x="1276" y="597.9552">entities</text></g><!--class BeamRequestTask--><g id="elem_BeamRequestTask"><rect codeLine="8" fill="#F1F1F1" height="139.0625" id="BeamRequestTask" rx="2.5" ry="2.5" style="stroke:#181818;stroke-width:0.5;" width="872.8291" x="45.59" y="370.36"/><ellipse cx="416.3131" cy="390.6705" fill="#FF7700" rx="11" ry="11" style="stroke:#181818;stroke-width:1;"/><path d="M416.0465,391.7335 Q414.1955,391.028 413.5397,390.2518 Q412.8839,389.4757 412.8839,388.1642 Q412.8839,386.4791 413.963,385.5162 Q415.0421,384.5534 416.9264,384.5534 Q417.7814,384.5534 418.6364,384.7484 Q419.4914,384.9435 420.3297,385.3253 L420.3297,387.716 Q419.5412,387.1598 418.7277,386.8693 Q417.9142,386.5787 417.1173,386.5787 Q416.2292,386.5787 415.756,386.9357 Q415.2829,387.2926 415.2829,387.9567 Q415.2829,388.4713 415.6274,388.8075 Q415.9718,389.1437 417.0675,389.5504 L418.1217,389.9489 Q419.6159,390.4967 420.3214,391.4015 Q421.027,392.3063 421.027,393.6842 Q421.027,395.5602 419.9189,396.4857 Q418.8107,397.4113 416.5695,397.4113 Q415.6481,397.4113 414.7226,397.1913 Q413.797,396.9713 412.9338,396.5397 L412.9338,394.0079 Q413.9132,394.7052 414.8305,395.0455 Q415.7477,395.3859 416.6442,395.3859 Q417.549,395.3859 418.047,394.975 Q418.5451,394.5641 418.5451,393.8253 Q418.5451,393.2692 418.213,392.85 Q417.881,392.4308 417.2502,392.1901 Z " fill="#000000"/><text fill="#000000" font-family="sans-serif" font-size="12" font-style="italic" lengthAdjust="spacing" textLength="46.5176" x="474.9958" y="386.9616">&#171;Struct&#187;</text><text fill="#000000" font-family="sans-serif" font-size="14" lengthAdjust="spacing" textLength="122.8828" x="436.8131" y="403.028">BeamRequestTask</text><line style="stroke:#181818;stroke-width:0.5;" x1="46.59" x2="917.4191" y1="410.9811" y2="410.9811"/><line style="stroke:#181818;stroke-width:1;" x1="46.59" x2="917.4191" y1="418.9811" y2="418.9811"/><ellipse cx="56.59" cy="432.7252" fill="#84BE84" rx="3" ry="3" style="stroke:#038048;stroke-width:1;"/><text fill="#000000" font-family="sans-serif" font-size="14" lengthAdjust="spacing" textLength="837.7988" x="65.59" y="436.5162">read_overview_day(Query(query_day): Query&lt;GetTimestamp&gt;): Result&lt;Json&lt;Vec&lt;EntryRelatedData&gt;&gt;, Json&lt;ErrorType&gt;&gt;</text><ellipse cx="56.59" cy="449.2135" fill="#84BE84" rx="3" ry="3" style="stroke:#038048;stroke-width:1;"/><text fill="#000000" font-family="sans-serif" font-size="14" lengthAdjust="spacing" textLength="551.8857" x="65.59" y="453.0045">joinroom(Path(id): Path&lt;i32&gt;): Result&lt;Json&lt;ResponseType&gt;, Json&lt;ErrorType&gt;&gt;</text><ellipse cx="56.59" cy="465.7018" fill="#84BE84" rx="3" ry="3" style="stroke:#038048;stroke-width:1;"/><text fill="#000000" font-family="sans-serif" font-size="14" lengthAdjust="spacing" textLength="846.8291" x="65.59" y="469.4928">joinrooms(Path(entry_id): Path&lt;i32&gt;, Json(payload): Json&lt;Vec&lt;String&gt;&gt;): Result&lt;Json&lt;ResponseType&gt;, Json&lt;ErrorType&gt;&gt;</text><ellipse cx="56.59" cy="482.1901" fill="#84BE84" rx="3" ry="3" style="stroke:#038048;stroke-width:1;"/><text fill="#000000" font-family="sans-serif" font-size="14" lengthAdjust="spacing" textLength="653.7959" x="65.59" y="485.9811">delete_participant(Path(entry_id): Path&lt;i32&gt;): Result&lt;Json&lt;ResponseType&gt;, Json&lt;ErrorType&gt;&gt;</text><ellipse cx="56.59" cy="498.6784" fill="#84BE84" rx="3" ry="3" style="stroke:#038048;stroke-width:1;"/><text fill="#000000" font-family="sans-serif" font-size="14" lengthAdjust="spacing" textLength="245.5605" x="65.59" y="502.4694">get_user(): Json&lt;std::string::String&gt;</text></g><!--class read--><g id="elem_read"><rect codeLine="19" fill="#F1F1F1" height="89.5977" id="read" rx="2.5" ry="2.5" style="stroke:#181818;stroke-width:0.5;" width="681.8604" x="998.07" y="395.09"/><ellipse cx="1309.0324" cy="415.4005" fill="#6A3100" rx="11" ry="11" style="stroke:#181818;stroke-width:1;"/><path d="M1304.7463,409.5075 L1307.6681,409.5075 L1309.1457,414.9445 L1310.6149,409.5075 L1313.5534,409.5075 L1313.5534,421.9005 L1311.445,421.9005 L1311.445,411.9728 L1310.1335,417.3932 L1308.1828,417.3932 L1306.8547,411.9728 L1306.8547,421.9005 L1304.7463,421.9005 Z " fill="#000000"/><text fill="#000000" font-family="sans-serif" font-size="12" font-style="italic" lengthAdjust="spacing" textLength="55.4355" x="1327.5324" y="411.6916">&#171;Module&#187;</text><text fill="#000000" font-family="sans-serif" font-size="14" lengthAdjust="spacing" textLength="30.0713" x="1340.2145" y="427.758">read</text><line style="stroke:#181818;stroke-width:0.5;" x1="999.07" x2="1678.9304" y1="435.7111" y2="435.7111"/><line style="stroke:#181818;stroke-width:1;" x1="999.07" x2="1678.9304" y1="443.7111" y2="443.7111"/><ellipse cx="1009.07" cy="457.4552" fill="#84BE84" rx="3" ry="3" style="stroke:#038048;stroke-width:1;"/><text fill="#000000" font-family="sans-serif" font-size="14" lengthAdjust="spacing" textLength="655.8604" x="1018.07" y="461.2463">get_overview_day(db, customday: Option&lt;String&gt;): Result&lt;Vec&lt;EntryRelatedData&gt;, ErrorType&gt;</text><text fill="#000000" font-family="sans-serif" font-size="14" lengthAdjust="spacing" textLength="4.4297" x="1018.07" y="477.7345">&#160;</text></g><!--class create--><g id="elem_create"><rect codeLine="24" fill="#F1F1F1" height="89.5977" id="create" rx="2.5" ry="2.5" style="stroke:#181818;stroke-width:0.5;" width="716.6279" x="1714.69" y="395.09"/><ellipse cx="2043.0362" cy="415.4005" fill="#6A3100" rx="11" ry="11" style="stroke:#181818;stroke-width:1;"/><path d="M2038.7501,409.5075 L2041.6719,409.5075 L2043.1495,414.9445 L2044.6187,409.5075 L2047.5572,409.5075 L2047.5572,421.9005 L2045.4488,421.9005 L2045.4488,411.9728 L2044.1373,417.3932 L2042.1866,417.3932 L2040.8585,411.9728 L2040.8585,421.9005 L2038.7501,421.9005 Z " fill="#000000"/><text fill="#000000" font-family="sans-serif" font-size="12" font-style="italic" lengthAdjust="spacing" textLength="55.4355" x="2061.5362" y="411.6916">&#171;Module&#187;</text><text fill="#000000" font-family="sans-serif" font-size="14" lengthAdjust="spacing" textLength="41.4668" x="2068.5206" y="427.758">create</text><line style="stroke:#181818;stroke-width:0.5;" x1="1715.69" x2="2430.3179" y1="435.7111" y2="435.7111"/><line style="stroke:#181818;stroke-width:1;" x1="1715.69" x2="2430.3179" y1="443.7111" y2="443.7111"/><ellipse cx="1725.69" cy="457.4552" fill="#84BE84" rx="3" ry="3" style="stroke:#038048;stroke-width:1;"/><text fill="#000000" font-family="sans-serif" font-size="14" lengthAdjust="spacing" textLength="547.1963" x="1734.69" y="461.2463">post_joinroom(db, entry_id: i32, user_name): Result&lt;ResponseType, ErrorType&gt;</text><ellipse cx="1725.69" cy="473.9435" fill="#84BE84" rx="3" ry="3" style="stroke:#038048;stroke-width:1;"/><text fill="#000000" font-family="sans-serif" font-size="14" lengthAdjust="spacing" textLength="690.6279" x="1734.69" y="477.7345">post_joinrooms(db, room_id: i32, days: Vec&lt;String&gt;, user_name): Result&lt;ResponseType, ErrorType&gt;</text></g><!--class delete--><g id="elem_delete"><rect codeLine="29" fill="#F1F1F1" height="73.1094" id="delete" rx="2.5" ry="2.5" style="stroke:#181818;stroke-width:0.5;" width="514.0518" x="2465.97" y="403.33"/><ellipse cx="2693.0281" cy="423.6405" fill="#6A3100" rx="11" ry="11" style="stroke:#181818;stroke-width:1;"/><path d="M2688.742,417.7475 L2691.6638,417.7475 L2693.1414,423.1845 L2694.6106,417.7475 L2697.5491,417.7475 L2697.5491,430.1405 L2695.4407,430.1405 L2695.4407,420.2128 L2694.1292,425.6332 L2692.1785,425.6332 L2690.8504,420.2128 L2690.8504,430.1405 L2688.742,430.1405 Z " fill="#000000"/><text fill="#000000" font-family="sans-serif" font-size="12" font-style="italic" lengthAdjust="spacing" textLength="55.4355" x="2711.5281" y="419.9316">&#171;Module&#187;</text><text fill="#000000" font-family="sans-serif" font-size="14" lengthAdjust="spacing" textLength="41.4941" x="2718.4988" y="435.998">delete</text><line style="stroke:#181818;stroke-width:0.5;" x1="2466.97" x2="2979.0218" y1="443.9511" y2="443.9511"/><line style="stroke:#181818;stroke-width:1;" x1="2466.97" x2="2979.0218" y1="451.9511" y2="451.9511"/><ellipse cx="2476.97" cy="465.6952" fill="#84BE84" rx="3" ry="3" style="stroke:#038048;stroke-width:1;"/><text fill="#000000" font-family="sans-serif" font-size="14" lengthAdjust="spacing" textLength="488.0518" x="2485.97" y="469.4863">delete_participant(db, entry_id: i32): Result&lt;ResponseType, ErrorType&gt;</text></g><!--class BeamBackendConnector--><g id="elem_BeamBackendConnector"><rect codeLine="34" fill="#F1F1F1" height="73.1094" id="BeamBackendConnector" rx="2.5" ry="2.5" style="stroke:#181818;stroke-width:0.5;" width="298.8906" x="1556.55" y="116"/><ellipse cx="1620.1003" cy="136.3105" fill="#FF7700" rx="11" ry="11" style="stroke:#181818;stroke-width:1;"/><path d="M1619.8337,137.3735 Q1617.9826,136.668 1617.3269,135.8918 Q1616.6711,135.1157 1616.6711,133.8042 Q1616.6711,132.1191 1617.7502,131.1563 Q1618.8293,130.1934 1620.7136,130.1934 Q1621.5686,130.1934 1622.4235,130.3884 Q1623.2785,130.5835 1624.1169,130.9653 L1624.1169,133.356 Q1623.3283,132.7998 1622.5148,132.5093 Q1621.7014,132.2188 1620.9045,132.2188 Q1620.0163,132.2188 1619.5432,132.5757 Q1619.07,132.9326 1619.07,133.5967 Q1619.07,134.1113 1619.4145,134.4475 Q1619.759,134.7837 1620.8547,135.1904 L1621.9089,135.5889 Q1623.403,136.1367 1624.1086,137.0415 Q1624.8142,137.9463 1624.8142,139.3242 Q1624.8142,141.2002 1623.706,142.1257 Q1622.5979,143.0513 1620.3566,143.0513 Q1619.4353,143.0513 1618.5097,142.8313 Q1617.5842,142.6113 1616.7209,142.1797 L1616.7209,139.6479 Q1617.7004,140.3452 1618.6176,140.6855 Q1619.5349,141.0259 1620.4313,141.0259 Q1621.3361,141.0259 1621.8342,140.615 Q1622.3322,140.2041 1622.3322,139.4653 Q1622.3322,138.9092 1622.0002,138.49 Q1621.6682,138.0708 1621.0373,137.8301 Z " fill="#000000"/><text fill="#000000" font-family="sans-serif" font-size="12" font-style="italic" lengthAdjust="spacing" textLength="46.5176" x="1698.9865" y="132.6016">&#171;Struct&#187;</text><text fill="#000000" font-family="sans-serif" font-size="14" lengthAdjust="spacing" textLength="163.29" x="1640.6003" y="148.668">BeamBackendConnector</text><line style="stroke:#181818;stroke-width:0.5;" x1="1557.55" x2="1854.4406" y1="156.6211" y2="156.6211"/><line style="stroke:#181818;stroke-width:1;" x1="1557.55" x2="1854.4406" y1="164.6211" y2="164.6211"/><ellipse cx="1567.55" cy="178.3652" fill="#84BE84" rx="3" ry="3" style="stroke:#038048;stroke-width:1;"/><text fill="#000000" font-family="sans-serif" font-size="14" lengthAdjust="spacing" textLength="272.8906" x="1576.55" y="182.1563">process_task(db: &amp;DatabaseConnection)</text></g><!--class mrbs_area--><g id="elem_mrbs_area"><rect codeLine="42" fill="#F1F1F1" height="56.6211" id="mrbs_area" rx="2.5" ry="2.5" style="stroke:#181818;stroke-width:0.5;" width="102.7383" x="1287.63" y="617.42"/><ellipse cx="1302.63" cy="637.7305" fill="#6A3100" rx="11" ry="11" style="stroke:#181818;stroke-width:1;"/><path d="M1298.3439,631.8375 L1301.2657,631.8375 L1302.7433,637.2745 L1304.2125,631.8375 L1307.151,631.8375 L1307.151,644.2305 L1305.0426,644.2305 L1305.0426,634.3028 L1303.7311,639.7232 L1301.7804,639.7232 L1300.4523,634.3028 L1300.4523,644.2305 L1298.3439,644.2305 Z " fill="#000000"/><text fill="#000000" font-family="sans-serif" font-size="12" font-style="italic" lengthAdjust="spacing" textLength="55.4355" x="1324.2814" y="634.0216">&#171;Module&#187;</text><text fill="#000000" font-family="sans-serif" font-size="14" lengthAdjust="spacing" textLength="70.7383" x="1316.63" y="650.088">mrbs_area</text><line style="stroke:#181818;stroke-width:0.5;" x1="1288.63" x2="1389.3683" y1="658.0411" y2="658.0411"/><line style="stroke:#181818;stroke-width:0.5;" x1="1288.63" x2="1389.3683" y1="666.0411" y2="666.0411"/></g><!--class mrbs_room--><g id="elem_mrbs_room"><rect codeLine="43" fill="#F1F1F1" height="56.6211" id="mrbs_room" rx="2.5" ry="2.5" style="stroke:#181818;stroke-width:0.5;" width="109.7451" x="1425.13" y="617.42"/><ellipse cx="1440.13" cy="637.7305" fill="#6A3100" rx="11" ry="11" style="stroke:#181818;stroke-width:1;"/><path d="M1435.8439,631.8375 L1438.7657,631.8375 L1440.2433,637.2745 L1441.7125,631.8375 L1444.651,631.8375 L1444.651,644.2305 L1442.5426,644.2305 L1442.5426,634.3028 L1441.2311,639.7232 L1439.2804,639.7232 L1437.9523,634.3028 L1437.9523,644.2305 L1435.8439,644.2305 Z " fill="#000000"/><text fill="#000000" font-family="sans-serif" font-size="12" font-style="italic" lengthAdjust="spacing" textLength="55.4355" x="1465.2848" y="634.0216">&#171;Module&#187;</text><text fill="#000000" font-family="sans-serif" font-size="14" lengthAdjust="spacing" textLength="77.7451" x="1454.13" y="650.088">mrbs_room</text><line style="stroke:#181818;stroke-width:0.5;" x1="1426.13" x2="1533.8751" y1="658.0411" y2="658.0411"/><line style="stroke:#181818;stroke-width:0.5;" x1="1426.13" x2="1533.8751" y1="666.0411" y2="666.0411"/></g><!--class mrbs_entry--><g id="elem_mrbs_entry"><rect codeLine="44" fill="#F1F1F1" height="56.6211" id="mrbs_entry" rx="2.5" ry="2.5" style="stroke:#181818;stroke-width:0.5;" width="108.5146" x="1569.74" y="617.42"/><ellipse cx="1584.74" cy="637.7305" fill="#6A3100" rx="11" ry="11" style="stroke:#181818;stroke-width:1;"/><path d="M1580.4539,631.8375 L1583.3757,631.8375 L1584.8533,637.2745 L1586.3225,631.8375 L1589.261,631.8375 L1589.261,644.2305 L1587.1526,644.2305 L1587.1526,634.3028 L1585.8411,639.7232 L1583.8904,639.7232 L1582.5623,634.3028 L1582.5623,644.2305 L1580.4539,644.2305 Z " fill="#000000"/><text fill="#000000" font-family="sans-serif" font-size="12" font-style="italic" lengthAdjust="spacing" textLength="55.4355" x="1609.2796" y="634.0216">&#171;Module&#187;</text><text fill="#000000" font-family="sans-serif" font-size="14" lengthAdjust="spacing" textLength="76.5146" x="1598.74" y="650.088">mrbs_entry</text><line style="stroke:#181818;stroke-width:0.5;" x1="1570.74" x2="1677.2546" y1="658.0411" y2="658.0411"/><line style="stroke:#181818;stroke-width:0.5;" x1="1570.74" x2="1677.2546" y1="666.0411" y2="666.0411"/></g><!--class mrbs_participants--><g id="elem_mrbs_participants"><rect codeLine="45" fill="#F1F1F1" height="56.6211" id="mrbs_participants" rx="2.5" ry="2.5" style="stroke:#181818;stroke-width:0.5;" width="154.124" x="1712.94" y="617.42"/><ellipse cx="1727.94" cy="637.7305" fill="#6A3100" rx="11" ry="11" style="stroke:#181818;stroke-width:1;"/><path d="M1723.6539,631.8375 L1726.5757,631.8375 L1728.0533,637.2745 L1729.5225,631.8375 L1732.461,631.8375 L1732.461,644.2305 L1730.3526,644.2305 L1730.3526,634.3028 L1729.0411,639.7232 L1727.0904,639.7232 L1725.7623,634.3028 L1725.7623,644.2305 L1723.6539,644.2305 Z " fill="#000000"/><text fill="#000000" font-family="sans-serif" font-size="12" font-style="italic" lengthAdjust="spacing" textLength="55.4355" x="1775.2842" y="634.0216">&#171;Module&#187;</text><text fill="#000000" font-family="sans-serif" font-size="14" lengthAdjust="spacing" textLength="122.124" x="1741.94" y="650.088">mrbs_participants</text><line style="stroke:#181818;stroke-width:0.5;" x1="1713.94" x2="1866.064" y1="658.0411" y2="658.0411"/><line style="stroke:#181818;stroke-width:0.5;" x1="1713.94" x2="1866.064" y1="666.0411" y2="666.0411"/></g><!--class servieces--><g id="elem_servieces"><rect codeLine="1" fill="#F1F1F1" height="89.5977" id="servieces" rx="2.5" ry="2.5" style="stroke:#181818;stroke-width:0.5;" width="213.8994" x="375.05" y="107.76"/><ellipse cx="446.8171" cy="128.0705" fill="#6A3100" rx="11" ry="11" style="stroke:#181818;stroke-width:1;"/><path d="M442.531,122.1775 L445.4528,122.1775 L446.9304,127.6145 L448.3996,122.1775 L451.3381,122.1775 L451.3381,134.5705 L449.2297,134.5705 L449.2297,124.6428 L447.9182,130.0632 L445.9675,130.0632 L444.6394,124.6428 L444.6394,134.5705 L442.531,134.5705 Z " fill="#000000"/><text fill="#000000" font-family="sans-serif" font-size="12" font-style="italic" lengthAdjust="spacing" textLength="55.4355" x="470.5319" y="124.3616">&#171;Module&#187;</text><text fill="#000000" font-family="sans-serif" font-size="14" lengthAdjust="spacing" textLength="61.8652" x="467.3171" y="140.428">servieces</text><line style="stroke:#181818;stroke-width:0.5;" x1="376.05" x2="587.9494" y1="148.3811" y2="148.3811"/><line style="stroke:#181818;stroke-width:1;" x1="376.05" x2="587.9494" y1="156.3811" y2="156.3811"/><ellipse cx="386.05" cy="170.1252" fill="#84BE84" rx="3" ry="3" style="stroke:#038048;stroke-width:1;"/><text fill="#000000" font-family="sans-serif" font-size="14" lengthAdjust="spacing" textLength="187.8994" x="395.05" y="173.9163">front_public_route(): Router</text><ellipse cx="386.05" cy="186.6135" fill="#84BE84" rx="3" ry="3" style="stroke:#038048;stroke-width:1;"/><text fill="#000000" font-family="sans-serif" font-size="14" lengthAdjust="spacing" textLength="183.3262" x="395.05" y="190.4045">back_token_route(): Router</text></g><!--link BeamBackendConnector to read--><g id="link_BeamBackendConnector_read"><path codeLine="49" d="M1659.89,189.41 C1592.8,241.57 1468.37,338.31 1395.74,394.77 " fill="none" id="BeamBackendConnector-read" style="stroke:#181818;stroke-width:1;"/><text fill="#000000" font-family="sans-serif" font-size="13" lengthAdjust="spacing" textLength="21.9375" x="1608.57" y="240.9284">use</text></g><!--link BeamBackendConnector to create--><g id="link_BeamBackendConnector_create"><path codeLine="50" d="M1752.11,189.41 C1819.2,241.57 1943.63,338.31 2016.26,394.77 " fill="none" id="BeamBackendConnector-create" style="stroke:#181818;stroke-width:1;"/><text fill="#000000" font-family="sans-serif" font-size="13" lengthAdjust="spacing" textLength="21.9375" x="1815.44" y="240.9284">use</text></g><!--link BeamBackendConnector to delete--><g id="link_BeamBackendConnector_delete"><path codeLine="51" d="M1855.7,165.24 C2040.63,181.1 2343.7,212.12 2449,252.36 C2541.19,287.58 2632.83,359.32 2683.28,402.85 " fill="none" id="BeamBackendConnector-delete" style="stroke:#181818;stroke-width:1;"/><text fill="#000000" font-family="sans-serif" font-size="13" lengthAdjust="spacing" textLength="21.9375" x="2417.55" y="240.9284">use</text></g><!--link read to mrbs_area--><g id="link_read_mrbs_area"><path codeLine="52" d="M1339,485.12 C1339,525.28 1339,583.26 1339,617.17 " fill="none" id="read-mrbs_area" style="stroke:#181818;stroke-width:1;"/></g><!--link read to mrbs_room--><g id="link_read_mrbs_room"><path codeLine="53" d="M1369.59,485.12 C1397.38,525.28 1437.48,583.26 1460.93,617.17 " fill="none" id="read-mrbs_room" style="stroke:#181818;stroke-width:1;"/></g><!--link read to mrbs_entry--><g id="link_read_mrbs_entry"><path codeLine="54" d="M1418.34,485.13 C1459.61,509.49 1510.07,541.42 1552,574.42 C1568.34,587.28 1585.04,603.37 1598.25,616.92 " fill="none" id="read-mrbs_entry" style="stroke:#181818;stroke-width:1;"/></g><!--link read to mrbs_participants--><g id="link_read_mrbs_participants"><path codeLine="55" d="M1485.56,485.18 C1551.77,507.81 1629.8,538.25 1696,574.42 C1718,586.44 1740.56,603.14 1758.06,617.25 " fill="none" id="read-mrbs_participants" style="stroke:#181818;stroke-width:1;"/></g><!--link create to mrbs_participants--><g id="link_create_mrbs_participants"><path codeLine="56" d="M2011.59,485.12 C1955.83,525.28 1875.33,583.26 1828.27,617.17 " fill="none" id="create-mrbs_participants" style="stroke:#181818;stroke-width:1;"/></g><!--link create to mrbs_entry--><g id="link_create_mrbs_entry"><path codeLine="57" d="M1897.75,485.09 C1831.27,506.3 1756.77,535.69 1695,574.42 C1676.78,585.85 1659.55,602.7 1646.63,617.04 " fill="none" id="create-mrbs_entry" style="stroke:#181818;stroke-width:1;"/></g><!--link delete to mrbs_participants--><g id="link_delete_mrbs_participants"><path codeLine="58" d="M2653.07,476.87 C2598.79,503.25 2520.93,537.75 2449,557.42 C2243.61,613.58 1991.98,634.14 1867.44,641.24 " fill="none" id="delete-mrbs_participants" style="stroke:#181818;stroke-width:1;"/></g><!--link servieces to BeamRequestTask--><g id="link_servieces_BeamRequestTask"><path codeLine="59" d="M482,197.83 C482,243.85 482,316.5 482,370.03 " fill="none" id="servieces-BeamRequestTask" style="stroke:#181818;stroke-width:1;"/><text fill="#000000" font-family="sans-serif" font-size="13" lengthAdjust="spacing" textLength="21.9375" x="483" y="240.9284">use</text></g><!--link BeamBackendConnector to BeamRequestTask--><g id="link_BeamBackendConnector_BeamRequestTask"><path codeLine="60" d="M1556.48,155.17 C1328.33,159.32 904.91,174.18 764,227.36 C681.98,258.31 603.45,320.86 550.19,369.95 " fill="none" id="BeamBackendConnector-BeamRequestTask" style="stroke:#181818;stroke-width:1;stroke-dasharray:7.0,7.0;"/><text fill="#000000" font-family="sans-serif" font-size="13" lengthAdjust="spacing" textLength="216.0234" x="765" y="240.9284">communication over Samply.Beam</text></g><!--SRC=[fLLjQzim4FxkNo4Oh0vDGhV22iOOrgqT3Cgs9EohKEHRfiMML4dk22F_lIVPZfsNXcJL1rlMdUwUv_Jep0jcBR5WdWHmi2HDIVmm96y-VBn-TtKr80yghmh8Cl8l8ZX6e_2w9B-CaexgQbu8Jesg7CI3X4pyn936PyxuaZgr1Bdh4QqZZKQs018iFc-ToMPPdQcrCoqeLr82TwrJw-873_XlWPKJUAp0kXcpoy1YYYpkxszkF8kfCnLt6nRjQDYquv8OO3bLJw4QVsdELl6F2imgVlHF_uqCmahw1TnCb9YFbJhplC1MXKk_MYNJdy3JE-dCQW85Sv1_PevbsP04uvqnoinM6ckwa_oF4j8eLSRVcViTYnoZ-baghj_lPi2vLj92Y7DoO5j71W-DRiUlOyIQhGh5l6L314idv29x7O8S2d10DJDESA6PT2z3ULMY1JXQePhZbe9rUPBOm2596YwRFUkeVdPgNA0STL-CZM9gcNbvd7n3F9GjAUNp8U6LTQh4huHyqquWm0PJn_gWUeQaunpYHnt-6Xj7S0vEHgULTNIZE0-jFOk4u2aCYQyYbQo43bd_AFO0xOIq8QQVTI6Hjar8JrJdP-aphaLrCkC36joZVHQALZEboWyePhivtQ8loFnJtSYK-UyEfOt2DcsfmpQ7-1ForkjZpYmqiL5JWps1znIEV8KJs77xmYxDt5A62ZfIpVMklp_SS_n3fS_Pq3igUtGV4houG66PkP1v9HSaEbZpqIZSuCIhxaMF-XuTzscKLpk5fe2Bcnfkh_WgRQ-4EcmlzPb6pKq-nLQ7Qk0StD3zsT6yyviyGd8ytdVcgYmhAJZp6YE-jP4f_lsArTYxFWC0]--></g></svg>