<svg xmlns="http://www.w3.org/2000/svg" xmlns:xlink="http://www.w3.org/1999/xlink" contentStyleType="text/css" height="335px" preserveAspectRatio="none" style="width:729px;height:335px;background:#FFFFFF;" version="1.1" viewBox="0 0 729 335" width="729px" zoomAndPan="magnify"><defs/><g><rect fill="#F1E5E5" height="254.3262" style="stroke:none;stroke-width:1;" width="32" x="80" y="39"/><rect fill="#F1E5E5" height="254.3262" style="stroke:none;stroke-width:1;" width="32" x="192" y="39"/><rect fill="#F1E5E5" height="254.3262" style="stroke:none;stroke-width:1;" width="16" x="256" y="39"/><rect fill="#F1E5E5" height="254.3262" style="stroke:none;stroke-width:1;" width="32" x="304" y="39"/><rect fill="#F1E5E5" height="254.3262" style="stroke:none;stroke-width:1;" width="16" x="384" y="39"/><rect fill="#F1E5E5" height="254.3262" style="stroke:none;stroke-width:1;" width="32" x="416" y="39"/><rect fill="#F1E5E5" height="254.3262" style="stroke:none;stroke-width:1;" width="48" x="528" y="39"/><text fill="#000000" font-family="sans-serif" font-size="10" lengthAdjust="spacing" textLength="14.7559" x="0.6221" y="23.668">Mo</text><text fill="#000000" font-family="sans-serif" font-size="10" lengthAdjust="spacing" textLength="12.5293" x="17.7354" y="23.668">Tu</text><text fill="#000000" font-family="sans-serif" font-size="10" lengthAdjust="spacing" textLength="14.126" x="32.937" y="23.668">We</text><text fill="#000000" font-family="sans-serif" font-size="10" lengthAdjust="spacing" textLength="12.5293" x="49.7354" y="23.668">Th</text><text fill="#000000" font-family="sans-serif" font-size="10" lengthAdjust="spacing" textLength="9.4531" x="67.2734" y="23.668">Fr</text><text fill="#989898" font-family="sans-serif" font-size="10" lengthAdjust="spacing" textLength="10.9082" x="82.5459" y="23.668">Sa</text><text fill="#989898" font-family="sans-serif" font-size="10" lengthAdjust="spacing" textLength="11.5918" x="98.2041" y="23.668">Su</text><text fill="#000000" font-family="sans-serif" font-size="10" lengthAdjust="spacing" textLength="14.7559" x="112.6221" y="23.668">Mo</text><text fill="#000000" font-family="sans-serif" font-size="10" lengthAdjust="spacing" textLength="12.5293" x="129.7354" y="23.668">Tu</text><text fill="#000000" font-family="sans-serif" font-size="10" lengthAdjust="spacing" textLength="14.126" x="144.937" y="23.668">We</text><text fill="#000000" font-family="sans-serif" font-size="10" lengthAdjust="spacing" textLength="12.5293" x="161.7354" y="23.668">Th</text><text fill="#000000" font-family="sans-serif" font-size="10" lengthAdjust="spacing" textLength="9.4531" x="179.2734" y="23.668">Fr</text><text fill="#989898" font-family="sans-serif" font-size="10" lengthAdjust="spacing" textLength="10.9082" x="194.5459" y="23.668">Sa</text><text fill="#989898" font-family="sans-serif" font-size="10" lengthAdjust="spacing" textLength="11.5918" x="210.2041" y="23.668">Su</text><text fill="#000000" font-family="sans-serif" font-size="10" lengthAdjust="spacing" textLength="14.7559" x="224.6221" y="23.668">Mo</text><text fill="#000000" font-family="sans-serif" font-size="10" lengthAdjust="spacing" textLength="12.5293" x="241.7354" y="23.668">Tu</text><text fill="#989898" font-family="sans-serif" font-size="10" lengthAdjust="spacing" textLength="14.126" x="256.937" y="23.668">We</text><text fill="#000000" font-family="sans-serif" font-size="10" lengthAdjust="spacing" textLength="12.5293" x="273.7354" y="23.668">Th</text><text fill="#000000" font-family="sans-serif" font-size="10" lengthAdjust="spacing" textLength="9.4531" x="291.2734" y="23.668">Fr</text><text fill="#989898" font-family="sans-serif" font-size="10" lengthAdjust="spacing" textLength="10.9082" x="306.5459" y="23.668">Sa</text><text fill="#989898" font-family="sans-serif" font-size="10" lengthAdjust="spacing" textLength="11.5918" x="322.2041" y="23.668">Su</text><text fill="#000000" font-family="sans-serif" font-size="10" lengthAdjust="spacing" textLength="14.7559" x="336.6221" y="23.668">Mo</text><text fill="#000000" font-family="sans-serif" font-size="10" lengthAdjust="spacing" textLength="12.5293" x="353.7354" y="23.668">Tu</text><text fill="#000000" font-family="sans-serif" font-size="10" lengthAdjust="spacing" textLength="14.126" x="368.937" y="23.668">We</text><text fill="#989898" font-family="sans-serif" font-size="10" lengthAdjust="spacing" textLength="12.5293" x="385.7354" y="23.668">Th</text><text fill="#000000" font-family="sans-serif" font-size="10" lengthAdjust="spacing" textLength="9.4531" x="403.2734" y="23.668">Fr</text><text fill="#989898" font-family="sans-serif" font-size="10" lengthAdjust="spacing" textLength="10.9082" x="418.5459" y="23.668">Sa</text><text fill="#989898" font-family="sans-serif" font-size="10" lengthAdjust="spacing" textLength="11.5918" x="434.2041" y="23.668">Su</text><text fill="#000000" font-family="sans-serif" font-size="10" lengthAdjust="spacing" textLength="14.7559" x="448.6221" y="23.668">Mo</text><text fill="#000000" font-family="sans-serif" font-size="10" lengthAdjust="spacing" textLength="12.5293" x="465.7354" y="23.668">Tu</text><text fill="#000000" font-family="sans-serif" font-size="10" lengthAdjust="spacing" textLength="14.126" x="480.937" y="23.668">We</text><text fill="#000000" font-family="sans-serif" font-size="10" lengthAdjust="spacing" textLength="12.5293" x="497.7354" y="23.668">Th</text><text fill="#000000" font-family="sans-serif" font-size="10" lengthAdjust="spacing" textLength="9.4531" x="515.2734" y="23.668">Fr</text><text fill="#989898" font-family="sans-serif" font-size="10" lengthAdjust="spacing" textLength="10.9082" x="530.5459" y="23.668">Sa</text><text fill="#989898" font-family="sans-serif" font-size="10" lengthAdjust="spacing" textLength="11.5918" x="546.2041" y="23.668">Su</text><text fill="#989898" font-family="sans-serif" font-size="10" lengthAdjust="spacing" textLength="14.7559" x="560.6221" y="23.668">Mo</text><text fill="#000000" font-family="sans-serif" font-size="10" lengthAdjust="spacing" textLength="12.5293" x="577.7354" y="23.668">Tu</text><text fill="#000000" font-family="sans-serif" font-size="10" lengthAdjust="spacing" textLength="14.126" x="592.937" y="23.668">We</text><text fill="#000000" font-family="sans-serif" font-size="10" lengthAdjust="spacing" textLength="12.5293" x="609.7354" y="23.668">Th</text><text fill="#000000" font-family="sans-serif" font-size="10" lengthAdjust="spacing" textLength="9.4531" x="627.2734" y="23.668">Fr</text><text fill="#000000" font-family="sans-serif" font-size="10" lengthAdjust="spacing" textLength="12.6465" x="1.6768" y="35.668">15</text><text fill="#000000" font-family="sans-serif" font-size="10" lengthAdjust="spacing" textLength="12.6465" x="17.6768" y="35.668">16</text><text fill="#000000" font-family="sans-serif" font-size="10" lengthAdjust="spacing" textLength="12.6465" x="33.6768" y="35.668">17</text><text fill="#000000" font-family="sans-serif" font-size="10" lengthAdjust="spacing" textLength="12.6465" x="49.6768" y="35.668">18</text><text fill="#000000" font-family="sans-serif" font-size="10" lengthAdjust="spacing" textLength="12.6465" x="65.6768" y="35.668">19</text><text fill="#989898" font-family="sans-serif" font-size="10" lengthAdjust="spacing" textLength="12.6465" x="81.6768" y="35.668">20</text><text fill="#989898" font-family="sans-serif" font-size="10" lengthAdjust="spacing" textLength="12.6465" x="97.6768" y="35.668">21</text><text fill="#000000" font-family="sans-serif" font-size="10" lengthAdjust="spacing" textLength="12.6465" x="113.6768" y="35.668">22</text><text fill="#000000" font-family="sans-serif" font-size="10" lengthAdjust="spacing" textLength="12.6465" x="129.6768" y="35.668">23</text><text fill="#000000" font-family="sans-serif" font-size="10" lengthAdjust="spacing" textLength="12.6465" x="145.6768" y="35.668">24</text><text fill="#000000" font-family="sans-serif" font-size="10" lengthAdjust="spacing" textLength="12.6465" x="161.6768" y="35.668">25</text><text fill="#000000" font-family="sans-serif" font-size="10" lengthAdjust="spacing" textLength="12.6465" x="177.6768" y="35.668">26</text><text fill="#989898" font-family="sans-serif" font-size="10" lengthAdjust="spacing" textLength="12.6465" x="193.6768" y="35.668">27</text><text fill="#989898" font-family="sans-serif" font-size="10" lengthAdjust="spacing" textLength="12.6465" x="209.6768" y="35.668">28</text><text fill="#000000" font-family="sans-serif" font-size="10" lengthAdjust="spacing" textLength="12.6465" x="225.6768" y="35.668">29</text><text fill="#000000" font-family="sans-serif" font-size="10" lengthAdjust="spacing" textLength="12.6465" x="241.6768" y="35.668">30</text><text fill="#989898" font-family="sans-serif" font-size="10" lengthAdjust="spacing" textLength="6.3232" x="260.8384" y="35.668">1</text><text fill="#000000" font-family="sans-serif" font-size="10" lengthAdjust="spacing" textLength="6.3232" x="276.8384" y="35.668">2</text><text fill="#000000" font-family="sans-serif" font-size="10" lengthAdjust="spacing" textLength="6.3232" x="292.8384" y="35.668">3</text><text fill="#989898" font-family="sans-serif" font-size="10" lengthAdjust="spacing" textLength="6.3232" x="308.8384" y="35.668">4</text><text fill="#989898" font-family="sans-serif" font-size="10" lengthAdjust="spacing" textLength="6.3232" x="324.8384" y="35.668">5</text><text fill="#000000" font-family="sans-serif" font-size="10" lengthAdjust="spacing" textLength="6.3232" x="340.8384" y="35.668">6</text><text fill="#000000" font-family="sans-serif" font-size="10" lengthAdjust="spacing" textLength="6.3232" x="356.8384" y="35.668">7</text><text fill="#000000" font-family="sans-serif" font-size="10" lengthAdjust="spacing" textLength="6.3232" x="372.8384" y="35.668">8</text><text fill="#989898" font-family="sans-serif" font-size="10" lengthAdjust="spacing" textLength="6.3232" x="388.8384" y="35.668">9</text><text fill="#000000" font-family="sans-serif" font-size="10" lengthAdjust="spacing" textLength="12.6465" x="401.6768" y="35.668">10</text><text fill="#989898" font-family="sans-serif" font-size="10" lengthAdjust="spacing" textLength="12.6465" x="417.6768" y="35.668">11</text><text fill="#989898" font-family="sans-serif" font-size="10" lengthAdjust="spacing" textLength="12.6465" x="433.6768" y="35.668">12</text><text fill="#000000" font-family="sans-serif" font-size="10" lengthAdjust="spacing" textLength="12.6465" x="449.6768" y="35.668">13</text><text fill="#000000" font-family="sans-serif" font-size="10" lengthAdjust="spacing" textLength="12.6465" x="465.6768" y="35.668">14</text><text fill="#000000" font-family="sans-serif" font-size="10" lengthAdjust="spacing" textLength="12.6465" x="481.6768" y="35.668">15</text><text fill="#000000" font-family="sans-serif" font-size="10" lengthAdjust="spacing" textLength="12.6465" x="497.6768" y="35.668">16</text><text fill="#000000" font-family="sans-serif" font-size="10" lengthAdjust="spacing" textLength="12.6465" x="513.6768" y="35.668">17</text><text fill="#989898" font-family="sans-serif" font-size="10" lengthAdjust="spacing" textLength="12.6465" x="529.6768" y="35.668">18</text><text fill="#989898" font-family="sans-serif" font-size="10" lengthAdjust="spacing" textLength="12.6465" x="545.6768" y="35.668">19</text><text fill="#989898" font-family="sans-serif" font-size="10" lengthAdjust="spacing" textLength="12.6465" x="561.6768" y="35.668">20</text><text fill="#000000" font-family="sans-serif" font-size="10" lengthAdjust="spacing" textLength="12.6465" x="577.6768" y="35.668">21</text><text fill="#000000" font-family="sans-serif" font-size="10" lengthAdjust="spacing" textLength="12.6465" x="593.6768" y="35.668">22</text><text fill="#000000" font-family="sans-serif" font-size="10" lengthAdjust="spacing" textLength="12.6465" x="609.6768" y="35.668">23</text><text fill="#000000" font-family="sans-serif" font-size="10" lengthAdjust="spacing" textLength="12.6465" x="625.6768" y="35.668">24</text><text fill="#000000" font-family="sans-serif" font-size="12" font-weight="bold" lengthAdjust="spacing" textLength="65.666" x="95.167" y="11.6016">April 2024</text><text fill="#000000" font-family="sans-serif" font-size="12" font-weight="bold" lengthAdjust="spacing" textLength="60.5625" x="417.7188" y="11.6016">May 2024</text><line style="stroke:#C0C0C0;stroke-width:1;" x1="0" x2="0" y1="39" y2="293.3262"/><line style="stroke:#C0C0C0;stroke-width:1;" x1="16" x2="16" y1="39" y2="293.3262"/><line style="stroke:#C0C0C0;stroke-width:1;" x1="32" x2="32" y1="39" y2="293.3262"/><line style="stroke:#C0C0C0;stroke-width:1;" x1="48" x2="48" y1="39" y2="293.3262"/><line style="stroke:#C0C0C0;stroke-width:1;" x1="64" x2="64" y1="39" y2="293.3262"/><line style="stroke:#C0C0C0;stroke-width:1;" x1="80" x2="80" y1="39" y2="293.3262"/><line style="stroke:#C0C0C0;stroke-width:1;" x1="96" x2="96" y1="39" y2="293.3262"/><line style="stroke:#C0C0C0;stroke-width:1;" x1="112" x2="112" y1="39" y2="293.3262"/><line style="stroke:#C0C0C0;stroke-width:1;" x1="128" x2="128" y1="39" y2="293.3262"/><line style="stroke:#C0C0C0;stroke-width:1;" x1="144" x2="144" y1="39" y2="293.3262"/><line style="stroke:#C0C0C0;stroke-width:1;" x1="160" x2="160" y1="39" y2="293.3262"/><line style="stroke:#C0C0C0;stroke-width:1;" x1="176" x2="176" y1="39" y2="293.3262"/><line style="stroke:#C0C0C0;stroke-width:1;" x1="192" x2="192" y1="39" y2="293.3262"/><line style="stroke:#C0C0C0;stroke-width:1;" x1="208" x2="208" y1="39" y2="293.3262"/><line style="stroke:#C0C0C0;stroke-width:1;" x1="224" x2="224" y1="39" y2="293.3262"/><line style="stroke:#C0C0C0;stroke-width:1;" x1="240" x2="240" y1="39" y2="293.3262"/><line style="stroke:#C0C0C0;stroke-width:1;" x1="256" x2="256" y1="39" y2="293.3262"/><line style="stroke:#C0C0C0;stroke-width:1;" x1="272" x2="272" y1="39" y2="293.3262"/><line style="stroke:#C0C0C0;stroke-width:1;" x1="288" x2="288" y1="39" y2="293.3262"/><line style="stroke:#C0C0C0;stroke-width:1;" x1="304" x2="304" y1="39" y2="293.3262"/><line style="stroke:#C0C0C0;stroke-width:1;" x1="320" x2="320" y1="39" y2="293.3262"/><line style="stroke:#C0C0C0;stroke-width:1;" x1="336" x2="336" y1="39" y2="293.3262"/><line style="stroke:#C0C0C0;stroke-width:1;" x1="352" x2="352" y1="39" y2="293.3262"/><line style="stroke:#C0C0C0;stroke-width:1;" x1="368" x2="368" y1="39" y2="293.3262"/><line style="stroke:#C0C0C0;stroke-width:1;" x1="384" x2="384" y1="39" y2="293.3262"/><line style="stroke:#C0C0C0;stroke-width:1;" x1="400" x2="400" y1="39" y2="293.3262"/><line style="stroke:#C0C0C0;stroke-width:1;" x1="416" x2="416" y1="39" y2="293.3262"/><line style="stroke:#C0C0C0;stroke-width:1;" x1="432" x2="432" y1="39" y2="293.3262"/><line style="stroke:#C0C0C0;stroke-width:1;" x1="448" x2="448" y1="39" y2="293.3262"/><line style="stroke:#C0C0C0;stroke-width:1;" x1="464" x2="464" y1="39" y2="293.3262"/><line style="stroke:#C0C0C0;stroke-width:1;" x1="480" x2="480" y1="39" y2="293.3262"/><line style="stroke:#C0C0C0;stroke-width:1;" x1="496" x2="496" y1="39" y2="293.3262"/><line style="stroke:#C0C0C0;stroke-width:1;" x1="512" x2="512" y1="39" y2="293.3262"/><line style="stroke:#C0C0C0;stroke-width:1;" x1="528" x2="528" y1="39" y2="293.3262"/><line style="stroke:#C0C0C0;stroke-width:1;" x1="544" x2="544" y1="39" y2="293.3262"/><line style="stroke:#C0C0C0;stroke-width:1;" x1="560" x2="560" y1="39" y2="293.3262"/><line style="stroke:#C0C0C0;stroke-width:1;" x1="576" x2="576" y1="39" y2="293.3262"/><line style="stroke:#C0C0C0;stroke-width:1;" x1="592" x2="592" y1="39" y2="293.3262"/><line style="stroke:#C0C0C0;stroke-width:1;" x1="608" x2="608" y1="39" y2="293.3262"/><line style="stroke:#C0C0C0;stroke-width:1;" x1="624" x2="624" y1="39" y2="293.3262"/><line style="stroke:#C0C0C0;stroke-width:1;" x1="640" x2="640" y1="39" y2="293.3262"/><line style="stroke:#C0C0C0;stroke-width:1;" x1="0" x2="640" y1="39" y2="39"/><line style="stroke:#C0C0C0;stroke-width:1;" x1="0" x2="640" y1="293.3262" y2="293.3262"/><line style="stroke:#181818;stroke-width:1.5;" x1="7" x2="7" y1="53.9551" y2="64.4326"/><line style="stroke:#181818;stroke-width:1.5;" x1="7" x2="15" y1="64.4326" y2="64.4326"/><polygon fill="#181818" points="11,60.4326,11,64.4326,11,68.4326,15,64.4326" style="stroke:#181818;stroke-width:1.5;"/><line style="stroke:#181818;stroke-width:1.5;" x1="23" x2="23" y1="70.9102" y2="81.3877"/><line style="stroke:#181818;stroke-width:1.5;" x1="23" x2="31" y1="81.3877" y2="81.3877"/><polygon fill="#181818" points="27,77.3877,27,81.3877,27,85.3877,31,81.3877" style="stroke:#181818;stroke-width:1.5;"/><line style="stroke:#181818;stroke-width:1.5;" x1="39" x2="39" y1="87.8652" y2="98.3428"/><line style="stroke:#181818;stroke-width:1.5;" x1="39" x2="47" y1="98.3428" y2="98.3428"/><polygon fill="#181818" points="43,94.3428,43,98.3428,43,102.3428,47,98.3428" style="stroke:#181818;stroke-width:1.5;"/><line style="stroke:#181818;stroke-width:1.5;" x1="72" x2="72" y1="104.8203" y2="115.2979"/><line style="stroke:#181818;stroke-width:1.5;" x1="72" x2="111" y1="115.2979" y2="115.2979"/><polygon fill="#181818" points="107,111.2979,107,115.2979,107,119.2979,111,115.2979" style="stroke:#181818;stroke-width:1.5;"/><line style="stroke:#181818;stroke-width:1.5;" x1="184" x2="184" y1="121.7754" y2="132.2529"/><line style="stroke:#181818;stroke-width:1.5;" x1="184" x2="223" y1="132.2529" y2="132.2529"/><polygon fill="#181818" points="219,128.2529,219,132.2529,219,136.2529,223,132.2529" style="stroke:#181818;stroke-width:1.5;"/><line style="stroke:#181818;stroke-width:1.5;" x1="296" x2="296" y1="138.7305" y2="149.208"/><line style="stroke:#181818;stroke-width:1.5;" x1="296" x2="335" y1="149.208" y2="149.208"/><polygon fill="#181818" points="331,145.208,331,149.208,331,153.208,335,149.208" style="stroke:#181818;stroke-width:1.5;"/><line style="stroke:#181818;stroke-width:1.5;" x1="359" x2="359" y1="155.6855" y2="166.1631"/><line style="stroke:#181818;stroke-width:1.5;" x1="359" x2="367" y1="166.1631" y2="166.1631"/><polygon fill="#181818" points="363,162.1631,363,166.1631,363,170.1631,367,166.1631" style="stroke:#181818;stroke-width:1.5;"/><line style="stroke:#181818;stroke-width:1.5;" x1="376" x2="376" y1="172.6406" y2="183.1182"/><line style="stroke:#181818;stroke-width:1.5;" x1="376" x2="399" y1="183.1182" y2="183.1182"/><polygon fill="#181818" points="395,179.1182,395,183.1182,395,187.1182,399,183.1182" style="stroke:#181818;stroke-width:1.5;"/><line style="stroke:#181818;stroke-width:1.5;" x1="408" x2="408" y1="189.5957" y2="200.0732"/><line style="stroke:#181818;stroke-width:1.5;" x1="408" x2="447" y1="200.0732" y2="200.0732"/><polygon fill="#181818" points="443,196.0732,443,200.0732,443,204.0732,447,200.0732" style="stroke:#181818;stroke-width:1.5;"/><line style="stroke:#181818;stroke-width:1.5;" x1="455" x2="455" y1="206.5508" y2="217.0283"/><line style="stroke:#181818;stroke-width:1.5;" x1="455" x2="463" y1="217.0283" y2="217.0283"/><polygon fill="#181818" points="459,213.0283,459,217.0283,459,221.0283,463,217.0283" style="stroke:#181818;stroke-width:1.5;"/><line style="stroke:#181818;stroke-width:1.5;" x1="471" x2="471" y1="223.5059" y2="233.9834"/><line style="stroke:#181818;stroke-width:1.5;" x1="471" x2="479" y1="233.9834" y2="233.9834"/><polygon fill="#181818" points="475,229.9834,475,233.9834,475,237.9834,479,233.9834" style="stroke:#181818;stroke-width:1.5;"/><line style="stroke:#181818;stroke-width:1.5;" x1="487" x2="487" y1="240.4609" y2="250.9385"/><line style="stroke:#181818;stroke-width:1.5;" x1="487" x2="495" y1="250.9385" y2="250.9385"/><polygon fill="#181818" points="491,246.9385,491,250.9385,491,254.9385,495,250.9385" style="stroke:#181818;stroke-width:1.5;"/><line style="stroke:#181818;stroke-width:1.5;" x1="503" x2="503" y1="257.416" y2="267.8936"/><line style="stroke:#181818;stroke-width:1.5;" x1="503" x2="511" y1="267.8936" y2="267.8936"/><polygon fill="#181818" points="507,263.8936,507,267.8936,507,271.8936,511,267.8936" style="stroke:#181818;stroke-width:1.5;"/><line style="stroke:#181818;stroke-width:1.5;" x1="520" x2="520" y1="274.3711" y2="284.8486"/><line style="stroke:#181818;stroke-width:1.5;" x1="520" x2="575" y1="284.8486" y2="284.8486"/><polygon fill="#181818" points="571,280.8486,571,284.8486,571,288.8486,575,284.8486" style="stroke:#181818;stroke-width:1.5;"/><rect fill="#E2E2F0" height="12.9551" style="stroke:none;stroke-width:1;" width="12" x="2" y="41"/><line style="stroke:#181818;stroke-width:1;" x1="2" x2="14" y1="41" y2="41"/><line style="stroke:#181818;stroke-width:1;" x1="2" x2="14" y1="53.9551" y2="53.9551"/><line style="stroke:#181818;stroke-width:1;" x1="2" x2="2" y1="41" y2="53.9551"/><line style="stroke:#181818;stroke-width:1;" x1="14" x2="14" y1="41" y2="53.9551"/><rect fill="#E2E2F0" height="12.9551" style="stroke:none;stroke-width:1;" width="12" x="18" y="57.9551"/><line style="stroke:#181818;stroke-width:1;" x1="18" x2="30" y1="57.9551" y2="57.9551"/><line style="stroke:#181818;stroke-width:1;" x1="18" x2="30" y1="70.9102" y2="70.9102"/><line style="stroke:#181818;stroke-width:1;" x1="18" x2="18" y1="57.9551" y2="70.9102"/><line style="stroke:#181818;stroke-width:1;" x1="30" x2="30" y1="57.9551" y2="70.9102"/><rect fill="#E2E2F0" height="12.9551" style="stroke:none;stroke-width:1;" width="12" x="34" y="74.9102"/><line style="stroke:#181818;stroke-width:1;" x1="34" x2="46" y1="74.9102" y2="74.9102"/><line style="stroke:#181818;stroke-width:1;" x1="34" x2="46" y1="87.8652" y2="87.8652"/><line style="stroke:#181818;stroke-width:1;" x1="34" x2="34" y1="74.9102" y2="87.8652"/><line style="stroke:#181818;stroke-width:1;" x1="46" x2="46" y1="74.9102" y2="87.8652"/><rect fill="#E2E2F0" height="12.9551" style="stroke:none;stroke-width:1;" width="28" x="50" y="91.8652"/><line style="stroke:#181818;stroke-width:1;" x1="50" x2="78" y1="91.8652" y2="91.8652"/><line style="stroke:#181818;stroke-width:1;" x1="50" x2="78" y1="104.8203" y2="104.8203"/><line style="stroke:#181818;stroke-width:1;" x1="50" x2="50" y1="91.8652" y2="104.8203"/><line style="stroke:#181818;stroke-width:1;" x1="78" x2="78" y1="91.8652" y2="104.8203"/><rect fill="#E2E2F0" height="12.9551" style="stroke:none;stroke-width:1;" width="76" x="114" y="108.8203"/><line style="stroke:#181818;stroke-width:1;" x1="114" x2="190" y1="108.8203" y2="108.8203"/><line style="stroke:#181818;stroke-width:1;" x1="114" x2="190" y1="121.7754" y2="121.7754"/><line style="stroke:#181818;stroke-width:1;" x1="114" x2="114" y1="108.8203" y2="121.7754"/><line style="stroke:#181818;stroke-width:1;" x1="190" x2="190" y1="108.8203" y2="121.7754"/><rect fill="#E2E2F0" height="12.9551" style="stroke:none;stroke-width:1;" width="31" x="226" y="125.7754"/><line style="stroke:#181818;stroke-width:1;" x1="226" x2="255" y1="125.7754" y2="125.7754"/><line style="stroke:#181818;stroke-width:1;" x1="226" x2="255" y1="138.7305" y2="138.7305"/><line style="stroke:#181818;stroke-width:1;" x1="226" x2="226" y1="125.7754" y2="138.7305"/><rect fill="#E2E2F0" height="12.9551" style="stroke:none;stroke-width:1;" width="30" x="272" y="125.7754"/><line style="stroke:#181818;stroke-width:1;" x1="273" x2="302" y1="125.7754" y2="125.7754"/><line style="stroke:#181818;stroke-width:1;" x1="273" x2="302" y1="138.7305" y2="138.7305"/><line style="stroke:#181818;stroke-width:1;" x1="302" x2="302" y1="125.7754" y2="138.7305"/><line style="stroke:#181818;stroke-width:1;stroke-dasharray:2.0,3.0;" x1="259" x2="269" y1="125.7754" y2="125.7754"/><line style="stroke:#181818;stroke-width:1;stroke-dasharray:2.0,3.0;" x1="259" x2="269" y1="138.7305" y2="138.7305"/><rect fill="#E2E2F0" height="12.9551" style="stroke:none;stroke-width:1;" width="28" x="338" y="142.7305"/><line style="stroke:#181818;stroke-width:1;" x1="338" x2="366" y1="142.7305" y2="142.7305"/><line style="stroke:#181818;stroke-width:1;" x1="338" x2="366" y1="155.6855" y2="155.6855"/><line style="stroke:#181818;stroke-width:1;" x1="338" x2="338" y1="142.7305" y2="155.6855"/><line style="stroke:#181818;stroke-width:1;" x1="366" x2="366" y1="142.7305" y2="155.6855"/><rect fill="#E2E2F0" height="12.9551" style="stroke:none;stroke-width:1;" width="12" x="370" y="159.6855"/><line style="stroke:#181818;stroke-width:1;" x1="370" x2="382" y1="159.6855" y2="159.6855"/><line style="stroke:#181818;stroke-width:1;" x1="370" x2="382" y1="172.6406" y2="172.6406"/><line style="stroke:#181818;stroke-width:1;" x1="370" x2="370" y1="159.6855" y2="172.6406"/><line style="stroke:#181818;stroke-width:1;" x1="382" x2="382" y1="159.6855" y2="172.6406"/><rect fill="#E2E2F0" height="12.9551" style="stroke:none;stroke-width:1;" width="12" x="402" y="176.6406"/><line style="stroke:#181818;stroke-width:1;" x1="402" x2="414" y1="176.6406" y2="176.6406"/><line style="stroke:#181818;stroke-width:1;" x1="402" x2="414" y1="189.5957" y2="189.5957"/><line style="stroke:#181818;stroke-width:1;" x1="402" x2="402" y1="176.6406" y2="189.5957"/><line style="stroke:#181818;stroke-width:1;" x1="414" x2="414" y1="176.6406" y2="189.5957"/><rect fill="#E2E2F0" height="12.9551" style="stroke:none;stroke-width:1;" width="12" x="450" y="193.5957"/><line style="stroke:#181818;stroke-width:1;" x1="450" x2="462" y1="193.5957" y2="193.5957"/><line style="stroke:#181818;stroke-width:1;" x1="450" x2="462" y1="206.5508" y2="206.5508"/><line style="stroke:#181818;stroke-width:1;" x1="450" x2="450" y1="193.5957" y2="206.5508"/><line style="stroke:#181818;stroke-width:1;" x1="462" x2="462" y1="193.5957" y2="206.5508"/><rect fill="#E2E2F0" height="12.9551" style="stroke:none;stroke-width:1;" width="12" x="466" y="210.5508"/><line style="stroke:#181818;stroke-width:1;" x1="466" x2="478" y1="210.5508" y2="210.5508"/><line style="stroke:#181818;stroke-width:1;" x1="466" x2="478" y1="223.5059" y2="223.5059"/><line style="stroke:#181818;stroke-width:1;" x1="466" x2="466" y1="210.5508" y2="223.5059"/><line style="stroke:#181818;stroke-width:1;" x1="478" x2="478" y1="210.5508" y2="223.5059"/><rect fill="#E2E2F0" height="12.9551" style="stroke:none;stroke-width:1;" width="12" x="482" y="227.5059"/><line style="stroke:#181818;stroke-width:1;" x1="482" x2="494" y1="227.5059" y2="227.5059"/><line style="stroke:#181818;stroke-width:1;" x1="482" x2="494" y1="240.4609" y2="240.4609"/><line style="stroke:#181818;stroke-width:1;" x1="482" x2="482" y1="227.5059" y2="240.4609"/><line style="stroke:#181818;stroke-width:1;" x1="494" x2="494" y1="227.5059" y2="240.4609"/><rect fill="#E2E2F0" height="12.9551" style="stroke:none;stroke-width:1;" width="12" x="498" y="244.4609"/><line style="stroke:#181818;stroke-width:1;" x1="498" x2="510" y1="244.4609" y2="244.4609"/><line style="stroke:#181818;stroke-width:1;" x1="498" x2="510" y1="257.416" y2="257.416"/><line style="stroke:#181818;stroke-width:1;" x1="498" x2="498" y1="244.4609" y2="257.416"/><line style="stroke:#181818;stroke-width:1;" x1="510" x2="510" y1="244.4609" y2="257.416"/><rect fill="#E2E2F0" height="12.9551" style="stroke:none;stroke-width:1;" width="12" x="514" y="261.416"/><line style="stroke:#181818;stroke-width:1;" x1="514" x2="526" y1="261.416" y2="261.416"/><line style="stroke:#181818;stroke-width:1;" x1="514" x2="526" y1="274.3711" y2="274.3711"/><line style="stroke:#181818;stroke-width:1;" x1="514" x2="514" y1="261.416" y2="274.3711"/><line style="stroke:#181818;stroke-width:1;" x1="526" x2="526" y1="261.416" y2="274.3711"/><rect fill="#E2E2F0" height="12.9551" style="stroke:none;stroke-width:1;" width="60" x="578" y="278.3711"/><line style="stroke:#181818;stroke-width:1;" x1="578" x2="638" y1="278.3711" y2="278.3711"/><line style="stroke:#181818;stroke-width:1;" x1="578" x2="638" y1="291.3262" y2="291.3262"/><line style="stroke:#181818;stroke-width:1;" x1="578" x2="578" y1="278.3711" y2="291.3262"/><line style="stroke:#181818;stroke-width:1;" x1="638" x2="638" y1="278.3711" y2="291.3262"/><text fill="#000000" font-family="sans-serif" font-size="11" lengthAdjust="spacing" textLength="180.4097" x="18" y="51.6348">Projektinitialisierung und Planung</text><text fill="#000000" font-family="sans-serif" font-size="11" lengthAdjust="spacing" textLength="41.1533" x="34" y="68.5898">Analyse</text><text fill="#000000" font-family="sans-serif" font-size="11" lengthAdjust="spacing" textLength="166.7993" x="50" y="85.5449">Einf&#252;hrung Rust Error Handling</text><text fill="#000000" font-family="sans-serif" font-size="11" lengthAdjust="spacing" textLength="145.8896" x="82" y="102.5">Pr&#252;fungsvorbereitung Teil1</text><text fill="#000000" font-family="sans-serif" font-size="11" lengthAdjust="spacing" textLength="62.0308" x="118" y="119.4551">Berufschule</text><text fill="#000000" font-family="sans-serif" font-size="11" lengthAdjust="spacing" textLength="145.8896" x="306" y="136.4102">Pr&#252;fungsvorbereitung Teil2</text><text fill="#000000" font-family="sans-serif" font-size="11" lengthAdjust="spacing" textLength="154.3115" x="370" y="153.3652">schriftliche Abschlu&#223;pr&#252;fung</text><text fill="#000000" font-family="sans-serif" font-size="11" lengthAdjust="spacing" textLength="40.7505" x="386" y="170.3203">Entwurf</text><text fill="#000000" font-family="sans-serif" font-size="11" lengthAdjust="spacing" textLength="209.7144" x="418" y="187.2754">Implementierung Datenbankanbindung</text><text fill="#000000" font-family="sans-serif" font-size="11" lengthAdjust="spacing" textLength="207.5928" x="466" y="204.2305">Implementierung Backend Schnittstelle</text><text fill="#000000" font-family="sans-serif" font-size="11" lengthAdjust="spacing" textLength="213.356" x="482" y="221.1855">Implementierung Client Single Webpage</text><text fill="#000000" font-family="sans-serif" font-size="11" lengthAdjust="spacing" textLength="229.6787" x="498" y="238.1406">Implementierung Samply.Beam Middleware</text><text fill="#000000" font-family="sans-serif" font-size="11" lengthAdjust="spacing" textLength="166.9067" x="514" y="255.0957">Implementierung Anpassungen</text><text fill="#000000" font-family="sans-serif" font-size="11" lengthAdjust="spacing" textLength="100.9819" x="530" y="272.0508">Test und Abnahme</text><text fill="#000000" font-family="sans-serif" font-size="11" lengthAdjust="spacing" textLength="82.543" x="642" y="289.0059">Dokumentation</text><text fill="#000000" font-family="sans-serif" font-size="10" lengthAdjust="spacing" textLength="14.7559" x="0.6221" y="302.9941">Mo</text><text fill="#000000" font-family="sans-serif" font-size="10" lengthAdjust="spacing" textLength="12.5293" x="17.7354" y="302.9941">Tu</text><text fill="#000000" font-family="sans-serif" font-size="10" lengthAdjust="spacing" textLength="14.126" x="32.937" y="302.9941">We</text><text fill="#000000" font-family="sans-serif" font-size="10" lengthAdjust="spacing" textLength="12.5293" x="49.7354" y="302.9941">Th</text><text fill="#000000" font-family="sans-serif" font-size="10" lengthAdjust="spacing" textLength="9.4531" x="67.2734" y="302.9941">Fr</text><text fill="#989898" font-family="sans-serif" font-size="10" lengthAdjust="spacing" textLength="10.9082" x="82.5459" y="302.9941">Sa</text><text fill="#989898" font-family="sans-serif" font-size="10" lengthAdjust="spacing" textLength="11.5918" x="98.2041" y="302.9941">Su</text><text fill="#000000" font-family="sans-serif" font-size="10" lengthAdjust="spacing" textLength="14.7559" x="112.6221" y="302.9941">Mo</text><text fill="#000000" font-family="sans-serif" font-size="10" lengthAdjust="spacing" textLength="12.5293" x="129.7354" y="302.9941">Tu</text><text fill="#000000" font-family="sans-serif" font-size="10" lengthAdjust="spacing" textLength="14.126" x="144.937" y="302.9941">We</text><text fill="#000000" font-family="sans-serif" font-size="10" lengthAdjust="spacing" textLength="12.5293" x="161.7354" y="302.9941">Th</text><text fill="#000000" font-family="sans-serif" font-size="10" lengthAdjust="spacing" textLength="9.4531" x="179.2734" y="302.9941">Fr</text><text fill="#989898" font-family="sans-serif" font-size="10" lengthAdjust="spacing" textLength="10.9082" x="194.5459" y="302.9941">Sa</text><text fill="#989898" font-family="sans-serif" font-size="10" lengthAdjust="spacing" textLength="11.5918" x="210.2041" y="302.9941">Su</text><text fill="#000000" font-family="sans-serif" font-size="10" lengthAdjust="spacing" textLength="14.7559" x="224.6221" y="302.9941">Mo</text><text fill="#000000" font-family="sans-serif" font-size="10" lengthAdjust="spacing" textLength="12.5293" x="241.7354" y="302.9941">Tu</text><text fill="#989898" font-family="sans-serif" font-size="10" lengthAdjust="spacing" textLength="14.126" x="256.937" y="302.9941">We</text><text fill="#000000" font-family="sans-serif" font-size="10" lengthAdjust="spacing" textLength="12.5293" x="273.7354" y="302.9941">Th</text><text fill="#000000" font-family="sans-serif" font-size="10" lengthAdjust="spacing" textLength="9.4531" x="291.2734" y="302.9941">Fr</text><text fill="#989898" font-family="sans-serif" font-size="10" lengthAdjust="spacing" textLength="10.9082" x="306.5459" y="302.9941">Sa</text><text fill="#989898" font-family="sans-serif" font-size="10" lengthAdjust="spacing" textLength="11.5918" x="322.2041" y="302.9941">Su</text><text fill="#000000" font-family="sans-serif" font-size="10" lengthAdjust="spacing" textLength="14.7559" x="336.6221" y="302.9941">Mo</text><text fill="#000000" font-family="sans-serif" font-size="10" lengthAdjust="spacing" textLength="12.5293" x="353.7354" y="302.9941">Tu</text><text fill="#000000" font-family="sans-serif" font-size="10" lengthAdjust="spacing" textLength="14.126" x="368.937" y="302.9941">We</text><text fill="#989898" font-family="sans-serif" font-size="10" lengthAdjust="spacing" textLength="12.5293" x="385.7354" y="302.9941">Th</text><text fill="#000000" font-family="sans-serif" font-size="10" lengthAdjust="spacing" textLength="9.4531" x="403.2734" y="302.9941">Fr</text><text fill="#989898" font-family="sans-serif" font-size="10" lengthAdjust="spacing" textLength="10.9082" x="418.5459" y="302.9941">Sa</text><text fill="#989898" font-family="sans-serif" font-size="10" lengthAdjust="spacing" textLength="11.5918" x="434.2041" y="302.9941">Su</text><text fill="#000000" font-family="sans-serif" font-size="10" lengthAdjust="spacing" textLength="14.7559" x="448.6221" y="302.9941">Mo</text><text fill="#000000" font-family="sans-serif" font-size="10" lengthAdjust="spacing" textLength="12.5293" x="465.7354" y="302.9941">Tu</text><text fill="#000000" font-family="sans-serif" font-size="10" lengthAdjust="spacing" textLength="14.126" x="480.937" y="302.9941">We</text><text fill="#000000" font-family="sans-serif" font-size="10" lengthAdjust="spacing" textLength="12.5293" x="497.7354" y="302.9941">Th</text><text fill="#000000" font-family="sans-serif" font-size="10" lengthAdjust="spacing" textLength="9.4531" x="515.2734" y="302.9941">Fr</text><text fill="#989898" font-family="sans-serif" font-size="10" lengthAdjust="spacing" textLength="10.9082" x="530.5459" y="302.9941">Sa</text><text fill="#989898" font-family="sans-serif" font-size="10" lengthAdjust="spacing" textLength="11.5918" x="546.2041" y="302.9941">Su</text><text fill="#989898" font-family="sans-serif" font-size="10" lengthAdjust="spacing" textLength="14.7559" x="560.6221" y="302.9941">Mo</text><text fill="#000000" font-family="sans-serif" font-size="10" lengthAdjust="spacing" textLength="12.5293" x="577.7354" y="302.9941">Tu</text><text fill="#000000" font-family="sans-serif" font-size="10" lengthAdjust="spacing" textLength="14.126" x="592.937" y="302.9941">We</text><text fill="#000000" font-family="sans-serif" font-size="10" lengthAdjust="spacing" textLength="12.5293" x="609.7354" y="302.9941">Th</text><text fill="#000000" font-family="sans-serif" font-size="10" lengthAdjust="spacing" textLength="9.4531" x="627.2734" y="302.9941">Fr</text><text fill="#000000" font-family="sans-serif" font-size="10" lengthAdjust="spacing" textLength="12.6465" x="1.6768" y="316.9941">15</text><text fill="#000000" font-family="sans-serif" font-size="10" lengthAdjust="spacing" textLength="12.6465" x="17.6768" y="316.9941">16</text><text fill="#000000" font-family="sans-serif" font-size="10" lengthAdjust="spacing" textLength="12.6465" x="33.6768" y="316.9941">17</text><text fill="#000000" font-family="sans-serif" font-size="10" lengthAdjust="spacing" textLength="12.6465" x="49.6768" y="316.9941">18</text><text fill="#000000" font-family="sans-serif" font-size="10" lengthAdjust="spacing" textLength="12.6465" x="65.6768" y="316.9941">19</text><text fill="#989898" font-family="sans-serif" font-size="10" lengthAdjust="spacing" textLength="12.6465" x="81.6768" y="316.9941">20</text><text fill="#989898" font-family="sans-serif" font-size="10" lengthAdjust="spacing" textLength="12.6465" x="97.6768" y="316.9941">21</text><text fill="#000000" font-family="sans-serif" font-size="10" lengthAdjust="spacing" textLength="12.6465" x="113.6768" y="316.9941">22</text><text fill="#000000" font-family="sans-serif" font-size="10" lengthAdjust="spacing" textLength="12.6465" x="129.6768" y="316.9941">23</text><text fill="#000000" font-family="sans-serif" font-size="10" lengthAdjust="spacing" textLength="12.6465" x="145.6768" y="316.9941">24</text><text fill="#000000" font-family="sans-serif" font-size="10" lengthAdjust="spacing" textLength="12.6465" x="161.6768" y="316.9941">25</text><text fill="#000000" font-family="sans-serif" font-size="10" lengthAdjust="spacing" textLength="12.6465" x="177.6768" y="316.9941">26</text><text fill="#989898" font-family="sans-serif" font-size="10" lengthAdjust="spacing" textLength="12.6465" x="193.6768" y="316.9941">27</text><text fill="#989898" font-family="sans-serif" font-size="10" lengthAdjust="spacing" textLength="12.6465" x="209.6768" y="316.9941">28</text><text fill="#000000" font-family="sans-serif" font-size="10" lengthAdjust="spacing" textLength="12.6465" x="225.6768" y="316.9941">29</text><text fill="#000000" font-family="sans-serif" font-size="10" lengthAdjust="spacing" textLength="12.6465" x="241.6768" y="316.9941">30</text><text fill="#989898" font-family="sans-serif" font-size="10" lengthAdjust="spacing" textLength="6.3232" x="260.8384" y="316.9941">1</text><text fill="#000000" font-family="sans-serif" font-size="10" lengthAdjust="spacing" textLength="6.3232" x="276.8384" y="316.9941">2</text><text fill="#000000" font-family="sans-serif" font-size="10" lengthAdjust="spacing" textLength="6.3232" x="292.8384" y="316.9941">3</text><text fill="#989898" font-family="sans-serif" font-size="10" lengthAdjust="spacing" textLength="6.3232" x="308.8384" y="316.9941">4</text><text fill="#989898" font-family="sans-serif" font-size="10" lengthAdjust="spacing" textLength="6.3232" x="324.8384" y="316.9941">5</text><text fill="#000000" font-family="sans-serif" font-size="10" lengthAdjust="spacing" textLength="6.3232" x="340.8384" y="316.9941">6</text><text fill="#000000" font-family="sans-serif" font-size="10" lengthAdjust="spacing" textLength="6.3232" x="356.8384" y="316.9941">7</text><text fill="#000000" font-family="sans-serif" font-size="10" lengthAdjust="spacing" textLength="6.3232" x="372.8384" y="316.9941">8</text><text fill="#989898" font-family="sans-serif" font-size="10" lengthAdjust="spacing" textLength="6.3232" x="388.8384" y="316.9941">9</text><text fill="#000000" font-family="sans-serif" font-size="10" lengthAdjust="spacing" textLength="12.6465" x="401.6768" y="316.9941">10</text><text fill="#989898" font-family="sans-serif" font-size="10" lengthAdjust="spacing" textLength="12.6465" x="417.6768" y="316.9941">11</text><text fill="#989898" font-family="sans-serif" font-size="10" lengthAdjust="spacing" textLength="12.6465" x="433.6768" y="316.9941">12</text><text fill="#000000" font-family="sans-serif" font-size="10" lengthAdjust="spacing" textLength="12.6465" x="449.6768" y="316.9941">13</text><text fill="#000000" font-family="sans-serif" font-size="10" lengthAdjust="spacing" textLength="12.6465" x="465.6768" y="316.9941">14</text><text fill="#000000" font-family="sans-serif" font-size="10" lengthAdjust="spacing" textLength="12.6465" x="481.6768" y="316.9941">15</text><text fill="#000000" font-family="sans-serif" font-size="10" lengthAdjust="spacing" textLength="12.6465" x="497.6768" y="316.9941">16</text><text fill="#000000" font-family="sans-serif" font-size="10" lengthAdjust="spacing" textLength="12.6465" x="513.6768" y="316.9941">17</text><text fill="#989898" font-family="sans-serif" font-size="10" lengthAdjust="spacing" textLength="12.6465" x="529.6768" y="316.9941">18</text><text fill="#989898" font-family="sans-serif" font-size="10" lengthAdjust="spacing" textLength="12.6465" x="545.6768" y="316.9941">19</text><text fill="#989898" font-family="sans-serif" font-size="10" lengthAdjust="spacing" textLength="12.6465" x="561.6768" y="316.9941">20</text><text fill="#000000" font-family="sans-serif" font-size="10" lengthAdjust="spacing" textLength="12.6465" x="577.6768" y="316.9941">21</text><text fill="#000000" font-family="sans-serif" font-size="10" lengthAdjust="spacing" textLength="12.6465" x="593.6768" y="316.9941">22</text><text fill="#000000" font-family="sans-serif" font-size="10" lengthAdjust="spacing" textLength="12.6465" x="609.6768" y="316.9941">23</text><text fill="#000000" font-family="sans-serif" font-size="10" lengthAdjust="spacing" textLength="12.6465" x="625.6768" y="316.9941">24</text><text fill="#000000" font-family="sans-serif" font-size="12" font-weight="bold" lengthAdjust="spacing" textLength="65.666" x="95.167" y="331.9277">April 2024</text><text fill="#000000" font-family="sans-serif" font-size="12" font-weight="bold" lengthAdjust="spacing" textLength="60.5625" x="417.7188" y="331.9277">May 2024</text><!--SRC=[ZLFBSjf04BphA-Pe7y284Yv79_EGan28gO2TWok7aJH26vOHsGSklYO_uXi_bX65ooedfBXfMzizlTCpjzQXSKjavu9WPggVb3auO1QwdMxKwaIji0U1HUTDZZj0Gv3fob8keEVtKCsvwlIkEY4eUqJVm0__0BkT1XWy7Joid6Bb56fb5HdFIv1ACDF8ylq33Ftoof254AI-3Ln934zzHhspTEftehZOlvG7jM_UEaYCgGnyGiwrEgqwC_kNGZXsMvcK32bN2on8wR11wJOf0x5SsApqkcccTvvgjq69cXGHDAfmMcKbGJ-Le_RxtvkZq2al2RjdRufJh_kytcXQ4xjZcqVeY5Fa5NAgEFzFjzyp1vYjI4AQPwL4vwmZhUbSyb0hES1SSj04todTuF9iyXm5sBK7X6kOgZpNz2mJUIwxpnkqCiXBubEK1Scqr0FOJndBjKYVk3YgLhwMHgSg_Zl7M-dFwwR9ABk7wGIsPAnSXh1TxqFxvkBEAFXQRK6MBho9eoYEhc6OB0xBU1bSV9nDm5RUP0IviiwerDV5BeCnRb7cMjwrfXZkDyJZqPTN01BUAbDnRIuOFqxVBbn7hO6IpfCH9_0u3KPKeDUo7PnLkUGHmyFYhdKJJ92NNbA98QTWM8cksSKmIlu0]--></g></svg>