<svg xmlns="http://www.w3.org/2000/svg" xmlns:xlink="http://www.w3.org/1999/xlink" contentStyleType="text/css" height="467px" preserveAspectRatio="none" style="width:596px;height:467px;background:#FFFFFF;" version="1.1" viewBox="0 0 596 467" width="596px" zoomAndPan="magnify"><defs/><g><!--class Result--><g id="elem_Result"><rect codeLine="1" fill="#F1F1F1" height="80.9766" id="Result" rx="2.5" ry="2.5" style="stroke:#181818;stroke-width:0.5;" width="127.3154" x="280.85" y="7"/><ellipse cx="319.9496" cy="23" fill="#EB937F" rx="11" ry="11" style="stroke:#181818;stroke-width:1;"/><path d="M323.5639,29.5 L315.8441,29.5 L315.8441,17.1069 L323.5639,17.1069 L323.5639,19.2651 L318.2929,19.2651 L318.2929,21.938 L323.0658,21.938 L323.0658,24.0962 L318.2929,24.0962 L318.2929,27.3418 L323.5639,27.3418 Z " fill="#000000"/><text fill="#000000" font-family="sans-serif" font-size="14" lengthAdjust="spacing" textLength="41.7607" x="339.3051" y="28.291">Result</text><line style="stroke:#181818;stroke-width:0.5;" x1="281.85" x2="407.1654" y1="39" y2="39"/><text fill="#000000" font-family="sans-serif" font-size="14" lengthAdjust="spacing" textLength="115.3154" x="286.85" y="56.5352">T: ResponseType</text><text fill="#000000" font-family="sans-serif" font-size="14" lengthAdjust="spacing" textLength="82.5986" x="286.85" y="73.0234">E: ErrorType</text><line style="stroke:#181818;stroke-width:0.5;" x1="281.85" x2="407.1654" y1="79.9766" y2="79.9766"/></g><!--class ResponseType--><g id="elem_ResponseType"><rect codeLine="5" fill="#F1F1F1" height="97.4648" id="ResponseType" rx="2.5" ry="2.5" style="stroke:#181818;stroke-width:0.5;" width="367.0107" x="7" y="172.71"/><ellipse cx="137.4536" cy="188.71" fill="#EB937F" rx="11" ry="11" style="stroke:#181818;stroke-width:1;"/><path d="M141.0679,195.21 L133.3481,195.21 L133.3481,182.8169 L141.0679,182.8169 L141.0679,184.9751 L135.7969,184.9751 L135.7969,187.648 L140.5698,187.648 L140.5698,189.8062 L135.7969,189.8062 L135.7969,193.0518 L141.0679,193.0518 Z " fill="#000000"/><text fill="#000000" font-family="sans-serif" font-size="14" lengthAdjust="spacing" textLength="97.6035" x="157.9536" y="194.001">ResponseType</text><line style="stroke:#181818;stroke-width:0.5;" x1="8" x2="373.0107" y1="204.71" y2="204.71"/><text fill="#000000" font-family="sans-serif" font-size="14" lengthAdjust="spacing" textLength="112.8271" x="13" y="222.2452">SuccessfulJoined</text><text fill="#000000" font-family="sans-serif" font-size="14" lengthAdjust="spacing" textLength="113.6953" x="13" y="238.7334">SuccessfulDelete</text><text fill="#000000" font-family="sans-serif" font-size="14" lengthAdjust="spacing" textLength="355.0107" x="13" y="255.2217">ResultOverviewday{ result: Vec&lt;EntryRelatedData&gt; }</text><line style="stroke:#181818;stroke-width:0.5;" x1="8" x2="373.0107" y1="262.1748" y2="262.1748"/></g><!--class ErrorType--><g id="elem_ErrorType"><rect codeLine="10" fill="#F1F1F1" height="146.9297" id="ErrorType" rx="2.5" ry="2.5" style="stroke:#181818;stroke-width:0.5;" width="180.4717" x="409.27" y="147.97"/><ellipse cx="462.1802" cy="163.97" fill="#EB937F" rx="11" ry="11" style="stroke:#181818;stroke-width:1;"/><path d="M465.7944,170.47 L458.0747,170.47 L458.0747,158.0769 L465.7944,158.0769 L465.7944,160.2351 L460.5234,160.2351 L460.5234,162.908 L465.2964,162.908 L465.2964,165.0662 L460.5234,165.0662 L460.5234,168.3118 L465.7944,168.3118 Z " fill="#000000"/><text fill="#000000" font-family="sans-serif" font-size="14" lengthAdjust="spacing" textLength="66.1514" x="482.6802" y="169.261">ErrorType</text><line style="stroke:#181818;stroke-width:0.5;" x1="410.27" x2="588.7417" y1="179.97" y2="179.97"/><text fill="#000000" font-family="sans-serif" font-size="14" lengthAdjust="spacing" textLength="83.1113" x="415.27" y="197.5052">FailedDelete</text><text fill="#000000" font-family="sans-serif" font-size="14" lengthAdjust="spacing" textLength="51.9121" x="415.27" y="213.9934">DBError</text><text fill="#000000" font-family="sans-serif" font-size="14" lengthAdjust="spacing" textLength="74.5801" x="415.27" y="230.4817">RoomIsFull</text><text fill="#000000" font-family="sans-serif" font-size="14" lengthAdjust="spacing" textLength="150.7119" x="415.27" y="246.97">NoRoomLimitProvided</text><text fill="#000000" font-family="sans-serif" font-size="14" lengthAdjust="spacing" textLength="131.2568" x="415.27" y="263.4583">NoRoomWithThisID</text><text fill="#000000" font-family="sans-serif" font-size="14" lengthAdjust="spacing" textLength="168.4717" x="415.27" y="279.9466">GivenTimeIsNotRCF3339</text><line style="stroke:#181818;stroke-width:0.5;" x1="410.27" x2="588.7417" y1="286.8997" y2="286.8997"/></g><!--class EntryRelatedData--><g id="elem_EntryRelatedData"><rect codeLine="18" fill="#F1F1F1" height="106.0859" id="EntryRelatedData" rx="2.5" ry="2.5" style="stroke:#181818;stroke-width:0.5;" width="252.0986" x="64.46" y="354.9"/><ellipse cx="128.2496" cy="375.2105" fill="#FF7700" rx="11" ry="11" style="stroke:#181818;stroke-width:1;"/><path d="M127.9829,376.2735 Q126.1319,375.568 125.4761,374.7918 Q124.8204,374.0157 124.8204,372.7042 Q124.8204,371.0191 125.8995,370.0563 Q126.9786,369.0934 128.8628,369.0934 Q129.7178,369.0934 130.5728,369.2884 Q131.4278,369.4835 132.2662,369.8653 L132.2662,372.256 Q131.4776,371.6998 130.6641,371.4093 Q129.8506,371.1188 129.0538,371.1188 Q128.1656,371.1188 127.6924,371.4757 Q127.2193,371.8326 127.2193,372.4967 Q127.2193,373.0113 127.5638,373.3475 Q127.9082,373.6837 129.0039,374.0904 L130.0581,374.4889 Q131.5523,375.0367 132.2579,375.9415 Q132.9634,376.8463 132.9634,378.2242 Q132.9634,380.1002 131.8553,381.0257 Q130.7471,381.9513 128.5059,381.9513 Q127.5845,381.9513 126.659,381.7313 Q125.7334,381.5113 124.8702,381.0797 L124.8702,378.5479 Q125.8496,379.2452 126.7669,379.5855 Q127.6841,379.9259 128.5806,379.9259 Q129.4854,379.9259 129.9834,379.515 Q130.4815,379.1041 130.4815,378.3653 Q130.4815,377.8092 130.1495,377.39 Q129.8174,376.9708 129.1866,376.7301 Z " fill="#000000"/><text fill="#000000" font-family="sans-serif" font-size="12" font-style="italic" lengthAdjust="spacing" textLength="46.5176" x="183.5005" y="371.5016">&#171;Struct&#187;</text><text fill="#000000" font-family="sans-serif" font-size="14" lengthAdjust="spacing" textLength="116.0195" x="148.7496" y="387.568">EntryRelatedData</text><line style="stroke:#181818;stroke-width:0.5;" x1="65.46" x2="315.5586" y1="395.5211" y2="395.5211"/><ellipse cx="75.46" cy="409.2652" fill="none" rx="3" ry="3" style="stroke:#038048;stroke-width:1;"/><text fill="#000000" font-family="sans-serif" font-size="14" lengthAdjust="spacing" textLength="43.4697" x="84.46" y="413.0563">id: i32</text><ellipse cx="75.46" cy="425.7535" fill="none" rx="3" ry="3" style="stroke:#038048;stroke-width:1;"/><text fill="#000000" font-family="sans-serif" font-size="14" lengthAdjust="spacing" textLength="122.1104" x="84.46" y="429.5445">area_name: String</text><ellipse cx="75.46" cy="442.2418" fill="none" rx="3" ry="3" style="stroke:#038048;stroke-width:1;"/><text fill="#000000" font-family="sans-serif" font-size="14" lengthAdjust="spacing" textLength="226.0986" x="84.46" y="446.0328">rooms: Vec&lt;RoomsRelatedData&gt;</text><line style="stroke:#181818;stroke-width:0.5;" x1="65.46" x2="315.5586" y1="452.9859" y2="452.9859"/></g><!--link Result to ErrorType--><g id="link_Result_ErrorType"><path codeLine="24" d="M380.46,88.37 C396.37,106.03 415.61,127.37 433.94,147.7 " fill="none" id="Result-ErrorType" style="stroke:#181818;stroke-width:1;"/></g><!--link Result to ResponseType--><g id="link_Result_ResponseType"><path codeLine="25" d="M308.79,88.37 C286.31,113.47 257.16,146.01 233.43,172.51 " fill="none" id="Result-ResponseType" style="stroke:#181818;stroke-width:1;"/></g><!--link ResponseType to EntryRelatedData--><g id="link_ResponseType_EntryRelatedData"><path codeLine="26" d="M190.51,270.43 C190.51,296.27 190.51,328.18 190.51,354.65 " fill="none" id="ResponseType-EntryRelatedData" style="stroke:#181818;stroke-width:1;"/></g><!--SRC=[RLB1QeGm4Btx5GEzjBGBIpqi5V7GgiLIjaLbUon1fzs1c2n9jCZIVw_HHRDBvpRlpMFUcmH5sq2EkkNcwC5GPM3RWnGQo_w08vO4a2WbrGZyZX2UTFFWfBPLj5M5Md-r_4MImFeV8aQE1cTYsl_MeUe8VshM7q6DK00xhC946DNdo9d1EcQ6HJ1vS9pCzc3naJBYW-1yLVmuZYwhfMmodRQSpz1MMl2L6ZBlIdPKEn4cxeFCljoJpkAPUAOEHKaDPdehJVwK-hx_uBYqLN6cDLocWJ24w-8Ehj9qirclRw0mggrC53bHRe7g0CY_Tn2ca7qArc1W5II-7KuD9lLqFEjNkySxcVAceyDgvRpjWftz0RSP1HSHl3y0]--></g></svg>