<svg xmlns="http://www.w3.org/2000/svg" xmlns:xlink="http://www.w3.org/1999/xlink" contentStyleType="text/css" height="880px" preserveAspectRatio="none" style="width:1248px;height:880px;background:#FFFFFF;" version="1.1" viewBox="0 0 1248 880" width="1248px" zoomAndPan="magnify"><defs/><g><!--cluster booking_types--><g id="cluster_booking_types"><path d="M8.5,112.97 L114.7324,112.97 A3.75,3.75 0 0 1 117.2324,115.47 L124.2324,135.4583 L1238.5,135.4583 A2.5,2.5 0 0 1 1241,137.9583 L1241,871.41 A2.5,2.5 0 0 1 1238.5,873.91 L8.5,873.91 A2.5,2.5 0 0 1 6,871.41 L6,115.47 A2.5,2.5 0 0 1 8.5,112.97 " fill="none" style="stroke:#000000;stroke-width:1.5;"/><line style="stroke:#000000;stroke-width:1.5;" x1="6" x2="124.2324" y1="135.4583" y2="135.4583"/><text fill="#000000" font-family="sans-serif" font-size="14" font-weight="bold" lengthAdjust="spacing" textLength="105.2324" x="10" y="128.5052">booking_types</text></g><!--class EntryRelatedData--><g id="elem_EntryRelatedData"><rect codeLine="6" fill="#F1F1F1" height="106.0859" id="EntryRelatedData" rx="2.5" ry="2.5" style="stroke:#181818;stroke-width:0.5;" width="252.0986" x="50.95" y="569.25"/><ellipse cx="114.7396" cy="589.5605" fill="#FF7700" rx="11" ry="11" style="stroke:#181818;stroke-width:1;"/><path d="M114.4729,590.6235 Q112.6219,589.918 111.9661,589.1418 Q111.3104,588.3657 111.3104,587.0542 Q111.3104,585.3691 112.3895,584.4062 Q113.4686,583.4434 115.3528,583.4434 Q116.2078,583.4434 117.0628,583.6384 Q117.9178,583.8335 118.7562,584.2153 L118.7562,586.606 Q117.9676,586.0498 117.1541,585.7593 Q116.3406,585.4687 115.5438,585.4687 Q114.6556,585.4687 114.1824,585.8257 Q113.7093,586.1826 113.7093,586.8467 Q113.7093,587.3613 114.0538,587.6975 Q114.3982,588.0337 115.4939,588.4404 L116.5481,588.8389 Q118.0423,589.3867 118.7479,590.2915 Q119.4534,591.1963 119.4534,592.5742 Q119.4534,594.4502 118.3453,595.3757 Q117.2371,596.3013 114.9959,596.3013 Q114.0745,596.3013 113.149,596.0813 Q112.2234,595.8613 111.3602,595.4297 L111.3602,592.8979 Q112.3396,593.5952 113.2569,593.9355 Q114.1741,594.2759 115.0706,594.2759 Q115.9754,594.2759 116.4734,593.865 Q116.9715,593.4541 116.9715,592.7153 Q116.9715,592.1592 116.6395,591.74 Q116.3074,591.3208 115.6766,591.0801 Z " fill="#000000"/><text fill="#000000" font-family="sans-serif" font-size="12" font-style="italic" lengthAdjust="spacing" textLength="46.5176" x="169.9905" y="585.8516">&#171;Struct&#187;</text><text fill="#000000" font-family="sans-serif" font-size="14" lengthAdjust="spacing" textLength="116.0195" x="135.2396" y="601.918">EntryRelatedData</text><line style="stroke:#181818;stroke-width:0.5;" x1="51.95" x2="302.0486" y1="609.8711" y2="609.8711"/><ellipse cx="61.95" cy="623.6152" fill="none" rx="3" ry="3" style="stroke:#038048;stroke-width:1;"/><text fill="#000000" font-family="sans-serif" font-size="14" lengthAdjust="spacing" textLength="43.4697" x="70.95" y="627.4062">id: i32</text><ellipse cx="61.95" cy="640.1035" fill="none" rx="3" ry="3" style="stroke:#038048;stroke-width:1;"/><text fill="#000000" font-family="sans-serif" font-size="14" lengthAdjust="spacing" textLength="122.1104" x="70.95" y="643.8945">area_name: String</text><ellipse cx="61.95" cy="656.5918" fill="none" rx="3" ry="3" style="stroke:#038048;stroke-width:1;"/><text fill="#000000" font-family="sans-serif" font-size="14" lengthAdjust="spacing" textLength="226.0986" x="70.95" y="660.3828">rooms: Vec&lt;RoomsRelatedData&gt;</text><line style="stroke:#181818;stroke-width:0.5;" x1="51.95" x2="302.0486" y1="667.3359" y2="667.3359"/></g><!--class RoomsRelatedData--><g id="elem_RoomsRelatedData"><rect codeLine="11" fill="#F1F1F1" height="172.0391" id="RoomsRelatedData" rx="2.5" ry="2.5" style="stroke:#181818;stroke-width:0.5;" width="264.8066" x="337.6" y="536.27"/><ellipse cx="401.892" cy="556.5805" fill="#FF7700" rx="11" ry="11" style="stroke:#181818;stroke-width:1;"/><path d="M401.6254,557.6435 Q399.7743,556.938 399.1186,556.1618 Q398.4628,555.3857 398.4628,554.0742 Q398.4628,552.3891 399.5419,551.4263 Q400.621,550.4634 402.5053,550.4634 Q403.3603,550.4634 404.2152,550.6584 Q405.0702,550.8535 405.9086,551.2353 L405.9086,553.626 Q405.12,553.0698 404.3065,552.7793 Q403.4931,552.4888 402.6962,552.4888 Q401.808,552.4888 401.3349,552.8457 Q400.8617,553.2026 400.8617,553.8667 Q400.8617,554.3813 401.2062,554.7175 Q401.5507,555.0537 402.6464,555.4604 L403.7006,555.8589 Q405.1947,556.4067 405.9003,557.3115 Q406.6059,558.2163 406.6059,559.5942 Q406.6059,561.4702 405.4977,562.3957 Q404.3896,563.3213 402.1483,563.3213 Q401.227,563.3213 400.3014,563.1013 Q399.3759,562.8813 398.5126,562.4497 L398.5126,559.9179 Q399.4921,560.6152 400.4093,560.9555 Q401.3266,561.2959 402.223,561.2959 Q403.1278,561.2959 403.6259,560.885 Q404.1239,560.4741 404.1239,559.7353 Q404.1239,559.1792 403.7919,558.76 Q403.4599,558.3408 402.829,558.1001 Z " fill="#000000"/><text fill="#000000" font-family="sans-serif" font-size="12" font-style="italic" lengthAdjust="spacing" textLength="46.5176" x="462.9945" y="552.8716">&#171;Struct&#187;</text><text fill="#000000" font-family="sans-serif" font-size="14" lengthAdjust="spacing" textLength="127.7227" x="422.392" y="568.938">RoomsRelatedData</text><line style="stroke:#181818;stroke-width:0.5;" x1="338.6" x2="601.4066" y1="576.8911" y2="576.8911"/><ellipse cx="348.6" cy="590.6352" fill="none" rx="3" ry="3" style="stroke:#038048;stroke-width:1;"/><text fill="#000000" font-family="sans-serif" font-size="14" lengthAdjust="spacing" textLength="43.4697" x="357.6" y="594.4263">id: i32</text><ellipse cx="348.6" cy="607.1235" fill="none" rx="3" ry="3" style="stroke:#038048;stroke-width:1;"/><text fill="#000000" font-family="sans-serif" font-size="14" lengthAdjust="spacing" textLength="129.1172" x="357.6" y="610.9145">room_name: String</text><ellipse cx="348.6" cy="623.6118" fill="none" rx="3" ry="3" style="stroke:#038048;stroke-width:1;"/><text fill="#000000" font-family="sans-serif" font-size="14" lengthAdjust="spacing" textLength="124.9063" x="357.6" y="627.4028">description: String</text><ellipse cx="348.6" cy="640.1001" fill="none" rx="3" ry="3" style="stroke:#038048;stroke-width:1;"/><text fill="#000000" font-family="sans-serif" font-size="14" lengthAdjust="spacing" textLength="85.8252" x="357.6" y="643.8911">capacity: i32</text><ellipse cx="348.6" cy="656.5884" fill="none" rx="3" ry="3" style="stroke:#038048;stroke-width:1;"/><text fill="#000000" font-family="sans-serif" font-size="14" lengthAdjust="spacing" textLength="85.2373" x="357.6" y="660.3794">entry_id: i32</text><ellipse cx="348.6" cy="673.0766" fill="none" rx="3" ry="3" style="stroke:#038048;stroke-width:1;"/><text fill="#000000" font-family="sans-serif" font-size="14" lengthAdjust="spacing" textLength="146.7676" x="357.6" y="676.8677">registration_limit: i32</text><ellipse cx="348.6" cy="689.5649" fill="none" rx="3" ry="3" style="stroke:#038048;stroke-width:1;"/><text fill="#000000" font-family="sans-serif" font-size="14" lengthAdjust="spacing" textLength="238.8066" x="357.6" y="693.3559">participants: Vec&lt;ParticipantsList&gt;</text><line style="stroke:#181818;stroke-width:0.5;" x1="338.6" x2="601.4066" y1="700.3091" y2="700.3091"/></g><!--class ParticipantsList--><g id="elem_ParticipantsList"><rect codeLine="20" fill="#F1F1F1" height="89.5977" id="ParticipantsList" rx="2.5" ry="2.5" style="stroke:#181818;stroke-width:0.5;" width="141.4727" x="399.26" y="768.31"/><ellipse cx="417.0879" cy="788.6205" fill="#FF7700" rx="11" ry="11" style="stroke:#181818;stroke-width:1;"/><path d="M416.8213,789.6835 Q414.9702,788.978 414.3144,788.2018 Q413.6587,787.4257 413.6587,786.1142 Q413.6587,784.4291 414.7378,783.4663 Q415.8169,782.5034 417.7012,782.5034 Q418.5561,782.5034 419.4111,782.6984 Q420.2661,782.8935 421.1045,783.2753 L421.1045,785.666 Q420.3159,785.1098 419.5024,784.8193 Q418.689,784.5288 417.8921,784.5288 Q417.0039,784.5288 416.5308,784.8857 Q416.0576,785.2426 416.0576,785.9067 Q416.0576,786.4213 416.4021,786.7575 Q416.7466,787.0937 417.8423,787.5004 L418.8965,787.8989 Q420.3906,788.4467 421.0962,789.3515 Q421.8017,790.2563 421.8017,791.6342 Q421.8017,793.5102 420.6936,794.4357 Q419.5854,795.3613 417.3442,795.3613 Q416.4228,795.3613 415.4973,795.1413 Q414.5718,794.9213 413.7085,794.4897 L413.7085,791.9579 Q414.688,792.6552 415.6052,792.9955 Q416.5225,793.3359 417.4189,793.3359 Q418.3237,793.3359 418.8218,792.925 Q419.3198,792.5141 419.3198,791.7753 Q419.3198,791.2192 418.9878,790.8 Q418.6558,790.3808 418.0249,790.1401 Z " fill="#000000"/><text fill="#000000" font-family="sans-serif" font-size="12" font-style="italic" lengthAdjust="spacing" textLength="46.5176" x="460.0517" y="784.9116">&#171;Struct&#187;</text><text fill="#000000" font-family="sans-serif" font-size="14" lengthAdjust="spacing" textLength="103.1885" x="431.7163" y="800.978">ParticipantsList</text><line style="stroke:#181818;stroke-width:0.5;" x1="400.26" x2="539.7327" y1="808.9311" y2="808.9311"/><ellipse cx="410.26" cy="822.6752" fill="none" rx="3" ry="3" style="stroke:#038048;stroke-width:1;"/><text fill="#000000" font-family="sans-serif" font-size="14" lengthAdjust="spacing" textLength="43.4697" x="419.26" y="826.4663">id: i32</text><ellipse cx="410.26" cy="839.1635" fill="none" rx="3" ry="3" style="stroke:#038048;stroke-width:1;"/><text fill="#000000" font-family="sans-serif" font-size="14" lengthAdjust="spacing" textLength="115.4727" x="419.26" y="842.9545">username: String</text><line style="stroke:#181818;stroke-width:0.5;" x1="400.26" x2="539.7327" y1="849.9077" y2="849.9077"/></g><!--class GetTimestamp--><g id="elem_GetTimestamp"><rect codeLine="24" fill="#F1F1F1" height="73.1094" id="GetTimestamp" rx="2.5" ry="2.5" style="stroke:#181818;stroke-width:0.5;" width="167.2031" x="424.4" y="275.57"/><ellipse cx="455.7323" cy="295.8805" fill="#FF7700" rx="11" ry="11" style="stroke:#181818;stroke-width:1;"/><path d="M455.4657,296.9435 Q453.6146,296.238 452.9588,295.4618 Q452.3031,294.6857 452.3031,293.3742 Q452.3031,291.6891 453.3822,290.7262 Q454.4613,289.7634 456.3456,289.7634 Q457.2005,289.7634 458.0555,289.9584 Q458.9105,290.1535 459.7489,290.5353 L459.7489,292.926 Q458.9603,292.3698 458.1468,292.0793 Q457.3333,291.7887 456.5365,291.7887 Q455.6483,291.7887 455.1751,292.1457 Q454.702,292.5026 454.702,293.1667 Q454.702,293.6813 455.0465,294.0175 Q455.391,294.3537 456.4867,294.7604 L457.5409,295.1589 Q459.035,295.7067 459.7406,296.6115 Q460.4461,297.5163 460.4461,298.8942 Q460.4461,300.7702 459.338,301.6957 Q458.2298,302.6213 455.9886,302.6213 Q455.0672,302.6213 454.1417,302.4013 Q453.2162,302.1813 452.3529,301.7497 L452.3529,299.2179 Q453.3324,299.9152 454.2496,300.2555 Q455.1668,300.5959 456.0633,300.5959 Q456.9681,300.5959 457.4662,300.185 Q457.9642,299.7741 457.9642,299.0353 Q457.9642,298.4792 457.6322,298.06 Q457.3001,297.6408 456.6693,297.4001 Z " fill="#000000"/><text fill="#000000" font-family="sans-serif" font-size="12" font-style="italic" lengthAdjust="spacing" textLength="46.5176" x="499.5575" y="292.1716">&#171;Struct&#187;</text><text fill="#000000" font-family="sans-serif" font-size="14" lengthAdjust="spacing" textLength="98.9092" x="473.3617" y="308.238">GetTimestamp</text><line style="stroke:#181818;stroke-width:0.5;" x1="425.4" x2="590.6031" y1="316.1911" y2="316.1911"/><ellipse cx="435.4" cy="329.9352" fill="none" rx="3" ry="3" style="stroke:#038048;stroke-width:1;"/><text fill="#000000" font-family="sans-serif" font-size="14" lengthAdjust="spacing" textLength="141.2031" x="444.4" y="333.7262">day: Option&lt;String&gt;</text><line style="stroke:#181818;stroke-width:0.5;" x1="425.4" x2="590.6031" y1="340.6794" y2="340.6794"/></g><!--class BookingParams--><g id="elem_BookingParams"><rect codeLine="27" fill="#F1F1F1" height="139.0625" id="BookingParams" rx="2.5" ry="2.5" style="stroke:#181818;stroke-width:0.5;" width="220.7217" x="626.64" y="242.59"/><ellipse cx="680.7328" cy="262.9005" fill="#FF7700" rx="11" ry="11" style="stroke:#181818;stroke-width:1;"/><path d="M680.4662,263.9635 Q678.6151,263.258 677.9593,262.4818 Q677.3036,261.7057 677.3036,260.3942 Q677.3036,258.7091 678.3827,257.7462 Q679.4618,256.7834 681.3461,256.7834 Q682.201,256.7834 683.056,256.9784 Q683.911,257.1735 684.7494,257.5553 L684.7494,259.946 Q683.9608,259.3898 683.1473,259.0993 Q682.3338,258.8087 681.537,258.8087 Q680.6488,258.8087 680.1756,259.1657 Q679.7025,259.5226 679.7025,260.1867 Q679.7025,260.7013 680.047,261.0375 Q680.3915,261.3737 681.4872,261.7804 L682.5414,262.1789 Q684.0355,262.7267 684.7411,263.6315 Q685.4466,264.5363 685.4466,265.9142 Q685.4466,267.7902 684.3385,268.7157 Q683.2303,269.6413 680.9891,269.6413 Q680.0677,269.6413 679.1422,269.4213 Q678.2167,269.2013 677.3534,268.7697 L677.3534,266.2379 Q678.3329,266.9352 679.2501,267.2755 Q680.1673,267.6159 681.0638,267.6159 Q681.9686,267.6159 682.4667,267.205 Q682.9647,266.7941 682.9647,266.0553 Q682.9647,265.4992 682.6327,265.08 Q682.3006,264.6608 681.6698,264.4201 Z " fill="#000000"/><text fill="#000000" font-family="sans-serif" font-size="12" font-style="italic" lengthAdjust="spacing" textLength="46.5176" x="729.9921" y="259.1916">&#171;Struct&#187;</text><text fill="#000000" font-family="sans-serif" font-size="14" lengthAdjust="spacing" textLength="104.0361" x="701.2328" y="275.258">BookingParams</text><line style="stroke:#181818;stroke-width:0.5;" x1="627.64" x2="846.3617" y1="283.2111" y2="283.2111"/><ellipse cx="637.64" cy="296.9552" fill="none" rx="3" ry="3" style="stroke:#038048;stroke-width:1;"/><text fill="#000000" font-family="sans-serif" font-size="14" lengthAdjust="spacing" textLength="137.1494" x="646.64" y="300.7462">endpoint: Endpoints</text><ellipse cx="637.64" cy="313.4435" fill="none" rx="3" ry="3" style="stroke:#038048;stroke-width:1;"/><text fill="#000000" font-family="sans-serif" font-size="14" lengthAdjust="spacing" textLength="111.9863" x="646.64" y="317.2345">id: Option&lt;i32&gt;</text><ellipse cx="637.64" cy="329.9318" fill="none" rx="3" ry="3" style="stroke:#038048;stroke-width:1;"/><text fill="#000000" font-family="sans-serif" font-size="14" lengthAdjust="spacing" textLength="191.1055" x="646.64" y="333.7228">customday: Option&lt;String&gt;</text><ellipse cx="637.64" cy="346.4201" fill="none" rx="3" ry="3" style="stroke:#038048;stroke-width:1;"/><text fill="#000000" font-family="sans-serif" font-size="14" lengthAdjust="spacing" textLength="194.7217" x="646.64" y="350.2111">days: Option&lt;Vec&lt;String&gt;&gt;</text><line style="stroke:#181818;stroke-width:1;" x1="627.64" x2="846.3617" y1="357.1642" y2="357.1642"/><ellipse cx="637.64" cy="370.9084" fill="#84BE84" rx="3" ry="3" style="stroke:#038048;stroke-width:1;"/><text fill="#000000" font-family="sans-serif" font-size="14" lengthAdjust="spacing" textLength="36.3809" x="646.64" y="374.6994">new()</text></g><!--class Endpoints--><g id="elem_Endpoints"><rect codeLine="35" fill="#F1F1F1" height="130.4414" id="Endpoints" rx="2.5" ry="2.5" style="stroke:#181818;stroke-width:0.5;" width="99.6074" x="1125.2" y="246.9"/><ellipse cx="1140.2" cy="262.9" fill="#EB937F" rx="11" ry="11" style="stroke:#181818;stroke-width:1;"/><path d="M1143.8143,269.4 L1136.0945,269.4 L1136.0945,257.0069 L1143.8143,257.0069 L1143.8143,259.1651 L1138.5433,259.1651 L1138.5433,261.838 L1143.3162,261.838 L1143.3162,263.9962 L1138.5433,263.9962 L1138.5433,267.2418 L1143.8143,267.2418 Z " fill="#000000"/><text fill="#000000" font-family="sans-serif" font-size="14" lengthAdjust="spacing" textLength="67.6074" x="1154.2" y="268.191">Endpoints</text><line style="stroke:#181818;stroke-width:0.5;" x1="1126.2" x2="1223.8074" y1="278.9" y2="278.9"/><text fill="#000000" font-family="sans-serif" font-size="14" lengthAdjust="spacing" textLength="85.3877" x="1131.2" y="296.4352">Overviewday</text><text fill="#000000" font-family="sans-serif" font-size="14" lengthAdjust="spacing" textLength="61.6875" x="1131.2" y="312.9234">Joinroom</text><text fill="#000000" font-family="sans-serif" font-size="14" lengthAdjust="spacing" textLength="68.8242" x="1131.2" y="329.4117">Joinrooms</text><text fill="#000000" font-family="sans-serif" font-size="14" lengthAdjust="spacing" textLength="68.7627" x="1131.2" y="345.9">Deletejoin</text><text fill="#000000" font-family="sans-serif" font-size="14" lengthAdjust="spacing" textLength="39.1221" x="1131.2" y="362.3883">Room</text><line style="stroke:#181818;stroke-width:0.5;" x1="1126.2" x2="1223.8074" y1="369.3414" y2="369.3414"/></g><!--class ResponseType--><g id="elem_ResponseType"><rect codeLine="42" fill="#F1F1F1" height="113.9531" id="ResponseType" rx="2.5" ry="2.5" style="stroke:#181818;stroke-width:0.5;" width="367.0107" x="22.49" y="255.15"/><ellipse cx="152.9436" cy="271.15" fill="#EB937F" rx="11" ry="11" style="stroke:#181818;stroke-width:1;"/><path d="M156.5579,277.65 L148.8381,277.65 L148.8381,265.2569 L156.5579,265.2569 L156.5579,267.4151 L151.2869,267.4151 L151.2869,270.088 L156.0598,270.088 L156.0598,272.2462 L151.2869,272.2462 L151.2869,275.4918 L156.5579,275.4918 Z " fill="#000000"/><text fill="#000000" font-family="sans-serif" font-size="14" lengthAdjust="spacing" textLength="97.6035" x="173.4436" y="276.441">ResponseType</text><line style="stroke:#181818;stroke-width:0.5;" x1="23.49" x2="388.5007" y1="287.15" y2="287.15"/><text fill="#000000" font-family="sans-serif" font-size="14" lengthAdjust="spacing" textLength="112.8271" x="28.49" y="304.6852">SuccessfulJoined</text><text fill="#000000" font-family="sans-serif" font-size="14" lengthAdjust="spacing" textLength="113.6953" x="28.49" y="321.1734">SuccessfulDelete</text><text fill="#000000" font-family="sans-serif" font-size="14" lengthAdjust="spacing" textLength="355.0107" x="28.49" y="337.6617">ResultOverviewday{ result: Vec&lt;EntryRelatedData&gt; }</text><text fill="#000000" font-family="sans-serif" font-size="14" lengthAdjust="spacing" textLength="274.0664" x="28.49" y="354.15">ResultRoom{ result: RoomsRelatedData }</text><line style="stroke:#181818;stroke-width:0.5;" x1="23.49" x2="388.5007" y1="361.1031" y2="361.1031"/></g><!--class ErrorType--><g id="elem_ErrorType"><rect codeLine="48" fill="#F1F1F1" height="328.3008" id="ErrorType" rx="2.5" ry="2.5" style="stroke:#181818;stroke-width:0.5;" width="207.9795" x="882.01" y="147.97"/><ellipse cx="948.6741" cy="163.97" fill="#EB937F" rx="11" ry="11" style="stroke:#181818;stroke-width:1;"/><path d="M952.2883,170.47 L944.5686,170.47 L944.5686,158.0769 L952.2883,158.0769 L952.2883,160.2351 L947.0173,160.2351 L947.0173,162.908 L951.7903,162.908 L951.7903,165.0662 L947.0173,165.0662 L947.0173,168.3118 L952.2883,168.3118 Z " fill="#000000"/><text fill="#000000" font-family="sans-serif" font-size="14" lengthAdjust="spacing" textLength="66.1514" x="969.1741" y="169.261">ErrorType</text><line style="stroke:#181818;stroke-width:0.5;" x1="883.01" x2="1088.9895" y1="179.97" y2="179.97"/><text fill="#000000" font-family="sans-serif" font-size="14" lengthAdjust="spacing" textLength="83.1113" x="888.01" y="197.5052">FailedDelete</text><text fill="#000000" font-family="sans-serif" font-size="14" lengthAdjust="spacing" textLength="51.9121" x="888.01" y="213.9934">DBError</text><text fill="#000000" font-family="sans-serif" font-size="14" lengthAdjust="spacing" textLength="74.5801" x="888.01" y="230.4817">RoomIsFull</text><text fill="#000000" font-family="sans-serif" font-size="14" lengthAdjust="spacing" textLength="150.7119" x="888.01" y="246.97">NoRoomLimitProvided</text><text fill="#000000" font-family="sans-serif" font-size="14" lengthAdjust="spacing" textLength="131.2568" x="888.01" y="263.4583">NoRoomWithThisID</text><text fill="#000000" font-family="sans-serif" font-size="14" lengthAdjust="spacing" textLength="168.4717" x="888.01" y="279.9466">GivenTimeIsNotRCF3339</text><text fill="#000000" font-family="sans-serif" font-size="14" lengthAdjust="spacing" textLength="143.1787" x="888.01" y="296.4348">NoEntryForThisRoom</text><text fill="#000000" font-family="sans-serif" font-size="14" lengthAdjust="spacing" textLength="110.3115" x="888.01" y="312.9231">NoEntryIDFound</text><text fill="#000000" font-family="sans-serif" font-size="14" lengthAdjust="spacing" textLength="114.8779" x="888.01" y="329.4114">NoRoomIDFound</text><text fill="#000000" font-family="sans-serif" font-size="14" lengthAdjust="spacing" textLength="92.4902" x="888.01" y="345.8997">NoDateFound</text><text fill="#000000" font-family="sans-serif" font-size="14" lengthAdjust="spacing" textLength="175.2666" x="888.01" y="362.388">NoEntry{ message: String}</text><text fill="#000000" font-family="sans-serif" font-size="14" lengthAdjust="spacing" textLength="177.1396" x="888.01" y="378.8762">FailedJoinOn{ date: String}</text><text fill="#000000" font-family="sans-serif" font-size="14" lengthAdjust="spacing" textLength="97.3574" x="888.01" y="395.3645">NoBeamResult</text><text fill="#000000" font-family="sans-serif" font-size="14" lengthAdjust="spacing" textLength="195.9795" x="888.01" y="411.8528">BeamNoTaskCouldBeCreated</text><text fill="#000000" font-family="sans-serif" font-size="14" lengthAdjust="spacing" textLength="120.4219" x="888.01" y="428.3411">NoBeamResponse</text><text fill="#000000" font-family="sans-serif" font-size="14" lengthAdjust="spacing" textLength="129.4658" x="888.01" y="444.8294">BeamNotReachable</text><text fill="#000000" font-family="sans-serif" font-size="14" lengthAdjust="spacing" textLength="70.0273" x="888.01" y="461.3177">BeamError</text><line style="stroke:#181818;stroke-width:0.5;" x1="883.01" x2="1088.9895" y1="468.2708" y2="468.2708"/></g><!--class Result--><g id="elem_Result"><rect codeLine="1" fill="#F1F1F1" height="80.9766" id="Result" rx="2.5" ry="2.5" style="stroke:#181818;stroke-width:0.5;" width="127.3154" x="532.34" y="7"/><ellipse cx="571.4396" cy="23" fill="#EB937F" rx="11" ry="11" style="stroke:#181818;stroke-width:1;"/><path d="M575.0539,29.5 L567.3341,29.5 L567.3341,17.1069 L575.0539,17.1069 L575.0539,19.2651 L569.7829,19.2651 L569.7829,21.938 L574.5558,21.938 L574.5558,24.0962 L569.7829,24.0962 L569.7829,27.3418 L575.0539,27.3418 Z " fill="#000000"/><text fill="#000000" font-family="sans-serif" font-size="14" lengthAdjust="spacing" textLength="41.7607" x="590.7951" y="28.291">Result</text><line style="stroke:#181818;stroke-width:0.5;" x1="533.34" x2="658.6554" y1="39" y2="39"/><text fill="#000000" font-family="sans-serif" font-size="14" lengthAdjust="spacing" textLength="115.3154" x="538.34" y="56.5352">T: ResponseType</text><text fill="#000000" font-family="sans-serif" font-size="14" lengthAdjust="spacing" textLength="82.5986" x="538.34" y="73.0234">E: ErrorType</text><line style="stroke:#181818;stroke-width:0.5;" x1="533.34" x2="658.6554" y1="79.9766" y2="79.9766"/></g><!--class PlannerParams--><g id="elem_PlannerParams"><rect fill="#F1F1F1" height="48" id="PlannerParams" rx="2.5" ry="2.5" style="stroke:#181818;stroke-width:0.5;" width="131.5586" x="1109.22" y="23.48"/><ellipse cx="1124.22" cy="39.48" fill="#ADD1B2" rx="11" ry="11" style="stroke:#181818;stroke-width:1;"/><path d="M1126.6931,45.6231 Q1126.1121,45.9219 1125.4729,46.0713 Q1124.8338,46.2207 1124.1282,46.2207 Q1121.6214,46.2207 1120.3015,44.5689 Q1118.9817,42.917 1118.9817,39.7959 Q1118.9817,36.6665 1120.3015,35.0147 Q1121.6214,33.3628 1124.1282,33.3628 Q1124.8338,33.3628 1125.4812,33.5122 Q1126.1287,33.6616 1126.6931,33.9605 L1126.6931,36.6831 Q1126.0623,36.1021 1125.4688,35.8323 Q1124.8753,35.5625 1124.2444,35.5625 Q1122.8997,35.5625 1122.2149,36.6292 Q1121.5301,37.6958 1121.5301,39.7959 Q1121.5301,41.8877 1122.2149,42.9544 Q1122.8997,44.021 1124.2444,44.021 Q1124.8753,44.021 1125.4688,43.7512 Q1126.0623,43.4815 1126.6931,42.9004 Z " fill="#000000"/><text fill="#000000" font-family="sans-serif" font-size="14" lengthAdjust="spacing" textLength="99.5586" x="1138.22" y="44.771">PlannerParams</text><line style="stroke:#181818;stroke-width:0.5;" x1="1110.22" x2="1239.7786" y1="55.48" y2="55.48"/><line style="stroke:#181818;stroke-width:0.5;" x1="1110.22" x2="1239.7786" y1="63.48" y2="63.48"/></g><!--reverse link ResponseType to EntryRelatedData--><g id="link_ResponseType_EntryRelatedData"><path codeLine="69" d="M199.5857,381.2372 C194.2357,438.0872 187.16,513.37 181.93,568.85 " fill="none" id="ResponseType-backto-EntryRelatedData" style="stroke:#181818;stroke-width:1;"/><polygon fill="#181818" points="200.71,369.29,196.1654,374.8888,199.5857,381.2372,204.1302,375.6384,200.71,369.29" style="stroke:#181818;stroke-width:1;"/></g><!--reverse link EntryRelatedData to RoomsRelatedData--><g id="link_EntryRelatedData_RoomsRelatedData"><path codeLine="70" d="M315.47,622.29 C326.75,622.29 326.02,622.29 337.3,622.29 " fill="none" id="EntryRelatedData-backto-RoomsRelatedData" style="stroke:#181818;stroke-width:1;"/><polygon fill="#181818" points="303.47,622.29,309.47,626.29,315.47,622.29,309.47,618.29,303.47,622.29" style="stroke:#181818;stroke-width:1;"/></g><!--reverse link RoomsRelatedData to ParticipantsList--><g id="link_RoomsRelatedData_ParticipantsList"><path codeLine="71" d="M470,720.59 C470,741.11 470,750.21 470,767.97 " fill="none" id="RoomsRelatedData-backto-ParticipantsList" style="stroke:#181818;stroke-width:1;"/><polygon fill="#181818" points="470,708.59,466,714.59,470,720.59,474,714.59,470,708.59" style="stroke:#181818;stroke-width:1;"/></g><!--reverse link ResponseType to RoomsRelatedData--><g id="link_ResponseType_RoomsRelatedData"><path codeLine="72" d="M261.9179,378.4025 C301.7779,424.9225 351.25,482.68 396.8,535.84 " fill="none" id="ResponseType-backto-RoomsRelatedData" style="stroke:#181818;stroke-width:1;"/><polygon fill="#181818" points="254.11,369.29,254.9765,376.4489,261.9179,378.4025,261.0514,371.2436,254.11,369.29" style="stroke:#181818;stroke-width:1;"/></g><!--reverse link PlannerParams to Endpoints--><g id="link_PlannerParams_Endpoints"><path codeLine="73" d="M1175,83.79 C1175,122.65 1175,189.98 1175,246.66 " fill="none" id="PlannerParams-backto-Endpoints" style="stroke:#181818;stroke-width:1;"/><polygon fill="#181818" points="1175,71.79,1171,77.79,1175,83.79,1179,77.79,1175,71.79" style="stroke:#181818;stroke-width:1;"/></g><!--link Result to ErrorType--><g id="link_Result_ErrorType"><path codeLine="74" d="M660.13,55.9 C728.97,64.91 832.8,81.81 865,104.97 C881.34,116.72 895.83,131.42 908.59,147.53 " fill="none" id="Result-ErrorType" style="stroke:#181818;stroke-width:1;"/></g><!--link Result to ResponseType--><g id="link_Result_ResponseType"><path codeLine="75" d="M532.27,59.12 C493.97,67.5 445.38,81.74 407,104.97 C342.64,143.92 284.48,208.33 247.48,254.79 " fill="none" id="Result-ResponseType" style="stroke:#181818;stroke-width:1;"/></g><!--SRC=[dLLDR-8m4BtpAopjfUqkKhKSgaM80n-fM5M00keUaPlCWXV7Zkm95KByzxMJa1YRIbKvXJTVRvx7On15HcBG1STJXvZVkc__vb9eM1zpAB5fdqoLage4pfsS9dkw1V8cvPw9xGODhAleX5EjoLIWEiR0AK8weKZ9O43kLZ_8joXwUdfyl2ShL4M2mo6fekplEs5fdx3UJmUX2kX6q0pwDiAKScnAoaptoIiaWzX-EkM6fTlP8UHxV9MGBVeHeHHqebYEJ8eRreGQrHWU_OnWfThSg0HRfb5Hcsx3MSRGzyYfGfQmd0giTLWwo8k93dNmFRwgGw511JAuXPu1rom3ZJJBFrSafKQRHIdVe4eQqXzL0sUwe9d-N5eGQIwPCEfDwo_jTLRND0qEtVCgDChi8r8DPTsOxG7KBgrFj-ku2tY_ktTw0dlr6bOjwSK1r871kqdVOB-DZns-06YxcG07X7y6Rw3u4k4KT2ztMtDL90be_RVWDZ6aDmnL_ZPtkJCShYSpinQgPj5V0SEQGnjgoRKnmGqz1qfTDf1plX5btFXVCvkCIjSh5MOwAZXleBcqu8kzLaib3onrEgviVnZkrZkcPvF6yCmE8EnKp_HSOZoEUhtUBoUiR3ao74rOx9vLRPfD8ba8lr28clR1nye49s9kb3QRztBjpfuGzkmMucG64s_upEK8Q5Q9tu0MciirrVknB7WwWh7PkNWbHnrLJeqNXp7GP4VV-BMXrV_SCU-5EtBaeTiDteTEy60yT8E9w0GZObFv6yql5gPPSYe4g7g9L7Gkcw4IXrYiUUzQp4tz7m00]--></g></svg>