<svg xmlns="http://www.w3.org/2000/svg" xmlns:xlink="http://www.w3.org/1999/xlink" contentStyleType="text/css" height="551px" preserveAspectRatio="none" style="width:309px;height:551px;background:#FFFFFF;" version="1.1" viewBox="0 0 309 551" width="309px" zoomAndPan="magnify"><defs/><g><!--cluster planner_types--><g id="cluster_planner_types"><path d="M8.5,6 L110.7471,6 A3.75,3.75 0 0 1 113.2471,8.5 L120.2471,28.4883 L299.5,28.4883 A2.5,2.5 0 0 1 302,30.9883 L302,542.22 A2.5,2.5 0 0 1 299.5,544.72 L8.5,544.72 A2.5,2.5 0 0 1 6,542.22 L6,8.5 A2.5,2.5 0 0 1 8.5,6 " fill="none" style="stroke:#000000;stroke-width:1.5;"/><line style="stroke:#000000;stroke-width:1.5;" x1="6" x2="120.2471" y1="28.4883" y2="28.4883"/><text fill="#000000" font-family="sans-serif" font-size="14" font-weight="bold" lengthAdjust="spacing" textLength="101.2471" x="10" y="21.5352">planner_types</text></g><!--class EntryRelatedData--><g id="elem_EntryRelatedData"><rect codeLine="3" fill="#F1F1F1" height="106.0859" id="EntryRelatedData" rx="2.5" ry="2.5" style="stroke:#181818;stroke-width:0.5;" width="252.0986" x="27.95" y="41"/><ellipse cx="91.7396" cy="61.3105" fill="#FF7700" rx="11" ry="11" style="stroke:#181818;stroke-width:1;"/><path d="M91.4729,62.3735 Q89.6219,61.668 88.9661,60.8918 Q88.3104,60.1157 88.3104,58.8042 Q88.3104,57.1191 89.3895,56.1563 Q90.4686,55.1934 92.3528,55.1934 Q93.2078,55.1934 94.0628,55.3884 Q94.9178,55.5835 95.7562,55.9653 L95.7562,58.356 Q94.9676,57.7998 94.1541,57.5093 Q93.3406,57.2188 92.5438,57.2188 Q91.6556,57.2188 91.1824,57.5757 Q90.7093,57.9326 90.7093,58.5967 Q90.7093,59.1113 91.0538,59.4475 Q91.3982,59.7837 92.4939,60.1904 L93.5481,60.5889 Q95.0423,61.1367 95.7479,62.0415 Q96.4534,62.9463 96.4534,64.3242 Q96.4534,66.2002 95.3453,67.1257 Q94.2371,68.0513 91.9959,68.0513 Q91.0745,68.0513 90.149,67.8313 Q89.2234,67.6113 88.3602,67.1797 L88.3602,64.6479 Q89.3396,65.3452 90.2569,65.6855 Q91.1741,66.0259 92.0706,66.0259 Q92.9754,66.0259 93.4734,65.615 Q93.9715,65.2041 93.9715,64.4653 Q93.9715,63.9092 93.6395,63.49 Q93.3074,63.0708 92.6766,62.8301 Z " fill="#000000"/><text fill="#000000" font-family="sans-serif" font-size="12" font-style="italic" lengthAdjust="spacing" textLength="46.5176" x="146.9905" y="57.6016">&#171;Struct&#187;</text><text fill="#000000" font-family="sans-serif" font-size="14" lengthAdjust="spacing" textLength="116.0195" x="112.2396" y="73.668">EntryRelatedData</text><line style="stroke:#181818;stroke-width:0.5;" x1="28.95" x2="279.0486" y1="81.6211" y2="81.6211"/><ellipse cx="38.95" cy="95.3652" fill="none" rx="3" ry="3" style="stroke:#038048;stroke-width:1;"/><text fill="#000000" font-family="sans-serif" font-size="14" lengthAdjust="spacing" textLength="43.4697" x="47.95" y="99.1563">id: i32</text><ellipse cx="38.95" cy="111.8535" fill="none" rx="3" ry="3" style="stroke:#038048;stroke-width:1;"/><text fill="#000000" font-family="sans-serif" font-size="14" lengthAdjust="spacing" textLength="122.1104" x="47.95" y="115.6445">area_name: String</text><ellipse cx="38.95" cy="128.3418" fill="none" rx="3" ry="3" style="stroke:#038048;stroke-width:1;"/><text fill="#000000" font-family="sans-serif" font-size="14" lengthAdjust="spacing" textLength="226.0986" x="47.95" y="132.1328">rooms: Vec&lt;RoomsRelatedData&gt;</text><line style="stroke:#181818;stroke-width:0.5;" x1="28.95" x2="279.0486" y1="139.0859" y2="139.0859"/></g><!--class RoomsRelatedData--><g id="elem_RoomsRelatedData"><rect codeLine="9" fill="#F1F1F1" height="172.0391" id="RoomsRelatedData" rx="2.5" ry="2.5" style="stroke:#181818;stroke-width:0.5;" width="264.8066" x="21.6" y="207.08"/><ellipse cx="85.892" cy="227.3905" fill="#FF7700" rx="11" ry="11" style="stroke:#181818;stroke-width:1;"/><path d="M85.6254,228.4535 Q83.7743,227.748 83.1186,226.9718 Q82.4628,226.1957 82.4628,224.8842 Q82.4628,223.1991 83.5419,222.2363 Q84.621,221.2734 86.5053,221.2734 Q87.3603,221.2734 88.2152,221.4684 Q89.0702,221.6635 89.9086,222.0453 L89.9086,224.436 Q89.12,223.8798 88.3065,223.5893 Q87.4931,223.2988 86.6962,223.2988 Q85.808,223.2988 85.3349,223.6557 Q84.8617,224.0126 84.8617,224.6767 Q84.8617,225.1913 85.2062,225.5275 Q85.5507,225.8637 86.6464,226.2704 L87.7006,226.6689 Q89.1947,227.2167 89.9003,228.1215 Q90.6059,229.0263 90.6059,230.4042 Q90.6059,232.2802 89.4977,233.2057 Q88.3896,234.1313 86.1483,234.1313 Q85.227,234.1313 84.3014,233.9113 Q83.3759,233.6913 82.5126,233.2597 L82.5126,230.7279 Q83.4921,231.4252 84.4093,231.7655 Q85.3266,232.1059 86.223,232.1059 Q87.1278,232.1059 87.6259,231.695 Q88.1239,231.2841 88.1239,230.5453 Q88.1239,229.9892 87.7919,229.57 Q87.4599,229.1508 86.829,228.9101 Z " fill="#000000"/><text fill="#000000" font-family="sans-serif" font-size="12" font-style="italic" lengthAdjust="spacing" textLength="46.5176" x="146.9945" y="223.6816">&#171;Struct&#187;</text><text fill="#000000" font-family="sans-serif" font-size="14" lengthAdjust="spacing" textLength="127.7227" x="106.392" y="239.748">RoomsRelatedData</text><line style="stroke:#181818;stroke-width:0.5;" x1="22.6" x2="285.4066" y1="247.7011" y2="247.7011"/><ellipse cx="32.6" cy="261.4452" fill="none" rx="3" ry="3" style="stroke:#038048;stroke-width:1;"/><text fill="#000000" font-family="sans-serif" font-size="14" lengthAdjust="spacing" textLength="43.4697" x="41.6" y="265.2363">id: i32</text><ellipse cx="32.6" cy="277.9335" fill="none" rx="3" ry="3" style="stroke:#038048;stroke-width:1;"/><text fill="#000000" font-family="sans-serif" font-size="14" lengthAdjust="spacing" textLength="129.1172" x="41.6" y="281.7245">room_name: String</text><ellipse cx="32.6" cy="294.4218" fill="none" rx="3" ry="3" style="stroke:#038048;stroke-width:1;"/><text fill="#000000" font-family="sans-serif" font-size="14" lengthAdjust="spacing" textLength="124.9063" x="41.6" y="298.2128">description: String</text><ellipse cx="32.6" cy="310.9101" fill="none" rx="3" ry="3" style="stroke:#038048;stroke-width:1;"/><text fill="#000000" font-family="sans-serif" font-size="14" lengthAdjust="spacing" textLength="85.8252" x="41.6" y="314.7011">capacity: i32</text><ellipse cx="32.6" cy="327.3984" fill="none" rx="3" ry="3" style="stroke:#038048;stroke-width:1;"/><text fill="#000000" font-family="sans-serif" font-size="14" lengthAdjust="spacing" textLength="85.2373" x="41.6" y="331.1894">entry_id: i32</text><ellipse cx="32.6" cy="343.8866" fill="none" rx="3" ry="3" style="stroke:#038048;stroke-width:1;"/><text fill="#000000" font-family="sans-serif" font-size="14" lengthAdjust="spacing" textLength="146.7676" x="41.6" y="347.6777">registration_limit: i32</text><ellipse cx="32.6" cy="360.3749" fill="none" rx="3" ry="3" style="stroke:#038048;stroke-width:1;"/><text fill="#000000" font-family="sans-serif" font-size="14" lengthAdjust="spacing" textLength="238.8066" x="41.6" y="364.1659">participants: Vec&lt;ParticipantsList&gt;</text><line style="stroke:#181818;stroke-width:0.5;" x1="22.6" x2="285.4066" y1="371.1191" y2="371.1191"/></g><!--class ParticipantsList--><g id="elem_ParticipantsList"><rect codeLine="19" fill="#F1F1F1" height="89.5977" id="ParticipantsList" rx="2.5" ry="2.5" style="stroke:#181818;stroke-width:0.5;" width="141.4727" x="83.26" y="439.12"/><ellipse cx="101.0879" cy="459.4305" fill="#FF7700" rx="11" ry="11" style="stroke:#181818;stroke-width:1;"/><path d="M100.8213,460.4935 Q98.9702,459.788 98.3144,459.0118 Q97.6587,458.2357 97.6587,456.9242 Q97.6587,455.2391 98.7378,454.2763 Q99.8169,453.3134 101.7012,453.3134 Q102.5561,453.3134 103.4111,453.5084 Q104.2661,453.7035 105.1045,454.0853 L105.1045,456.476 Q104.3159,455.9198 103.5024,455.6293 Q102.689,455.3388 101.8921,455.3388 Q101.0039,455.3388 100.5308,455.6957 Q100.0576,456.0526 100.0576,456.7167 Q100.0576,457.2313 100.4021,457.5675 Q100.7466,457.9037 101.8423,458.3104 L102.8965,458.7089 Q104.3906,459.2567 105.0962,460.1615 Q105.8017,461.0663 105.8017,462.4442 Q105.8017,464.3202 104.6936,465.2457 Q103.5854,466.1713 101.3442,466.1713 Q100.4228,466.1713 99.4973,465.9513 Q98.5718,465.7313 97.7085,465.2997 L97.7085,462.7679 Q98.688,463.4652 99.6052,463.8055 Q100.5225,464.1459 101.4189,464.1459 Q102.3237,464.1459 102.8218,463.735 Q103.3198,463.3241 103.3198,462.5853 Q103.3198,462.0292 102.9878,461.61 Q102.6558,461.1908 102.0249,460.9501 Z " fill="#000000"/><text fill="#000000" font-family="sans-serif" font-size="12" font-style="italic" lengthAdjust="spacing" textLength="46.5176" x="144.0517" y="455.7216">&#171;Struct&#187;</text><text fill="#000000" font-family="sans-serif" font-size="14" lengthAdjust="spacing" textLength="103.1885" x="115.7163" y="471.788">ParticipantsList</text><line style="stroke:#181818;stroke-width:0.5;" x1="84.26" x2="223.7327" y1="479.7411" y2="479.7411"/><ellipse cx="94.26" cy="493.4852" fill="none" rx="3" ry="3" style="stroke:#038048;stroke-width:1;"/><text fill="#000000" font-family="sans-serif" font-size="14" lengthAdjust="spacing" textLength="43.4697" x="103.26" y="497.2763">id: i32</text><ellipse cx="94.26" cy="509.9735" fill="none" rx="3" ry="3" style="stroke:#038048;stroke-width:1;"/><text fill="#000000" font-family="sans-serif" font-size="14" lengthAdjust="spacing" textLength="115.4727" x="103.26" y="513.7645">username: String</text><line style="stroke:#181818;stroke-width:0.5;" x1="84.26" x2="223.7327" y1="520.7177" y2="520.7177"/></g><!--reverse link EntryRelatedData to RoomsRelatedData--><g id="link_EntryRelatedData_RoomsRelatedData"><path codeLine="24" d="M154,159.33 C154,177.58 154,186.56 154,206.78 " fill="none" id="EntryRelatedData-backto-RoomsRelatedData" style="stroke:#181818;stroke-width:1;"/><polygon fill="#181818" points="154,147.33,150,153.33,154,159.33,158,153.33,154,147.33" style="stroke:#181818;stroke-width:1;"/></g><!--reverse link RoomsRelatedData to ParticipantsList--><g id="link_RoomsRelatedData_ParticipantsList"><path codeLine="25" d="M154,391.4 C154,411.92 154,421.02 154,438.78 " fill="none" id="RoomsRelatedData-backto-ParticipantsList" style="stroke:#181818;stroke-width:1;"/><polygon fill="#181818" points="154,379.4,150,385.4,154,391.4,158,385.4,154,379.4" style="stroke:#181818;stroke-width:1;"/></g><!--SRC=[dL4zQyD03DtlLmYwz2E1a0u1OpobcJgK1BeQSHP6n3uVEcKmmVyzkT3XEBjBD0dfFRt7aqTxnfR0T-WSIQsZft0r1kvbEmm1lfpAUAGEbPezAa9Pmkjf1I-7mswtsRp1IULYjQhW-c35-W1k2k3FRJ918QmTzbH41hissSamzA60NxBbCRQ9NFM0JQcZ7FAiewZwdwE6WXNsoeDRs5hqQ5d7_2B5hEe59Mevg60yLtVSi-O8Zw9isQFJlo1-aidtdRqGH0vvDeXB89dbC9d9p7x_lbxFuZUpVqHKxitS0000]--></g></svg>