<svg xmlns="http://www.w3.org/2000/svg" xmlns:xlink="http://www.w3.org/1999/xlink" contentStyleType="text/css" height="165px" preserveAspectRatio="none" style="width:849px;height:165px;background:#FFFFFF;" version="1.1" viewBox="0 0 849 165" width="849px" zoomAndPan="magnify"><defs/><g><rect fill="#F1F1F1" height="143.418" rx="5" ry="5" style="stroke:#F1F1F1;stroke-width:1.5;" width="426.5127" x="10" y="10"/><text fill="#000000" font-family="sans-serif" font-size="14" font-weight="bold" lengthAdjust="spacing" textLength="13.8291" x="15" y="25.5352">id</text><text fill="#000000" font-family="sans-serif" font-size="14" lengthAdjust="spacing" textLength="293.1523" x="138.3604" y="25.5352">70c0aa90-bfcf-4312-a6af-42cbd57dc0b8</text><line style="stroke:#000000;stroke-width:1;" x1="133.3604" x2="133.3604" y1="10" y2="30.4883"/><line style="stroke:#000000;stroke-width:1;" x1="10" x2="436.5127" y1="30.4883" y2="30.4883"/><text fill="#000000" font-family="sans-serif" font-size="14" font-weight="bold" lengthAdjust="spacing" textLength="34.6855" x="15" y="46.0234">from</text><text fill="#000000" font-family="sans-serif" font-size="14" lengthAdjust="spacing" textLength="135.8096" x="138.3604" y="46.0234">app1.proxy1.broker</text><line style="stroke:#000000;stroke-width:1;" x1="133.3604" x2="133.3604" y1="30.4883" y2="50.9766"/><line style="stroke:#000000;stroke-width:1;" x1="10" x2="436.5127" y1="50.9766" y2="50.9766"/><text fill="#000000" font-family="sans-serif" font-size="14" font-weight="bold" lengthAdjust="spacing" textLength="14.6152" x="15" y="66.5117">to</text><text fill="#000000" font-family="sans-serif" font-size="14" lengthAdjust="spacing" textLength="13.2891" x="138.3604" y="66.5117">&#160;&#160;&#160;</text><line style="stroke:#000000;stroke-width:1;" x1="133.3604" x2="133.3604" y1="50.9766" y2="71.4648"/><line style="stroke:#000000;stroke-width:1;" x1="10" x2="436.5127" y1="71.4648" y2="71.4648"/><text fill="#000000" font-family="sans-serif" font-size="14" font-weight="bold" lengthAdjust="spacing" textLength="35.6563" x="15" y="87">body</text><text fill="#000000" font-family="sans-serif" font-size="14" lengthAdjust="spacing" textLength="114.4404" x="138.3604" y="87">Much work to do</text><line style="stroke:#000000;stroke-width:1;" x1="133.3604" x2="133.3604" y1="71.4648" y2="91.9531"/><line style="stroke:#000000;stroke-width:1;" x1="10" x2="436.5127" y1="91.9531" y2="91.9531"/><text fill="#000000" font-family="sans-serif" font-size="14" font-weight="bold" lengthAdjust="spacing" textLength="113.3604" x="15" y="107.4883">failure_strategy</text><text fill="#000000" font-family="sans-serif" font-size="14" lengthAdjust="spacing" textLength="13.2891" x="138.3604" y="107.4883">&#160;&#160;&#160;</text><line style="stroke:#000000;stroke-width:1;" x1="133.3604" x2="133.3604" y1="91.9531" y2="112.4414"/><line style="stroke:#000000;stroke-width:1;" x1="10" x2="436.5127" y1="112.4414" y2="112.4414"/><text fill="#000000" font-family="sans-serif" font-size="14" font-weight="bold" lengthAdjust="spacing" textLength="15.9004" x="15" y="127.9766">ttl</text><text fill="#000000" font-family="sans-serif" font-size="14" lengthAdjust="spacing" textLength="24.8418" x="138.3604" y="127.9766">30s</text><line style="stroke:#000000;stroke-width:1;" x1="133.3604" x2="133.3604" y1="112.4414" y2="132.9297"/><line style="stroke:#000000;stroke-width:1;" x1="10" x2="436.5127" y1="132.9297" y2="132.9297"/><text fill="#000000" font-family="sans-serif" font-size="14" font-weight="bold" lengthAdjust="spacing" textLength="67.0947" x="15" y="148.4648">metadata</text><text fill="#000000" font-family="sans-serif" font-size="14" lengthAdjust="spacing" textLength="4.4297" x="138.3604" y="148.4648">&#160;</text><line style="stroke:#000000;stroke-width:1;" x1="133.3604" x2="133.3604" y1="132.9297" y2="153.418"/><rect fill="none" height="143.418" rx="5" ry="5" style="stroke:#000000;stroke-width:1.5;" width="426.5127" x="10" y="10"/><rect fill="#F1F1F1" height="20.4883" rx="5" ry="5" style="stroke:#F1F1F1;stroke-width:1.5;" width="145.8096" x="474" y="51.4648"/><text fill="#000000" font-family="sans-serif" font-size="14" lengthAdjust="spacing" textLength="135.8096" x="479" y="67">app2.proxy2.broker</text><rect fill="none" height="20.4883" rx="5" ry="5" style="stroke:#000000;stroke-width:1.5;" width="145.8096" x="474" y="51.4648"/><rect fill="#F1F1F1" height="20.4883" rx="5" ry="5" style="stroke:#F1F1F1;stroke-width:1.5;" width="68.0566" x="513" y="91.4648"/><text fill="#000000" font-family="sans-serif" font-size="14" font-weight="bold" lengthAdjust="spacing" textLength="34.7676" x="518" y="107">retry</text><text fill="#000000" font-family="sans-serif" font-size="14" lengthAdjust="spacing" textLength="13.2891" x="562.7676" y="107">&#160;&#160;&#160;</text><line style="stroke:#000000;stroke-width:1;" x1="557.7676" x2="557.7676" y1="91.4648" y2="111.9531"/><rect fill="none" height="20.4883" rx="5" ry="5" style="stroke:#000000;stroke-width:1.5;" width="68.0566" x="513" y="91.4648"/><rect fill="#F1F1F1" height="40.9766" rx="5" ry="5" style="stroke:#F1F1F1;stroke-width:1.5;" width="180.0498" x="657" y="81.209"/><text fill="#000000" font-family="sans-serif" font-size="14" font-weight="bold" lengthAdjust="spacing" textLength="124.6396" x="662" y="96.7441">backoff_millisecs</text><text fill="#000000" font-family="sans-serif" font-size="14" lengthAdjust="spacing" textLength="35.4102" x="796.6396" y="96.7441">1000</text><line style="stroke:#000000;stroke-width:1;" x1="791.6396" x2="791.6396" y1="81.209" y2="101.6973"/><line style="stroke:#000000;stroke-width:1;" x1="657" x2="837.0498" y1="101.6973" y2="101.6973"/><text fill="#000000" font-family="sans-serif" font-size="14" font-weight="bold" lengthAdjust="spacing" textLength="69.7881" x="662" y="117.2324">max_tries</text><text fill="#000000" font-family="sans-serif" font-size="14" lengthAdjust="spacing" textLength="8.8525" x="796.6396" y="117.2324">5</text><line style="stroke:#000000;stroke-width:1;" x1="791.6396" x2="791.6396" y1="101.6973" y2="122.1855"/><rect fill="none" height="40.9766" rx="5" ry="5" style="stroke:#000000;stroke-width:1.5;" width="180.0498" x="657" y="81.209"/><path d="M425,61.709 L438,61.709 C447.2896,61.709 457.0267,61.709 466.694,61.709 " fill="none" style="stroke:#000000;stroke-width:1;stroke-dasharray:3.0,3.0;"/><path d="M466.694,64.8002 L469.0124,61.709 L466.694,58.6177 L474.4221,61.709 L466.694,64.8002 " fill="#000000" style="stroke:#000000;stroke-width:1;"/><ellipse cx="425" cy="61.709" fill="#000000" rx="3" ry="3" style="stroke:#000000;stroke-width:1;"/><path d="M568.5,101.709 L581.5,101.709 C603.6334,101.709 627.4368,101.709 649.886,101.709 " fill="none" style="stroke:#000000;stroke-width:1;stroke-dasharray:3.0,3.0;"/><path d="M649.886,104.7317 L652.1531,101.709 L649.886,98.6862 L657.4429,101.709 L649.886,104.7317 " fill="#000000" style="stroke:#000000;stroke-width:1;"/><ellipse cx="568.5" cy="101.709" fill="#000000" rx="3" ry="3" style="stroke:#000000;stroke-width:1;"/><path d="M425,101.709 L438,101.709 C460.382,101.709 485.361,101.709 505.7046,101.709 " fill="none" style="stroke:#000000;stroke-width:1;stroke-dasharray:3.0,3.0;"/><path d="M505.7046,104.7309 L507.9711,101.709 L505.7046,98.687 L513.2595,101.709 L505.7046,104.7309 " fill="#000000" style="stroke:#000000;stroke-width:1;"/><ellipse cx="425" cy="101.709" fill="#000000" rx="3" ry="3" style="stroke:#000000;stroke-width:1;"/><!--SRC=[HP11Rzim38Nl-XM4JorG1xBhfAbFnPfqG9PinTRsKWm1BScP5biAQ3fhKEI_JueRL0T1ullU8wMxZf7uR-UT4Ey28B4wAI6vaKeYtigqgbMT5jTPdk84mobNbHxVQ2MhQN8L-Pfy6nsussMZ7VctGpQgo6yD3JhxeBw6KroHoWSgFrCVqkyJNNbzY6chNls1Vvwsm1wq_sY5jkd9h3icPBE9uFl9dP1X-hp675HRNzVhrZQDxOpgWfX9AQ_EG8jlQoPheZ0-5OzXFmuZSnDdk9RTqBSrZ1ePOp4HHo7kZDF3bpqswFXvjOIzeSvw1zaebtancbuya8NlVW_P6B9fMHHbCO7x-HD4-L9SV7rSGkTxKWQq3G-oLS_1VoaMk4VusJkshIdXnywunUpRkG1pjxVaNMiSYyNBwXEO5EaNo_3BK9W4NbPYPchi6muEvRLrcnAUdnxIgLYYs_Iu2TdQY7iVSkbGmcp-7m00]--></g></svg>