<?xml version="1.0" encoding="UTF-8" standalone="no"?><svg xmlns="http://www.w3.org/2000/svg" xmlns:xlink="http://www.w3.org/1999/xlink" contentStyleType="text/css" height="566px" preserveAspectRatio="none" style="width:456px;height:566px;background:#FFFFFF;" version="1.1" viewBox="0 0 456 566" width="456px" zoomAndPan="magnify"><defs/><g><rect fill="#F1F1F1" height="35.0938" rx="12.5" ry="12.5" style="stroke:#181818;stroke-width:0.5;" width="122" x="140.25" y="11"/><text fill="#000000" font-family="sans-serif" font-size="12" lengthAdjust="spacing" textLength="99" x="153.25" y="33.457">Störungsmeldung</text><polygon fill="#F1F1F1" points="155.25,66.0938,247.25,66.0938,259.25,78.0938,247.25,90.0938,155.25,90.0938,143.25,78.0938,155.25,66.0938" style="stroke:#181818;stroke-width:0.5;"/><text fill="#000000" font-family="sans-serif" font-size="11" lengthAdjust="spacing" textLength="89" x="155.25" y="82.5947">Bekannte Ursache</text><text fill="#000000" font-family="sans-serif" font-size="11" lengthAdjust="spacing" textLength="11" x="132.25" y="75.6768">Ja</text><text fill="#000000" font-family="sans-serif" font-size="11" lengthAdjust="spacing" textLength="21" x="259.25" y="75.6768">Nein</text><rect fill="#F1F1F1" height="35.0938" rx="12.5" ry="12.5" style="stroke:#181818;stroke-width:0.5;" width="167" x="11" y="100.0938"/><text fill="#000000" font-family="sans-serif" font-size="12" lengthAdjust="spacing" textLength="141" x="24" y="122.5508">First Level Support Suport</text><rect fill="#F1F1F1" height="35.0938" rx="12.5" ry="12.5" style="stroke:#181818;stroke-width:0.5;" width="70" x="273" y="100.0938"/><text fill="#000000" font-family="sans-serif" font-size="12" lengthAdjust="spacing" textLength="47" x="286" y="122.5508">Problem</text><rect fill="#F1F1F1" height="35.0938" rx="12.5" ry="12.5" style="stroke:#181818;stroke-width:0.5;" width="220" x="198" y="155.1875"/><text fill="#000000" font-family="sans-serif" font-size="12" lengthAdjust="spacing" textLength="197" x="211" y="177.6445">Problemmanagment Wissensdaten</text><polygon fill="#F1F1F1" points="263,230.2813,353,230.2813,365,242.2813,353,254.2813,263,254.2813,251,242.2813,263,230.2813" style="stroke:#181818;stroke-width:0.5;"/><text fill="#000000" font-family="sans-serif" font-size="11" lengthAdjust="spacing" textLength="11" x="312" y="265.7002">Ja</text><text fill="#000000" font-family="sans-serif" font-size="11" lengthAdjust="spacing" textLength="90" x="263" y="246.7822">Ursache gefunden</text><text fill="#000000" font-family="sans-serif" font-size="11" lengthAdjust="spacing" textLength="21" x="365" y="239.8643">Nein</text><rect fill="#F1F1F1" height="35.0938" rx="12.5" ry="12.5" style="stroke:#181818;stroke-width:0.5;" width="58" x="279" y="287.2002"/><text fill="#000000" font-family="sans-serif" font-size="12" lengthAdjust="spacing" textLength="35" x="292" y="309.6572">Fehler</text><polygon fill="#F1F1F1" points="201.25,328.2939,213.25,340.2939,201.25,352.2939,189.25,340.2939,201.25,328.2939" style="stroke:#181818;stroke-width:0.5;"/><rect fill="#F1F1F1" height="35.0938" rx="12.5" ry="12.5" style="stroke:#181818;stroke-width:0.5;" width="142" x="130.25" y="421.2119"/><text fill="#000000" font-family="sans-serif" font-size="12" lengthAdjust="spacing" textLength="119" x="143.25" y="443.6689">Change Management</text><polygon fill="#F1F1F1" points="135.75,372.2939,266.75,372.2939,278.75,384.2939,266.75,396.2939,135.75,396.2939,123.75,384.2939,135.75,372.2939" style="stroke:#181818;stroke-width:0.5;"/><text fill="#000000" font-family="sans-serif" font-size="11" lengthAdjust="spacing" textLength="11" x="205.25" y="407.7129">Ja</text><text fill="#000000" font-family="sans-serif" font-size="11" lengthAdjust="spacing" textLength="131" x="135.75" y="388.7949">Infrastrukturänderung nötig</text><text fill="#000000" font-family="sans-serif" font-size="11" lengthAdjust="spacing" textLength="21" x="278.75" y="381.877">Nein</text><polygon fill="#F1F1F1" points="201.25,476.3057,213.25,488.3057,201.25,500.3057,189.25,488.3057,201.25,476.3057" style="stroke:#181818;stroke-width:0.5;"/><rect fill="#F1F1F1" height="35.0938" rx="12.5" ry="12.5" style="stroke:#181818;stroke-width:0.5;" width="118" x="142.25" y="520.3057"/><text fill="#000000" font-family="sans-serif" font-size="12" lengthAdjust="spacing" textLength="95" x="155.25" y="542.7627">Störung beheben</text><line style="stroke:#181818;stroke-width:1.0;" x1="308" x2="308" y1="190.2813" y2="230.2813"/><polygon fill="#181818" points="304,220.2813,308,230.2813,312,220.2813,308,224.2813" style="stroke:#181818;stroke-width:1.0;"/><line style="stroke:#181818;stroke-width:1.0;" x1="365" x2="430" y1="242.2813" y2="242.2813"/><polygon fill="#181818" points="426,210.2813,430,200.2813,434,210.2813,430,206.2813" style="stroke:#181818;stroke-width:1.0;"/><line style="stroke:#181818;stroke-width:1.0;" x1="430" x2="430" y1="172.7344" y2="242.2813"/><line style="stroke:#181818;stroke-width:1.0;" x1="430" x2="418" y1="172.7344" y2="172.7344"/><polygon fill="#181818" points="428,168.7344,418,172.7344,428,176.7344,424,172.7344" style="stroke:#181818;stroke-width:1.0;"/><line style="stroke:#181818;stroke-width:1.0;" x1="308" x2="308" y1="135.1875" y2="155.1875"/><polygon fill="#181818" points="304,145.1875,308,155.1875,312,145.1875,308,149.1875" style="stroke:#181818;stroke-width:1.0;"/><line style="stroke:#181818;stroke-width:1.0;" x1="308" x2="308" y1="254.2813" y2="287.2002"/><polygon fill="#181818" points="304,277.2002,308,287.2002,312,277.2002,308,281.2002" style="stroke:#181818;stroke-width:1.0;"/><line style="stroke:#181818;stroke-width:1.0;" x1="143.25" x2="94.5" y1="78.0938" y2="78.0938"/><line style="stroke:#181818;stroke-width:1.0;" x1="94.5" x2="94.5" y1="78.0938" y2="100.0938"/><polygon fill="#181818" points="90.5,90.0938,94.5,100.0938,98.5,90.0938,94.5,94.0938" style="stroke:#181818;stroke-width:1.0;"/><line style="stroke:#181818;stroke-width:1.0;" x1="259.25" x2="308" y1="78.0938" y2="78.0938"/><line style="stroke:#181818;stroke-width:1.0;" x1="308" x2="308" y1="78.0938" y2="100.0938"/><polygon fill="#181818" points="304,90.0938,308,100.0938,312,90.0938,308,94.0938" style="stroke:#181818;stroke-width:1.0;"/><line style="stroke:#181818;stroke-width:1.0;" x1="94.5" x2="94.5" y1="135.1875" y2="340.2939"/><line style="stroke:#181818;stroke-width:1.0;" x1="94.5" x2="189.25" y1="340.2939" y2="340.2939"/><polygon fill="#181818" points="179.25,336.2939,189.25,340.2939,179.25,344.2939,183.25,340.2939" style="stroke:#181818;stroke-width:1.0;"/><line style="stroke:#181818;stroke-width:1.0;" x1="308" x2="308" y1="322.2939" y2="340.2939"/><line style="stroke:#181818;stroke-width:1.0;" x1="308" x2="213.25" y1="340.2939" y2="340.2939"/><polygon fill="#181818" points="223.25,336.2939,213.25,340.2939,223.25,344.2939,219.25,340.2939" style="stroke:#181818;stroke-width:1.0;"/><line style="stroke:#181818;stroke-width:1.0;" x1="201.25" x2="201.25" y1="46.0938" y2="66.0938"/><polygon fill="#181818" points="197.25,56.0938,201.25,66.0938,205.25,56.0938,201.25,60.0938" style="stroke:#181818;stroke-width:1.0;"/><line style="stroke:#181818;stroke-width:1.0;" x1="201.25" x2="201.25" y1="396.2939" y2="421.2119"/><polygon fill="#181818" points="197.25,411.2119,201.25,421.2119,205.25,411.2119,201.25,415.2119" style="stroke:#181818;stroke-width:1.0;"/><line style="stroke:#181818;stroke-width:1.0;" x1="278.75" x2="290.75" y1="384.2939" y2="384.2939"/><polygon fill="#181818" points="286.75,428.7588,290.75,438.7588,294.75,428.7588,290.75,432.7588" style="stroke:#181818;stroke-width:1.0;"/><line style="stroke:#181818;stroke-width:1.0;" x1="290.75" x2="290.75" y1="384.2939" y2="488.3057"/><line style="stroke:#181818;stroke-width:1.0;" x1="290.75" x2="213.25" y1="488.3057" y2="488.3057"/><polygon fill="#181818" points="223.25,484.3057,213.25,488.3057,223.25,492.3057,219.25,488.3057" style="stroke:#181818;stroke-width:1.0;"/><line style="stroke:#181818;stroke-width:1.0;" x1="201.25" x2="201.25" y1="456.3057" y2="476.3057"/><polygon fill="#181818" points="197.25,466.3057,201.25,476.3057,205.25,466.3057,201.25,470.3057" style="stroke:#181818;stroke-width:1.0;"/><line style="stroke:#181818;stroke-width:1.0;" x1="201.25" x2="201.25" y1="352.2939" y2="372.2939"/><polygon fill="#181818" points="197.25,362.2939,201.25,372.2939,205.25,362.2939,201.25,366.2939" style="stroke:#181818;stroke-width:1.0;"/><line style="stroke:#181818;stroke-width:1.0;" x1="201.25" x2="201.25" y1="500.3057" y2="520.3057"/><polygon fill="#181818" points="197.25,510.3057,201.25,520.3057,205.25,510.3057,201.25,514.3057" style="stroke:#181818;stroke-width:1.0;"/><!--MD5=[ad0b2f602056410bd4421ddc70c00e63]
@startuml "Zusammenhänge zwischen Störung, Problem und Fehler beim Service Support"
: Störungsmeldung;
if (Bekannte Ursache ) then (Ja)
: First Level Support Suport ;
else (Nein)
: Problem;
repeat : Problemmanagment Wissensdaten;
repeat while(Ursache gefunden) is (Nein) not (Ja)
: Fehler;
endif
if (Infrastrukturänderung nötig) then (Ja)
: Change Management;
else (Nein)
endif
: Störung beheben;
@enduml

PlantUML version 1.2022.7(Mon Aug 22 19:01:30 CEST 2022)
(GPL source distribution)
Java Runtime: OpenJDK Runtime Environment
JVM: OpenJDK 64-Bit Server VM
Default Encoding: UTF-8
Language: de
Country: DE
--></g></svg>