<svg xmlns="http://www.w3.org/2000/svg" xmlns:xlink="http://www.w3.org/1999/xlink" contentStyleType="text/css" height="266px" preserveAspectRatio="none" style="width:1156px;height:266px;background:#FFFFFF;" version="1.1" viewBox="0 0 1156 266" width="1156px" zoomAndPan="magnify"><defs/><g><!--cluster Buchhandlung--><g id="cluster_Buchhandlung"><rect fill="none" height="115.99" rx="2.5" ry="2.5" style="stroke:#181818;stroke-width:1;" width="853" x="233.98" y="144.99"/><text fill="#000000" font-family="sans-serif" font-size="14" font-weight="bold" lengthAdjust="spacing" textLength="102.7305" x="609.1148" y="160.5252">Buchhandlung</text></g><g id="elem_Buch kaufen"><ellipse cx="315.9776" cy="221.9755" fill="#F1F1F1" rx="66.2776" ry="15.6555" style="stroke:#181818;stroke-width:0.5;"/><text fill="#000000" font-family="sans-serif" font-size="14" lengthAdjust="spacing" textLength="83.2686" x="271.3433" y="225.9931">Buch kaufen</text></g><g id="elem_bezahlen"><ellipse cx="1015.9753" cy="221.9792" fill="#F1F1F1" rx="55.3953" ry="14.7392" style="stroke:#181818;stroke-width:0.5;"/><text fill="#000000" font-family="sans-serif" font-size="14" lengthAdjust="spacing" textLength="61.5918" x="982.1794" y="225.9968">bezahlen</text></g><g id="elem_Mit Kreditkarte bezahlen"><ellipse cx="823.9827" cy="221.9785" fill="#F1F1F1" rx="101.6427" ry="22.7285" style="stroke:#181818;stroke-width:0.5;"/><text fill="#000000" font-family="sans-serif" font-size="14" lengthAdjust="spacing" textLength="167.2344" x="740.3655" y="225.2696">Mit Kreditkarte bezahlen</text></g><g id="elem_Als Geschenk verpackern"><ellipse cx="583.9799" cy="221.976" fill="#F1F1F1" rx="102.9799" ry="22.996" style="stroke:#181818;stroke-width:0.5;"/><text fill="#000000" font-family="sans-serif" font-size="14" lengthAdjust="spacing" textLength="170.1738" x="498.8929" y="225.267">Als Geschenk verpackern</text></g><!--entity Kunde--><g id="elem_Kunde"><ellipse cx="1127.984" cy="192.24" fill="#F1F1F1" rx="8" ry="8" style="stroke:#181818;stroke-width:0.5;"/><path d="M1127.984,200.24 L1127.984,227.24 M1114.984,208.24 L1140.984,208.24 M1127.984,227.24 L1114.984,242.24 M1127.984,227.24 L1140.984,242.24 " fill="none" style="stroke:#181818;stroke-width:0.5;"/><text fill="#000000" font-family="sans-serif" font-size="14" lengthAdjust="spacing" textLength="43.1279" x="1106.42" y="257.2752">Kunde</text></g><!--entity Mitarbeiter--><g id="elem_Mitarbeiter"><ellipse cx="99.9823" cy="14" fill="#F1F1F1" rx="8" ry="8" style="stroke:#181818;stroke-width:0.5;"/><path d="M99.9823,22 L99.9823,49 M86.9823,30 L112.9823,30 M99.9823,49 L86.9823,64 M99.9823,49 L112.9823,64 " fill="none" style="stroke:#181818;stroke-width:0.5;"/><text fill="#000000" font-family="sans-serif" font-size="14" lengthAdjust="spacing" textLength="74.2246" x="62.87" y="79.0352">Mitarbeiter</text></g><!--entity Verk?ufer--><g id="elem_Verk&#228;ufer"><ellipse cx="38.98" cy="192.24" fill="#F1F1F1" rx="8" ry="8" style="stroke:#181818;stroke-width:0.5;"/><path d="M38.98,200.24 L38.98,227.24 M25.98,208.24 L51.98,208.24 M38.98,227.24 L25.98,242.24 M38.98,227.24 L51.98,242.24 " fill="none" style="stroke:#181818;stroke-width:0.5;"/><text fill="#000000" font-family="sans-serif" font-size="14" lengthAdjust="spacing" textLength="65.96" x="6" y="257.2752">Verk&#228;ufer</text></g><!--entity Abteilungsleiter--><g id="elem_Abteilungsleiter"><ellipse cx="160.981" cy="192.24" fill="#F1F1F1" rx="8" ry="8" style="stroke:#181818;stroke-width:0.5;"/><path d="M160.981,200.24 L160.981,227.24 M147.981,208.24 L173.981,208.24 M160.981,227.24 L147.981,242.24 M160.981,227.24 L173.981,242.24 " fill="none" style="stroke:#181818;stroke-width:0.5;"/><text fill="#000000" font-family="sans-serif" font-size="14" lengthAdjust="spacing" textLength="107.502" x="107.23" y="257.2752">Abteilungsleiter</text></g><!--entity Kasse <<maschineller Akteure>>--><g id="elem_Kasse &lt;&lt;maschineller Akteure&gt;&gt;"><rect fill="#F1F1F1" height="46.4883" rx="2.5" ry="2.5" style="stroke:#181818;stroke-width:0.5;" width="241.5234" x="172.22" y="20.5"/><rect fill="#F1F1F1" height="10" style="stroke:#181818;stroke-width:0.5;" width="15" x="393.7434" y="25.5"/><rect fill="#F1F1F1" height="2" style="stroke:#181818;stroke-width:0.5;" width="4" x="391.7434" y="27.5"/><rect fill="#F1F1F1" height="2" style="stroke:#181818;stroke-width:0.5;" width="4" x="391.7434" y="31.5"/><text fill="#000000" font-family="sans-serif" font-size="14" lengthAdjust="spacing" textLength="201.5234" x="187.22" y="54.0352">Kasse &#171;maschineller Akteure&#187;</text></g><!--reverse link Mitarbeiter to Verk?ufer--><g id="link_Mitarbeiter_Verk&#228;ufer"><path d="M81.1565,99.1313 C70.8465,128.9413 62.34,153.49 52,183.36 " fill="none" id="Mitarbeiter-backto-Verk&#228;ufer" style="stroke:#181818;stroke-width:1;"/><polygon fill="none" points="87.04,82.12,75.4861,97.1701,86.827,101.0925,87.04,82.12" style="stroke:#181818;stroke-width:1;"/></g><!--reverse link Mitarbeiter to Abteilungsleiter--><g id="link_Mitarbeiter_Abteilungsleiter"><path d="M118.8035,99.1313 C129.1135,128.9413 137.62,153.49 147.96,183.36 " fill="none" id="Mitarbeiter-backto-Abteilungsleiter" style="stroke:#181818;stroke-width:1;"/><polygon fill="none" points="112.92,82.12,113.133,101.0925,124.4739,97.1701,112.92,82.12" style="stroke:#181818;stroke-width:1;"/></g><!--link Verk?ufer to Buch kaufen--><g id="link_Verk&#228;ufer_Buch kaufen"><path d="M51.03,183.39 C61.43,157.32 79.32,124.95 107.48,109.49 C149.17,86.6 171.03,90.17 214.48,109.49 C259.43,129.47 292.87,180.29 307.63,206.23 " fill="none" id="Verk&#228;ufer-Buch kaufen" style="stroke:#181818;stroke-width:1;"/><text fill="#000000" font-family="sans-serif" font-size="13" lengthAdjust="spacing" textLength="8.2202" x="44.4325" y="173.0626">2</text></g><!--link Kunde to Buch kaufen--><g id="link_Kunde_Buch kaufen"><path d="M1119.64,183.32 C1111.67,157.03 1096.69,124.42 1069.48,109.49 C1012.21,78.05 543.92,90.27 481.48,109.49 C419.05,128.7 359.06,180.36 331.59,206.45 " fill="none" id="Kunde-Buch kaufen" style="stroke:#181818;stroke-width:1;"/></g><!--link Buch kaufen to bezahlen--><g id="link_Buch kaufen_bezahlen"><path d="M335.11,206.63 C362,186.12 413.37,150.76 463.98,136.99 C515.34,123.02 894.7,114.6 942.98,136.99 C974.39,151.55 994.5187,181.7026 1005.6387,201.9226 " fill="none" id="Buch kaufen-to-bezahlen" style="stroke:#181818;stroke-width:1;stroke-dasharray:7.0,7.0;"/><polygon fill="#181818" points="1008.53,207.18,1007.698,197.3664,1006.1206,202.7988,1000.6881,201.2214,1008.53,207.18" style="stroke:#181818;stroke-width:1;"/><text fill="#000000" font-family="sans-serif" font-size="13" lengthAdjust="spacing" textLength="59.3442" x="641.48" y="125.5584">&#171;Include&#187;</text></g><!--link Mit Kreditkarte bezahlen to bezahlen--><g id="link_Mit Kreditkarte bezahlen_bezahlen"><path d="M925.98,221.98 C937.46,221.98 930.95,221.98 942.43,221.98 " fill="none" id="Mit Kreditkarte bezahlen-to-bezahlen" style="stroke:#181818;stroke-width:1;"/><polygon fill="none" points="960.43,221.98,942.43,215.98,942.43,227.98,960.43,221.98" style="stroke:#181818;stroke-width:1;"/></g><!--reverse link Buch kaufen to Als Geschenk verpackern--><g id="link_Buch kaufen_Als Geschenk verpackern"><path d="M388.57,221.98 C418.18,221.98 447.73,221.98 480.66,221.98 " fill="none" id="Buch kaufen-backto-Als Geschenk verpackern" style="stroke:#181818;stroke-width:1;stroke-dasharray:7.0,7.0;"/><polygon fill="#181818" points="382.57,221.98,391.57,225.98,387.57,221.98,391.57,217.98,382.57,221.98" style="stroke:#181818;stroke-width:1;"/><text fill="#000000" font-family="sans-serif" font-size="13" lengthAdjust="spacing" textLength="62.7466" x="400.63" y="215.5484">&#171;exclude&#187;</text></g><!--SRC=[POzDJiCm48NtSufHLs6HBbXMKQImGIXYomQnc3YF9h9hqDYk49JRS1CkXbCA3SGhptllcnynyKcvJRu7oV5_EqRH3cE4dfGxgFtyI8-_GjD5Z2xvRN3VkHd3rQ4ivyZ2Mz142XF5RntuAfbX4DzFFh_HkG-lBbTSSZ45s4gM_0KTzrweVofUrrnqU9N1JTM6g-h66vTwr3LHaRVZLj6FqOf6y3bP7kOW_UjQhRbeNE1h13F0Mzv3dyLOw6a8Ndw6lDFqxbi90TdOIIP63-VoKOsDI9fJ3qHV]--></g></svg>