<svg xmlns="http://www.w3.org/2000/svg" xmlns:xlink="http://www.w3.org/1999/xlink" contentStyleType="text/css" height="345px" preserveAspectRatio="none" style="width:582px;height:345px;background:#FFFFFF;" version="1.1" viewBox="0 0 582 345" width="582px" zoomAndPan="magnify"><defs/><g><!--cluster Apotheke--><g id="cluster_Apotheke"><rect fill="none" height="332.04" rx="2.5" ry="2.5" style="stroke:#181818;stroke-width:1;" width="321" x="176.25" y="7"/><text fill="#000000" font-family="sans-serif" font-size="14" font-weight="bold" lengthAdjust="spacing" textLength="68.6602" x="302.4199" y="22.5352">Apotheke</text></g><g id="elem_beraten"><ellipse cx="240.2482" cy="194.229" fill="#F1F1F1" rx="48.1882" ry="14.679" style="stroke:#181818;stroke-width:0.5;"/><text fill="#000000" font-family="sans-serif" font-size="14" lengthAdjust="spacing" textLength="51.7959" x="212.4779" y="198.004">beraten</text></g><g id="elem_bezahlen"><ellipse cx="299.2453" cy="56.7392" fill="#F1F1F1" rx="55.3953" ry="14.7392" style="stroke:#181818;stroke-width:0.5;"/><text fill="#000000" font-family="sans-serif" font-size="14" lengthAdjust="spacing" textLength="61.5918" x="265.4494" y="60.7568">bezahlen</text></g><g id="elem_Arznei herstellen"><ellipse cx="402.2527" cy="194.2305" fill="#F1F1F1" rx="78.8527" ry="18.1705" style="stroke:#181818;stroke-width:0.5;"/><text fill="#000000" font-family="sans-serif" font-size="14" lengthAdjust="spacing" textLength="115.3496" x="344.5779" y="197.5215">Arznei herstellen</text></g><g id="elem_Bestellung"><ellipse cx="411.2499" cy="308.2648" fill="#F1F1F1" rx="61.7699" ry="14.7848" style="stroke:#181818;stroke-width:0.5;"/><text fill="#000000" font-family="sans-serif" font-size="14" lengthAdjust="spacing" textLength="70.2256" x="373.1371" y="312.2824">Bestellung</text></g><!--entity Kunde--><g id="elem_Kunde"><ellipse cx="138.244" cy="26.99" fill="#F1F1F1" rx="8" ry="8" style="stroke:#181818;stroke-width:0.5;"/><path d="M138.244,34.99 L138.244,61.99 M125.244,42.99 L151.244,42.99 M138.244,61.99 L125.244,76.99 M138.244,61.99 L151.244,76.99 " fill="none" style="stroke:#181818;stroke-width:0.5;"/><text fill="#000000" font-family="sans-serif" font-size="14" lengthAdjust="spacing" textLength="43.1279" x="116.68" y="92.0252">Kunde</text></g><!--entity Privatperson--><g id="elem_Privatperson"><ellipse cx="48.2461" cy="164.48" fill="#F1F1F1" rx="8" ry="8" style="stroke:#181818;stroke-width:0.5;"/><path d="M48.2461,172.48 L48.2461,199.48 M35.2461,180.48 L61.2461,180.48 M48.2461,199.48 L35.2461,214.48 M48.2461,199.48 L61.2461,214.48 " fill="none" style="stroke:#181818;stroke-width:0.5;"/><text fill="#000000" font-family="sans-serif" font-size="14" lengthAdjust="spacing" textLength="84.4922" x="6" y="229.5152">Privatperson</text></g><!--entity Arzt--><g id="elem_Arzt"><ellipse cx="140.2447" cy="164.48" fill="#F1F1F1" rx="8" ry="8" style="stroke:#181818;stroke-width:0.5;"/><path d="M140.2447,172.48 L140.2447,199.48 M127.2447,180.48 L153.2447,180.48 M140.2447,199.48 L127.2447,214.48 M140.2447,199.48 L153.2447,214.48 " fill="none" style="stroke:#181818;stroke-width:0.5;"/><text fill="#000000" font-family="sans-serif" font-size="14" lengthAdjust="spacing" textLength="28.6494" x="125.92" y="229.5152">Arzt</text></g><!--entity Apoteker--><g id="elem_Apoteker"><ellipse cx="544.2487" cy="26.99" fill="#F1F1F1" rx="8" ry="8" style="stroke:#181818;stroke-width:0.5;"/><path d="M544.2487,34.99 L544.2487,61.99 M531.2487,42.99 L557.2487,42.99 M544.2487,61.99 L531.2487,76.99 M544.2487,61.99 L557.2487,76.99 " fill="none" style="stroke:#181818;stroke-width:0.5;"/><text fill="#000000" font-family="sans-serif" font-size="14" lengthAdjust="spacing" textLength="61.8174" x="513.34" y="92.0252">Apoteker</text></g><!--reverse link Kunde to Privatperson--><g id="link_Kunde_Privatperson"><path d="M106.2719,105.8745 C93.2619,125.4645 86.71,135.33 73.21,155.64 " fill="none" id="Kunde-backto-Privatperson" style="stroke:#181818;stroke-width:1;"/><polygon fill="none" points="116.23,90.88,101.2737,102.5552,111.2701,109.1939,116.23,90.88" style="stroke:#181818;stroke-width:1;"/></g><!--reverse link Kunde to Arzt--><g id="link_Kunde_Arzt"><path d="M139.0682,113.478 C139.3482,132.268 139.41,136.92 139.69,155.69 " fill="none" id="Kunde-backto-Arzt" style="stroke:#181818;stroke-width:1;"/><polygon fill="none" points="138.8,95.48,133.0689,113.5674,145.0675,113.3886,138.8,95.48" style="stroke:#181818;stroke-width:1;"/></g><!--link bezahlen to beraten--><g id="link_bezahlen_beraten"><path d="M293.15,71.73 C281.79,97.83 257.49,153.63 246.22,179.51 " fill="none" id="bezahlen-beraten" style="stroke:#181818;stroke-width:1;"/></g><!--link Kunde to beraten--><g id="link_Kunde_beraten"><path d="M160.13,86.8 C181.67,115.42 213.63,157.88 229.91,179.5 " fill="none" id="Kunde-beraten" style="stroke:#181818;stroke-width:1;"/></g><!--link Kunde to bezahlen--><g id="link_Kunde_bezahlen"><path d="M160.26,56.74 C188.04,56.74 215.82,56.74 243.6,56.74 " fill="none" id="Kunde-bezahlen" style="stroke:#181818;stroke-width:1;"/></g><!--link Apoteker to beraten--><g id="link_Apoteker_beraten"><path d="M512.95,85.02 C507.9,88.68 502.58,92.14 497.25,94.98 C418.6,136.89 387.92,120.34 306.25,155.98 C290.21,162.98 273.02,172.76 260.21,180.54 " fill="none" id="Apoteker-beraten" style="stroke:#181818;stroke-width:1;"/><text fill="#000000" font-family="sans-serif" font-size="13" lengthAdjust="spacing" textLength="8.2202" x="497.2525" y="87.1692">1</text></g><!--link Apoteker to bezahlen--><g id="link_Apoteker_bezahlen"><path d="M513.18,56.74 C473.41,56.74 403.83,56.74 354.84,56.74 " fill="none" id="Apoteker-bezahlen" style="stroke:#181818;stroke-width:1;"/><text fill="#000000" font-family="sans-serif" font-size="13" lengthAdjust="spacing" textLength="51.7778" x="408.49" y="50.3084">verkauft</text></g><!--link bezahlen to Arznei herstellen--><!--link Arznei herstellen to Bestellung--><!--link Apoteker to Arznei herstellen--><g id="link_Apoteker_Arznei herstellen"><path d="M513.08,87.47 C484.51,114.74 443.21,154.14 419.93,176.35 " fill="none" id="Apoteker-Arznei herstellen" style="stroke:#181818;stroke-width:1;"/><text fill="#000000" font-family="sans-serif" font-size="13" lengthAdjust="spacing" textLength="8.2202" x="496.9727" y="108.9163">2</text></g><!--link Apoteker to Bestellung--><g id="link_Apoteker_Bestellung"><path d="M540.88,95.42 C536.11,132.66 524.78,190.05 498.25,232.47 C481.77,258.81 453.06,280.82 433.16,293.99 " fill="none" id="Apoteker-Bestellung" style="stroke:#181818;stroke-width:1;"/><text fill="#000000" font-family="sans-serif" font-size="13" lengthAdjust="spacing" textLength="33.6299" x="530.1" y="199.2984">t&#228;tigt</text></g><!--SRC=[TKyn3i8m4DlpYXCBC7I04R70oiAE608zseZgMXtNIXJu3J_XOnoXG29WYkNOPzjkfMHOr9IYiHulsJLMAkH3IHqrurQCry3qd2In9E2zhhDKfU0UsJ1knL9MeATovU1ap623R0Lf-42jpOiOWXxxI9u9VvYN-HK8lL4lqhu_GZbCe47UstedMaPx4ph8TP1WyUmoHuzhoeQc3pK9CZgocilGgVGz5XZLNkKkJP7MclNhw3SNMSBCpvwnt_FZNBWiiEeskLt5PM8kTm00]--></g></svg>