<?xml version="1.0" encoding="UTF-8" standalone="no"?><svg xmlns="http://www.w3.org/2000/svg" xmlns:xlink="http://www.w3.org/1999/xlink" contentStyleType="text/css" height="348px" preserveAspectRatio="none" style="width:479px;height:348px;background:#FFFFFF;" version="1.1" viewBox="0 0 479 348" width="479px" zoomAndPan="magnify"><defs/><g><!--MD5=[4e13963c9dc916a21a8436ef39422b32]
class Component--><g id="elem_Component"><rect codeLine="2" fill="#F1F1F1" height="65.6094" id="Component" rx="2.5" ry="2.5" style="stroke:#181818;stroke-width:0.5;" width="130" x="223" y="7"/><ellipse cx="249.25" cy="23" fill="#B4A7E5" rx="11" ry="11" style="stroke:#181818;stroke-width:1.0;"/><path d="M250.2031,19.6406 L250.2031,26.2969 L251.9219,26.2969 Q252.5313,26.2969 252.7969,26.5313 Q253.0625,26.7656 253.0625,27.1563 Q253.0625,27.5313 252.7969,27.7656 Q252.5313,28 251.9219,28 L246.7813,28 Q246.1719,28 245.9063,27.7656 Q245.6406,27.5313 245.6406,27.1406 Q245.6406,26.7656 245.9063,26.5313 Q246.1719,26.2969 246.7813,26.2969 L248.5,26.2969 L248.5,19.6406 L246.7813,19.6406 Q246.1719,19.6406 245.9063,19.4063 Q245.6406,19.1719 245.6406,18.7813 Q245.6406,18.4063 245.9063,18.1719 Q246.1719,17.9375 246.7813,17.9375 L251.9219,17.9375 Q252.5313,17.9375 252.7969,18.1719 Q253.0625,18.4063 253.0625,18.7813 Q253.0625,19.1719 252.7969,19.4063 Q252.5313,19.6406 251.9219,19.6406 L250.2031,19.6406 Z " fill="#000000"/><text fill="#000000" font-family="sans-serif" font-size="14" font-style="italic" lengthAdjust="spacing" textLength="73" x="265.75" y="28.7285">Component</text><line style="stroke:#181818;stroke-width:0.5;" x1="224" x2="352" y1="39" y2="39"/><line style="stroke:#181818;stroke-width:0.5;" x1="224" x2="352" y1="47" y2="47"/><ellipse cx="234" cy="61.3047" fill="#84BE84" rx="3" ry="3" style="stroke:#038048;stroke-width:1.0;"/><text fill="#000000" font-family="sans-serif" font-size="14" lengthAdjust="spacing" textLength="104" x="243" y="65.5332">operation(): void</text></g><!--MD5=[b5bc18f2ff550a3ef28474c0b2646ebb]
class ConcreteComponent--><g id="elem_ConcreteComponent"><rect codeLine="6" fill="#F1F1F1" height="65.6094" id="ConcreteComponent" rx="2.5" ry="2.5" style="stroke:#181818;stroke-width:0.5;" width="163" x="309.5" y="141.5"/><ellipse cx="324.5" cy="157.5" fill="#ADD1B2" rx="11" ry="11" style="stroke:#181818;stroke-width:1.0;"/><path d="M327.2656,153.375 Q327.4219,153.1563 327.6094,153.0469 Q327.7969,152.9375 328.0156,152.9375 Q328.3906,152.9375 328.625,153.2031 Q328.8594,153.4531 328.8594,154.0625 L328.8594,155.5156 Q328.8594,156.125 328.625,156.3906 Q328.3906,156.6563 328.0156,156.6563 Q327.6719,156.6563 327.4688,156.4531 Q327.2656,156.2656 327.1563,155.75 Q327.1094,155.3906 326.9219,155.2031 Q326.5938,154.8281 325.9844,154.6094 Q325.375,154.3906 324.75,154.3906 Q323.9844,154.3906 323.3438,154.7188 Q322.7188,155.0469 322.2188,155.7969 Q321.7344,156.5469 321.7344,157.5781 L321.7344,158.6719 Q321.7344,159.9063 322.625,160.7344 Q323.5156,161.5469 325.1094,161.5469 Q326.0469,161.5469 326.7031,161.2969 Q327.0938,161.1406 327.5156,160.7031 Q327.7813,160.4375 327.9219,160.3594 Q328.0781,160.2813 328.2813,160.2813 Q328.6094,160.2813 328.8594,160.5469 Q329.125,160.7969 329.125,161.1406 Q329.125,161.4844 328.7813,161.8906 Q328.2813,162.4688 327.4844,162.7969 Q326.4063,163.25 325.1094,163.25 Q323.5938,163.25 322.3906,162.625 Q321.4063,162.125 320.7188,161.0625 Q320.0313,159.9844 320.0313,158.7031 L320.0313,157.5469 Q320.0313,156.2188 320.6406,155.0781 Q321.2656,153.9219 322.3594,153.3125 Q323.4531,152.6875 324.6875,152.6875 Q325.4219,152.6875 326.0625,152.8594 Q326.7188,153.0156 327.2656,153.375 Z " fill="#000000"/><text fill="#000000" font-family="sans-serif" font-size="14" lengthAdjust="spacing" textLength="131" x="338.5" y="163.2285">ConcreteComponent</text><line style="stroke:#181818;stroke-width:0.5;" x1="310.5" x2="471.5" y1="173.5" y2="173.5"/><line style="stroke:#181818;stroke-width:0.5;" x1="310.5" x2="471.5" y1="181.5" y2="181.5"/><ellipse cx="320.5" cy="195.8047" fill="#84BE84" rx="3" ry="3" style="stroke:#038048;stroke-width:1.0;"/><text fill="#000000" font-family="sans-serif" font-size="14" lengthAdjust="spacing" textLength="104" x="329.5" y="200.0332">operation(): void</text></g><!--MD5=[321dae1e4c20a532a67879525d68ecc8]
class Decorator--><g id="elem_Decorator"><rect codeLine="10" fill="#F1F1F1" height="83.2188" id="Decorator" rx="2.5" ry="2.5" style="stroke:#181818;stroke-width:0.5;" width="177" x="97.5" y="133"/><ellipse cx="150.25" cy="149" fill="#ADD1B2" rx="11" ry="11" style="stroke:#181818;stroke-width:1.0;"/><path d="M153.0156,144.875 Q153.1719,144.6563 153.3594,144.5469 Q153.5469,144.4375 153.7656,144.4375 Q154.1406,144.4375 154.375,144.7031 Q154.6094,144.9531 154.6094,145.5625 L154.6094,147.0156 Q154.6094,147.625 154.375,147.8906 Q154.1406,148.1563 153.7656,148.1563 Q153.4219,148.1563 153.2188,147.9531 Q153.0156,147.7656 152.9063,147.25 Q152.8594,146.8906 152.6719,146.7031 Q152.3438,146.3281 151.7344,146.1094 Q151.125,145.8906 150.5,145.8906 Q149.7344,145.8906 149.0938,146.2188 Q148.4688,146.5469 147.9688,147.2969 Q147.4844,148.0469 147.4844,149.0781 L147.4844,150.1719 Q147.4844,151.4063 148.375,152.2344 Q149.2656,153.0469 150.8594,153.0469 Q151.7969,153.0469 152.4531,152.7969 Q152.8438,152.6406 153.2656,152.2031 Q153.5313,151.9375 153.6719,151.8594 Q153.8281,151.7813 154.0313,151.7813 Q154.3594,151.7813 154.6094,152.0469 Q154.875,152.2969 154.875,152.6406 Q154.875,152.9844 154.5313,153.3906 Q154.0313,153.9688 153.2344,154.2969 Q152.1563,154.75 150.8594,154.75 Q149.3438,154.75 148.1406,154.125 Q147.1563,153.625 146.4688,152.5625 Q145.7813,151.4844 145.7813,150.2031 L145.7813,149.0469 Q145.7813,147.7188 146.3906,146.5781 Q147.0156,145.4219 148.1094,144.8125 Q149.2031,144.1875 150.4375,144.1875 Q151.1719,144.1875 151.8125,144.3594 Q152.4688,144.5156 153.0156,144.875 Z " fill="#000000"/><text fill="#000000" font-family="sans-serif" font-size="14" lengthAdjust="spacing" textLength="63" x="170.75" y="154.7285">Decorator</text><line style="stroke:#181818;stroke-width:0.5;" x1="98.5" x2="273.5" y1="165" y2="165"/><rect fill="none" height="6" style="stroke:#C82930;stroke-width:1.0;" width="6" x="105.5" y="176.3047"/><text fill="#000000" font-family="sans-serif" font-size="14" lengthAdjust="spacing" textLength="151" x="117.5" y="183.5332">component: Component</text><line style="stroke:#181818;stroke-width:0.5;" x1="98.5" x2="273.5" y1="190.6094" y2="190.6094"/><ellipse cx="108.5" cy="204.9141" fill="#84BE84" rx="3" ry="3" style="stroke:#038048;stroke-width:1.0;"/><text fill="#000000" font-family="sans-serif" font-size="14" lengthAdjust="spacing" textLength="104" x="117.5" y="209.1426">operation(): void</text></g><!--MD5=[3d4911f658bf28a18bbdda28e39593ef]
class ConcreteDecoratorA--><g id="elem_ConcreteDecoratorA"><rect codeLine="15" fill="#F1F1F1" height="65.6094" id="ConcreteDecoratorA" rx="2.5" ry="2.5" style="stroke:#181818;stroke-width:0.5;" width="162" x="7" y="276"/><ellipse cx="22" cy="292" fill="#ADD1B2" rx="11" ry="11" style="stroke:#181818;stroke-width:1.0;"/><path d="M24.7656,287.875 Q24.9219,287.6563 25.1094,287.5469 Q25.2969,287.4375 25.5156,287.4375 Q25.8906,287.4375 26.125,287.7031 Q26.3594,287.9531 26.3594,288.5625 L26.3594,290.0156 Q26.3594,290.625 26.125,290.8906 Q25.8906,291.1563 25.5156,291.1563 Q25.1719,291.1563 24.9688,290.9531 Q24.7656,290.7656 24.6563,290.25 Q24.6094,289.8906 24.4219,289.7031 Q24.0938,289.3281 23.4844,289.1094 Q22.875,288.8906 22.25,288.8906 Q21.4844,288.8906 20.8438,289.2188 Q20.2188,289.5469 19.7188,290.2969 Q19.2344,291.0469 19.2344,292.0781 L19.2344,293.1719 Q19.2344,294.4063 20.125,295.2344 Q21.0156,296.0469 22.6094,296.0469 Q23.5469,296.0469 24.2031,295.7969 Q24.5938,295.6406 25.0156,295.2031 Q25.2813,294.9375 25.4219,294.8594 Q25.5781,294.7813 25.7813,294.7813 Q26.1094,294.7813 26.3594,295.0469 Q26.625,295.2969 26.625,295.6406 Q26.625,295.9844 26.2813,296.3906 Q25.7813,296.9688 24.9844,297.2969 Q23.9063,297.75 22.6094,297.75 Q21.0938,297.75 19.8906,297.125 Q18.9063,296.625 18.2188,295.5625 Q17.5313,294.4844 17.5313,293.2031 L17.5313,292.0469 Q17.5313,290.7188 18.1406,289.5781 Q18.7656,288.4219 19.8594,287.8125 Q20.9531,287.1875 22.1875,287.1875 Q22.9219,287.1875 23.5625,287.3594 Q24.2188,287.5156 24.7656,287.875 Z " fill="#000000"/><text fill="#000000" font-family="sans-serif" font-size="14" lengthAdjust="spacing" textLength="130" x="36" y="297.7285">ConcreteDecoratorA</text><line style="stroke:#181818;stroke-width:0.5;" x1="8" x2="168" y1="308" y2="308"/><line style="stroke:#181818;stroke-width:0.5;" x1="8" x2="168" y1="316" y2="316"/><ellipse cx="18" cy="330.3047" fill="#84BE84" rx="3" ry="3" style="stroke:#038048;stroke-width:1.0;"/><text fill="#000000" font-family="sans-serif" font-size="14" lengthAdjust="spacing" textLength="104" x="27" y="334.5332">operation(): void</text></g><!--MD5=[215fe3d16f92b5b74e11efe33e544b1e]
class ConcreteDecoratorB--><g id="elem_ConcreteDecoratorB"><rect codeLine="19" fill="#F1F1F1" height="65.6094" id="ConcreteDecoratorB" rx="2.5" ry="2.5" style="stroke:#181818;stroke-width:0.5;" width="162" x="204" y="276"/><ellipse cx="219" cy="292" fill="#ADD1B2" rx="11" ry="11" style="stroke:#181818;stroke-width:1.0;"/><path d="M221.7656,287.875 Q221.9219,287.6563 222.1094,287.5469 Q222.2969,287.4375 222.5156,287.4375 Q222.8906,287.4375 223.125,287.7031 Q223.3594,287.9531 223.3594,288.5625 L223.3594,290.0156 Q223.3594,290.625 223.125,290.8906 Q222.8906,291.1563 222.5156,291.1563 Q222.1719,291.1563 221.9688,290.9531 Q221.7656,290.7656 221.6563,290.25 Q221.6094,289.8906 221.4219,289.7031 Q221.0938,289.3281 220.4844,289.1094 Q219.875,288.8906 219.25,288.8906 Q218.4844,288.8906 217.8438,289.2188 Q217.2188,289.5469 216.7188,290.2969 Q216.2344,291.0469 216.2344,292.0781 L216.2344,293.1719 Q216.2344,294.4063 217.125,295.2344 Q218.0156,296.0469 219.6094,296.0469 Q220.5469,296.0469 221.2031,295.7969 Q221.5938,295.6406 222.0156,295.2031 Q222.2813,294.9375 222.4219,294.8594 Q222.5781,294.7813 222.7813,294.7813 Q223.1094,294.7813 223.3594,295.0469 Q223.625,295.2969 223.625,295.6406 Q223.625,295.9844 223.2813,296.3906 Q222.7813,296.9688 221.9844,297.2969 Q220.9063,297.75 219.6094,297.75 Q218.0938,297.75 216.8906,297.125 Q215.9063,296.625 215.2188,295.5625 Q214.5313,294.4844 214.5313,293.2031 L214.5313,292.0469 Q214.5313,290.7188 215.1406,289.5781 Q215.7656,288.4219 216.8594,287.8125 Q217.9531,287.1875 219.1875,287.1875 Q219.9219,287.1875 220.5625,287.3594 Q221.2188,287.5156 221.7656,287.875 Z " fill="#000000"/><text fill="#000000" font-family="sans-serif" font-size="14" lengthAdjust="spacing" textLength="130" x="233" y="297.7285">ConcreteDecoratorB</text><line style="stroke:#181818;stroke-width:0.5;" x1="205" x2="365" y1="308" y2="308"/><line style="stroke:#181818;stroke-width:0.5;" x1="205" x2="365" y1="316" y2="316"/><ellipse cx="215" cy="330.3047" fill="#84BE84" rx="3" ry="3" style="stroke:#038048;stroke-width:1.0;"/><text fill="#000000" font-family="sans-serif" font-size="14" lengthAdjust="spacing" textLength="104" x="224" y="334.5332">operation(): void</text></g><!--MD5=[4758994e2c5b8c480b5268b073beb8b0]
reverse link Component to ConcreteComponent--><g id="link_Component_ConcreteComponent"><path codeLine="23" d="M313.4,89.54 C325.97,106.77 341.11,125.73 354.82,141.26 " fill="none" id="Component-backto-ConcreteComponent" style="stroke:#181818;stroke-width:1.0;stroke-dasharray:7.0,7.0;"/><polygon fill="none" points="307.6,93.46,301.83,73.07,319.05,85.42,307.6,93.46" style="stroke:#181818;stroke-width:1.0;"/></g><!--MD5=[4758994e2c5b8c480b5268b073beb8b0]
reverse link Component to ConcreteComponent--><g id="link_Component_ConcreteComponent"><path codeLine="28" d="M337.9,88.47 C352.46,105.98 367.15,125.4 377.71,141.26 " fill="none" id="Component-backto-ConcreteComponent-1" style="stroke:#181818;stroke-width:1.0;"/><polygon fill="none" points="332.41,92.81,324.69,73.07,343.03,83.69,332.41,92.81" style="stroke:#181818;stroke-width:1.0;"/></g><!--MD5=[c50e16e7686754e8210f5940617c961a]
reverse link Component to Decorator--><g id="link_Component_Decorator"><path codeLine="24" d="M239.03,88.64 C227.21,103.06 215.26,118.75 205.55,132.68 " fill="none" id="Component-backto-Decorator" style="stroke:#181818;stroke-width:1.0;stroke-dasharray:7.0,7.0;"/><polygon fill="none" points="233.94,83.82,252.21,73.07,244.63,92.86,233.94,83.82" style="stroke:#181818;stroke-width:1.0;"/></g><!--MD5=[c50e16e7686754e8210f5940617c961a]
reverse link Component to Decorator--><g id="link_Component_Decorator"><path codeLine="29" d="M263.67,89.58 C253.48,103.73 241.53,119.05 230,132.68 " fill="none" id="Component-backto-Decorator-1" style="stroke:#181818;stroke-width:1.0;"/><polygon fill="none" points="257.94,85.55,275.07,73.07,269.46,93.51,257.94,85.55" style="stroke:#181818;stroke-width:1.0;"/></g><!--MD5=[f907037d0dffa64436d163361a5736dc]
reverse link Decorator to ConcreteDecoratorA--><g id="link_Decorator_ConcreteDecoratorA"><path codeLine="25" d="M131.46,232.16 C120.02,247.13 108.96,262.76 100.62,275.92 " fill="none" id="Decorator-backto-ConcreteDecoratorA" style="stroke:#181818;stroke-width:1.0;"/><polygon fill="none" points="126.05,227.72,143.92,216.34,137.05,236.38,126.05,227.72" style="stroke:#181818;stroke-width:1.0;"/></g><!--MD5=[f907037d0dffa64436d163361a5736dc]
reverse link Decorator to ConcreteDecoratorA--><g id="link_Decorator_ConcreteDecoratorA"><path codeLine="30" d="M156.78,233.12 C146.28,247.79 134.45,263.04 123.49,275.92 " fill="none" id="Decorator-backto-ConcreteDecoratorA-1" style="stroke:#181818;stroke-width:1.0;"/><polygon fill="none" points="151.25,228.81,168.37,216.34,162.77,236.77,151.25,228.81" style="stroke:#181818;stroke-width:1.0;"/></g><!--MD5=[672ea5d325655b2d6541b2de402bde5b]
reverse link Decorator to ConcreteDecoratorB--><g id="link_Decorator_ConcreteDecoratorB"><path codeLine="26" d="M216.4,233.12 C227.03,247.79 238.94,263.04 249.92,275.92 " fill="none" id="Decorator-backto-ConcreteDecoratorB" style="stroke:#181818;stroke-width:1.0;"/><polygon fill="none" points="210.38,236.73,204.63,216.34,221.85,228.7,210.38,236.73" style="stroke:#181818;stroke-width:1.0;"/></g><!--MD5=[672ea5d325655b2d6541b2de402bde5b]
reverse link Decorator to ConcreteDecoratorB--><g id="link_Decorator_ConcreteDecoratorB"><path codeLine="31" d="M241.71,232.16 C253.29,247.13 264.43,262.76 272.79,275.92 " fill="none" id="Decorator-backto-ConcreteDecoratorB-1" style="stroke:#181818;stroke-width:1.0;"/><polygon fill="none" points="236.08,236.34,229.09,216.34,247.03,227.61,236.08,236.34" style="stroke:#181818;stroke-width:1.0;"/></g><!--MD5=[c0d44a68186d85f94ef83f9214e29d96]
@startuml

interface Component {
    + operation(): void
}

class ConcreteComponent {
    + operation(): void
}

class Decorator {
    - component: Component
    + operation(): void
}

class ConcreteDecoratorA {
    + operation(): void
}

class ConcreteDecoratorB {
    + operation(): void
}

Component <|.. ConcreteComponent
Component <|.. Decorator
Decorator <|- - ConcreteDecoratorA
Decorator <|- - ConcreteDecoratorB

ConcreteComponent -up-|> Component
Decorator -up-|> Component
ConcreteDecoratorA -up-|> Decorator
ConcreteDecoratorB -up-|> Decorator

@enduml

PlantUML version 1.2022.7(Mon Aug 22 19:01:30 CEST 2022)
(GPL source distribution)
Java Runtime: OpenJDK Runtime Environment
JVM: OpenJDK 64-Bit Server VM
Default Encoding: UTF-8
Language: de
Country: DE
--></g></svg>