<?xml version="1.0" encoding="UTF-8" standalone="no"?><svg xmlns="http://www.w3.org/2000/svg" xmlns:xlink="http://www.w3.org/1999/xlink" contentStyleType="text/css" height="687px" preserveAspectRatio="none" style="width:201px;height:687px;background:#FFFFFF;" version="1.1" viewBox="0 0 201 687" width="201px" zoomAndPan="magnify"><defs/><g><!--MD5=[69d3364032954b7e948f399c02054f81]
class Verlag--><g id="elem_Verlag"><rect codeLine="1" fill="#F1F1F1" height="100.8281" id="Verlag" rx="2.5" ry="2.5" style="stroke:#181818;stroke-width:0.5;" width="187" x="7" y="7"/><ellipse cx="75.75" cy="23" fill="#ADD1B2" rx="11" ry="11" style="stroke:#181818;stroke-width:1.0;"/><path d="M74.6094,23.7969 L74.6094,26.2969 L78.9375,26.2969 L78.9375,25.375 Q78.9375,24.7656 79.1719,24.5 Q79.4219,24.2344 79.7969,24.2344 Q80.1719,24.2344 80.4063,24.5 Q80.6406,24.7656 80.6406,25.375 L80.6406,28 L72.6406,28 Q72.0156,28 71.75,27.7656 Q71.5,27.5313 71.5,27.1406 Q71.5,26.7656 71.7656,26.5313 Q72.0313,26.2969 72.6406,26.2969 L72.9063,26.2969 L72.9063,19.6406 L72.6406,19.6406 Q72.0156,19.6406 71.75,19.4063 Q71.5,19.1719 71.5,18.7813 Q71.5,18.4063 71.75,18.1719 Q72.0156,17.9375 72.6406,17.9375 L80.2656,17.9375 L80.2656,20.5313 Q80.2656,21.1406 80.0313,21.4063 Q79.8125,21.6563 79.4219,21.6563 Q79.0469,21.6563 78.8125,21.4063 Q78.5781,21.1406 78.5781,20.5313 L78.5781,19.6406 L74.6094,19.6406 L74.6094,22.0938 L76.0938,22.0938 Q76.0938,21.4375 76.2188,21.25 Q76.4844,20.8438 76.9531,20.8438 Q77.3281,20.8438 77.5625,21.1094 Q77.7969,21.3594 77.7969,21.9688 L77.7969,23.9375 Q77.7969,24.4844 77.6719,24.6719 Q77.4063,25.0625 76.9531,25.0625 Q76.4844,25.0625 76.2188,24.6563 Q76.0938,24.4688 76.0938,23.7969 L74.6094,23.7969 Z " fill="#000000"/><text fill="#000000" font-family="sans-serif" font-size="14" lengthAdjust="spacing" textLength="41" x="96.25" y="28.7285">Verlag</text><line style="stroke:#181818;stroke-width:0.5;" x1="8" x2="193" y1="39" y2="39"/><ellipse cx="18" cy="53.3047" fill="#000000" rx="3" ry="3" style="stroke:#000000;stroke-width:1.0;"/><text fill="#000000" font-family="sans-serif" font-size="14" lengthAdjust="spacing" textLength="161" x="27" y="57.5332">VerlagsName primary key</text><ellipse cx="18" cy="70.9141" fill="#000000" rx="3" ry="3" style="stroke:#000000;stroke-width:1.0;"/><text fill="#000000" font-family="sans-serif" font-size="14" lengthAdjust="spacing" textLength="85" x="27" y="75.1426">Vertragsleiter</text><ellipse cx="18" cy="88.5234" fill="#000000" rx="3" ry="3" style="stroke:#000000;stroke-width:1.0;"/><text fill="#000000" font-family="sans-serif" font-size="14" lengthAdjust="spacing" textLength="107" x="27" y="92.752">Verlagsaddresse</text><line style="stroke:#181818;stroke-width:0.5;" x1="8" x2="193" y1="99.8281" y2="99.8281"/></g><!--MD5=[7df3996d2b83bdef875f3036bf8c03e0]
class Zeitschrift--><g id="elem_Zeitschrift"><rect codeLine="7" fill="#F1F1F1" height="100.8281" id="Zeitschrift" rx="2.5" ry="2.5" style="stroke:#181818;stroke-width:0.5;" width="130" x="35.5" y="186"/><ellipse cx="67.15" cy="202" fill="#ADD1B2" rx="11" ry="11" style="stroke:#181818;stroke-width:1.0;"/><path d="M66.0094,202.7969 L66.0094,205.2969 L70.3375,205.2969 L70.3375,204.375 Q70.3375,203.7656 70.5719,203.5 Q70.8219,203.2344 71.1969,203.2344 Q71.5719,203.2344 71.8063,203.5 Q72.0406,203.7656 72.0406,204.375 L72.0406,207 L64.0406,207 Q63.4156,207 63.15,206.7656 Q62.9,206.5313 62.9,206.1406 Q62.9,205.7656 63.1656,205.5313 Q63.4313,205.2969 64.0406,205.2969 L64.3063,205.2969 L64.3063,198.6406 L64.0406,198.6406 Q63.4156,198.6406 63.15,198.4063 Q62.9,198.1719 62.9,197.7813 Q62.9,197.4063 63.15,197.1719 Q63.4156,196.9375 64.0406,196.9375 L71.6656,196.9375 L71.6656,199.5313 Q71.6656,200.1406 71.4313,200.4063 Q71.2125,200.6563 70.8219,200.6563 Q70.4469,200.6563 70.2125,200.4063 Q69.9781,200.1406 69.9781,199.5313 L69.9781,198.6406 L66.0094,198.6406 L66.0094,201.0938 L67.4938,201.0938 Q67.4938,200.4375 67.6188,200.25 Q67.8844,199.8438 68.3531,199.8438 Q68.7281,199.8438 68.9625,200.1094 Q69.1969,200.3594 69.1969,200.9688 L69.1969,202.9375 Q69.1969,203.4844 69.0719,203.6719 Q68.8063,204.0625 68.3531,204.0625 Q67.8844,204.0625 67.6188,203.6563 Q67.4938,203.4688 67.4938,202.7969 L66.0094,202.7969 Z " fill="#000000"/><text fill="#000000" font-family="sans-serif" font-size="14" lengthAdjust="spacing" textLength="61" x="84.85" y="207.7285">Zeitschrift</text><line style="stroke:#181818;stroke-width:0.5;" x1="36.5" x2="164.5" y1="218" y2="218"/><ellipse cx="46.5" cy="232.3047" fill="#000000" rx="3" ry="3" style="stroke:#000000;stroke-width:1.0;"/><text fill="#000000" font-family="sans-serif" font-size="14" lengthAdjust="spacing" textLength="104" x="55.5" y="236.5332">Titel primary key</text><ellipse cx="46.5" cy="249.9141" fill="#000000" rx="3" ry="3" style="stroke:#000000;stroke-width:1.0;"/><text fill="#000000" font-family="sans-serif" font-size="14" lengthAdjust="spacing" textLength="56" x="55.5" y="254.1426">Ausgabe</text><ellipse cx="46.5" cy="267.5234" fill="#000000" rx="3" ry="3" style="stroke:#000000;stroke-width:1.0;"/><text fill="#000000" font-family="sans-serif" font-size="14" lengthAdjust="spacing" textLength="32" x="55.5" y="271.752">Preis</text><line style="stroke:#181818;stroke-width:0.5;" x1="36.5" x2="164.5" y1="278.8281" y2="278.8281"/></g><!--MD5=[bc2cbd2fc3f04c811e076c3701ed7817]
class Abonent--><g id="elem_Abonent"><rect codeLine="12" fill="#F1F1F1" height="118.4375" id="Abonent" rx="2.5" ry="2.5" style="stroke:#181818;stroke-width:0.5;" width="155" x="23" y="562"/><ellipse cx="69.75" cy="578" fill="#ADD1B2" rx="11" ry="11" style="stroke:#181818;stroke-width:1.0;"/><path d="M68.6094,578.7969 L68.6094,581.2969 L72.9375,581.2969 L72.9375,580.375 Q72.9375,579.7656 73.1719,579.5 Q73.4219,579.2344 73.7969,579.2344 Q74.1719,579.2344 74.4063,579.5 Q74.6406,579.7656 74.6406,580.375 L74.6406,583 L66.6406,583 Q66.0156,583 65.75,582.7656 Q65.5,582.5313 65.5,582.1406 Q65.5,581.7656 65.7656,581.5313 Q66.0313,581.2969 66.6406,581.2969 L66.9063,581.2969 L66.9063,574.6406 L66.6406,574.6406 Q66.0156,574.6406 65.75,574.4063 Q65.5,574.1719 65.5,573.7813 Q65.5,573.4063 65.75,573.1719 Q66.0156,572.9375 66.6406,572.9375 L74.2656,572.9375 L74.2656,575.5313 Q74.2656,576.1406 74.0313,576.4063 Q73.8125,576.6563 73.4219,576.6563 Q73.0469,576.6563 72.8125,576.4063 Q72.5781,576.1406 72.5781,575.5313 L72.5781,574.6406 L68.6094,574.6406 L68.6094,577.0938 L70.0938,577.0938 Q70.0938,576.4375 70.2188,576.25 Q70.4844,575.8438 70.9531,575.8438 Q71.3281,575.8438 71.5625,576.1094 Q71.7969,576.3594 71.7969,576.9688 L71.7969,578.9375 Q71.7969,579.4844 71.6719,579.6719 Q71.4063,580.0625 70.9531,580.0625 Q70.4844,580.0625 70.2188,579.6563 Q70.0938,579.4688 70.0938,578.7969 L68.6094,578.7969 Z " fill="#000000"/><text fill="#000000" font-family="sans-serif" font-size="14" lengthAdjust="spacing" textLength="53" x="90.25" y="583.7285">Abonent</text><line style="stroke:#181818;stroke-width:0.5;" x1="24" x2="177" y1="594" y2="594"/><ellipse cx="34" cy="608.3047" fill="#000000" rx="3" ry="3" style="stroke:#000000;stroke-width:1.0;"/><text fill="#000000" font-family="sans-serif" font-size="14" lengthAdjust="spacing" textLength="129" x="43" y="612.5332">Nummer primary key</text><line style="stroke:#181818;stroke-width:1.0;" x1="24" x2="177" y1="619.6094" y2="619.6094"/><ellipse cx="34" cy="633.9141" fill="#000000" rx="3" ry="3" style="stroke:#000000;stroke-width:1.0;"/><text fill="#000000" font-family="sans-serif" font-size="14" lengthAdjust="spacing" textLength="36" x="43" y="638.1426">Name</text><ellipse cx="34" cy="651.5234" fill="#000000" rx="3" ry="3" style="stroke:#000000;stroke-width:1.0;"/><text fill="#000000" font-family="sans-serif" font-size="14" lengthAdjust="spacing" textLength="60" x="43" y="655.752">Addresse</text><text fill="#000000" font-family="sans-serif" font-size="14" lengthAdjust="spacing" textLength="4" x="43" y="673.3613"> </text></g><!--MD5=[987a3666e1d543a200fe18440e1ff135]
class Zeitschrift_Abo--><g id="elem_Zeitschrift_Abo"><rect codeLine="19" fill="#F1F1F1" height="136.0469" id="Zeitschrift_Abo" rx="2.5" ry="2.5" style="stroke:#181818;stroke-width:0.5;" width="161" x="20" y="348"/><ellipse cx="50.75" cy="364" fill="#ADD1B2" rx="11" ry="11" style="stroke:#181818;stroke-width:1.0;"/><path d="M49.6094,364.7969 L49.6094,367.2969 L53.9375,367.2969 L53.9375,366.375 Q53.9375,365.7656 54.1719,365.5 Q54.4219,365.2344 54.7969,365.2344 Q55.1719,365.2344 55.4063,365.5 Q55.6406,365.7656 55.6406,366.375 L55.6406,369 L47.6406,369 Q47.0156,369 46.75,368.7656 Q46.5,368.5313 46.5,368.1406 Q46.5,367.7656 46.7656,367.5313 Q47.0313,367.2969 47.6406,367.2969 L47.9063,367.2969 L47.9063,360.6406 L47.6406,360.6406 Q47.0156,360.6406 46.75,360.4063 Q46.5,360.1719 46.5,359.7813 Q46.5,359.4063 46.75,359.1719 Q47.0156,358.9375 47.6406,358.9375 L55.2656,358.9375 L55.2656,361.5313 Q55.2656,362.1406 55.0313,362.4063 Q54.8125,362.6563 54.4219,362.6563 Q54.0469,362.6563 53.8125,362.4063 Q53.5781,362.1406 53.5781,361.5313 L53.5781,360.6406 L49.6094,360.6406 L49.6094,363.0938 L51.0938,363.0938 Q51.0938,362.4375 51.2188,362.25 Q51.4844,361.8438 51.9531,361.8438 Q52.3281,361.8438 52.5625,362.1094 Q52.7969,362.3594 52.7969,362.9688 L52.7969,364.9375 Q52.7969,365.4844 52.6719,365.6719 Q52.4063,366.0625 51.9531,366.0625 Q51.4844,366.0625 51.2188,365.6563 Q51.0938,365.4688 51.0938,364.7969 L49.6094,364.7969 Z " fill="#000000"/><text fill="#000000" font-family="sans-serif" font-size="14" lengthAdjust="spacing" textLength="94" x="68.25" y="369.7285">Zeitschrift_Abo</text><line style="stroke:#181818;stroke-width:0.5;" x1="21" x2="180" y1="380" y2="380"/><ellipse cx="31" cy="394.3047" fill="#000000" rx="3" ry="3" style="stroke:#000000;stroke-width:1.0;"/><text fill="#000000" font-family="sans-serif" font-size="14" lengthAdjust="spacing" textLength="113" x="40" y="398.5332">AZ_id primary key</text><line style="stroke:#181818;stroke-width:1.0;" x1="21" x2="180" y1="405.6094" y2="405.6094"/><ellipse cx="31" cy="419.9141" fill="#000000" rx="3" ry="3" style="stroke:#000000;stroke-width:1.0;"/><text fill="#000000" font-family="sans-serif" font-size="14" lengthAdjust="spacing" textLength="135" x="40" y="424.1426">ANummer foreign key</text><ellipse cx="31" cy="437.5234" fill="#000000" rx="3" ry="3" style="stroke:#000000;stroke-width:1.0;"/><text fill="#000000" font-family="sans-serif" font-size="14" lengthAdjust="spacing" textLength="109" x="40" y="441.752">ZTitel foreign key</text><ellipse cx="31" cy="455.1328" fill="#000000" rx="3" ry="3" style="stroke:#000000;stroke-width:1.0;"/><text fill="#000000" font-family="sans-serif" font-size="14" lengthAdjust="spacing" textLength="39" x="40" y="459.3613">Dauer</text><ellipse cx="31" cy="472.7422" fill="#000000" rx="3" ry="3" style="stroke:#000000;stroke-width:1.0;"/><text fill="#000000" font-family="sans-serif" font-size="14" lengthAdjust="spacing" textLength="44" x="40" y="476.9707">Beginn</text></g><!--MD5=[9a19affe7c0c9120ac69b837693cb6a4]
link Verlag to Zeitschrift--><g id="link_Verlag_Zeitschrift"><path codeLine="28" d="M100.5,108.28 C100.5,132.51 100.5,161.57 100.5,185.79 " fill="none" id="Verlag-Zeitschrift" style="stroke:#181818;stroke-width:1.0;"/><text fill="#000000" font-family="sans-serif" font-size="13" lengthAdjust="spacing" textLength="37" x="101.5" y="152.4951">verlegt</text><text fill="#000000" font-family="sans-serif" font-size="13" lengthAdjust="spacing" textLength="7" x="93.0516" y="129.3398">1</text><text fill="#000000" font-family="sans-serif" font-size="13" lengthAdjust="spacing" textLength="7" x="93.0078" y="175.0658">n</text></g><!--MD5=[0e6731caeb30bc923d2219f34ced9b05]
link Zeitschrift to Zeitschrift_Abo--><g id="link_Zeitschrift_Zeitschrift_Abo"><path codeLine="30" d="M100.5,287.42 C100.5,306.18 100.5,327.83 100.5,347.91 " fill="none" id="Zeitschrift-Zeitschrift_Abo" style="stroke:#181818;stroke-width:1.0;"/><text fill="#000000" font-family="sans-serif" font-size="13" lengthAdjust="spacing" textLength="7" x="93.0516" y="308.4978">1</text><text fill="#000000" font-family="sans-serif" font-size="13" lengthAdjust="spacing" textLength="7" x="93.1172" y="337.0994">n</text></g><!--MD5=[3bbc0f416c7dd47c79d5cc3d0fd18277]
link Zeitschrift_Abo to Abonent--><g id="link_Zeitschrift_Abo_Abonent"><path codeLine="31" d="M100.5,484.03 C100.5,509.21 100.5,537.6 100.5,561.89 " fill="none" id="Zeitschrift_Abo-Abonent" style="stroke:#181818;stroke-width:1.0;"/><text fill="#000000" font-family="sans-serif" font-size="13" lengthAdjust="spacing" textLength="56" x="101.5" y="528.4951">bezieht | |</text><text fill="#000000" font-family="sans-serif" font-size="13" lengthAdjust="spacing" textLength="7" x="93.1391" y="505.3814">n</text><text fill="#000000" font-family="sans-serif" font-size="13" lengthAdjust="spacing" textLength="7" x="93.0734" y="551.2008">1</text></g><!--MD5=[b9c6aedb5163f8b1484afab0b5c55858]
@startuml name Verlag
entity Verlag{
    * VerlagsName primary key
    * Vertragsleiter
    * Verlagsaddresse
}

entity Zeitschrift {
    * Titel primary key
    * Ausgabe
    * Preis
}
entity Abonent {
    * Nummer primary key 
    - -
    * Name
    * Addresse 

}
entity Zeitschrift_Abo {
    * AZ_id primary key 
    - -
    * ANummer foreign key 
    * ZTitel foreign key 
    * Dauer 
    * Beginn
}

Verlag "1" - - "n" Zeitschrift : verlegt

Zeitschrift "1" - - "n" Zeitschrift_Abo
Zeitschrift_Abo "n"  - - "1" Abonent: bezieht | | 

@endeuml

PlantUML version 1.2022.7(Mon Aug 22 19:01:30 CEST 2022)
(GPL source distribution)
Java Runtime: OpenJDK Runtime Environment
JVM: OpenJDK 64-Bit Server VM
Default Encoding: UTF-8
Language: de
Country: DE
--></g></svg>