<svg xmlns="http://www.w3.org/2000/svg" xmlns:xlink="http://www.w3.org/1999/xlink" contentStyleType="text/css" height="359px" preserveAspectRatio="none" style="width:729px;height:359px;background:#FFFFFF;" version="1.1" viewBox="0 0 729 359" width="729px" zoomAndPan="magnify"><defs/><g><!--cluster Such-Komponente--><g id="cluster_Such-Komponente"><rect fill="none" height="97.48" rx="2.5" ry="2.5" style="stroke:#181818;stroke-width:1;" width="282" x="7" y="7"/><path d="M150.9229,7 L150.9229,16.4883 L140.9229,26.4883 L7,26.4883 " fill="none" style="stroke:#181818;stroke-width:1;"/><text fill="#000000" font-family="sans-serif" font-size="14" font-weight="bold" lengthAdjust="spacing" textLength="133.9229" x="10" y="21.5352">Such-Komponente</text></g><!--cluster central Service--><g id="cluster_central Service"><polygon fill="none" points="211,138.48,221,128.48,392,128.48,392,220.97,382,230.97,211,230.97,211,138.48" style="stroke:#181818;stroke-width:1;"/><line style="stroke:#181818;stroke-width:1;" x1="382" x2="392" y1="138.48" y2="128.48"/><line style="stroke:#181818;stroke-width:1;" x1="211" x2="382" y1="138.48" y2="138.48"/><line style="stroke:#181818;stroke-width:1;" x1="382" x2="382" y1="138.48" y2="230.97"/><text fill="#000000" font-family="sans-serif" font-size="14" font-weight="bold" lengthAdjust="spacing" textLength="105.3623" x="244.8188" y="155.0152">central Service</text></g><!--cluster Server Standort2--><g id="cluster_Server Standort2"><path d="M114.5,254.97 L236.1406,254.97 A3.75,3.75 0 0 1 238.6406,257.47 L245.6406,277.4583 L402.5,277.4583 A2.5,2.5 0 0 1 405,279.9583 L405,349.96 A2.5,2.5 0 0 1 402.5,352.46 L114.5,352.46 A2.5,2.5 0 0 1 112,349.96 L112,257.47 A2.5,2.5 0 0 1 114.5,254.97 " fill="none" style="stroke:#000000;stroke-width:1.5;"/><line style="stroke:#000000;stroke-width:1.5;" x1="112" x2="245.6406" y1="277.4583" y2="277.4583"/><text fill="#000000" font-family="sans-serif" font-size="14" font-weight="bold" lengthAdjust="spacing" textLength="120.6406" x="116" y="270.5052">Server Standort2</text></g><!--cluster Server Standort1--><g id="cluster_Server Standort1"><path d="M431.5,254.97 L553.1406,254.97 A3.75,3.75 0 0 1 555.6406,257.47 L562.6406,277.4583 L719.5,277.4583 A2.5,2.5 0 0 1 722,279.9583 L722,349.96 A2.5,2.5 0 0 1 719.5,352.46 L431.5,352.46 A2.5,2.5 0 0 1 429,349.96 L429,257.47 A2.5,2.5 0 0 1 431.5,254.97 " fill="none" style="stroke:#000000;stroke-width:1.5;"/><line style="stroke:#000000;stroke-width:1.5;" x1="429" x2="562.6406" y1="277.4583" y2="277.4583"/><text fill="#000000" font-family="sans-serif" font-size="14" font-weight="bold" lengthAdjust="spacing" textLength="120.6406" x="433" y="270.5052">Server Standort1</text></g><!--cluster Server Standort3--><g id="cluster_Server Standort3"><path d="M315.5,7 L437.1406,7 A3.75,3.75 0 0 1 439.6406,9.5 L446.6406,29.4883 L603.5,29.4883 A2.5,2.5 0 0 1 606,31.9883 L606,101.98 A2.5,2.5 0 0 1 603.5,104.48 L315.5,104.48 A2.5,2.5 0 0 1 313,101.98 L313,9.5 A2.5,2.5 0 0 1 315.5,7 " fill="none" style="stroke:#000000;stroke-width:1.5;"/><line style="stroke:#000000;stroke-width:1.5;" x1="313" x2="446.6406" y1="29.4883" y2="29.4883"/><text fill="#000000" font-family="sans-serif" font-size="14" font-weight="bold" lengthAdjust="spacing" textLength="120.6406" x="317" y="22.5352">Server Standort3</text></g><!--entity Client--><g id="elem_Client"><rect fill="#F1F1F1" height="46.4883" rx="2.5" ry="2.5" style="stroke:#181818;stroke-width:0.5;" width="79.5049" x="23.25" y="42"/><rect fill="#F1F1F1" height="10" style="stroke:#181818;stroke-width:0.5;" width="15" x="82.7549" y="47"/><rect fill="#F1F1F1" height="2" style="stroke:#181818;stroke-width:0.5;" width="4" x="80.7549" y="49"/><rect fill="#F1F1F1" height="2" style="stroke:#181818;stroke-width:0.5;" width="4" x="80.7549" y="53"/><text fill="#000000" font-family="sans-serif" font-size="14" lengthAdjust="spacing" textLength="39.5049" x="38.25" y="75.5352">Client</text></g><!--entity SamplyProxy1--><g id="elem_SamplyProxy1"><rect fill="#F1F1F1" height="46.4883" rx="2.5" ry="2.5" style="stroke:#181818;stroke-width:0.5;" width="135.334" x="137.33" y="42"/><rect fill="#F1F1F1" height="10" style="stroke:#181818;stroke-width:0.5;" width="15" x="252.664" y="47"/><rect fill="#F1F1F1" height="2" style="stroke:#181818;stroke-width:0.5;" width="4" x="250.664" y="49"/><rect fill="#F1F1F1" height="2" style="stroke:#181818;stroke-width:0.5;" width="4" x="250.664" y="53"/><text fill="#000000" font-family="sans-serif" font-size="14" lengthAdjust="spacing" textLength="95.334" x="152.33" y="75.5352">SamplyProxy1</text></g><!--entity Broker--><g id="elem_Broker"><rect fill="#F1F1F1" height="46.4883" rx="2.5" ry="2.5" style="stroke:#181818;stroke-width:0.5;" width="84.0918" x="258.95" y="168.48"/><rect fill="#F1F1F1" height="10" style="stroke:#181818;stroke-width:0.5;" width="15" x="323.0418" y="173.48"/><rect fill="#F1F1F1" height="2" style="stroke:#181818;stroke-width:0.5;" width="4" x="321.0418" y="175.48"/><rect fill="#F1F1F1" height="2" style="stroke:#181818;stroke-width:0.5;" width="4" x="321.0418" y="179.48"/><text fill="#000000" font-family="sans-serif" font-size="14" lengthAdjust="spacing" textLength="44.0918" x="273.95" y="202.0152">Broker</text></g><!--entity SamplyProxy2--><g id="elem_SamplyProxy2"><rect fill="#F1F1F1" height="46.4883" rx="2.5" ry="2.5" style="stroke:#181818;stroke-width:0.5;" width="135.334" x="128.33" y="289.97"/><rect fill="#F1F1F1" height="10" style="stroke:#181818;stroke-width:0.5;" width="15" x="243.664" y="294.97"/><rect fill="#F1F1F1" height="2" style="stroke:#181818;stroke-width:0.5;" width="4" x="241.664" y="296.97"/><rect fill="#F1F1F1" height="2" style="stroke:#181818;stroke-width:0.5;" width="4" x="241.664" y="300.97"/><text fill="#000000" font-family="sans-serif" font-size="14" lengthAdjust="spacing" textLength="95.334" x="143.33" y="323.5052">SamplyProxy2</text></g><!--entity Server1--><g id="elem_Server1"><rect fill="#F1F1F1" height="46.4883" rx="2.5" ry="2.5" style="stroke:#181818;stroke-width:0.5;" width="90.6953" x="298.65" y="289.97"/><rect fill="#F1F1F1" height="10" style="stroke:#181818;stroke-width:0.5;" width="15" x="369.3453" y="294.97"/><rect fill="#F1F1F1" height="2" style="stroke:#181818;stroke-width:0.5;" width="4" x="367.3453" y="296.97"/><rect fill="#F1F1F1" height="2" style="stroke:#181818;stroke-width:0.5;" width="4" x="367.3453" y="300.97"/><text fill="#000000" font-family="sans-serif" font-size="14" lengthAdjust="spacing" textLength="50.6953" x="313.65" y="323.5052">Server1</text></g><!--entity SamplyProxy4--><g id="elem_SamplyProxy4"><rect fill="#F1F1F1" height="46.4883" rx="2.5" ry="2.5" style="stroke:#181818;stroke-width:0.5;" width="135.334" x="445.33" y="289.97"/><rect fill="#F1F1F1" height="10" style="stroke:#181818;stroke-width:0.5;" width="15" x="560.664" y="294.97"/><rect fill="#F1F1F1" height="2" style="stroke:#181818;stroke-width:0.5;" width="4" x="558.664" y="296.97"/><rect fill="#F1F1F1" height="2" style="stroke:#181818;stroke-width:0.5;" width="4" x="558.664" y="300.97"/><text fill="#000000" font-family="sans-serif" font-size="14" lengthAdjust="spacing" textLength="95.334" x="460.33" y="323.5052">SamplyProxy4</text></g><!--entity Server2--><g id="elem_Server2"><rect fill="#F1F1F1" height="46.4883" rx="2.5" ry="2.5" style="stroke:#181818;stroke-width:0.5;" width="90.6953" x="615.65" y="289.97"/><rect fill="#F1F1F1" height="10" style="stroke:#181818;stroke-width:0.5;" width="15" x="686.3453" y="294.97"/><rect fill="#F1F1F1" height="2" style="stroke:#181818;stroke-width:0.5;" width="4" x="684.3453" y="296.97"/><rect fill="#F1F1F1" height="2" style="stroke:#181818;stroke-width:0.5;" width="4" x="684.3453" y="300.97"/><text fill="#000000" font-family="sans-serif" font-size="14" lengthAdjust="spacing" textLength="50.6953" x="630.65" y="323.5052">Server2</text></g><!--entity SamplyProxy3--><g id="elem_SamplyProxy3"><rect fill="#F1F1F1" height="46.4883" rx="2.5" ry="2.5" style="stroke:#181818;stroke-width:0.5;" width="135.334" x="329.33" y="42"/><rect fill="#F1F1F1" height="10" style="stroke:#181818;stroke-width:0.5;" width="15" x="444.664" y="47"/><rect fill="#F1F1F1" height="2" style="stroke:#181818;stroke-width:0.5;" width="4" x="442.664" y="49"/><rect fill="#F1F1F1" height="2" style="stroke:#181818;stroke-width:0.5;" width="4" x="442.664" y="53"/><text fill="#000000" font-family="sans-serif" font-size="14" lengthAdjust="spacing" textLength="95.334" x="344.33" y="75.5352">SamplyProxy3</text></g><!--entity Server3--><g id="elem_Server3"><rect fill="#F1F1F1" height="46.4883" rx="2.5" ry="2.5" style="stroke:#181818;stroke-width:0.5;" width="90.6953" x="499.65" y="42"/><rect fill="#F1F1F1" height="10" style="stroke:#181818;stroke-width:0.5;" width="15" x="570.3453" y="47"/><rect fill="#F1F1F1" height="2" style="stroke:#181818;stroke-width:0.5;" width="4" x="568.3453" y="49"/><rect fill="#F1F1F1" height="2" style="stroke:#181818;stroke-width:0.5;" width="4" x="568.3453" y="53"/><text fill="#000000" font-family="sans-serif" font-size="14" lengthAdjust="spacing" textLength="50.6953" x="514.65" y="75.5352">Server3</text></g><!--link Client to SamplyProxy1--><g id="link_Client_SamplyProxy1"><path d="M103.21,65.24 C114.48,65.24 125.75,65.24 137.01,65.24 " fill="none" id="Client-SamplyProxy1" style="stroke:#181818;stroke-width:1;"/></g><!--link SamplyProxy1 to Broker--><g id="link_SamplyProxy1_Broker"><path d="M222.38,88.78 C239.78,111.34 266.39,145.85 283.74,168.35 " fill="none" id="SamplyProxy1-Broker" style="stroke:#181818;stroke-width:1;"/></g><!--link SamplyProxy3 to Broker--><g id="link_SamplyProxy3_Broker"><path d="M379.62,88.78 C362.22,111.34 335.61,145.85 318.26,168.35 " fill="none" id="SamplyProxy3-Broker" style="stroke:#181818;stroke-width:1;"/></g><!--link Broker to SamplyProxy2--><g id="link_Broker_SamplyProxy2"><path d="M281.25,215.2 C262.48,236.56 234.4,268.51 215.66,289.84 " fill="none" id="Broker-SamplyProxy2" style="stroke:#181818;stroke-width:1;"/></g><!--link Broker to SamplyProxy4--><g id="link_Broker_SamplyProxy4"><path d="M343.32,214.04 C362.33,223.81 384.94,235.7 405,246.97 C429.25,260.6 456.02,276.77 476.84,289.6 " fill="none" id="Broker-SamplyProxy4" style="stroke:#181818;stroke-width:1;"/></g><!--link SamplyProxy2 to Server1--><g id="link_SamplyProxy2_Server1"><path d="M263.93,313.22 C275.4,313.22 286.87,313.22 298.33,313.22 " fill="none" id="SamplyProxy2-Server1" style="stroke:#181818;stroke-width:1;"/></g><!--link SamplyProxy4 to Server2--><g id="link_SamplyProxy4_Server2"><path d="M580.93,313.22 C592.4,313.22 603.87,313.22 615.33,313.22 " fill="none" id="SamplyProxy4-Server2" style="stroke:#181818;stroke-width:1;"/></g><!--link SamplyProxy3 to Server3--><g id="link_SamplyProxy3_Server3"><path d="M464.93,65.24 C476.4,65.24 487.87,65.24 499.33,65.24 " fill="none" id="SamplyProxy3-Server3" style="stroke:#181818;stroke-width:1;"/></g><!--SRC=[VP2n3e8m48RtFaN3mjI1mXFew6BInCKmr78Y0Lfo0ICnlhkLWbW5E_LwVx__xZ-Zh846ebCNjZDrOpJe5e8xeVOSjrLXozGLGjPDrU_HtFee9Gz2jCdiLsKLA2ig0A-5We2EVpTeIi11I1gfIfc_VAm8a8fMwinWoz_g3pYV_0Qjire3H4k0n0Fmlu1u2H1xWDZj48Rq07WgTDRf73IPmg7iEng_f8pDOVWkVcky38z-76kjn0ToDyiKcw-SM_ntZ7dL9m00]--></g></svg>