<svg xmlns="http://www.w3.org/2000/svg" xmlns:xlink="http://www.w3.org/1999/xlink" contentStyleType="text/css" height="458px" preserveAspectRatio="none" style="width:915px;height:458px;background:#FFFFFF;" version="1.1" viewBox="0 0 915 458" width="915px" zoomAndPan="magnify"><defs/><g><!--class Client--><g id="elem_Client"><rect codeLine="5" fill="#F1F1F1" height="48" id="Client" rx="2.5" ry="2.5" style="stroke:#181818;stroke-width:0.5;" width="71.5049" x="32.38" y="7"/><ellipse cx="47.38" cy="23" fill="#ADD1B2" rx="11" ry="11" style="stroke:#181818;stroke-width:1;"/><path d="M49.8531,29.1431 Q49.2721,29.4419 48.6329,29.5913 Q47.9938,29.7407 47.2882,29.7407 Q44.7814,29.7407 43.4615,28.0889 Q42.1417,26.437 42.1417,23.3159 Q42.1417,20.1865 43.4615,18.5347 Q44.7814,16.8828 47.2882,16.8828 Q47.9938,16.8828 48.6412,17.0322 Q49.2887,17.1816 49.8531,17.4805 L49.8531,20.2031 Q49.2223,19.6221 48.6288,19.3523 Q48.0353,19.0825 47.4044,19.0825 Q46.0597,19.0825 45.3749,20.1492 Q44.6901,21.2158 44.6901,23.3159 Q44.6901,25.4077 45.3749,26.4744 Q46.0597,27.541 47.4044,27.541 Q48.0353,27.541 48.6288,27.2712 Q49.2223,27.0015 49.8531,26.4204 Z " fill="#000000"/><text fill="#000000" font-family="sans-serif" font-size="14" lengthAdjust="spacing" textLength="39.5049" x="61.38" y="28.291">Client</text><line style="stroke:#181818;stroke-width:0.5;" x1="33.38" x2="102.8849" y1="39" y2="39"/><line style="stroke:#181818;stroke-width:0.5;" x1="33.38" x2="102.8849" y1="47" y2="47"/></g><!--class Client_Proxy--><g id="elem_Client_Proxy"><rect codeLine="7" fill="#F1F1F1" height="64.4883" id="Client_Proxy" rx="2.5" ry="2.5" style="stroke:#181818;stroke-width:0.5;" width="122.2705" x="7" y="188.49"/><ellipse cx="24.6095" cy="204.49" fill="#ADD1B2" rx="11" ry="11" style="stroke:#181818;stroke-width:1;"/><path d="M27.0826,210.6331 Q26.5016,210.9319 25.8624,211.0813 Q25.2232,211.2307 24.5177,211.2307 Q22.0108,211.2307 20.691,209.5789 Q19.3712,207.927 19.3712,204.8059 Q19.3712,201.6765 20.691,200.0247 Q22.0108,198.3728 24.5177,198.3728 Q25.2232,198.3728 25.8707,198.5222 Q26.5182,198.6716 27.0826,198.9705 L27.0826,201.6931 Q26.4518,201.1121 25.8583,200.8423 Q25.2647,200.5725 24.6339,200.5725 Q23.2892,200.5725 22.6043,201.6392 Q21.9195,202.7058 21.9195,204.8059 Q21.9195,206.8977 22.6043,207.9644 Q23.2892,209.031 24.6339,209.031 Q25.2647,209.031 25.8583,208.7612 Q26.4518,208.4915 27.0826,207.9104 Z " fill="#000000"/><text fill="#000000" font-family="sans-serif" font-size="14" lengthAdjust="spacing" textLength="84.4717" x="39.1894" y="209.781">Client_Proxy</text><line style="stroke:#181818;stroke-width:0.5;" x1="8" x2="128.2705" y1="220.49" y2="220.49"/><line style="stroke:#181818;stroke-width:0.5;" x1="8" x2="128.2705" y1="228.49" y2="228.49"/><ellipse cx="18" cy="242.2341" fill="#84BE84" rx="3" ry="3" style="stroke:#038048;stroke-width:1;"/><text fill="#000000" font-family="sans-serif" font-size="14" lengthAdjust="spacing" textLength="96.2705" x="27" y="246.0252">SendRequest()</text></g><!--class Broker--><g id="elem_Broker"><rect codeLine="11" fill="#F1F1F1" height="97.4648" id="Broker" rx="2.5" ry="2.5" style="stroke:#181818;stroke-width:0.5;" width="154.8232" x="443.72" y="172"/><ellipse cx="494.8357" cy="188" fill="#ADD1B2" rx="11" ry="11" style="stroke:#181818;stroke-width:1;"/><path d="M497.3089,194.1431 Q496.7278,194.4419 496.0887,194.5913 Q495.4495,194.7407 494.7439,194.7407 Q492.2371,194.7407 490.9173,193.0889 Q489.5974,191.437 489.5974,188.3159 Q489.5974,185.1865 490.9173,183.5347 Q492.2371,181.8828 494.7439,181.8828 Q495.4495,181.8828 496.097,182.0322 Q496.7444,182.1816 497.3089,182.4805 L497.3089,185.2031 Q496.678,184.6221 496.0845,184.3523 Q495.491,184.0825 494.8601,184.0825 Q493.5154,184.0825 492.8306,185.1492 Q492.1458,186.2158 492.1458,188.3159 Q492.1458,190.4077 492.8306,191.4744 Q493.5154,192.541 494.8601,192.541 Q495.491,192.541 496.0845,192.2712 Q496.678,192.0015 497.3089,191.4204 Z " fill="#000000"/><text fill="#000000" font-family="sans-serif" font-size="14" lengthAdjust="spacing" textLength="44.0918" x="515.3357" y="193.291">Broker</text><line style="stroke:#181818;stroke-width:0.5;" x1="444.72" x2="597.5432" y1="204" y2="204"/><line style="stroke:#181818;stroke-width:0.5;" x1="444.72" x2="597.5432" y1="212" y2="212"/><ellipse cx="454.72" cy="225.7441" fill="#84BE84" rx="3" ry="3" style="stroke:#038048;stroke-width:1;"/><text fill="#000000" font-family="sans-serif" font-size="14" lengthAdjust="spacing" textLength="118.3232" x="463.72" y="229.5352">ForwardRequest()</text><ellipse cx="454.72" cy="242.2324" fill="#84BE84" rx="3" ry="3" style="stroke:#038048;stroke-width:1;"/><text fill="#000000" font-family="sans-serif" font-size="14" lengthAdjust="spacing" textLength="128.8232" x="463.72" y="246.0234">ForwardResponse()</text><ellipse cx="454.72" cy="258.7207" fill="#84BE84" rx="3" ry="3" style="stroke:#038048;stroke-width:1;"/><text fill="#000000" font-family="sans-serif" font-size="14" lengthAdjust="spacing" textLength="111.7676" x="463.72" y="262.5117">RegisterService()</text></g><!--class Server_Proxy--><g id="elem_Server_Proxy"><rect codeLine="17" fill="#F1F1F1" height="80.9766" id="Server_Proxy" rx="2.5" ry="2.5" style="stroke:#181818;stroke-width:0.5;" width="132.7705" x="454.75" y="370.46"/><ellipse cx="476.0324" cy="386.46" fill="#ADD1B2" rx="11" ry="11" style="stroke:#181818;stroke-width:1;"/><path d="M478.5056,392.6031 Q477.9245,392.9019 477.2854,393.0513 Q476.6462,393.2007 475.9406,393.2007 Q473.4338,393.2007 472.114,391.5489 Q470.7941,389.897 470.7941,386.7759 Q470.7941,383.6465 472.114,381.9947 Q473.4338,380.3428 475.9406,380.3428 Q476.6462,380.3428 477.2937,380.4922 Q477.9411,380.6416 478.5056,380.9405 L478.5056,383.6631 Q477.8747,383.0821 477.2812,382.8123 Q476.6877,382.5425 476.0568,382.5425 Q474.7121,382.5425 474.0273,383.6092 Q473.3425,384.6758 473.3425,386.7759 Q473.3425,388.8677 474.0273,389.9344 Q474.7121,391.001 476.0568,391.001 Q476.6877,391.001 477.2812,390.7312 Q477.8747,390.4615 478.5056,389.8804 Z " fill="#000000"/><text fill="#000000" font-family="sans-serif" font-size="14" lengthAdjust="spacing" textLength="86.8096" x="491.4285" y="391.751">Server_Proxy</text><line style="stroke:#181818;stroke-width:0.5;" x1="455.75" x2="586.5205" y1="402.46" y2="402.46"/><line style="stroke:#181818;stroke-width:0.5;" x1="455.75" x2="586.5205" y1="410.46" y2="410.46"/><ellipse cx="465.75" cy="424.2041" fill="#84BE84" rx="3" ry="3" style="stroke:#038048;stroke-width:1;"/><text fill="#000000" font-family="sans-serif" font-size="14" lengthAdjust="spacing" textLength="81.9492" x="474.75" y="427.9952">CallService()</text><ellipse cx="465.75" cy="440.6924" fill="#84BE84" rx="3" ry="3" style="stroke:#038048;stroke-width:1;"/><text fill="#000000" font-family="sans-serif" font-size="14" lengthAdjust="spacing" textLength="106.7705" x="474.75" y="444.4834">SendResponse()</text></g><!--class Server--><g id="elem_Server"><rect codeLine="22" fill="#F1F1F1" height="64.4883" id="Server" rx="2.5" ry="2.5" style="stroke:#181818;stroke-width:0.5;" width="108.667" x="799.8" y="378.71"/><ellipse cx="830.4709" cy="394.71" fill="#ADD1B2" rx="11" ry="11" style="stroke:#181818;stroke-width:1;"/><path d="M832.944,400.8531 Q832.363,401.1519 831.7238,401.3013 Q831.0847,401.4507 830.3791,401.4507 Q827.8723,401.4507 826.5524,399.7989 Q825.2326,398.147 825.2326,395.0259 Q825.2326,391.8965 826.5524,390.2447 Q827.8723,388.5928 830.3791,388.5928 Q831.0847,388.5928 831.7321,388.7422 Q832.3796,388.8916 832.944,389.1905 L832.944,391.9131 Q832.3132,391.3321 831.7197,391.0623 Q831.1262,390.7925 830.4953,390.7925 Q829.1506,390.7925 828.4658,391.8592 Q827.781,392.9258 827.781,395.0259 Q827.781,397.1177 828.4658,398.1844 Q829.1506,399.251 830.4953,399.251 Q831.1262,399.251 831.7197,398.9812 Q832.3132,398.7115 832.944,398.1304 Z " fill="#000000"/><text fill="#000000" font-family="sans-serif" font-size="14" lengthAdjust="spacing" textLength="41.8428" x="847.9533" y="400.001">Server</text><line style="stroke:#181818;stroke-width:0.5;" x1="800.8" x2="907.467" y1="410.71" y2="410.71"/><line style="stroke:#181818;stroke-width:0.5;" x1="800.8" x2="907.467" y1="418.71" y2="418.71"/><ellipse cx="810.8" cy="432.4541" fill="#84BE84" rx="3" ry="3" style="stroke:#038048;stroke-width:1;"/><text fill="#000000" font-family="sans-serif" font-size="14" lengthAdjust="spacing" textLength="82.667" x="819.8" y="436.2452">RunService()</text></g><!--link Client to Client_Proxy--><g id="link_Client_Client_Proxy"><path codeLine="26" d="M68.14,55.4 C68.14,88.91 68.14,150.68 68.14,188.2 " fill="none" id="Client-Client_Proxy" style="stroke:#181818;stroke-width:1;"/><polygon fill="#000000" points="73.14,118.6553,76.0789,109.6102,70.2011,109.6102,73.14,118.6553" style="stroke:#000000;stroke-width:1;"/><text fill="#000000" font-family="sans-serif" font-size="13" lengthAdjust="spacing" textLength="97.0112" x="82.14" y="118.5684">1 send Request</text></g><!--link Client_Proxy to Broker--><g id="link_Client_Proxy_Broker"><path codeLine="27" d="M129.7,220.73 C211.1,220.73 348.59,220.73 437.38,220.73 " fill="none" id="Client_Proxy-to-Broker" style="stroke:#181818;stroke-width:1;stroke-dasharray:7.0,7.0;"/><polygon fill="#181818" points="443.38,220.73,434.38,216.73,438.38,220.73,434.38,224.73,443.38,220.73" style="stroke:#181818;stroke-width:1;"/><polygon fill="#000000" points="239,209.3853,229.9549,206.4463,229.9549,212.3242,239,209.3853" style="stroke:#000000;stroke-width:1;"/><text fill="#000000" font-family="sans-serif" font-size="13" lengthAdjust="spacing" textLength="100.7881" x="243" y="214.2984">2 send Message</text></g><!--link Broker to Client_Proxy--><g id="link_Broker_Client_Proxy"><path codeLine="28" d="M443.26,231.28 C411.6,235.07 374.61,238.87 341,240.73 C292.63,243.41 280.35,243.67 232,240.73 C197.96,238.66 166.0951,234.9995 135.3951,230.8195 " fill="none" id="Broker-to-Client_Proxy" style="stroke:#181818;stroke-width:1;stroke-dasharray:7.0,7.0;"/><polygon fill="#181818" points="129.45,230.01,137.8281,235.1876,134.4043,230.6846,138.9074,227.2608,129.45,230.01" style="stroke:#181818;stroke-width:1;"/><polygon fill="#000000" points="232,232.3778,241.0407,235.3302,241.0495,229.4524,232,232.3778" style="stroke:#000000;stroke-width:1;"/><text fill="#000000" font-family="sans-serif" font-size="13" lengthAdjust="spacing" textLength="94.104" x="246" y="237.2984">7 return Result</text></g><!--link Broker to Server_Proxy--><g id="link_Broker_Server_Proxy"><path codeLine="29" d="M454.8,269.71 C442.12,300.76 440.6064,335.3592 455.7464,364.6692 " fill="none" id="Broker-to-Server_Proxy" style="stroke:#181818;stroke-width:1;stroke-dasharray:7.0,7.0;"/><polygon fill="#181818" points="458.5,370,457.9234,360.168,456.2053,365.5577,450.8157,363.8395,458.5,370" style="stroke:#181818;stroke-width:1;"/><text fill="#000000" font-family="sans-serif" font-size="13" lengthAdjust="spacing" textLength="115.6733" x="331.1458" y="362.5881">3 forward Request</text></g><!--link Server_Proxy to Broker--><g id="link_Server_Proxy_Broker"><path codeLine="30" d="M583.77,370 C598.91,340.69 602.4184,306.3147 589.7384,275.2647 " fill="none" id="Server_Proxy-to-Broker" style="stroke:#181818;stroke-width:1;stroke-dasharray:7.0,7.0;"/><polygon fill="#181818" points="587.47,269.71,587.1695,279.5543,589.3603,274.3389,594.5757,276.5298,587.47,269.71" style="stroke:#181818;stroke-width:1;"/><text fill="#000000" font-family="sans-serif" font-size="13" lengthAdjust="spacing" textLength="125.6646" x="458.8474" y="359.5698">6 handover Request</text></g><!--link Server_Proxy to Server--><g id="link_Server_Proxy_Server"><path codeLine="31" d="M587.72,410.95 C649.88,410.95 735.52,410.95 793.5,410.95 " fill="none" id="Server_Proxy-to-Server" style="stroke:#181818;stroke-width:1;"/><polygon fill="#181818" points="799.5,410.95,790.5,406.95,794.5,410.95,790.5,414.95,799.5,410.95" style="stroke:#181818;stroke-width:1;"/><polygon fill="#000000" points="697.16,401.45,688.1149,398.5111,688.1149,404.3889,697.16,401.45" style="stroke:#000000;stroke-width:1;"/><text fill="#000000" font-family="sans-serif" font-size="13" lengthAdjust="spacing" textLength="81.7515" x="595.6116" y="407.9791">4 call Service</text></g><!--link Server to Server_Proxy--><g id="link_Server_Server_Proxy"><path codeLine="32" d="M799.37,418.04 C770.01,421.48 733.17,425.24 700.16,426.95 C662.92,428.88 627.3953,426.2509 593.7453,422.1209 " fill="none" id="Server-to-Server_Proxy" style="stroke:#181818;stroke-width:1;"/><polygon fill="#181818" points="587.79,421.39,596.2357,426.4566,592.7528,421.9991,597.2102,418.5162,587.79,421.39" style="stroke:#181818;stroke-width:1;"/><polygon fill="#000000" points="687.161,420.5492,696.2626,423.3081,696.146,417.4314,687.161,420.5492" style="stroke:#000000;stroke-width:1;"/><text fill="#000000" font-family="sans-serif" font-size="13" lengthAdjust="spacing" textLength="85.3442" x="706.3296" y="415.5869">5 send Result</text></g><!--reverse link Broker to Server--><g id="link_Broker_Server"><path codeLine="33" d="M604.4332,254.3402 C646.2632,271.8802 692.54,293.31 736.14,319.46 C764.91,336.73 794.89,359.8 817.43,378.32 " fill="none" id="Broker-backto-Server" style="stroke:#181818;stroke-width:1;stroke-dasharray:7.0,7.0;"/><polygon fill="#181818" points="598.9,252.02,605.6531,259.1891,603.511,253.9535,608.7466,251.8114,598.9,252.02" style="stroke:#181818;stroke-width:1;"/><text fill="#000000" font-family="sans-serif" font-size="13" lengthAdjust="spacing" textLength="108.875" x="691.6589" y="368.0175">0 register Service</text></g><!--SRC=[NL7BQiCm4BphAnPTqb9idFG5flXGGs-5udn04SusDNObTrVkWz1_humLsR9k6itEpeouRNIlI7s0DWTax66NPO83Iagt8xfrgAWxnGnbrw2sfx_u_lf2vkSNJWBSkO8zwaE5dmEolRWKWVj8faKAh2T3tueMn1NClT6C0Q_msB15sYDzDJKkXKS8QMMYL5qtSvV6Wl1A88nMWrvksMoWD5fZRHit26BA34aIfyzX2-mMW4y4XOZUqy8taCDk8ZuZipgY8_fg76KvaiCz4Dg1jDFaeRCGKUKrl4rbdLTAYBiGqKtUmRlI1pD63GF1LSnD2g-KWxo1sdK9lXBfFFY-0idRbRVd0aQpSZRxaAOWCvTb-i9PoiyByGy0]--></g></svg>