<svg xmlns="http://www.w3.org/2000/svg" xmlns:xlink="http://www.w3.org/1999/xlink" contentStyleType="text/css" height="435px" preserveAspectRatio="none" style="width:673px;height:435px;background:#FFFFFF;" version="1.1" viewBox="0 0 673 435" width="673px" zoomAndPan="magnify"><defs/><g><!--cluster Local--><g id="cluster_Local"><path d="M8.5,6 L46.8174,6 A3.75,3.75 0 0 1 49.3174,8.5 L56.3174,28.4883 L619.5,28.4883 A2.5,2.5 0 0 1 622,30.9883 L622,304.47 A2.5,2.5 0 0 1 619.5,306.97 L8.5,306.97 A2.5,2.5 0 0 1 6,304.47 L6,8.5 A2.5,2.5 0 0 1 8.5,6 " fill="none" style="stroke:#000000;stroke-width:1.5;"/><line style="stroke:#000000;stroke-width:1.5;" x1="6" x2="56.3174" y1="28.4883" y2="28.4883"/><text fill="#000000" font-family="sans-serif" font-size="14" font-weight="bold" lengthAdjust="spacing" textLength="37.3174" x="10" y="21.5352">Local</text></g><!--cluster Bridgehead--><g id="cluster_Bridgehead"><rect fill="none" height="179.49" rx="2.5" ry="2.5" style="stroke:#181818;stroke-width:1;" width="340" x="122" y="103.48"/><path d="M213.3545,103.48 L213.3545,112.9683 L203.3545,122.9683 L122,122.9683 " fill="none" style="stroke:#181818;stroke-width:1;"/><text fill="#000000" font-family="sans-serif" font-size="14" font-weight="bold" lengthAdjust="spacing" textLength="81.3545" x="125" y="118.0152">Bridgehead</text></g><!--cluster Database--><g id="cluster_Database"><path d="M146,156.48 C146,146.48 292,146.48 292,146.48 C292,146.48 438,146.48 438,156.48 L438,248.97 C438,258.97 292,258.97 292,258.97 C292,258.97 146,258.97 146,248.97 L146,156.48 " fill="none" style="stroke:#181818;stroke-width:1;"/><path d="M146,156.48 C146,166.48 292,166.48 292,166.48 C292,166.48 438,166.48 438,156.48 " fill="none" style="stroke:#181818;stroke-width:1;"/><text fill="#000000" font-family="sans-serif" font-size="14" font-weight="bold" lengthAdjust="spacing" textLength="66.8623" x="258.5688" y="182.0152">Database</text></g><!--cluster Central--><g id="cluster_Central"><path d="M128.5,330.97 L181.6924,330.97 A3.75,3.75 0 0 1 184.1924,333.47 L191.1924,353.4583 L663.5,353.4583 A2.5,2.5 0 0 1 666,355.9583 L666,425.96 A2.5,2.5 0 0 1 663.5,428.46 L128.5,428.46 A2.5,2.5 0 0 1 126,425.96 L126,333.47 A2.5,2.5 0 0 1 128.5,330.97 " fill="none" style="stroke:#000000;stroke-width:1.5;"/><line style="stroke:#000000;stroke-width:1.5;" x1="126" x2="191.1924" y1="353.4583" y2="353.4583"/><text fill="#000000" font-family="sans-serif" font-size="14" font-weight="bold" lengthAdjust="spacing" textLength="52.1924" x="130" y="346.5052">Central</text></g><!--entity Site1-DB1 (ADT)--><g id="elem_Site1-DB1 (ADT)"><rect fill="#F1F1F1" height="46.4883" rx="2.5" ry="2.5" style="stroke:#181818;stroke-width:0.5;" width="151.501" x="22.25" y="41"/><rect fill="#F1F1F1" height="10" style="stroke:#181818;stroke-width:0.5;" width="15" x="153.751" y="46"/><rect fill="#F1F1F1" height="2" style="stroke:#181818;stroke-width:0.5;" width="4" x="151.751" y="48"/><rect fill="#F1F1F1" height="2" style="stroke:#181818;stroke-width:0.5;" width="4" x="151.751" y="52"/><text fill="#000000" font-family="sans-serif" font-size="14" lengthAdjust="spacing" textLength="111.501" x="37.25" y="74.5352">Site1-DB1 (ADT)</text></g><!--entity Site1-DB2 (OMICS)--><g id="elem_Site1-DB2 (OMICS)"><rect fill="#F1F1F1" height="46.4883" rx="2.5" ry="2.5" style="stroke:#181818;stroke-width:0.5;" width="166.6973" x="208.65" y="41"/><rect fill="#F1F1F1" height="10" style="stroke:#181818;stroke-width:0.5;" width="15" x="355.3473" y="46"/><rect fill="#F1F1F1" height="2" style="stroke:#181818;stroke-width:0.5;" width="4" x="353.3473" y="48"/><rect fill="#F1F1F1" height="2" style="stroke:#181818;stroke-width:0.5;" width="4" x="353.3473" y="52"/><text fill="#000000" font-family="sans-serif" font-size="14" lengthAdjust="spacing" textLength="126.6973" x="223.65" y="74.5352">Site1-DB2 (OMICS)</text></g><!--entity Site1-DB3 (CENTRAXX)--><g id="elem_Site1-DB3 (CENTRAXX)"><rect fill="#F1F1F1" height="46.4883" rx="2.5" ry="2.5" style="stroke:#181818;stroke-width:0.5;" width="195.0117" x="410.49" y="41"/><rect fill="#F1F1F1" height="10" style="stroke:#181818;stroke-width:0.5;" width="15" x="585.5017" y="46"/><rect fill="#F1F1F1" height="2" style="stroke:#181818;stroke-width:0.5;" width="4" x="583.5017" y="48"/><rect fill="#F1F1F1" height="2" style="stroke:#181818;stroke-width:0.5;" width="4" x="583.5017" y="52"/><text fill="#000000" font-family="sans-serif" font-size="14" lengthAdjust="spacing" textLength="155.0117" x="425.49" y="74.5352">Site1-DB3 (CENTRAXX)</text></g><!--entity Version1.0 SQL, Version2.0 FHIR--><g id="elem_Version1.0 SQL, Version2.0 FHIR"><rect fill="#F1F1F1" height="46.4883" rx="2.5" ry="2.5" style="stroke:#181818;stroke-width:0.5;" width="260.8555" x="161.57" y="196.48"/><rect fill="#F1F1F1" height="10" style="stroke:#181818;stroke-width:0.5;" width="15" x="402.4255" y="201.48"/><rect fill="#F1F1F1" height="2" style="stroke:#181818;stroke-width:0.5;" width="4" x="400.4255" y="203.48"/><rect fill="#F1F1F1" height="2" style="stroke:#181818;stroke-width:0.5;" width="4" x="400.4255" y="207.48"/><text fill="#000000" font-family="sans-serif" font-size="14" lengthAdjust="spacing" textLength="220.8555" x="176.57" y="230.0152">Version1.0 SQL, Version2.0 FHIR</text></g><!--entity F?derierte Suche (LENS, CCP-Explorer)--><g id="elem_F&#246;derierte Suche (LENS, CCP-Explorer)"><rect fill="#F1F1F1" height="46.4883" rx="2.5" ry="2.5" style="stroke:#181818;stroke-width:0.5;" width="300.8047" x="141.6" y="365.97"/><rect fill="#F1F1F1" height="10" style="stroke:#181818;stroke-width:0.5;" width="15" x="422.4047" y="370.97"/><rect fill="#F1F1F1" height="2" style="stroke:#181818;stroke-width:0.5;" width="4" x="420.4047" y="372.97"/><rect fill="#F1F1F1" height="2" style="stroke:#181818;stroke-width:0.5;" width="4" x="420.4047" y="376.97"/><text fill="#000000" font-family="sans-serif" font-size="14" lengthAdjust="spacing" textLength="260.8047" x="156.6" y="399.5052">F&#246;derierte Suche (LENS, CCP-Explorer)</text></g><!--entity Pseudonymisierung--><g id="elem_Pseudonymisierung"><rect fill="#F1F1F1" height="46.4883" rx="2.5" ry="2.5" style="stroke:#181818;stroke-width:0.5;" width="172.7129" x="477.64" y="365.97"/><rect fill="#F1F1F1" height="10" style="stroke:#181818;stroke-width:0.5;" width="15" x="630.3529" y="370.97"/><rect fill="#F1F1F1" height="2" style="stroke:#181818;stroke-width:0.5;" width="4" x="628.3529" y="372.97"/><rect fill="#F1F1F1" height="2" style="stroke:#181818;stroke-width:0.5;" width="4" x="628.3529" y="376.97"/><text fill="#000000" font-family="sans-serif" font-size="14" lengthAdjust="spacing" textLength="132.7129" x="492.64" y="399.5052">Pseudonymisierung</text></g><!--link Site1-DB1 (ADT) to Version1.0 SQL, Version2.0 FHIR--><g id="link_Site1-DB1 (ADT)_Version1.0 SQL, Version2.0 FHIR"><path d="M126.63,87.89 C163.3,116.91 221.8147,163.197 258.5547,192.267 " fill="none" id="Site1-DB1 (ADT)-to-Version1.0 SQL, Version2.0 FHIR" style="stroke:#181818;stroke-width:1;"/><polygon fill="#181818" points="263.26,195.99,258.6841,187.2687,259.3389,192.8875,253.7201,193.5424,263.26,195.99" style="stroke:#181818;stroke-width:1;"/></g><!--link Site1-DB2 (OMICS) to Version1.0 SQL, Version2.0 FHIR--><g id="link_Site1-DB2 (OMICS)_Version1.0 SQL, Version2.0 FHIR"><path d="M292,87.89 C292,116.91 292,160.92 292,189.99 " fill="none" id="Site1-DB2 (OMICS)-to-Version1.0 SQL, Version2.0 FHIR" style="stroke:#181818;stroke-width:1;"/><polygon fill="#181818" points="292,195.99,296,186.99,292,190.99,288,186.99,292,195.99" style="stroke:#181818;stroke-width:1;"/></g><!--link Site1-DB3 (CENTRAXX) to Version1.0 SQL, Version2.0 FHIR--><g id="link_Site1-DB3 (CENTRAXX)_Version1.0 SQL, Version2.0 FHIR"><path d="M476.13,87.89 C435.29,116.91 369.7905,163.444 328.8905,192.514 " fill="none" id="Site1-DB3 (CENTRAXX)-to-Version1.0 SQL, Version2.0 FHIR" style="stroke:#181818;stroke-width:1;"/><polygon fill="#181818" points="324,195.99,333.6532,194.0364,328.0755,193.0933,329.0185,187.5156,324,195.99" style="stroke:#181818;stroke-width:1;"/></g><!--reverse link Version1.0 SQL, Version2.0 FHIR to F?derierte Suche (LENS, CCP-Explorer)--><g id="link_Version1.0 SQL, Version2.0 FHIR_F&#246;derierte Suche (LENS, CCP-Explorer)"><path d="M292,249.32 C292,281.37 292,333.71 292,365.72 " fill="none" id="Version1.0 SQL, Version2.0 FHIR-backto-F&#246;derierte Suche (LENS, CCP-Explorer)" style="stroke:#181818;stroke-width:1;"/><polygon fill="#181818" points="292,243.32,288,252.32,292,248.32,296,252.32,292,243.32" style="stroke:#181818;stroke-width:1;"/></g><!--SRC=[bL3HQi8m57tFLrnyiGCph7iLmQQL2PrJKqGOVSYQQnkcRKbRs1H_Qp-m7pDpLdGRhBiF8UUUUqvoJowY5n4ZjFmi4kiMx0YOUkAgH9kwZWtMq0rkmkjk3wp7Xp7Zt_jtO35l4io7owMXZjnAYurnTxIICIOePFt4PqbHYcTH6DuztIxPe_K2TQ6orBxj0f_v7JZXdi6Z-_4yF4_loTUv9tcz4iEqr1TBZJxU9Mg5kaJWLPGWMButuHrWR4gzrtoTQTJrJjC2AvcbRnjL64MLng6nRhV1mQt2n612VgG4b0uQVFcN7F-hl4gwgVYl2UXJsZob0m00]--></g></svg>