<svg xmlns="http://www.w3.org/2000/svg" xmlns:xlink="http://www.w3.org/1999/xlink" contentStyleType="text/css" height="503px" preserveAspectRatio="none" style="width:745px;height:503px;background:#FFFFFF;" version="1.1" viewBox="0 0 745 503" width="745px" zoomAndPan="magnify"><defs/><g><!--cluster Browser--><g id="cluster_Browser"><rect fill="none" height="97.49" rx="2.5" ry="2.5" style="stroke:#181818;stroke-width:1;" width="102" x="7" y="11"/><path d="M75.6865,11 L75.6865,20.4883 L65.6865,30.4883 L7,30.4883 " fill="none" style="stroke:#181818;stroke-width:1;"/><text fill="#000000" font-family="sans-serif" font-size="14" font-weight="bold" lengthAdjust="spacing" textLength="58.6865" x="10" y="25.5352">Browser</text></g><!--cluster central Service--><g id="cluster_central Service"><polygon fill="none" points="133,16,143,6,464,6,464,219.97,454,229.97,133,229.97,133,16" style="stroke:#181818;stroke-width:1;"/><line style="stroke:#181818;stroke-width:1;" x1="454" x2="464" y1="16" y2="6"/><line style="stroke:#181818;stroke-width:1;" x1="133" x2="454" y1="16" y2="16"/><line style="stroke:#181818;stroke-width:1;" x1="454" x2="454" y1="16" y2="229.97"/><text fill="#000000" font-family="sans-serif" font-size="14" font-weight="bold" lengthAdjust="spacing" textLength="105.3623" x="241.8188" y="32.5352">central Service</text></g><!--cluster central Server--><g id="cluster_central Server"><path d="M490.5,132.49 L591.2227,132.49 A3.75,3.75 0 0 1 593.7227,134.99 L600.7227,154.9783 L735.5,154.9783 A2.5,2.5 0 0 1 738,157.4783 L738,494.45 A2.5,2.5 0 0 1 735.5,496.95 L490.5,496.95 A2.5,2.5 0 0 1 488,494.45 L488,134.99 A2.5,2.5 0 0 1 490.5,132.49 " fill="none" style="stroke:#000000;stroke-width:1.5;"/><line style="stroke:#000000;stroke-width:1.5;" x1="488" x2="600.7227" y1="154.9783" y2="154.9783"/><text fill="#000000" font-family="sans-serif" font-size="14" font-weight="bold" lengthAdjust="spacing" textLength="99.7227" x="492" y="148.0252">central Server</text></g><g id="cluster_##11"><path d="M525.9836,268.0929 C527.9419,262.1652 533.591,261.7123 537.3232,266.153 C540.0186,260.7662 544.9844,259.1583 548.9403,264.8288 C553.1473,259.7278 558.5857,259.8008 562.2136,265.5381 C565.2875,258.8283 569.6117,259.4976 574.0876,264.0615 C576.6527,258.0161 581.1512,257.6031 585.7808,261.6754 C589.1284,255.8134 593.4666,255.574 597.4106,261.0643 C601.6064,255.4276 605.8722,256.3907 609.2751,261.9077 C613.382,256.6451 617.2714,255.318 621.6712,261.5931 C626.3992,256.7148 630.4432,257.1096 633.3056,263.5165 C636.6354,258.6414 641.5006,259.7425 643.9129,264.5244 C647.5302,257.934 653.2276,258.143 657.0429,264.3208 C661.0645,259.3879 666.4598,259.5874 669.1274,265.7902 C672.7168,260.7615 677.0048,260.2517 680.0275,266.3456 C683.1715,261.7918 687.9602,260.631 691.187,266.2549 C701.2508,269.156 700.5355,276.3227 694.9074,282.7608 C704.2814,285.5174 704.1613,292.588 698.8326,298.9167 C704.8335,304.8965 703.4571,310.9868 696.1462,314.7011 C701.2135,320.8833 699.877,327.0042 691.9849,329.5562 C689.7159,334.5934 684.4393,334.618 681.3919,330.4521 C676.9694,336.1582 672.8666,335.3158 668.7803,330.0652 C665.6365,336.5347 661.1452,338.9661 655.5886,332.5319 C651.9483,338.7004 646.496,338.0997 643.7994,331.6502 C641.0473,336.7707 635.468,337.0917 632.3558,332.0559 C629.9415,338.1294 625.8763,338.4487 621.727,333.7712 C619.1247,340.366 613.2431,341.298 609.3924,334.9618 C605.3851,339.8488 601.718,339.3703 598.4166,334.1922 C593.2028,340.5859 588.8953,341.2133 584.4114,333.4692 C579.6214,338.8212 575.1907,338.6731 572.4567,331.5059 C568.8015,337.1378 565.0065,337.7952 561.1867,331.6636 C558.1928,336.7392 553.5304,336.5361 550.2591,331.9782 C545.7946,336.9926 540.0395,335.6126 538.2638,329.1644 C535.1281,335.3556 530.892,335.1715 526.8189,330.1186 C518.4615,325.928 517.9431,320.3453 525.6328,314.9037 C519.0593,310.8308 517.7982,303.7488 525.3831,299.4471 C517.297,293.4948 518.6279,288.633 526.4273,283.7365 C518.2087,279.0389 518.5486,273.2346 525.9836,268.0929 " fill="none" style="stroke:#181818;stroke-width:1;"/></g><!--cluster Mrbs--><g id="cluster_Mrbs"><path d="M512,370.46 C512,360.46 613,360.46 613,360.46 C613,360.46 714,360.46 714,370.46 L714,462.95 C714,472.95 613,472.95 613,472.95 C613,472.95 512,472.95 512,462.95 L512,370.46 " fill="none" style="stroke:#181818;stroke-width:1;"/><path d="M512,370.46 C512,380.46 613,380.46 613,380.46 C613,380.46 714,380.46 714,370.46 " fill="none" style="stroke:#181818;stroke-width:1;"/><text fill="#000000" font-family="sans-serif" font-size="14" font-weight="bold" lengthAdjust="spacing" textLength="36.2646" x="594.8677" y="395.9952">Mrbs</text></g><!--entity User--><g id="elem_User"><rect fill="#F1F1F1" height="46.4883" rx="2.5" ry="2.5" style="stroke:#181818;stroke-width:0.5;" width="70.3652" x="22.82" y="46"/><rect fill="#F1F1F1" height="10" style="stroke:#181818;stroke-width:0.5;" width="15" x="73.1852" y="51"/><rect fill="#F1F1F1" height="2" style="stroke:#181818;stroke-width:0.5;" width="4" x="71.1852" y="53"/><rect fill="#F1F1F1" height="2" style="stroke:#181818;stroke-width:0.5;" width="4" x="71.1852" y="57"/><text fill="#000000" font-family="sans-serif" font-size="14" lengthAdjust="spacing" textLength="30.3652" x="37.82" y="79.5352">User</text></g><!--entity Client--><g id="elem_Client"><rect fill="#F1F1F1" height="46.4883" rx="2.5" ry="2.5" style="stroke:#181818;stroke-width:0.5;" width="79.5049" x="174.25" y="46"/><rect fill="#F1F1F1" height="10" style="stroke:#181818;stroke-width:0.5;" width="15" x="233.7549" y="51"/><rect fill="#F1F1F1" height="2" style="stroke:#181818;stroke-width:0.5;" width="4" x="231.7549" y="53"/><rect fill="#F1F1F1" height="2" style="stroke:#181818;stroke-width:0.5;" width="4" x="231.7549" y="57"/><text fill="#000000" font-family="sans-serif" font-size="14" lengthAdjust="spacing" textLength="39.5049" x="189.25" y="79.5352">Client</text></g><!--entity OAuth--><g id="elem_OAuth"><rect fill="#F1F1F1" height="46.4883" rx="2.5" ry="2.5" style="stroke:#181818;stroke-width:0.5;" width="83.1484" x="288.43" y="46"/><rect fill="#F1F1F1" height="10" style="stroke:#181818;stroke-width:0.5;" width="15" x="351.5784" y="51"/><rect fill="#F1F1F1" height="2" style="stroke:#181818;stroke-width:0.5;" width="4" x="349.5784" y="53"/><rect fill="#F1F1F1" height="2" style="stroke:#181818;stroke-width:0.5;" width="4" x="349.5784" y="57"/><text fill="#000000" font-family="sans-serif" font-size="14" lengthAdjust="spacing" textLength="43.1484" x="303.43" y="79.5352">OAuth</text></g><!--entity Samply_Proxy_Client--><g id="elem_Samply_Proxy_Client"><rect fill="#F1F1F1" height="46.4883" rx="2.5" ry="2.5" style="stroke:#181818;stroke-width:0.5;" width="179.9863" x="149.01" y="167.49"/><rect fill="#F1F1F1" height="10" style="stroke:#181818;stroke-width:0.5;" width="15" x="308.9963" y="172.49"/><rect fill="#F1F1F1" height="2" style="stroke:#181818;stroke-width:0.5;" width="4" x="306.9963" y="174.49"/><rect fill="#F1F1F1" height="2" style="stroke:#181818;stroke-width:0.5;" width="4" x="306.9963" y="178.49"/><text fill="#000000" font-family="sans-serif" font-size="14" lengthAdjust="spacing" textLength="139.9863" x="164.01" y="201.0252">Samply_Proxy_Client</text></g><!--entity Broker--><g id="elem_Broker"><rect fill="#F1F1F1" height="46.4883" rx="2.5" ry="2.5" style="stroke:#181818;stroke-width:0.5;" width="84.0918" x="363.95" y="167.49"/><rect fill="#F1F1F1" height="10" style="stroke:#181818;stroke-width:0.5;" width="15" x="428.0418" y="172.49"/><rect fill="#F1F1F1" height="2" style="stroke:#181818;stroke-width:0.5;" width="4" x="426.0418" y="174.49"/><rect fill="#F1F1F1" height="2" style="stroke:#181818;stroke-width:0.5;" width="4" x="426.0418" y="178.49"/><text fill="#000000" font-family="sans-serif" font-size="14" lengthAdjust="spacing" textLength="44.0918" x="378.95" y="201.0252">Broker</text></g><!--entity Samply_Proxy_Server--><g id="elem_Samply_Proxy_Server"><rect fill="#F1F1F1" height="46.4883" rx="2.5" ry="2.5" style="stroke:#181818;stroke-width:0.5;" width="182.3242" x="507.84" y="167.49"/><rect fill="#F1F1F1" height="10" style="stroke:#181818;stroke-width:0.5;" width="15" x="670.1642" y="172.49"/><rect fill="#F1F1F1" height="2" style="stroke:#181818;stroke-width:0.5;" width="4" x="668.1642" y="174.49"/><rect fill="#F1F1F1" height="2" style="stroke:#181818;stroke-width:0.5;" width="4" x="668.1642" y="178.49"/><text fill="#000000" font-family="sans-serif" font-size="14" lengthAdjust="spacing" textLength="142.3242" x="522.84" y="201.0252">Samply_Proxy_Server</text></g><!--entity Server_REST_API--><g id="elem_Server_REST_API"><rect fill="#F1F1F1" height="46.4883" rx="2.5" ry="2.5" style="stroke:#181818;stroke-width:0.5;" width="150.1064" x="532.95" y="273.97"/><rect fill="#F1F1F1" height="10" style="stroke:#181818;stroke-width:0.5;" width="15" x="663.0564" y="278.97"/><rect fill="#F1F1F1" height="2" style="stroke:#181818;stroke-width:0.5;" width="4" x="661.0564" y="280.97"/><rect fill="#F1F1F1" height="2" style="stroke:#181818;stroke-width:0.5;" width="4" x="661.0564" y="284.97"/><text fill="#000000" font-family="sans-serif" font-size="14" lengthAdjust="spacing" textLength="110.1064" x="547.95" y="307.5052">Server_REST_API</text></g><!--entity Verbis_Raumplaner--><g id="elem_Verbis_Raumplaner"><rect fill="#F1F1F1" height="46.4883" rx="2.5" ry="2.5" style="stroke:#181818;stroke-width:0.5;" width="170.8262" x="527.59" y="410.46"/><rect fill="#F1F1F1" height="10" style="stroke:#181818;stroke-width:0.5;" width="15" x="678.4162" y="415.46"/><rect fill="#F1F1F1" height="2" style="stroke:#181818;stroke-width:0.5;" width="4" x="676.4162" y="417.46"/><rect fill="#F1F1F1" height="2" style="stroke:#181818;stroke-width:0.5;" width="4" x="676.4162" y="421.46"/><text fill="#000000" font-family="sans-serif" font-size="14" lengthAdjust="spacing" textLength="130.8262" x="542.59" y="443.9952">Verbis_Raumplaner</text></g><!--link User to Client--><g id="link_User_Client"><path d="M93.65,69.24 C120.45,69.24 147.24,69.24 174.04,69.24 " fill="none" id="User-Client" style="stroke:#181818;stroke-width:1;"/></g><!--link Client to Samply_Proxy_Client--><g id="link_Client_Samply_Proxy_Client"><path d="M218.7,92.72 C223.17,114.08 229.86,146.03 234.32,167.36 " fill="none" id="Client-Samply_Proxy_Client" style="stroke:#181818;stroke-width:1;"/></g><!--link Client to OAuth--><g id="link_Client_OAuth"><path d="M253.88,69.24 C265.27,69.24 276.67,69.24 288.07,69.24 " fill="none" id="Client-OAuth" style="stroke:#181818;stroke-width:1;stroke-dasharray:7.0,7.0;"/></g><!--link Samply_Proxy_Client to Broker--><g id="link_Samply_Proxy_Client_Broker"><path d="M329.35,190.73 C340.73,190.73 352.11,190.73 363.48,190.73 " fill="none" id="Samply_Proxy_Client-Broker" style="stroke:#181818;stroke-width:1;"/></g><!--link Broker to Samply_Proxy_Server--><g id="link_Broker_Samply_Proxy_Server"><path d="M448.22,202.65 C467.95,206.66 487.68,208.48 507.41,208.12 " fill="none" id="Broker-Samply_Proxy_Server" style="stroke:#181818;stroke-width:1;"/></g><!--link Samply_Proxy_Server to Server_REST_API--><g id="link_Samply_Proxy_Server_Server_REST_API"><path d="M600.95,214.4 C602.46,231.93 604.54,256.07 606.05,273.59 " fill="none" id="Samply_Proxy_Server-Server_REST_API" style="stroke:#181818;stroke-width:1;"/></g><!--link Server_REST_API to Verbis_Raumplaner--><g id="link_Server_REST_API_Verbis_Raumplaner"><path d="M608.84,320.73 C609.76,345.55 611.24,385.27 612.16,410.12 " fill="none" id="Server_REST_API-Verbis_Raumplaner" style="stroke:#181818;stroke-width:1;"/></g><!--SRC=[TL3B3e8m4BptAnekdF0Vq7ZmO2IWNWnf5gX8A8KKK8dXtwqKa6SFpMvdEhipTm49nTfMfA-S2Wr_49RdTf6DYsg4U1f8sAUy4C2mGyKpycbFsx588gvgJcPPFDhQWIHZ5R54-gx8Y2KdnQrs1duCuKH-iCH8H65An6Tf6RGinMn0Ok-TCp6jWsBLpHr00HxaSifHUBas_7MbmejoOaCfvm3lr6kvcwxZ1kL1oKFAaGe46t_BNO4DOyLkpzZqsImIVwfTAbs1ZHNxYwzgXsa6ivU6DZVz1G00]--></g></svg>