<svg xmlns="http://www.w3.org/2000/svg" xmlns:xlink="http://www.w3.org/1999/xlink" contentStyleType="text/css" height="479px" preserveAspectRatio="none" style="width:470px;height:479px;background:#FFFFFF;" version="1.1" viewBox="0 0 470 479" width="470px" zoomAndPan="magnify"><defs/><g><!--cluster mobile App--><g id="cluster_mobile App"><rect fill="none" height="203.97" rx="2.5" ry="2.5" style="stroke:#181818;stroke-width:1;" width="116" x="101" y="11"/><path d="M193.5781,11 L193.5781,20.4883 L183.5781,30.4883 L101,30.4883 " fill="none" style="stroke:#181818;stroke-width:1;"/><text fill="#000000" font-family="sans-serif" font-size="14" font-weight="bold" lengthAdjust="spacing" textLength="82.5781" x="104" y="25.5352">mobile App</text></g><!--cluster central Service--><g id="cluster_central Service"><polygon fill="none" points="241,16,251,6,453,6,453,204.97,443,214.97,241,214.97,241,16" style="stroke:#181818;stroke-width:1;"/><line style="stroke:#181818;stroke-width:1;" x1="443" x2="453" y1="16" y2="6"/><line style="stroke:#181818;stroke-width:1;" x1="241" x2="443" y1="16" y2="16"/><line style="stroke:#181818;stroke-width:1;" x1="443" x2="443" y1="16" y2="214.97"/><text fill="#000000" font-family="sans-serif" font-size="14" font-weight="bold" lengthAdjust="spacing" textLength="105.3623" x="290.3188" y="32.5352">central Service</text></g><!--cluster central Server--><g id="cluster_central Server"><path d="M8.5,238.97 L109.2227,238.97 A3.75,3.75 0 0 1 111.7227,241.47 L118.7227,261.4583 L459.5,261.4583 A2.5,2.5 0 0 1 462,263.9583 L462,470.45 A2.5,2.5 0 0 1 459.5,472.95 L8.5,472.95 A2.5,2.5 0 0 1 6,470.45 L6,241.47 A2.5,2.5 0 0 1 8.5,238.97 " fill="none" style="stroke:#000000;stroke-width:1.5;"/><line style="stroke:#000000;stroke-width:1.5;" x1="6" x2="118.7227" y1="261.4583" y2="261.4583"/><text fill="#000000" font-family="sans-serif" font-size="14" font-weight="bold" lengthAdjust="spacing" textLength="99.7227" x="10" y="254.5052">central Server</text></g><g id="cluster_##10"><path d="M264.9836,380.5829 C266.9419,374.6552 272.591,374.2023 276.3232,378.643 C279.0186,373.2562 283.9844,371.6483 287.9403,377.3188 C292.1473,372.2178 297.5857,372.2908 301.2136,378.0281 C304.2875,371.3183 308.6117,371.9876 313.0876,376.5515 C315.6527,370.5061 320.1512,370.0931 324.7808,374.1654 C328.1284,368.3034 332.4666,368.064 336.4106,373.5543 C340.6064,367.9176 344.8722,368.8807 348.2751,374.3977 C352.382,369.1351 356.2714,367.808 360.6712,374.0831 C365.3992,369.2048 369.4432,369.5996 372.3056,376.0065 C375.6354,371.1314 380.5006,372.2325 382.9129,377.0144 C386.5302,370.424 392.2276,370.633 396.0429,376.8108 C400.0645,371.8779 405.4598,372.0774 408.1274,378.2802 C411.7168,373.2515 416.0048,372.7417 419.0275,378.8356 C422.1715,374.2818 426.9602,373.121 430.187,378.7449 C440.2508,381.646 439.5355,388.8127 433.9074,395.2508 C443.2814,398.0074 443.1613,405.078 437.8326,411.4067 C443.8335,417.3865 442.4571,423.4768 435.1462,427.1911 C440.2135,433.3733 438.877,439.4942 430.9849,442.0462 C428.7159,447.0834 423.4393,447.108 420.3919,442.9421 C415.9694,448.6482 411.8666,447.8058 407.7803,442.5552 C404.6365,449.0247 400.1452,451.4561 394.5886,445.0219 C390.9483,451.1904 385.496,450.5897 382.7994,444.1402 C380.0473,449.2607 374.468,449.5817 371.3558,444.5459 C368.9415,450.6194 364.8763,450.9387 360.727,446.2612 C358.1247,452.856 352.2431,453.788 348.3924,447.4518 C344.3851,452.3388 340.718,451.8603 337.4166,446.6822 C332.2028,453.0759 327.8953,453.7033 323.4114,445.9592 C318.6214,451.3112 314.1907,451.1631 311.4567,443.9959 C307.8015,449.6278 304.0065,450.2852 300.1867,444.1536 C297.1928,449.2292 292.5304,449.0261 289.2591,444.4682 C284.7946,449.4826 279.0395,448.1026 277.2638,441.6544 C274.1281,447.8456 269.892,447.6615 265.8189,442.6086 C257.4615,438.418 256.9431,432.8353 264.6328,427.3937 C258.0593,423.3208 256.7982,416.2388 264.3831,411.9371 C256.297,405.9848 257.6279,401.123 265.4273,396.2265 C257.2087,391.5289 257.5486,385.7246 264.9836,380.5829 " fill="none" style="stroke:#181818;stroke-width:1;"/></g><!--cluster Mrbs--><g id="cluster_Mrbs"><path d="M30,346.46 C30,336.46 131,336.46 131,336.46 C131,336.46 232,336.46 232,346.46 L232,438.95 C232,448.95 131,448.95 131,448.95 C131,448.95 30,448.95 30,438.95 L30,346.46 " fill="none" style="stroke:#181818;stroke-width:1;"/><path d="M30,346.46 C30,356.46 131,356.46 131,356.46 C131,356.46 232,356.46 232,346.46 " fill="none" style="stroke:#181818;stroke-width:1;"/><text fill="#000000" font-family="sans-serif" font-size="14" font-weight="bold" lengthAdjust="spacing" textLength="36.2646" x="112.8677" y="371.9952">Mrbs</text></g><!--entity User--><g id="elem_User"><rect fill="#F1F1F1" height="46.4883" rx="2.5" ry="2.5" style="stroke:#181818;stroke-width:0.5;" width="70.3652" x="126.82" y="46"/><rect fill="#F1F1F1" height="10" style="stroke:#181818;stroke-width:0.5;" width="15" x="177.1852" y="51"/><rect fill="#F1F1F1" height="2" style="stroke:#181818;stroke-width:0.5;" width="4" x="175.1852" y="53"/><rect fill="#F1F1F1" height="2" style="stroke:#181818;stroke-width:0.5;" width="4" x="175.1852" y="57"/><text fill="#000000" font-family="sans-serif" font-size="14" lengthAdjust="spacing" textLength="30.3652" x="141.82" y="79.5352">User</text></g><!--entity OAuth--><g id="elem_OAuth"><rect fill="#F1F1F1" height="46.4883" rx="2.5" ry="2.5" style="stroke:#181818;stroke-width:0.5;" width="83.1484" x="117.43" y="152.49"/><rect fill="#F1F1F1" height="10" style="stroke:#181818;stroke-width:0.5;" width="15" x="180.5784" y="157.49"/><rect fill="#F1F1F1" height="2" style="stroke:#181818;stroke-width:0.5;" width="4" x="178.5784" y="159.49"/><rect fill="#F1F1F1" height="2" style="stroke:#181818;stroke-width:0.5;" width="4" x="178.5784" y="163.49"/><text fill="#000000" font-family="sans-serif" font-size="14" lengthAdjust="spacing" textLength="43.1484" x="132.43" y="186.0252">OAuth</text></g><!--entity Samply_Proxy_Client--><g id="elem_Samply_Proxy_Client"><rect fill="#F1F1F1" height="46.4883" rx="2.5" ry="2.5" style="stroke:#181818;stroke-width:0.5;" width="179.9863" x="257.01" y="46"/><rect fill="#F1F1F1" height="10" style="stroke:#181818;stroke-width:0.5;" width="15" x="416.9963" y="51"/><rect fill="#F1F1F1" height="2" style="stroke:#181818;stroke-width:0.5;" width="4" x="414.9963" y="53"/><rect fill="#F1F1F1" height="2" style="stroke:#181818;stroke-width:0.5;" width="4" x="414.9963" y="57"/><text fill="#000000" font-family="sans-serif" font-size="14" lengthAdjust="spacing" textLength="139.9863" x="272.01" y="79.5352">Samply_Proxy_Client</text></g><!--entity Broker--><g id="elem_Broker"><rect fill="#F1F1F1" height="46.4883" rx="2.5" ry="2.5" style="stroke:#181818;stroke-width:0.5;" width="84.0918" x="304.95" y="152.49"/><rect fill="#F1F1F1" height="10" style="stroke:#181818;stroke-width:0.5;" width="15" x="369.0418" y="157.49"/><rect fill="#F1F1F1" height="2" style="stroke:#181818;stroke-width:0.5;" width="4" x="367.0418" y="159.49"/><rect fill="#F1F1F1" height="2" style="stroke:#181818;stroke-width:0.5;" width="4" x="367.0418" y="163.49"/><text fill="#000000" font-family="sans-serif" font-size="14" lengthAdjust="spacing" textLength="44.0918" x="319.95" y="186.0252">Broker</text></g><!--entity Samply_Proxy_Server--><g id="elem_Samply_Proxy_Server"><rect fill="#F1F1F1" height="46.4883" rx="2.5" ry="2.5" style="stroke:#181818;stroke-width:0.5;" width="182.3242" x="255.84" y="273.97"/><rect fill="#F1F1F1" height="10" style="stroke:#181818;stroke-width:0.5;" width="15" x="418.1642" y="278.97"/><rect fill="#F1F1F1" height="2" style="stroke:#181818;stroke-width:0.5;" width="4" x="416.1642" y="280.97"/><rect fill="#F1F1F1" height="2" style="stroke:#181818;stroke-width:0.5;" width="4" x="416.1642" y="284.97"/><text fill="#000000" font-family="sans-serif" font-size="14" lengthAdjust="spacing" textLength="142.3242" x="270.84" y="307.5052">Samply_Proxy_Server</text></g><!--entity Server_REST_API--><g id="elem_Server_REST_API"><rect fill="#F1F1F1" height="46.4883" rx="2.5" ry="2.5" style="stroke:#181818;stroke-width:0.5;" width="150.1064" x="271.95" y="386.46"/><rect fill="#F1F1F1" height="10" style="stroke:#181818;stroke-width:0.5;" width="15" x="402.0564" y="391.46"/><rect fill="#F1F1F1" height="2" style="stroke:#181818;stroke-width:0.5;" width="4" x="400.0564" y="393.46"/><rect fill="#F1F1F1" height="2" style="stroke:#181818;stroke-width:0.5;" width="4" x="400.0564" y="397.46"/><text fill="#000000" font-family="sans-serif" font-size="14" lengthAdjust="spacing" textLength="110.1064" x="286.95" y="419.9952">Server_REST_API</text></g><!--entity Verbis_Raumplaner--><g id="elem_Verbis_Raumplaner"><rect fill="#F1F1F1" height="46.4883" rx="2.5" ry="2.5" style="stroke:#181818;stroke-width:0.5;" width="170.8262" x="45.59" y="386.46"/><rect fill="#F1F1F1" height="10" style="stroke:#181818;stroke-width:0.5;" width="15" x="196.4162" y="391.46"/><rect fill="#F1F1F1" height="2" style="stroke:#181818;stroke-width:0.5;" width="4" x="194.4162" y="393.46"/><rect fill="#F1F1F1" height="2" style="stroke:#181818;stroke-width:0.5;" width="4" x="194.4162" y="397.46"/><text fill="#000000" font-family="sans-serif" font-size="14" lengthAdjust="spacing" textLength="130.8262" x="60.59" y="419.9952">Verbis_Raumplaner</text></g><!--link User to OAuth--><g id="link_User_OAuth"><path d="M161.35,92.91 C160.85,110.44 160.15,134.59 159.65,152.1 " fill="none" id="User-OAuth" style="stroke:#181818;stroke-width:1;stroke-dasharray:7.0,7.0;"/></g><!--link User to Samply_Proxy_Client--><g id="link_User_Samply_Proxy_Client"><path d="M197.41,69.24 C217.18,69.24 236.95,69.24 256.72,69.24 " fill="none" id="User-Samply_Proxy_Client" style="stroke:#181818;stroke-width:1;"/></g><!--link Samply_Proxy_Client to Broker--><g id="link_Samply_Proxy_Client_Broker"><path d="M347,92.91 C347,110.44 347,134.59 347,152.1 " fill="none" id="Samply_Proxy_Client-Broker" style="stroke:#181818;stroke-width:1;"/></g><!--link Broker to Samply_Proxy_Server--><g id="link_Broker_Samply_Proxy_Server"><path d="M347,199.2 C347,220.57 347,252.51 347,273.84 " fill="none" id="Broker-Samply_Proxy_Server" style="stroke:#181818;stroke-width:1;"/></g><!--link Samply_Proxy_Server to Server_REST_API--><g id="link_Samply_Proxy_Server_Server_REST_API"><path d="M347,320.84 C347,339.91 347,367.05 347,386.11 " fill="none" id="Samply_Proxy_Server-Server_REST_API" style="stroke:#181818;stroke-width:1;"/></g><!--link Server_REST_API to Verbis_Raumplaner--><g id="link_Server_REST_API_Verbis_Raumplaner"><path d="M271.64,409.71 C253.3,409.71 234.97,409.71 216.64,409.71 " fill="none" id="Server_REST_API-Verbis_Raumplaner" style="stroke:#181818;stroke-width:1;"/></g><!--SRC=[TL3B3e8m4BptAnekdF0Vq7ZmO2IYNenf5bYLK5goWD4O_jr2yH707fhDpEpipfu9SkHEhgDK8lUBmdaoRjvnNoATRBdnw-fwOWrZIYT67AEg22GFaMvfZ0xlMqB82_aG0UdxGonaQcIzmvnqrjeP2rP0dC5bO8CqxM8vwn9BNIUzoYexKcoNuKxumSggckvFe888IZDbJL7f_7OTaAAq55kepHnGR_UcNSvrUKUhf5ONLCnUWSzcdoFqYFSdxIJAFUzxWdVHWPDP9r4h7mOU8UrYuu0l]--></g></svg>