<svg xmlns="http://www.w3.org/2000/svg" xmlns:xlink="http://www.w3.org/1999/xlink" contentStyleType="text/css" height="303px" preserveAspectRatio="none" style="width:261px;height:303px;background:#FFFFFF;" version="1.1" viewBox="0 0 261 303" width="261px" zoomAndPan="magnify"><defs/><g><line style="stroke:#181818;stroke-width:0.5;stroke-dasharray:5.0,5.0;" x1="108" x2="108" y1="36.4883" y2="267.6621"/><line style="stroke:#181818;stroke-width:0.5;stroke-dasharray:5.0,5.0;" x1="231.7612" x2="231.7612" y1="36.4883" y2="267.6621"/><rect fill="#E2E2F0" height="30.4883" rx="2.5" ry="2.5" style="stroke:#181818;stroke-width:0.5;" width="53.5049" x="82" y="5"/><text fill="#000000" font-family="sans-serif" font-size="14" lengthAdjust="spacing" textLength="39.5049" x="89" y="25.5352">Client</text><rect fill="#E2E2F0" height="30.4883" rx="2.5" ry="2.5" style="stroke:#181818;stroke-width:0.5;" width="53.5049" x="82" y="266.6621"/><text fill="#000000" font-family="sans-serif" font-size="14" lengthAdjust="spacing" textLength="39.5049" x="89" y="287.1973">Client</text><rect fill="#E2E2F0" height="30.4883" rx="2.5" ry="2.5" style="stroke:#181818;stroke-width:0.5;" width="45.2607" x="209.7612" y="5"/><text fill="#000000" font-family="sans-serif" font-size="14" lengthAdjust="spacing" textLength="31.2607" x="216.7612" y="25.5352">Host</text><rect fill="#E2E2F0" height="30.4883" rx="2.5" ry="2.5" style="stroke:#181818;stroke-width:0.5;" width="45.2607" x="209.7612" y="266.6621"/><text fill="#000000" font-family="sans-serif" font-size="14" lengthAdjust="spacing" textLength="31.2607" x="216.7612" y="287.1973">Host</text><polygon fill="#181818" points="119.7524,63.7988,109.7524,67.7988,119.7524,71.7988,115.7524,67.7988" style="stroke:#181818;stroke-width:1;"/><polygon fill="#181818" points="220.3916,63.7988,230.3916,67.7988,220.3916,71.7988,224.3916,67.7988" style="stroke:#181818;stroke-width:1;"/><line style="stroke:#181818;stroke-width:1;" x1="113.7524" x2="226.3916" y1="67.7988" y2="67.7988"/><text fill="#000000" font-family="sans-serif" font-size="13" lengthAdjust="spacing" textLength="97.2144" x="125.7524" y="63.0566">OpenConection</text><polygon fill="#181818" points="220.3916,93.1094,230.3916,97.1094,220.3916,101.1094,224.3916,97.1094" style="stroke:#181818;stroke-width:1;"/><line style="stroke:#181818;stroke-width:1;" x1="108.7524" x2="226.3916" y1="97.1094" y2="97.1094"/><text fill="#000000" font-family="sans-serif" font-size="13" lengthAdjust="spacing" textLength="99.6392" x="115.7524" y="92.3672">GET/index.html</text><polygon fill="#181818" points="119.7524,122.4199,109.7524,126.4199,119.7524,130.4199,115.7524,126.4199" style="stroke:#181818;stroke-width:1;"/><line style="stroke:#181818;stroke-width:1;" x1="113.7524" x2="231.3916" y1="126.4199" y2="126.4199"/><text fill="#000000" font-family="sans-serif" font-size="13" lengthAdjust="spacing" textLength="60.1948" x="125.7524" y="121.6777">Response</text><polygon fill="#181818" points="220.3916,151.7305,230.3916,155.7305,220.3916,159.7305,224.3916,155.7305" style="stroke:#181818;stroke-width:1;"/><line style="stroke:#181818;stroke-width:1;" x1="108.7524" x2="226.3916" y1="155.7305" y2="155.7305"/><text fill="#000000" font-family="sans-serif" font-size="13" lengthAdjust="spacing" textLength="84.7856" x="115.7524" y="150.9883">GET/style.css</text><polygon fill="#181818" points="220.3916,181.041,230.3916,185.041,220.3916,189.041,224.3916,185.041" style="stroke:#181818;stroke-width:1;"/><line style="stroke:#181818;stroke-width:1;" x1="108.7524" x2="226.3916" y1="185.041" y2="185.041"/><text fill="#000000" font-family="sans-serif" font-size="13" lengthAdjust="spacing" textLength="81.5801" x="115.7524" y="180.2988">GET/script.js</text><polygon fill="#181818" points="119.7524,210.3516,109.7524,214.3516,119.7524,218.3516,115.7524,214.3516" style="stroke:#181818;stroke-width:1;"/><line style="stroke:#181818;stroke-width:1;" x1="113.7524" x2="231.3916" y1="214.3516" y2="214.3516"/><text fill="#000000" font-family="sans-serif" font-size="13" lengthAdjust="spacing" textLength="60.1948" x="125.7524" y="209.6094">Response</text><polygon fill="#181818" points="119.7524,242.6621,109.7524,246.6621,119.7524,250.6621,115.7524,246.6621" style="stroke:#181818;stroke-width:1;"/><line style="stroke:#181818;stroke-width:1;" x1="113.7524" x2="231.3916" y1="246.6621" y2="246.6621"/><text fill="#000000" font-family="sans-serif" font-size="13" lengthAdjust="spacing" textLength="60.1948" x="125.7524" y="241.9199">Response</text><path d="M5,227.3516 L5,252.3516 L104,252.3516 L104,237.3516 L94,227.3516 L5,227.3516 " fill="#FEFFDD" style="stroke:#181818;stroke-width:0.5;"/><path d="M94,227.3516 L94,237.3516 L104,237.3516 L94,227.3516 " fill="#FEFFDD" style="stroke:#181818;stroke-width:0.5;"/><text fill="#000000" font-family="sans-serif" font-size="13" lengthAdjust="spacing" textLength="78.1016" x="11" y="244.9199">Render Page</text><!--SRC=[VOux3W8n34JxdC8N8FGhHBD2q84G5uY20QDWMx4BkFt-1A9OAFtUpCYQgbCcJUpG5aBse5ze9-PXuh1QhCUxWRqYjyAOdOJV-cEtczEI-8pFUFD7WJ3GmKwv1eveAcmuMpH_5OpPRDxcIkhnRZz7uOzXSOI2bn7s3rOuf2j21m00]--></g></svg>