<svg xmlns="http://www.w3.org/2000/svg" xmlns:xlink="http://www.w3.org/1999/xlink" contentStyleType="text/css" height="469px" preserveAspectRatio="none" style="width:879px;height:469px;background:#FFFFFF;" version="1.1" viewBox="0 0 879 469" width="879px" zoomAndPan="magnify"><defs/><g><!--cluster Browser--><g id="cluster_Browser"><rect fill="none" height="97.48" rx="2.5" ry="2.5" style="stroke:#181818;stroke-width:1;" width="102" x="7" y="54"/><path d="M75.6865,54 L75.6865,63.4883 L65.6865,73.4883 L7,73.4883 " fill="none" style="stroke:#181818;stroke-width:1;"/><text fill="#000000" font-family="sans-serif" font-size="14" font-weight="bold" lengthAdjust="spacing" textLength="58.6865" x="10" y="68.5352">Browser</text></g><!--cluster small Bridgehead--><g id="cluster_small Bridgehead"><polygon fill="none" points="133,16,143,6,508,6,508,165.48,498,175.48,133,175.48,133,16" style="stroke:#181818;stroke-width:1;"/><line style="stroke:#181818;stroke-width:1;" x1="498" x2="508" y1="16" y2="6"/><line style="stroke:#181818;stroke-width:1;" x1="133" x2="498" y1="16" y2="16"/><line style="stroke:#181818;stroke-width:1;" x1="498" x2="498" y1="16" y2="175.48"/><text fill="#000000" font-family="sans-serif" font-size="14" font-weight="bold" lengthAdjust="spacing" textLength="124.7969" x="254.1016" y="32.5352">small Bridgehead</text></g><!--cluster Docker Container--><g id="cluster_Docker Container"><rect fill="none" height="97.48" rx="2.5" ry="2.5" style="stroke:#181818;stroke-width:1;" width="327" x="157" y="54"/><path d="M292.8633,54 L292.8633,63.4883 L282.8633,73.4883 L157,73.4883 " fill="none" style="stroke:#181818;stroke-width:1;"/><text fill="#000000" font-family="sans-serif" font-size="14" font-weight="bold" lengthAdjust="spacing" textLength="125.8633" x="160" y="68.5352">Docker Container</text></g><!--cluster central Service--><g id="cluster_central Service"><polygon fill="none" points="255,209.48,265,199.48,436,199.48,436,291.97,426,301.97,255,301.97,255,209.48" style="stroke:#181818;stroke-width:1;"/><line style="stroke:#181818;stroke-width:1;" x1="426" x2="436" y1="209.48" y2="199.48"/><line style="stroke:#181818;stroke-width:1;" x1="255" x2="426" y1="209.48" y2="209.48"/><line style="stroke:#181818;stroke-width:1;" x1="426" x2="426" y1="209.48" y2="301.97"/><text fill="#000000" font-family="sans-serif" font-size="14" font-weight="bold" lengthAdjust="spacing" textLength="105.3623" x="288.8188" y="226.0152">central Service</text></g><!--cluster central Server--><g id="cluster_central Server"><path d="M462.5,204.48 L563.2227,204.48 A3.75,3.75 0 0 1 565.7227,206.98 L572.7227,226.9683 L869.5,226.9683 A2.5,2.5 0 0 1 872,229.4683 L872,459.96 A2.5,2.5 0 0 1 869.5,462.46 L462.5,462.46 A2.5,2.5 0 0 1 460,459.96 L460,206.98 A2.5,2.5 0 0 1 462.5,204.48 " fill="none" style="stroke:#000000;stroke-width:1.5;"/><line style="stroke:#000000;stroke-width:1.5;" x1="460" x2="572.7227" y1="226.9683" y2="226.9683"/><text fill="#000000" font-family="sans-serif" font-size="14" font-weight="bold" lengthAdjust="spacing" textLength="99.7227" x="464" y="220.0152">central Server</text></g><g id="cluster_##12"><path d="M674.9836,370.0929 C676.9419,364.1652 682.591,363.7123 686.3232,368.153 C689.0186,362.7662 693.9844,361.1583 697.9403,366.8288 C702.1473,361.7278 707.5857,361.8008 711.2136,367.5381 C714.2875,360.8283 718.6117,361.4976 723.0876,366.0615 C725.6527,360.0161 730.1512,359.6031 734.7808,363.6754 C738.1284,357.8134 742.4666,357.574 746.4106,363.0643 C750.6064,357.4276 754.8722,358.3907 758.2751,363.9077 C762.382,358.6451 766.2714,357.318 770.6712,363.5931 C775.3992,358.7148 779.4432,359.1096 782.3056,365.5165 C785.6354,360.6414 790.5006,361.7425 792.9129,366.5244 C796.5302,359.934 802.2276,360.143 806.0429,366.3208 C810.0645,361.3879 815.4598,361.5874 818.1274,367.7902 C821.7168,362.7615 826.0048,362.2517 829.0275,368.3456 C832.1715,363.7918 836.9602,362.631 840.187,368.2549 C850.2508,371.156 849.5355,378.3227 843.9074,384.7608 C853.2814,387.5174 853.1613,394.588 847.8326,400.9167 C853.8335,406.8965 852.4571,412.9868 845.1462,416.7011 C850.2135,422.8833 848.877,429.0042 840.9849,431.5562 C838.7159,436.5934 833.4393,436.618 830.3919,432.4521 C825.9694,438.1582 821.8666,437.3158 817.7803,432.0652 C814.6365,438.5347 810.1452,440.9661 804.5886,434.5319 C800.9483,440.7004 795.496,440.0997 792.7994,433.6502 C790.0473,438.7707 784.468,439.0917 781.3558,434.0559 C778.9415,440.1294 774.8763,440.4487 770.727,435.7712 C768.1247,442.366 762.2431,443.298 758.3924,436.9618 C754.3851,441.8488 750.718,441.3703 747.4166,436.1922 C742.2028,442.5859 737.8953,443.2133 733.4114,435.4692 C728.6214,440.8212 724.1907,440.6731 721.4567,433.5059 C717.8015,439.1378 714.0065,439.7952 710.1867,433.6636 C707.1928,438.7392 702.5304,438.5361 699.2591,433.9782 C694.7946,438.9926 689.0395,437.6126 687.2638,431.1644 C684.1281,437.3556 679.892,437.1715 675.8189,432.1186 C667.4615,427.928 666.9431,422.3453 674.6328,416.9037 C668.0593,412.8308 666.7982,405.7488 674.3831,401.4471 C666.297,395.4948 667.6279,390.633 675.4273,385.7365 C667.2087,381.0389 667.5486,375.2346 674.9836,370.0929 " fill="none" style="stroke:#181818;stroke-width:1;"/></g><!--cluster MRBS--><g id="cluster_MRBS"><path d="M484,335.97 C484,325.97 563,325.97 563,325.97 C563,325.97 642,325.97 642,335.97 L642,428.46 C642,438.46 563,438.46 563,438.46 C563,438.46 484,438.46 484,428.46 L484,335.97 " fill="none" style="stroke:#181818;stroke-width:1;"/><path d="M484,335.97 C484,345.97 563,345.97 563,345.97 C563,345.97 642,345.97 642,335.97 " fill="none" style="stroke:#181818;stroke-width:1;"/><text fill="#000000" font-family="sans-serif" font-size="14" font-weight="bold" lengthAdjust="spacing" textLength="39.1836" x="543.4082" y="361.5052">MRBS</text></g><!--entity User--><g id="elem_User"><rect fill="#F1F1F1" height="46.4883" rx="2.5" ry="2.5" style="stroke:#181818;stroke-width:0.5;" width="70.3652" x="22.82" y="89"/><rect fill="#F1F1F1" height="10" style="stroke:#181818;stroke-width:0.5;" width="15" x="73.1852" y="94"/><rect fill="#F1F1F1" height="2" style="stroke:#181818;stroke-width:0.5;" width="4" x="71.1852" y="96"/><rect fill="#F1F1F1" height="2" style="stroke:#181818;stroke-width:0.5;" width="4" x="71.1852" y="100"/><text fill="#000000" font-family="sans-serif" font-size="14" lengthAdjust="spacing" textLength="30.3652" x="37.82" y="122.5352">User</text></g><!--entity Client--><g id="elem_Client"><rect fill="#F1F1F1" height="46.4883" rx="2.5" ry="2.5" style="stroke:#181818;stroke-width:0.5;" width="79.5049" x="173.25" y="89"/><rect fill="#F1F1F1" height="10" style="stroke:#181818;stroke-width:0.5;" width="15" x="232.7549" y="94"/><rect fill="#F1F1F1" height="2" style="stroke:#181818;stroke-width:0.5;" width="4" x="230.7549" y="96"/><rect fill="#F1F1F1" height="2" style="stroke:#181818;stroke-width:0.5;" width="4" x="230.7549" y="100"/><text fill="#000000" font-family="sans-serif" font-size="14" lengthAdjust="spacing" textLength="39.5049" x="188.25" y="122.5352">Client</text></g><!--entity Samply_Proxy_Client--><g id="elem_Samply_Proxy_Client"><rect fill="#F1F1F1" height="46.4883" rx="2.5" ry="2.5" style="stroke:#181818;stroke-width:0.5;" width="179.9863" x="288.01" y="89"/><rect fill="#F1F1F1" height="10" style="stroke:#181818;stroke-width:0.5;" width="15" x="447.9963" y="94"/><rect fill="#F1F1F1" height="2" style="stroke:#181818;stroke-width:0.5;" width="4" x="445.9963" y="96"/><rect fill="#F1F1F1" height="2" style="stroke:#181818;stroke-width:0.5;" width="4" x="445.9963" y="100"/><text fill="#000000" font-family="sans-serif" font-size="14" lengthAdjust="spacing" textLength="139.9863" x="303.01" y="122.5352">Samply_Proxy_Client</text></g><!--entity Broker--><g id="elem_Broker"><rect fill="#F1F1F1" height="46.4883" rx="2.5" ry="2.5" style="stroke:#181818;stroke-width:0.5;" width="84.0918" x="335.95" y="239.48"/><rect fill="#F1F1F1" height="10" style="stroke:#181818;stroke-width:0.5;" width="15" x="400.0418" y="244.48"/><rect fill="#F1F1F1" height="2" style="stroke:#181818;stroke-width:0.5;" width="4" x="398.0418" y="246.48"/><rect fill="#F1F1F1" height="2" style="stroke:#181818;stroke-width:0.5;" width="4" x="398.0418" y="250.48"/><text fill="#000000" font-family="sans-serif" font-size="14" lengthAdjust="spacing" textLength="44.0918" x="350.95" y="273.0152">Broker</text></g><!--entity Samply_Proxy_Server--><g id="elem_Samply_Proxy_Server"><rect fill="#F1F1F1" height="46.4883" rx="2.5" ry="2.5" style="stroke:#181818;stroke-width:0.5;" width="182.3242" x="570.84" y="239.48"/><rect fill="#F1F1F1" height="10" style="stroke:#181818;stroke-width:0.5;" width="15" x="733.1642" y="244.48"/><rect fill="#F1F1F1" height="2" style="stroke:#181818;stroke-width:0.5;" width="4" x="731.1642" y="246.48"/><rect fill="#F1F1F1" height="2" style="stroke:#181818;stroke-width:0.5;" width="4" x="731.1642" y="250.48"/><text fill="#000000" font-family="sans-serif" font-size="14" lengthAdjust="spacing" textLength="142.3242" x="585.84" y="273.0152">Samply_Proxy_Server</text></g><!--entity Server_REST_API--><g id="elem_Server_REST_API"><rect fill="#F1F1F1" height="46.4883" rx="2.5" ry="2.5" style="stroke:#181818;stroke-width:0.5;" width="150.1064" x="681.95" y="375.97"/><rect fill="#F1F1F1" height="10" style="stroke:#181818;stroke-width:0.5;" width="15" x="812.0564" y="380.97"/><rect fill="#F1F1F1" height="2" style="stroke:#181818;stroke-width:0.5;" width="4" x="810.0564" y="382.97"/><rect fill="#F1F1F1" height="2" style="stroke:#181818;stroke-width:0.5;" width="4" x="810.0564" y="386.97"/><text fill="#000000" font-family="sans-serif" font-size="14" lengthAdjust="spacing" textLength="110.1064" x="696.95" y="409.5052">Server_REST_API</text></g><!--entity Verbis_MRBS--><g id="elem_Verbis_MRBS"><rect fill="#F1F1F1" height="46.4883" rx="2.5" ry="2.5" style="stroke:#181818;stroke-width:0.5;" width="126.1807" x="499.91" y="375.97"/><rect fill="#F1F1F1" height="10" style="stroke:#181818;stroke-width:0.5;" width="15" x="606.0907" y="380.97"/><rect fill="#F1F1F1" height="2" style="stroke:#181818;stroke-width:0.5;" width="4" x="604.0907" y="382.97"/><rect fill="#F1F1F1" height="2" style="stroke:#181818;stroke-width:0.5;" width="4" x="604.0907" y="386.97"/><text fill="#000000" font-family="sans-serif" font-size="14" lengthAdjust="spacing" textLength="86.1807" x="514.91" y="409.5052">Verbis_MRBS</text></g><!--link User to Client--><g id="link_User_Client"><path d="M93.42,112.24 C119.89,112.24 146.36,112.24 172.83,112.24 " fill="none" id="User-Client" style="stroke:#181818;stroke-width:1;"/></g><!--link Client to Samply_Proxy_Client--><g id="link_Client_Samply_Proxy_Client"><path d="M252.96,112.24 C264.52,112.24 276.08,112.24 287.64,112.24 " fill="none" id="Client-Samply_Proxy_Client" style="stroke:#181818;stroke-width:1;"/></g><!--link Samply_Proxy_Client to Broker--><g id="link_Samply_Proxy_Client_Broker"><path d="M378,135.79 C378,163.86 378,211.51 378,239.45 " fill="none" id="Samply_Proxy_Client-Broker" style="stroke:#181818;stroke-width:1;"/></g><!--link Broker to Samply_Proxy_Server--><g id="link_Broker_Samply_Proxy_Server"><path d="M420.43,262.73 C470.45,262.73 520.46,262.73 570.47,262.73 " fill="none" id="Broker-Samply_Proxy_Server" style="stroke:#181818;stroke-width:1;"/></g><!--link Samply_Proxy_Server to Server_REST_API--><g id="link_Samply_Proxy_Server_Server_REST_API"><path d="M677.9,286.24 C695.44,311.06 723.49,350.78 741.05,375.63 " fill="none" id="Samply_Proxy_Server-Server_REST_API" style="stroke:#181818;stroke-width:1;"/></g><!--link Server_REST_API to Verbis_MRBS--><g id="link_Server_REST_API_Verbis_MRBS"><path d="M681.68,399.22 C663.21,399.22 644.75,399.22 626.28,399.22 " fill="none" id="Server_REST_API-Verbis_MRBS" style="stroke:#181818;stroke-width:1;"/></g><!--SRC=[RL3B3i8W4BptAuZtVeHL3nvCZ5Klnf0LLYMbnMphAyP_bnQHrfO3MMPsPsSu4kJ8HWcPUuaqOg-8sRFRsCS-UaTHOQIbonoqPWafUS8pWlHzHpSzDI93OXDJLA2A8DD8JRJ2eje788NyefzyIURnv6tstTnXgx0CWMOfqaq9_9cpPhEllGk834v_lQqSdLsESxk4DbVPjkb8lfgbQpvUpjkE95HmWD9kMQoIj1DkYtHG9QznFs5TkUzZSGZlYneRp3-8iZWEQNtHa_2n1j56efUjXzIYdImV]--></g></svg>