<svg xmlns="http://www.w3.org/2000/svg" xmlns:xlink="http://www.w3.org/1999/xlink" contentStyleType="text/css" height="178px" preserveAspectRatio="none" style="width:206px;height:178px;background:#FFFFFF;" version="1.1" viewBox="0 0 206 178" width="206px" zoomAndPan="magnify"><defs/><g><!--class Area--><g id="elem_Area"><rect codeLine="1" fill="#F1F1F1" height="56.6211" id="Area" rx="2.5" ry="2.5" style="stroke:#181818;stroke-width:0.5;" width="74.5176" x="7" y="7"/><ellipse cx="22" cy="27.3105" fill="#FF7700" rx="11" ry="11" style="stroke:#181818;stroke-width:1;"/><path d="M21.7334,28.3735 Q19.8823,27.668 19.2266,26.8918 Q18.5708,26.1157 18.5708,24.8042 Q18.5708,23.1191 19.6499,22.1563 Q20.729,21.1934 22.6133,21.1934 Q23.4683,21.1934 24.3232,21.3884 Q25.1782,21.5835 26.0166,21.9653 L26.0166,24.356 Q25.228,23.7998 24.4146,23.5093 Q23.6011,23.2188 22.8042,23.2188 Q21.916,23.2188 21.4429,23.5757 Q20.9697,23.9326 20.9697,24.5967 Q20.9697,25.1113 21.3142,25.4475 Q21.6587,25.7837 22.7544,26.1904 L23.8086,26.5889 Q25.3027,27.1367 26.0083,28.0415 Q26.7139,28.9463 26.7139,30.3242 Q26.7139,32.2002 25.6057,33.1257 Q24.4976,34.0513 22.2563,34.0513 Q21.335,34.0513 20.4094,33.8313 Q19.4839,33.6113 18.6206,33.1797 L18.6206,30.6479 Q19.6001,31.3452 20.5173,31.6855 Q21.4346,32.0259 22.3311,32.0259 Q23.2358,32.0259 23.7339,31.615 Q24.2319,31.2041 24.2319,30.4653 Q24.2319,29.9092 23.8999,29.49 Q23.5679,29.0708 22.937,28.8301 Z " fill="#000000"/><text fill="#000000" font-family="sans-serif" font-size="12" font-style="italic" lengthAdjust="spacing" textLength="46.5176" x="34" y="23.6016">&#171;Struct&#187;</text><text fill="#000000" font-family="sans-serif" font-size="14" lengthAdjust="spacing" textLength="30.9189" x="41.7993" y="39.668">Area</text><line style="stroke:#181818;stroke-width:0.5;" x1="8" x2="80.5176" y1="47.6211" y2="47.6211"/><line style="stroke:#181818;stroke-width:0.5;" x1="8" x2="80.5176" y1="55.6211" y2="55.6211"/></g><!--class Routes--><g id="elem_Routes"><rect codeLine="2" fill="#F1F1F1" height="56.6211" id="Routes" rx="2.5" ry="2.5" style="stroke:#181818;stroke-width:0.5;" width="83.4355" x="116.54" y="7"/><ellipse cx="131.54" cy="27.3105" fill="#6A3100" rx="11" ry="11" style="stroke:#181818;stroke-width:1;"/><path d="M127.2539,21.4175 L130.1757,21.4175 L131.6533,26.8545 L133.1225,21.4175 L136.061,21.4175 L136.061,33.8105 L133.9526,33.8105 L133.9526,23.8828 L132.6411,29.3032 L130.6904,29.3032 L129.3623,23.8828 L129.3623,33.8105 L127.2539,33.8105 Z " fill="#000000"/><text fill="#000000" font-family="sans-serif" font-size="12" font-style="italic" lengthAdjust="spacing" textLength="55.4355" x="143.54" y="23.6016">&#171;Module&#187;</text><text fill="#000000" font-family="sans-serif" font-size="14" lengthAdjust="spacing" textLength="46.3135" x="148.101" y="39.668">Routes</text><line style="stroke:#181818;stroke-width:0.5;" x1="117.54" x2="198.9755" y1="47.6211" y2="47.6211"/><line style="stroke:#181818;stroke-width:0.5;" x1="117.54" x2="198.9755" y1="55.6211" y2="55.6211"/></g><!--class Test--><g id="elem_Test"><rect codeLine="3" fill="#F1F1F1" height="48" id="Test" rx="2.5" ry="2.5" style="stroke:#181818;stroke-width:0.5;" width="61.0254" x="13.75" y="123.62"/><ellipse cx="28.75" cy="139.62" fill="#EB937F" rx="11" ry="11" style="stroke:#181818;stroke-width:1;"/><path d="M32.3643,146.12 L24.6445,146.12 L24.6445,133.7269 L32.3643,133.7269 L32.3643,135.8851 L27.0933,135.8851 L27.0933,138.558 L31.8662,138.558 L31.8662,140.7162 L27.0933,140.7162 L27.0933,143.9618 L32.3643,143.9618 Z " fill="#000000"/><text fill="#000000" font-family="sans-serif" font-size="14" lengthAdjust="spacing" textLength="29.0254" x="42.75" y="144.911">Test</text><line style="stroke:#181818;stroke-width:0.5;" x1="14.75" x2="73.7754" y1="155.62" y2="155.62"/><line style="stroke:#181818;stroke-width:0.5;" x1="14.75" x2="73.7754" y1="163.62" y2="163.62"/></g><!--class Auto--><g id="elem_Auto"><rect codeLine="4" fill="#F1F1F1" height="48" id="Auto" rx="2.5" ry="2.5" style="stroke:#181818;stroke-width:0.5;" width="64.1836" x="110.17" y="123.62"/><ellipse cx="125.17" cy="139.62" fill="#B4A7E5" rx="11" ry="11" style="stroke:#181818;stroke-width:1;"/><path d="M121.5977,135.8851 L121.5977,133.7269 L128.9771,133.7269 L128.9771,135.8851 L126.5118,135.8851 L126.5118,143.9618 L128.9771,143.9618 L128.9771,146.12 L121.5977,146.12 L121.5977,143.9618 L124.0631,143.9618 L124.0631,135.8851 Z " fill="#000000"/><text fill="#000000" font-family="sans-serif" font-size="14" font-style="italic" lengthAdjust="spacing" textLength="32.1836" x="139.17" y="144.911">Auto</text><line style="stroke:#181818;stroke-width:0.5;" x1="111.17" x2="173.3536" y1="155.62" y2="155.62"/><line style="stroke:#181818;stroke-width:0.5;" x1="111.17" x2="173.3536" y1="163.62" y2="163.62"/></g><!--SRC=[Iyv9B2vMS2nAJLImiL7G2DPHK7PpCpStCD1K22ufAaqkiRDJgAxbIWOh2yelBKaj1Ylq1IeqSpGs12dqpKyfpKc5A4pDAyrL24ajBW5nClDAKelI4fDJ5HnBI_918W00]--></g></svg>