<svg xmlns="http://www.w3.org/2000/svg" xmlns:xlink="http://www.w3.org/1999/xlink" contentStyleType="text/css" height="366px" preserveAspectRatio="none" style="width:754px;height:366px;background:#FFFFFF;" version="1.1" viewBox="0 0 754 366" width="754px" zoomAndPan="magnify"><defs/><g><rect fill="#F1F1F1" height="40.9766" rx="5" ry="5" style="stroke:#F1F1F1;stroke-width:1.5;" width="23.2891" x="10" y="131.209"/><text fill="#000000" font-family="sans-serif" font-size="14" lengthAdjust="spacing" textLength="13.2891" x="15" y="146.7441">&#160;&#160;&#160;</text><line style="stroke:#000000;stroke-width:1;" x1="10" x2="33.2891" y1="151.6973" y2="151.6973"/><text fill="#000000" font-family="sans-serif" font-size="14" lengthAdjust="spacing" textLength="13.2891" x="15" y="167.2324">&#160;&#160;&#160;</text><rect fill="none" height="40.9766" rx="5" ry="5" style="stroke:#000000;stroke-width:1.5;" width="23.2891" x="10" y="131.209"/><rect fill="#F1F1F1" height="61.4648" rx="5" ry="5" style="stroke:#F1F1F1;stroke-width:1.5;" width="175.8184" x="70" y="71.9766"/><text fill="#000000" font-family="sans-serif" font-size="14" font-weight="bold" lengthAdjust="spacing" textLength="75.1611" x="75" y="87.5117">mrbs_area</text><text fill="#000000" font-family="sans-serif" font-size="14" lengthAdjust="spacing" textLength="73.8623" x="166.9561" y="87.5117">Heidelberg</text><line style="stroke:#000000;stroke-width:1;" x1="161.9561" x2="161.9561" y1="71.9766" y2="92.4648"/><line style="stroke:#000000;stroke-width:1;" x1="70" x2="245.8184" y1="92.4648" y2="92.4648"/><text fill="#000000" font-family="sans-serif" font-size="14" font-weight="bold" lengthAdjust="spacing" textLength="13.8291" x="75" y="108">id</text><text fill="#000000" font-family="sans-serif" font-size="14" lengthAdjust="spacing" textLength="8.8525" x="166.9561" y="108">1</text><line style="stroke:#000000;stroke-width:1;" x1="161.9561" x2="161.9561" y1="92.4648" y2="112.9531"/><line style="stroke:#000000;stroke-width:1;" x1="70" x2="245.8184" y1="112.9531" y2="112.9531"/><text fill="#000000" font-family="sans-serif" font-size="14" font-weight="bold" lengthAdjust="spacing" textLength="81.9561" x="75" y="128.4883">mrbs_room</text><text fill="#000000" font-family="sans-serif" font-size="14" lengthAdjust="spacing" textLength="13.2891" x="166.9561" y="128.4883">&#160;&#160;&#160;</text><line style="stroke:#000000;stroke-width:1;" x1="161.9561" x2="161.9561" y1="112.9531" y2="133.4414"/><rect fill="none" height="61.4648" rx="5" ry="5" style="stroke:#000000;stroke-width:1.5;" width="175.8184" x="70" y="71.9766"/><rect fill="#F1F1F1" height="143.418" rx="5" ry="5" style="stroke:#F1F1F1;stroke-width:1.5;" width="192.1904" x="283" y="10"/><text fill="#000000" font-family="sans-serif" font-size="14" font-weight="bold" lengthAdjust="spacing" textLength="13.8291" x="288" y="25.5352">id</text><text fill="#000000" font-family="sans-serif" font-size="14" lengthAdjust="spacing" textLength="8.8525" x="422.8105" y="25.5352">8</text><line style="stroke:#000000;stroke-width:1;" x1="417.8105" x2="417.8105" y1="10" y2="30.4883"/><line style="stroke:#000000;stroke-width:1;" x1="283" x2="475.1904" y1="30.4883" y2="30.4883"/><text fill="#000000" font-family="sans-serif" font-size="14" font-weight="bold" lengthAdjust="spacing" textLength="84.0273" x="288" y="46.0234">room_name</text><text fill="#000000" font-family="sans-serif" font-size="14" lengthAdjust="spacing" textLength="47.3799" x="422.8105" y="46.0234">S2.109</text><line style="stroke:#000000;stroke-width:1;" x1="417.8105" x2="417.8105" y1="30.4883" y2="50.9766"/><line style="stroke:#000000;stroke-width:1;" x1="283" x2="475.1904" y1="50.9766" y2="50.9766"/><text fill="#000000" font-family="sans-serif" font-size="14" font-weight="bold" lengthAdjust="spacing" textLength="81.4023" x="288" y="66.5117">description</text><text fill="#000000" font-family="sans-serif" font-size="14" lengthAdjust="spacing" textLength="31.0693" x="422.8105" y="66.5117">B&#252;ro</text><line style="stroke:#000000;stroke-width:1;" x1="417.8105" x2="417.8105" y1="50.9766" y2="71.4648"/><line style="stroke:#000000;stroke-width:1;" x1="283" x2="475.1904" y1="71.4648" y2="71.4648"/><text fill="#000000" font-family="sans-serif" font-size="14" font-weight="bold" lengthAdjust="spacing" textLength="59.0283" x="288" y="87">capacity</text><text fill="#000000" font-family="sans-serif" font-size="14" lengthAdjust="spacing" textLength="8.8525" x="422.8105" y="87">2</text><line style="stroke:#000000;stroke-width:1;" x1="417.8105" x2="417.8105" y1="71.4648" y2="91.9531"/><line style="stroke:#000000;stroke-width:1;" x1="283" x2="475.1904" y1="91.9531" y2="91.9531"/><text fill="#000000" font-family="sans-serif" font-size="14" font-weight="bold" lengthAdjust="spacing" textLength="58.4268" x="288" y="107.4883">entry_id</text><text fill="#000000" font-family="sans-serif" font-size="14" lengthAdjust="spacing" textLength="44.2627" x="422.8105" y="107.4883">19828</text><line style="stroke:#000000;stroke-width:1;" x1="417.8105" x2="417.8105" y1="91.9531" y2="112.4414"/><line style="stroke:#000000;stroke-width:1;" x1="283" x2="475.1904" y1="112.4414" y2="112.4414"/><text fill="#000000" font-family="sans-serif" font-size="14" font-weight="bold" lengthAdjust="spacing" textLength="124.8105" x="288" y="127.9766">registration_limit</text><text fill="#000000" font-family="sans-serif" font-size="14" lengthAdjust="spacing" textLength="8.8525" x="422.8105" y="127.9766">2</text><line style="stroke:#000000;stroke-width:1;" x1="417.8105" x2="417.8105" y1="112.4414" y2="132.9297"/><line style="stroke:#000000;stroke-width:1;" x1="283" x2="475.1904" y1="132.9297" y2="132.9297"/><text fill="#000000" font-family="sans-serif" font-size="14" font-weight="bold" lengthAdjust="spacing" textLength="86.3926" x="288" y="148.4648">participants</text><text fill="#000000" font-family="sans-serif" font-size="14" lengthAdjust="spacing" textLength="13.2891" x="422.8105" y="148.4648">&#160;&#160;&#160;</text><line style="stroke:#000000;stroke-width:1;" x1="417.8105" x2="417.8105" y1="132.9297" y2="153.418"/><rect fill="none" height="143.418" rx="5" ry="5" style="stroke:#000000;stroke-width:1.5;" width="192.1904" x="283" y="10"/><rect fill="#F1F1F1" height="40.9766" rx="5" ry="5" style="stroke:#F1F1F1;stroke-width:1.5;" width="23.2891" x="512" y="122.209"/><text fill="#000000" font-family="sans-serif" font-size="14" lengthAdjust="spacing" textLength="13.2891" x="517" y="137.7441">&#160;&#160;&#160;</text><line style="stroke:#000000;stroke-width:1;" x1="512" x2="535.2891" y1="142.6973" y2="142.6973"/><text fill="#000000" font-family="sans-serif" font-size="14" lengthAdjust="spacing" textLength="13.2891" x="517" y="158.2324">&#160;&#160;&#160;</text><rect fill="none" height="40.9766" rx="5" ry="5" style="stroke:#000000;stroke-width:1.5;" width="23.2891" x="512" y="122.209"/><rect fill="#F1F1F1" height="40.9766" rx="5" ry="5" style="stroke:#F1F1F1;stroke-width:1.5;" width="144.0654" x="585" y="93.209"/><text fill="#000000" font-family="sans-serif" font-size="14" font-weight="bold" lengthAdjust="spacing" textLength="39.2041" x="590" y="108.7441">name</text><text fill="#000000" font-family="sans-serif" font-size="14" lengthAdjust="spacing" textLength="84.8613" x="639.2041" y="108.7441">erwin.m&#252;ller</text><line style="stroke:#000000;stroke-width:1;" x1="634.2041" x2="634.2041" y1="93.209" y2="113.6973"/><line style="stroke:#000000;stroke-width:1;" x1="585" x2="729.0654" y1="113.6973" y2="113.6973"/><text fill="#000000" font-family="sans-serif" font-size="14" font-weight="bold" lengthAdjust="spacing" textLength="13.8291" x="590" y="129.2324">id</text><text fill="#000000" font-family="sans-serif" font-size="14" lengthAdjust="spacing" textLength="26.5576" x="639.2041" y="129.2324">111</text><line style="stroke:#000000;stroke-width:1;" x1="634.2041" x2="634.2041" y1="113.6973" y2="134.1855"/><rect fill="none" height="40.9766" rx="5" ry="5" style="stroke:#000000;stroke-width:1.5;" width="144.0654" x="585" y="93.209"/><rect fill="#F1F1F1" height="40.9766" rx="5" ry="5" style="stroke:#F1F1F1;stroke-width:1.5;" width="170.1719" x="572" y="152.209"/><text fill="#000000" font-family="sans-serif" font-size="14" font-weight="bold" lengthAdjust="spacing" textLength="39.2041" x="577" y="167.7441">name</text><text fill="#000000" font-family="sans-serif" font-size="14" lengthAdjust="spacing" textLength="110.9678" x="626.2041" y="167.7441">max.musterman</text><line style="stroke:#000000;stroke-width:1;" x1="621.2041" x2="621.2041" y1="152.209" y2="172.6973"/><line style="stroke:#000000;stroke-width:1;" x1="572" x2="742.1719" y1="172.6973" y2="172.6973"/><text fill="#000000" font-family="sans-serif" font-size="14" font-weight="bold" lengthAdjust="spacing" textLength="13.8291" x="577" y="188.2324">id</text><text fill="#000000" font-family="sans-serif" font-size="14" lengthAdjust="spacing" textLength="26.5576" x="626.2041" y="188.2324">110</text><line style="stroke:#000000;stroke-width:1;" x1="621.2041" x2="621.2041" y1="172.6973" y2="193.1855"/><rect fill="none" height="40.9766" rx="5" ry="5" style="stroke:#000000;stroke-width:1.5;" width="170.1719" x="572" y="152.209"/><rect fill="#F1F1F1" height="61.4648" rx="5" ry="5" style="stroke:#F1F1F1;stroke-width:1.5;" width="172.7285" x="71.5" y="170.9766"/><text fill="#000000" font-family="sans-serif" font-size="14" font-weight="bold" lengthAdjust="spacing" textLength="75.1611" x="76.5" y="186.5117">mrbs_area</text><text fill="#000000" font-family="sans-serif" font-size="14" lengthAdjust="spacing" textLength="70.7725" x="168.4561" y="186.5117">Mannheim</text><line style="stroke:#000000;stroke-width:1;" x1="163.4561" x2="163.4561" y1="170.9766" y2="191.4648"/><line style="stroke:#000000;stroke-width:1;" x1="71.5" x2="244.2285" y1="191.4648" y2="191.4648"/><text fill="#000000" font-family="sans-serif" font-size="14" font-weight="bold" lengthAdjust="spacing" textLength="13.8291" x="76.5" y="207">id</text><text fill="#000000" font-family="sans-serif" font-size="14" lengthAdjust="spacing" textLength="8.8525" x="168.4561" y="207">1</text><line style="stroke:#000000;stroke-width:1;" x1="163.4561" x2="163.4561" y1="191.4648" y2="211.9531"/><line style="stroke:#000000;stroke-width:1;" x1="71.5" x2="244.2285" y1="211.9531" y2="211.9531"/><text fill="#000000" font-family="sans-serif" font-size="14" font-weight="bold" lengthAdjust="spacing" textLength="81.9561" x="76.5" y="227.4883">mrbs_room</text><text fill="#000000" font-family="sans-serif" font-size="14" lengthAdjust="spacing" textLength="13.2891" x="168.4561" y="227.4883">&#160;&#160;&#160;</text><line style="stroke:#000000;stroke-width:1;" x1="163.4561" x2="163.4561" y1="211.9531" y2="232.4414"/><rect fill="none" height="61.4648" rx="5" ry="5" style="stroke:#000000;stroke-width:1.5;" width="172.7285" x="71.5" y="170.9766"/><rect fill="#F1F1F1" height="143.418" rx="5" ry="5" style="stroke:#F1F1F1;stroke-width:1.5;" width="189.0732" x="284.5" y="171"/><text fill="#000000" font-family="sans-serif" font-size="14" font-weight="bold" lengthAdjust="spacing" textLength="13.8291" x="289.5" y="186.5352">id</text><text fill="#000000" font-family="sans-serif" font-size="14" lengthAdjust="spacing" textLength="17.7051" x="424.3105" y="186.5352">12</text><line style="stroke:#000000;stroke-width:1;" x1="419.3105" x2="419.3105" y1="171" y2="191.4883"/><line style="stroke:#000000;stroke-width:1;" x1="284.5" x2="473.5732" y1="191.4883" y2="191.4883"/><text fill="#000000" font-family="sans-serif" font-size="14" font-weight="bold" lengthAdjust="spacing" textLength="84.0273" x="289.5" y="207.0234">room_name</text><text fill="#000000" font-family="sans-serif" font-size="14" lengthAdjust="spacing" textLength="26.5576" x="424.3105" y="207.0234">041</text><line style="stroke:#000000;stroke-width:1;" x1="419.3105" x2="419.3105" y1="191.4883" y2="211.9766"/><line style="stroke:#000000;stroke-width:1;" x1="284.5" x2="473.5732" y1="211.9766" y2="211.9766"/><text fill="#000000" font-family="sans-serif" font-size="14" font-weight="bold" lengthAdjust="spacing" textLength="81.4023" x="289.5" y="227.5117">description</text><text fill="#000000" font-family="sans-serif" font-size="14" lengthAdjust="spacing" textLength="31.0693" x="424.3105" y="227.5117">B&#252;ro</text><line style="stroke:#000000;stroke-width:1;" x1="419.3105" x2="419.3105" y1="211.9766" y2="232.4648"/><line style="stroke:#000000;stroke-width:1;" x1="284.5" x2="473.5732" y1="232.4648" y2="232.4648"/><text fill="#000000" font-family="sans-serif" font-size="14" font-weight="bold" lengthAdjust="spacing" textLength="59.0283" x="289.5" y="248">capacity</text><text fill="#000000" font-family="sans-serif" font-size="14" lengthAdjust="spacing" textLength="8.8525" x="424.3105" y="248">3</text><line style="stroke:#000000;stroke-width:1;" x1="419.3105" x2="419.3105" y1="232.4648" y2="252.9531"/><line style="stroke:#000000;stroke-width:1;" x1="284.5" x2="473.5732" y1="252.9531" y2="252.9531"/><text fill="#000000" font-family="sans-serif" font-size="14" font-weight="bold" lengthAdjust="spacing" textLength="58.4268" x="289.5" y="268.4883">entry_id</text><text fill="#000000" font-family="sans-serif" font-size="14" lengthAdjust="spacing" textLength="44.2627" x="424.3105" y="268.4883">19827</text><line style="stroke:#000000;stroke-width:1;" x1="419.3105" x2="419.3105" y1="252.9531" y2="273.4414"/><line style="stroke:#000000;stroke-width:1;" x1="284.5" x2="473.5732" y1="273.4414" y2="273.4414"/><text fill="#000000" font-family="sans-serif" font-size="14" font-weight="bold" lengthAdjust="spacing" textLength="124.8105" x="289.5" y="288.9766">registration_limit</text><text fill="#000000" font-family="sans-serif" font-size="14" lengthAdjust="spacing" textLength="8.8525" x="424.3105" y="288.9766">3</text><line style="stroke:#000000;stroke-width:1;" x1="419.3105" x2="419.3105" y1="273.4414" y2="293.9297"/><line style="stroke:#000000;stroke-width:1;" x1="284.5" x2="473.5732" y1="293.9297" y2="293.9297"/><text fill="#000000" font-family="sans-serif" font-size="14" font-weight="bold" lengthAdjust="spacing" textLength="86.3926" x="289.5" y="309.4648">participants</text><text fill="#000000" font-family="sans-serif" font-size="14" lengthAdjust="spacing" textLength="13.2891" x="424.3105" y="309.4648">&#160;&#160;&#160;</text><line style="stroke:#000000;stroke-width:1;" x1="419.3105" x2="419.3105" y1="293.9297" y2="314.418"/><rect fill="none" height="143.418" rx="5" ry="5" style="stroke:#000000;stroke-width:1.5;" width="189.0732" x="284.5" y="171"/><rect fill="#F1F1F1" height="40.9766" rx="5" ry="5" style="stroke:#F1F1F1;stroke-width:1.5;" width="23.2891" x="512" y="283.209"/><text fill="#000000" font-family="sans-serif" font-size="14" lengthAdjust="spacing" textLength="13.2891" x="517" y="298.7441">&#160;&#160;&#160;</text><line style="stroke:#000000;stroke-width:1;" x1="512" x2="535.2891" y1="303.6973" y2="303.6973"/><text fill="#000000" font-family="sans-serif" font-size="14" lengthAdjust="spacing" textLength="13.2891" x="517" y="319.2324">&#160;&#160;&#160;</text><rect fill="none" height="40.9766" rx="5" ry="5" style="stroke:#000000;stroke-width:1.5;" width="23.2891" x="512" y="283.209"/><rect fill="#F1F1F1" height="40.9766" rx="5" ry="5" style="stroke:#F1F1F1;stroke-width:1.5;" width="144.0654" x="585" y="254.209"/><text fill="#000000" font-family="sans-serif" font-size="14" font-weight="bold" lengthAdjust="spacing" textLength="39.2041" x="590" y="269.7441">name</text><text fill="#000000" font-family="sans-serif" font-size="14" lengthAdjust="spacing" textLength="84.8613" x="639.2041" y="269.7441">erwin.m&#252;ller</text><line style="stroke:#000000;stroke-width:1;" x1="634.2041" x2="634.2041" y1="254.209" y2="274.6973"/><line style="stroke:#000000;stroke-width:1;" x1="585" x2="729.0654" y1="274.6973" y2="274.6973"/><text fill="#000000" font-family="sans-serif" font-size="14" font-weight="bold" lengthAdjust="spacing" textLength="13.8291" x="590" y="290.2324">id</text><text fill="#000000" font-family="sans-serif" font-size="14" lengthAdjust="spacing" textLength="17.7051" x="639.2041" y="290.2324">11</text><line style="stroke:#000000;stroke-width:1;" x1="634.2041" x2="634.2041" y1="274.6973" y2="295.1855"/><rect fill="none" height="40.9766" rx="5" ry="5" style="stroke:#000000;stroke-width:1.5;" width="144.0654" x="585" y="254.209"/><rect fill="#F1F1F1" height="40.9766" rx="5" ry="5" style="stroke:#F1F1F1;stroke-width:1.5;" width="170.1719" x="572" y="313.209"/><text fill="#000000" font-family="sans-serif" font-size="14" font-weight="bold" lengthAdjust="spacing" textLength="39.2041" x="577" y="328.7441">name</text><text fill="#000000" font-family="sans-serif" font-size="14" lengthAdjust="spacing" textLength="110.9678" x="626.2041" y="328.7441">max.musterman</text><line style="stroke:#000000;stroke-width:1;" x1="621.2041" x2="621.2041" y1="313.209" y2="333.6973"/><line style="stroke:#000000;stroke-width:1;" x1="572" x2="742.1719" y1="333.6973" y2="333.6973"/><text fill="#000000" font-family="sans-serif" font-size="14" font-weight="bold" lengthAdjust="spacing" textLength="13.8291" x="577" y="349.2324">id</text><text fill="#000000" font-family="sans-serif" font-size="14" lengthAdjust="spacing" textLength="17.7051" x="626.2041" y="349.2324">10</text><line style="stroke:#000000;stroke-width:1;" x1="621.2041" x2="621.2041" y1="333.6973" y2="354.1855"/><rect fill="none" height="40.9766" rx="5" ry="5" style="stroke:#000000;stroke-width:1.5;" width="170.1719" x="572" y="313.209"/><path d="M523,132.709 L536,132.709 C549.5808,132.709 563.9186,131.5168 577.7821,129.7298 " fill="none" style="stroke:#000000;stroke-width:1;stroke-dasharray:3.0,3.0;"/><path d="M578.2022,132.7879 L580.0757,129.4147 L577.362,126.6717 L585.4274,128.6796 L578.2022,132.7879 " fill="#000000" style="stroke:#000000;stroke-width:1;"/><ellipse cx="523" cy="132.709" fill="#000000" rx="3" ry="3" style="stroke:#000000;stroke-width:1;"/><path d="M523,152.709 L536,152.709 C545.2869,152.709 554.9227,153.2943 564.5163,154.2646 " fill="none" style="stroke:#000000;stroke-width:1;stroke-dasharray:3.0,3.0;"/><path d="M564.1735,157.3355 L566.8195,154.5216 L564.859,151.1936 L572.1936,155.1215 L564.1735,157.3355 " fill="#000000" style="stroke:#000000;stroke-width:1;"/><ellipse cx="523" cy="152.709" fill="#000000" rx="3" ry="3" style="stroke:#000000;stroke-width:1;"/><path d="M462.5,142.709 L475.5,142.709 C485.2232,142.709 496.0659,142.709 504.9344,142.709 " fill="none" style="stroke:#000000;stroke-width:1;stroke-dasharray:3.0,3.0;"/><path d="M504.9344,145.7093 L507.1846,142.709 L504.9344,139.7087 L512.4351,142.709 L504.9344,145.7093 " fill="#000000" style="stroke:#000000;stroke-width:1;"/><ellipse cx="462.5" cy="142.709" fill="#000000" rx="3" ry="3" style="stroke:#000000;stroke-width:1;"/><path d="M234,122.709 L247,122.709 C256.5282,122.709 266.2758,121.7158 275.9438,120.0386 " fill="none" style="stroke:#000000;stroke-width:1;stroke-dasharray:3.0,3.0;"/><path d="M276.5081,122.9877 L278.1556,119.6154 L275.3795,117.0895 L283.3165,118.6279 L276.5081,122.9877 " fill="#000000" style="stroke:#000000;stroke-width:1;"/><ellipse cx="234" cy="122.709" fill="#000000" rx="3" ry="3" style="stroke:#000000;stroke-width:1;"/><path d="M21,141.709 L34,141.709 C48.456,141.709 63.4406,139.2491 77.7763,135.5649 " fill="none" style="stroke:#000000;stroke-width:1;stroke-dasharray:3.0,3.0;"/><path d="M78.589,138.5375 L80.0057,134.9555 L76.9637,132.5924 L85.2076,133.5333 L78.589,138.5375 " fill="#000000" style="stroke:#000000;stroke-width:1;"/><ellipse cx="21" cy="141.709" fill="#000000" rx="3" ry="3" style="stroke:#000000;stroke-width:1;"/><path d="M523,293.709 L536,293.709 C549.5808,293.709 563.9186,292.5168 577.7821,290.7298 " fill="none" style="stroke:#000000;stroke-width:1;stroke-dasharray:3.0,3.0;"/><path d="M578.2022,293.7879 L580.0757,290.4147 L577.362,287.6717 L585.4274,289.6796 L578.2022,293.7879 " fill="#000000" style="stroke:#000000;stroke-width:1;"/><ellipse cx="523" cy="293.709" fill="#000000" rx="3" ry="3" style="stroke:#000000;stroke-width:1;"/><path d="M523,313.709 L536,313.709 C545.2869,313.709 554.9227,314.2943 564.5163,315.2646 " fill="none" style="stroke:#000000;stroke-width:1;stroke-dasharray:3.0,3.0;"/><path d="M564.1735,318.3355 L566.8195,315.5216 L564.859,312.1936 L572.1936,316.1215 L564.1735,318.3355 " fill="#000000" style="stroke:#000000;stroke-width:1;"/><ellipse cx="523" cy="313.709" fill="#000000" rx="3" ry="3" style="stroke:#000000;stroke-width:1;"/><path d="M461.5,303.709 L474.5,303.709 C484.4279,303.709 495.4989,303.709 504.554,303.709 " fill="none" style="stroke:#000000;stroke-width:1;stroke-dasharray:3.0,3.0;"/><path d="M504.554,306.7724 L506.8516,303.709 L504.554,300.6455 L512.2127,303.709 L504.554,306.7724 " fill="#000000" style="stroke:#000000;stroke-width:1;"/><ellipse cx="461.5" cy="303.709" fill="#000000" rx="3" ry="3" style="stroke:#000000;stroke-width:1;"/><path d="M232.5,221.709 L245.5,221.709 C255.7518,221.709 266.3943,222.3253 276.9928,223.3467 " fill="none" style="stroke:#000000;stroke-width:1;stroke-dasharray:3.0,3.0;"/><path d="M276.6679,226.428 L279.3038,223.5904 L277.3177,220.2654 L284.6961,224.1591 L276.6679,226.428 " fill="#000000" style="stroke:#000000;stroke-width:1;"/><ellipse cx="232.5" cy="221.709" fill="#000000" rx="3" ry="3" style="stroke:#000000;stroke-width:1;"/><path d="M21,161.709 L34,161.709 C49.3977,161.709 65.3729,164.5579 80.5206,168.7351 " fill="none" style="stroke:#000000;stroke-width:1;stroke-dasharray:3.0,3.0;"/><path d="M79.6604,171.6805 L82.7297,169.3803 L81.3809,165.7897 L87.8842,170.8858 L79.6604,171.6805 " fill="#000000" style="stroke:#000000;stroke-width:1;"/><ellipse cx="21" cy="161.709" fill="#000000" rx="3" ry="3" style="stroke:#000000;stroke-width:1;"/><!--SRC=[hLDTJzim57tthxZA4qWXgaF6GfuGj6pgsWsDZnU4AZUvo-uKsv7jTA29VyORVsnsMTUrWsu2_639zvvpV7sEV62TCEwRrOfTCl3hntmFAv9cQYV2e8WAYDuZLTXCqTHHl8HGvNiyNkCOhQMlBwMMs3nUBGReH0c9uOxJDE6z_MWDKg4j3RMEj0gWm_ixezSnfMX5IUx60zAr5YfdRYOFW-xdwLy3O4tM6H7a9mr9SezejDuZAgaLojcek5nfpasB5az0yvrK8k_lcWPD52ySulmsti2IuZgHdNLef51_i7gtAwIhtwU7-Y_Dfo8R2wM-8iaN1SRJJOdrClx2k7Otn_NsV-BQVVMudfFMly8A6xjY1wYg-NzZ9uqVy7myWXaQwzy3F4bxQPRaMyU6uAEU0Ny3F2-ohCZsu6Xm1g6zpRRUdOp0wiwK25LmWwPTy6ER3SLCmETEEP9OmASMrR3_OL60WPgHqKfwYzdmOhm4x6KxX-JW58sV12x6h8zVHDSupoXrHQekuFpiU2Td8w7gJjHUkq9sfBkGLG7zmKy0]--></g></svg>