<svg xmlns="http://www.w3.org/2000/svg" xmlns:xlink="http://www.w3.org/1999/xlink" contentStyleType="text/css" height="202px" preserveAspectRatio="none" style="width:384px;height:202px;background:#FFFFFF;" version="1.1" viewBox="0 0 384 202" width="384px" zoomAndPan="magnify"><defs/><g><!--class Klassname--><g id="elem_Klassname"><rect codeLine="1" fill="#F1F1F1" height="80.9766" id="Klassname" rx="2.5" ry="2.5" style="stroke:#181818;stroke-width:0.5;" width="104.4814" x="12.1" y="115"/><ellipse cx="27.1" cy="131" fill="#ADD1B2" rx="11" ry="11" style="stroke:#181818;stroke-width:1;"/><path d="M29.5731,137.1431 Q28.9921,137.4419 28.3529,137.5913 Q27.7138,137.7407 27.0082,137.7407 Q24.5014,137.7407 23.1815,136.0889 Q21.8617,134.437 21.8617,131.3159 Q21.8617,128.1865 23.1815,126.5347 Q24.5014,124.8828 27.0082,124.8828 Q27.7138,124.8828 28.3612,125.0322 Q29.0087,125.1816 29.5731,125.4805 L29.5731,128.2031 Q28.9423,127.6221 28.3488,127.3523 Q27.7553,127.0825 27.1244,127.0825 Q25.7797,127.0825 25.0949,128.1492 Q24.4101,129.2158 24.4101,131.3159 Q24.4101,133.4077 25.0949,134.4744 Q25.7797,135.541 27.1244,135.541 Q27.7553,135.541 28.3488,135.2712 Q28.9423,135.0015 29.5731,134.4204 Z " fill="#000000"/><text fill="#000000" font-family="sans-serif" font-size="14" lengthAdjust="spacing" textLength="72.4814" x="41.1" y="136.291">Klassname</text><line style="stroke:#181818;stroke-width:0.5;" x1="13.1" x2="115.5814" y1="147" y2="147"/><text fill="#000000" font-family="sans-serif" font-size="14" lengthAdjust="spacing" textLength="60.4434" x="18.1" y="164.5352">Attribute</text><line style="stroke:#181818;stroke-width:0.5;" x1="13.1" x2="115.5814" y1="171.4883" y2="171.4883"/><text fill="#000000" font-family="sans-serif" font-size="14" lengthAdjust="spacing" textLength="68.0996" x="18.1" y="189.0234">Metoden()</text></g><!--class Buch--><g id="elem_Buch"><rect codeLine="5" fill="#F1F1F1" height="80.9766" id="Buch" rx="2.5" ry="2.5" style="stroke:#181818;stroke-width:0.5;" width="95.2412" x="151.72" y="115"/><ellipse cx="180.5083" cy="131" fill="#ADD1B2" rx="11" ry="11" style="stroke:#181818;stroke-width:1;"/><path d="M182.9814,137.1431 Q182.4004,137.4419 181.7612,137.5913 Q181.1221,137.7407 180.4165,137.7407 Q177.9096,137.7407 176.5898,136.0889 Q175.27,134.437 175.27,131.3159 Q175.27,128.1865 176.5898,126.5347 Q177.9096,124.8828 180.4165,124.8828 Q181.1221,124.8828 181.7695,125.0322 Q182.417,125.1816 182.9814,125.4805 L182.9814,128.2031 Q182.3506,127.6221 181.7571,127.3523 Q181.1636,127.0825 180.5327,127.0825 Q179.188,127.0825 178.5032,128.1492 Q177.8183,129.2158 177.8183,131.3159 Q177.8183,133.4077 178.5032,134.4744 Q179.188,135.541 180.5327,135.541 Q181.1636,135.541 181.7571,135.2712 Q182.3506,135.0015 182.9814,134.4204 Z " fill="#000000"/><text fill="#000000" font-family="sans-serif" font-size="14" lengthAdjust="spacing" textLength="32.6006" x="197.5723" y="136.291">Buch</text><line style="stroke:#181818;stroke-width:0.5;" x1="152.72" x2="245.9612" y1="147" y2="147"/><text fill="#000000" font-family="sans-serif" font-size="14" lengthAdjust="spacing" textLength="83.2412" x="157.72" y="164.5352">Titel : String</text><text fill="#000000" font-family="sans-serif" font-size="14" lengthAdjust="spacing" textLength="61.2295" x="157.72" y="181.0234">ISBN : int</text><line style="stroke:#181818;stroke-width:0.5;" x1="152.72" x2="245.9612" y1="187.9766" y2="187.9766"/></g><!--class Bestellung--><g id="elem_Bestellung"><rect codeLine="12" fill="#F1F1F1" height="48" id="Bestellung" rx="2.5" ry="2.5" style="stroke:#181818;stroke-width:0.5;" width="102.2256" x="275.22" y="7"/><ellipse cx="290.22" cy="23" fill="#ADD1B2" rx="11" ry="11" style="stroke:#181818;stroke-width:1;"/><path d="M292.6931,29.1431 Q292.1121,29.4419 291.4729,29.5913 Q290.8338,29.7407 290.1282,29.7407 Q287.6214,29.7407 286.3015,28.0889 Q284.9817,26.437 284.9817,23.3159 Q284.9817,20.1865 286.3015,18.5347 Q287.6214,16.8828 290.1282,16.8828 Q290.8338,16.8828 291.4812,17.0322 Q292.1287,17.1816 292.6931,17.4805 L292.6931,20.2031 Q292.0623,19.6221 291.4688,19.3523 Q290.8753,19.0825 290.2444,19.0825 Q288.8997,19.0825 288.2149,20.1492 Q287.5301,21.2158 287.5301,23.3159 Q287.5301,25.4077 288.2149,26.4744 Q288.8997,27.541 290.2444,27.541 Q290.8753,27.541 291.4688,27.2712 Q292.0623,27.0015 292.6931,26.4204 Z " fill="#000000"/><text fill="#000000" font-family="sans-serif" font-size="14" lengthAdjust="spacing" textLength="70.2256" x="304.22" y="28.291">Bestellung</text><line style="stroke:#181818;stroke-width:0.5;" x1="276.22" x2="376.4456" y1="39" y2="39"/><line style="stroke:#181818;stroke-width:0.5;" x1="276.22" x2="376.4456" y1="47" y2="47"/></g><!--class Buchhandlung--><g id="elem_Buchhandlung"><rect codeLine="14" fill="#F1F1F1" height="48" id="Buchhandlung" rx="2.5" ry="2.5" style="stroke:#181818;stroke-width:0.5;" width="128.6738" x="7" y="7"/><ellipse cx="22" cy="23" fill="#ADD1B2" rx="11" ry="11" style="stroke:#181818;stroke-width:1;"/><path d="M24.4731,29.1431 Q23.8921,29.4419 23.2529,29.5913 Q22.6138,29.7407 21.9082,29.7407 Q19.4014,29.7407 18.0815,28.0889 Q16.7617,26.437 16.7617,23.3159 Q16.7617,20.1865 18.0815,18.5347 Q19.4014,16.8828 21.9082,16.8828 Q22.6138,16.8828 23.2612,17.0322 Q23.9087,17.1816 24.4731,17.4805 L24.4731,20.2031 Q23.8423,19.6221 23.2488,19.3523 Q22.6553,19.0825 22.0244,19.0825 Q20.6797,19.0825 19.9949,20.1492 Q19.3101,21.2158 19.3101,23.3159 Q19.3101,25.4077 19.9949,26.4744 Q20.6797,27.541 22.0244,27.541 Q22.6553,27.541 23.2488,27.2712 Q23.8423,27.0015 24.4731,26.4204 Z " fill="#000000"/><text fill="#000000" font-family="sans-serif" font-size="14" lengthAdjust="spacing" textLength="96.6738" x="36" y="28.291">Buchhandlung</text><line style="stroke:#181818;stroke-width:0.5;" x1="8" x2="134.6738" y1="39" y2="39"/><line style="stroke:#181818;stroke-width:0.5;" x1="8" x2="134.6738" y1="47" y2="47"/></g><!--class Regal--><g id="elem_Regal"><rect codeLine="15" fill="#F1F1F1" height="48" id="Regal" rx="2.5" ry="2.5" style="stroke:#181818;stroke-width:0.5;" width="69.1602" x="170.76" y="7"/><ellipse cx="185.76" cy="23" fill="#ADD1B2" rx="11" ry="11" style="stroke:#181818;stroke-width:1;"/><path d="M188.2331,29.1431 Q187.6521,29.4419 187.0129,29.5913 Q186.3738,29.7407 185.6682,29.7407 Q183.1614,29.7407 181.8415,28.0889 Q180.5217,26.437 180.5217,23.3159 Q180.5217,20.1865 181.8415,18.5347 Q183.1614,16.8828 185.6682,16.8828 Q186.3738,16.8828 187.0212,17.0322 Q187.6687,17.1816 188.2331,17.4805 L188.2331,20.2031 Q187.6023,19.6221 187.0088,19.3523 Q186.4153,19.0825 185.7844,19.0825 Q184.4397,19.0825 183.7549,20.1492 Q183.0701,21.2158 183.0701,23.3159 Q183.0701,25.4077 183.7549,26.4744 Q184.4397,27.541 185.7844,27.541 Q186.4153,27.541 187.0088,27.2712 Q187.6023,27.0015 188.2331,26.4204 Z " fill="#000000"/><text fill="#000000" font-family="sans-serif" font-size="14" lengthAdjust="spacing" textLength="37.1602" x="199.76" y="28.291">Regal</text><line style="stroke:#181818;stroke-width:0.5;" x1="171.76" x2="238.9202" y1="39" y2="39"/><line style="stroke:#181818;stroke-width:0.5;" x1="171.76" x2="238.9202" y1="47" y2="47"/></g><!--link Klassname to Buch--><g id="link_Klassname_Buch"><path codeLine="10" d="M117.07,155.49 C128.53,155.49 139.99,155.49 151.46,155.49 " fill="none" id="Klassname-Buch" style="stroke:#181818;stroke-width:1;"/></g><!--link Bestellung to Buch--><g id="link_Bestellung_Buch"><path codeLine="13" d="M302.15,55.33 C284.81,72.06 273.9653,82.5136 253.6353,102.1236 " fill="none" id="Bestellung-to-Buch" style="stroke:#181818;stroke-width:1;"/><polygon fill="none" points="240.68,114.62,257.8007,106.442,249.4698,97.8051,240.68,114.62" style="stroke:#181818;stroke-width:1;"/></g><!--reverse link Buchhandlung to Regal--><g id="link_Buchhandlung_Regal"><path codeLine="16" d="M147.98,31 C159.45,31 158.92,31 170.39,31 " fill="none" id="Buchhandlung-backto-Regal" style="stroke:#181818;stroke-width:1;"/><polygon fill="#181818" points="135.98,31,141.98,35,147.98,31,141.98,27,135.98,31" style="stroke:#181818;stroke-width:1;"/></g><!--reverse link Buchhandlung to Buch--><g id="link_Buchhandlung_Buch"><path codeLine="18" d="M104.3816,63.6248 C121.8716,80.3548 137.18,95.01 157.67,114.62 " fill="none" id="Buchhandlung-backto-Buch" style="stroke:#181818;stroke-width:1;"/><polygon fill="none" points="95.71,55.33,97.2809,62.3679,104.3816,63.6248,102.8107,56.5869,95.71,55.33" style="stroke:#181818;stroke-width:1;"/></g><!--SRC=[Iyv9B2vMy0QHUOcvgGhLN8ub9KMPIQKbgLo-gINvAQbv6ffSjLp9O7LEfSaPG2KXcIMfEGfM2i50bNdfN9x1Jdv0NcPU2L0X5y8iNR1wBfZUr6AWhfpIl7I5wbek99wkReqTH2N2aep4l1IOKeXeK6fwOWvO9xAqbYv4WWjLE5yNQZS0]--></g></svg>