<svg xmlns="http://www.w3.org/2000/svg" xmlns:xlink="http://www.w3.org/1999/xlink" contentStyleType="text/css" height="467px" preserveAspectRatio="none" style="width:486px;height:467px;background:#FFFFFF;" version="1.1" viewBox="0 0 486 467" width="486px" zoomAndPan="magnify"><defs/><g><ellipse cx="297.3633" cy="20" fill="#222222" rx="10" ry="10" style="stroke:#222222;stroke-width:1;"/><rect fill="#F1F1F1" height="34.1328" rx="12.5" ry="12.5" style="stroke:#181818;stroke-width:0.5;" width="176.8145" x="208.9561" y="50"/><text fill="#000000" font-family="sans-serif" font-size="12" lengthAdjust="spacing" textLength="153.0176" x="222.7529" y="71.6016">Kunde geht zur Apotheke;</text><rect fill="#F1F1F1" height="34.1328" rx="12.5" ry="12.5" style="stroke:#181818;stroke-width:0.5;" width="140.3398" x="227.1934" y="104.1328"/><text fill="#000000" font-family="sans-serif" font-size="12" lengthAdjust="spacing" textLength="120.3398" x="237.1934" y="125.7344">beschreibt Krankkeit</text><rect fill="#F1F1F1" height="34.1328" rx="12.5" ry="12.5" style="stroke:#181818;stroke-width:0.5;" width="147.1895" x="223.7686" y="158.2656"/><text fill="#000000" font-family="sans-serif" font-size="12" lengthAdjust="spacing" textLength="123.3926" x="237.5654" y="179.8672">Naturprodukt w&#228;hlen</text><polygon fill="#F1F1F1" points="297.3633,212.3984,297.3633,212.3984,309.3633,224.3984,297.3633,236.3984,297.3633,236.3984,285.3633,224.3984,297.3633,212.3984" style="stroke:#181818;stroke-width:0.5;"/><text fill="#000000" font-family="sans-serif" font-size="11" lengthAdjust="spacing" textLength="154.4941" x="130.8691" y="222.0781">[Naturprodukt nicht vorr&#228;tig}</text><text fill="#000000" font-family="sans-serif" font-size="11" lengthAdjust="spacing" textLength="131.5864" x="309.3633" y="222.0781">[Naturprodukt vorr&#228;tig})]</text><rect fill="#555555" height="6" rx="2.5" ry="2.5" style="stroke:#555555;stroke-width:1;" width="331.6035" x="11" y="246.3984"/><rect fill="#F1F1F1" height="34.1328" rx="12.5" ry="12.5" style="stroke:#181818;stroke-width:0.5;" width="118.7363" x="23" y="272.3984"/><text fill="#000000" font-family="sans-serif" font-size="12" lengthAdjust="spacing" textLength="94.9395" x="36.7969" y="294">Standartprodukt</text><rect fill="#F1F1F1" height="34.1328" rx="12.5" ry="12.5" style="stroke:#181818;stroke-width:0.5;" width="158.8672" x="169.7363" y="272.3984"/><text fill="#000000" font-family="sans-serif" font-size="12" lengthAdjust="spacing" textLength="135.0703" x="183.5332" y="294">Naturprodukt bestellen</text><rect fill="#555555" height="6" rx="2.5" ry="2.5" style="stroke:#555555;stroke-width:1;" width="331.6035" x="11" y="326.5313"/><rect fill="#F1F1F1" height="34.1328" rx="12.5" ry="12.5" style="stroke:#181818;stroke-width:0.5;" width="112.6426" x="362.6035" y="246.3984"/><text fill="#000000" font-family="sans-serif" font-size="12" lengthAdjust="spacing" textLength="88.8457" x="376.4004" y="268">Produkt kaufen</text><polygon fill="#F1F1F1" points="297.3633,338.5313,309.3633,350.5313,297.3633,362.5313,285.3633,350.5313,297.3633,338.5313" style="stroke:#181818;stroke-width:0.5;"/><rect fill="#F1F1F1" height="34.1328" rx="12.5" ry="12.5" style="stroke:#181818;stroke-width:0.5;" width="137.3867" x="228.6699" y="382.5313"/><text fill="#000000" font-family="sans-serif" font-size="12" lengthAdjust="spacing" textLength="113.5898" x="242.4668" y="404.1328">Apotheke verlassen</text><ellipse cx="297.3633" cy="446.6641" fill="none" rx="10" ry="10" style="stroke:#222222;stroke-width:1.5;"/><line style="stroke:#222222;stroke-width:2.5;" x1="291.1761" x2="303.5505" y1="440.4769" y2="452.8512"/><line style="stroke:#222222;stroke-width:2.5;" x1="303.5505" x2="291.1761" y1="440.4769" y2="452.8512"/><line style="stroke:#181818;stroke-width:1;" x1="297.3633" x2="297.3633" y1="30" y2="50"/><polygon fill="#181818" points="293.3633,40,297.3633,50,301.3633,40,297.3633,44" style="stroke:#181818;stroke-width:1;"/><line style="stroke:#181818;stroke-width:1;" x1="297.3633" x2="297.3633" y1="84.1328" y2="104.1328"/><polygon fill="#181818" points="293.3633,94.1328,297.3633,104.1328,301.3633,94.1328,297.3633,98.1328" style="stroke:#181818;stroke-width:1;"/><line style="stroke:#181818;stroke-width:1;" x1="297.3633" x2="297.3633" y1="138.2656" y2="158.2656"/><polygon fill="#181818" points="293.3633,148.2656,297.3633,158.2656,301.3633,148.2656,297.3633,152.2656" style="stroke:#181818;stroke-width:1;"/><line style="stroke:#181818;stroke-width:1;" x1="82.3682" x2="82.3682" y1="252.3984" y2="272.3984"/><polygon fill="#181818" points="78.3682,262.3984,82.3682,272.3984,86.3682,262.3984,82.3682,266.3984" style="stroke:#181818;stroke-width:1;"/><line style="stroke:#181818;stroke-width:1;" x1="249.1699" x2="249.1699" y1="252.3984" y2="272.3984"/><polygon fill="#181818" points="245.1699,262.3984,249.1699,272.3984,253.1699,262.3984,249.1699,266.3984" style="stroke:#181818;stroke-width:1;"/><line style="stroke:#181818;stroke-width:1;" x1="82.3682" x2="82.3682" y1="306.5313" y2="326.5313"/><polygon fill="#181818" points="78.3682,316.5313,82.3682,326.5313,86.3682,316.5313,82.3682,320.5313" style="stroke:#181818;stroke-width:1;"/><line style="stroke:#181818;stroke-width:1;" x1="249.1699" x2="249.1699" y1="306.5313" y2="326.5313"/><polygon fill="#181818" points="245.1699,316.5313,249.1699,326.5313,253.1699,316.5313,249.1699,320.5313" style="stroke:#181818;stroke-width:1;"/><line style="stroke:#181818;stroke-width:1;" x1="285.3633" x2="175.8018" y1="224.3984" y2="224.3984"/><line style="stroke:#181818;stroke-width:1;" x1="175.8018" x2="175.8018" y1="224.3984" y2="246.3984"/><polygon fill="#181818" points="171.8018,236.3984,175.8018,246.3984,179.8018,236.3984,175.8018,240.3984" style="stroke:#181818;stroke-width:1;"/><line style="stroke:#181818;stroke-width:1;" x1="309.3633" x2="418.9248" y1="224.3984" y2="224.3984"/><line style="stroke:#181818;stroke-width:1;" x1="418.9248" x2="418.9248" y1="224.3984" y2="246.3984"/><polygon fill="#181818" points="414.9248,236.3984,418.9248,246.3984,422.9248,236.3984,418.9248,240.3984" style="stroke:#181818;stroke-width:1;"/><line style="stroke:#181818;stroke-width:1;" x1="175.8018" x2="175.8018" y1="332.5313" y2="350.5313"/><line style="stroke:#181818;stroke-width:1;" x1="175.8018" x2="285.3633" y1="350.5313" y2="350.5313"/><polygon fill="#181818" points="275.3633,346.5313,285.3633,350.5313,275.3633,354.5313,279.3633,350.5313" style="stroke:#181818;stroke-width:1;"/><line style="stroke:#181818;stroke-width:1;" x1="418.9248" x2="418.9248" y1="280.5313" y2="350.5313"/><line style="stroke:#181818;stroke-width:1;" x1="418.9248" x2="309.3633" y1="350.5313" y2="350.5313"/><polygon fill="#181818" points="319.3633,346.5313,309.3633,350.5313,319.3633,354.5313,315.3633,350.5313" style="stroke:#181818;stroke-width:1;"/><line style="stroke:#181818;stroke-width:1;" x1="297.3633" x2="297.3633" y1="192.3984" y2="212.3984"/><polygon fill="#181818" points="293.3633,202.3984,297.3633,212.3984,301.3633,202.3984,297.3633,206.3984" style="stroke:#181818;stroke-width:1;"/><line style="stroke:#181818;stroke-width:1;" x1="297.3633" x2="297.3633" y1="362.5313" y2="382.5313"/><polygon fill="#181818" points="293.3633,372.5313,297.3633,382.5313,301.3633,372.5313,297.3633,376.5313" style="stroke:#181818;stroke-width:1;"/><line style="stroke:#181818;stroke-width:1;" x1="297.3633" x2="297.3633" y1="416.6641" y2="436.6641"/><polygon fill="#181818" points="293.3633,426.6641,297.3633,436.6641,301.3633,426.6641,297.3633,430.6641" style="stroke:#181818;stroke-width:1;"/><!--SRC=[POyx2eD048RxFSLVQf4BQ9LQ286K8SMgeouhgypE6WZaDjx4YsL50tcq_-kRyQ9P50ueWgi9BNM2Hs0Snq4wifGhP2NvgcCofQ1WxQmb8wkEavR08mzri8BxCdSzkMYO1acAM7T8hbyPPwguFmtCooocVQOApS1stRg8TdMyPO_ccmFTQkF-MF4YeNwZhJ5ojGBrddw17wXRgZASTztgqApjM3HDrD_lOYBkjVUxzm80]--></g></svg>