<svg xmlns="http://www.w3.org/2000/svg" xmlns:xlink="http://www.w3.org/1999/xlink" contentStyleType="text/css" height="295px" preserveAspectRatio="none" style="width:256px;height:295px;background:#FFFFFF;" version="1.1" viewBox="0 0 256 295" width="256px" zoomAndPan="magnify"><defs/><g><ellipse cx="128.2705" cy="20" fill="#222222" rx="10" ry="10" style="stroke:#222222;stroke-width:1;"/><rect fill="#F1F1F1" height="34.1328" rx="12.5" ry="12.5" style="stroke:#181818;stroke-width:0.5;" width="159.4004" x="48.5703" y="50"/><text fill="#000000" font-family="sans-serif" font-size="12" lengthAdjust="spacing" textLength="135.6035" x="62.3672" y="71.6016">Buchhandlung betreten</text><rect fill="#555555" height="6" rx="2.5" ry="2.5" style="stroke:#555555;stroke-width:1;" width="234.541" x="11" y="104.1328"/><rect fill="#F1F1F1" height="34.1328" rx="12.5" ry="12.5" style="stroke:#181818;stroke-width:0.5;" width="76.8301" x="23" y="130.1328"/><text fill="#000000" font-family="sans-serif" font-size="12" lengthAdjust="spacing" textLength="53.0332" x="36.7969" y="151.7344">umsehen</text><rect fill="#F1F1F1" height="34.1328" rx="12.5" ry="12.5" style="stroke:#181818;stroke-width:0.5;" width="105.7109" x="127.8301" y="130.1328"/><text fill="#000000" font-family="sans-serif" font-size="12" lengthAdjust="spacing" textLength="81.9141" x="141.627" y="151.7344">Kaffee trinken</text><rect fill="#555555" height="6" rx="2.5" ry="2.5" style="stroke:#555555;stroke-width:1;" width="234.541" x="11" y="184.2656"/><rect fill="#F1F1F1" height="34.1328" rx="12.5" ry="12.5" style="stroke:#181818;stroke-width:0.5;" width="164.7266" x="45.9072" y="210.2656"/><text fill="#000000" font-family="sans-serif" font-size="12" lengthAdjust="spacing" textLength="140.9297" x="59.7041" y="231.8672">Buchhandlung verlassen</text><ellipse cx="128.2705" cy="274.3984" fill="none" rx="10" ry="10" style="stroke:#222222;stroke-width:1.5;"/><line style="stroke:#222222;stroke-width:2.5;" x1="122.0833" x2="134.4577" y1="268.2113" y2="280.5856"/><line style="stroke:#222222;stroke-width:2.5;" x1="134.4577" x2="122.0833" y1="268.2113" y2="280.5856"/><line style="stroke:#181818;stroke-width:1;" x1="128.2705" x2="128.2705" y1="30" y2="50"/><polygon fill="#181818" points="124.2705,40,128.2705,50,132.2705,40,128.2705,44" style="stroke:#181818;stroke-width:1;"/><line style="stroke:#181818;stroke-width:1;" x1="61.415" x2="61.415" y1="110.1328" y2="130.1328"/><polygon fill="#181818" points="57.415,120.1328,61.415,130.1328,65.415,120.1328,61.415,124.1328" style="stroke:#181818;stroke-width:1;"/><line style="stroke:#181818;stroke-width:1;" x1="180.6855" x2="180.6855" y1="110.1328" y2="130.1328"/><polygon fill="#181818" points="176.6855,120.1328,180.6855,130.1328,184.6855,120.1328,180.6855,124.1328" style="stroke:#181818;stroke-width:1;"/><line style="stroke:#181818;stroke-width:1;" x1="61.415" x2="61.415" y1="164.2656" y2="184.2656"/><polygon fill="#181818" points="57.415,174.2656,61.415,184.2656,65.415,174.2656,61.415,178.2656" style="stroke:#181818;stroke-width:1;"/><line style="stroke:#181818;stroke-width:1;" x1="180.6855" x2="180.6855" y1="164.2656" y2="184.2656"/><polygon fill="#181818" points="176.6855,174.2656,180.6855,184.2656,184.6855,174.2656,180.6855,178.2656" style="stroke:#181818;stroke-width:1;"/><line style="stroke:#181818;stroke-width:1;" x1="128.2705" x2="128.2705" y1="84.1328" y2="104.1328"/><polygon fill="#181818" points="124.2705,94.1328,128.2705,104.1328,132.2705,94.1328,128.2705,98.1328" style="stroke:#181818;stroke-width:1;"/><line style="stroke:#181818;stroke-width:1;" x1="128.2705" x2="128.2705" y1="190.2656" y2="210.2656"/><polygon fill="#181818" points="124.2705,200.2656,128.2705,210.2656,132.2705,200.2656,128.2705,204.2656" style="stroke:#181818;stroke-width:1;"/><line style="stroke:#181818;stroke-width:1;" x1="128.2705" x2="128.2705" y1="244.3984" y2="264.3984"/><polygon fill="#181818" points="124.2705,254.3984,128.2705,264.3984,132.2705,254.3984,128.2705,258.3984" style="stroke:#181818;stroke-width:1;"/><!--SRC=[LOn13e0W40Fll6BVeJUllcAL0WPSasNn_MA21tjhfsqrLdCJBMrFYSMN9f4scC8WimkNvaxRMP4-Jnpva9wk7090feVa5q8yZS7lxeOMhdLKNDS3]--></g></svg>