<svg xmlns="http://www.w3.org/2000/svg" xmlns:xlink="http://www.w3.org/1999/xlink" contentStyleType="text/css" height="479px" preserveAspectRatio="none" style="width:295px;height:479px;background:#FFFFFF;" version="1.1" viewBox="0 0 295 479" width="295px" zoomAndPan="magnify"><defs/><g><ellipse cx="150.5586" cy="20" fill="#222222" rx="10" ry="10" style="stroke:#222222;stroke-width:1;"/><rect fill="#F1F1F1" height="34.1328" rx="12.5" ry="12.5" style="stroke:#181818;stroke-width:0.5;" width="109.5371" x="95.79" y="50"/><text fill="#000000" font-family="sans-serif" font-size="12" lengthAdjust="spacing" textLength="89.5371" x="105.79" y="71.6016">Laptops kaufen</text><rect fill="#F1F1F1" height="34.1328" rx="12.5" ry="12.5" style="stroke:#181818;stroke-width:0.5;" width="132.3359" x="84.3906" y="152.6104"/><text fill="#000000" font-family="sans-serif" font-size="12" lengthAdjust="spacing" textLength="108.5391" x="98.1875" y="174.2119">Laptops entsorgen</text><ellipse cx="150.5586" cy="224.1768" fill="none" rx="10" ry="10" style="stroke:#222222;stroke-width:1.5;"/><line style="stroke:#222222;stroke-width:2.5;" x1="144.3714" x2="156.7458" y1="217.9896" y2="230.3639"/><line style="stroke:#222222;stroke-width:2.5;" x1="156.7458" x2="144.3714" y1="217.9896" y2="230.3639"/><polygon fill="#F1F1F1" points="150.5586,104.1328,150.5586,104.1328,162.5586,116.1328,150.5586,128.1328,150.5586,128.1328,138.5586,116.1328,150.5586,104.1328" style="stroke:#181818;stroke-width:0.5;"/><text fill="#000000" font-family="sans-serif" font-size="11" lengthAdjust="spacing" textLength="81.7749" x="154.5586" y="138.7676">[Laptop kaputt]</text><text fill="#000000" font-family="sans-serif" font-size="11" lengthAdjust="spacing" textLength="110.2202" x="162.5586" y="113.8125">[Laptop funktioniert]</text><rect fill="#F1F1F1" height="34.1328" rx="12.5" ry="12.5" style="stroke:#181818;stroke-width:0.5;" width="132.8047" x="84.1563" y="276.1768"/><text fill="#000000" font-family="sans-serif" font-size="12" lengthAdjust="spacing" textLength="109.0078" x="97.9531" y="297.7783">Wert wird ermittelt</text><polygon fill="#F1F1F1" points="150.5586,330.3096,150.5586,330.3096,162.5586,342.3096,150.5586,354.3096,150.5586,354.3096,138.5586,342.3096,150.5586,330.3096" style="stroke:#181818;stroke-width:0.5;"/><text fill="#000000" font-family="sans-serif" font-size="11" lengthAdjust="spacing" textLength="88.4512" x="50.1074" y="339.9893">[Wert &lt; 50 Euro]</text><text fill="#000000" font-family="sans-serif" font-size="11" lengthAdjust="spacing" textLength="97.1953" x="162.5586" y="339.9893">[Wert =&gt; 50 Euro]</text><rect fill="#F1F1F1" height="34.1328" rx="12.5" ry="12.5" style="stroke:#181818;stroke-width:0.5;" width="132.3359" x="11" y="364.3096"/><text fill="#000000" font-family="sans-serif" font-size="12" lengthAdjust="spacing" textLength="108.5391" x="24.7969" y="385.9111">Laptops entsorgen</text><rect fill="#F1F1F1" height="34.1328" rx="12.5" ry="12.5" style="stroke:#181818;stroke-width:0.5;" width="121.2266" x="163.3359" y="364.3096"/><text fill="#000000" font-family="sans-serif" font-size="12" lengthAdjust="spacing" textLength="101.2266" x="173.3359" y="385.9111">Laptop verkaufen</text><polygon fill="#F1F1F1" points="150.5586,404.4424,162.5586,416.4424,150.5586,428.4424,138.5586,416.4424,150.5586,404.4424" style="stroke:#181818;stroke-width:0.5;"/><ellipse cx="150.5586" cy="458.4424" fill="none" rx="10" ry="10" style="stroke:#222222;stroke-width:1.5;"/><line style="stroke:#222222;stroke-width:2.5;" x1="144.3714" x2="156.7458" y1="452.2552" y2="464.6296"/><line style="stroke:#222222;stroke-width:2.5;" x1="156.7458" x2="144.3714" y1="452.2552" y2="464.6296"/><line style="stroke:#181818;stroke-width:1;" x1="150.5586" x2="150.5586" y1="30" y2="50"/><polygon fill="#181818" points="146.5586,40,150.5586,50,154.5586,40,150.5586,44" style="stroke:#181818;stroke-width:1;"/><line style="stroke:#181818;stroke-width:1;" x1="150.5586" x2="150.5586" y1="186.7432" y2="214.1768"/><polygon fill="#181818" points="146.5586,204.1768,150.5586,214.1768,154.5586,204.1768,150.5586,208.1768" style="stroke:#181818;stroke-width:1;"/><line style="stroke:#181818;stroke-width:1;" x1="150.5586" x2="150.5586" y1="128.1328" y2="152.6104"/><polygon fill="#181818" points="146.5586,142.6104,150.5586,152.6104,154.5586,142.6104,150.5586,146.6104" style="stroke:#181818;stroke-width:1;"/><line style="stroke:#181818;stroke-width:1;" x1="162.5586" x2="226.7266" y1="116.1328" y2="116.1328"/><polygon fill="#181818" points="222.7266,184.1768,226.7266,194.1768,230.7266,184.1768,226.7266,188.1768" style="stroke:#181818;stroke-width:1;"/><line style="stroke:#181818;stroke-width:1;" x1="226.7266" x2="226.7266" y1="116.1328" y2="256.1768"/><line style="stroke:#181818;stroke-width:1;" x1="226.7266" x2="150.5586" y1="256.1768" y2="256.1768"/><line style="stroke:#181818;stroke-width:1;" x1="150.5586" x2="150.5586" y1="256.1768" y2="276.1768"/><polygon fill="#181818" points="146.5586,266.1768,150.5586,276.1768,154.5586,266.1768,150.5586,270.1768" style="stroke:#181818;stroke-width:1;"/><line style="stroke:#181818;stroke-width:1;" x1="150.5586" x2="150.5586" y1="84.1328" y2="104.1328"/><polygon fill="#181818" points="146.5586,94.1328,150.5586,104.1328,154.5586,94.1328,150.5586,98.1328" style="stroke:#181818;stroke-width:1;"/><line style="stroke:#181818;stroke-width:1;" x1="138.5586" x2="77.168" y1="342.3096" y2="342.3096"/><line style="stroke:#181818;stroke-width:1;" x1="77.168" x2="77.168" y1="342.3096" y2="364.3096"/><polygon fill="#181818" points="73.168,354.3096,77.168,364.3096,81.168,354.3096,77.168,358.3096" style="stroke:#181818;stroke-width:1;"/><line style="stroke:#181818;stroke-width:1;" x1="162.5586" x2="223.9492" y1="342.3096" y2="342.3096"/><line style="stroke:#181818;stroke-width:1;" x1="223.9492" x2="223.9492" y1="342.3096" y2="364.3096"/><polygon fill="#181818" points="219.9492,354.3096,223.9492,364.3096,227.9492,354.3096,223.9492,358.3096" style="stroke:#181818;stroke-width:1;"/><line style="stroke:#181818;stroke-width:1;" x1="77.168" x2="77.168" y1="398.4424" y2="416.4424"/><line style="stroke:#181818;stroke-width:1;" x1="77.168" x2="138.5586" y1="416.4424" y2="416.4424"/><polygon fill="#181818" points="128.5586,412.4424,138.5586,416.4424,128.5586,420.4424,132.5586,416.4424" style="stroke:#181818;stroke-width:1;"/><line style="stroke:#181818;stroke-width:1;" x1="223.9492" x2="223.9492" y1="398.4424" y2="416.4424"/><line style="stroke:#181818;stroke-width:1;" x1="223.9492" x2="162.5586" y1="416.4424" y2="416.4424"/><polygon fill="#181818" points="172.5586,412.4424,162.5586,416.4424,172.5586,420.4424,168.5586,416.4424" style="stroke:#181818;stroke-width:1;"/><line style="stroke:#181818;stroke-width:1;" x1="150.5586" x2="150.5586" y1="310.3096" y2="330.3096"/><polygon fill="#181818" points="146.5586,320.3096,150.5586,330.3096,154.5586,320.3096,150.5586,324.3096" style="stroke:#181818;stroke-width:1;"/><line style="stroke:#181818;stroke-width:1;" x1="150.5586" x2="150.5586" y1="428.4424" y2="448.4424"/><polygon fill="#181818" points="146.5586,438.4424,150.5586,448.4424,154.5586,438.4424,150.5586,442.4424" style="stroke:#181818;stroke-width:1;"/><!--SRC=[TO-x3i8m34NtV8N7TcDXAO-DZPq1CKIg0rQB4paE_3vkGmL2Oh5qTS_LaRDwKTSTVTAOCWo-1EIDem1D2tf3XkPSI-jIKRsqheC5HzOSvJeja7k7OyOF7meFIf49PLePGC6s9ulm9Ea1vKwgEEgFRoQsi5x1eKZyAwoo6Txjl-ct_u6ol5FTTby0]--></g></svg>