<svg xmlns="http://www.w3.org/2000/svg" xmlns:xlink="http://www.w3.org/1999/xlink" contentStyleType="text/css" height="563px" preserveAspectRatio="none" style="width:283px;height:563px;background:#FFFFFF;" version="1.1" viewBox="0 0 283 563" width="283px" zoomAndPan="magnify"><defs/><g><ellipse cx="129.1367" cy="20" fill="#222222" rx="10" ry="10" style="stroke:#222222;stroke-width:1;"/><rect fill="#F1F1F1" height="34.1328" rx="12.5" ry="12.5" style="stroke:#181818;stroke-width:0.5;" width="96.8281" x="80.7227" y="50"/><text fill="#000000" font-family="sans-serif" font-size="12" lengthAdjust="spacing" textLength="73.0313" x="94.5195" y="71.6016">Buch suchen</text><polygon fill="#F1F1F1" points="129.1367,104.1328,129.1367,104.1328,141.1367,116.1328,129.1367,128.1328,129.1367,128.1328,117.1367,116.1328,129.1367,104.1328" style="stroke:#181818;stroke-width:0.5;"/><text fill="#000000" font-family="sans-serif" font-size="11" lengthAdjust="spacing" textLength="40.3423" x="76.7944" y="113.8125">Fantasy</text><text fill="#000000" font-family="sans-serif" font-size="11" lengthAdjust="spacing" textLength="28.9126" x="141.1367" y="113.8125">sonst</text><rect fill="#F1F1F1" height="34.1328" rx="12.5" ry="12.5" style="stroke:#181818;stroke-width:0.5;" width="104.873" x="11" y="138.1328"/><text fill="#000000" font-family="sans-serif" font-size="12" lengthAdjust="spacing" textLength="81.0762" x="24.7969" y="159.7344">Tolkin w&#228;hlen</text><rect fill="#F1F1F1" height="34.1328" rx="12.5" ry="12.5" style="stroke:#181818;stroke-width:0.5;" width="117.9277" x="135.873" y="138.1328"/><text fill="#000000" font-family="sans-serif" font-size="12" lengthAdjust="spacing" textLength="94.1309" x="149.6699" y="159.7344">Besteller w&#228;hlen</text><polygon fill="#F1F1F1" points="129.1367,178.2656,141.1367,190.2656,129.1367,202.2656,117.1367,190.2656,129.1367,178.2656" style="stroke:#181818;stroke-width:0.5;"/><ellipse cx="129.1367" cy="232.2656" fill="none" rx="10" ry="10" style="stroke:#222222;stroke-width:1.5;"/><line style="stroke:#222222;stroke-width:2.5;" x1="122.9495" x2="135.3239" y1="226.0784" y2="238.4528"/><line style="stroke:#222222;stroke-width:2.5;" x1="135.3239" x2="122.9495" y1="226.0784" y2="238.4528"/><ellipse cx="129.1367" cy="262.2656" fill="#222222" rx="10" ry="10" style="stroke:#222222;stroke-width:1;"/><rect fill="#F1F1F1" height="34.1328" rx="12.5" ry="12.5" style="stroke:#181818;stroke-width:0.5;" width="133.2734" x="62.5" y="292.2656"/><text fill="#000000" font-family="sans-serif" font-size="12" lengthAdjust="spacing" textLength="109.4766" x="76.2969" y="313.8672">Gutschein erhalten</text><rect fill="#F1F1F1" height="34.1328" rx="12.5" ry="12.5" style="stroke:#181818;stroke-width:0.5;" width="92.6621" x="82.8057" y="402.5332"/><text fill="#000000" font-family="sans-serif" font-size="12" lengthAdjust="spacing" textLength="72.6621" x="92.8057" y="424.1348">Buch w&#228;hlen</text><polygon fill="#F1F1F1" points="129.1367,346.3984,129.1367,346.3984,141.1367,358.3984,129.1367,370.3984,129.1367,370.3984,117.1367,358.3984,129.1367,346.3984" style="stroke:#181818;stroke-width:0.5;"/><text fill="#000000" font-family="sans-serif" font-size="11" lengthAdjust="spacing" textLength="138.5903" x="133.1367" y="381.0332">[Summe &lt; Gutscheinwert]</text><text fill="#000000" font-family="sans-serif" font-size="11" lengthAdjust="spacing" textLength="36.0669" x="81.0698" y="356.0781">[sonst]</text><rect fill="#F1F1F1" height="34.1328" rx="12.5" ry="12.5" style="stroke:#181818;stroke-width:0.5;" width="75.9395" x="91.167" y="478.666"/><text fill="#000000" font-family="sans-serif" font-size="12" lengthAdjust="spacing" textLength="52.1426" x="104.9639" y="500.2676">Bezahlen</text><ellipse cx="129.1367" cy="542.7988" fill="none" rx="10" ry="10" style="stroke:#222222;stroke-width:1.5;"/><line style="stroke:#222222;stroke-width:2.5;" x1="122.9495" x2="135.3239" y1="536.6116" y2="548.986"/><line style="stroke:#222222;stroke-width:2.5;" x1="135.3239" x2="122.9495" y1="536.6116" y2="548.986"/><line style="stroke:#181818;stroke-width:1;" x1="129.1367" x2="129.1367" y1="30" y2="50"/><polygon fill="#181818" points="125.1367,40,129.1367,50,133.1367,40,129.1367,44" style="stroke:#181818;stroke-width:1;"/><line style="stroke:#181818;stroke-width:1;" x1="117.1367" x2="63.4365" y1="116.1328" y2="116.1328"/><line style="stroke:#181818;stroke-width:1;" x1="63.4365" x2="63.4365" y1="116.1328" y2="138.1328"/><polygon fill="#181818" points="59.4365,128.1328,63.4365,138.1328,67.4365,128.1328,63.4365,132.1328" style="stroke:#181818;stroke-width:1;"/><line style="stroke:#181818;stroke-width:1;" x1="141.1367" x2="194.8369" y1="116.1328" y2="116.1328"/><line style="stroke:#181818;stroke-width:1;" x1="194.8369" x2="194.8369" y1="116.1328" y2="138.1328"/><polygon fill="#181818" points="190.8369,128.1328,194.8369,138.1328,198.8369,128.1328,194.8369,132.1328" style="stroke:#181818;stroke-width:1;"/><line style="stroke:#181818;stroke-width:1;" x1="63.4365" x2="63.4365" y1="172.2656" y2="190.2656"/><line style="stroke:#181818;stroke-width:1;" x1="63.4365" x2="117.1367" y1="190.2656" y2="190.2656"/><polygon fill="#181818" points="107.1367,186.2656,117.1367,190.2656,107.1367,194.2656,111.1367,190.2656" style="stroke:#181818;stroke-width:1;"/><line style="stroke:#181818;stroke-width:1;" x1="194.8369" x2="194.8369" y1="172.2656" y2="190.2656"/><line style="stroke:#181818;stroke-width:1;" x1="194.8369" x2="141.1367" y1="190.2656" y2="190.2656"/><polygon fill="#181818" points="151.1367,186.2656,141.1367,190.2656,151.1367,194.2656,147.1367,190.2656" style="stroke:#181818;stroke-width:1;"/><line style="stroke:#181818;stroke-width:1;" x1="129.1367" x2="129.1367" y1="84.1328" y2="104.1328"/><polygon fill="#181818" points="125.1367,94.1328,129.1367,104.1328,133.1367,94.1328,129.1367,98.1328" style="stroke:#181818;stroke-width:1;"/><line style="stroke:#181818;stroke-width:1;" x1="129.1367" x2="129.1367" y1="202.2656" y2="222.2656"/><polygon fill="#181818" points="125.1367,212.2656,129.1367,222.2656,133.1367,212.2656,129.1367,216.2656" style="stroke:#181818;stroke-width:1;"/><line style="stroke:#181818;stroke-width:1;" x1="129.1367" x2="129.1367" y1="272.2656" y2="292.2656"/><polygon fill="#181818" points="125.1367,282.2656,129.1367,292.2656,133.1367,282.2656,129.1367,286.2656" style="stroke:#181818;stroke-width:1;"/><line style="stroke:#181818;stroke-width:1;" x1="129.1367" x2="129.1367" y1="370.3984" y2="402.5332"/><polygon fill="#181818" points="125.1367,392.5332,129.1367,402.5332,133.1367,392.5332,129.1367,396.5332" style="stroke:#181818;stroke-width:1;"/><line style="stroke:#181818;stroke-width:1;" x1="129.1367" x2="129.1367" y1="436.666" y2="446.666"/><line style="stroke:#181818;stroke-width:1;" x1="129.1367" x2="187.4678" y1="446.666" y2="446.666"/><polygon fill="#181818" points="183.4678,411.1221,187.4678,401.1221,191.4678,411.1221,187.4678,407.1221" style="stroke:#181818;stroke-width:1;"/><line style="stroke:#181818;stroke-width:1;" x1="187.4678" x2="187.4678" y1="358.3984" y2="446.666"/><line style="stroke:#181818;stroke-width:1;" x1="187.4678" x2="141.1367" y1="358.3984" y2="358.3984"/><polygon fill="#181818" points="151.1367,354.3984,141.1367,358.3984,151.1367,362.3984,147.1367,358.3984" style="stroke:#181818;stroke-width:1;"/><line style="stroke:#181818;stroke-width:1;" x1="117.1367" x2="70.8057" y1="358.3984" y2="358.3984"/><polygon fill="#181818" points="66.8057,397.1221,70.8057,407.1221,74.8057,397.1221,70.8057,401.1221" style="stroke:#181818;stroke-width:1;"/><line style="stroke:#181818;stroke-width:1;" x1="70.8057" x2="70.8057" y1="358.3984" y2="458.666"/><line style="stroke:#181818;stroke-width:1;" x1="70.8057" x2="129.1367" y1="458.666" y2="458.666"/><line style="stroke:#181818;stroke-width:1;" x1="129.1367" x2="129.1367" y1="458.666" y2="478.666"/><polygon fill="#181818" points="125.1367,468.666,129.1367,478.666,133.1367,468.666,129.1367,472.666" style="stroke:#181818;stroke-width:1;"/><line style="stroke:#181818;stroke-width:1;" x1="129.1367" x2="129.1367" y1="326.3984" y2="346.3984"/><polygon fill="#181818" points="125.1367,336.3984,129.1367,346.3984,133.1367,336.3984,129.1367,340.3984" style="stroke:#181818;stroke-width:1;"/><line style="stroke:#181818;stroke-width:1;" x1="129.1367" x2="129.1367" y1="512.7988" y2="532.7988"/><polygon fill="#181818" points="125.1367,522.7988,129.1367,532.7988,133.1367,522.7988,129.1367,526.7988" style="stroke:#181818;stroke-width:1;"/><!--SRC=[JOun3i8m34NtdC9ZSeN2r04E05lL8G9NYN1JANOKbVDm4ov6KggsovUb__p_Px5HL0DjUZZW8XXEoW-W3KYvGLzi4CkpASnzefSFaByVHnL3OWJDKs2fTeiiI8JnG8Id7wegnMlHDGcNbfA3qLcIYcNd2MkbPz3TBOqZmdadCqRfZG9ebfN7zFMpMqRq_nLlkza_]--></g></svg>