<svg xmlns="http://www.w3.org/2000/svg" xmlns:xlink="http://www.w3.org/1999/xlink" contentStyleType="text/css" height="460px" preserveAspectRatio="none" style="width:196px;height:460px;background:#FFFFFF;" version="1.1" viewBox="0 0 196 460" width="196px" zoomAndPan="magnify"><defs/><g><rect fill="#FFFFFF" height="177.9316" style="stroke:#FFFFFF;stroke-width:1;" width="10" x="26.7788" y="91.4883"/><line style="stroke:#181818;stroke-width:1;" x1="26.7788" x2="26.7788" y1="91.4883" y2="269.4199"/><line style="stroke:#181818;stroke-width:1;" x1="36.7788" x2="36.7788" y1="91.4883" y2="269.4199"/><line style="stroke:#181818;stroke-width:1;" x1="26.7788" x2="36.7788" y1="91.4883" y2="91.4883"/><rect fill="#FFFFFF" height="60.3105" style="stroke:#FFFFFF;stroke-width:1;" width="10" x="26.7788" y="310.375"/><line style="stroke:#181818;stroke-width:1;" x1="26.7788" x2="26.7788" y1="310.375" y2="370.6855"/><line style="stroke:#181818;stroke-width:1;" x1="36.7788" x2="36.7788" y1="310.375" y2="370.6855"/><rect fill="#FFFFFF" height="30" style="stroke:#181818;stroke-width:1;" width="10" x="147.877" y="112.7988"/><rect fill="#FFFFFF" height="30" style="stroke:#181818;stroke-width:1;" width="10" x="147.877" y="172.1094"/><rect fill="#FFFFFF" height="30" style="stroke:#181818;stroke-width:1;" width="10" x="147.877" y="231.4199"/><rect fill="#FFFFFF" height="30" style="stroke:#181818;stroke-width:1;" width="10" x="147.877" y="331.6855"/><line style="stroke:#181818;stroke-width:0.5;stroke-dasharray:5.0,5.0;" x1="31" x2="31" y1="81.4883" y2="269.4199"/><line style="stroke:#A80036;stroke-width:1;stroke-dasharray:1.0,4.0;" x1="31" x2="31" y1="269.4199" y2="310.375"/><line style="stroke:#181818;stroke-width:0.5;stroke-dasharray:5.0,5.0;" x1="31" x2="31" y1="310.375" y2="379.6855"/><line style="stroke:#181818;stroke-width:0.5;stroke-dasharray:5.0,5.0;" x1="152.5498" x2="152.5498" y1="81.4883" y2="269.4199"/><line style="stroke:#A80036;stroke-width:1;stroke-dasharray:1.0,4.0;" x1="152.5498" x2="152.5498" y1="269.4199" y2="310.375"/><line style="stroke:#181818;stroke-width:0.5;stroke-dasharray:5.0,5.0;" x1="152.5498" x2="152.5498" y1="310.375" y2="379.6855"/><text fill="#000000" font-family="sans-serif" font-size="14" lengthAdjust="spacing" textLength="47.5576" x="5" y="78.5352">:Kunde</text><ellipse cx="31.7788" cy="13.5" fill="#E2E2F0" rx="8" ry="8" style="stroke:#181818;stroke-width:0.5;"/><path d="M31.7788,21.5 L31.7788,48.5 M18.7788,29.5 L44.7788,29.5 M31.7788,48.5 L18.7788,63.5 M31.7788,48.5 L44.7788,63.5 " fill="none" style="stroke:#181818;stroke-width:0.5;"/><text fill="#000000" font-family="sans-serif" font-size="14" lengthAdjust="spacing" textLength="47.5576" x="5" y="392.2207">:Kunde</text><ellipse cx="31.7788" cy="403.6738" fill="#E2E2F0" rx="8" ry="8" style="stroke:#181818;stroke-width:0.5;"/><path d="M31.7788,411.6738 L31.7788,438.6738 M18.7788,419.6738 L44.7788,419.6738 M31.7788,438.6738 L18.7788,453.6738 M31.7788,438.6738 L44.7788,453.6738 " fill="none" style="stroke:#181818;stroke-width:0.5;"/><text fill="#000000" font-family="sans-serif" font-size="14" lengthAdjust="spacing" textLength="78.6543" x="110.5498" y="78.5352">:Mitarbeiter</text><ellipse cx="152.877" cy="13.5" fill="#E2E2F0" rx="8" ry="8" style="stroke:#181818;stroke-width:0.5;"/><path d="M152.877,21.5 L152.877,48.5 M139.877,29.5 L165.877,29.5 M152.877,48.5 L139.877,63.5 M152.877,48.5 L165.877,63.5 " fill="none" style="stroke:#181818;stroke-width:0.5;"/><text fill="#000000" font-family="sans-serif" font-size="14" lengthAdjust="spacing" textLength="78.6543" x="110.5498" y="392.2207">:Mitarbeiter</text><ellipse cx="152.877" cy="403.6738" fill="#E2E2F0" rx="8" ry="8" style="stroke:#181818;stroke-width:0.5;"/><path d="M152.877,411.6738 L152.877,438.6738 M139.877,419.6738 L165.877,419.6738 M152.877,438.6738 L139.877,453.6738 M152.877,438.6738 L165.877,453.6738 " fill="none" style="stroke:#181818;stroke-width:0.5;"/><rect fill="#FFFFFF" height="177.9316" style="stroke:#FFFFFF;stroke-width:1;" width="10" x="26.7788" y="91.4883"/><line style="stroke:#181818;stroke-width:1;" x1="26.7788" x2="26.7788" y1="91.4883" y2="269.4199"/><line style="stroke:#181818;stroke-width:1;" x1="36.7788" x2="36.7788" y1="91.4883" y2="269.4199"/><line style="stroke:#181818;stroke-width:1;" x1="26.7788" x2="36.7788" y1="91.4883" y2="91.4883"/><rect fill="#FFFFFF" height="60.3105" style="stroke:#FFFFFF;stroke-width:1;" width="10" x="26.7788" y="310.375"/><line style="stroke:#181818;stroke-width:1;" x1="26.7788" x2="26.7788" y1="310.375" y2="370.6855"/><line style="stroke:#181818;stroke-width:1;" x1="36.7788" x2="36.7788" y1="310.375" y2="370.6855"/><rect fill="#FFFFFF" height="30" style="stroke:#181818;stroke-width:1;" width="10" x="147.877" y="112.7988"/><rect fill="#FFFFFF" height="30" style="stroke:#181818;stroke-width:1;" width="10" x="147.877" y="172.1094"/><rect fill="#FFFFFF" height="30" style="stroke:#181818;stroke-width:1;" width="10" x="147.877" y="231.4199"/><rect fill="#FFFFFF" height="30" style="stroke:#181818;stroke-width:1;" width="10" x="147.877" y="331.6855"/><polygon fill="#181818" points="135.877,108.7988,145.877,112.7988,135.877,116.7988,139.877,112.7988" style="stroke:#181818;stroke-width:1;"/><line style="stroke:#181818;stroke-width:1;" x1="36.7788" x2="141.877" y1="112.7988" y2="112.7988"/><text fill="#000000" font-family="sans-serif" font-size="13" lengthAdjust="spacing" textLength="92.0981" x="43.7788" y="108.0566">rufen d=dauer</text><polygon fill="#181818" points="135.877,168.1094,145.877,172.1094,135.877,176.1094,139.877,172.1094" style="stroke:#181818;stroke-width:1;"/><line style="stroke:#181818;stroke-width:1;" x1="36.7788" x2="141.877" y1="172.1094" y2="172.1094"/><text fill="#000000" font-family="sans-serif" font-size="13" lengthAdjust="spacing" textLength="91.0127" x="43.7788" y="167.3672">rufen sec 0...1</text><polygon fill="#181818" points="135.877,227.4199,145.877,231.4199,135.877,235.4199,139.877,231.4199" style="stroke:#181818;stroke-width:1;"/><line style="stroke:#181818;stroke-width:1;" x1="36.7788" x2="141.877" y1="231.4199" y2="231.4199"/><text fill="#000000" font-family="sans-serif" font-size="13" lengthAdjust="spacing" textLength="33.4775" x="43.7788" y="226.6777">rufen</text><text fill="#000000" font-family="sans-serif" font-size="11" lengthAdjust="spacing" textLength="48.3022" x="68.1768" y="294.0547">{0..5min}</text><polygon fill="#181818" points="135.877,327.6855,145.877,331.6855,135.877,335.6855,139.877,331.6855" style="stroke:#181818;stroke-width:1;"/><line style="stroke:#181818;stroke-width:1;" x1="36.7788" x2="141.877" y1="331.6855" y2="331.6855"/><text fill="#000000" font-family="sans-serif" font-size="13" lengthAdjust="spacing" textLength="68.231" x="43.7788" y="326.9434">anschreien</text><!--SRC=[IqmkoIzIKBBoBirBILLII2nM0BEu4g7YlfabYKL9gPabgKLWMIG-I4rcMM99AbGBc5JGjKDMOwLGL9gMcgUGOfkIM8gi1TcSb5IimjZCKu0PM9oQh62WfwTdI3KZIJ88Q7Crq7hJtCoyMY0Rby69USN96KMfcIIQ3W00]--></g></svg>