<svg xmlns="http://www.w3.org/2000/svg" xmlns:xlink="http://www.w3.org/1999/xlink" contentStyleType="text/css" height="200px" preserveAspectRatio="none" style="width:306px;height:200px;background:#FFFFFF;" version="1.1" viewBox="0 0 306 200" width="306px" zoomAndPan="magnify"><defs/><g><rect fill="#FFFFFF" height="19" style="stroke:#181818;stroke-width:1;" width="10" x="43.1406" y="91.4883"/><rect fill="#FFFFFF" height="19" style="stroke:#181818;stroke-width:1;" width="10" x="125.9766" y="91.4883"/><rect fill="#FFFFFF" height="19" style="stroke:#181818;stroke-width:1;" width="10" x="205.1826" y="91.4883"/><rect fill="#FFFFFF" height="19" style="stroke:#181818;stroke-width:1;" width="10" x="277.8047" y="91.4883"/><line style="stroke:#181818;stroke-width:0.5;stroke-dasharray:5.0,5.0;" x1="48" x2="48" y1="81.4883" y2="119.4883"/><line style="stroke:#181818;stroke-width:0.5;stroke-dasharray:5.0,5.0;" x1="130.2813" x2="130.2813" y1="81.4883" y2="119.4883"/><line style="stroke:#181818;stroke-width:0.5;stroke-dasharray:5.0,5.0;" x1="209.6719" x2="209.6719" y1="81.4883" y2="119.4883"/><line style="stroke:#181818;stroke-width:0.5;stroke-dasharray:5.0,5.0;" x1="282.6934" x2="282.6934" y1="81.4883" y2="119.4883"/><text fill="#000000" font-family="sans-serif" font-size="14" lengthAdjust="spacing" textLength="80.2813" x="5" y="78.5352">Alice:Kunde</text><ellipse cx="48.1406" cy="13.5" fill="#E2E2F0" rx="8" ry="8" style="stroke:#181818;stroke-width:0.5;"/><path d="M48.1406,21.5 L48.1406,48.5 M35.1406,29.5 L61.1406,29.5 M48.1406,48.5 L35.1406,63.5 M48.1406,48.5 L61.1406,63.5 " fill="none" style="stroke:#181818;stroke-width:0.5;"/><text fill="#000000" font-family="sans-serif" font-size="14" lengthAdjust="spacing" textLength="80.2813" x="5" y="132.0234">Alice:Kunde</text><ellipse cx="48.1406" cy="143.4766" fill="#E2E2F0" rx="8" ry="8" style="stroke:#181818;stroke-width:0.5;"/><path d="M48.1406,151.4766 L48.1406,178.4766 M35.1406,159.4766 L61.1406,159.4766 M48.1406,178.4766 L35.1406,193.4766 M48.1406,178.4766 L61.1406,193.4766 " fill="none" style="stroke:#181818;stroke-width:0.5;"/><rect fill="#E2E2F0" height="30.4883" rx="2.5" ry="2.5" style="stroke:#181818;stroke-width:0.5;" width="59.3906" x="101.2813" y="50"/><text fill="#000000" font-family="sans-serif" font-size="14" lengthAdjust="spacing" textLength="45.3906" x="108.2813" y="70.5352">:Sytem</text><rect fill="#E2E2F0" height="30.4883" rx="2.5" ry="2.5" style="stroke:#181818;stroke-width:0.5;" width="59.3906" x="101.2813" y="118.4883"/><text fill="#000000" font-family="sans-serif" font-size="14" lengthAdjust="spacing" textLength="45.3906" x="108.2813" y="139.0234">:Sytem</text><text fill="#000000" font-family="sans-serif" font-size="14" lengthAdjust="spacing" textLength="73.0215" x="170.6719" y="78.5352">Bob:Kunde</text><ellipse cx="210.1826" cy="13.5" fill="#E2E2F0" rx="8" ry="8" style="stroke:#181818;stroke-width:0.5;"/><path d="M210.1826,21.5 L210.1826,48.5 M197.1826,29.5 L223.1826,29.5 M210.1826,48.5 L197.1826,63.5 M210.1826,48.5 L223.1826,63.5 " fill="none" style="stroke:#181818;stroke-width:0.5;"/><text fill="#000000" font-family="sans-serif" font-size="14" lengthAdjust="spacing" textLength="73.0215" x="170.6719" y="132.0234">Bob:Kunde</text><ellipse cx="210.1826" cy="143.4766" fill="#E2E2F0" rx="8" ry="8" style="stroke:#181818;stroke-width:0.5;"/><path d="M210.1826,151.4766 L210.1826,178.4766 M197.1826,159.4766 L223.1826,159.4766 M210.1826,178.4766 L197.1826,193.4766 M210.1826,178.4766 L223.1826,193.4766 " fill="none" style="stroke:#181818;stroke-width:0.5;"/><text fill="#000000" font-family="sans-serif" font-size="14" lengthAdjust="spacing" textLength="40.2227" x="259.6934" y="78.5352">Carol:</text><ellipse cx="282.8047" cy="13.5" fill="#E2E2F0" rx="8" ry="8" style="stroke:#181818;stroke-width:0.5;"/><path d="M282.8047,21.5 L282.8047,48.5 M269.8047,29.5 L295.8047,29.5 M282.8047,48.5 L269.8047,63.5 M282.8047,48.5 L295.8047,63.5 " fill="none" style="stroke:#181818;stroke-width:0.5;"/><text fill="#000000" font-family="sans-serif" font-size="14" lengthAdjust="spacing" textLength="40.2227" x="259.6934" y="132.0234">Carol:</text><ellipse cx="282.8047" cy="143.4766" fill="#E2E2F0" rx="8" ry="8" style="stroke:#181818;stroke-width:0.5;"/><path d="M282.8047,151.4766 L282.8047,178.4766 M269.8047,159.4766 L295.8047,159.4766 M282.8047,178.4766 L269.8047,193.4766 M282.8047,178.4766 L295.8047,193.4766 " fill="none" style="stroke:#181818;stroke-width:0.5;"/><rect fill="#FFFFFF" height="19" style="stroke:#181818;stroke-width:1;" width="10" x="43.1406" y="91.4883"/><rect fill="#FFFFFF" height="19" style="stroke:#181818;stroke-width:1;" width="10" x="125.9766" y="91.4883"/><rect fill="#FFFFFF" height="19" style="stroke:#181818;stroke-width:1;" width="10" x="205.1826" y="91.4883"/><rect fill="#FFFFFF" height="19" style="stroke:#181818;stroke-width:1;" width="10" x="277.8047" y="91.4883"/><line style="stroke:#A80036;stroke-width:2;" x1="273.8047" x2="291.8047" y1="91.4883" y2="109.4883"/><line style="stroke:#A80036;stroke-width:2;" x1="273.8047" x2="291.8047" y1="109.4883" y2="91.4883"/><!--SRC=[NOmn3e0W40HxNa5u1frQMlA24wuWGI5mcl1x5L29tSvkPa6JZrmCpcgKyxuP51mIBym2HBBQ1jY82waouLfMbTCL6LHtz4jdNlGC4qJlP6bBPFTW3o1i_oz-XvNRIONc6lpPNT7yhhaV32QAFZy79m00]--></g></svg>