<svg xmlns="http://www.w3.org/2000/svg" xmlns:xlink="http://www.w3.org/1999/xlink" contentStyleType="text/css" height="371px" preserveAspectRatio="none" style="width:428px;height:371px;background:#FFFFFF;" version="1.1" viewBox="0 0 428 371" width="428px" zoomAndPan="magnify"><defs/><g><rect fill="#FFFFFF" height="189.8633" style="stroke:#181818;stroke-width:1;" width="10" x="158.6187" y="91.4883"/><rect fill="#FFFFFF" height="139.2422" style="stroke:#181818;stroke-width:1;" width="10" x="163.6187" y="142.1094"/><rect fill="#FFFFFF" height="101.9316" style="stroke:#181818;stroke-width:1;" width="10" x="168.6187" y="179.4199"/><rect fill="#FFFFFF" height="67.6211" style="stroke:#181818;stroke-width:1;" width="10" x="173.6187" y="213.7305"/><rect fill="#FFFFFF" height="67.6211" style="stroke:#181818;stroke-width:1;" width="10" x="330.1982" y="213.7305"/><line style="stroke:#181818;stroke-width:0.5;stroke-dasharray:5.0,5.0;" x1="162.8398" x2="162.8398" y1="81.4883" y2="290.3516"/><line style="stroke:#181818;stroke-width:0.5;stroke-dasharray:5.0,5.0;" x1="334.8711" x2="334.8711" y1="81.4883" y2="290.3516"/><text fill="#000000" font-family="sans-serif" font-size="14" lengthAdjust="spacing" textLength="47.5576" x="136.8398" y="78.5352">:Kunde</text><ellipse cx="163.6187" cy="13.5" fill="#E2E2F0" rx="8" ry="8" style="stroke:#181818;stroke-width:0.5;"/><path d="M163.6187,21.5 L163.6187,48.5 M150.6187,29.5 L176.6187,29.5 M163.6187,48.5 L150.6187,63.5 M163.6187,48.5 L176.6187,63.5 " fill="none" style="stroke:#181818;stroke-width:0.5;"/><text fill="#000000" font-family="sans-serif" font-size="14" lengthAdjust="spacing" textLength="47.5576" x="136.8398" y="302.8867">:Kunde</text><ellipse cx="163.6187" cy="314.3398" fill="#E2E2F0" rx="8" ry="8" style="stroke:#181818;stroke-width:0.5;"/><path d="M163.6187,322.3398 L163.6187,349.3398 M150.6187,330.3398 L176.6187,330.3398 M163.6187,349.3398 L150.6187,364.3398 M163.6187,349.3398 L176.6187,364.3398 " fill="none" style="stroke:#181818;stroke-width:0.5;"/><text fill="#000000" font-family="sans-serif" font-size="14" lengthAdjust="spacing" textLength="78.6543" x="292.8711" y="78.5352">:Mitarbeiter</text><ellipse cx="335.1982" cy="13.5" fill="#E2E2F0" rx="8" ry="8" style="stroke:#181818;stroke-width:0.5;"/><path d="M335.1982,21.5 L335.1982,48.5 M322.1982,29.5 L348.1982,29.5 M335.1982,48.5 L322.1982,63.5 M335.1982,48.5 L348.1982,63.5 " fill="none" style="stroke:#181818;stroke-width:0.5;"/><text fill="#000000" font-family="sans-serif" font-size="14" lengthAdjust="spacing" textLength="78.6543" x="292.8711" y="302.8867">:Mitarbeiter</text><ellipse cx="335.1982" cy="314.3398" fill="#E2E2F0" rx="8" ry="8" style="stroke:#181818;stroke-width:0.5;"/><path d="M335.1982,322.3398 L335.1982,349.3398 M322.1982,330.3398 L348.1982,330.3398 M335.1982,349.3398 L322.1982,364.3398 M335.1982,349.3398 L348.1982,364.3398 " fill="none" style="stroke:#181818;stroke-width:0.5;"/><rect fill="#FFFFFF" height="189.8633" style="stroke:#181818;stroke-width:1;" width="10" x="158.6187" y="91.4883"/><rect fill="#FFFFFF" height="139.2422" style="stroke:#181818;stroke-width:1;" width="10" x="163.6187" y="142.1094"/><rect fill="#FFFFFF" height="101.9316" style="stroke:#181818;stroke-width:1;" width="10" x="168.6187" y="179.4199"/><rect fill="#FFFFFF" height="67.6211" style="stroke:#181818;stroke-width:1;" width="10" x="173.6187" y="213.7305"/><rect fill="#FFFFFF" height="67.6211" style="stroke:#181818;stroke-width:1;" width="10" x="330.1982" y="213.7305"/><polygon fill="#181818" points="323.1982,108.7988,333.1982,112.7988,323.1982,116.7988,327.1982,112.7988" style="stroke:#181818;stroke-width:1;"/><line style="stroke:#181818;stroke-width:1;" x1="168.6187" x2="329.1982" y1="112.7988" y2="112.7988"/><text fill="#000000" font-family="sans-serif" font-size="13" lengthAdjust="spacing" textLength="95.1768" x="175.6187" y="108.0566">synchron rufen</text><line style="stroke:#181818;stroke-width:1;" x1="333.1982" x2="323.1982" y1="142.1094" y2="138.1094"/><line style="stroke:#181818;stroke-width:1;" x1="333.1982" x2="323.1982" y1="142.1094" y2="146.1094"/><line style="stroke:#181818;stroke-width:1;" x1="173.6187" x2="334.1982" y1="142.1094" y2="142.1094"/><text fill="#000000" font-family="sans-serif" font-size="13" lengthAdjust="spacing" textLength="102.356" x="180.6187" y="137.3672">asynchron rufen</text><line style="stroke:#181818;stroke-width:1;" x1="173.6187" x2="220.6187" y1="166.4199" y2="166.4199"/><line style="stroke:#181818;stroke-width:1;" x1="220.6187" x2="220.6187" y1="166.4199" y2="179.4199"/><line style="stroke:#181818;stroke-width:1;" x1="179.6187" x2="220.6187" y1="179.4199" y2="179.4199"/><polygon fill="#181818" points="189.6187,175.4199,179.6187,179.4199,189.6187,183.4199,185.6187,179.4199" style="stroke:#181818;stroke-width:1;"/><text fill="#000000" font-family="sans-serif" font-size="13" lengthAdjust="spacing" textLength="78.7173" x="185.6187" y="161.6777">Buch w&#228;hlen</text><ellipse cx="7.5" cy="212.9805" fill="#000000" rx="4" ry="4" style="stroke:#181818;stroke-width:1.5;"/><polygon fill="#181818" points="146.6187,209.7305,156.6187,213.7305,146.6187,217.7305,150.6187,213.7305" style="stroke:#181818;stroke-width:1;"/><line style="stroke:#181818;stroke-width:1;" x1="12" x2="152.6187" y1="213.7305" y2="213.7305"/><text fill="#000000" font-family="sans-serif" font-size="13" lengthAdjust="spacing" textLength="131.6187" x="15" y="208.9883">Geschenk aussuchen</text><polygon fill="#181818" points="318.1982,239.041,328.1982,243.041,318.1982,247.041,322.1982,243.041" style="stroke:#181818;stroke-width:1;"/><line style="stroke:#181818;stroke-width:1;" x1="183.6187" x2="324.1982" y1="243.041" y2="243.041"/><text fill="#000000" font-family="sans-serif" font-size="13" lengthAdjust="spacing" textLength="122.5796" x="190.6187" y="238.2988">Beratung anfordern</text><ellipse cx="418.1167" cy="271.6016" fill="#000000" rx="4" ry="4" style="stroke:#181818;stroke-width:1.5;"/><polygon fill="#181818" points="401.1167,268.3516,411.1167,272.3516,401.1167,276.3516,405.1167,272.3516" style="stroke:#181818;stroke-width:1;"/><line style="stroke:#181818;stroke-width:1;" x1="340.1982" x2="407.1167" y1="272.3516" y2="272.3516"/><text fill="#000000" font-family="sans-serif" font-size="13" lengthAdjust="spacing" textLength="54.4185" x="347.1982" y="267.6094">ignoriert</text><!--SRC=[TSyz3iCW30NWFQUmikS231coTAXwWgg3Ivo0MXd9GAlSfpVfnKfG6f7-BEWPFfvarC49r6eVkQSQq4DE5Ixt1njGpcG3INujvjdO6mPQlkGJchOq2lp4seXZa3WGhsYZGANghVlNdOE2Bce3z-V3NB_jqRrTwjsHruRu0XYzZtFyvEjOhlPhbzJMaM28F0BouAGduQe4JUjEITcHdLYIKBq0]--></g></svg>