<svg xmlns="http://www.w3.org/2000/svg" xmlns:xlink="http://www.w3.org/1999/xlink" contentStyleType="text/css" height="776px" preserveAspectRatio="none" style="width:639px;height:776px;background:#FFFFFF;" version="1.1" viewBox="0 0 639 776" width="639px" zoomAndPan="magnify"><defs/><g><!--cluster Banking-App--><g id="cluster_Banking-App"><rect fill="none" height="575" rx="2.5" ry="2.5" style="stroke:#181818;stroke-width:1;" width="514.64" x="118.95" y="97.74"/><text fill="#000000" font-family="sans-serif" font-size="14" font-weight="bold" lengthAdjust="spacing" textLength="95.8877" x="328.3262" y="113.2752">Banking-App</text></g><g id="elem_Log In"><ellipse cx="218.8251" cy="498.739" fill="#F1F1F1" rx="41.1451" ry="14.659" style="stroke:#181818;stroke-width:0.5;"/><text fill="#000000" font-family="sans-serif" font-size="14" lengthAdjust="spacing" textLength="41.9453" x="197.8524" y="502.03">Log In</text></g><g id="elem_Check Balance"><ellipse cx="218.8267" cy="149.7353" fill="#F1F1F1" rx="71.4267" ry="16.6853" style="stroke:#181818;stroke-width:0.5;"/><text fill="#000000" font-family="sans-serif" font-size="14" lengthAdjust="spacing" textLength="97.1797" x="169.1903" y="153.3036">Check Balance</text></g><g id="elem_Transfer Funds"><ellipse cx="218.8334" cy="218.7447" fill="#F1F1F1" rx="73.3734" ry="17.0747" style="stroke:#181818;stroke-width:0.5;"/><text fill="#000000" font-family="sans-serif" font-size="14" lengthAdjust="spacing" textLength="102.0742" x="167.6925" y="222.0644">Transfer Funds</text></g><g id="elem_Make Payment"><ellipse cx="218.8323" cy="287.7425" fill="#F1F1F1" rx="71.6623" ry="16.7325" style="stroke:#181818;stroke-width:0.5;"/><text fill="#000000" font-family="sans-serif" font-size="14" lengthAdjust="spacing" textLength="97.7813" x="169.0138" y="291.2806">Make Payment</text></g><g id="elem_Set Up Profile"><ellipse cx="520.6493" cy="621.7379" fill="#F1F1F1" rx="69.0893" ry="16.2179" style="stroke:#181818;stroke-width:0.5;"/><text fill="#000000" font-family="sans-serif" font-size="14" lengthAdjust="spacing" textLength="91.0547" x="472.8196" y="625.6045">Set Up Profile</text></g><g id="elem_Verify Password"><ellipse cx="520.6529" cy="434.7406" fill="#F1F1F1" rx="75.5029" ry="17.5006" style="stroke:#181818;stroke-width:0.5;"/><text fill="#000000" font-family="sans-serif" font-size="14" lengthAdjust="spacing" textLength="107.29" x="467.0079" y="438.0316">Verify Password</text></g><g id="elem_Display Login Error"><ellipse cx="520.6514" cy="506.7423" fill="#F1F1F1" rx="84.8114" ry="19.3623" style="stroke:#181818;stroke-width:0.5;"/><text fill="#000000" font-family="sans-serif" font-size="14" lengthAdjust="spacing" textLength="129.3359" x="455.9834" y="510.0333">Display Login Error</text></g><g id="elem_Verify Sufficient  Funds"><ellipse cx="520.6486" cy="253.7377" fill="#F1F1F1" rx="96.9386" ry="21.7877" style="stroke:#181818;stroke-width:0.5;"/><text fill="#000000" font-family="sans-serif" font-size="14" lengthAdjust="spacing" textLength="156.8232" x="442.237" y="257.0287">Verify Sufficient  Funds</text></g><g id="elem_Pay from Checking"><ellipse cx="218.8332" cy="358.7366" fill="#F1F1F1" rx="83.8832" ry="19.1766" style="stroke:#181818;stroke-width:0.5;"/><text fill="#000000" font-family="sans-serif" font-size="14" lengthAdjust="spacing" textLength="127.1826" x="155.2419" y="362.0277">Pay from Checking</text></g><g id="elem_Pay from Savings"><ellipse cx="218.8255" cy="430.7371" fill="#F1F1F1" rx="78.8355" ry="18.1671" style="stroke:#181818;stroke-width:0.5;"/><text fill="#000000" font-family="sans-serif" font-size="14" lengthAdjust="spacing" textLength="115.3086" x="161.1712" y="434.0281">Pay from Savings</text></g><g id="elem_Go to Profile Help"><ellipse cx="218.8305" cy="566.7441" fill="#F1F1F1" rx="80.7705" ry="18.5541" style="stroke:#181818;stroke-width:0.5;"/><text fill="#000000" font-family="sans-serif" font-size="14" lengthAdjust="spacing" textLength="119.8955" x="158.8828" y="570.0351">Go to Profile Help</text></g><g id="elem_Show Privacy Info"><ellipse cx="218.8347" cy="638.7369" fill="#F1F1F1" rx="79.9347" ry="18.3869" style="stroke:#181818;stroke-width:0.5;"/><text fill="#000000" font-family="sans-serif" font-size="14" lengthAdjust="spacing" textLength="117.9199" x="159.8747" y="642.0279">Show Privacy Info</text></g><!--entity Customer--><g id="elem_Customer"><ellipse cx="38.9731" cy="258" fill="#F1F1F1" rx="8" ry="8" style="stroke:#181818;stroke-width:0.5;"/><path d="M38.9731,266 L38.9731,293 M25.9731,274 L51.9731,274 M38.9731,293 L25.9731,308 M38.9731,293 L51.9731,308 " fill="none" style="stroke:#181818;stroke-width:0.5;"/><text fill="#000000" font-family="sans-serif" font-size="14" lengthAdjust="spacing" textLength="65.9463" x="6" y="323.0352">Customer</text></g><!--entity Bank--><g id="elem_Bank"><ellipse cx="520.6476" cy="14" fill="#F1F1F1" rx="8" ry="8" style="stroke:#181818;stroke-width:0.5;"/><path d="M520.6476,22 L520.6476,49 M507.6476,30 L533.6476,30 M520.6476,49 L507.6476,64 M520.6476,49 L533.6476,64 " fill="none" style="stroke:#181818;stroke-width:0.5;"/><text fill="#000000" font-family="sans-serif" font-size="14" lengthAdjust="spacing" textLength="32.6553" x="504.32" y="79.0352">Bank</text></g><!--link Customer to Log In--><g id="link_Customer_Log In"><path d="M45.23,326.13 C52.78,366.65 70.54,429.69 110.95,466.74 C129.29,483.57 156.15,491.56 178.35,495.36 " fill="none" id="Customer-Log In" style="stroke:#181818;stroke-width:1;"/></g><!--link Customer to Check Balance--><g id="link_Customer_Check Balance"><path d="M58.2,249.04 C70.34,227.06 88.24,200.65 110.95,183.74 C125.78,172.7 144.33,165.17 161.79,160.07 " fill="none" id="Customer-Check Balance" style="stroke:#181818;stroke-width:1;"/></g><!--link Customer to Transfer Funds--><g id="link_Customer_Transfer Funds"><path d="M72.44,271.1 C84.39,265.26 98.14,258.88 110.95,253.74 C130.7,245.82 153.01,238.3 172.11,232.27 " fill="none" id="Customer-Transfer Funds" style="stroke:#181818;stroke-width:1;"/></g><!--link Customer to Make Payment--><g id="link_Customer_Make Payment"><path d="M72.18,287.74 C93,287.74 120.94,287.74 146.79,287.74 " fill="none" id="Customer-Make Payment" style="stroke:#181818;stroke-width:1;"/></g><!--link Log In to Verify Password--><g id="link_Log In_Verify Password"><path d="M254.81,491.28 C306.17,480.31 396.6521,461.0023 457.8921,447.9323 " fill="none" id="Log In-to-Verify Password" style="stroke:#181818;stroke-width:1;stroke-dasharray:7.0,7.0;"/><polygon fill="#181818" points="463.76,446.68,454.1233,444.6466,458.8701,447.7236,455.7931,452.4704,463.76,446.68" style="stroke:#181818;stroke-width:1;"/><text fill="#000000" font-family="sans-serif" font-size="13" lengthAdjust="spacing" textLength="59.3569" x="333.71" y="459.4784">&#171;include&#187;</text></g><!--reverse link Log In to Display Login Error--><g id="link_Log In_Display Login Error"><path d="M266.2579,499.9805 C311.0979,501.1805 378.66,502.98 436.02,504.51 " fill="none" id="Log In-backto-Display Login Error" style="stroke:#181818;stroke-width:1;stroke-dasharray:7.0,7.0;"/><polygon fill="#181818" points="260.26,499.82,269.1498,504.0593,265.2582,499.9538,269.3638,496.0622,260.26,499.82" style="stroke:#181818;stroke-width:1;"/><text fill="#000000" font-family="sans-serif" font-size="13" lengthAdjust="spacing" textLength="59.3569" x="333.71" y="498.3584">&#171;include&#187;</text></g><!--link Transfer Funds to Verify Sufficient  Funds--><g id="link_Transfer Funds_Verify Sufficient  Funds"><path d="M285.26,226.38 C328.85,231.47 380.6305,237.5141 427.9005,243.0341 " fill="none" id="Transfer Funds-to-Verify Sufficient  Funds" style="stroke:#181818;stroke-width:1;stroke-dasharray:7.0,7.0;"/><polygon fill="#181818" points="433.86,243.73,425.3847,238.7131,428.8937,243.1501,424.4568,246.6591,433.86,243.73" style="stroke:#181818;stroke-width:1;"/><text fill="#000000" font-family="sans-serif" font-size="13" lengthAdjust="spacing" textLength="59.3569" x="333.71" y="228.6484">&#171;include&#187;</text></g><!--link Make Payment to Verify Sufficient  Funds--><g id="link_Make Payment_Verify Sufficient  Funds"><path d="M290.71,288.25 C322.34,287.71 360,286.04 393.71,281.74 C414.15,279.14 430.3191,276.1191 450.1291,271.6191 " fill="none" id="Make Payment-to-Verify Sufficient  Funds" style="stroke:#181818;stroke-width:1;stroke-dasharray:7.0,7.0;"/><polygon fill="#181818" points="455.98,270.29,446.3175,268.383,451.1042,271.3976,448.0896,276.1843,455.98,270.29" style="stroke:#181818;stroke-width:1;"/><text fill="#000000" font-family="sans-serif" font-size="13" lengthAdjust="spacing" textLength="59.3569" x="333.71" y="278.3084">&#171;include&#187;</text></g><!--link Pay from Checking to Make Payment--><g id="link_Pay from Checking_Make Payment"><path d="M218.83,339.33 C218.83,327.78 218.83,334.22 218.83,322.67 " fill="none" id="Pay from Checking-to-Make Payment" style="stroke:#181818;stroke-width:1;"/><polygon fill="none" points="218.83,304.67,212.83,322.67,224.83,322.67,218.83,304.67" style="stroke:#181818;stroke-width:1;"/></g><!--link Pay from Savings to Make Payment--><g id="link_Pay from Savings_Make Payment"><path d="M163.17,417.53 C145.79,412.16 126.99,404.98 110.95,395.74 C100.86,389.93 96.19,388.88 91.45,378.24 C84.38,362.42 84.38,355.07 91.45,339.24 C102.38,314.74 110.9073,306.4186 136.5273,299.6486 " fill="none" id="Pay from Savings-to-Make Payment" style="stroke:#181818;stroke-width:1;"/><polygon fill="none" points="153.93,295.05,134.9945,293.8477,138.0602,305.4495,153.93,295.05" style="stroke:#181818;stroke-width:1;"/></g><!--link Customer to Set Up Profile--><g id="link_Customer_Set Up Profile"><path d="M41.04,326.24 C44.4,415.16 57.94,630.58 110.95,674.74 C224.87,769.67 422.2,676.16 493.23,637.11 " fill="none" id="Customer-Set Up Profile" style="stroke:#181818;stroke-width:1;"/></g><!--reverse link Go to Profile Help to Set Up Profile--><g id="link_Go to Profile Help_Set Up Profile"><path d="M288.9514,579.4231 C342.8914,589.3231 413.76,602.32 465.07,611.73 " fill="none" id="Go to Profile Help-backto-Set Up Profile" style="stroke:#181818;stroke-width:1;stroke-dasharray:7.0,7.0;"/><polygon fill="#181818" points="283.05,578.34,291.1801,583.899,287.9679,579.2426,292.6242,576.0304,283.05,578.34" style="stroke:#181818;stroke-width:1;"/><text fill="#000000" font-family="sans-serif" font-size="13" lengthAdjust="spacing" textLength="57.1924" x="334.71" y="584.2684">&#171;extend&#187;</text></g><!--reverse link Show Privacy Info to Set Up Profile--><g id="link_Show Privacy Info_Set Up Profile"><path d="M303.0303,634.0298 C351.2703,631.2898 406.76,628.15 452.88,625.53 " fill="none" id="Show Privacy Info-backto-Set Up Profile" style="stroke:#181818;stroke-width:1;stroke-dasharray:7.0,7.0;"/><polygon fill="#181818" points="297.04,634.37,306.2523,637.8532,302.032,634.0865,305.7987,629.8661,297.04,634.37" style="stroke:#181818;stroke-width:1;"/><text fill="#000000" font-family="sans-serif" font-size="13" lengthAdjust="spacing" textLength="57.1924" x="334.71" y="625.7984">&#171;extend&#187;</text></g><!--link Check Balance to Bank--><g id="link_Check Balance_Bank"><path d="M237.38,133.16 C258.31,114.42 295.2,84.61 332.71,69.74 C392.72,45.96 471.07,43.38 504,43.46 " fill="none" id="Check Balance-Bank" style="stroke:#181818;stroke-width:1;"/></g><!--link Transfer Funds to Bank--><g id="link_Transfer Funds_Bank"><path d="M264.42,205.03 C277.57,199.69 291.44,192.66 302.71,183.74 C320.42,169.74 315.63,157.52 332.71,142.74 C387.85,95.06 469.87,61.8 503.94,49.27 " fill="none" id="Transfer Funds-Bank" style="stroke:#181818;stroke-width:1;"/></g><!--link Make Payment to Bank--><g id="link_Make Payment_Bank"><path d="M265.63,274.72 C278.54,269.59 291.97,262.72 302.71,253.74 C321.73,237.86 317.11,226 332.71,206.74 C356.65,177.2 366.71,173.52 393.71,146.74 C407.1,133.47 409.51,129.15 423.71,116.74 C450.67,93.2 484.42,68.54 503.86,54.76 " fill="none" id="Make Payment-Bank" style="stroke:#181818;stroke-width:1;"/></g><!--SRC=[bLBDJeGm4BxtAUO81tW0GqXq_KqqsGJrtfGfD9IMj6LNehwxPPTTby91Z_r-fZFVZ4Jkm6amegeTbC8WSq8hGfdJ1c3JMwTRD6J4gQeamWrLZL1LSjrry4b-9P0a43th2fvK7CAR6bdZdP8gXWlsrL1bkN_Szwgq2_g5DWXREhIeN4myU_7Bil9AjQ221mfqyDR1rcWk9CwAGfhc4BsZ4Npm7cltsfGnN46M2SLaNsAUNygpD8NeLjXEqW4yA1JS6QFDYYNeRFPJqNCkcF0DmebU-6TZ_CyzshqJkD4j73BpAumX-SfNqZaB2xhpChkg2xUq5kc37azhWk0HPJVb5OWFpUA7GrKU9orglVUis54s-9Iv_ellcqnNErue2IvZxF68Xriu4_DuJp3v0G00]--></g></svg>