<?xml version="1.0" encoding="UTF-8" standalone="no"?><svg xmlns="http://www.w3.org/2000/svg" xmlns:xlink="http://www.w3.org/1999/xlink" contentStyleType="text/css" height="566px" preserveAspectRatio="none" style="width:333px;height:566px;background:#FFFFFF;" version="1.1" viewBox="0 0 333 566" width="333px" zoomAndPan="magnify"><defs/><g><rect fill="#F1F1F1" height="35.0938" rx="12.5" ry="12.5" style="stroke:#181818;stroke-width:0.5;" width="122" x="48" y="11"/><text fill="#000000" font-family="sans-serif" font-size="12" lengthAdjust="spacing" textLength="99" x="61" y="33.457">Storungsmeldung</text><polygon fill="#F1F1F1" points="97,66.0938,121,66.0938,133,78.0938,121,90.0938,97,90.0938,85,78.0938,97,66.0938" style="stroke:#181818;stroke-width:0.5;"/><text fill="#000000" font-family="sans-serif" font-size="11" lengthAdjust="spacing" textLength="18" x="100" y="82.5947">leer</text><text fill="#000000" font-family="sans-serif" font-size="11" lengthAdjust="spacing" textLength="11" x="74" y="75.6768">Ja</text><text fill="#000000" font-family="sans-serif" font-size="11" lengthAdjust="spacing" textLength="21" x="133" y="75.6768">Nein</text><rect fill="#F1F1F1" height="35.0938" rx="12.5" ry="12.5" style="stroke:#181818;stroke-width:0.5;" width="44" x="11" y="100.0938"/><text fill="#000000" font-family="sans-serif" font-size="12" lengthAdjust="spacing" textLength="21" x="24" y="122.5508">leer</text><rect fill="#F1F1F1" height="35.0938" rx="12.5" ry="12.5" style="stroke:#181818;stroke-width:0.5;" width="44" x="163" y="100.0938"/><text fill="#000000" font-family="sans-serif" font-size="12" lengthAdjust="spacing" textLength="21" x="176" y="122.5508">leer</text><rect fill="#F1F1F1" height="35.0938" rx="12.5" ry="12.5" style="stroke:#181818;stroke-width:0.5;" width="220" x="75" y="155.1875"/><text fill="#000000" font-family="sans-serif" font-size="12" lengthAdjust="spacing" textLength="197" x="88" y="177.6445">Problemmanagment Wissensdaten</text><polygon fill="#F1F1F1" points="173,230.2813,197,230.2813,209,242.2813,197,254.2813,173,254.2813,161,242.2813,173,230.2813" style="stroke:#181818;stroke-width:0.5;"/><text fill="#000000" font-family="sans-serif" font-size="11" lengthAdjust="spacing" textLength="11" x="189" y="265.7002">Ja</text><text fill="#000000" font-family="sans-serif" font-size="11" lengthAdjust="spacing" textLength="18" x="176" y="246.7822">leer</text><text fill="#000000" font-family="sans-serif" font-size="11" lengthAdjust="spacing" textLength="21" x="209" y="239.8643">Nein</text><rect fill="#F1F1F1" height="35.0938" rx="12.5" ry="12.5" style="stroke:#181818;stroke-width:0.5;" width="44" x="163" y="287.2002"/><text fill="#000000" font-family="sans-serif" font-size="12" lengthAdjust="spacing" textLength="21" x="176" y="309.6572">leer</text><polygon fill="#F1F1F1" points="109,328.2939,121,340.2939,109,352.2939,97,340.2939,109,328.2939" style="stroke:#181818;stroke-width:0.5;"/><rect fill="#F1F1F1" height="35.0938" rx="12.5" ry="12.5" style="stroke:#181818;stroke-width:0.5;" width="44" x="87" y="421.2119"/><text fill="#000000" font-family="sans-serif" font-size="12" lengthAdjust="spacing" textLength="21" x="100" y="443.6689">leer</text><polygon fill="#F1F1F1" points="97,372.2939,121,372.2939,133,384.2939,121,396.2939,97,396.2939,85,384.2939,97,372.2939" style="stroke:#181818;stroke-width:0.5;"/><text fill="#000000" font-family="sans-serif" font-size="11" lengthAdjust="spacing" textLength="11" x="113" y="407.7129">Ja</text><text fill="#000000" font-family="sans-serif" font-size="11" lengthAdjust="spacing" textLength="18" x="100" y="388.7949">leer</text><text fill="#000000" font-family="sans-serif" font-size="11" lengthAdjust="spacing" textLength="21" x="133" y="381.877">Nein</text><polygon fill="#F1F1F1" points="109,476.3057,121,488.3057,109,500.3057,97,488.3057,109,476.3057" style="stroke:#181818;stroke-width:0.5;"/><rect fill="#F1F1F1" height="35.0938" rx="12.5" ry="12.5" style="stroke:#181818;stroke-width:0.5;" width="118" x="50" y="520.3057"/><text fill="#000000" font-family="sans-serif" font-size="12" lengthAdjust="spacing" textLength="95" x="63" y="542.7627">Störung beheben</text><line style="stroke:#181818;stroke-width:1.0;" x1="185" x2="185" y1="190.2813" y2="230.2813"/><polygon fill="#181818" points="181,220.2813,185,230.2813,189,220.2813,185,224.2813" style="stroke:#181818;stroke-width:1.0;"/><line style="stroke:#181818;stroke-width:1.0;" x1="209" x2="307" y1="242.2813" y2="242.2813"/><polygon fill="#181818" points="303,210.2813,307,200.2813,311,210.2813,307,206.2813" style="stroke:#181818;stroke-width:1.0;"/><line style="stroke:#181818;stroke-width:1.0;" x1="307" x2="307" y1="172.7344" y2="242.2813"/><line style="stroke:#181818;stroke-width:1.0;" x1="307" x2="295" y1="172.7344" y2="172.7344"/><polygon fill="#181818" points="305,168.7344,295,172.7344,305,176.7344,301,172.7344" style="stroke:#181818;stroke-width:1.0;"/><line style="stroke:#181818;stroke-width:1.0;" x1="185" x2="185" y1="135.1875" y2="155.1875"/><polygon fill="#181818" points="181,145.1875,185,155.1875,189,145.1875,185,149.1875" style="stroke:#181818;stroke-width:1.0;"/><line style="stroke:#181818;stroke-width:1.0;" x1="185" x2="185" y1="254.2813" y2="287.2002"/><polygon fill="#181818" points="181,277.2002,185,287.2002,189,277.2002,185,281.2002" style="stroke:#181818;stroke-width:1.0;"/><line style="stroke:#181818;stroke-width:1.0;" x1="85" x2="33" y1="78.0938" y2="78.0938"/><line style="stroke:#181818;stroke-width:1.0;" x1="33" x2="33" y1="78.0938" y2="100.0938"/><polygon fill="#181818" points="29,90.0938,33,100.0938,37,90.0938,33,94.0938" style="stroke:#181818;stroke-width:1.0;"/><line style="stroke:#181818;stroke-width:1.0;" x1="133" x2="185" y1="78.0938" y2="78.0938"/><line style="stroke:#181818;stroke-width:1.0;" x1="185" x2="185" y1="78.0938" y2="100.0938"/><polygon fill="#181818" points="181,90.0938,185,100.0938,189,90.0938,185,94.0938" style="stroke:#181818;stroke-width:1.0;"/><line style="stroke:#181818;stroke-width:1.0;" x1="33" x2="33" y1="135.1875" y2="340.2939"/><line style="stroke:#181818;stroke-width:1.0;" x1="33" x2="97" y1="340.2939" y2="340.2939"/><polygon fill="#181818" points="87,336.2939,97,340.2939,87,344.2939,91,340.2939" style="stroke:#181818;stroke-width:1.0;"/><line style="stroke:#181818;stroke-width:1.0;" x1="185" x2="185" y1="322.2939" y2="340.2939"/><line style="stroke:#181818;stroke-width:1.0;" x1="185" x2="121" y1="340.2939" y2="340.2939"/><polygon fill="#181818" points="131,336.2939,121,340.2939,131,344.2939,127,340.2939" style="stroke:#181818;stroke-width:1.0;"/><line style="stroke:#181818;stroke-width:1.0;" x1="109" x2="109" y1="46.0938" y2="66.0938"/><polygon fill="#181818" points="105,56.0938,109,66.0938,113,56.0938,109,60.0938" style="stroke:#181818;stroke-width:1.0;"/><line style="stroke:#181818;stroke-width:1.0;" x1="109" x2="109" y1="396.2939" y2="421.2119"/><polygon fill="#181818" points="105,411.2119,109,421.2119,113,411.2119,109,415.2119" style="stroke:#181818;stroke-width:1.0;"/><line style="stroke:#181818;stroke-width:1.0;" x1="133" x2="145" y1="384.2939" y2="384.2939"/><polygon fill="#181818" points="141,428.7588,145,438.7588,149,428.7588,145,432.7588" style="stroke:#181818;stroke-width:1.0;"/><line style="stroke:#181818;stroke-width:1.0;" x1="145" x2="145" y1="384.2939" y2="488.3057"/><line style="stroke:#181818;stroke-width:1.0;" x1="145" x2="121" y1="488.3057" y2="488.3057"/><polygon fill="#181818" points="131,484.3057,121,488.3057,131,492.3057,127,488.3057" style="stroke:#181818;stroke-width:1.0;"/><line style="stroke:#181818;stroke-width:1.0;" x1="109" x2="109" y1="456.3057" y2="476.3057"/><polygon fill="#181818" points="105,466.3057,109,476.3057,113,466.3057,109,470.3057" style="stroke:#181818;stroke-width:1.0;"/><line style="stroke:#181818;stroke-width:1.0;" x1="109" x2="109" y1="352.2939" y2="372.2939"/><polygon fill="#181818" points="105,362.2939,109,372.2939,113,362.2939,109,366.2939" style="stroke:#181818;stroke-width:1.0;"/><line style="stroke:#181818;stroke-width:1.0;" x1="109" x2="109" y1="500.3057" y2="520.3057"/><polygon fill="#181818" points="105,510.3057,109,520.3057,113,510.3057,109,514.3057" style="stroke:#181818;stroke-width:1.0;"/><!--MD5=[3bf8fa3ec4a5982272dfb257f0d5000a]
@startuml name "Zusammenhänge zwischen Störung, Problem und Fehler beim Service Support"
: Storungsmeldung;
if (leer) then (Ja)
: leer;
else (Nein)
: leer;
repeat : Problemmanagment Wissensdaten;
repeat while(leer) is (Nein) not (Ja)
: leer;
endif
if (leer) then (Ja)
: leer;
else (Nein)
endif
: Störung beheben;
@enduml

PlantUML version 1.2022.7(Mon Aug 22 19:01:30 CEST 2022)
(GPL source distribution)
Java Runtime: OpenJDK Runtime Environment
JVM: OpenJDK 64-Bit Server VM
Default Encoding: UTF-8
Language: de
Country: DE
--></g></svg>