<?xml version="1.0" encoding="us-ascii" standalone="no"?><svg xmlns="http://www.w3.org/2000/svg" xmlns:xlink="http://www.w3.org/1999/xlink" contentStyleType="text/css" height="359px" preserveAspectRatio="none" style="width:738px;height:359px;background:#FFFFFF;" version="1.1" viewBox="0 0 738 359" width="738px" zoomAndPan="magnify"><defs/><g><!--cluster Such-Komponente--><g id="cluster_Such-Komponente"><rect fill="none" height="97.48" rx="2.5" ry="2.5" style="stroke:#181818;stroke-width:1.0;" width="285" x="7" y="7"/><path d="M150,7 L150,16.4883 L140,26.4883 L7,26.4883 " fill="none" style="stroke:#181818;stroke-width:1.0;"/><text fill="#000000" font-family="sans-serif" font-size="14" font-weight="bold" lengthAdjust="spacing" textLength="133" x="10" y="21.5352">Such-Komponente</text></g><!--cluster central Service--><g id="cluster_central Service"><polygon fill="none" points="214,138.48,224,128.48,394,128.48,394,220.97,384,230.97,214,230.97,214,138.48" style="stroke:#181818;stroke-width:1.0;"/><line style="stroke:#181818;stroke-width:1.0;" x1="384" x2="394" y1="138.48" y2="128.48"/><line style="stroke:#181818;stroke-width:1.0;" x1="214" x2="384" y1="138.48" y2="138.48"/><line style="stroke:#181818;stroke-width:1.0;" x1="384" x2="384" y1="138.48" y2="230.97"/><text fill="#000000" font-family="sans-serif" font-size="14" font-weight="bold" lengthAdjust="spacing" textLength="104" x="248" y="155.0152">central Service</text></g><!--cluster Server Standort2--><g id="cluster_Server Standort2"><path d="M115.5,254.97 L235.5,254.97 A3.75,3.75 0 0 1 238,257.47 L245,277.4583 L407.5,277.4583 A2.5,2.5 0 0 1 410,279.9583 L410,349.96 A2.5,2.5 0 0 1 407.5,352.46 L115.5,352.46 A2.5,2.5 0 0 1 113,349.96 L113,257.47 A2.5,2.5 0 0 1 115.5,254.97 " fill="none" style="stroke:#000000;stroke-width:1.5;"/><line style="stroke:#000000;stroke-width:1.5;" x1="113" x2="245" y1="277.4583" y2="277.4583"/><text fill="#000000" font-family="sans-serif" font-size="14" font-weight="bold" lengthAdjust="spacing" textLength="119" x="117" y="270.5052">Server Standort2</text></g><!--cluster Server Standort1--><g id="cluster_Server Standort1"><path d="M436.5,254.97 L556.5,254.97 A3.75,3.75 0 0 1 559,257.47 L566,277.4583 L728.5,277.4583 A2.5,2.5 0 0 1 731,279.9583 L731,349.96 A2.5,2.5 0 0 1 728.5,352.46 L436.5,352.46 A2.5,2.5 0 0 1 434,349.96 L434,257.47 A2.5,2.5 0 0 1 436.5,254.97 " fill="none" style="stroke:#000000;stroke-width:1.5;"/><line style="stroke:#000000;stroke-width:1.5;" x1="434" x2="566" y1="277.4583" y2="277.4583"/><text fill="#000000" font-family="sans-serif" font-size="14" font-weight="bold" lengthAdjust="spacing" textLength="119" x="438" y="270.5052">Server Standort1</text></g><!--cluster Server Standort3--><g id="cluster_Server Standort3"><path d="M318.5,7 L438.5,7 A3.75,3.75 0 0 1 441,9.5 L448,29.4883 L610.5,29.4883 A2.5,2.5 0 0 1 613,31.9883 L613,101.98 A2.5,2.5 0 0 1 610.5,104.48 L318.5,104.48 A2.5,2.5 0 0 1 316,101.98 L316,9.5 A2.5,2.5 0 0 1 318.5,7 " fill="none" style="stroke:#000000;stroke-width:1.5;"/><line style="stroke:#000000;stroke-width:1.5;" x1="316" x2="448" y1="29.4883" y2="29.4883"/><text fill="#000000" font-family="sans-serif" font-size="14" font-weight="bold" lengthAdjust="spacing" textLength="119" x="320" y="22.5352">Server Standort3</text></g><!--entity Client--><g id="elem_Client"><rect fill="#F1F1F1" height="46.4883" rx="2.5" ry="2.5" style="stroke:#181818;stroke-width:0.5;" width="80" x="23" y="42"/><rect fill="#F1F1F1" height="10" style="stroke:#181818;stroke-width:0.5;" width="15" x="83" y="47"/><rect fill="#F1F1F1" height="2" style="stroke:#181818;stroke-width:0.5;" width="4" x="81" y="49"/><rect fill="#F1F1F1" height="2" style="stroke:#181818;stroke-width:0.5;" width="4" x="81" y="53"/><text fill="#000000" font-family="sans-serif" font-size="14" lengthAdjust="spacing" textLength="40" x="38" y="75.5352">Client</text></g><!--entity SamplyProxy1--><g id="elem_SamplyProxy1"><rect fill="#F1F1F1" height="46.4883" rx="2.5" ry="2.5" style="stroke:#181818;stroke-width:0.5;" width="137" x="138.5" y="42"/><rect fill="#F1F1F1" height="10" style="stroke:#181818;stroke-width:0.5;" width="15" x="255.5" y="47"/><rect fill="#F1F1F1" height="2" style="stroke:#181818;stroke-width:0.5;" width="4" x="253.5" y="49"/><rect fill="#F1F1F1" height="2" style="stroke:#181818;stroke-width:0.5;" width="4" x="253.5" y="53"/><text fill="#000000" font-family="sans-serif" font-size="14" lengthAdjust="spacing" textLength="97" x="153.5" y="75.5352">SamplyProxy1</text></g><!--entity Broker--><g id="elem_Broker"><rect fill="#F1F1F1" height="46.4883" rx="2.5" ry="2.5" style="stroke:#181818;stroke-width:0.5;" width="85" x="261.5" y="168.48"/><rect fill="#F1F1F1" height="10" style="stroke:#181818;stroke-width:0.5;" width="15" x="326.5" y="173.48"/><rect fill="#F1F1F1" height="2" style="stroke:#181818;stroke-width:0.5;" width="4" x="324.5" y="175.48"/><rect fill="#F1F1F1" height="2" style="stroke:#181818;stroke-width:0.5;" width="4" x="324.5" y="179.48"/><text fill="#000000" font-family="sans-serif" font-size="14" lengthAdjust="spacing" textLength="45" x="276.5" y="202.0152">Broker</text></g><!--entity SamplyProxy2--><g id="elem_SamplyProxy2"><rect fill="#F1F1F1" height="46.4883" rx="2.5" ry="2.5" style="stroke:#181818;stroke-width:0.5;" width="137" x="129.5" y="289.97"/><rect fill="#F1F1F1" height="10" style="stroke:#181818;stroke-width:0.5;" width="15" x="246.5" y="294.97"/><rect fill="#F1F1F1" height="2" style="stroke:#181818;stroke-width:0.5;" width="4" x="244.5" y="296.97"/><rect fill="#F1F1F1" height="2" style="stroke:#181818;stroke-width:0.5;" width="4" x="244.5" y="300.97"/><text fill="#000000" font-family="sans-serif" font-size="14" lengthAdjust="spacing" textLength="97" x="144.5" y="323.5052">SamplyProxy2</text></g><!--entity Server1--><g id="elem_Server1"><rect fill="#F1F1F1" height="46.4883" rx="2.5" ry="2.5" style="stroke:#181818;stroke-width:0.5;" width="92" x="302" y="289.97"/><rect fill="#F1F1F1" height="10" style="stroke:#181818;stroke-width:0.5;" width="15" x="374" y="294.97"/><rect fill="#F1F1F1" height="2" style="stroke:#181818;stroke-width:0.5;" width="4" x="372" y="296.97"/><rect fill="#F1F1F1" height="2" style="stroke:#181818;stroke-width:0.5;" width="4" x="372" y="300.97"/><text fill="#000000" font-family="sans-serif" font-size="14" lengthAdjust="spacing" textLength="52" x="317" y="323.5052">Server1</text></g><!--entity SamplyProxy4--><g id="elem_SamplyProxy4"><rect fill="#F1F1F1" height="46.4883" rx="2.5" ry="2.5" style="stroke:#181818;stroke-width:0.5;" width="137" x="450.5" y="289.97"/><rect fill="#F1F1F1" height="10" style="stroke:#181818;stroke-width:0.5;" width="15" x="567.5" y="294.97"/><rect fill="#F1F1F1" height="2" style="stroke:#181818;stroke-width:0.5;" width="4" x="565.5" y="296.97"/><rect fill="#F1F1F1" height="2" style="stroke:#181818;stroke-width:0.5;" width="4" x="565.5" y="300.97"/><text fill="#000000" font-family="sans-serif" font-size="14" lengthAdjust="spacing" textLength="97" x="465.5" y="323.5052">SamplyProxy4</text></g><!--entity Server2--><g id="elem_Server2"><rect fill="#F1F1F1" height="46.4883" rx="2.5" ry="2.5" style="stroke:#181818;stroke-width:0.5;" width="92" x="623" y="289.97"/><rect fill="#F1F1F1" height="10" style="stroke:#181818;stroke-width:0.5;" width="15" x="695" y="294.97"/><rect fill="#F1F1F1" height="2" style="stroke:#181818;stroke-width:0.5;" width="4" x="693" y="296.97"/><rect fill="#F1F1F1" height="2" style="stroke:#181818;stroke-width:0.5;" width="4" x="693" y="300.97"/><text fill="#000000" font-family="sans-serif" font-size="14" lengthAdjust="spacing" textLength="52" x="638" y="323.5052">Server2</text></g><!--entity SamplyProxy3--><g id="elem_SamplyProxy3"><rect fill="#F1F1F1" height="46.4883" rx="2.5" ry="2.5" style="stroke:#181818;stroke-width:0.5;" width="137" x="332.5" y="42"/><rect fill="#F1F1F1" height="10" style="stroke:#181818;stroke-width:0.5;" width="15" x="449.5" y="47"/><rect fill="#F1F1F1" height="2" style="stroke:#181818;stroke-width:0.5;" width="4" x="447.5" y="49"/><rect fill="#F1F1F1" height="2" style="stroke:#181818;stroke-width:0.5;" width="4" x="447.5" y="53"/><text fill="#000000" font-family="sans-serif" font-size="14" lengthAdjust="spacing" textLength="97" x="347.5" y="75.5352">SamplyProxy3</text></g><!--entity Server3--><g id="elem_Server3"><rect fill="#F1F1F1" height="46.4883" rx="2.5" ry="2.5" style="stroke:#181818;stroke-width:0.5;" width="92" x="505" y="42"/><rect fill="#F1F1F1" height="10" style="stroke:#181818;stroke-width:0.5;" width="15" x="577" y="47"/><rect fill="#F1F1F1" height="2" style="stroke:#181818;stroke-width:0.5;" width="4" x="575" y="49"/><rect fill="#F1F1F1" height="2" style="stroke:#181818;stroke-width:0.5;" width="4" x="575" y="53"/><text fill="#000000" font-family="sans-serif" font-size="14" lengthAdjust="spacing" textLength="52" x="520" y="75.5352">Server3</text></g><!--link Client to SamplyProxy1--><g id="link_Client_SamplyProxy1"><path d="M103.22,65.24 C114.84,65.24 126.46,65.24 138.08,65.24 " fill="none" id="Client-SamplyProxy1" style="stroke:#181818;stroke-width:1.0;"/></g><!--link SamplyProxy1 to Broker--><g id="link_SamplyProxy1_Broker"><path d="M224.57,88.78 C242.15,111.34 269.03,145.85 286.56,168.35 " fill="none" id="SamplyProxy1-Broker" style="stroke:#181818;stroke-width:1.0;"/></g><!--link SamplyProxy3 to Broker--><g id="link_SamplyProxy3_Broker"><path d="M383.43,88.78 C365.85,111.34 338.97,145.85 321.44,168.35 " fill="none" id="SamplyProxy3-Broker" style="stroke:#181818;stroke-width:1.0;"/></g><!--link Broker to SamplyProxy2--><g id="link_Broker_SamplyProxy2"><path d="M284.06,215.2 C265.11,236.56 236.77,268.51 217.85,289.84 " fill="none" id="Broker-SamplyProxy2" style="stroke:#181818;stroke-width:1.0;"/></g><!--link Broker to SamplyProxy4--><g id="link_Broker_SamplyProxy4"><path d="M346.89,213.86 C366.32,223.64 389.48,235.6 410,246.97 C434.5,260.55 461.51,276.72 482.52,289.56 " fill="none" id="Broker-SamplyProxy4" style="stroke:#181818;stroke-width:1.0;"/></g><!--link SamplyProxy2 to Server1--><g id="link_SamplyProxy2_Server1"><path d="M266.85,313.22 C278.47,313.22 290.09,313.22 301.72,313.22 " fill="none" id="SamplyProxy2-Server1" style="stroke:#181818;stroke-width:1.0;"/></g><!--link SamplyProxy4 to Server2--><g id="link_SamplyProxy4_Server2"><path d="M587.85,313.22 C599.47,313.22 611.09,313.22 622.72,313.22 " fill="none" id="SamplyProxy4-Server2" style="stroke:#181818;stroke-width:1.0;"/></g><!--link SamplyProxy3 to Server3--><g id="link_SamplyProxy3_Server3"><path d="M469.85,65.24 C481.47,65.24 493.09,65.24 504.72,65.24 " fill="none" id="SamplyProxy3-Server3" style="stroke:#181818;stroke-width:1.0;"/></g><!--SRC=[VP2n3e8m48RtFaN3mjI1mXFew6BInCKmr78Y0Lfo0ICnlhkLWbW5E_LwVx__xZ-Zh846ebCNjZDrOpJe5e8xeVOSjrLXozGLGjPDrU_HtFee9Gz2jCdiLsKLA2ig0A-5We2EVpTeIi11I1gfIfc_VAm8a8fMwinWoz_g3pYV_0Qjire3H4k0n0Fmlu1u2H1xWDZj48Rq07WgTDRf73IPmg7iEng_f8pDOVWkVcky38z-76kjn0ToDyiKcw-SM_ntZ7dL9m00]--></g></svg>