<?xml version="1.0" encoding="us-ascii" standalone="no"?><svg xmlns="http://www.w3.org/2000/svg" xmlns:xlink="http://www.w3.org/1999/xlink" contentStyleType="text/css" height="501px" preserveAspectRatio="none" style="width:278px;height:501px;background:#FFFFFF;" version="1.1" viewBox="0 0 278 501" width="278px" zoomAndPan="magnify"><defs/><g><!--class EntryRelatedData--><g id="elem_EntryRelatedData"><rect codeLine="2" fill="#F1F1F1" height="106.0859" id="EntryRelatedData" rx="2.5" ry="2.5" style="stroke:#181818;stroke-width:0.5;" width="253" x="12.5" y="7"/><ellipse cx="76.25" cy="27.3105" fill="#FF7700" rx="11" ry="11" style="stroke:#181818;stroke-width:1.0;"/><path d="M75.9834,28.3735 Q74.1323,27.668 73.4766,26.8918 Q72.8208,26.1157 72.8208,24.8042 Q72.8208,23.1191 73.8999,22.1563 Q74.979,21.1934 76.8633,21.1934 Q77.7183,21.1934 78.5732,21.3884 Q79.4282,21.5835 80.2666,21.9653 L80.2666,24.356 Q79.478,23.7998 78.6646,23.5093 Q77.8511,23.2188 77.0542,23.2188 Q76.166,23.2188 75.6929,23.5757 Q75.2197,23.9326 75.2197,24.5967 Q75.2197,25.1113 75.5642,25.4475 Q75.9087,25.7837 77.0044,26.1904 L78.0586,26.5889 Q79.5527,27.1367 80.2583,28.0415 Q80.9639,28.9463 80.9639,30.3242 Q80.9639,32.2002 79.8557,33.1257 Q78.7476,34.0513 76.5063,34.0513 Q75.585,34.0513 74.6594,33.8313 Q73.7339,33.6113 72.8706,33.1797 L72.8706,30.6479 Q73.8501,31.3452 74.7673,31.6855 Q75.6846,32.0259 76.5811,32.0259 Q77.4858,32.0259 77.9839,31.615 Q78.4819,31.2041 78.4819,30.4653 Q78.4819,29.9092 78.1499,29.49 Q77.8179,29.0708 77.187,28.8301 Z " fill="#000000"/><text fill="#000000" font-family="sans-serif" font-size="12" font-style="italic" lengthAdjust="spacing" textLength="44" x="133.25" y="23.6016">&#171;Struct&#187;</text><text fill="#000000" font-family="sans-serif" font-size="14" lengthAdjust="spacing" textLength="117" x="96.75" y="39.668">EntryRelatedData</text><line style="stroke:#181818;stroke-width:0.5;" x1="13.5" x2="264.5" y1="47.6211" y2="47.6211"/><ellipse cx="23.5" cy="61.3652" fill="none" rx="3" ry="3" style="stroke:#038048;stroke-width:1.0;"/><text fill="#000000" font-family="sans-serif" font-size="14" lengthAdjust="spacing" textLength="43" x="32.5" y="65.1563">id: i32</text><ellipse cx="23.5" cy="77.8535" fill="none" rx="3" ry="3" style="stroke:#038048;stroke-width:1.0;"/><text fill="#000000" font-family="sans-serif" font-size="14" lengthAdjust="spacing" textLength="124" x="32.5" y="81.6445">area_name: String</text><ellipse cx="23.5" cy="94.3418" fill="none" rx="3" ry="3" style="stroke:#038048;stroke-width:1.0;"/><text fill="#000000" font-family="sans-serif" font-size="14" lengthAdjust="spacing" textLength="227" x="32.5" y="98.1328">rooms: Vec&lt;RoomsRelatedData&gt;</text><line style="stroke:#181818;stroke-width:0.5;" x1="13.5" x2="264.5" y1="105.0859" y2="105.0859"/></g><!--class RoomsRelatedData--><g id="elem_RoomsRelatedData"><rect codeLine="9" fill="#F1F1F1" height="172.0391" id="RoomsRelatedData" rx="2.5" ry="2.5" style="stroke:#181818;stroke-width:0.5;" width="264" x="7" y="173.08"/><ellipse cx="70.25" cy="193.3905" fill="#FF7700" rx="11" ry="11" style="stroke:#181818;stroke-width:1.0;"/><path d="M69.9834,194.4535 Q68.1323,193.748 67.4766,192.9718 Q66.8208,192.1957 66.8208,190.8842 Q66.8208,189.1991 67.8999,188.2363 Q68.979,187.2734 70.8633,187.2734 Q71.7183,187.2734 72.5732,187.4684 Q73.4282,187.6635 74.2666,188.0453 L74.2666,190.436 Q73.478,189.8798 72.6646,189.5893 Q71.8511,189.2988 71.0542,189.2988 Q70.166,189.2988 69.6929,189.6557 Q69.2197,190.0126 69.2197,190.6767 Q69.2197,191.1913 69.5642,191.5275 Q69.9087,191.8637 71.0044,192.2704 L72.0586,192.6689 Q73.5527,193.2167 74.2583,194.1215 Q74.9639,195.0263 74.9639,196.4042 Q74.9639,198.2802 73.8557,199.2057 Q72.7476,200.1313 70.5063,200.1313 Q69.585,200.1313 68.6594,199.9113 Q67.7339,199.6913 66.8706,199.2597 L66.8706,196.7279 Q67.8501,197.4252 68.7673,197.7655 Q69.6846,198.1059 70.5811,198.1059 Q71.4858,198.1059 71.9839,197.695 Q72.4819,197.2841 72.4819,196.5453 Q72.4819,195.9892 72.1499,195.57 Q71.8179,195.1508 71.187,194.9101 Z " fill="#000000"/><text fill="#000000" font-family="sans-serif" font-size="12" font-style="italic" lengthAdjust="spacing" textLength="44" x="133.25" y="189.6816">&#171;Struct&#187;</text><text fill="#000000" font-family="sans-serif" font-size="14" lengthAdjust="spacing" textLength="129" x="90.75" y="205.748">RoomsRelatedData</text><line style="stroke:#181818;stroke-width:0.5;" x1="8" x2="270" y1="213.7011" y2="213.7011"/><ellipse cx="18" cy="227.4452" fill="none" rx="3" ry="3" style="stroke:#038048;stroke-width:1.0;"/><text fill="#000000" font-family="sans-serif" font-size="14" lengthAdjust="spacing" textLength="43" x="27" y="231.2363">id: i32</text><ellipse cx="18" cy="243.9335" fill="none" rx="3" ry="3" style="stroke:#038048;stroke-width:1.0;"/><text fill="#000000" font-family="sans-serif" font-size="14" lengthAdjust="spacing" textLength="131" x="27" y="247.7245">room_name: String</text><ellipse cx="18" cy="260.4218" fill="none" rx="3" ry="3" style="stroke:#038048;stroke-width:1.0;"/><text fill="#000000" font-family="sans-serif" font-size="14" lengthAdjust="spacing" textLength="126" x="27" y="264.2128">description: String</text><ellipse cx="18" cy="276.9101" fill="none" rx="3" ry="3" style="stroke:#038048;stroke-width:1.0;"/><text fill="#000000" font-family="sans-serif" font-size="14" lengthAdjust="spacing" textLength="85" x="27" y="280.7011">capacity: i32</text><ellipse cx="18" cy="293.3984" fill="none" rx="3" ry="3" style="stroke:#038048;stroke-width:1.0;"/><text fill="#000000" font-family="sans-serif" font-size="14" lengthAdjust="spacing" textLength="85" x="27" y="297.1894">entry_id: i32</text><ellipse cx="18" cy="309.8866" fill="none" rx="3" ry="3" style="stroke:#038048;stroke-width:1.0;"/><text fill="#000000" font-family="sans-serif" font-size="14" lengthAdjust="spacing" textLength="147" x="27" y="313.6777">registration_limit: i32</text><ellipse cx="18" cy="326.3749" fill="none" rx="3" ry="3" style="stroke:#038048;stroke-width:1.0;"/><text fill="#000000" font-family="sans-serif" font-size="14" lengthAdjust="spacing" textLength="238" x="27" y="330.1659">participants: Vec&lt;ParticipantsList&gt;</text><line style="stroke:#181818;stroke-width:0.5;" x1="8" x2="270" y1="337.1191" y2="337.1191"/></g><!--class ParticipantsList--><g id="elem_ParticipantsList"><rect codeLine="19" fill="#F1F1F1" height="89.5977" id="ParticipantsList" rx="2.5" ry="2.5" style="stroke:#181818;stroke-width:0.5;" width="143" x="67.5" y="405.12"/><ellipse cx="86.1" cy="425.4305" fill="#FF7700" rx="11" ry="11" style="stroke:#181818;stroke-width:1.0;"/><path d="M85.8334,426.4935 Q83.9823,425.788 83.3266,425.0118 Q82.6708,424.2357 82.6708,422.9242 Q82.6708,421.2391 83.7499,420.2763 Q84.829,419.3134 86.7133,419.3134 Q87.5683,419.3134 88.4232,419.5084 Q89.2782,419.7035 90.1166,420.0853 L90.1166,422.476 Q89.328,421.9198 88.5146,421.6293 Q87.7011,421.3388 86.9042,421.3388 Q86.016,421.3388 85.5429,421.6957 Q85.0697,422.0526 85.0697,422.7167 Q85.0697,423.2313 85.4142,423.5675 Q85.7587,423.9037 86.8544,424.3104 L87.9086,424.7089 Q89.4027,425.2567 90.1083,426.1615 Q90.8139,427.0663 90.8139,428.4442 Q90.8139,430.3202 89.7057,431.2457 Q88.5976,432.1713 86.3563,432.1713 Q85.435,432.1713 84.5094,431.9513 Q83.5839,431.7313 82.7206,431.2997 L82.7206,428.7679 Q83.7001,429.4652 84.6173,429.8055 Q85.5346,430.1459 86.4311,430.1459 Q87.3358,430.1459 87.8339,429.735 Q88.3319,429.3241 88.3319,428.5853 Q88.3319,428.0292 87.9999,427.61 Q87.6679,427.1908 87.037,426.9501 Z " fill="#000000"/><text fill="#000000" font-family="sans-serif" font-size="12" font-style="italic" lengthAdjust="spacing" textLength="44" x="130.4" y="421.7216">&#171;Struct&#187;</text><text fill="#000000" font-family="sans-serif" font-size="14" lengthAdjust="spacing" textLength="103" x="100.9" y="437.788">ParticipantsList</text><line style="stroke:#181818;stroke-width:0.5;" x1="68.5" x2="209.5" y1="445.7411" y2="445.7411"/><ellipse cx="78.5" cy="459.4852" fill="none" rx="3" ry="3" style="stroke:#038048;stroke-width:1.0;"/><text fill="#000000" font-family="sans-serif" font-size="14" lengthAdjust="spacing" textLength="43" x="87.5" y="463.2763">id: i32</text><ellipse cx="78.5" cy="475.9735" fill="none" rx="3" ry="3" style="stroke:#038048;stroke-width:1.0;"/><text fill="#000000" font-family="sans-serif" font-size="14" lengthAdjust="spacing" textLength="117" x="87.5" y="479.7645">username: String</text><line style="stroke:#181818;stroke-width:0.5;" x1="68.5" x2="209.5" y1="486.7177" y2="486.7177"/></g><!--reverse link EntryRelatedData to RoomsRelatedData--><g id="link_EntryRelatedData_RoomsRelatedData"><path codeLine="24" d="M139,125.33 C139,143.58 139,152.56 139,172.78 " fill="none" id="EntryRelatedData-backto-RoomsRelatedData" style="stroke:#181818;stroke-width:1.0;"/><polygon fill="#181818" points="139,113.33,135,119.33,139,125.33,143,119.33,139,113.33" style="stroke:#181818;stroke-width:1.0;"/></g><!--reverse link RoomsRelatedData to ParticipantsList--><g id="link_RoomsRelatedData_ParticipantsList"><path codeLine="25" d="M139,357.4 C139,377.92 139,387.02 139,404.78 " fill="none" id="RoomsRelatedData-backto-ParticipantsList" style="stroke:#181818;stroke-width:1.0;"/><polygon fill="#181818" points="139,345.4,135,351.4,139,357.4,143,351.4,139,345.4" style="stroke:#181818;stroke-width:1.0;"/></g><!--SRC=[bL4z2y8m4DtpAmvS_0JHeL1A9tLo40kkvKWFEMZJafo3YF_TfdQegKip9VVktijxfqjq3ev6xFDA9GeL1nI4985vjeRPwHH5s-q2Ch4FBMaABmNjMG4NCV1-rx_G4kO6Aufz9vjxNxTrNRaORgIJgxyE95BrLahfJZx4fifxcN_o1JbjkH6kJO1eR52pF8Siv4F80sQwinEBdY8lkM8PeWrQOSqD6kbTNWQLSplPkVoQ3A6f9X-Ex8_7bdcqj-LcCqfJZUBrNU5tr0S0]--></g></svg>