<?xml version="1.0" encoding="us-ascii" standalone="no"?><svg xmlns="http://www.w3.org/2000/svg" xmlns:xlink="http://www.w3.org/1999/xlink" contentStyleType="text/css" height="767px" preserveAspectRatio="none" style="width:761px;height:767px;background:#FFFFFF;" version="1.1" viewBox="0 0 761 767" width="761px" zoomAndPan="magnify"><defs/><g><!--class Adresse--><g id="elem_Adresse"><rect codeLine="2" fill="#F1F1F1" height="130.4414" id="Adresse" rx="2.5" ry="2.5" style="stroke:#181818;stroke-width:0.5;" width="343" x="7" y="15.24"/><ellipse cx="146.75" cy="31.24" fill="#ADD1B2" rx="11" ry="11" style="stroke:#181818;stroke-width:1.0;"/><path d="M149.2231,37.3831 Q148.6421,37.6819 148.0029,37.8313 Q147.3638,37.9807 146.6582,37.9807 Q144.1514,37.9807 142.8315,36.3289 Q141.5117,34.677 141.5117,31.5559 Q141.5117,28.4265 142.8315,26.7747 Q144.1514,25.1228 146.6582,25.1228 Q147.3638,25.1228 148.0112,25.2722 Q148.6587,25.4216 149.2231,25.7205 L149.2231,28.4431 Q148.5923,27.8621 147.9988,27.5923 Q147.4053,27.3225 146.7744,27.3225 Q145.4297,27.3225 144.7449,28.3892 Q144.0601,29.4558 144.0601,31.5559 Q144.0601,33.6477 144.7449,34.7144 Q145.4297,35.781 146.7744,35.781 Q147.4053,35.781 147.9988,35.5112 Q148.5923,35.2415 149.2231,34.6604 Z " fill="#000000"/><text fill="#000000" font-family="sans-serif" font-size="14" lengthAdjust="spacing" textLength="55" x="167.25" y="36.531">Adresse</text><line style="stroke:#181818;stroke-width:0.5;" x1="8" x2="349" y1="47.24" y2="47.24"/><rect fill="none" height="6" style="stroke:#C82930;stroke-width:1.0;" width="6" x="15" y="57.9841"/><text fill="#000000" font-family="sans-serif" font-size="14" lengthAdjust="spacing" textLength="70" x="27" y="64.7752">plz: String</text><rect fill="none" height="6" style="stroke:#C82930;stroke-width:1.0;" width="6" x="15" y="74.4724"/><text fill="#000000" font-family="sans-serif" font-size="14" lengthAdjust="spacing" textLength="69" x="27" y="81.2634">ort: String</text><rect fill="none" height="6" style="stroke:#C82930;stroke-width:1.0;" width="6" x="15" y="90.9607"/><text fill="#000000" font-family="sans-serif" font-size="14" lengthAdjust="spacing" textLength="97" x="27" y="97.7517">strasse: String</text><line style="stroke:#181818;stroke-width:1.0;" x1="8" x2="349" y1="104.7048" y2="104.7048"/><ellipse cx="18" cy="118.449" fill="#84BE84" rx="3" ry="3" style="stroke:#038048;stroke-width:1.0;"/><text fill="#000000" font-family="sans-serif" font-size="14" lengthAdjust="spacing" textLength="317" x="27" y="122.24">Adresse(plz: String, ort: String, strasse: String)</text><ellipse cx="18" cy="134.9373" fill="#84BE84" rx="3" ry="3" style="stroke:#038048;stroke-width:1.0;"/><text fill="#000000" font-family="sans-serif" font-size="14" lengthAdjust="spacing" textLength="168" x="27" y="138.7283">GetAdressdaten(): String</text></g><!--class Wohngebaeude--><g id="elem_Wohngebaeude"><rect codeLine="11" fill="#F1F1F1" height="130.4414" id="Wohngebaeude" rx="2.5" ry="2.5" style="stroke:#181818;stroke-width:0.5;" width="351" x="194" y="230.93"/><ellipse cx="311.75" cy="246.93" fill="#ADD1B2" rx="11" ry="11" style="stroke:#181818;stroke-width:1.0;"/><path d="M314.2231,253.0731 Q313.6421,253.3719 313.0029,253.5213 Q312.3638,253.6707 311.6582,253.6707 Q309.1514,253.6707 307.8315,252.0189 Q306.5117,250.367 306.5117,247.2459 Q306.5117,244.1165 307.8315,242.4647 Q309.1514,240.8128 311.6582,240.8128 Q312.3638,240.8128 313.0112,240.9622 Q313.6587,241.1116 314.2231,241.4105 L314.2231,244.1331 Q313.5923,243.5521 312.9988,243.2823 Q312.4053,243.0125 311.7744,243.0125 Q310.4297,243.0125 309.7449,244.0792 Q309.0601,245.1458 309.0601,247.2459 Q309.0601,249.3377 309.7449,250.4044 Q310.4297,251.471 311.7744,251.471 Q312.4053,251.471 312.9988,251.2012 Q313.5923,250.9315 314.2231,250.3504 Z " fill="#000000"/><text fill="#000000" font-family="sans-serif" font-size="14" lengthAdjust="spacing" textLength="107" x="332.25" y="252.221">Wohngebaeude</text><line style="stroke:#181818;stroke-width:0.5;" x1="195" x2="544" y1="262.93" y2="262.93"/><rect fill="none" height="6" style="stroke:#C82930;stroke-width:1.0;" width="6" x="202" y="273.6741"/><text fill="#000000" font-family="sans-serif" font-size="14" lengthAdjust="spacing" textLength="92" x="214" y="280.4652">baujahr: Date</text><rect fill="none" height="6" style="stroke:#C82930;stroke-width:1.0;" width="6" x="202" y="290.1624"/><text fill="#000000" font-family="sans-serif" font-size="14" lengthAdjust="spacing" textLength="116" x="214" y="296.9534">adresse: Adresse</text><line style="stroke:#181818;stroke-width:1.0;" x1="195" x2="544" y1="303.9066" y2="303.9066"/><ellipse cx="205" cy="317.6507" fill="#84BE84" rx="3" ry="3" style="stroke:#038048;stroke-width:1.0;"/><text fill="#000000" font-family="sans-serif" font-size="14" lengthAdjust="spacing" textLength="325" x="214" y="321.4417">Wohngebaeude(baujahr: Date, adress: Adresse)</text><ellipse cx="205" cy="334.139" fill="#84BE84" rx="3" ry="3" style="stroke:#038048;stroke-width:1.0;"/><text fill="#000000" font-family="sans-serif" font-size="14" lengthAdjust="spacing" textLength="190" x="214" y="337.93">GetGebaeudedaten(): String</text><ellipse cx="205" cy="350.6273" fill="#84BE84" rx="3" ry="3" style="stroke:#038048;stroke-width:1.0;"/><text fill="#000000" font-family="sans-serif" font-size="14" lengthAdjust="spacing" textLength="192" x="214" y="354.4183">BerechneMietpreis(): double</text></g><!--class Einfamilienhaus--><g id="elem_Einfamilienhaus"><rect codeLine="20" fill="#F1F1F1" height="97.4648" id="Einfamilienhaus" rx="2.5" ry="2.5" style="stroke:#181818;stroke-width:0.5;" width="214" x="87.5" y="455.35"/><ellipse cx="135.75" cy="471.35" fill="#ADD1B2" rx="11" ry="11" style="stroke:#181818;stroke-width:1.0;"/><path d="M138.2231,477.4931 Q137.6421,477.7919 137.0029,477.9413 Q136.3638,478.0907 135.6582,478.0907 Q133.1514,478.0907 131.8315,476.4389 Q130.5117,474.787 130.5117,471.6659 Q130.5117,468.5365 131.8315,466.8847 Q133.1514,465.2328 135.6582,465.2328 Q136.3638,465.2328 137.0112,465.3822 Q137.6587,465.5316 138.2231,465.8305 L138.2231,468.5531 Q137.5923,467.9721 136.9988,467.7023 Q136.4053,467.4325 135.7744,467.4325 Q134.4297,467.4325 133.7449,468.4992 Q133.0601,469.5658 133.0601,471.6659 Q133.0601,473.7577 133.7449,474.8244 Q134.4297,475.891 135.7744,475.891 Q136.4053,475.891 136.9988,475.6212 Q137.5923,475.3515 138.2231,474.7704 Z " fill="#000000"/><text fill="#000000" font-family="sans-serif" font-size="14" lengthAdjust="spacing" textLength="109" x="156.25" y="476.641">Einfamilienhaus</text><line style="stroke:#181818;stroke-width:0.5;" x1="88.5" x2="300.5" y1="487.35" y2="487.35"/><rect fill="none" height="6" style="stroke:#C82930;stroke-width:1.0;" width="6" x="95.5" y="498.0941"/><text fill="#000000" font-family="sans-serif" font-size="14" lengthAdjust="spacing" textLength="179" x="107.5" y="504.8852">wohneinheit: Wohneinheit</text><line style="stroke:#181818;stroke-width:1.0;" x1="88.5" x2="300.5" y1="511.8383" y2="511.8383"/><ellipse cx="98.5" cy="525.5824" fill="#84BE84" rx="3" ry="3" style="stroke:#038048;stroke-width:1.0;"/><text fill="#000000" font-family="sans-serif" font-size="14" lengthAdjust="spacing" textLength="127" x="107.5" y="529.3734">Einfamielienhaus()</text><ellipse cx="98.5" cy="542.0707" fill="#84BE84" rx="3" ry="3" style="stroke:#038048;stroke-width:1.0;"/><text fill="#000000" font-family="sans-serif" font-size="14" lengthAdjust="spacing" textLength="188" x="107.5" y="545.8617">BerechneMietpreis() double</text></g><!--class Mehrfamilienhaus--><g id="elem_Mehrfamilienhaus"><rect codeLine="27" fill="#F1F1F1" height="163.418" id="Mehrfamilienhaus" rx="2.5" ry="2.5" style="stroke:#181818;stroke-width:0.5;" width="418" x="336.5" y="422.37"/><ellipse cx="479.75" cy="438.37" fill="#ADD1B2" rx="11" ry="11" style="stroke:#181818;stroke-width:1.0;"/><path d="M482.2231,444.5131 Q481.6421,444.8119 481.0029,444.9613 Q480.3638,445.1107 479.6582,445.1107 Q477.1514,445.1107 475.8315,443.4589 Q474.5117,441.807 474.5117,438.6859 Q474.5117,435.5565 475.8315,433.9047 Q477.1514,432.2528 479.6582,432.2528 Q480.3638,432.2528 481.0112,432.4022 Q481.6587,432.5516 482.2231,432.8505 L482.2231,435.5731 Q481.5923,434.9921 480.9988,434.7223 Q480.4053,434.4525 479.7744,434.4525 Q478.4297,434.4525 477.7449,435.5192 Q477.0601,436.5858 477.0601,438.6859 Q477.0601,440.7777 477.7449,441.8444 Q478.4297,442.911 479.7744,442.911 Q480.4053,442.911 480.9988,442.6412 Q481.5923,442.3715 482.2231,441.7904 Z " fill="#000000"/><text fill="#000000" font-family="sans-serif" font-size="14" lengthAdjust="spacing" textLength="123" x="500.25" y="443.661">Mehrfamilienhaus</text><line style="stroke:#181818;stroke-width:0.5;" x1="337.5" x2="753.5" y1="454.37" y2="454.37"/><rect fill="none" height="6" style="stroke:#C82930;stroke-width:1.0;" width="6" x="344.5" y="465.1141"/><text fill="#000000" font-family="sans-serif" font-size="14" lengthAdjust="spacing" textLength="119" x="356.5" y="471.9052">anzahlEtagen: int</text><rect fill="none" height="6" style="stroke:#C82930;stroke-width:1.0;" width="6" x="344.5" y="481.6024"/><text fill="#000000" font-family="sans-serif" font-size="14" lengthAdjust="spacing" textLength="170" x="356.5" y="488.3934">anzahlwohneinheiten int</text><rect fill="none" height="6" style="stroke:#C82930;stroke-width:1.0;" width="6" x="344.5" y="498.0907"/><text fill="#000000" font-family="sans-serif" font-size="14" lengthAdjust="spacing" textLength="272" x="356.5" y="504.8817">wohneinheitenListe: List&lt;Wohneinheit&gt;</text><line style="stroke:#181818;stroke-width:1.0;" x1="337.5" x2="753.5" y1="511.8348" y2="511.8348"/><ellipse cx="347.5" cy="525.579" fill="#84BE84" rx="3" ry="3" style="stroke:#038048;stroke-width:1.0;"/><text fill="#000000" font-family="sans-serif" font-size="14" lengthAdjust="spacing" textLength="133" x="356.5" y="529.37">Mehrfamilienhaus()</text><ellipse cx="347.5" cy="542.0673" fill="#84BE84" rx="3" ry="3" style="stroke:#038048;stroke-width:1.0;"/><text fill="#000000" font-family="sans-serif" font-size="14" lengthAdjust="spacing" textLength="154" x="356.5" y="545.8583">GetAnzahlEtagen(): int</text><ellipse cx="347.5" cy="558.5555" fill="#84BE84" rx="3" ry="3" style="stroke:#038048;stroke-width:1.0;"/><text fill="#000000" font-family="sans-serif" font-size="14" lengthAdjust="spacing" textLength="210" x="356.5" y="562.3466">GetAnzahlWohneinheiten(): int</text><ellipse cx="347.5" cy="575.0438" fill="#84BE84" rx="3" ry="3" style="stroke:#038048;stroke-width:1.0;"/><text fill="#000000" font-family="sans-serif" font-size="14" lengthAdjust="spacing" textLength="392" x="356.5" y="578.8348">AddWohneinheit(etage: int, wohnung: Wohneinheit): void</text></g><!--class Wohneinheit--><g id="elem_Wohneinheit"><rect codeLine="37" fill="#F1F1F1" height="113.9531" id="Wohneinheit" rx="2.5" ry="2.5" style="stroke:#181818;stroke-width:0.5;" width="299" x="220" y="646.79"/><ellipse cx="322.25" cy="662.79" fill="#ADD1B2" rx="11" ry="11" style="stroke:#181818;stroke-width:1.0;"/><path d="M324.7231,668.9331 Q324.1421,669.2319 323.5029,669.3813 Q322.8638,669.5307 322.1582,669.5307 Q319.6514,669.5307 318.3315,667.8789 Q317.0117,666.227 317.0117,663.1059 Q317.0117,659.9765 318.3315,658.3247 Q319.6514,656.6728 322.1582,656.6728 Q322.8638,656.6728 323.5112,656.8222 Q324.1587,656.9716 324.7231,657.2705 L324.7231,659.9931 Q324.0923,659.4121 323.4988,659.1423 Q322.9053,658.8725 322.2744,658.8725 Q320.9297,658.8725 320.2449,659.9392 Q319.5601,661.0058 319.5601,663.1059 Q319.5601,665.1977 320.2449,666.2644 Q320.9297,667.331 322.2744,667.331 Q322.9053,667.331 323.4988,667.0612 Q324.0923,666.7915 324.7231,666.2104 Z " fill="#000000"/><text fill="#000000" font-family="sans-serif" font-size="14" lengthAdjust="spacing" textLength="86" x="342.75" y="668.081">Wohneinheit</text><line style="stroke:#181818;stroke-width:0.5;" x1="221" x2="518" y1="678.79" y2="678.79"/><rect fill="none" height="6" style="stroke:#C82930;stroke-width:1.0;" width="6" x="228" y="689.5341"/><text fill="#000000" font-family="sans-serif" font-size="14" lengthAdjust="spacing" textLength="124" x="240" y="696.3252">anzahlZimmer: int</text><rect fill="none" height="6" style="stroke:#C82930;stroke-width:1.0;" width="6" x="228" y="706.0224"/><text fill="#000000" font-family="sans-serif" font-size="14" lengthAdjust="spacing" textLength="273" x="240" y="712.8134">preisProQM: double- anzahlQM: double</text><line style="stroke:#181818;stroke-width:1.0;" x1="221" x2="518" y1="719.7666" y2="719.7666"/><ellipse cx="231" cy="733.5107" fill="#84BE84" rx="3" ry="3" style="stroke:#038048;stroke-width:1.0;"/><text fill="#000000" font-family="sans-serif" font-size="14" lengthAdjust="spacing" textLength="96" x="240" y="737.3017">Wohneinheit()</text><ellipse cx="231" cy="749.999" fill="#84BE84" rx="3" ry="3" style="stroke:#038048;stroke-width:1.0;"/><text fill="#000000" font-family="sans-serif" font-size="14" lengthAdjust="spacing" textLength="215" x="240" y="753.79">MietpreisWohneinheit(): double</text></g><!--class Gebaeudeverwaltung--><g id="elem_Gebaeudeverwaltung"><rect codeLine="44" fill="#F1F1F1" height="146.9297" id="Gebaeudeverwaltung" rx="2.5" ry="2.5" style="stroke:#181818;stroke-width:0.5;" width="353" x="385" y="7"/><ellipse cx="484.75" cy="23" fill="#ADD1B2" rx="11" ry="11" style="stroke:#181818;stroke-width:1.0;"/><path d="M487.2231,29.1431 Q486.6421,29.4419 486.0029,29.5913 Q485.3638,29.7407 484.6582,29.7407 Q482.1514,29.7407 480.8315,28.0889 Q479.5117,26.437 479.5117,23.3159 Q479.5117,20.1865 480.8315,18.5347 Q482.1514,16.8828 484.6582,16.8828 Q485.3638,16.8828 486.0112,17.0322 Q486.6587,17.1816 487.2231,17.4805 L487.2231,20.2031 Q486.5923,19.6221 485.9988,19.3523 Q485.4053,19.0825 484.7744,19.0825 Q483.4297,19.0825 482.7449,20.1492 Q482.0601,21.2158 482.0601,23.3159 Q482.0601,25.4077 482.7449,26.4744 Q483.4297,27.541 484.7744,27.541 Q485.4053,27.541 485.9988,27.2712 Q486.5923,27.0015 487.2231,26.4204 Z " fill="#000000"/><text fill="#000000" font-family="sans-serif" font-size="14" lengthAdjust="spacing" textLength="145" x="505.25" y="28.291">Gebaeudeverwaltung</text><line style="stroke:#181818;stroke-width:0.5;" x1="386" x2="737" y1="39" y2="39"/><rect fill="none" height="6" style="stroke:#C82930;stroke-width:1.0;" width="6" x="393" y="49.7441"/><text fill="#000000" font-family="sans-serif" font-size="14" lengthAdjust="spacing" textLength="87" x="405" y="56.5352">name: String</text><rect fill="none" height="6" style="stroke:#C82930;stroke-width:1.0;" width="6" x="393" y="66.2324"/><text fill="#000000" font-family="sans-serif" font-size="14" lengthAdjust="spacing" textLength="259" x="405" y="73.0234">gebaeudeListe: List&lt;Wohngebaeude&gt;</text><line style="stroke:#181818;stroke-width:1.0;" x1="386" x2="737" y1="79.9766" y2="79.9766"/><ellipse cx="396" cy="93.7207" fill="#84BE84" rx="3" ry="3" style="stroke:#038048;stroke-width:1.0;"/><text fill="#000000" font-family="sans-serif" font-size="14" lengthAdjust="spacing" textLength="155" x="405" y="97.5117">Gebaeudeverwaltung()</text><ellipse cx="396" cy="110.209" fill="#84BE84" rx="3" ry="3" style="stroke:#038048;stroke-width:1.0;"/><text fill="#000000" font-family="sans-serif" font-size="14" lengthAdjust="spacing" textLength="327" x="405" y="114">AddGebaeude(gebaeude: Wohngebaeude): void</text><ellipse cx="396" cy="126.6973" fill="#84BE84" rx="3" ry="3" style="stroke:#038048;stroke-width:1.0;"/><text fill="#000000" font-family="sans-serif" font-size="14" lengthAdjust="spacing" textLength="244" x="405" y="130.4883">AusgabeMietGebaeudedaten(): void</text><ellipse cx="396" cy="143.1855" fill="#84BE84" rx="3" ry="3" style="stroke:#038048;stroke-width:1.0;"/><text fill="#000000" font-family="sans-serif" font-size="14" lengthAdjust="spacing" textLength="217" x="405" y="146.9766">BerechneGesamtMiete(): double</text></g><!--reverse link Adresse to Wohngebaeude--><g id="link_Adresse_Wohngebaeude"><path codeLine="54" d="M240.3196,150.6325 C264.2596,177.4025 287.96,203.92 311.87,230.68 " fill="none" id="Adresse-backto-Wohngebaeude" style="stroke:#181818;stroke-width:1.0;"/><polygon fill="#181818" points="236.32,146.16,239.3378,155.5351,239.653,149.887,245.3011,150.2022,236.32,146.16" style="stroke:#181818;stroke-width:1.0;"/><rect fill="none" height="6" style="stroke:#C82930;stroke-width:1.0;" width="6" x="283.5" y="190.0853"/><text fill="#000000" font-family="sans-serif" font-size="13" lengthAdjust="spacing" textLength="48" x="293.5" y="197.4984">adresse</text><text fill="#000000" font-family="sans-serif" font-size="13" lengthAdjust="spacing" textLength="8" x="233.8702" y="166.293">1</text><text fill="#000000" font-family="sans-serif" font-size="13" lengthAdjust="spacing" textLength="8" x="297.1292" y="220.2842">1</text></g><!--link Gebaeudeverwaltung to Wohngebaeude--><g id="link_Gebaeudeverwaltung_Wohngebaeude"><path codeLine="55" d="M495.96,154.4 C473.69,179.19 452.9894,202.2263 431.3694,226.2963 " fill="none" id="Gebaeudeverwaltung-to-Wohngebaeude" style="stroke:#181818;stroke-width:1.0;"/><polygon fill="#181818" points="427.36,230.76,436.3499,226.7373,430.7012,227.0402,430.3983,221.3915,427.36,230.76" style="stroke:#181818;stroke-width:1.0;"/><rect fill="none" height="6" style="stroke:#C82930;stroke-width:1.0;" width="6" x="468.5" y="190.0853"/><text fill="#000000" font-family="sans-serif" font-size="13" lengthAdjust="spacing" textLength="90" x="478.5" y="197.4984">gebaeudeListe</text><text fill="#000000" font-family="sans-serif" font-size="13" lengthAdjust="spacing" textLength="8" x="481.5493" y="174.49">1</text><text fill="#000000" font-family="sans-serif" font-size="13" lengthAdjust="spacing" textLength="26" x="406.2666" y="220.3729">1...*</text></g><!--reverse link Wohngebaeude to Mehrfamilienhaus--><g id="link_Wohngebaeude_Mehrfamilienhaus"><path codeLine="56" d="M436.3977,375.4208 C452.7377,394.5308 459.13,402.02 476.23,422.02 " fill="none" id="Wohngebaeude-backto-Mehrfamilienhaus" style="stroke:#181818;stroke-width:1.0;"/><polygon fill="none" points="424.7,361.74,431.8375,379.32,440.958,371.5215,424.7,361.74" style="stroke:#181818;stroke-width:1.0;"/></g><!--reverse link Wohngebaeude to Einfamilienhaus--><g id="link_Wohngebaeude_Einfamilienhaus"><path codeLine="57" d="M302.955,375.4571 C277.295,405.6571 258.92,427.27 235.31,455.06 " fill="none" id="Wohngebaeude-backto-Einfamilienhaus" style="stroke:#181818;stroke-width:1.0;"/><polygon fill="none" points="314.61,361.74,298.3826,371.5721,307.5273,379.3422,314.61,361.74" style="stroke:#181818;stroke-width:1.0;"/></g><!--reverse link Mehrfamilienhaus to Wohneinheit--><g id="link_Mehrfamilienhaus_Wohneinheit"><path codeLine="58" d="M465.4299,595.0121 C447.3899,615.2721 436.41,627.61 419.7,646.38 " fill="none" id="Mehrfamilienhaus-backto-Wohneinheit" style="stroke:#181818;stroke-width:1.0;"/><polygon fill="#181818" points="473.41,586.05,466.4326,587.871,465.4299,595.0121,472.4073,593.1911,473.41,586.05" style="stroke:#181818;stroke-width:1.0;"/><text fill="#000000" font-family="sans-serif" font-size="13" lengthAdjust="spacing" textLength="8" x="458.871" y="606.3206">1</text><text fill="#000000" font-family="sans-serif" font-size="13" lengthAdjust="spacing" textLength="8" x="417.3306" y="636.0592">1</text></g><!--reverse link Einfamilienhaus to Wohneinheit--><g id="link_Einfamilienhaus_Wohneinheit"><path codeLine="59" d="M245.0417,562.1672 C269.9217,590.2872 293.51,616.93 319.57,646.36 " fill="none" id="Einfamilienhaus-backto-Wohneinheit" style="stroke:#181818;stroke-width:1.0;"/><polygon fill="#181818" points="237.09,553.18,238.0701,560.3242,245.0417,562.1672,244.0616,555.023,237.09,553.18" style="stroke:#181818;stroke-width:1.0;"/><text fill="#000000" font-family="sans-serif" font-size="13" lengthAdjust="spacing" textLength="26" x="215.0662" y="573.3745">1...*</text><text fill="#000000" font-family="sans-serif" font-size="13" lengthAdjust="spacing" textLength="8" x="304.9973" y="636.0368">1</text></g><!--SRC=[TPDDJyCm38Rl_HKHfswqaxXMqoGGqovC0d6On2rRJHlKfYX9GUBZlvDqSUkaOvTejb_xgJzE3TUQtPOAj8RlXDbVpjwRhu8z6oLavIsTCf556sML45hpuRd6V2b9bD4SMInVUE4Ep5bRSWCoNQ2V9Rz9SXfO3rqjApXowCiH-CZxDrwhWjrRcRVnCqE1C24XpP86yimhH-62JN0xBudmVC0TA3ZL4lO2pBi2eLr4sVN71YR-hP2ll1MD05dpNkCdV5eW4B86ORjqcFw4s5uCg4uN_vUULTv3hMXfXhMv_E9ripMy0bam8KrW9sGWYJUmFmXjRA_TioRqcn0_9aZft0c4wniM8iu3hUXZsBXo9N6duF8C0Ta0siigQAiLVtIYT7irhPNtXMrv4MqBYjIoz-4Q_AYwfpsE5uCdotpT40s_UHnLu2GBSmR3bVi0zSaROpzad9laBKmNShRXKiS3GNiqaNdsaSzs5BqfgelWS7mJCRxN5JyE6pWx4nA6cxe3pLlZeY4y4tzsxEhcYgtpV7XfrOBb_hQJ2xrnqNc-iUzgjLhEb45x4kfawnzRBDxG2o7H0IUpit88ImAEbnm9HyGBiNy0]--></g></svg>