<?xml version="1.0" encoding="UTF-8" standalone="no"?><svg xmlns="http://www.w3.org/2000/svg" xmlns:xlink="http://www.w3.org/1999/xlink" contentStyleType="text/css" height="197px" preserveAspectRatio="none" style="width:609px;height:197px;background:#FFFFFF;" version="1.1" viewBox="0 0 609 197" width="609px" zoomAndPan="magnify"><defs/><g><line style="stroke:#181818;stroke-width:0.5;stroke-dasharray:5.0,5.0;" x1="144" x2="144" y1="37.6094" y2="160.6641"/><line style="stroke:#181818;stroke-width:0.5;stroke-dasharray:5.0,5.0;" x1="498" x2="498" y1="37.6094" y2="160.6641"/><rect fill="#E2E2F0" height="31.6094" rx="2.5" ry="2.5" style="stroke:#181818;stroke-width:0.5;" width="50" x="119" y="5"/><text fill="#000000" font-family="sans-serif" font-size="14" lengthAdjust="spacing" textLength="36" x="126" y="26.5332">Client</text><rect fill="#E2E2F0" height="31.6094" rx="2.5" ry="2.5" style="stroke:#181818;stroke-width:0.5;" width="50" x="119" y="159.6641"/><text fill="#000000" font-family="sans-serif" font-size="14" lengthAdjust="spacing" textLength="36" x="126" y="181.1973">Client</text><rect fill="#E2E2F0" height="31.6094" rx="2.5" ry="2.5" style="stroke:#181818;stroke-width:0.5;" width="42" x="477" y="5"/><text fill="#000000" font-family="sans-serif" font-size="14" lengthAdjust="spacing" textLength="28" x="484" y="26.5332">Host</text><rect fill="#E2E2F0" height="31.6094" rx="2.5" ry="2.5" style="stroke:#181818;stroke-width:0.5;" width="42" x="477" y="159.6641"/><text fill="#000000" font-family="sans-serif" font-size="14" lengthAdjust="spacing" textLength="28" x="484" y="181.1973">Host</text><polygon fill="#181818" points="486,68.9609,496,72.9609,486,76.9609,490,72.9609" style="stroke:#181818;stroke-width:1.0;"/><line style="stroke:#181818;stroke-width:1.0;" x1="144" x2="492" y1="72.9609" y2="72.9609"/><text fill="#000000" font-family="sans-serif" font-size="13" lengthAdjust="spacing" textLength="211" x="151" y="68.1045">(1) Send SYN (SEQ=100 CTL=SYN)</text><path d="M503,52.6094 L503,78.6094 L602,78.6094 L602,62.6094 L592,52.6094 L503,52.6094 " fill="#FEFFDD" style="stroke:#181818;stroke-width:0.5;"/><path d="M592,52.6094 L592,62.6094 L602,62.6094 L592,52.6094 " fill="#FEFFDD" style="stroke:#181818;stroke-width:0.5;"/><text fill="#000000" font-family="sans-serif" font-size="13" lengthAdjust="spacing" textLength="78" x="509" y="71.1045">SYN received</text><polygon fill="#181818" points="155,105.3125,145,109.3125,155,113.3125,151,109.3125" style="stroke:#181818;stroke-width:1.0;"/><line style="stroke:#181818;stroke-width:1.0;" x1="149" x2="497" y1="109.3125" y2="109.3125"/><text fill="#000000" font-family="sans-serif" font-size="13" lengthAdjust="spacing" textLength="330" x="161" y="104.4561">(2) Send SYN, ACK (DEQ=30 ACK=101 CTL=SYN,ACK)</text><path d="M5,88.9609 L5,114.9609 L139,114.9609 L139,98.9609 L129,88.9609 L5,88.9609 " fill="#FEFFDD" style="stroke:#181818;stroke-width:0.5;"/><path d="M129,88.9609 L129,98.9609 L139,98.9609 L129,88.9609 " fill="#FEFFDD" style="stroke:#181818;stroke-width:0.5;"/><text fill="#000000" font-family="sans-serif" font-size="13" lengthAdjust="spacing" textLength="113" x="11" y="107.4561">SYN, ACK received</text><polygon fill="#181818" points="486,138.6641,496,142.6641,486,146.6641,490,142.6641" style="stroke:#181818;stroke-width:1.0;"/><line style="stroke:#181818;stroke-width:1.0;" x1="144" x2="492" y1="142.6641" y2="142.6641"/><text fill="#000000" font-family="sans-serif" font-size="13" lengthAdjust="spacing" textLength="282" x="151" y="137.8076">(3) Established (SEQ=101, ACK=301 CTL=ACK)</text><!--MD5=[7c6dcbcb3afce561d4704201e1c3d60a]
@startuml name TCP
participant Client
participant Host
Client -> Host: (1) Send SYN (SEQ=100 CTL=SYN)
note right: SYN received 
Host -> Client: (2) Send SYN, ACK (DEQ=30 ACK=101 CTL=SYN,ACK)
note left:SYN, ACK received 
Client -> Host: (3) Established (SEQ=101, ACK=301 CTL=ACK)
@enduml

PlantUML version 1.2022.7(Mon Aug 22 19:01:30 CEST 2022)
(GPL source distribution)
Java Runtime: OpenJDK Runtime Environment
JVM: OpenJDK 64-Bit Server VM
Default Encoding: UTF-8
Language: de
Country: DE
--></g></svg>