<?xml version="1.0" encoding="UTF-8" standalone="no"?><svg xmlns="http://www.w3.org/2000/svg" xmlns:xlink="http://www.w3.org/1999/xlink" contentStyleType="text/css" height="489px" preserveAspectRatio="none" style="width:130px;height:489px;background:#FFFFFF;" version="1.1" viewBox="0 0 130 489" width="130px" zoomAndPan="magnify"><defs/><g><!--MD5=[8863db8d2181fc9a750a2bb3f986dc4e]
class Kassetten--><g id="elem_Kassetten"><rect codeLine="1" fill="#F1F1F1" height="100.8281" id="Kassetten" rx="2.5" ry="2.5" style="stroke:#181818;stroke-width:0.5;" width="116" x="7" y="7"/><ellipse cx="31.45" cy="23" fill="#ADD1B2" rx="11" ry="11" style="stroke:#181818;stroke-width:1.0;"/><path d="M30.3094,23.7969 L30.3094,26.2969 L34.6375,26.2969 L34.6375,25.375 Q34.6375,24.7656 34.8719,24.5 Q35.1219,24.2344 35.4969,24.2344 Q35.8719,24.2344 36.1063,24.5 Q36.3406,24.7656 36.3406,25.375 L36.3406,28 L28.3406,28 Q27.7156,28 27.45,27.7656 Q27.2,27.5313 27.2,27.1406 Q27.2,26.7656 27.4656,26.5313 Q27.7313,26.2969 28.3406,26.2969 L28.6063,26.2969 L28.6063,19.6406 L28.3406,19.6406 Q27.7156,19.6406 27.45,19.4063 Q27.2,19.1719 27.2,18.7813 Q27.2,18.4063 27.45,18.1719 Q27.7156,17.9375 28.3406,17.9375 L35.9656,17.9375 L35.9656,20.5313 Q35.9656,21.1406 35.7313,21.4063 Q35.5125,21.6563 35.1219,21.6563 Q34.7469,21.6563 34.5125,21.4063 Q34.2781,21.1406 34.2781,20.5313 L34.2781,19.6406 L30.3094,19.6406 L30.3094,22.0938 L31.7938,22.0938 Q31.7938,21.4375 31.9188,21.25 Q32.1844,20.8438 32.6531,20.8438 Q33.0281,20.8438 33.2625,21.1094 Q33.4969,21.3594 33.4969,21.9688 L33.4969,23.9375 Q33.4969,24.4844 33.3719,24.6719 Q33.1063,25.0625 32.6531,25.0625 Q32.1844,25.0625 31.9188,24.6563 Q31.7938,24.4688 31.7938,23.7969 L30.3094,23.7969 Z " fill="#000000"/><text fill="#000000" font-family="sans-serif" font-size="14" lengthAdjust="spacing" textLength="63" x="47.55" y="28.7285">Kassetten</text><line style="stroke:#181818;stroke-width:0.5;" x1="8" x2="122" y1="39" y2="39"/><ellipse cx="18" cy="53.3047" fill="#000000" rx="3" ry="3" style="stroke:#000000;stroke-width:1.0;"/><text fill="#000000" font-family="sans-serif" font-size="14" lengthAdjust="spacing" textLength="90" x="27" y="57.5332">ID primary key</text><line style="stroke:#181818;stroke-width:1.0;" x1="8" x2="122" y1="64.6094" y2="64.6094"/><ellipse cx="18" cy="78.9141" fill="#000000" rx="3" ry="3" style="stroke:#000000;stroke-width:1.0;"/><text fill="#000000" font-family="sans-serif" font-size="14" lengthAdjust="spacing" textLength="81" x="27" y="83.1426">Bezeichnung</text><ellipse cx="18" cy="96.5234" fill="#000000" rx="3" ry="3" style="stroke:#000000;stroke-width:1.0;"/><text fill="#000000" font-family="sans-serif" font-size="14" lengthAdjust="spacing" textLength="40" x="27" y="100.752">Länge</text></g><!--MD5=[8e95c13453fed63b2e6aa0fa1b4fbd98]
class Film--><g id="elem_Film"><rect codeLine="7" fill="#F1F1F1" height="118.4375" id="Film" rx="2.5" ry="2.5" style="stroke:#181818;stroke-width:0.5;" width="116" x="7" y="186"/><ellipse cx="48.1" cy="202" fill="#ADD1B2" rx="11" ry="11" style="stroke:#181818;stroke-width:1.0;"/><path d="M46.9594,202.7969 L46.9594,205.2969 L51.2875,205.2969 L51.2875,204.375 Q51.2875,203.7656 51.5219,203.5 Q51.7719,203.2344 52.1469,203.2344 Q52.5219,203.2344 52.7563,203.5 Q52.9906,203.7656 52.9906,204.375 L52.9906,207 L44.9906,207 Q44.3656,207 44.1,206.7656 Q43.85,206.5313 43.85,206.1406 Q43.85,205.7656 44.1156,205.5313 Q44.3813,205.2969 44.9906,205.2969 L45.2563,205.2969 L45.2563,198.6406 L44.9906,198.6406 Q44.3656,198.6406 44.1,198.4063 Q43.85,198.1719 43.85,197.7813 Q43.85,197.4063 44.1,197.1719 Q44.3656,196.9375 44.9906,196.9375 L52.6156,196.9375 L52.6156,199.5313 Q52.6156,200.1406 52.3813,200.4063 Q52.1625,200.6563 51.7719,200.6563 Q51.3969,200.6563 51.1625,200.4063 Q50.9281,200.1406 50.9281,199.5313 L50.9281,198.6406 L46.9594,198.6406 L46.9594,201.0938 L48.4438,201.0938 Q48.4438,200.4375 48.5688,200.25 Q48.8344,199.8438 49.3031,199.8438 Q49.6781,199.8438 49.9125,200.1094 Q50.1469,200.3594 50.1469,200.9688 L50.1469,202.9375 Q50.1469,203.4844 50.0219,203.6719 Q49.7563,204.0625 49.3031,204.0625 Q48.8344,204.0625 48.5688,203.6563 Q48.4438,203.4688 48.4438,202.7969 L46.9594,202.7969 Z " fill="#000000"/><text fill="#000000" font-family="sans-serif" font-size="14" lengthAdjust="spacing" textLength="26" x="67.9" y="207.7285">Film</text><line style="stroke:#181818;stroke-width:0.5;" x1="8" x2="122" y1="218" y2="218"/><ellipse cx="18" cy="232.3047" fill="#000000" rx="3" ry="3" style="stroke:#000000;stroke-width:1.0;"/><text fill="#000000" font-family="sans-serif" font-size="14" lengthAdjust="spacing" textLength="90" x="27" y="236.5332">ID primary key</text><line style="stroke:#181818;stroke-width:1.0;" x1="8" x2="122" y1="243.6094" y2="243.6094"/><ellipse cx="18" cy="257.9141" fill="#000000" rx="3" ry="3" style="stroke:#000000;stroke-width:1.0;"/><text fill="#000000" font-family="sans-serif" font-size="14" lengthAdjust="spacing" textLength="27" x="27" y="262.1426">Titel</text><ellipse cx="18" cy="275.5234" fill="#000000" rx="3" ry="3" style="stroke:#000000;stroke-width:1.0;"/><text fill="#000000" font-family="sans-serif" font-size="14" lengthAdjust="spacing" textLength="40" x="27" y="279.752">Länge</text><ellipse cx="18" cy="293.1328" fill="#000000" rx="3" ry="3" style="stroke:#000000;stroke-width:1.0;"/><text fill="#000000" font-family="sans-serif" font-size="14" lengthAdjust="spacing" textLength="27" x="27" y="297.3613">Jahr</text></g><!--MD5=[ec869b572fba91614459f708e8cfae88]
class Schauspieler--><g id="elem_Schauspieler"><rect codeLine="14" fill="#F1F1F1" height="100.8281" id="Schauspieler" rx="2.5" ry="2.5" style="stroke:#181818;stroke-width:0.5;" width="114" x="8" y="382"/><ellipse cx="23" cy="398" fill="#ADD1B2" rx="11" ry="11" style="stroke:#181818;stroke-width:1.0;"/><path d="M21.8594,398.7969 L21.8594,401.2969 L26.1875,401.2969 L26.1875,400.375 Q26.1875,399.7656 26.4219,399.5 Q26.6719,399.2344 27.0469,399.2344 Q27.4219,399.2344 27.6563,399.5 Q27.8906,399.7656 27.8906,400.375 L27.8906,403 L19.8906,403 Q19.2656,403 19,402.7656 Q18.75,402.5313 18.75,402.1406 Q18.75,401.7656 19.0156,401.5313 Q19.2813,401.2969 19.8906,401.2969 L20.1563,401.2969 L20.1563,394.6406 L19.8906,394.6406 Q19.2656,394.6406 19,394.4063 Q18.75,394.1719 18.75,393.7813 Q18.75,393.4063 19,393.1719 Q19.2656,392.9375 19.8906,392.9375 L27.5156,392.9375 L27.5156,395.5313 Q27.5156,396.1406 27.2813,396.4063 Q27.0625,396.6563 26.6719,396.6563 Q26.2969,396.6563 26.0625,396.4063 Q25.8281,396.1406 25.8281,395.5313 L25.8281,394.6406 L21.8594,394.6406 L21.8594,397.0938 L23.3438,397.0938 Q23.3438,396.4375 23.4688,396.25 Q23.7344,395.8438 24.2031,395.8438 Q24.5781,395.8438 24.8125,396.1094 Q25.0469,396.3594 25.0469,396.9688 L25.0469,398.9375 Q25.0469,399.4844 24.9219,399.6719 Q24.6563,400.0625 24.2031,400.0625 Q23.7344,400.0625 23.4688,399.6563 Q23.3438,399.4688 23.3438,398.7969 L21.8594,398.7969 Z " fill="#000000"/><text fill="#000000" font-family="sans-serif" font-size="14" lengthAdjust="spacing" textLength="82" x="37" y="403.7285">Schauspieler</text><line style="stroke:#181818;stroke-width:0.5;" x1="9" x2="121" y1="414" y2="414"/><ellipse cx="19" cy="428.3047" fill="#000000" rx="3" ry="3" style="stroke:#000000;stroke-width:1.0;"/><text fill="#000000" font-family="sans-serif" font-size="14" lengthAdjust="spacing" textLength="13" x="28" y="432.5332">ID</text><line style="stroke:#181818;stroke-width:1.0;" x1="9" x2="121" y1="439.6094" y2="439.6094"/><ellipse cx="19" cy="453.9141" fill="#000000" rx="3" ry="3" style="stroke:#000000;stroke-width:1.0;"/><text fill="#000000" font-family="sans-serif" font-size="14" lengthAdjust="spacing" textLength="57" x="28" y="458.1426">Vorname</text><ellipse cx="19" cy="471.5234" fill="#000000" rx="3" ry="3" style="stroke:#000000;stroke-width:1.0;"/><text fill="#000000" font-family="sans-serif" font-size="14" lengthAdjust="spacing" textLength="67" x="28" y="475.752">Nachname</text></g><!--MD5=[cae6ea8cc70184ff500737bad669f5b0]
link Kassetten to Film--><g id="link_Kassetten_Film"><path codeLine="21" d="M65,108.21 C65,132.14 65,160.99 65,185.92 " fill="none" id="Kassetten-Film" style="stroke:#181818;stroke-width:1.0;"/><text fill="#000000" font-family="sans-serif" font-size="13" lengthAdjust="spacing" textLength="18" x="66" y="152.4951">hat</text><text fill="#000000" font-family="sans-serif" font-size="13" lengthAdjust="spacing" textLength="7" x="57.5516" y="129.2609">1</text><text fill="#000000" font-family="sans-serif" font-size="13" lengthAdjust="spacing" textLength="7" x="57.5734" y="175.2345">n</text></g><!--MD5=[17ec523b33a33c928d4ac39dc34d7362]
link Film to Schauspieler--><g id="link_Film_Schauspieler"><path codeLine="22" d="M65,304.18 C65,329.15 65,358.02 65,381.95 " fill="none" id="Film-Schauspieler" style="stroke:#181818;stroke-width:1.0;"/><text fill="#000000" font-family="sans-serif" font-size="13" lengthAdjust="spacing" textLength="31" x="66" y="348.4951">spielt</text><text fill="#000000" font-family="sans-serif" font-size="13" lengthAdjust="spacing" textLength="7" x="57.5734" y="325.8574">n</text><text fill="#000000" font-family="sans-serif" font-size="13" lengthAdjust="spacing" textLength="11" x="53.2266" y="371.2483">m</text></g><!--MD5=[27e673ae8908b1400d0f1d10ea128b83]
@startuml name Videodatenbank
entity Kassetten {
    * ID primary key 
    - -
    * Bezeichnung 
    * Länge 
}
entity Film {
 * ID primary key 
 - -
 * Titel 
 * Länge
 * Jahr 
}
entity Schauspieler {
 * ID
 - -
 * Vorname
 * Nachname
}
'' Relations
Kassetten "1" - - "n" Film: hat
Film "n" - - "m" Schauspieler: spielt

@enduml

@startuml name Videodatenbank
entity Kassetten {
    * ID primary key 
    - -
    * Bezeichnung 
    * Länge 
}
entity Film {
 * ID primary key 
 - -
 * Titel 
 * Länge
 * Jahr 
}
entity Schauspieler {
 * ID
 - -
 * Vorname
 * Nachname
}
Kassetten "1" - - "n" Film: hat
Film "n" - - "m" Schauspieler: spielt

@enduml

PlantUML version 1.2022.7(Mon Aug 22 19:01:30 CEST 2022)
(GPL source distribution)
Java Runtime: OpenJDK Runtime Environment
JVM: OpenJDK 64-Bit Server VM
Default Encoding: UTF-8
Language: de
Country: DE
--></g></svg>