<?xml version="1.0" encoding="UTF-8" standalone="no"?><svg xmlns="http://www.w3.org/2000/svg" xmlns:xlink="http://www.w3.org/1999/xlink" contentStyleType="text/css" height="416px" preserveAspectRatio="none" style="width:1303px;height:416px;background:#FFFFFF;" version="1.1" viewBox="0 0 1303 416" width="1303px" zoomAndPan="magnify"><defs/><g><!--MD5=[7bd246584a64dd4b0f566e68c9a4a068]
class Fahrzeug--><g id="elem_Fahrzeug"><rect codeLine="1" fill="#F1F1F1" height="83.2188" id="Fahrzeug" rx="2.5" ry="2.5" style="stroke:#181818;stroke-width:0.5;" width="516" x="335.5" y="51"/><ellipse cx="558.75" cy="67" fill="#B4A7E5" rx="11" ry="11" style="stroke:#181818;stroke-width:1.0;"/><path d="M559.7031,63.6406 L559.7031,70.2969 L561.4219,70.2969 Q562.0313,70.2969 562.2969,70.5313 Q562.5625,70.7656 562.5625,71.1563 Q562.5625,71.5313 562.2969,71.7656 Q562.0313,72 561.4219,72 L556.2813,72 Q555.6719,72 555.4063,71.7656 Q555.1406,71.5313 555.1406,71.1406 Q555.1406,70.7656 555.4063,70.5313 Q555.6719,70.2969 556.2813,70.2969 L558,70.2969 L558,63.6406 L556.2813,63.6406 Q555.6719,63.6406 555.4063,63.4063 Q555.1406,63.1719 555.1406,62.7813 Q555.1406,62.4063 555.4063,62.1719 Q555.6719,61.9375 556.2813,61.9375 L561.4219,61.9375 Q562.0313,61.9375 562.2969,62.1719 Q562.5625,62.4063 562.5625,62.7813 Q562.5625,63.1719 562.2969,63.4063 Q562.0313,63.6406 561.4219,63.6406 L559.7031,63.6406 Z " fill="#000000"/><text fill="#000000" font-family="sans-serif" font-size="14" font-style="italic" lengthAdjust="spacing" textLength="61" x="579.25" y="72.7285">Fahrzeug</text><line style="stroke:#181818;stroke-width:0.5;" x1="336.5" x2="850.5" y1="83" y2="83"/><line style="stroke:#181818;stroke-width:1.0;" x1="336.5" x2="850.5" y1="91" y2="91"/><ellipse cx="346.5" cy="105.3047" fill="#84BE84" rx="3" ry="3" style="stroke:#038048;stroke-width:1.0;"/><text fill="#000000" font-family="sans-serif" font-size="14" lengthAdjust="spacing" textLength="490" x="355.5" y="109.5332">mieten(ausleihDatum: String, uhrzeit: String, fahrer: String, kmStand: int): bool</text><text fill="#000000" font-family="sans-serif" font-size="14" lengthAdjust="spacing" textLength="4" x="355.5" y="127.1426"> </text></g><!--MD5=[b5aec2d829a0280ef022f965c75acd95]
class Buchung--><g id="elem_Buchung"><rect codeLine="6" fill="#F1F1F1" height="171.2656" id="Buchung" rx="2.5" ry="2.5" style="stroke:#181818;stroke-width:0.5;" width="409" x="887" y="7"/><ellipse cx="1059.25" cy="23" fill="#ADD1B2" rx="11" ry="11" style="stroke:#181818;stroke-width:1.0;"/><path d="M1062.0156,18.875 Q1062.1719,18.6563 1062.3594,18.5469 Q1062.5469,18.4375 1062.7656,18.4375 Q1063.1406,18.4375 1063.375,18.7031 Q1063.6094,18.9531 1063.6094,19.5625 L1063.6094,21.0156 Q1063.6094,21.625 1063.375,21.8906 Q1063.1406,22.1563 1062.7656,22.1563 Q1062.4219,22.1563 1062.2188,21.9531 Q1062.0156,21.7656 1061.9063,21.25 Q1061.8594,20.8906 1061.6719,20.7031 Q1061.3438,20.3281 1060.7344,20.1094 Q1060.125,19.8906 1059.5,19.8906 Q1058.7344,19.8906 1058.0938,20.2188 Q1057.4688,20.5469 1056.9688,21.2969 Q1056.4844,22.0469 1056.4844,23.0781 L1056.4844,24.1719 Q1056.4844,25.4063 1057.375,26.2344 Q1058.2656,27.0469 1059.8594,27.0469 Q1060.7969,27.0469 1061.4531,26.7969 Q1061.8438,26.6406 1062.2656,26.2031 Q1062.5313,25.9375 1062.6719,25.8594 Q1062.8281,25.7813 1063.0313,25.7813 Q1063.3594,25.7813 1063.6094,26.0469 Q1063.875,26.2969 1063.875,26.6406 Q1063.875,26.9844 1063.5313,27.3906 Q1063.0313,27.9688 1062.2344,28.2969 Q1061.1563,28.75 1059.8594,28.75 Q1058.3438,28.75 1057.1406,28.125 Q1056.1563,27.625 1055.4688,26.5625 Q1054.7813,25.4844 1054.7813,24.2031 L1054.7813,23.0469 Q1054.7813,21.7188 1055.3906,20.5781 Q1056.0156,19.4219 1057.1094,18.8125 Q1058.2031,18.1875 1059.4375,18.1875 Q1060.1719,18.1875 1060.8125,18.3594 Q1061.4688,18.5156 1062.0156,18.875 Z " fill="#000000"/><text fill="#000000" font-family="sans-serif" font-size="14" lengthAdjust="spacing" textLength="56" x="1079.75" y="28.7285">Buchung</text><line style="stroke:#181818;stroke-width:0.5;" x1="888" x2="1295" y1="39" y2="39"/><rect fill="none" height="6" style="stroke:#C82930;stroke-width:1.0;" width="6" x="895" y="50.3047"/><text fill="#000000" font-family="sans-serif" font-size="14" lengthAdjust="spacing" textLength="131" x="907" y="57.5332">ausleihDatum: String</text><rect fill="none" height="6" style="stroke:#C82930;stroke-width:1.0;" width="6" x="895" y="67.9141"/><text fill="#000000" font-family="sans-serif" font-size="14" lengthAdjust="spacing" textLength="87" x="907" y="75.1426">uhrzeit: String</text><rect fill="none" height="6" style="stroke:#C82930;stroke-width:1.0;" width="6" x="895" y="85.5234"/><text fill="#000000" font-family="sans-serif" font-size="14" lengthAdjust="spacing" textLength="83" x="907" y="92.752">fahrer: String</text><line style="stroke:#181818;stroke-width:1.0;" x1="888" x2="1295" y1="99.8281" y2="99.8281"/><ellipse cx="898" cy="114.1328" fill="#84BE84" rx="3" ry="3" style="stroke:#038048;stroke-width:1.0;"/><text fill="#000000" font-family="sans-serif" font-size="14" lengthAdjust="spacing" textLength="383" x="907" y="118.3613">Buchung(ausleihDatum: String, uhrzeit: String, fahrer: String)</text><ellipse cx="898" cy="131.7422" fill="#84BE84" rx="3" ry="3" style="stroke:#038048;stroke-width:1.0;"/><text fill="#000000" font-family="sans-serif" font-size="14" lengthAdjust="spacing" textLength="162" x="907" y="135.9707">getAusleihDatum(): String</text><ellipse cx="898" cy="149.3516" fill="#84BE84" rx="3" ry="3" style="stroke:#038048;stroke-width:1.0;"/><text fill="#000000" font-family="sans-serif" font-size="14" lengthAdjust="spacing" textLength="118" x="907" y="153.5801">getUhrzeit(): String</text><ellipse cx="898" cy="166.9609" fill="#84BE84" rx="3" ry="3" style="stroke:#038048;stroke-width:1.0;"/><text fill="#000000" font-family="sans-serif" font-size="14" lengthAdjust="spacing" textLength="114" x="907" y="171.1895">getFahrer():String</text></g><!--MD5=[70cbdd4c801aae6e421ae7fd2886b804]
class PKW--><g id="elem_PKW"><rect codeLine="17" fill="#F1F1F1" height="171.2656" id="PKW" rx="2.5" ry="2.5" style="stroke:#181818;stroke-width:0.5;" width="561" x="7" y="238"/><ellipse cx="267.75" cy="254" fill="#ADD1B2" rx="11" ry="11" style="stroke:#181818;stroke-width:1.0;"/><path d="M270.5156,249.875 Q270.6719,249.6563 270.8594,249.5469 Q271.0469,249.4375 271.2656,249.4375 Q271.6406,249.4375 271.875,249.7031 Q272.1094,249.9531 272.1094,250.5625 L272.1094,252.0156 Q272.1094,252.625 271.875,252.8906 Q271.6406,253.1563 271.2656,253.1563 Q270.9219,253.1563 270.7188,252.9531 Q270.5156,252.7656 270.4063,252.25 Q270.3594,251.8906 270.1719,251.7031 Q269.8438,251.3281 269.2344,251.1094 Q268.625,250.8906 268,250.8906 Q267.2344,250.8906 266.5938,251.2188 Q265.9688,251.5469 265.4688,252.2969 Q264.9844,253.0469 264.9844,254.0781 L264.9844,255.1719 Q264.9844,256.4063 265.875,257.2344 Q266.7656,258.0469 268.3594,258.0469 Q269.2969,258.0469 269.9531,257.7969 Q270.3438,257.6406 270.7656,257.2031 Q271.0313,256.9375 271.1719,256.8594 Q271.3281,256.7813 271.5313,256.7813 Q271.8594,256.7813 272.1094,257.0469 Q272.375,257.2969 272.375,257.6406 Q272.375,257.9844 272.0313,258.3906 Q271.5313,258.9688 270.7344,259.2969 Q269.6563,259.75 268.3594,259.75 Q266.8438,259.75 265.6406,259.125 Q264.6563,258.625 263.9688,257.5625 Q263.2813,256.4844 263.2813,255.2031 L263.2813,254.0469 Q263.2813,252.7188 263.8906,251.5781 Q264.5156,250.4219 265.6094,249.8125 Q266.7031,249.1875 267.9375,249.1875 Q268.6719,249.1875 269.3125,249.3594 Q269.9688,249.5156 270.5156,249.875 Z " fill="#000000"/><text fill="#000000" font-family="sans-serif" font-size="14" lengthAdjust="spacing" textLength="31" x="288.25" y="259.7285">PKW</text><line style="stroke:#181818;stroke-width:0.5;" x1="8" x2="567" y1="270" y2="270"/><rect fill="none" height="6" style="stroke:#C82930;stroke-width:1.0;" width="6" x="15" y="281.3047"/><text fill="#000000" font-family="sans-serif" font-size="14" lengthAdjust="spacing" textLength="78" x="27" y="288.5332">farbe: String</text><rect fill="none" height="6" style="stroke:#C82930;stroke-width:1.0;" width="6" x="15" y="298.9141"/><text fill="#000000" font-family="sans-serif" font-size="14" lengthAdjust="spacing" textLength="82" x="27" y="306.1426">kategorie: int</text><rect fill="none" height="6" style="stroke:#C82930;stroke-width:1.0;" width="6" x="15" y="316.5234"/><text fill="#000000" font-family="sans-serif" font-size="14" lengthAdjust="spacing" textLength="86" x="27" y="323.752">modell: String</text><rect fill="none" height="6" style="stroke:#C82930;stroke-width:1.0;" width="6" x="15" y="334.1328"/><text fill="#000000" font-family="sans-serif" font-size="14" lengthAdjust="spacing" textLength="137" x="27" y="341.3613">ertzulassungsJahr: int</text><rect fill="none" height="6" style="stroke:#C82930;stroke-width:1.0;" width="6" x="15" y="351.7422"/><text fill="#000000" font-family="sans-serif" font-size="14" lengthAdjust="spacing" textLength="78" x="27" y="358.9707">kmStand: int</text><line style="stroke:#181818;stroke-width:1.0;" x1="8" x2="567" y1="366.0469" y2="366.0469"/><ellipse cx="18" cy="380.3516" fill="#84BE84" rx="3" ry="3" style="stroke:#038048;stroke-width:1.0;"/><text fill="#000000" font-family="sans-serif" font-size="14" lengthAdjust="spacing" textLength="535" x="27" y="384.5801">Pkw(kategorie: int, modell: String, farbe: String, erstzulassungsJahr: int, kmStand: int)</text><ellipse cx="18" cy="397.9609" fill="#84BE84" rx="3" ry="3" style="stroke:#038048;stroke-width:1.0;"/><text fill="#000000" font-family="sans-serif" font-size="14" lengthAdjust="spacing" textLength="490" x="27" y="402.1895">mieten(ausleihDatum: String, uhrzeit: String, fahrer: String, kmStand: int): bool</text></g><!--MD5=[be750fe08bbd4d61de7e13958f267bed]
class LKW--><g id="elem_LKW"><rect codeLine="28" fill="#F1F1F1" height="171.2656" id="LKW" rx="2.5" ry="2.5" style="stroke:#181818;stroke-width:0.5;" width="595" x="603" y="238"/><ellipse cx="881.25" cy="254" fill="#ADD1B2" rx="11" ry="11" style="stroke:#181818;stroke-width:1.0;"/><path d="M884.0156,249.875 Q884.1719,249.6563 884.3594,249.5469 Q884.5469,249.4375 884.7656,249.4375 Q885.1406,249.4375 885.375,249.7031 Q885.6094,249.9531 885.6094,250.5625 L885.6094,252.0156 Q885.6094,252.625 885.375,252.8906 Q885.1406,253.1563 884.7656,253.1563 Q884.4219,253.1563 884.2188,252.9531 Q884.0156,252.7656 883.9063,252.25 Q883.8594,251.8906 883.6719,251.7031 Q883.3438,251.3281 882.7344,251.1094 Q882.125,250.8906 881.5,250.8906 Q880.7344,250.8906 880.0938,251.2188 Q879.4688,251.5469 878.9688,252.2969 Q878.4844,253.0469 878.4844,254.0781 L878.4844,255.1719 Q878.4844,256.4063 879.375,257.2344 Q880.2656,258.0469 881.8594,258.0469 Q882.7969,258.0469 883.4531,257.7969 Q883.8438,257.6406 884.2656,257.2031 Q884.5313,256.9375 884.6719,256.8594 Q884.8281,256.7813 885.0313,256.7813 Q885.3594,256.7813 885.6094,257.0469 Q885.875,257.2969 885.875,257.6406 Q885.875,257.9844 885.5313,258.3906 Q885.0313,258.9688 884.2344,259.2969 Q883.1563,259.75 881.8594,259.75 Q880.3438,259.75 879.1406,259.125 Q878.1563,258.625 877.4688,257.5625 Q876.7813,256.4844 876.7813,255.2031 L876.7813,254.0469 Q876.7813,252.7188 877.3906,251.5781 Q878.0156,250.4219 879.1094,249.8125 Q880.2031,249.1875 881.4375,249.1875 Q882.1719,249.1875 882.8125,249.3594 Q883.4688,249.5156 884.0156,249.875 Z " fill="#000000"/><text fill="#000000" font-family="sans-serif" font-size="14" lengthAdjust="spacing" textLength="30" x="901.75" y="259.7285">LKW</text><line style="stroke:#181818;stroke-width:0.5;" x1="604" x2="1197" y1="270" y2="270"/><rect fill="none" height="6" style="stroke:#C82930;stroke-width:1.0;" width="6" x="611" y="281.3047"/><text fill="#000000" font-family="sans-serif" font-size="14" lengthAdjust="spacing" textLength="107" x="623" y="288.5332">maxZuladung: Int</text><rect fill="none" height="6" style="stroke:#C82930;stroke-width:1.0;" width="6" x="611" y="298.9141"/><text fill="#000000" font-family="sans-serif" font-size="14" lengthAdjust="spacing" textLength="82" x="623" y="306.1426">kategorie: int</text><rect fill="none" height="6" style="stroke:#C82930;stroke-width:1.0;" width="6" x="611" y="316.5234"/><text fill="#000000" font-family="sans-serif" font-size="14" lengthAdjust="spacing" textLength="86" x="623" y="323.752">modell: String</text><rect fill="none" height="6" style="stroke:#C82930;stroke-width:1.0;" width="6" x="611" y="334.1328"/><text fill="#000000" font-family="sans-serif" font-size="14" lengthAdjust="spacing" textLength="137" x="623" y="341.3613">ertzulassungsJahr: int</text><rect fill="none" height="6" style="stroke:#C82930;stroke-width:1.0;" width="6" x="611" y="351.7422"/><text fill="#000000" font-family="sans-serif" font-size="14" lengthAdjust="spacing" textLength="78" x="623" y="358.9707">kmStand: int</text><line style="stroke:#181818;stroke-width:1.0;" x1="604" x2="1197" y1="366.0469" y2="366.0469"/><ellipse cx="614" cy="380.3516" fill="#84BE84" rx="3" ry="3" style="stroke:#038048;stroke-width:1.0;"/><text fill="#000000" font-family="sans-serif" font-size="14" lengthAdjust="spacing" textLength="569" x="623" y="384.5801">LKW(kategorie: int, modell: String, maxZuladung: Int, erstzulassungsJahr: int, kmStand: int)</text><ellipse cx="614" cy="397.9609" fill="#84BE84" rx="3" ry="3" style="stroke:#038048;stroke-width:1.0;"/><text fill="#000000" font-family="sans-serif" font-size="14" lengthAdjust="spacing" textLength="490" x="623" y="402.1895">mieten(ausleihDatum: String, uhrzeit: String, fahrer: String, kmStand: int): bool</text></g><!--MD5=[2e110b2d9cb066a1d109d39ef95f196c]
reverse link Fahrzeug to LKW--><g id="link_Fahrzeug_LKW"><path codeLine="39" d="M664.1,146.16 C700.52,173.33 745.85,207.14 787.04,237.87 " fill="none" id="Fahrzeug-backto-LKW" style="stroke:#181818;stroke-width:1.0;"/><polygon fill="none" points="659.88,151.75,648.03,134.18,668.25,140.52,659.88,151.75" style="stroke:#181818;stroke-width:1.0;"/></g><!--MD5=[8f8565ebad3e8092791bc23dd58ad7fe]
reverse link Fahrzeug to PKW--><g id="link_Fahrzeug_PKW"><path codeLine="40" d="M522.64,146.53 C486.42,173.64 441.46,207.28 400.59,237.87 " fill="none" id="Fahrzeug-backto-PKW" style="stroke:#181818;stroke-width:1.0;"/><polygon fill="none" points="518.94,140.56,539.15,134.18,527.33,151.76,518.94,140.56" style="stroke:#181818;stroke-width:1.0;"/></g><!--MD5=[c378be5859f231fa30c47f65e44c51f8]
reverse link Fahrzeug to Buchung--><g id="link_Fahrzeug_Buchung"><path codeLine="42" d="M864.91,92.5 C872.23,92.5 879.54,92.5 886.86,92.5 " fill="none" id="Fahrzeug-backto-Buchung" style="stroke:#181818;stroke-width:1.0;"/><polygon fill="#181818" points="851.74,92.5,857.74,96.5,863.74,92.5,857.74,88.5,851.74,92.5" style="stroke:#181818;stroke-width:1.0;"/><text fill="#000000" font-family="sans-serif" font-size="13" lengthAdjust="spacing" textLength="107" x="772.204" y="82.2069">- buchungen[] 0...*</text></g><!--MD5=[19e259bcc69b9ce6f47fe14fb2e43c96]
@startuml
interface Fahrzeug{
    - -
  + mieten(ausleihDatum: String, uhrzeit: String, fahrer: String, kmStand: int): bool

}
class Buchung {
  - ausleihDatum: String 
  - uhrzeit: String 
  - fahrer: String
  - -
  + Buchung(ausleihDatum: String, uhrzeit: String, fahrer: String)            
  + getAusleihDatum(): String
  + getUhrzeit(): String
  + getFahrer():String
}

class PKW{
  - farbe: String
  - kategorie: int
  - modell: String
  - ertzulassungsJahr: int
  - kmStand: int
  - -
  + Pkw(kategorie: int, modell: String, farbe: String, erstzulassungsJahr: int, kmStand: int)
  + mieten(ausleihDatum: String, uhrzeit: String, fahrer: String, kmStand: int): bool
}

class LKW{
  - maxZuladung: Int
  - kategorie: int
  - modell: String
  - ertzulassungsJahr: int
  - kmStand: int
- -
  + LKW(kategorie: int, modell: String, maxZuladung: Int, erstzulassungsJahr: int, kmStand: int)
  + mieten(ausleihDatum: String, uhrzeit: String, fahrer: String, kmStand: int): bool
}

Fahrzeug <|- - LKW
Fahrzeug <|- - PKW

Fahrzeug *- "- buchungen[] 0...*" Buchung

@enduml

PlantUML version 1.2022.7(Mon Aug 22 19:01:30 CEST 2022)
(GPL source distribution)
Java Runtime: OpenJDK Runtime Environment
JVM: OpenJDK 64-Bit Server VM
Default Encoding: UTF-8
Language: de
Country: DE
--></g></svg>