<?xml version="1.0" encoding="us-ascii" standalone="no"?><svg xmlns="http://www.w3.org/2000/svg" xmlns:xlink="http://www.w3.org/1999/xlink" contentStyleType="text/css" height="469px" preserveAspectRatio="none" style="width:893px;height:469px;background:#FFFFFF;" version="1.1" viewBox="0 0 893 469" width="893px" zoomAndPan="magnify"><defs/><g><!--cluster Browser--><g id="cluster_Browser"><rect fill="none" height="97.48" rx="2.5" ry="2.5" style="stroke:#181818;stroke-width:1.0;" width="102" x="7" y="54"/><path d="M75,54 L75,63.4883 L65,73.4883 L7,73.4883 " fill="none" style="stroke:#181818;stroke-width:1.0;"/><text fill="#000000" font-family="sans-serif" font-size="14" font-weight="bold" lengthAdjust="spacing" textLength="58" x="10" y="68.5352">Browser</text></g><!--cluster small Br?ckenkopf--><g id="cluster_small Br&#252;ckenkopf"><polygon fill="none" points="133,16,143,6,510,6,510,165.48,500,175.48,133,175.48,133,16" style="stroke:#181818;stroke-width:1.0;"/><line style="stroke:#181818;stroke-width:1.0;" x1="500" x2="510" y1="16" y2="6"/><line style="stroke:#181818;stroke-width:1.0;" x1="133" x2="500" y1="16" y2="16"/><line style="stroke:#181818;stroke-width:1.0;" x1="500" x2="500" y1="16" y2="175.48"/><text fill="#000000" font-family="sans-serif" font-size="14" font-weight="bold" lengthAdjust="spacing" textLength="135" x="250" y="32.5352">small Br&#252;ckenkopf</text></g><!--cluster Docker Container--><g id="cluster_Docker Container"><rect fill="none" height="97.48" rx="2.5" ry="2.5" style="stroke:#181818;stroke-width:1.0;" width="329" x="157" y="54"/><path d="M292,54 L292,63.4883 L282,73.4883 L157,73.4883 " fill="none" style="stroke:#181818;stroke-width:1.0;"/><text fill="#000000" font-family="sans-serif" font-size="14" font-weight="bold" lengthAdjust="spacing" textLength="125" x="160" y="68.5352">Docker Container</text></g><!--cluster central Service--><g id="cluster_central Service"><polygon fill="none" points="258,209.48,268,199.48,438,199.48,438,291.97,428,301.97,258,301.97,258,209.48" style="stroke:#181818;stroke-width:1.0;"/><line style="stroke:#181818;stroke-width:1.0;" x1="428" x2="438" y1="209.48" y2="199.48"/><line style="stroke:#181818;stroke-width:1.0;" x1="258" x2="428" y1="209.48" y2="209.48"/><line style="stroke:#181818;stroke-width:1.0;" x1="428" x2="428" y1="209.48" y2="301.97"/><text fill="#000000" font-family="sans-serif" font-size="14" font-weight="bold" lengthAdjust="spacing" textLength="104" x="292" y="226.0152">central Service</text></g><!--cluster central Server--><g id="cluster_central Server"><path d="M464.5,204.48 L563.5,204.48 A3.75,3.75 0 0 1 566,206.98 L573,226.9683 L883.5,226.9683 A2.5,2.5 0 0 1 886,229.4683 L886,459.96 A2.5,2.5 0 0 1 883.5,462.46 L464.5,462.46 A2.5,2.5 0 0 1 462,459.96 L462,206.98 A2.5,2.5 0 0 1 464.5,204.48 " fill="none" style="stroke:#000000;stroke-width:1.5;"/><line style="stroke:#000000;stroke-width:1.5;" x1="462" x2="573" y1="226.9683" y2="226.9683"/><text fill="#000000" font-family="sans-serif" font-size="14" font-weight="bold" lengthAdjust="spacing" textLength="98" x="466" y="220.0152">central Server</text></g><g id="cluster_##12"><path d="M684.257,368.4684 C688.2302,362.1049 693.7991,362.3124 696.9193,369.2786 C700.6326,363.3976 704.7758,360.9917 710.1246,367.5411 C712.3073,361.6436 717.8954,360.7522 721.6885,365.8469 C724.7136,359.6706 730.317,359.9244 734.2282,364.8456 C737.2102,360.0621 743.0827,359.0194 745.9504,364.9704 C748.3352,358.8098 754.4055,359.0017 757.9969,363.622 C760.9176,356.2104 766.2163,355.8161 770.8243,362.034 C774.8498,356.6841 780.4498,356.0671 783.2907,363.2155 C786.8438,358.4548 791.8205,360.0707 793.6421,365.0549 C798.0277,358.5831 803.6413,359.5999 806.4099,366.5888 C809.8936,359.5837 815.1445,359.5747 819.5931,365.6136 C823.3119,361.8493 827.7423,361.3492 829.7656,367.3753 C834.2525,359.6189 840.094,360.7505 844.1118,367.8289 C849.3422,362.7748 852.7162,363.8553 855.5377,370.236 C862.8599,373.8195 861.9561,380.9313 856.0233,384.9522 C863.7833,389.4174 863.2508,396.0728 856.8911,401.2881 C863.7192,406.5015 863.242,411.4807 855.9565,415.7842 C863.7699,420.4864 862.2568,426.4586 856.0133,431.2125 C852.7339,437.5488 847.7645,437.8807 842.9225,433.0432 C838.7846,439.8777 834.8299,439.2625 829.9335,433.8475 C826.5147,438.9156 821.926,439.1304 818.2064,434.2003 C815.5066,438.8424 810.6217,439.1974 807.6162,434.5489 C804.8427,441.0004 798.8826,442.5387 793.886,437.1204 C789.6514,442.4247 786.1319,442.6779 782.4052,436.6077 C778.7126,442.6702 774.67,444.1144 769.7625,437.8541 C765.7831,442.2564 761.0893,442.5731 758.2061,436.6295 C754.7342,442.1963 749.0803,442.5694 746.3875,435.8783 C742.3212,442.7733 738.2457,443.51 733.2619,436.7609 C728.6604,442.0133 724.6735,441.0868 721.8367,434.9851 C716.7364,439.7651 711.8987,439.0466 709.0091,432.4848 C705.8932,437.9435 701.0332,438.0587 697.2136,433.297 C691.6556,439.4167 687.2452,436.7926 684.4255,430.4803 C677.5296,426.3194 676.6768,420.1187 684.552,416.0877 C676.4708,413.1601 675.274,407.1672 681.7978,401.485 C675.8562,395.3683 676.6306,389.7255 684.3916,385.8874 C676.3636,381.2911 674.8719,373.1993 684.257,368.4684 " fill="none" style="stroke:#181818;stroke-width:1.0;"/></g><!--cluster Mrbs--><g id="cluster_Mrbs"><path d="M486,335.97 C486,325.97 569,325.97 569,325.97 C569,325.97 652,325.97 652,335.97 L652,428.46 C652,438.46 569,438.46 569,438.46 C569,438.46 486,438.46 486,428.46 L486,335.97 " fill="none" style="stroke:#181818;stroke-width:1.0;"/><path d="M486,335.97 C486,345.97 569,345.97 569,345.97 C569,345.97 652,345.97 652,335.97 " fill="none" style="stroke:#181818;stroke-width:1.0;"/><text fill="#000000" font-family="sans-serif" font-size="14" font-weight="bold" lengthAdjust="spacing" textLength="36" x="551" y="361.5052">Mrbs</text></g><!--entity User--><g id="elem_User"><rect fill="#F1F1F1" height="46.4883" rx="2.5" ry="2.5" style="stroke:#181818;stroke-width:0.5;" width="71" x="22.5" y="89"/><rect fill="#F1F1F1" height="10" style="stroke:#181818;stroke-width:0.5;" width="15" x="73.5" y="94"/><rect fill="#F1F1F1" height="2" style="stroke:#181818;stroke-width:0.5;" width="4" x="71.5" y="96"/><rect fill="#F1F1F1" height="2" style="stroke:#181818;stroke-width:0.5;" width="4" x="71.5" y="100"/><text fill="#000000" font-family="sans-serif" font-size="14" lengthAdjust="spacing" textLength="31" x="37.5" y="122.5352">User</text></g><!--entity Client--><g id="elem_Client"><rect fill="#F1F1F1" height="46.4883" rx="2.5" ry="2.5" style="stroke:#181818;stroke-width:0.5;" width="80" x="173" y="89"/><rect fill="#F1F1F1" height="10" style="stroke:#181818;stroke-width:0.5;" width="15" x="233" y="94"/><rect fill="#F1F1F1" height="2" style="stroke:#181818;stroke-width:0.5;" width="4" x="231" y="96"/><rect fill="#F1F1F1" height="2" style="stroke:#181818;stroke-width:0.5;" width="4" x="231" y="100"/><text fill="#000000" font-family="sans-serif" font-size="14" lengthAdjust="spacing" textLength="40" x="188" y="122.5352">Client</text></g><!--entity Samply_Proxy_Client--><g id="elem_Samply_Proxy_Client"><rect fill="#F1F1F1" height="46.4883" rx="2.5" ry="2.5" style="stroke:#181818;stroke-width:0.5;" width="182" x="288" y="89"/><rect fill="#F1F1F1" height="10" style="stroke:#181818;stroke-width:0.5;" width="15" x="450" y="94"/><rect fill="#F1F1F1" height="2" style="stroke:#181818;stroke-width:0.5;" width="4" x="448" y="96"/><rect fill="#F1F1F1" height="2" style="stroke:#181818;stroke-width:0.5;" width="4" x="448" y="100"/><text fill="#000000" font-family="sans-serif" font-size="14" lengthAdjust="spacing" textLength="142" x="303" y="122.5352">Samply_Proxy_Client</text></g><!--entity Broker--><g id="elem_Broker"><rect fill="#F1F1F1" height="46.4883" rx="2.5" ry="2.5" style="stroke:#181818;stroke-width:0.5;" width="85" x="336.5" y="239.48"/><rect fill="#F1F1F1" height="10" style="stroke:#181818;stroke-width:0.5;" width="15" x="401.5" y="244.48"/><rect fill="#F1F1F1" height="2" style="stroke:#181818;stroke-width:0.5;" width="4" x="399.5" y="246.48"/><rect fill="#F1F1F1" height="2" style="stroke:#181818;stroke-width:0.5;" width="4" x="399.5" y="250.48"/><text fill="#000000" font-family="sans-serif" font-size="14" lengthAdjust="spacing" textLength="45" x="351.5" y="273.0152">Broker</text></g><!--entity Samply_Proxy_Server--><g id="elem_Samply_Proxy_Server"><rect fill="#F1F1F1" height="46.4883" rx="2.5" ry="2.5" style="stroke:#181818;stroke-width:0.5;" width="185" x="576.5" y="239.48"/><rect fill="#F1F1F1" height="10" style="stroke:#181818;stroke-width:0.5;" width="15" x="741.5" y="244.48"/><rect fill="#F1F1F1" height="2" style="stroke:#181818;stroke-width:0.5;" width="4" x="739.5" y="246.48"/><rect fill="#F1F1F1" height="2" style="stroke:#181818;stroke-width:0.5;" width="4" x="739.5" y="250.48"/><text fill="#000000" font-family="sans-serif" font-size="14" lengthAdjust="spacing" textLength="145" x="591.5" y="273.0152">Samply_Proxy_Server</text></g><!--entity Server_REST_API--><g id="elem_Server_REST_API"><rect fill="#F1F1F1" height="46.4883" rx="2.5" ry="2.5" style="stroke:#181818;stroke-width:0.5;" width="153" x="692.5" y="375.97"/><rect fill="#F1F1F1" height="10" style="stroke:#181818;stroke-width:0.5;" width="15" x="825.5" y="380.97"/><rect fill="#F1F1F1" height="2" style="stroke:#181818;stroke-width:0.5;" width="4" x="823.5" y="382.97"/><rect fill="#F1F1F1" height="2" style="stroke:#181818;stroke-width:0.5;" width="4" x="823.5" y="386.97"/><text fill="#000000" font-family="sans-serif" font-size="14" lengthAdjust="spacing" textLength="113" x="707.5" y="409.5052">Server_REST_API</text></g><!--entity Verbis_planer--><g id="elem_Verbis_planer"><rect fill="#F1F1F1" height="46.4883" rx="2.5" ry="2.5" style="stroke:#181818;stroke-width:0.5;" width="134" x="502" y="375.97"/><rect fill="#F1F1F1" height="10" style="stroke:#181818;stroke-width:0.5;" width="15" x="616" y="380.97"/><rect fill="#F1F1F1" height="2" style="stroke:#181818;stroke-width:0.5;" width="4" x="614" y="382.97"/><rect fill="#F1F1F1" height="2" style="stroke:#181818;stroke-width:0.5;" width="4" x="614" y="386.97"/><text fill="#000000" font-family="sans-serif" font-size="14" lengthAdjust="spacing" textLength="94" x="517" y="409.5052">Verbis_planer</text></g><!--link User to Client--><g id="link_User_Client"><path d="M93.72,112.24 C120.13,112.24 146.53,112.24 172.93,112.24 " fill="none" id="User-Client" style="stroke:#181818;stroke-width:1.0;"/></g><!--link Client to Samply_Proxy_Client--><g id="link_Client_Samply_Proxy_Client"><path d="M253.2,112.24 C264.67,112.24 276.13,112.24 287.6,112.24 " fill="none" id="Client-Samply_Proxy_Client" style="stroke:#181818;stroke-width:1.0;"/></g><!--link Samply_Proxy_Client to Broker--><g id="link_Samply_Proxy_Client_Broker"><path d="M379,135.79 C379,163.86 379,211.51 379,239.45 " fill="none" id="Samply_Proxy_Client-Broker" style="stroke:#181818;stroke-width:1.0;"/></g><!--link Broker to Samply_Proxy_Server--><g id="link_Broker_Samply_Proxy_Server"><path d="M421.76,262.73 C473.27,262.73 524.78,262.73 576.29,262.73 " fill="none" id="Broker-Samply_Proxy_Server" style="stroke:#181818;stroke-width:1.0;"/></g><!--link Samply_Proxy_Server to Server_REST_API--><g id="link_Samply_Proxy_Server_Server_REST_API"><path d="M685.74,286.24 C704.2,311.06 733.73,350.78 752.21,375.63 " fill="none" id="Samply_Proxy_Server-Server_REST_API" style="stroke:#181818;stroke-width:1.0;"/></g><!--link Server_REST_API to Verbis_planer--><g id="link_Server_REST_API_Verbis_planer"><path d="M692.22,399.22 C673.54,399.22 654.86,399.22 636.19,399.22 " fill="none" id="Server_REST_API-Verbis_planer" style="stroke:#181818;stroke-width:1.0;"/></g><!--SRC=[RL3B3e8m4Bpp5OrtFiBNmOE94VLYIBEKOWYb9LjynV1dtlmn2xKMXHwQxSnsTcOpX9AJoGpLLNESa4T0p3dkpICEcY2GAZMqBa48CiFNanLS5ghAN6Tc_o-K8P3CbQmXbrwe4vkBdCiwza04PINkT8FgTgTzjkbkFvSP1a6GYECbP_nhpzWjFWOhO0MS_dfxINvcMSxEOaATqxvDIzBjCjhHwMRLTvH23GbeCsMDYVu9T-2Ov9fM0gHJRbfVTeKazF5TqMAZ6nX5IHZwlAuOIBXWesWdCKWtG5hHlpHl]--></g></svg>