<?xml version="1.0" encoding="us-ascii" standalone="no"?><svg xmlns="http://www.w3.org/2000/svg" xmlns:xlink="http://www.w3.org/1999/xlink" contentStyleType="text/css" height="521px" preserveAspectRatio="none" style="width:2039px;height:521px;background:#FFFFFF;" version="1.1" viewBox="0 0 2039 521" width="2039px" zoomAndPan="magnify"><defs/><g><!--cluster routes--><g id="cluster_routes"><path d="M8.5,6 L55.5,6 A3.75,3.75 0 0 1 58,8.5 L65,28.4883 L2029.5,28.4883 A2.5,2.5 0 0 1 2032,30.9883 L2032,371.21 A2.5,2.5 0 0 1 2029.5,373.71 L8.5,373.71 A2.5,2.5 0 0 1 6,371.21 L6,8.5 A2.5,2.5 0 0 1 8.5,6 " fill="none" style="stroke:#000000;stroke-width:1.5;"/><line style="stroke:#000000;stroke-width:1.5;" x1="6" x2="65" y1="28.4883" y2="28.4883"/><text fill="#000000" font-family="sans-serif" font-size="14" font-weight="bold" lengthAdjust="spacing" textLength="46" x="10" y="21.5352">routes</text><text fill="#000000" font-family="sans-serif" font-size="14" font-style="italic" lengthAdjust="spacing" textLength="72" x="987" y="44.0234">&#171;Modules&#187;</text></g><!--cluster mod--><g id="cluster_mod"><path d="M938.5,65 L971.5,65 A3.75,3.75 0 0 1 974,67.5 L981,87.4883 L1267.5,87.4883 A2.5,2.5 0 0 1 1270,89.9883 L1270,202.61 A2.5,2.5 0 0 1 1267.5,205.11 L938.5,205.11 A2.5,2.5 0 0 1 936,202.61 L936,67.5 A2.5,2.5 0 0 1 938.5,65 " fill="none" style="stroke:#000000;stroke-width:1.5;"/><line style="stroke:#000000;stroke-width:1.5;" x1="936" x2="981" y1="87.4883" y2="87.4883"/><text fill="#000000" font-family="sans-serif" font-size="14" font-weight="bold" lengthAdjust="spacing" textLength="32" x="940" y="80.5352">mod</text><text fill="#000000" font-family="sans-serif" font-size="14" font-style="italic" lengthAdjust="spacing" textLength="72" x="1071" y="103.0234">&#171;Modules&#187;</text></g><!--cluster entities--><g id="cluster_entities"><path d="M299.5,406.71 L355.5,406.71 A3.75,3.75 0 0 1 358,409.21 L365,429.1983 L910.5,429.1983 A2.5,2.5 0 0 1 913,431.6983 L913,511.83 A2.5,2.5 0 0 1 910.5,514.33 L299.5,514.33 A2.5,2.5 0 0 1 297,511.83 L297,409.21 A2.5,2.5 0 0 1 299.5,406.71 " fill="none" style="stroke:#000000;stroke-width:1.5;"/><line style="stroke:#000000;stroke-width:1.5;" x1="297" x2="365" y1="429.1983" y2="429.1983"/><text fill="#000000" font-family="sans-serif" font-size="14" font-weight="bold" lengthAdjust="spacing" textLength="55" x="301" y="422.2452">entities</text></g><!--class read--><g id="elem_read"><rect codeLine="3" fill="#F1F1F1" height="89.5977" id="read" rx="2.5" ry="2.5" style="stroke:#181818;stroke-width:0.5;" width="685" x="22.5" y="268.11"/><ellipse cx="335.75" cy="288.4205" fill="#6A3100" rx="11" ry="11" style="stroke:#181818;stroke-width:1.0;"/><path d="M331.4639,282.5275 L334.3857,282.5275 L335.8633,287.9645 L337.3325,282.5275 L340.271,282.5275 L340.271,294.9205 L338.1626,294.9205 L338.1626,284.9928 L336.8511,290.4132 L334.9004,290.4132 L333.5723,284.9928 L333.5723,294.9205 L331.4639,294.9205 Z " fill="#000000"/><text fill="#000000" font-family="sans-serif" font-size="12" font-style="italic" lengthAdjust="spacing" textLength="54" x="354.25" y="284.7116">&#171;Module&#187;</text><text fill="#000000" font-family="sans-serif" font-size="14" lengthAdjust="spacing" textLength="31" x="365.75" y="300.778">read</text><line style="stroke:#181818;stroke-width:0.5;" x1="23.5" x2="706.5" y1="308.7311" y2="308.7311"/><line style="stroke:#181818;stroke-width:1.0;" x1="23.5" x2="706.5" y1="316.7311" y2="316.7311"/><ellipse cx="33.5" cy="330.4752" fill="#84BE84" rx="3" ry="3" style="stroke:#038048;stroke-width:1.0;"/><text fill="#000000" font-family="sans-serif" font-size="14" lengthAdjust="spacing" textLength="659" x="42.5" y="334.2663">get_overview_day(db, customday: Option&lt;String&gt;): Result&lt;Vec&lt;EntryRelatedData&gt;, ErrorType&gt;</text><text fill="#000000" font-family="sans-serif" font-size="14" lengthAdjust="spacing" textLength="4" x="42.5" y="350.7545">&#160;</text></g><!--class create--><g id="elem_create"><rect codeLine="8" fill="#F1F1F1" height="89.5977" id="create" rx="2.5" ry="2.5" style="stroke:#181818;stroke-width:0.5;" width="720" x="743" y="268.11"/><ellipse cx="1073.75" cy="288.4205" fill="#6A3100" rx="11" ry="11" style="stroke:#181818;stroke-width:1.0;"/><path d="M1069.4639,282.5275 L1072.3857,282.5275 L1073.8633,287.9645 L1075.3325,282.5275 L1078.271,282.5275 L1078.271,294.9205 L1076.1626,294.9205 L1076.1626,284.9928 L1074.8511,290.4132 L1072.9004,290.4132 L1071.5723,284.9928 L1071.5723,294.9205 L1069.4639,294.9205 Z " fill="#000000"/><text fill="#000000" font-family="sans-serif" font-size="12" font-style="italic" lengthAdjust="spacing" textLength="54" x="1092.25" y="284.7116">&#171;Module&#187;</text><text fill="#000000" font-family="sans-serif" font-size="14" lengthAdjust="spacing" textLength="42" x="1098.25" y="300.778">create</text><line style="stroke:#181818;stroke-width:0.5;" x1="744" x2="1462" y1="308.7311" y2="308.7311"/><line style="stroke:#181818;stroke-width:1.0;" x1="744" x2="1462" y1="316.7311" y2="316.7311"/><ellipse cx="754" cy="330.4752" fill="#84BE84" rx="3" ry="3" style="stroke:#038048;stroke-width:1.0;"/><text fill="#000000" font-family="sans-serif" font-size="14" lengthAdjust="spacing" textLength="551" x="763" y="334.2663">post_joinroom(db, entry_id: i32, user_name): Result&lt;ResponseType, ErrorType&gt;</text><ellipse cx="754" cy="346.9635" fill="#84BE84" rx="3" ry="3" style="stroke:#038048;stroke-width:1.0;"/><text fill="#000000" font-family="sans-serif" font-size="14" lengthAdjust="spacing" textLength="694" x="763" y="350.7545">post_joinrooms(db, room_id: i32, days: Vec&lt;String&gt;, user_name): Result&lt;ResponseType, ErrorType&gt;</text></g><!--class delete--><g id="elem_delete"><rect codeLine="13" fill="#F1F1F1" height="73.1094" id="delete" rx="2.5" ry="2.5" style="stroke:#181818;stroke-width:0.5;" width="517" x="1498.5" y="276.36"/><ellipse cx="1727.75" cy="296.6705" fill="#6A3100" rx="11" ry="11" style="stroke:#181818;stroke-width:1.0;"/><path d="M1723.4639,290.7775 L1726.3857,290.7775 L1727.8633,296.2145 L1729.3325,290.7775 L1732.271,290.7775 L1732.271,303.1705 L1730.1626,303.1705 L1730.1626,293.2428 L1728.8511,298.6632 L1726.9004,298.6632 L1725.5723,293.2428 L1725.5723,303.1705 L1723.4639,303.1705 Z " fill="#000000"/><text fill="#000000" font-family="sans-serif" font-size="12" font-style="italic" lengthAdjust="spacing" textLength="54" x="1746.25" y="292.9616">&#171;Module&#187;</text><text fill="#000000" font-family="sans-serif" font-size="14" lengthAdjust="spacing" textLength="42" x="1752.25" y="309.028">delete</text><line style="stroke:#181818;stroke-width:0.5;" x1="1499.5" x2="2014.5" y1="316.9811" y2="316.9811"/><line style="stroke:#181818;stroke-width:1.0;" x1="1499.5" x2="2014.5" y1="324.9811" y2="324.9811"/><ellipse cx="1509.5" cy="338.7252" fill="#84BE84" rx="3" ry="3" style="stroke:#038048;stroke-width:1.0;"/><text fill="#000000" font-family="sans-serif" font-size="14" lengthAdjust="spacing" textLength="491" x="1518.5" y="342.5163">delete_participant(db, entry_id: i32): Result&lt;ResponseType, ErrorType&gt;</text></g><!--class BeamBackendConnector--><g id="elem_BeamBackendConnector"><rect codeLine="18" fill="#F1F1F1" height="73.1094" id="BeamBackendConnector" rx="2.5" ry="2.5" style="stroke:#181818;stroke-width:0.5;" width="302" x="952" y="116"/><ellipse cx="1015.75" cy="136.3105" fill="#FF7700" rx="11" ry="11" style="stroke:#181818;stroke-width:1.0;"/><path d="M1015.4834,137.3735 Q1013.6323,136.668 1012.9766,135.8918 Q1012.3208,135.1157 1012.3208,133.8042 Q1012.3208,132.1191 1013.3999,131.1563 Q1014.479,130.1934 1016.3633,130.1934 Q1017.2183,130.1934 1018.0732,130.3884 Q1018.9282,130.5835 1019.7666,130.9653 L1019.7666,133.356 Q1018.978,132.7998 1018.1646,132.5093 Q1017.3511,132.2188 1016.5542,132.2188 Q1015.666,132.2188 1015.1929,132.5757 Q1014.7197,132.9326 1014.7197,133.5967 Q1014.7197,134.1113 1015.0642,134.4475 Q1015.4087,134.7837 1016.5044,135.1904 L1017.5586,135.5889 Q1019.0527,136.1367 1019.7583,137.0415 Q1020.4639,137.9463 1020.4639,139.3242 Q1020.4639,141.2002 1019.3557,142.1257 Q1018.2476,143.0513 1016.0063,143.0513 Q1015.085,143.0513 1014.1594,142.8313 Q1013.2339,142.6113 1012.3706,142.1797 L1012.3706,139.6479 Q1013.3501,140.3452 1014.2673,140.6855 Q1015.1846,141.0259 1016.0811,141.0259 Q1016.9858,141.0259 1017.4839,140.615 Q1017.9819,140.2041 1017.9819,139.4653 Q1017.9819,138.9092 1017.6499,138.49 Q1017.3179,138.0708 1016.687,137.8301 Z " fill="#000000"/><text fill="#000000" font-family="sans-serif" font-size="12" font-style="italic" lengthAdjust="spacing" textLength="44" x="1097.25" y="132.6016">&#171;Struct&#187;</text><text fill="#000000" font-family="sans-serif" font-size="14" lengthAdjust="spacing" textLength="166" x="1036.25" y="148.668">BeamBackendConnector</text><line style="stroke:#181818;stroke-width:0.5;" x1="953" x2="1253" y1="156.6211" y2="156.6211"/><line style="stroke:#181818;stroke-width:1.0;" x1="953" x2="1253" y1="164.6211" y2="164.6211"/><ellipse cx="963" cy="178.3652" fill="#84BE84" rx="3" ry="3" style="stroke:#038048;stroke-width:1.0;"/><text fill="#000000" font-family="sans-serif" font-size="14" lengthAdjust="spacing" textLength="276" x="972" y="182.1563">process_task(db: &amp;DatabaseConnection)</text></g><!--class mrbs_area--><g id="elem_mrbs_area"><rect codeLine="26" fill="#F1F1F1" height="56.6211" id="mrbs_area" rx="2.5" ry="2.5" style="stroke:#181818;stroke-width:0.5;" width="104" x="313" y="441.71"/><ellipse cx="328" cy="462.0205" fill="#FF7700" rx="11" ry="11" style="stroke:#181818;stroke-width:1.0;"/><path d="M327.7334,463.0835 Q325.8823,462.378 325.2266,461.6018 Q324.5708,460.8257 324.5708,459.5142 Q324.5708,457.8291 325.6499,456.8663 Q326.729,455.9034 328.6133,455.9034 Q329.4683,455.9034 330.3232,456.0984 Q331.1782,456.2935 332.0166,456.6753 L332.0166,459.066 Q331.228,458.5098 330.4146,458.2193 Q329.6011,457.9288 328.8042,457.9288 Q327.916,457.9288 327.4429,458.2857 Q326.9697,458.6426 326.9697,459.3067 Q326.9697,459.8213 327.3142,460.1575 Q327.6587,460.4937 328.7544,460.9004 L329.8086,461.2989 Q331.3027,461.8467 332.0083,462.7515 Q332.7139,463.6563 332.7139,465.0342 Q332.7139,466.9102 331.6057,467.8357 Q330.4976,468.7613 328.2563,468.7613 Q327.335,468.7613 326.4094,468.5413 Q325.4839,468.3213 324.6206,467.8897 L324.6206,465.3579 Q325.6001,466.0552 326.5173,466.3955 Q327.4346,466.7359 328.3311,466.7359 Q329.2358,466.7359 329.7339,466.325 Q330.2319,465.9141 330.2319,465.1753 Q330.2319,464.6192 329.8999,464.2 Q329.5679,463.7808 328.937,463.5401 Z " fill="#000000"/><text fill="#000000" font-family="sans-serif" font-size="12" font-style="italic" lengthAdjust="spacing" textLength="44" x="356" y="458.3116">&#171;Struct&#187;</text><text fill="#000000" font-family="sans-serif" font-size="14" lengthAdjust="spacing" textLength="72" x="342" y="474.378">mrbs_area</text><line style="stroke:#181818;stroke-width:0.5;" x1="314" x2="416" y1="482.3311" y2="482.3311"/><line style="stroke:#181818;stroke-width:0.5;" x1="314" x2="416" y1="490.3311" y2="490.3311"/></g><!--class mrbs_room--><g id="elem_mrbs_room"><rect codeLine="27" fill="#F1F1F1" height="56.6211" id="mrbs_room" rx="2.5" ry="2.5" style="stroke:#181818;stroke-width:0.5;" width="111" x="451.5" y="441.71"/><ellipse cx="466.5" cy="462.0205" fill="#FF7700" rx="11" ry="11" style="stroke:#181818;stroke-width:1.0;"/><path d="M466.2334,463.0835 Q464.3823,462.378 463.7266,461.6018 Q463.0708,460.8257 463.0708,459.5142 Q463.0708,457.8291 464.1499,456.8663 Q465.229,455.9034 467.1133,455.9034 Q467.9683,455.9034 468.8232,456.0984 Q469.6782,456.2935 470.5166,456.6753 L470.5166,459.066 Q469.728,458.5098 468.9146,458.2193 Q468.1011,457.9288 467.3042,457.9288 Q466.416,457.9288 465.9429,458.2857 Q465.4697,458.6426 465.4697,459.3067 Q465.4697,459.8213 465.8142,460.1575 Q466.1587,460.4937 467.2544,460.9004 L468.3086,461.2989 Q469.8027,461.8467 470.5083,462.7515 Q471.2139,463.6563 471.2139,465.0342 Q471.2139,466.9102 470.1057,467.8357 Q468.9976,468.7613 466.7563,468.7613 Q465.835,468.7613 464.9094,468.5413 Q463.9839,468.3213 463.1206,467.8897 L463.1206,465.3579 Q464.1001,466.0552 465.0173,466.3955 Q465.9346,466.7359 466.8311,466.7359 Q467.7358,466.7359 468.2339,466.325 Q468.7319,465.9141 468.7319,465.1753 Q468.7319,464.6192 468.3999,464.2 Q468.0679,463.7808 467.437,463.5401 Z " fill="#000000"/><text fill="#000000" font-family="sans-serif" font-size="12" font-style="italic" lengthAdjust="spacing" textLength="44" x="498" y="458.3116">&#171;Struct&#187;</text><text fill="#000000" font-family="sans-serif" font-size="14" lengthAdjust="spacing" textLength="79" x="480.5" y="474.378">mrbs_room</text><line style="stroke:#181818;stroke-width:0.5;" x1="452.5" x2="561.5" y1="482.3311" y2="482.3311"/><line style="stroke:#181818;stroke-width:0.5;" x1="452.5" x2="561.5" y1="490.3311" y2="490.3311"/></g><!--class mrbs_entry--><g id="elem_mrbs_entry"><rect codeLine="28" fill="#F1F1F1" height="56.6211" id="mrbs_entry" rx="2.5" ry="2.5" style="stroke:#181818;stroke-width:0.5;" width="109" x="597.5" y="441.71"/><ellipse cx="612.5" cy="462.0205" fill="#FF7700" rx="11" ry="11" style="stroke:#181818;stroke-width:1.0;"/><path d="M612.2334,463.0835 Q610.3823,462.378 609.7266,461.6018 Q609.0708,460.8257 609.0708,459.5142 Q609.0708,457.8291 610.1499,456.8663 Q611.229,455.9034 613.1133,455.9034 Q613.9683,455.9034 614.8232,456.0984 Q615.6782,456.2935 616.5166,456.6753 L616.5166,459.066 Q615.728,458.5098 614.9146,458.2193 Q614.1011,457.9288 613.3042,457.9288 Q612.416,457.9288 611.9429,458.2857 Q611.4697,458.6426 611.4697,459.3067 Q611.4697,459.8213 611.8142,460.1575 Q612.1587,460.4937 613.2544,460.9004 L614.3086,461.2989 Q615.8027,461.8467 616.5083,462.7515 Q617.2139,463.6563 617.2139,465.0342 Q617.2139,466.9102 616.1057,467.8357 Q614.9976,468.7613 612.7563,468.7613 Q611.835,468.7613 610.9094,468.5413 Q609.9839,468.3213 609.1206,467.8897 L609.1206,465.3579 Q610.1001,466.0552 611.0173,466.3955 Q611.9346,466.7359 612.8311,466.7359 Q613.7358,466.7359 614.2339,466.325 Q614.7319,465.9141 614.7319,465.1753 Q614.7319,464.6192 614.3999,464.2 Q614.0679,463.7808 613.437,463.5401 Z " fill="#000000"/><text fill="#000000" font-family="sans-serif" font-size="12" font-style="italic" lengthAdjust="spacing" textLength="44" x="643" y="458.3116">&#171;Struct&#187;</text><text fill="#000000" font-family="sans-serif" font-size="14" lengthAdjust="spacing" textLength="77" x="626.5" y="474.378">mrbs_entry</text><line style="stroke:#181818;stroke-width:0.5;" x1="598.5" x2="705.5" y1="482.3311" y2="482.3311"/><line style="stroke:#181818;stroke-width:0.5;" x1="598.5" x2="705.5" y1="490.3311" y2="490.3311"/></g><!--class mrbs_participants--><g id="elem_mrbs_participants"><rect codeLine="29" fill="#F1F1F1" height="56.6211" id="mrbs_participants" rx="2.5" ry="2.5" style="stroke:#181818;stroke-width:0.5;" width="155" x="741.5" y="441.71"/><ellipse cx="756.5" cy="462.0205" fill="#FF7700" rx="11" ry="11" style="stroke:#181818;stroke-width:1.0;"/><path d="M756.2334,463.0835 Q754.3823,462.378 753.7266,461.6018 Q753.0708,460.8257 753.0708,459.5142 Q753.0708,457.8291 754.1499,456.8663 Q755.229,455.9034 757.1133,455.9034 Q757.9683,455.9034 758.8232,456.0984 Q759.6782,456.2935 760.5166,456.6753 L760.5166,459.066 Q759.728,458.5098 758.9146,458.2193 Q758.1011,457.9288 757.3042,457.9288 Q756.416,457.9288 755.9429,458.2857 Q755.4697,458.6426 755.4697,459.3067 Q755.4697,459.8213 755.8142,460.1575 Q756.1587,460.4937 757.2544,460.9004 L758.3086,461.2989 Q759.8027,461.8467 760.5083,462.7515 Q761.2139,463.6563 761.2139,465.0342 Q761.2139,466.9102 760.1057,467.8357 Q758.9976,468.7613 756.7563,468.7613 Q755.835,468.7613 754.9094,468.5413 Q753.9839,468.3213 753.1206,467.8897 L753.1206,465.3579 Q754.1001,466.0552 755.0173,466.3955 Q755.9346,466.7359 756.8311,466.7359 Q757.7358,466.7359 758.2339,466.325 Q758.7319,465.9141 758.7319,465.1753 Q758.7319,464.6192 758.3999,464.2 Q758.0679,463.7808 757.437,463.5401 Z " fill="#000000"/><text fill="#000000" font-family="sans-serif" font-size="12" font-style="italic" lengthAdjust="spacing" textLength="44" x="810" y="458.3116">&#171;Struct&#187;</text><text fill="#000000" font-family="sans-serif" font-size="14" lengthAdjust="spacing" textLength="123" x="770.5" y="474.378">mrbs_participants</text><line style="stroke:#181818;stroke-width:0.5;" x1="742.5" x2="895.5" y1="482.3311" y2="482.3311"/><line style="stroke:#181818;stroke-width:0.5;" x1="742.5" x2="895.5" y1="490.3311" y2="490.3311"/></g><!--link BeamBackendConnector to read--><g id="link_BeamBackendConnector_read"><path codeLine="33" d="M951.87,185.98 C842.02,209.56 692.03,241.74 571.18,267.67 " fill="none" id="BeamBackendConnector-read" style="stroke:#181818;stroke-width:1.0;"/><text fill="#000000" font-family="sans-serif" font-size="13" lengthAdjust="spacing" textLength="22" x="779" y="234.6784">use</text></g><!--link BeamBackendConnector to create--><g id="link_BeamBackendConnector_create"><path codeLine="34" d="M1103,189.49 C1103,212.67 1103,242.98 1103,267.64 " fill="none" id="BeamBackendConnector-create" style="stroke:#181818;stroke-width:1.0;"/><text fill="#000000" font-family="sans-serif" font-size="13" lengthAdjust="spacing" textLength="22" x="1104" y="234.6784">use</text></g><!--link BeamBackendConnector to delete--><g id="link_BeamBackendConnector_delete"><path codeLine="35" d="M1251.81,189.59 C1358.48,215.42 1501.58,250.06 1608.24,275.89 " fill="none" id="BeamBackendConnector-delete" style="stroke:#181818;stroke-width:1.0;"/><text fill="#000000" font-family="sans-serif" font-size="13" lengthAdjust="spacing" textLength="22" x="1450" y="234.6784">use</text></g><!--link read to mrbs_area--><g id="link_read_mrbs_area"><path codeLine="36" d="M365,357.94 C365,384.81 365,418.33 365,441.48 " fill="none" id="read-mrbs_area" style="stroke:#181818;stroke-width:1.0;"/></g><!--link read to mrbs_room--><g id="link_read_mrbs_room"><path codeLine="37" d="M405.31,357.94 C429.91,384.81 460.59,418.33 481.79,441.48 " fill="none" id="read-mrbs_room" style="stroke:#181818;stroke-width:1.0;"/></g><!--link read to mrbs_entry--><g id="link_read_mrbs_entry"><path codeLine="38" d="M501.25,358.14 C528.33,369.52 555.83,383.06 580,398.71 C598.04,410.39 615.36,427.08 628.5,441.26 " fill="none" id="read-mrbs_entry" style="stroke:#181818;stroke-width:1.0;"/></g><!--link read to mrbs_participants--><g id="link_read_mrbs_participants"><path codeLine="39" d="M611.84,358.2 C650.27,369.06 688.86,382.4 724,398.71 C747.45,409.59 770.83,426.8 788.53,441.46 " fill="none" id="read-mrbs_participants" style="stroke:#181818;stroke-width:1.0;"/></g><!--link create to mrbs_participants--><g id="link_create_mrbs_participants"><path codeLine="40" d="M1022,358.15 C972.98,384.92 911.98,418.24 869.71,441.32 " fill="none" id="create-mrbs_participants" style="stroke:#181818;stroke-width:1.0;"/></g><!--link create to mrbs_entry--><g id="link_create_mrbs_entry"><path codeLine="41" d="M822.28,358.11 C788.11,368.83 754.53,382.16 724,398.71 C704.49,409.28 686.62,426.67 673.56,441.51 " fill="none" id="create-mrbs_entry" style="stroke:#181818;stroke-width:1.0;"/></g><!--link delete to mrbs_participants--><g id="link_delete_mrbs_participants"><path codeLine="42" d="M1623.23,349.9 C1578.26,361.16 1527.67,372.93 1481,381.71 C1271.38,421.16 1021.1,449 896.9,461.55 " fill="none" id="delete-mrbs_participants" style="stroke:#181818;stroke-width:1.0;"/></g><!--SRC=[bPJTQjj048NlzHG3XIGcDgGDD224eFcx2uMaz5QiTmUpZRGhTaOfflZTExjIR3bnJAGBoLgT6NrdTDQjqizgXH1ynqXG50_UT3LIMSA_3EJGjIA2WCh8GpXxcCENxpyklrvSpA2NRfMBHRgSmmgvyYyONYp-hOnQdvdb77H7x1kvo-5dozQxuec3TQjobiCZKbTpyHjrSUSuh1-nLepcLh4gvt0NWW-_rYsMgNywRKPiMk0OFqtNUkBgZxSkUDyaD8plhAp9mLv-cqD762gd6joHoQNrZZ1Il0Dwqv9Ip_Xhrr9iKmxHts1w-bl6ZWtMEC5nBwzQ5TXgsoh7xsrFecY7q3JU74ZCZlCQLNCjMdJcnZk7cdr8r4z2VNz_THMfPIATvhtg4Vth8KCENYDHnOgUXJ-7avYFfI8SUakcPjkQpO2RRR9NMl5hsKh8ny5kmf8g9GawmhLvguyVTue-JNfAmUXJqT4wCNXwAi4AI-jCvrQG7PpvOf5sS1vJzw6YtqV7DKFoUb7wKv35xGptL-AKzbVI7FQNnawpOIT_vbdVQi0vMF0V]--></g></svg>