<svg xmlns="http://www.w3.org/2000/svg" xmlns:xlink="http://www.w3.org/1999/xlink" contentStyleType="text/css" height="533px" preserveAspectRatio="none" style="width:396px;height:533px;background:#FFFFFF;" version="1.1" viewBox="0 0 396 533" width="396px" zoomAndPan="magnify"><defs/><g><ellipse cx="90.7002" cy="20" fill="#222222" rx="10" ry="10" style="stroke:#222222;stroke-width:1;"/><rect fill="#F1F1F1" height="34.1328" rx="12.5" ry="12.5" style="stroke:#181818;stroke-width:0.5;" width="81.1543" x="50.123" y="50"/><text fill="#000000" font-family="sans-serif" font-size="12" lengthAdjust="spacing" textLength="57.3574" x="63.9199" y="71.6016">aufstehen</text><rect fill="#F1F1F1" height="34.1328" rx="12.5" ry="12.5" style="stroke:#181818;stroke-width:0.5;" width="159.4004" x="11" y="104.1328"/><text fill="#000000" font-family="sans-serif" font-size="12" lengthAdjust="spacing" textLength="135.6035" x="24.7969" y="125.7344">Buchhandlung betreten</text><rect fill="#F1F1F1" height="34.1328" rx="12.5" ry="12.5" style="stroke:#181818;stroke-width:0.5;" width="116.6504" x="32.375" y="158.2656"/><text fill="#000000" font-family="sans-serif" font-size="12" lengthAdjust="spacing" textLength="92.8535" x="46.1719" y="179.8672">Buch ausw&#228;hlen</text><rect fill="#F1F1F1" height="34.1328" rx="12.5" ry="12.5" style="stroke:#181818;stroke-width:0.5;" width="108.3301" x="36.5352" y="212.3984"/><text fill="#000000" font-family="sans-serif" font-size="12" lengthAdjust="spacing" textLength="84.5332" x="50.332" y="234">Buch bezahlen</text><rect fill="#F1F1F1" height="34.1328" rx="12.5" ry="12.5" style="stroke:#181818;stroke-width:0.5;" width="141.5879" x="19.9063" y="266.5313"/><text fill="#000000" font-family="sans-serif" font-size="12" lengthAdjust="spacing" textLength="117.791" x="33.7031" y="288.1328">Buchladen verlassen</text><ellipse cx="90.7002" cy="331.6641" fill="none" rx="11" ry="11" style="stroke:#222222;stroke-width:1;"/><ellipse cx="90.7002" cy="331.6641" fill="#222222" rx="6" ry="6" style="stroke:#222222;stroke-width:1;"/><ellipse cx="90.7002" cy="362.6641" fill="#222222" rx="10" ry="10" style="stroke:#222222;stroke-width:1;"/><path d="M182.6924,397.0752 L182.6924,405.7305 L162.6924,409.7305 L182.6924,413.7305 L182.6924,422.3857 A0,0 0 0 0 182.6924,422.3857 L384.8926,422.3857 A0,0 0 0 0 384.8926,422.3857 L384.8926,407.0752 L374.8926,397.0752 L182.6924,397.0752 A0,0 0 0 0 182.6924,397.0752 " fill="#FEFFDD" style="stroke:#181818;stroke-width:0.5;"/><path d="M374.8926,397.0752 L374.8926,407.0752 L384.8926,407.0752 L374.8926,397.0752 " fill="#FEFFDD" style="stroke:#181818;stroke-width:0.5;"/><text fill="#000000" font-family="sans-serif" font-size="13" lengthAdjust="spacing" textLength="181.2002" x="188.6924" y="414.6436">&#171;precondition&#187; Wissensl&#252;cke</text><rect fill="#F1F1F1" height="34.1328" rx="12.5" ry="12.5" style="stroke:#181818;stroke-width:0.5;" width="143.9844" x="18.708" y="392.6641"/><text fill="#000000" font-family="sans-serif" font-size="12" lengthAdjust="spacing" textLength="120.1875" x="32.5049" y="414.2656">Sachbuch ausw&#228;hlen</text><path d="M167.3379,451.208 L167.3379,459.8633 L147.3379,463.8633 L167.3379,467.8633 L167.3379,476.5186 A0,0 0 0 0 167.3379,476.5186 L370.9473,476.5186 A0,0 0 0 0 370.9473,476.5186 L370.9473,461.208 L360.9473,451.208 L167.3379,451.208 A0,0 0 0 0 167.3379,451.208 " fill="#FEFFDD" style="stroke:#181818;stroke-width:0.5;"/><path d="M360.9473,451.208 L360.9473,461.208 L370.9473,461.208 L360.9473,451.208 " fill="#FEFFDD" style="stroke:#181818;stroke-width:0.5;"/><text fill="#000000" font-family="sans-serif" font-size="13" lengthAdjust="spacing" textLength="182.6094" x="173.3379" y="468.7764">&#171;precondition&#187; neues Wissen</text><rect fill="#F1F1F1" height="34.1328" rx="12.5" ry="12.5" style="stroke:#181818;stroke-width:0.5;" width="113.2754" x="34.0625" y="446.7969"/><text fill="#000000" font-family="sans-serif" font-size="12" lengthAdjust="spacing" textLength="89.4785" x="47.8594" y="468.3984">Sachbuch lesen</text><ellipse cx="90.7002" cy="511.9297" fill="none" rx="11" ry="11" style="stroke:#222222;stroke-width:1;"/><ellipse cx="90.7002" cy="511.9297" fill="#222222" rx="6" ry="6" style="stroke:#222222;stroke-width:1;"/><line style="stroke:#181818;stroke-width:1;" x1="90.7002" x2="90.7002" y1="30" y2="50"/><polygon fill="#181818" points="86.7002,40,90.7002,50,94.7002,40,90.7002,44" style="stroke:#181818;stroke-width:1;"/><line style="stroke:#181818;stroke-width:1;" x1="90.7002" x2="90.7002" y1="84.1328" y2="104.1328"/><polygon fill="#181818" points="86.7002,94.1328,90.7002,104.1328,94.7002,94.1328,90.7002,98.1328" style="stroke:#181818;stroke-width:1;"/><line style="stroke:#181818;stroke-width:1;" x1="90.7002" x2="90.7002" y1="138.2656" y2="158.2656"/><polygon fill="#181818" points="86.7002,148.2656,90.7002,158.2656,94.7002,148.2656,90.7002,152.2656" style="stroke:#181818;stroke-width:1;"/><line style="stroke:#181818;stroke-width:1;" x1="90.7002" x2="90.7002" y1="192.3984" y2="212.3984"/><polygon fill="#181818" points="86.7002,202.3984,90.7002,212.3984,94.7002,202.3984,90.7002,206.3984" style="stroke:#181818;stroke-width:1;"/><line style="stroke:#181818;stroke-width:1;" x1="90.7002" x2="90.7002" y1="246.5313" y2="266.5313"/><polygon fill="#181818" points="86.7002,256.5313,90.7002,266.5313,94.7002,256.5313,90.7002,260.5313" style="stroke:#181818;stroke-width:1;"/><line style="stroke:#181818;stroke-width:1;" x1="90.7002" x2="90.7002" y1="300.6641" y2="320.6641"/><polygon fill="#181818" points="86.7002,310.6641,90.7002,320.6641,94.7002,310.6641,90.7002,314.6641" style="stroke:#181818;stroke-width:1;"/><line style="stroke:#181818;stroke-width:1;" x1="90.7002" x2="90.7002" y1="372.6641" y2="392.6641"/><polygon fill="#181818" points="86.7002,382.6641,90.7002,392.6641,94.7002,382.6641,90.7002,386.6641" style="stroke:#181818;stroke-width:1;"/><line style="stroke:#181818;stroke-width:1;" x1="90.7002" x2="90.7002" y1="426.7969" y2="446.7969"/><polygon fill="#181818" points="86.7002,436.7969,90.7002,446.7969,94.7002,436.7969,90.7002,440.7969" style="stroke:#181818;stroke-width:1;"/><line style="stroke:#181818;stroke-width:1;" x1="90.7002" x2="90.7002" y1="480.9297" y2="500.9297"/><polygon fill="#181818" points="86.7002,490.9297,90.7002,500.9297,94.7002,490.9297,90.7002,494.9297" style="stroke:#181818;stroke-width:1;"/><!--SRC=[XOun3i8m34NtdiBdA5K7hi30xAQV9Y9ogjW1YVDm3BPUZ1Q1Y5WO_RxzlacDipKjSJcfmKDswx0lpdkMCHQPQ81bs3TOL_Mwt7siq80Rro3o2A4BScJL3QkbkMa-PGTsVlXLIJ9G3fCtQgdhvWoNP0mMalGz7SCcqhWyt1cr8aB_NmiAzEru_V84]--></g></svg>