<svg xmlns="http://www.w3.org/2000/svg" xmlns:xlink="http://www.w3.org/1999/xlink" contentStyleType="text/css" height="442px" preserveAspectRatio="none" style="width:453px;height:442px;background:#FFFFFF;" version="1.1" viewBox="0 0 453 442" width="453px" zoomAndPan="magnify"><defs/><g><ellipse cx="206.6523" cy="20" fill="#222222" rx="10" ry="10" style="stroke:#222222;stroke-width:1;"/><rect fill="#555555" height="6" rx="2.5" ry="2.5" style="stroke:#555555;stroke-width:1;" width="393.3047" x="11" y="50"/><rect fill="#F1F1F1" height="34.1328" rx="12.5" ry="12.5" style="stroke:#181818;stroke-width:0.5;" width="178.1387" x="23" y="144.0439"/><text fill="#000000" font-family="sans-serif" font-size="12" lengthAdjust="spacing" textLength="154.3418" x="36.7969" y="165.6455">Aktuelle Position ermitteln</text><rect fill="#F1F1F1" height="34.1328" rx="12.5" ry="12.5" style="stroke:#181818;stroke-width:0.5;" width="98.1289" x="254.6572" y="76"/><text fill="#000000" font-family="sans-serif" font-size="12" lengthAdjust="spacing" textLength="78.1289" x="264.6572" y="97.6016">Ziel eingeben</text><rect fill="#F1F1F1" height="34.1328" rx="12.5" ry="12.5" style="stroke:#181818;stroke-width:0.5;" width="129.166" x="239.1387" y="178.6104"/><text fill="#000000" font-family="sans-serif" font-size="12" lengthAdjust="spacing" textLength="105.3691" x="252.9355" y="200.2119">Wege einbeziehen</text><polygon fill="#F1F1F1" points="303.7217,130.1328,303.7217,130.1328,315.7217,142.1328,303.7217,154.1328,303.7217,154.1328,291.7217,142.1328,303.7217,130.1328" style="stroke:#181818;stroke-width:0.5;"/><text fill="#000000" font-family="sans-serif" font-size="11" lengthAdjust="spacing" textLength="134.1377" x="307.7217" y="164.7676">[Abk&#252;rzung Einbeziehen]</text><text fill="#000000" font-family="sans-serif" font-size="11" lengthAdjust="spacing" textLength="36.0669" x="315.7217" y="139.8125">[sonst]</text><polygon fill="#F1F1F1" points="303.7217,232.7432,315.7217,244.7432,303.7217,256.7432,291.7217,244.7432,303.7217,232.7432" style="stroke:#181818;stroke-width:0.5;"/><rect fill="#555555" height="6" rx="2.5" ry="2.5" style="stroke:#555555;stroke-width:1;" width="393.3047" x="11" y="276.7432"/><rect fill="#F1F1F1" height="34.1328" rx="12.5" ry="12.5" style="stroke:#181818;stroke-width:0.5;" width="122.1816" x="145.5615" y="302.7432"/><text fill="#000000" font-family="sans-serif" font-size="12" lengthAdjust="spacing" textLength="98.3848" x="159.3584" y="324.3447">Route berechnen</text><rect fill="#F1F1F1" height="34.1328" rx="12.5" ry="12.5" style="stroke:#181818;stroke-width:0.5;" width="113.4219" x="149.9414" y="356.876"/><text fill="#000000" font-family="sans-serif" font-size="12" lengthAdjust="spacing" textLength="93.4219" x="159.9414" y="378.4775">Route ausgeben</text><ellipse cx="206.6523" cy="421.0088" fill="none" rx="10" ry="10" style="stroke:#222222;stroke-width:1.5;"/><line style="stroke:#222222;stroke-width:2.5;" x1="200.4652" x2="212.8395" y1="414.8216" y2="427.196"/><line style="stroke:#222222;stroke-width:2.5;" x1="212.8395" x2="200.4652" y1="414.8216" y2="427.196"/><line style="stroke:#181818;stroke-width:1;" x1="303.7217" x2="303.7217" y1="154.1328" y2="178.6104"/><polygon fill="#181818" points="299.7217,168.6104,303.7217,178.6104,307.7217,168.6104,303.7217,172.6104" style="stroke:#181818;stroke-width:1;"/><line style="stroke:#181818;stroke-width:1;" x1="315.7217" x2="378.3047" y1="142.1328" y2="142.1328"/><polygon fill="#181818" points="374.3047,185.6768,378.3047,195.6768,382.3047,185.6768,378.3047,189.6768" style="stroke:#181818;stroke-width:1;"/><line style="stroke:#181818;stroke-width:1;" x1="378.3047" x2="378.3047" y1="142.1328" y2="244.7432"/><line style="stroke:#181818;stroke-width:1;" x1="378.3047" x2="315.7217" y1="244.7432" y2="244.7432"/><polygon fill="#181818" points="325.7217,240.7432,315.7217,244.7432,325.7217,248.7432,321.7217,244.7432" style="stroke:#181818;stroke-width:1;"/><line style="stroke:#181818;stroke-width:1;" x1="303.7217" x2="303.7217" y1="212.7432" y2="232.7432"/><polygon fill="#181818" points="299.7217,222.7432,303.7217,232.7432,307.7217,222.7432,303.7217,226.7432" style="stroke:#181818;stroke-width:1;"/><line style="stroke:#181818;stroke-width:1;" x1="303.7217" x2="303.7217" y1="110.1328" y2="130.1328"/><polygon fill="#181818" points="299.7217,120.1328,303.7217,130.1328,307.7217,120.1328,303.7217,124.1328" style="stroke:#181818;stroke-width:1;"/><line style="stroke:#181818;stroke-width:1;" x1="112.0693" x2="112.0693" y1="56" y2="144.0439"/><polygon fill="#181818" points="108.0693,134.0439,112.0693,144.0439,116.0693,134.0439,112.0693,138.0439" style="stroke:#181818;stroke-width:1;"/><line style="stroke:#181818;stroke-width:1;" x1="303.7217" x2="303.7217" y1="56" y2="76"/><polygon fill="#181818" points="299.7217,66,303.7217,76,307.7217,66,303.7217,70" style="stroke:#181818;stroke-width:1;"/><line style="stroke:#181818;stroke-width:1;" x1="112.0693" x2="112.0693" y1="178.1768" y2="276.7432"/><polygon fill="#181818" points="108.0693,266.7432,112.0693,276.7432,116.0693,266.7432,112.0693,270.7432" style="stroke:#181818;stroke-width:1;"/><line style="stroke:#181818;stroke-width:1;" x1="303.7217" x2="303.7217" y1="256.7432" y2="276.7432"/><polygon fill="#181818" points="299.7217,266.7432,303.7217,276.7432,307.7217,266.7432,303.7217,270.7432" style="stroke:#181818;stroke-width:1;"/><line style="stroke:#181818;stroke-width:1;" x1="206.6523" x2="206.6523" y1="30" y2="50"/><polygon fill="#181818" points="202.6523,40,206.6523,50,210.6523,40,206.6523,44" style="stroke:#181818;stroke-width:1;"/><line style="stroke:#181818;stroke-width:1;" x1="206.6523" x2="206.6523" y1="282.7432" y2="302.7432"/><polygon fill="#181818" points="202.6523,292.7432,206.6523,302.7432,210.6523,292.7432,206.6523,296.7432" style="stroke:#181818;stroke-width:1;"/><line style="stroke:#181818;stroke-width:1;" x1="206.6523" x2="206.6523" y1="336.876" y2="356.876"/><polygon fill="#181818" points="202.6523,346.876,206.6523,356.876,210.6523,346.876,206.6523,350.876" style="stroke:#181818;stroke-width:1;"/><line style="stroke:#181818;stroke-width:1;" x1="206.6523" x2="206.6523" y1="391.0088" y2="411.0088"/><polygon fill="#181818" points="202.6523,401.0088,206.6523,411.0088,210.6523,401.0088,206.6523,405.0088" style="stroke:#181818;stroke-width:1;"/><!--SRC=[DOun3i8m34NtdC9ZUuLqwi2EM91030dyfbQ38oNEqhEnSJ7I0ek7_z-pNTHbDLFAYx4qBbeH8-YO2Yid8UGdgoBAi3FaWcCnziA819O0ZrRnH5rFEaEekuv-UR_oMYNGWSLZPRJYrhVzPmHisZyS3691SqgIeWs1F7ZQvluGMJgbgY2FZFiicq3s6xbQViSR_G40]--></g></svg>