<svg xmlns="http://www.w3.org/2000/svg" xmlns:xlink="http://www.w3.org/1999/xlink" contentStyleType="text/css" height="489px" preserveAspectRatio="none" style="width:355px;height:489px;background:#FFFFFF;" version="1.1" viewBox="0 0 355 489" width="355px" zoomAndPan="magnify"><defs/><g><rect fill="none" height="21.1992" style="stroke:none;stroke-width:1;" width="322.5254" x="15" y="12.2969"/><ellipse cx="91.7939" cy="48.4961" fill="#222222" rx="10" ry="10" style="stroke:#222222;stroke-width:1;"/><rect fill="#F1F1F1" height="34.1328" rx="12.5" ry="12.5" style="stroke:#181818;stroke-width:0.5;" width="96.8281" x="43.3799" y="78.4961"/><text fill="#000000" font-family="sans-serif" font-size="12" lengthAdjust="spacing" textLength="73.0313" x="57.1768" y="100.0977">Buch suchen</text><rect fill="#F1F1F1" height="34.1328" rx="12.5" ry="12.5" style="stroke:#181818;stroke-width:0.5;" width="119.7559" x="31.916" y="186.7617"/><text fill="#000000" font-family="sans-serif" font-size="12" lengthAdjust="spacing" textLength="95.959" x="45.7129" y="208.3633">zur Kasse gehen</text><rect fill="#F1F1F1" height="34.1328" rx="12.5" ry="12.5" style="stroke:#181818;stroke-width:0.5;" width="76.5898" x="53.499" y="295.0273"/><text fill="#000000" font-family="sans-serif" font-size="12" lengthAdjust="spacing" textLength="52.793" x="67.2959" y="316.6289">bezahlen</text><rect fill="#F1F1F1" height="34.1328" rx="12.5" ry="12.5" style="stroke:#181818;stroke-width:0.5;" width="141.5879" x="21" y="403.293"/><text fill="#000000" font-family="sans-serif" font-size="12" lengthAdjust="spacing" textLength="117.791" x="34.7969" y="424.8945">Buchladen verlassen</text><ellipse cx="91.7939" cy="467.4258" fill="none" rx="10" ry="10" style="stroke:#222222;stroke-width:1.5;"/><line style="stroke:#222222;stroke-width:2.5;" x1="85.6068" x2="97.9811" y1="461.2386" y2="473.613"/><line style="stroke:#222222;stroke-width:2.5;" x1="97.9811" x2="85.6068" y1="461.2386" y2="473.613"/><line style="stroke:#000000;stroke-width:1.5;" x1="15" x2="15" y1="12.2969" y2="477.4258"/><rect fill="#F1F1F1" height="34.1328" rx="12.5" ry="12.5" style="stroke:#181818;stroke-width:0.5;" width="98.0938" x="203.0859" y="132.6289"/><text fill="#000000" font-family="sans-serif" font-size="12" lengthAdjust="spacing" textLength="74.2969" x="216.8828" y="154.2305">Regal zeigen</text><rect fill="#F1F1F1" height="34.1328" rx="12.5" ry="12.5" style="stroke:#181818;stroke-width:0.5;" width="121.0566" x="191.6045" y="240.8945"/><text fill="#000000" font-family="sans-serif" font-size="12" lengthAdjust="spacing" textLength="97.2598" x="205.4014" y="262.4961">Buch einscannen</text><rect fill="#F1F1F1" height="34.1328" rx="12.5" ry="12.5" style="stroke:#181818;stroke-width:0.5;" width="159.0898" x="172.5879" y="349.1602"/><text fill="#000000" font-family="sans-serif" font-size="12" lengthAdjust="spacing" textLength="135.293" x="186.3848" y="370.7617">Geld entgegen nehmen</text><line style="stroke:#000000;stroke-width:1.5;" x1="166.5879" x2="166.5879" y1="12.2969" y2="477.4258"/><line style="stroke:#000000;stroke-width:1.5;" x1="335.6777" x2="335.6777" y1="12.2969" y2="477.4258"/><line style="stroke:#181818;stroke-width:1;" x1="91.7939" x2="91.7939" y1="58.4961" y2="78.4961"/><polygon fill="#181818" points="87.7939,68.4961,91.7939,78.4961,95.7939,68.4961,91.7939,72.4961" style="stroke:#181818;stroke-width:1;"/><line style="stroke:#181818;stroke-width:1;" x1="91.7939" x2="91.7939" y1="437.4258" y2="457.4258"/><polygon fill="#181818" points="87.7939,447.4258,91.7939,457.4258,95.7939,447.4258,91.7939,451.4258" style="stroke:#181818;stroke-width:1;"/><line style="stroke:#181818;stroke-width:1;" x1="91.7939" x2="91.7939" y1="112.6289" y2="117.6289"/><line style="stroke:#181818;stroke-width:1;" x1="91.7939" x2="252.1328" y1="117.6289" y2="117.6289"/><line style="stroke:#181818;stroke-width:1;" x1="252.1328" x2="252.1328" y1="117.6289" y2="132.6289"/><polygon fill="#181818" points="248.1328,122.6289,252.1328,132.6289,256.1328,122.6289,252.1328,126.6289" style="stroke:#181818;stroke-width:1;"/><line style="stroke:#181818;stroke-width:1;" x1="252.1328" x2="252.1328" y1="166.7617" y2="171.7617"/><line style="stroke:#181818;stroke-width:1;" x1="252.1328" x2="91.7939" y1="171.7617" y2="171.7617"/><line style="stroke:#181818;stroke-width:1;" x1="91.7939" x2="91.7939" y1="171.7617" y2="186.7617"/><polygon fill="#181818" points="87.7939,176.7617,91.7939,186.7617,95.7939,176.7617,91.7939,180.7617" style="stroke:#181818;stroke-width:1;"/><line style="stroke:#181818;stroke-width:1;" x1="91.7939" x2="91.7939" y1="220.8945" y2="225.8945"/><line style="stroke:#181818;stroke-width:1;" x1="91.7939" x2="252.1328" y1="225.8945" y2="225.8945"/><line style="stroke:#181818;stroke-width:1;" x1="252.1328" x2="252.1328" y1="225.8945" y2="240.8945"/><polygon fill="#181818" points="248.1328,230.8945,252.1328,240.8945,256.1328,230.8945,252.1328,234.8945" style="stroke:#181818;stroke-width:1;"/><line style="stroke:#181818;stroke-width:1;" x1="252.1328" x2="252.1328" y1="275.0273" y2="280.0273"/><line style="stroke:#181818;stroke-width:1;" x1="252.1328" x2="91.7939" y1="280.0273" y2="280.0273"/><line style="stroke:#181818;stroke-width:1;" x1="91.7939" x2="91.7939" y1="280.0273" y2="295.0273"/><polygon fill="#181818" points="87.7939,285.0273,91.7939,295.0273,95.7939,285.0273,91.7939,289.0273" style="stroke:#181818;stroke-width:1;"/><line style="stroke:#181818;stroke-width:1;" x1="91.7939" x2="91.7939" y1="329.1602" y2="334.1602"/><line style="stroke:#181818;stroke-width:1;" x1="91.7939" x2="252.1328" y1="334.1602" y2="334.1602"/><line style="stroke:#181818;stroke-width:1;" x1="252.1328" x2="252.1328" y1="334.1602" y2="349.1602"/><polygon fill="#181818" points="248.1328,339.1602,252.1328,349.1602,256.1328,339.1602,252.1328,343.1602" style="stroke:#181818;stroke-width:1;"/><line style="stroke:#181818;stroke-width:1;" x1="252.1328" x2="252.1328" y1="383.293" y2="388.293"/><line style="stroke:#181818;stroke-width:1;" x1="252.1328" x2="91.7939" y1="388.293" y2="388.293"/><line style="stroke:#181818;stroke-width:1;" x1="91.7939" x2="91.7939" y1="388.293" y2="403.293"/><polygon fill="#181818" points="87.7939,393.293,91.7939,403.293,95.7939,393.293,91.7939,397.293" style="stroke:#181818;stroke-width:1;"/><text fill="#000000" font-family="sans-serif" font-size="18" lengthAdjust="spacing" textLength="55.4502" x="63.0688" y="29.6992">Kunde</text><text fill="#000000" font-family="sans-serif" font-size="18" lengthAdjust="spacing" textLength="95.4316" x="203.417" y="29.6992">Mitarbeiter</text><!--SRC=[ROqx3eCm44JxFSMU0xeqAL0QRh3WaMt9sSAV59OFdmNH8D5CCKzlPYnD7GQLAhdInA-s1ouMq9d69rgz8LRaON25byGTqP_qKYVkBVCYfO0z7iLp5L7BBgftTqENa9waDv9ZQFMmErQ4xzqyHfCuOp_aTDmRXZgYFm00]--></g></svg>