<?xml version="1.0" encoding="UTF-8" standalone="no"?><svg xmlns="http://www.w3.org/2000/svg" xmlns:xlink="http://www.w3.org/1999/xlink" contentStyleType="text/css" height="181px" preserveAspectRatio="none" style="width:182px;height:181px;background:#FFFFFF;" version="1.1" viewBox="0 0 182 181" width="182px" zoomAndPan="magnify"><defs/><g><!--MD5=[7cfcec95ce8c7b3cc21f2a5540b61e10]
class Area--><g id="elem_Area"><rect codeLine="1" fill="#F1F1F1" height="58.7031" id="Area" rx="2.5" ry="2.5" style="stroke:#181818;stroke-width:0.5;" width="73" x="7" y="7"/><ellipse cx="22" cy="28.3516" fill="#FF7700" rx="11" ry="11" style="stroke:#181818;stroke-width:1.0;"/><path d="M20.1094,32.9141 Q19.8906,33.1797 19.75,33.2578 Q19.6094,33.3359 19.4219,33.3359 Q19.0313,33.3359 18.7813,33.0703 Q18.5469,32.8047 18.5469,32.2109 L18.5469,31.0547 Q18.5469,30.4453 18.7813,30.1953 Q19.0313,29.9297 19.4219,29.9297 Q19.7188,29.9297 19.9219,30.0859 Q20.125,30.2422 20.2344,30.6172 Q20.3438,30.9766 20.4531,31.1172 Q20.7031,31.3672 21.3125,31.6328 Q21.9219,31.8984 22.6563,31.8984 Q23.7969,31.8984 24.5156,31.3672 Q24.9844,31.0391 24.9844,30.5703 Q24.9844,30.2578 24.7656,29.9766 Q24.5469,29.6953 24.0313,29.5234 Q23.7031,29.3984 22.5469,29.1797 Q21.1563,28.9141 20.4375,28.5547 Q19.7188,28.1953 19.2969,27.5391 Q18.8906,26.8672 18.8906,26.0859 Q18.8906,24.8672 19.9063,23.9609 Q20.9375,23.0391 22.5781,23.0391 Q23.2344,23.0391 23.7813,23.1797 Q24.3438,23.3203 24.8125,23.6172 Q25.1406,23.3047 25.4688,23.3047 Q25.8438,23.3047 26.0781,23.5703 Q26.3125,23.8203 26.3125,24.4297 L26.3125,25.7109 Q26.3125,26.3203 26.0781,26.5859 Q25.8438,26.8359 25.4688,26.8359 Q25.1563,26.8359 24.9219,26.6484 Q24.7344,26.5078 24.6406,26.0859 Q24.5625,25.6641 24.4219,25.4766 Q24.1719,25.1641 23.6875,24.9609 Q23.2188,24.7422 22.5781,24.7422 Q21.6563,24.7422 21.125,25.1641 Q20.5938,25.5859 20.5938,26.0547 Q20.5938,26.3672 20.8125,26.6641 Q21.0313,26.9609 21.4531,27.1328 Q21.7344,27.2422 23.0313,27.5078 Q24.3438,27.7578 25.0469,28.0703 Q25.75,28.3672 26.2188,29.0234 Q26.6875,29.6797 26.6875,30.5859 Q26.6875,31.8516 25.7969,32.6016 Q24.6094,33.6016 22.7813,33.6016 Q22.0781,33.6016 21.4063,33.4297 Q20.75,33.2578 20.1094,32.9141 Z " fill="#000000"/><text fill="#000000" font-family="sans-serif" font-size="12" font-style="italic" lengthAdjust="spacing" textLength="45" x="34" y="24.457">«Struct»</text><text fill="#000000" font-family="sans-serif" font-size="14" lengthAdjust="spacing" textLength="30" x="41.5" y="41.627">Area</text><line style="stroke:#181818;stroke-width:0.5;" x1="8" x2="79" y1="49.7031" y2="49.7031"/><line style="stroke:#181818;stroke-width:0.5;" x1="8" x2="79" y1="57.7031" y2="57.7031"/></g><!--MD5=[df38be88ccee13e832d6fafd6288a4ca]
class Test--><g id="elem_Test"><rect codeLine="2" fill="#F1F1F1" height="48" id="Test" rx="2.5" ry="2.5" style="stroke:#181818;stroke-width:0.5;" width="60" x="115.5" y="12.5"/><ellipse cx="130.5" cy="28.5" fill="#EB937F" rx="11" ry="11" style="stroke:#181818;stroke-width:1.0;"/><path d="M129.3594,29.2969 L129.3594,31.7969 L133.6875,31.7969 L133.6875,30.875 Q133.6875,30.2656 133.9219,30 Q134.1719,29.7344 134.5469,29.7344 Q134.9219,29.7344 135.1563,30 Q135.3906,30.2656 135.3906,30.875 L135.3906,33.5 L127.3906,33.5 Q126.7656,33.5 126.5,33.2656 Q126.25,33.0313 126.25,32.6406 Q126.25,32.2656 126.5156,32.0313 Q126.7813,31.7969 127.3906,31.7969 L127.6563,31.7969 L127.6563,25.1406 L127.3906,25.1406 Q126.7656,25.1406 126.5,24.9063 Q126.25,24.6719 126.25,24.2813 Q126.25,23.9063 126.5,23.6719 Q126.7656,23.4375 127.3906,23.4375 L135.0156,23.4375 L135.0156,26.0313 Q135.0156,26.6406 134.7813,26.9063 Q134.5625,27.1563 134.1719,27.1563 Q133.7969,27.1563 133.5625,26.9063 Q133.3281,26.6406 133.3281,26.0313 L133.3281,25.1406 L129.3594,25.1406 L129.3594,27.5938 L130.8438,27.5938 Q130.8438,26.9375 130.9688,26.75 Q131.2344,26.3438 131.7031,26.3438 Q132.0781,26.3438 132.3125,26.6094 Q132.5469,26.8594 132.5469,27.4688 L132.5469,29.4375 Q132.5469,29.9844 132.4219,30.1719 Q132.1563,30.5625 131.7031,30.5625 Q131.2344,30.5625 130.9688,30.1563 Q130.8438,29.9688 130.8438,29.2969 L129.3594,29.2969 Z " fill="#000000"/><text fill="#000000" font-family="sans-serif" font-size="14" lengthAdjust="spacing" textLength="28" x="144.5" y="34.2285">Test</text><line style="stroke:#181818;stroke-width:0.5;" x1="116.5" x2="174.5" y1="44.5" y2="44.5"/><line style="stroke:#181818;stroke-width:0.5;" x1="116.5" x2="174.5" y1="52.5" y2="52.5"/></g><!--MD5=[1dff292a6849a6db4d2021d5ff588741]
class Auto--><g id="elem_Auto"><rect codeLine="3" fill="#F1F1F1" height="48" id="Auto" rx="2.5" ry="2.5" style="stroke:#181818;stroke-width:0.5;" width="61" x="13" y="126"/><ellipse cx="28" cy="142" fill="#B4A7E5" rx="11" ry="11" style="stroke:#181818;stroke-width:1.0;"/><path d="M28.9531,138.6406 L28.9531,145.2969 L30.6719,145.2969 Q31.2813,145.2969 31.5469,145.5313 Q31.8125,145.7656 31.8125,146.1563 Q31.8125,146.5313 31.5469,146.7656 Q31.2813,147 30.6719,147 L25.5313,147 Q24.9219,147 24.6563,146.7656 Q24.3906,146.5313 24.3906,146.1406 Q24.3906,145.7656 24.6563,145.5313 Q24.9219,145.2969 25.5313,145.2969 L27.25,145.2969 L27.25,138.6406 L25.5313,138.6406 Q24.9219,138.6406 24.6563,138.4063 Q24.3906,138.1719 24.3906,137.7813 Q24.3906,137.4063 24.6563,137.1719 Q24.9219,136.9375 25.5313,136.9375 L30.6719,136.9375 Q31.2813,136.9375 31.5469,137.1719 Q31.8125,137.4063 31.8125,137.7813 Q31.8125,138.1719 31.5469,138.4063 Q31.2813,138.6406 30.6719,138.6406 L28.9531,138.6406 Z " fill="#000000"/><text fill="#000000" font-family="sans-serif" font-size="14" font-style="italic" lengthAdjust="spacing" textLength="29" x="42" y="147.7285">Auto</text><line style="stroke:#181818;stroke-width:0.5;" x1="14" x2="73" y1="158" y2="158"/><line style="stroke:#181818;stroke-width:0.5;" x1="14" x2="73" y1="166" y2="166"/></g><!--MD5=[125edd68b2b98120221d747f271af51f]
@startuml
class Area << (S, #FF7700) Struct>> {}
enum Test {}
interface Auto {}

@enduml

PlantUML version 1.2022.7(Mon Aug 22 19:01:30 CEST 2022)
(GPL source distribution)
Java Runtime: OpenJDK Runtime Environment
JVM: OpenJDK 64-Bit Server VM
Default Encoding: UTF-8
Language: de
Country: DE
--></g></svg>