<?xml version="1.0" encoding="UTF-8" standalone="no"?><svg xmlns="http://www.w3.org/2000/svg" xmlns:xlink="http://www.w3.org/1999/xlink" contentStyleType="text/css" height="189px" preserveAspectRatio="none" style="width:1068px;height:189px;background:#FFFFFF;" version="1.1" viewBox="0 0 1068 189" width="1068px" zoomAndPan="magnify"><defs/><g><rect fill="#F1F1F1" height="21.6094" rx="5" ry="5" style="stroke:#F1F1F1;stroke-width:1.5;" width="98" x="10" y="53"/><text fill="#000000" font-family="sans-serif" font-size="14" font-weight="bold" lengthAdjust="spacing" textLength="66" x="15" y="69.5332">PC__Data</text><text fill="#000000" font-family="sans-serif" font-size="14" lengthAdjust="spacing" textLength="12" x="91" y="69.5332">   </text><line style="stroke:#000000;stroke-width:1.0;" x1="86" x2="86" y1="53" y2="74.6094"/><rect fill="none" height="21.6094" rx="5" ry="5" style="stroke:#000000;stroke-width:1.5;" width="98" x="10" y="53"/><rect fill="#F1F1F1" height="108.0469" rx="5" ry="5" style="stroke:#F1F1F1;stroke-width:1.5;" width="293" x="145" y="10"/><text fill="#000000" font-family="sans-serif" font-size="14" font-weight="bold" lengthAdjust="spacing" textLength="30" x="150" y="26.5332">pcId</text><text fill="#000000" font-family="sans-serif" font-size="14" lengthAdjust="spacing" textLength="24" x="248" y="26.5332">494</text><line style="stroke:#000000;stroke-width:1.0;" x1="243" x2="243" y1="10" y2="31.6094"/><line style="stroke:#000000;stroke-width:1.0;" x1="145" x2="438" y1="31.6094" y2="31.6094"/><text fill="#000000" font-family="sans-serif" font-size="14" font-weight="bold" lengthAdjust="spacing" textLength="81" x="150" y="48.1426">Description</text><text fill="#000000" font-family="sans-serif" font-size="14" lengthAdjust="spacing" textLength="185" x="248" y="48.1426">PC in der Abteilung Software.</text><line style="stroke:#000000;stroke-width:1.0;" x1="243" x2="243" y1="31.6094" y2="53.2188"/><line style="stroke:#000000;stroke-width:1.0;" x1="145" x2="438" y1="53.2188" y2="53.2188"/><text fill="#000000" font-family="sans-serif" font-size="14" font-weight="bold" lengthAdjust="spacing" textLength="59" x="150" y="69.752">Purpose</text><text fill="#000000" font-family="sans-serif" font-size="14" lengthAdjust="spacing" textLength="83" x="248" y="69.752">Development</text><line style="stroke:#000000;stroke-width:1.0;" x1="243" x2="243" y1="53.2188" y2="74.8281"/><line style="stroke:#000000;stroke-width:1.0;" x1="145" x2="438" y1="74.8281" y2="74.8281"/><text fill="#000000" font-family="sans-serif" font-size="14" font-weight="bold" lengthAdjust="spacing" textLength="67" x="150" y="91.3613">MainUser</text><text fill="#000000" font-family="sans-serif" font-size="14" lengthAdjust="spacing" textLength="12" x="248" y="91.3613">   </text><line style="stroke:#000000;stroke-width:1.0;" x1="243" x2="243" y1="74.8281" y2="96.4375"/><line style="stroke:#000000;stroke-width:1.0;" x1="145" x2="438" y1="96.4375" y2="96.4375"/><text fill="#000000" font-family="sans-serif" font-size="14" font-weight="bold" lengthAdjust="spacing" textLength="88" x="150" y="112.9707">IPAddresses</text><text fill="#000000" font-family="sans-serif" font-size="14" lengthAdjust="spacing" textLength="12" x="248" y="112.9707">   </text><line style="stroke:#000000;stroke-width:1.0;" x1="243" x2="243" y1="96.4375" y2="118.0469"/><rect fill="none" height="108.0469" rx="5" ry="5" style="stroke:#000000;stroke-width:1.5;" width="293" x="145" y="10"/><rect fill="#F1F1F1" height="43.2188" rx="5" ry="5" style="stroke:#F1F1F1;stroke-width:1.5;" width="229" x="475" y="43.5"/><text fill="#000000" font-family="sans-serif" font-size="14" font-weight="bold" lengthAdjust="spacing" textLength="45" x="480" y="60.0332">userId</text><text fill="#000000" font-family="sans-serif" font-size="14" lengthAdjust="spacing" textLength="16" x="561" y="60.0332">12</text><line style="stroke:#000000;stroke-width:1.0;" x1="556" x2="556" y1="43.5" y2="65.1094"/><line style="stroke:#000000;stroke-width:1.0;" x1="475" x2="704" y1="65.1094" y2="65.1094"/><text fill="#000000" font-family="sans-serif" font-size="14" font-weight="bold" lengthAdjust="spacing" textLength="71" x="480" y="81.6426">userName</text><text fill="#000000" font-family="sans-serif" font-size="14" lengthAdjust="spacing" textLength="138" x="561" y="81.6426">Anita Scheurenbrandt</text><line style="stroke:#000000;stroke-width:1.0;" x1="556" x2="556" y1="65.1094" y2="86.7188"/><rect fill="none" height="43.2188" rx="5" ry="5" style="stroke:#000000;stroke-width:1.5;" width="229" x="475" y="43.5"/><rect fill="#F1F1F1" height="43.2188" rx="5" ry="5" style="stroke:#F1F1F1;stroke-width:1.5;" width="22" x="577.5" y="104.5"/><text fill="#000000" font-family="sans-serif" font-size="14" lengthAdjust="spacing" textLength="12" x="582.5" y="121.0332">   </text><line style="stroke:#000000;stroke-width:1.0;" x1="577.5" x2="599.5" y1="126.1094" y2="126.1094"/><text fill="#000000" font-family="sans-serif" font-size="14" lengthAdjust="spacing" textLength="12" x="582.5" y="142.6426">   </text><rect fill="none" height="43.2188" rx="5" ry="5" style="stroke:#000000;stroke-width:1.5;" width="22" x="577.5" y="104.5"/><rect fill="#F1F1F1" height="43.2188" rx="5" ry="5" style="stroke:#F1F1F1;stroke-width:1.5;" width="163" x="817" y="73.5"/><text fill="#000000" font-family="sans-serif" font-size="14" font-weight="bold" lengthAdjust="spacing" textLength="39" x="822" y="90.0332">Value</text><text fill="#000000" font-family="sans-serif" font-size="14" lengthAdjust="spacing" textLength="104" x="871" y="90.0332">192.168.0.23/24</text><line style="stroke:#000000;stroke-width:1.0;" x1="866" x2="866" y1="73.5" y2="95.1094"/><line style="stroke:#000000;stroke-width:1.0;" x1="817" x2="980" y1="95.1094" y2="95.1094"/><text fill="#000000" font-family="sans-serif" font-size="14" font-weight="bold" lengthAdjust="spacing" textLength="33" x="822" y="111.6426">Type</text><text fill="#000000" font-family="sans-serif" font-size="14" lengthAdjust="spacing" textLength="15" x="871" y="111.6426">v4</text><line style="stroke:#000000;stroke-width:1.0;" x1="866" x2="866" y1="95.1094" y2="116.7188"/><rect fill="none" height="43.2188" rx="5" ry="5" style="stroke:#000000;stroke-width:1.5;" width="163" x="817" y="73.5"/><rect fill="#F1F1F1" height="43.2188" rx="5" ry="5" style="stroke:#F1F1F1;stroke-width:1.5;" width="315" x="741" y="134.5"/><text fill="#000000" font-family="sans-serif" font-size="14" font-weight="bold" lengthAdjust="spacing" textLength="39" x="746" y="151.0332">Value</text><text fill="#000000" font-family="sans-serif" font-size="14" lengthAdjust="spacing" textLength="256" x="795" y="151.0332">2012:65:fd85:5712:fdf4:11ed:9aba:9e27</text><line style="stroke:#000000;stroke-width:1.0;" x1="790" x2="790" y1="134.5" y2="156.1094"/><line style="stroke:#000000;stroke-width:1.0;" x1="741" x2="1056" y1="156.1094" y2="156.1094"/><text fill="#000000" font-family="sans-serif" font-size="14" font-weight="bold" lengthAdjust="spacing" textLength="33" x="746" y="172.6426">Type</text><text fill="#000000" font-family="sans-serif" font-size="14" lengthAdjust="spacing" textLength="15" x="795" y="172.6426">v6</text><line style="stroke:#000000;stroke-width:1.0;" x1="790" x2="790" y1="156.1094" y2="177.7188"/><rect fill="none" height="43.2188" rx="5" ry="5" style="stroke:#000000;stroke-width:1.5;" width="315" x="741" y="134.5"/><path d="M426,85 L439,85 C448.3287,85 457.9553,84.6152 467.6177,83.9524 " fill="none" style="stroke:#000000;stroke-width:1.0;stroke-dasharray:3.0,3.0;"/><path d="M467.8533,87.0531 L469.9432,83.7757 L467.382,80.8517 L475.3694,83.3633 L467.8533,87.0531 " fill="#000000" style="stroke:#000000;stroke-width:1.0;"/><ellipse cx="426" cy="85" fill="#000000" rx="3" ry="3" style="stroke:#000000;stroke-width:1.0;"/><path d="M590,115 L603,115 C672.5149,115 751.0334,109.4035 809.578,104.1315 " fill="none" style="stroke:#000000;stroke-width:1.0;stroke-dasharray:3.0,3.0;"/><path d="M809.861,107.2363 L811.9066,103.9192 L809.2949,101.0266 L817.3402,103.4238 L809.861,107.2363 " fill="#000000" style="stroke:#000000;stroke-width:1.0;"/><ellipse cx="590" cy="115" fill="#000000" rx="3" ry="3" style="stroke:#000000;stroke-width:1.0;"/><path d="M590,137 L603,137 C645.3627,137 691.0767,138.9754 733.5765,141.6522 " fill="none" style="stroke:#000000;stroke-width:1.0;stroke-dasharray:3.0,3.0;"/><path d="M733.3807,144.6998 L735.8622,141.799 L733.7723,138.6046 L741.1956,142.1417 L733.3807,144.6998 " fill="#000000" style="stroke:#000000;stroke-width:1.0;"/><ellipse cx="590" cy="137" fill="#000000" rx="3" ry="3" style="stroke:#000000;stroke-width:1.0;"/><path d="M426,107 L439,107 C486.5438,107 541.8971,116.5107 570.2107,122.0744 " fill="none" style="stroke:#000000;stroke-width:1.0;stroke-dasharray:3.0,3.0;"/><path d="M569.603,125.0987 L572.4789,122.5301 L570.8184,119.05 L577.7715,123.5936 L569.603,125.0987 " fill="#000000" style="stroke:#000000;stroke-width:1.0;"/><ellipse cx="426" cy="107" fill="#000000" rx="3" ry="3" style="stroke:#000000;stroke-width:1.0;"/><path d="M96,64 L109,64 C118.4421,64 128.1598,64 137.9601,64 " fill="none" style="stroke:#000000;stroke-width:1.0;stroke-dasharray:3.0,3.0;"/><path d="M137.9601,67.0029 L140.2122,64 L137.9601,60.9971 L145.4673,64 L137.9601,67.0029 " fill="#000000" style="stroke:#000000;stroke-width:1.0;"/><ellipse cx="96" cy="64" fill="#000000" rx="3" ry="3" style="stroke:#000000;stroke-width:1.0;"/><!--MD5=[47c094c8a4b7bf6aed227ff06bd396f3]
@startjson
{
    "PC__Data": {
        "pcId": 494,
        "Description": "PC in der Abteilung Software.",
        "Purpose": "Development",
        "MainUser": {
            "userId": 12,
            "userName": "Anita Scheurenbrandt"
        },
        "IPAddresses": [
            {
                "Value": "192.168.0.23/24",
                "Type": "v4"
            },
            {
                "Value": "2012:65:fd85:5712:fdf4:11ed:9aba:9e27",
                "Type": "v6"
            }
        ]
    } 
}
@endjson

PlantUML version 1.2022.7(Mon Aug 22 19:01:30 CEST 2022)
(GPL source distribution)
Java Runtime: OpenJDK Runtime Environment
JVM: OpenJDK 64-Bit Server VM
Default Encoding: UTF-8
Language: de
Country: DE
--></g></svg>