<?xml version="1.0" encoding="UTF-8" standalone="no"?><svg xmlns="http://www.w3.org/2000/svg" xmlns:xlink="http://www.w3.org/1999/xlink" contentStyleType="text/css" height="364px" preserveAspectRatio="none" style="width:537px;height:364px;background:#FFFFFF;" version="1.1" viewBox="0 0 537 364" width="537px" zoomAndPan="magnify"><defs/><g><!--MD5=[978c1a7f246c3f0e6ce8a86fa17ad9b0]
class Teilnehmer--><g id="elem_Teilnehmer"><rect codeLine="1" fill="#F1F1F1" height="136.0469" id="Teilnehmer" rx="2.5" ry="2.5" style="stroke:#181818;stroke-width:0.5;" width="103" x="7" y="7"/><ellipse cx="22" cy="23" fill="#ADD1B2" rx="11" ry="11" style="stroke:#181818;stroke-width:1.0;"/><path d="M20.8594,23.7969 L20.8594,26.2969 L25.1875,26.2969 L25.1875,25.375 Q25.1875,24.7656 25.4219,24.5 Q25.6719,24.2344 26.0469,24.2344 Q26.4219,24.2344 26.6563,24.5 Q26.8906,24.7656 26.8906,25.375 L26.8906,28 L18.8906,28 Q18.2656,28 18,27.7656 Q17.75,27.5313 17.75,27.1406 Q17.75,26.7656 18.0156,26.5313 Q18.2813,26.2969 18.8906,26.2969 L19.1563,26.2969 L19.1563,19.6406 L18.8906,19.6406 Q18.2656,19.6406 18,19.4063 Q17.75,19.1719 17.75,18.7813 Q17.75,18.4063 18,18.1719 Q18.2656,17.9375 18.8906,17.9375 L26.5156,17.9375 L26.5156,20.5313 Q26.5156,21.1406 26.2813,21.4063 Q26.0625,21.6563 25.6719,21.6563 Q25.2969,21.6563 25.0625,21.4063 Q24.8281,21.1406 24.8281,20.5313 L24.8281,19.6406 L20.8594,19.6406 L20.8594,22.0938 L22.3438,22.0938 Q22.3438,21.4375 22.4688,21.25 Q22.7344,20.8438 23.2031,20.8438 Q23.5781,20.8438 23.8125,21.1094 Q24.0469,21.3594 24.0469,21.9688 L24.0469,23.9375 Q24.0469,24.4844 23.9219,24.6719 Q23.6563,25.0625 23.2031,25.0625 Q22.7344,25.0625 22.4688,24.6563 Q22.3438,24.4688 22.3438,23.7969 L20.8594,23.7969 Z " fill="#000000"/><text fill="#000000" font-family="sans-serif" font-size="14" lengthAdjust="spacing" textLength="71" x="36" y="28.7285">Teilnehmer</text><line style="stroke:#181818;stroke-width:0.5;" x1="8" x2="109" y1="39" y2="39"/><ellipse cx="18" cy="53.3047" fill="#000000" rx="3" ry="3" style="stroke:#000000;stroke-width:1.0;"/><text fill="#000000" font-family="sans-serif" font-size="14" lengthAdjust="spacing" textLength="15" x="27" y="57.5332">tid</text><line style="stroke:#181818;stroke-width:1.0;" x1="8" x2="109" y1="64.6094" y2="64.6094"/><ellipse cx="18" cy="78.9141" fill="#000000" rx="3" ry="3" style="stroke:#000000;stroke-width:1.0;"/><text fill="#000000" font-family="sans-serif" font-size="14" lengthAdjust="spacing" textLength="57" x="27" y="83.1426">Vorname</text><ellipse cx="18" cy="96.5234" fill="#000000" rx="3" ry="3" style="stroke:#000000;stroke-width:1.0;"/><text fill="#000000" font-family="sans-serif" font-size="14" lengthAdjust="spacing" textLength="67" x="27" y="100.752">Nachname</text><ellipse cx="18" cy="114.1328" fill="#000000" rx="3" ry="3" style="stroke:#000000;stroke-width:1.0;"/><text fill="#000000" font-family="sans-serif" font-size="14" lengthAdjust="spacing" textLength="43" x="27" y="118.3613">Straße</text><ellipse cx="18" cy="131.7422" fill="#000000" rx="3" ry="3" style="stroke:#000000;stroke-width:1.0;"/><text fill="#000000" font-family="sans-serif" font-size="14" lengthAdjust="spacing" textLength="54" x="27" y="135.9707">Wohnort</text></g><!--MD5=[b39e63d42d858430d5ca2295de52f2ac]
class Kurs--><g id="elem_Kurs"><rect codeLine="10" fill="#F1F1F1" height="136.0469" id="Kurs" rx="2.5" ry="2.5" style="stroke:#181818;stroke-width:0.5;" width="151" x="193" y="7"/><ellipse cx="249.75" cy="23" fill="#ADD1B2" rx="11" ry="11" style="stroke:#181818;stroke-width:1.0;"/><path d="M248.6094,23.7969 L248.6094,26.2969 L252.9375,26.2969 L252.9375,25.375 Q252.9375,24.7656 253.1719,24.5 Q253.4219,24.2344 253.7969,24.2344 Q254.1719,24.2344 254.4063,24.5 Q254.6406,24.7656 254.6406,25.375 L254.6406,28 L246.6406,28 Q246.0156,28 245.75,27.7656 Q245.5,27.5313 245.5,27.1406 Q245.5,26.7656 245.7656,26.5313 Q246.0313,26.2969 246.6406,26.2969 L246.9063,26.2969 L246.9063,19.6406 L246.6406,19.6406 Q246.0156,19.6406 245.75,19.4063 Q245.5,19.1719 245.5,18.7813 Q245.5,18.4063 245.75,18.1719 Q246.0156,17.9375 246.6406,17.9375 L254.2656,17.9375 L254.2656,20.5313 Q254.2656,21.1406 254.0313,21.4063 Q253.8125,21.6563 253.4219,21.6563 Q253.0469,21.6563 252.8125,21.4063 Q252.5781,21.1406 252.5781,20.5313 L252.5781,19.6406 L248.6094,19.6406 L248.6094,22.0938 L250.0938,22.0938 Q250.0938,21.4375 250.2188,21.25 Q250.4844,20.8438 250.9531,20.8438 Q251.3281,20.8438 251.5625,21.1094 Q251.7969,21.3594 251.7969,21.9688 L251.7969,23.9375 Q251.7969,24.4844 251.6719,24.6719 Q251.4063,25.0625 250.9531,25.0625 Q250.4844,25.0625 250.2188,24.6563 Q250.0938,24.4688 250.0938,23.7969 L248.6094,23.7969 Z " fill="#000000"/><text fill="#000000" font-family="sans-serif" font-size="14" lengthAdjust="spacing" textLength="29" x="270.25" y="28.7285">Kurs</text><line style="stroke:#181818;stroke-width:0.5;" x1="194" x2="343" y1="39" y2="39"/><ellipse cx="204" cy="53.3047" fill="#000000" rx="3" ry="3" style="stroke:#000000;stroke-width:1.0;"/><text fill="#000000" font-family="sans-serif" font-size="14" lengthAdjust="spacing" textLength="125" x="213" y="57.5332">Kurs_id primary key</text><line style="stroke:#181818;stroke-width:1.0;" x1="194" x2="343" y1="64.6094" y2="64.6094"/><ellipse cx="204" cy="78.9141" fill="#000000" rx="3" ry="3" style="stroke:#000000;stroke-width:1.0;"/><text fill="#000000" font-family="sans-serif" font-size="14" lengthAdjust="spacing" textLength="35" x="213" y="83.1426">name</text><ellipse cx="204" cy="96.5234" fill="#000000" rx="3" ry="3" style="stroke:#000000;stroke-width:1.0;"/><text fill="#000000" font-family="sans-serif" font-size="14" lengthAdjust="spacing" textLength="87" x="213" y="100.752">Beschreibung</text><ellipse cx="204" cy="114.1328" fill="#000000" rx="3" ry="3" style="stroke:#000000;stroke-width:1.0;"/><text fill="#000000" font-family="sans-serif" font-size="14" lengthAdjust="spacing" textLength="55" x="213" y="118.3613">Zeitraum</text><text fill="#000000" font-family="sans-serif" font-size="14" lengthAdjust="spacing" textLength="5" x="213" y="135.9707">*</text></g><!--MD5=[906a4304486e809851309bb1d8110d5c]
class Raum--><g id="elem_Raum"><rect codeLine="19" fill="#F1F1F1" height="136.0469" id="Raum" rx="2.5" ry="2.5" style="stroke:#181818;stroke-width:0.5;" width="191" x="173" y="221"/><ellipse cx="245.75" cy="237" fill="#ADD1B2" rx="11" ry="11" style="stroke:#181818;stroke-width:1.0;"/><path d="M244.6094,237.7969 L244.6094,240.2969 L248.9375,240.2969 L248.9375,239.375 Q248.9375,238.7656 249.1719,238.5 Q249.4219,238.2344 249.7969,238.2344 Q250.1719,238.2344 250.4063,238.5 Q250.6406,238.7656 250.6406,239.375 L250.6406,242 L242.6406,242 Q242.0156,242 241.75,241.7656 Q241.5,241.5313 241.5,241.1406 Q241.5,240.7656 241.7656,240.5313 Q242.0313,240.2969 242.6406,240.2969 L242.9063,240.2969 L242.9063,233.6406 L242.6406,233.6406 Q242.0156,233.6406 241.75,233.4063 Q241.5,233.1719 241.5,232.7813 Q241.5,232.4063 241.75,232.1719 Q242.0156,231.9375 242.6406,231.9375 L250.2656,231.9375 L250.2656,234.5313 Q250.2656,235.1406 250.0313,235.4063 Q249.8125,235.6563 249.4219,235.6563 Q249.0469,235.6563 248.8125,235.4063 Q248.5781,235.1406 248.5781,234.5313 L248.5781,233.6406 L244.6094,233.6406 L244.6094,236.0938 L246.0938,236.0938 Q246.0938,235.4375 246.2188,235.25 Q246.4844,234.8438 246.9531,234.8438 Q247.3281,234.8438 247.5625,235.1094 Q247.7969,235.3594 247.7969,235.9688 L247.7969,237.9375 Q247.7969,238.4844 247.6719,238.6719 Q247.4063,239.0625 246.9531,239.0625 Q246.4844,239.0625 246.2188,238.6563 Q246.0938,238.4688 246.0938,237.7969 L244.6094,237.7969 Z " fill="#000000"/><text fill="#000000" font-family="sans-serif" font-size="14" lengthAdjust="spacing" textLength="37" x="266.25" y="242.7285">Raum</text><line style="stroke:#181818;stroke-width:0.5;" x1="174" x2="363" y1="253" y2="253"/><ellipse cx="184" cy="267.3047" fill="#000000" rx="3" ry="3" style="stroke:#000000;stroke-width:1.0;"/><text fill="#000000" font-family="sans-serif" font-size="14" lengthAdjust="spacing" textLength="165" x="193" y="271.5332">Raumnummer primery key</text><line style="stroke:#181818;stroke-width:1.0;" x1="174" x2="363" y1="278.6094" y2="278.6094"/><ellipse cx="184" cy="292.9141" fill="#000000" rx="3" ry="3" style="stroke:#000000;stroke-width:1.0;"/><text fill="#000000" font-family="sans-serif" font-size="14" lengthAdjust="spacing" textLength="20" x="193" y="297.1426">Ort</text><ellipse cx="184" cy="310.5234" fill="#000000" rx="3" ry="3" style="stroke:#000000;stroke-width:1.0;"/><text fill="#000000" font-family="sans-serif" font-size="14" lengthAdjust="spacing" textLength="38" x="193" y="314.752">größe</text><ellipse cx="184" cy="328.1328" fill="#000000" rx="3" ry="3" style="stroke:#000000;stroke-width:1.0;"/><text fill="#000000" font-family="sans-serif" font-size="14" lengthAdjust="spacing" textLength="35" x="193" y="332.3613">Stock</text><text fill="#000000" font-family="sans-serif" font-size="14" lengthAdjust="spacing" textLength="4" x="193" y="349.9707"> </text></g><!--MD5=[e2da83e187856318d33924bd0c33f5a7]
class Dozent--><g id="elem_Dozent"><rect codeLine="28" fill="#F1F1F1" height="118.4375" id="Dozent" rx="2.5" ry="2.5" style="stroke:#181818;stroke-width:0.5;" width="122" x="408.5" y="16"/><ellipse cx="444.2" cy="32" fill="#ADD1B2" rx="11" ry="11" style="stroke:#181818;stroke-width:1.0;"/><path d="M443.0594,32.7969 L443.0594,35.2969 L447.3875,35.2969 L447.3875,34.375 Q447.3875,33.7656 447.6219,33.5 Q447.8719,33.2344 448.2469,33.2344 Q448.6219,33.2344 448.8563,33.5 Q449.0906,33.7656 449.0906,34.375 L449.0906,37 L441.0906,37 Q440.4656,37 440.2,36.7656 Q439.95,36.5313 439.95,36.1406 Q439.95,35.7656 440.2156,35.5313 Q440.4813,35.2969 441.0906,35.2969 L441.3563,35.2969 L441.3563,28.6406 L441.0906,28.6406 Q440.4656,28.6406 440.2,28.4063 Q439.95,28.1719 439.95,27.7813 Q439.95,27.4063 440.2,27.1719 Q440.4656,26.9375 441.0906,26.9375 L448.7156,26.9375 L448.7156,29.5313 Q448.7156,30.1406 448.4813,30.4063 Q448.2625,30.6563 447.8719,30.6563 Q447.4969,30.6563 447.2625,30.4063 Q447.0281,30.1406 447.0281,29.5313 L447.0281,28.6406 L443.0594,28.6406 L443.0594,31.0938 L444.5438,31.0938 Q444.5438,30.4375 444.6688,30.25 Q444.9344,29.8438 445.4031,29.8438 Q445.7781,29.8438 446.0125,30.1094 Q446.2469,30.3594 446.2469,30.9688 L446.2469,32.9375 Q446.2469,33.4844 446.1219,33.6719 Q445.8563,34.0625 445.4031,34.0625 Q444.9344,34.0625 444.6688,33.6563 Q444.5438,33.4688 444.5438,32.7969 L443.0594,32.7969 Z " fill="#000000"/><text fill="#000000" font-family="sans-serif" font-size="14" lengthAdjust="spacing" textLength="44" x="462.8" y="37.7285">Dozent</text><line style="stroke:#181818;stroke-width:0.5;" x1="409.5" x2="529.5" y1="48" y2="48"/><ellipse cx="419.5" cy="62.3047" fill="#000000" rx="3" ry="3" style="stroke:#000000;stroke-width:1.0;"/><text fill="#000000" font-family="sans-serif" font-size="14" lengthAdjust="spacing" textLength="96" x="428.5" y="66.5332">did primary key</text><line style="stroke:#181818;stroke-width:1.0;" x1="409.5" x2="529.5" y1="73.6094" y2="73.6094"/><ellipse cx="419.5" cy="87.9141" fill="#000000" rx="3" ry="3" style="stroke:#000000;stroke-width:1.0;"/><text fill="#000000" font-family="sans-serif" font-size="14" lengthAdjust="spacing" textLength="55" x="428.5" y="92.1426">vorname</text><ellipse cx="419.5" cy="105.5234" fill="#000000" rx="3" ry="3" style="stroke:#000000;stroke-width:1.0;"/><text fill="#000000" font-family="sans-serif" font-size="14" lengthAdjust="spacing" textLength="66" x="428.5" y="109.752">nachname</text><text fill="#000000" font-family="sans-serif" font-size="14" lengthAdjust="spacing" textLength="5" x="428.5" y="127.3613">*</text></g><!--MD5=[0de7f31612ea8222068d925681340b16]
link Teilnehmer to Kurs--><g id="link_Teilnehmer_Kurs"><path codeLine="36" d="M110.14,75 C135.04,75 165.38,75 192.82,75 " fill="none" id="Teilnehmer-Kurs" style="stroke:#181818;stroke-width:1.0;"/><text fill="#000000" font-family="sans-serif" font-size="13" lengthAdjust="spacing" textLength="46" x="128.5" y="68.4951">besucht</text><text fill="#000000" font-family="sans-serif" font-size="13" lengthAdjust="spacing" textLength="7" x="117.8941" y="71.3915">n</text><text fill="#000000" font-family="sans-serif" font-size="13" lengthAdjust="spacing" textLength="11" x="174.0825" y="71.7471">m</text></g><!--MD5=[60bbbdb2d9e72face1103cc01b694914]
link Kurs to Dozent--><g id="link_Kurs_Dozent"><path codeLine="37" d="M344.2,75 C365.35,75 388.05,75 408.25,75 " fill="none" id="Kurs-Dozent" style="stroke:#181818;stroke-width:1.0;"/><text fill="#000000" font-family="sans-serif" font-size="13" lengthAdjust="spacing" textLength="28" x="362.25" y="68.4951">leitet</text><text fill="#000000" font-family="sans-serif" font-size="13" lengthAdjust="spacing" textLength="7" x="351.9963" y="71.7226">n</text><text fill="#000000" font-family="sans-serif" font-size="13" lengthAdjust="spacing" textLength="7" x="393.3586" y="71.5149">1</text></g><!--MD5=[0b06474e58db79b0a36b7f2d77a6d801]
link Kurs to Raum--><g id="link_Kurs_Raum"><path codeLine="38" d="M268.5,143.08 C268.5,167.95 268.5,196.13 268.5,220.99 " fill="none" id="Kurs-Raum" style="stroke:#181818;stroke-width:1.0;"/><text fill="#000000" font-family="sans-serif" font-size="13" lengthAdjust="spacing" textLength="35" x="269.5" y="187.4951">belegt</text><text fill="#000000" font-family="sans-serif" font-size="13" lengthAdjust="spacing" textLength="7" x="261.1391" y="164.4366">n</text><text fill="#000000" font-family="sans-serif" font-size="13" lengthAdjust="spacing" textLength="7" x="261.1172" y="210.1882">1</text></g><!--MD5=[ced371a60207342849357822c2390167]
@startuml name Kurs 
entity Teilnehmer {
    * tid 
    - -
    * Vorname
    * Nachname
    * Straße
    * Wohnort
}

entity Kurs {
    * Kurs_id primary key 
    - -
    * name
    * Beschreibung 
    * Zeitraum
    * 
}

entity Raum {
    * Raumnummer primery key 
    - -
    * Ort 
    * größe
    * Stock

}

entity Dozent {
    * did primary key 
    - -
    * vorname
    * nachname
    * 
}
'' Beziehunngen 
Teilnehmer "n" - "m" Kurs: besucht
Kurs "n" - "1" Dozent: leitet
Kurs "n" - - "1" Raum: belegt

@endeuml

@startuml name Kurs 
entity Teilnehmer {
    * tid 
    - -
    * Vorname
    * Nachname
    * Straße
    * Wohnort
}

entity Kurs {
    * Kurs_id primary key 
    - -
    * name
    * Beschreibung 
    * Zeitraum
    * 
}

entity Raum {
    * Raumnummer primery key 
    - -
    * Ort 
    * größe
    * Stock

}

entity Dozent {
    * did primary key 
    - -
    * vorname
    * nachname
    * 
}
Teilnehmer "n" - "m" Kurs: besucht
Kurs "n" - "1" Dozent: leitet
Kurs "n" - - "1" Raum: belegt

@endeuml

PlantUML version 1.2022.7(Mon Aug 22 19:01:30 CEST 2022)
(GPL source distribution)
Java Runtime: OpenJDK Runtime Environment
JVM: OpenJDK 64-Bit Server VM
Default Encoding: UTF-8
Language: de
Country: DE
--></g></svg>