<?xml version="1.0" encoding="UTF-8" standalone="no"?><svg xmlns="http://www.w3.org/2000/svg" xmlns:xlink="http://www.w3.org/1999/xlink" contentStyleType="text/css" height="415px" preserveAspectRatio="none" style="width:262px;height:415px;background:#FFFFFF;" version="1.1" viewBox="0 0 262 415" width="262px" zoomAndPan="magnify"><defs/><g><ellipse cx="117.5" cy="20" fill="#222222" rx="10" ry="10" style="stroke:#222222;stroke-width:1.0;"/><rect fill="#F1F1F1" height="35.0938" rx="12.5" ry="12.5" style="stroke:#181818;stroke-width:0.5;" width="197" x="19" y="50"/><text fill="#000000" font-family="sans-serif" font-size="12" lengthAdjust="spacing" textLength="174" x="32" y="72.457">Funktion String dez2bin(Integer)</text><rect fill="#F1F1F1" height="35.0938" rx="12.5" ry="12.5" style="stroke:#181818;stroke-width:0.5;" width="89" x="73" y="105.0938"/><text fill="#000000" font-family="sans-serif" font-size="12" lengthAdjust="spacing" textLength="66" x="86" y="127.5508">String result</text><rect fill="#F1F1F1" height="35.0938" rx="12.5" ry="12.5" style="stroke:#181818;stroke-width:0.5;" width="213" x="11" y="215.2813"/><text fill="#000000" font-family="sans-serif" font-size="12" lengthAdjust="spacing" textLength="190" x="24" y="237.7383">String result = number % 2 + result</text><rect fill="#F1F1F1" height="35.0938" rx="12.5" ry="12.5" style="stroke:#181818;stroke-width:0.5;" width="82" x="76.5" y="160.1875"/><text fill="#000000" font-family="sans-serif" font-size="12" lengthAdjust="spacing" textLength="59" x="89.5" y="182.6445">number / 2</text><polygon fill="#F1F1F1" points="89.5,270.375,145.5,270.375,157.5,282.375,145.5,294.375,89.5,294.375,77.5,282.375,89.5,270.375" style="stroke:#181818;stroke-width:0.5;"/><text fill="#000000" font-family="sans-serif" font-size="11" lengthAdjust="spacing" textLength="24" x="121.5" y="305.7939">false</text><text fill="#000000" font-family="sans-serif" font-size="11" lengthAdjust="spacing" textLength="56" x="89.5" y="286.876">number != 0</text><text fill="#000000" font-family="sans-serif" font-size="11" lengthAdjust="spacing" textLength="19" x="157.5" y="279.958">true</text><rect fill="#F1F1F1" height="35.0938" rx="12.5" ry="12.5" style="stroke:#181818;stroke-width:0.5;" width="89" x="73" y="327.2939"/><text fill="#000000" font-family="sans-serif" font-size="12" lengthAdjust="spacing" textLength="66" x="86" y="349.751">return result</text><ellipse cx="117.5" cy="393.3877" fill="none" rx="11" ry="11" style="stroke:#222222;stroke-width:1.0;"/><ellipse cx="117.5" cy="393.3877" fill="#222222" rx="6" ry="6" style="stroke:#111111;stroke-width:1.0;"/><line style="stroke:#181818;stroke-width:1.0;" x1="117.5" x2="117.5" y1="30" y2="50"/><polygon fill="#181818" points="113.5,40,117.5,50,121.5,40,117.5,44" style="stroke:#181818;stroke-width:1.0;"/><line style="stroke:#181818;stroke-width:1.0;" x1="117.5" x2="117.5" y1="85.0938" y2="105.0938"/><polygon fill="#181818" points="113.5,95.0938,117.5,105.0938,121.5,95.0938,117.5,99.0938" style="stroke:#181818;stroke-width:1.0;"/><line style="stroke:#181818;stroke-width:1.0;" x1="117.5" x2="117.5" y1="195.2813" y2="215.2813"/><polygon fill="#181818" points="113.5,205.2813,117.5,215.2813,121.5,205.2813,117.5,209.2813" style="stroke:#181818;stroke-width:1.0;"/><line style="stroke:#181818;stroke-width:1.0;" x1="157.5" x2="236" y1="282.375" y2="282.375"/><polygon fill="#181818" points="232,240.0547,236,230.0547,240,240.0547,236,236.0547" style="stroke:#181818;stroke-width:1.0;"/><line style="stroke:#181818;stroke-width:1.0;" x1="236" x2="236" y1="177.7344" y2="282.375"/><line style="stroke:#181818;stroke-width:1.0;" x1="236" x2="158.5" y1="177.7344" y2="177.7344"/><polygon fill="#181818" points="168.5,173.7344,158.5,177.7344,168.5,181.7344,164.5,177.7344" style="stroke:#181818;stroke-width:1.0;"/><line style="stroke:#181818;stroke-width:1.0;" x1="117.5" x2="117.5" y1="250.375" y2="270.375"/><polygon fill="#181818" points="113.5,260.375,117.5,270.375,121.5,260.375,117.5,264.375" style="stroke:#181818;stroke-width:1.0;"/><line style="stroke:#181818;stroke-width:1.0;" x1="117.5" x2="117.5" y1="140.1875" y2="160.1875"/><polygon fill="#181818" points="113.5,150.1875,117.5,160.1875,121.5,150.1875,117.5,154.1875" style="stroke:#181818;stroke-width:1.0;"/><line style="stroke:#181818;stroke-width:1.0;" x1="117.5" x2="117.5" y1="294.375" y2="327.2939"/><polygon fill="#181818" points="113.5,317.2939,117.5,327.2939,121.5,317.2939,117.5,321.2939" style="stroke:#181818;stroke-width:1.0;"/><line style="stroke:#181818;stroke-width:1.0;" x1="117.5" x2="117.5" y1="362.3877" y2="382.3877"/><polygon fill="#181818" points="113.5,372.3877,117.5,382.3877,121.5,372.3877,117.5,376.3877" style="stroke:#181818;stroke-width:1.0;"/><!--MD5=[a8f2f11d8f5777f78fec8ebad2865a13]
@startuml binär

start
: Funktion String dez2bin(Integer);
: String result;
repeat: number / 2;
: String result = number % 2 + result;
repeat while(number != 0) is (true) not (false)
: return result;
stop

@enduml

PlantUML version 1.2022.7(Mon Aug 22 19:01:30 CEST 2022)
(GPL source distribution)
Java Runtime: OpenJDK Runtime Environment
JVM: OpenJDK 64-Bit Server VM
Default Encoding: UTF-8
Language: de
Country: DE
--></g></svg>