<?xml version="1.0" encoding="UTF-8" standalone="no"?><svg xmlns="http://www.w3.org/2000/svg" xmlns:xlink="http://www.w3.org/1999/xlink" contentStyleType="text/css" height="417px" preserveAspectRatio="none" style="width:219px;height:417px;background:#FFFFFF;" version="1.1" viewBox="0 0 219 417" width="219px" zoomAndPan="magnify"><defs/><g><!--MD5=[3319dce205b27ce2f88fc06e47094af9]
class Mieter--><g id="elem_Mieter"><rect codeLine="1" fill="#F1F1F1" height="188.875" id="Mieter" rx="2.5" ry="2.5" style="stroke:#181818;stroke-width:0.5;" width="203" x="8" y="7"/><ellipse cx="85.75" cy="23" fill="#ADD1B2" rx="11" ry="11" style="stroke:#181818;stroke-width:1.0;"/><path d="M88.5156,18.875 Q88.6719,18.6563 88.8594,18.5469 Q89.0469,18.4375 89.2656,18.4375 Q89.6406,18.4375 89.875,18.7031 Q90.1094,18.9531 90.1094,19.5625 L90.1094,21.0156 Q90.1094,21.625 89.875,21.8906 Q89.6406,22.1563 89.2656,22.1563 Q88.9219,22.1563 88.7188,21.9531 Q88.5156,21.7656 88.4063,21.25 Q88.3594,20.8906 88.1719,20.7031 Q87.8438,20.3281 87.2344,20.1094 Q86.625,19.8906 86,19.8906 Q85.2344,19.8906 84.5938,20.2188 Q83.9688,20.5469 83.4688,21.2969 Q82.9844,22.0469 82.9844,23.0781 L82.9844,24.1719 Q82.9844,25.4063 83.875,26.2344 Q84.7656,27.0469 86.3594,27.0469 Q87.2969,27.0469 87.9531,26.7969 Q88.3438,26.6406 88.7656,26.2031 Q89.0313,25.9375 89.1719,25.8594 Q89.3281,25.7813 89.5313,25.7813 Q89.8594,25.7813 90.1094,26.0469 Q90.375,26.2969 90.375,26.6406 Q90.375,26.9844 90.0313,27.3906 Q89.5313,27.9688 88.7344,28.2969 Q87.6563,28.75 86.3594,28.75 Q84.8438,28.75 83.6406,28.125 Q82.6563,27.625 81.9688,26.5625 Q81.2813,25.4844 81.2813,24.2031 L81.2813,23.0469 Q81.2813,21.7188 81.8906,20.5781 Q82.5156,19.4219 83.6094,18.8125 Q84.7031,18.1875 85.9375,18.1875 Q86.6719,18.1875 87.3125,18.3594 Q87.9688,18.5156 88.5156,18.875 Z " fill="#000000"/><text fill="#000000" font-family="sans-serif" font-size="14" lengthAdjust="spacing" textLength="39" x="106.25" y="28.7285">Mieter</text><line style="stroke:#181818;stroke-width:0.5;" x1="9" x2="210" y1="39" y2="39"/><rect fill="none" height="6" style="stroke:#C82930;stroke-width:1.0;" width="6" x="16" y="50.3047"/><text fill="#000000" font-family="sans-serif" font-size="14" lengthAdjust="spacing" textLength="76" x="28" y="57.5332">String:name</text><rect fill="none" height="6" style="stroke:#C82930;stroke-width:1.0;" width="6" x="16" y="67.9141"/><text fill="#000000" font-family="sans-serif" font-size="14" lengthAdjust="spacing" textLength="77" x="28" y="75.1426">String:etage</text><text fill="#000000" font-family="sans-serif" font-size="14" lengthAdjust="spacing" textLength="10" x="28" y="92.752">--</text><line style="stroke:#181818;stroke-width:0.5;" x1="9" x2="210" y1="99.8281" y2="99.8281"/><ellipse cx="19" cy="114.1328" fill="#84BE84" rx="3" ry="3" style="stroke:#038048;stroke-width:1.0;"/><text fill="#000000" font-family="sans-serif" font-size="14" lengthAdjust="spacing" textLength="49" x="28" y="118.3613">Mieter()</text><ellipse cx="19" cy="131.7422" fill="#84BE84" rx="3" ry="3" style="stroke:#038048;stroke-width:1.0;"/><text fill="#000000" font-family="sans-serif" font-size="14" lengthAdjust="spacing" textLength="110" x="28" y="135.9707">GetName():String</text><ellipse cx="19" cy="149.3516" fill="#84BE84" rx="3" ry="3" style="stroke:#038048;stroke-width:1.0;"/><text fill="#000000" font-family="sans-serif" font-size="14" lengthAdjust="spacing" textLength="108" x="28" y="153.5801">getEtage():String</text><ellipse cx="19" cy="166.9609" fill="#84BE84" rx="3" ry="3" style="stroke:#038048;stroke-width:1.0;"/><text fill="#000000" font-family="sans-serif" font-size="14" lengthAdjust="spacing" textLength="175" x="28" y="171.1895">setName(String name): void</text><ellipse cx="19" cy="184.5703" fill="#84BE84" rx="3" ry="3" style="stroke:#038048;stroke-width:1.0;"/><text fill="#000000" font-family="sans-serif" font-size="14" lengthAdjust="spacing" textLength="177" x="28" y="188.7988">setEtage(String etage): void</text></g><!--MD5=[5faf38ed9e2b5645e51abc3e8dd1a943]
class Hund--><g id="elem_Hund"><rect codeLine="11" fill="#F1F1F1" height="136.0469" id="Hund" rx="2.5" ry="2.5" style="stroke:#181818;stroke-width:0.5;" width="205" x="7" y="274"/><ellipse cx="88.75" cy="290" fill="#ADD1B2" rx="11" ry="11" style="stroke:#181818;stroke-width:1.0;"/><path d="M91.5156,285.875 Q91.6719,285.6563 91.8594,285.5469 Q92.0469,285.4375 92.2656,285.4375 Q92.6406,285.4375 92.875,285.7031 Q93.1094,285.9531 93.1094,286.5625 L93.1094,288.0156 Q93.1094,288.625 92.875,288.8906 Q92.6406,289.1563 92.2656,289.1563 Q91.9219,289.1563 91.7188,288.9531 Q91.5156,288.7656 91.4063,288.25 Q91.3594,287.8906 91.1719,287.7031 Q90.8438,287.3281 90.2344,287.1094 Q89.625,286.8906 89,286.8906 Q88.2344,286.8906 87.5938,287.2188 Q86.9688,287.5469 86.4688,288.2969 Q85.9844,289.0469 85.9844,290.0781 L85.9844,291.1719 Q85.9844,292.4063 86.875,293.2344 Q87.7656,294.0469 89.3594,294.0469 Q90.2969,294.0469 90.9531,293.7969 Q91.3438,293.6406 91.7656,293.2031 Q92.0313,292.9375 92.1719,292.8594 Q92.3281,292.7813 92.5313,292.7813 Q92.8594,292.7813 93.1094,293.0469 Q93.375,293.2969 93.375,293.6406 Q93.375,293.9844 93.0313,294.3906 Q92.5313,294.9688 91.7344,295.2969 Q90.6563,295.75 89.3594,295.75 Q87.8438,295.75 86.6406,295.125 Q85.6563,294.625 84.9688,293.5625 Q84.2813,292.4844 84.2813,291.2031 L84.2813,290.0469 Q84.2813,288.7188 84.8906,287.5781 Q85.5156,286.4219 86.6094,285.8125 Q87.7031,285.1875 88.9375,285.1875 Q89.6719,285.1875 90.3125,285.3594 Q90.9688,285.5156 91.5156,285.875 Z " fill="#000000"/><text fill="#000000" font-family="sans-serif" font-size="14" lengthAdjust="spacing" textLength="33" x="109.25" y="295.7285">Hund</text><line style="stroke:#181818;stroke-width:0.5;" x1="8" x2="211" y1="306" y2="306"/><rect fill="none" height="6" style="stroke:#C82930;stroke-width:1.0;" width="6" x="15" y="317.3047"/><text fill="#000000" font-family="sans-serif" font-size="14" lengthAdjust="spacing" textLength="76" x="27" y="324.5332">name:String</text><text fill="#000000" font-family="sans-serif" font-size="14" lengthAdjust="spacing" textLength="10" x="27" y="342.1426">--</text><line style="stroke:#181818;stroke-width:0.5;" x1="8" x2="211" y1="349.2188" y2="349.2188"/><ellipse cx="18" cy="363.5234" fill="#84BE84" rx="3" ry="3" style="stroke:#038048;stroke-width:1.0;"/><text fill="#000000" font-family="sans-serif" font-size="14" lengthAdjust="spacing" textLength="43" x="27" y="367.752">Hund()</text><ellipse cx="18" cy="381.1328" fill="#84BE84" rx="3" ry="3" style="stroke:#038048;stroke-width:1.0;"/><text fill="#000000" font-family="sans-serif" font-size="14" lengthAdjust="spacing" textLength="111" x="27" y="385.3613">getName(): String</text><ellipse cx="18" cy="398.7422" fill="#84BE84" rx="3" ry="3" style="stroke:#038048;stroke-width:1.0;"/><text fill="#000000" font-family="sans-serif" font-size="14" lengthAdjust="spacing" textLength="179" x="27" y="402.9707">setName(String name) : void</text></g><!--MD5=[bfa0dfbaa251334d5494f5ba107df545]
link Mieter to Hund--><g id="link_Mieter_Hund"><path codeLine="19" d="M109.5,196.08 C109.5,220.22 109.5,245.84 109.5,268.71 " fill="none" id="Mieter-to-Hund" style="stroke:#181818;stroke-width:1.0;"/><polygon fill="#181818" points="109.5,273.85,113.5,264.85,109.5,268.85,105.5,264.85,109.5,273.85" style="stroke:#181818;stroke-width:1.0;"/><text fill="#000000" font-family="sans-serif" font-size="13" lengthAdjust="spacing" textLength="48" x="110.5" y="240.4951">hatHund</text><text fill="#000000" font-family="sans-serif" font-size="13" lengthAdjust="spacing" textLength="7" x="102.1172" y="263.0329">1</text></g><!--MD5=[eab4aa6bd04be71aaaee08f32fb6f7ed]
@startuml
class Mieter {
	-String:name
	-String:etage
    - -
	+Mieter()
	+GetName():String
	+getEtage():String
	+setName(String name): void
	+setEtage(String etage): void
}
class Hund {
	-name:String 
    - -
    +Hund()
	+getName(): String
	+setName(String name) : void
}

Mieter - -> "1" Hund : hatHund 

@enduml

PlantUML version 1.2022.7(Mon Aug 22 19:01:30 CEST 2022)
(GPL source distribution)
Java Runtime: OpenJDK Runtime Environment
JVM: OpenJDK 64-Bit Server VM
Default Encoding: UTF-8
Language: de
Country: DE
--></g></svg>