<?xml version="1.0" encoding="UTF-8" standalone="no"?><svg xmlns="http://www.w3.org/2000/svg" xmlns:xlink="http://www.w3.org/1999/xlink" contentStyleType="text/css" height="381px" preserveAspectRatio="none" style="width:399px;height:381px;background:#FFFFFF;" version="1.1" viewBox="0 0 399 381" width="399px" zoomAndPan="magnify"><defs/><g><!--MD5=[72136138052d025cffdce3c22fbd185f]
class Product--><g id="elem_Product"><rect codeLine="2" fill="#F1F1F1" height="136.0469" id="Product" rx="2.5" ry="2.5" style="stroke:#181818;stroke-width:0.5;" width="170" x="7" y="24.5"/><ellipse cx="63.25" cy="40.5" fill="#ADD1B2" rx="11" ry="11" style="stroke:#181818;stroke-width:1.0;"/><path d="M62.1094,41.2969 L62.1094,43.7969 L66.4375,43.7969 L66.4375,42.875 Q66.4375,42.2656 66.6719,42 Q66.9219,41.7344 67.2969,41.7344 Q67.6719,41.7344 67.9063,42 Q68.1406,42.2656 68.1406,42.875 L68.1406,45.5 L60.1406,45.5 Q59.5156,45.5 59.25,45.2656 Q59,45.0313 59,44.6406 Q59,44.2656 59.2656,44.0313 Q59.5313,43.7969 60.1406,43.7969 L60.4063,43.7969 L60.4063,37.1406 L60.1406,37.1406 Q59.5156,37.1406 59.25,36.9063 Q59,36.6719 59,36.2813 Q59,35.9063 59.25,35.6719 Q59.5156,35.4375 60.1406,35.4375 L67.7656,35.4375 L67.7656,38.0313 Q67.7656,38.6406 67.5313,38.9063 Q67.3125,39.1563 66.9219,39.1563 Q66.5469,39.1563 66.3125,38.9063 Q66.0781,38.6406 66.0781,38.0313 L66.0781,37.1406 L62.1094,37.1406 L62.1094,39.5938 L63.5938,39.5938 Q63.5938,38.9375 63.7188,38.75 Q63.9844,38.3438 64.4531,38.3438 Q64.8281,38.3438 65.0625,38.6094 Q65.2969,38.8594 65.2969,39.4688 L65.2969,41.4375 Q65.2969,41.9844 65.1719,42.1719 Q64.9063,42.5625 64.4531,42.5625 Q63.9844,42.5625 63.7188,42.1563 Q63.5938,41.9688 63.5938,41.2969 L62.1094,41.2969 Z " fill="#000000"/><text fill="#000000" font-family="sans-serif" font-size="14" lengthAdjust="spacing" textLength="49" x="83.75" y="46.2285">Product</text><line style="stroke:#181818;stroke-width:0.5;" x1="8" x2="176" y1="56.5" y2="56.5"/><ellipse cx="18" cy="70.8047" fill="#000000" rx="3" ry="3" style="stroke:#000000;stroke-width:1.0;"/><text fill="#000000" font-family="sans-serif" font-size="14" lengthAdjust="spacing" textLength="144" x="27" y="75.0332">product_id primary key</text><line style="stroke:#181818;stroke-width:1.0;" x1="8" x2="176" y1="82.1094" y2="82.1094"/><ellipse cx="18" cy="96.4141" fill="#000000" rx="3" ry="3" style="stroke:#000000;stroke-width:1.0;"/><text fill="#000000" font-family="sans-serif" font-size="14" lengthAdjust="spacing" textLength="91" x="27" y="100.6426">product_name</text><ellipse cx="18" cy="114.0234" fill="#000000" rx="3" ry="3" style="stroke:#000000;stroke-width:1.0;"/><text fill="#000000" font-family="sans-serif" font-size="14" lengthAdjust="spacing" textLength="69" x="27" y="118.252">description</text><ellipse cx="18" cy="131.6328" fill="#000000" rx="3" ry="3" style="stroke:#000000;stroke-width:1.0;"/><text fill="#000000" font-family="sans-serif" font-size="14" lengthAdjust="spacing" textLength="31" x="27" y="135.8613">color</text><ellipse cx="18" cy="149.2422" fill="#000000" rx="3" ry="3" style="stroke:#000000;stroke-width:1.0;"/><text fill="#000000" font-family="sans-serif" font-size="14" lengthAdjust="spacing" textLength="31" x="27" y="153.4707">price</text></g><!--MD5=[3fd616f346a44cd59a91eb10b19e157c]
class User--><g id="elem_User"><rect codeLine="10" fill="#F1F1F1" height="171.2656" id="User" rx="2.5" ry="2.5" style="stroke:#181818;stroke-width:0.5;" width="180" x="212" y="7"/><ellipse cx="283.25" cy="23" fill="#ADD1B2" rx="11" ry="11" style="stroke:#181818;stroke-width:1.0;"/><path d="M282.1094,23.7969 L282.1094,26.2969 L286.4375,26.2969 L286.4375,25.375 Q286.4375,24.7656 286.6719,24.5 Q286.9219,24.2344 287.2969,24.2344 Q287.6719,24.2344 287.9063,24.5 Q288.1406,24.7656 288.1406,25.375 L288.1406,28 L280.1406,28 Q279.5156,28 279.25,27.7656 Q279,27.5313 279,27.1406 Q279,26.7656 279.2656,26.5313 Q279.5313,26.2969 280.1406,26.2969 L280.4063,26.2969 L280.4063,19.6406 L280.1406,19.6406 Q279.5156,19.6406 279.25,19.4063 Q279,19.1719 279,18.7813 Q279,18.4063 279.25,18.1719 Q279.5156,17.9375 280.1406,17.9375 L287.7656,17.9375 L287.7656,20.5313 Q287.7656,21.1406 287.5313,21.4063 Q287.3125,21.6563 286.9219,21.6563 Q286.5469,21.6563 286.3125,21.4063 Q286.0781,21.1406 286.0781,20.5313 L286.0781,19.6406 L282.1094,19.6406 L282.1094,22.0938 L283.5938,22.0938 Q283.5938,21.4375 283.7188,21.25 Q283.9844,20.8438 284.4531,20.8438 Q284.8281,20.8438 285.0625,21.1094 Q285.2969,21.3594 285.2969,21.9688 L285.2969,23.9375 Q285.2969,24.4844 285.1719,24.6719 Q284.9063,25.0625 284.4531,25.0625 Q283.9844,25.0625 283.7188,24.6563 Q283.5938,24.4688 283.5938,23.7969 L282.1094,23.7969 Z " fill="#000000"/><text fill="#000000" font-family="sans-serif" font-size="14" lengthAdjust="spacing" textLength="29" x="303.75" y="28.7285">User</text><line style="stroke:#181818;stroke-width:0.5;" x1="213" x2="391" y1="39" y2="39"/><ellipse cx="223" cy="53.3047" fill="#000000" rx="3" ry="3" style="stroke:#000000;stroke-width:1.0;"/><text fill="#000000" font-family="sans-serif" font-size="14" lengthAdjust="spacing" textLength="154" x="232" y="57.5332">costumer_id primary key</text><line style="stroke:#181818;stroke-width:1.0;" x1="213" x2="391" y1="64.6094" y2="64.6094"/><ellipse cx="223" cy="78.9141" fill="#000000" rx="3" ry="3" style="stroke:#000000;stroke-width:1.0;"/><text fill="#000000" font-family="sans-serif" font-size="14" lengthAdjust="spacing" textLength="57" x="232" y="83.1426">lastname</text><ellipse cx="223" cy="96.5234" fill="#000000" rx="3" ry="3" style="stroke:#000000;stroke-width:1.0;"/><text fill="#000000" font-family="sans-serif" font-size="14" lengthAdjust="spacing" textLength="58" x="232" y="100.752">firstname</text><ellipse cx="223" cy="114.1328" fill="#000000" rx="3" ry="3" style="stroke:#000000;stroke-width:1.0;"/><text fill="#000000" font-family="sans-serif" font-size="14" lengthAdjust="spacing" textLength="60" x="232" y="118.3613">password</text><ellipse cx="223" cy="131.7422" fill="#000000" rx="3" ry="3" style="stroke:#000000;stroke-width:1.0;"/><text fill="#000000" font-family="sans-serif" font-size="14" lengthAdjust="spacing" textLength="51" x="232" y="135.9707">address</text><ellipse cx="223" cy="149.3516" fill="#000000" rx="3" ry="3" style="stroke:#000000;stroke-width:1.0;"/><text fill="#000000" font-family="sans-serif" font-size="14" lengthAdjust="spacing" textLength="58" x="232" y="153.5801">postcode</text><ellipse cx="223" cy="166.9609" fill="#000000" rx="3" ry="3" style="stroke:#000000;stroke-width:1.0;"/><text fill="#000000" font-family="sans-serif" font-size="14" lengthAdjust="spacing" textLength="21" x="232" y="171.1895">city</text></g><!--MD5=[cf4d6237fcae255cd2e1656cf84a30e2]
class Order--><g id="elem_Order"><rect codeLine="20" fill="#F1F1F1" height="136.0469" id="Order" rx="2.5" ry="2.5" style="stroke:#181818;stroke-width:0.5;" width="177" x="108.5" y="238"/><ellipse cx="174.25" cy="254" fill="#ADD1B2" rx="11" ry="11" style="stroke:#181818;stroke-width:1.0;"/><path d="M173.1094,254.7969 L173.1094,257.2969 L177.4375,257.2969 L177.4375,256.375 Q177.4375,255.7656 177.6719,255.5 Q177.9219,255.2344 178.2969,255.2344 Q178.6719,255.2344 178.9063,255.5 Q179.1406,255.7656 179.1406,256.375 L179.1406,259 L171.1406,259 Q170.5156,259 170.25,258.7656 Q170,258.5313 170,258.1406 Q170,257.7656 170.2656,257.5313 Q170.5313,257.2969 171.1406,257.2969 L171.4063,257.2969 L171.4063,250.6406 L171.1406,250.6406 Q170.5156,250.6406 170.25,250.4063 Q170,250.1719 170,249.7813 Q170,249.4063 170.25,249.1719 Q170.5156,248.9375 171.1406,248.9375 L178.7656,248.9375 L178.7656,251.5313 Q178.7656,252.1406 178.5313,252.4063 Q178.3125,252.6563 177.9219,252.6563 Q177.5469,252.6563 177.3125,252.4063 Q177.0781,252.1406 177.0781,251.5313 L177.0781,250.6406 L173.1094,250.6406 L173.1094,253.0938 L174.5938,253.0938 Q174.5938,252.4375 174.7188,252.25 Q174.9844,251.8438 175.4531,251.8438 Q175.8281,251.8438 176.0625,252.1094 Q176.2969,252.3594 176.2969,252.9688 L176.2969,254.9375 Q176.2969,255.4844 176.1719,255.6719 Q175.9063,256.0625 175.4531,256.0625 Q174.9844,256.0625 174.7188,255.6563 Q174.5938,255.4688 174.5938,254.7969 L173.1094,254.7969 Z " fill="#000000"/><text fill="#000000" font-family="sans-serif" font-size="14" lengthAdjust="spacing" textLength="37" x="194.75" y="259.7285">Order</text><line style="stroke:#181818;stroke-width:0.5;" x1="109.5" x2="284.5" y1="270" y2="270"/><ellipse cx="119.5" cy="284.3047" fill="#000000" rx="3" ry="3" style="stroke:#000000;stroke-width:1.0;"/><text fill="#000000" font-family="sans-serif" font-size="14" lengthAdjust="spacing" textLength="130" x="128.5" y="288.5332">order_id primary key</text><line style="stroke:#181818;stroke-width:1.0;" x1="109.5" x2="284.5" y1="295.6094" y2="295.6094"/><ellipse cx="119.5" cy="309.9141" fill="#000000" rx="3" ry="3" style="stroke:#000000;stroke-width:1.0;"/><text fill="#000000" font-family="sans-serif" font-size="14" lengthAdjust="spacing" textLength="141" x="128.5" y="314.1426">product_id foreign key</text><ellipse cx="119.5" cy="327.5234" fill="#000000" rx="3" ry="3" style="stroke:#000000;stroke-width:1.0;"/><text fill="#000000" font-family="sans-serif" font-size="14" lengthAdjust="spacing" textLength="151" x="128.5" y="331.752">costumer_id foreign key</text><ellipse cx="119.5" cy="345.1328" fill="#000000" rx="3" ry="3" style="stroke:#000000;stroke-width:1.0;"/><text fill="#000000" font-family="sans-serif" font-size="14" lengthAdjust="spacing" textLength="47" x="128.5" y="349.3613">amount</text><ellipse cx="119.5" cy="362.7422" fill="#000000" rx="3" ry="3" style="stroke:#000000;stroke-width:1.0;"/><text fill="#000000" font-family="sans-serif" font-size="14" lengthAdjust="spacing" textLength="70" x="128.5" y="366.9707">order_date</text></g><!--MD5=[6e489335d8a0a0176bf12d16fb839ddd]
link Product to Order--><g id="link_Product_Order"><path codeLine="30" d="M125.37,160.71 C137.62,185.39 151.48,213.3 163.72,237.96 " fill="none" id="Product-Order" style="stroke:#181818;stroke-width:1.0;"/><text fill="#000000" font-family="sans-serif" font-size="13" lengthAdjust="spacing" textLength="7" x="121.4503" y="182.08">1</text><text fill="#000000" font-family="sans-serif" font-size="13" lengthAdjust="spacing" textLength="7" x="152.6972" y="227.1549">n</text></g><!--MD5=[5b2a2bdb39cc116e4a78ea074bb38160]
link User to Order--><g id="link_User_Order"><path codeLine="31" d="M260.05,178 C250.17,197.91 239.76,218.86 230.32,237.88 " fill="none" id="User-Order" style="stroke:#181818;stroke-width:1.0;"/><text fill="#000000" font-family="sans-serif" font-size="13" lengthAdjust="spacing" textLength="7" x="249.0021" y="199.8263">n</text><text fill="#000000" font-family="sans-serif" font-size="13" lengthAdjust="spacing" textLength="11" x="222.3628" y="227.0662">m</text></g><!--MD5=[e645f6c92b53f9e5ce1eb4401c96e6a0]
@startuml

entity Product{
    * product_id primary key
    - -
    * product_name
    * description
    * color
    * price 
}
entity User{
    * costumer_id primary key 
    - -
    * lastname 
    * firstname
    * password
    * address
    * postcode
    * city 
}
entity Order {
    * order_id primary key 
    - -
    * product_id foreign key 
    * costumer_id foreign key 
    * amount 
    * order_date 
}

'' Relationen 
Product "1" - - "n" Order
User "n" - - "m" Order

@enduml

@startuml

entity Product{
    * product_id primary key
    - -
    * product_name
    * description
    * color
    * price 
}
entity User{
    * costumer_id primary key 
    - -
    * lastname 
    * firstname
    * password
    * address
    * postcode
    * city 
}
entity Order {
    * order_id primary key 
    - -
    * product_id foreign key 
    * costumer_id foreign key 
    * amount 
    * order_date 
}

Product "1" - - "n" Order
User "n" - - "m" Order

@enduml

PlantUML version 1.2022.7(Mon Aug 22 19:01:30 CEST 2022)
(GPL source distribution)
Java Runtime: OpenJDK Runtime Environment
JVM: OpenJDK 64-Bit Server VM
Default Encoding: UTF-8
Language: de
Country: DE
--></g></svg>