<svg xmlns="http://www.w3.org/2000/svg" xmlns:xlink="http://www.w3.org/1999/xlink" contentStyleType="text/css" height="1137px" preserveAspectRatio="none" style="width:350px;height:1137px;background:#FFFFFF;" version="1.1" viewBox="0 0 350 1137" width="350px" zoomAndPan="magnify"><defs/><g><rect fill="#F1F1F1" height="36.4883" rx="12.5" ry="12.5" style="stroke:#181818;stroke-width:1.5;" width="27.3418" x="10" y="549.5776"/><text fill="#000000" font-family="sans-serif" font-size="14" lengthAdjust="spacing" textLength="7.3418" x="20" y="573.1128">/</text><rect fill="#F1F1F1" height="36.4883" rx="12.5" ry="12.5" style="stroke:#181818;stroke-width:1.5;" width="41.5469" x="87.3418" y="20"/><text fill="#000000" font-family="sans-serif" font-size="14" lengthAdjust="spacing" textLength="21.5469" x="97.3418" y="43.5352">bin</text><path d="M37.3418,567.8218 L47.3418,567.8218 C62.3418,567.8218 62.3418,38.2441 77.3418,38.2441 L87.3418,38.2441 " fill="none" style="stroke:#181818;stroke-width:1;"/><rect fill="#F1F1F1" height="36.4883" rx="12.5" ry="12.5" style="stroke:#181818;stroke-width:1.5;" width="51.2471" x="87.3418" y="76.4883"/><text fill="#000000" font-family="sans-serif" font-size="14" lengthAdjust="spacing" textLength="31.2471" x="97.3418" y="100.0234">boot</text><path d="M37.3418,567.8218 L47.3418,567.8218 C62.3418,567.8218 62.3418,94.7324 77.3418,94.7324 L87.3418,94.7324 " fill="none" style="stroke:#181818;stroke-width:1;"/><rect fill="#F1F1F1" height="36.4883" rx="12.5" ry="12.5" style="stroke:#181818;stroke-width:1.5;" width="43.8574" x="87.3418" y="132.9766"/><text fill="#000000" font-family="sans-serif" font-size="14" lengthAdjust="spacing" textLength="23.8574" x="97.3418" y="156.5117">dev</text><path d="M37.3418,567.8218 L47.3418,567.8218 C62.3418,567.8218 62.3418,151.2207 77.3418,151.2207 L87.3418,151.2207 " fill="none" style="stroke:#181818;stroke-width:1;"/><rect fill="#F1F1F1" height="36.4883" rx="12.5" ry="12.5" style="stroke:#181818;stroke-width:1.5;" width="40.207" x="87.3418" y="189.4648"/><text fill="#000000" font-family="sans-serif" font-size="14" lengthAdjust="spacing" textLength="20.207" x="97.3418" y="213">etc</text><rect fill="#F1F1F1" height="36.4883" rx="12.5" ry="12.5" style="stroke:#181818;stroke-width:1.5;" width="55.2598" x="177.5488" y="132.9766"/><text fill="#000000" font-family="sans-serif" font-size="14" lengthAdjust="spacing" textLength="35.2598" x="187.5488" y="156.5117">init.d</text><path d="M127.5488,207.709 L137.5488,207.709 C152.5488,207.709 152.5488,151.2207 167.5488,151.2207 L177.5488,151.2207 " fill="none" style="stroke:#181818;stroke-width:1;"/><rect fill="#F1F1F1" height="36.4883" rx="12.5" ry="12.5" style="stroke:#181818;stroke-width:1.5;" width="84.0596" x="177.5488" y="189.4648"/><text fill="#000000" font-family="sans-serif" font-size="14" lengthAdjust="spacing" textLength="64.0596" x="187.5488" y="213">syscontig</text><path d="M127.5488,207.709 L137.5488,207.709 C152.5488,207.709 152.5488,207.709 167.5488,207.709 L177.5488,207.709 " fill="none" style="stroke:#181818;stroke-width:1;"/><rect fill="#F1F1F1" height="36.4883" rx="12.5" ry="12.5" style="stroke:#181818;stroke-width:1.5;" width="56.7842" x="177.5488" y="245.9531"/><text fill="#000000" font-family="sans-serif" font-size="14" lengthAdjust="spacing" textLength="36.7842" x="187.5488" y="269.4883">httpd</text><path d="M127.5488,207.709 L137.5488,207.709 C152.5488,207.709 152.5488,264.1973 167.5488,264.1973 L177.5488,264.1973 " fill="none" style="stroke:#181818;stroke-width:1;"/><path d="M37.3418,567.8218 L47.3418,567.8218 C62.3418,567.8218 62.3418,207.709 77.3418,207.709 L87.3418,207.709 " fill="none" style="stroke:#181818;stroke-width:1;"/><rect fill="#F1F1F1" height="36.4883" rx="12.5" ry="12.5" style="stroke:#181818;stroke-width:1.5;" width="58.1582" x="87.3418" y="302.4414"/><text fill="#000000" font-family="sans-serif" font-size="14" lengthAdjust="spacing" textLength="38.1582" x="97.3418" y="325.9766">home</text><path d="M37.3418,567.8218 L47.3418,567.8218 C62.3418,567.8218 62.3418,320.6855 77.3418,320.6855 L87.3418,320.6855 " fill="none" style="stroke:#181818;stroke-width:1;"/><rect fill="#F1F1F1" height="36.4883" rx="12.5" ry="12.5" style="stroke:#181818;stroke-width:1.5;" width="36.9053" x="87.3418" y="358.9297"/><text fill="#000000" font-family="sans-serif" font-size="14" lengthAdjust="spacing" textLength="16.9053" x="97.3418" y="382.4648">lib</text><path d="M37.3418,567.8218 L47.3418,567.8218 C62.3418,567.8218 62.3418,377.1738 77.3418,377.1738 L87.3418,377.1738 " fill="none" style="stroke:#181818;stroke-width:1;"/><rect fill="#F1F1F1" height="36.4883" rx="12.5" ry="12.5" style="stroke:#181818;stroke-width:1.5;" width="63.3809" x="87.3418" y="415.418"/><text fill="#000000" font-family="sans-serif" font-size="14" lengthAdjust="spacing" textLength="43.3809" x="97.3418" y="438.9531">cdrom</text><path d="M37.3418,567.8218 L47.3418,567.8218 C62.3418,567.8218 62.3418,433.6621 77.3418,433.6621 L87.3418,433.6621 " fill="none" style="stroke:#181818;stroke-width:1;"/><rect fill="#F1F1F1" height="36.4883" rx="12.5" ry="12.5" style="stroke:#181818;stroke-width:1.5;" width="46.9951" x="87.3418" y="471.9063"/><text fill="#000000" font-family="sans-serif" font-size="14" lengthAdjust="spacing" textLength="26.9951" x="97.3418" y="495.4414">mnt</text><path d="M37.3418,567.8218 L47.3418,567.8218 C62.3418,567.8218 62.3418,490.1504 77.3418,490.1504 L87.3418,490.1504 " fill="none" style="stroke:#181818;stroke-width:1;"/><rect fill="#F1F1F1" height="36.4883" rx="12.5" ry="12.5" style="stroke:#181818;stroke-width:1.5;" width="50.3105" x="87.3418" y="528.3945"/><text fill="#000000" font-family="sans-serif" font-size="14" lengthAdjust="spacing" textLength="30.3105" x="97.3418" y="551.9297">proc</text><path d="M37.3418,567.8218 L47.3418,567.8218 C62.3418,567.8218 62.3418,546.6387 77.3418,546.6387 L87.3418,546.6387 " fill="none" style="stroke:#181818;stroke-width:1;"/><rect fill="#F1F1F1" height="36.4883" rx="12.5" ry="12.5" style="stroke:#181818;stroke-width:1.5;" width="48.1641" x="87.3418" y="584.8828"/><text fill="#000000" font-family="sans-serif" font-size="14" lengthAdjust="spacing" textLength="28.1641" x="97.3418" y="608.418">root</text><path d="M37.3418,567.8218 L47.3418,567.8218 C62.3418,567.8218 62.3418,603.127 77.3418,603.127 L87.3418,603.127 " fill="none" style="stroke:#181818;stroke-width:1;"/><rect fill="#F1F1F1" height="36.4883" rx="12.5" ry="12.5" style="stroke:#181818;stroke-width:1.5;" width="48.6836" x="87.3418" y="641.3711"/><text fill="#000000" font-family="sans-serif" font-size="14" lengthAdjust="spacing" textLength="28.6836" x="97.3418" y="664.9063">sbin</text><path d="M37.3418,567.8218 L47.3418,567.8218 C62.3418,567.8218 62.3418,659.6152 77.3418,659.6152 L87.3418,659.6152 " fill="none" style="stroke:#181818;stroke-width:1;"/><rect fill="#F1F1F1" height="36.4883" rx="12.5" ry="12.5" style="stroke:#181818;stroke-width:1.5;" width="47.1182" x="87.3418" y="697.8594"/><text fill="#000000" font-family="sans-serif" font-size="14" lengthAdjust="spacing" textLength="27.1182" x="97.3418" y="721.3945">tmp</text><path d="M37.3418,567.8218 L47.3418,567.8218 C62.3418,567.8218 62.3418,716.1035 77.3418,716.1035 L87.3418,716.1035 " fill="none" style="stroke:#181818;stroke-width:1;"/><rect fill="#F1F1F1" height="36.4883" rx="12.5" ry="12.5" style="stroke:#181818;stroke-width:1.5;" width="41.5537" x="87.3418" y="754.3477"/><text fill="#000000" font-family="sans-serif" font-size="14" lengthAdjust="spacing" textLength="21.5537" x="97.3418" y="777.8828">usr</text><rect fill="#F1F1F1" height="36.4883" rx="12.5" ry="12.5" style="stroke:#181818;stroke-width:1.5;" width="41.5469" x="178.8955" y="599.0049"/><text fill="#000000" font-family="sans-serif" font-size="14" lengthAdjust="spacing" textLength="21.5469" x="188.8955" y="622.54">bin</text><path d="M128.8955,772.5918 L138.8955,772.5918 C153.8955,772.5918 153.8955,617.249 168.8955,617.249 L178.8955,617.249 " fill="none" style="stroke:#181818;stroke-width:1;"/><rect fill="#F1F1F1" height="36.4883" rx="12.5" ry="12.5" style="stroke:#181818;stroke-width:1.5;" width="51.5957" x="178.8955" y="655.4932"/><text fill="#000000" font-family="sans-serif" font-size="14" lengthAdjust="spacing" textLength="31.5957" x="188.8955" y="679.0283">local</text><rect fill="#F1F1F1" height="36.4883" rx="12.5" ry="12.5" style="stroke:#181818;stroke-width:1.5;" width="41.5469" x="280.4912" y="627.249"/><text fill="#000000" font-family="sans-serif" font-size="14" lengthAdjust="spacing" textLength="21.5469" x="290.4912" y="650.7842">bin</text><path d="M230.4912,673.7373 L240.4912,673.7373 C255.4912,673.7373 255.4912,645.4932 270.4912,645.4932 L280.4912,645.4932 " fill="none" style="stroke:#181818;stroke-width:1;"/><rect fill="#F1F1F1" height="36.4883" rx="12.5" ry="12.5" style="stroke:#181818;stroke-width:1.5;" width="48.6836" x="280.4912" y="683.7373"/><text fill="#000000" font-family="sans-serif" font-size="14" lengthAdjust="spacing" textLength="28.6836" x="290.4912" y="707.2725">sbin</text><path d="M230.4912,673.7373 L240.4912,673.7373 C255.4912,673.7373 255.4912,701.9814 270.4912,701.9814 L280.4912,701.9814 " fill="none" style="stroke:#181818;stroke-width:1;"/><path d="M128.8955,772.5918 L138.8955,772.5918 C153.8955,772.5918 153.8955,673.7373 168.8955,673.7373 L178.8955,673.7373 " fill="none" style="stroke:#181818;stroke-width:1;"/><rect fill="#F1F1F1" height="36.4883" rx="12.5" ry="12.5" style="stroke:#181818;stroke-width:1.5;" width="69.2529" x="178.8955" y="740.2256"/><text fill="#000000" font-family="sans-serif" font-size="14" lengthAdjust="spacing" textLength="49.2529" x="188.8955" y="763.7607">include</text><path d="M128.8955,772.5918 L138.8955,772.5918 C153.8955,772.5918 153.8955,758.4697 168.8955,758.4697 L178.8955,758.4697 " fill="none" style="stroke:#181818;stroke-width:1;"/><rect fill="#F1F1F1" height="36.4883" rx="12.5" ry="12.5" style="stroke:#181818;stroke-width:1.5;" width="36.9053" x="178.8955" y="796.7139"/><text fill="#000000" font-family="sans-serif" font-size="14" lengthAdjust="spacing" textLength="16.9053" x="188.8955" y="820.249">lib</text><path d="M128.8955,772.5918 L138.8955,772.5918 C153.8955,772.5918 153.8955,814.958 168.8955,814.958 L178.8955,814.958 " fill="none" style="stroke:#181818;stroke-width:1;"/><rect fill="#F1F1F1" height="36.4883" rx="12.5" ry="12.5" style="stroke:#181818;stroke-width:1.5;" width="49.4902" x="178.8955" y="853.2021"/><text fill="#000000" font-family="sans-serif" font-size="14" lengthAdjust="spacing" textLength="29.4902" x="188.8955" y="876.7373">man</text><path d="M128.8955,772.5918 L138.8955,772.5918 C153.8955,772.5918 153.8955,871.4463 168.8955,871.4463 L178.8955,871.4463 " fill="none" style="stroke:#181818;stroke-width:1;"/><rect fill="#F1F1F1" height="36.4883" rx="12.5" ry="12.5" style="stroke:#181818;stroke-width:1.5;" width="40.0361" x="178.8955" y="909.6904"/><text fill="#000000" font-family="sans-serif" font-size="14" lengthAdjust="spacing" textLength="20.0361" x="188.8955" y="933.2256">src</text><rect fill="#F1F1F1" height="36.4883" rx="12.5" ry="12.5" style="stroke:#181818;stroke-width:1.5;" width="54.0566" x="268.9316" y="909.6904"/><text fill="#000000" font-family="sans-serif" font-size="14" lengthAdjust="spacing" textLength="34.0566" x="278.9316" y="933.2256">linux</text><path d="M218.9316,927.9346 L228.9316,927.9346 C243.9316,927.9346 243.9316,927.9346 258.9316,927.9346 L268.9316,927.9346 " fill="none" style="stroke:#181818;stroke-width:1;"/><path d="M128.8955,772.5918 L138.8955,772.5918 C153.8955,772.5918 153.8955,927.9346 168.8955,927.9346 L178.8955,927.9346 " fill="none" style="stroke:#181818;stroke-width:1;"/><path d="M37.3418,567.8218 L47.3418,567.8218 C62.3418,567.8218 62.3418,772.5918 77.3418,772.5918 L87.3418,772.5918 " fill="none" style="stroke:#181818;stroke-width:1;"/><rect fill="#F1F1F1" height="36.4883" rx="12.5" ry="12.5" style="stroke:#181818;stroke-width:1.5;" width="40.7061" x="87.3418" y="1022.667"/><text fill="#000000" font-family="sans-serif" font-size="14" lengthAdjust="spacing" textLength="20.7061" x="97.3418" y="1046.2021">var</text><rect fill="#F1F1F1" height="36.4883" rx="12.5" ry="12.5" style="stroke:#181818;stroke-width:1.5;" width="47.1182" x="178.0479" y="966.1787"/><text fill="#000000" font-family="sans-serif" font-size="14" lengthAdjust="spacing" textLength="27.1182" x="188.0479" y="989.7139">tmp</text><path d="M128.0479,1040.9111 L138.0479,1040.9111 C153.0479,1040.9111 153.0479,984.4229 168.0479,984.4229 L178.0479,984.4229 " fill="none" style="stroke:#181818;stroke-width:1;"/><rect fill="#F1F1F1" height="36.4883" rx="12.5" ry="12.5" style="stroke:#181818;stroke-width:1.5;" width="57.1943" x="178.0479" y="1022.667"/><text fill="#000000" font-family="sans-serif" font-size="14" lengthAdjust="spacing" textLength="37.1943" x="188.0479" y="1046.2021">spool</text><rect fill="#F1F1F1" height="36.4883" rx="12.5" ry="12.5" style="stroke:#181818;stroke-width:1.5;" width="41.6699" x="285.2422" y="966.1787"/><text fill="#000000" font-family="sans-serif" font-size="14" lengthAdjust="spacing" textLength="21.6699" x="295.2422" y="989.7139">lpd</text><path d="M235.2422,1040.9111 L245.2422,1040.9111 C260.2422,1040.9111 260.2422,984.4229 275.2422,984.4229 L285.2422,984.4229 " fill="none" style="stroke:#181818;stroke-width:1;"/><rect fill="#F1F1F1" height="36.4883" rx="12.5" ry="12.5" style="stroke:#181818;stroke-width:1.5;" width="48.8955" x="285.2422" y="1022.667"/><text fill="#000000" font-family="sans-serif" font-size="14" lengthAdjust="spacing" textLength="28.8955" x="295.2422" y="1046.2021">mail</text><path d="M235.2422,1040.9111 L245.2422,1040.9111 C260.2422,1040.9111 260.2422,1040.9111 275.2422,1040.9111 L285.2422,1040.9111 " fill="none" style="stroke:#181818;stroke-width:1;"/><rect fill="#F1F1F1" height="36.4883" rx="12.5" ry="12.5" style="stroke:#181818;stroke-width:1.5;" width="53.3594" x="285.2422" y="1079.1553"/><text fill="#000000" font-family="sans-serif" font-size="14" lengthAdjust="spacing" textLength="33.3594" x="295.2422" y="1102.6904">uucp</text><path d="M235.2422,1040.9111 L245.2422,1040.9111 C260.2422,1040.9111 260.2422,1097.3994 275.2422,1097.3994 L285.2422,1097.3994 " fill="none" style="stroke:#181818;stroke-width:1;"/><path d="M128.0479,1040.9111 L138.0479,1040.9111 C153.0479,1040.9111 153.0479,1040.9111 168.0479,1040.9111 L178.0479,1040.9111 " fill="none" style="stroke:#181818;stroke-width:1;"/><path d="M37.3418,567.8218 L47.3418,567.8218 C62.3418,567.8218 62.3418,1040.9111 77.3418,1040.9111 L87.3418,1040.9111 " fill="none" style="stroke:#181818;stroke-width:1;"/><!--SRC=[lLD1Rjim4Bpp5NjB0YDE7RY1ePEHs2dWscsGnhxJv5PQL2I59QaqULjl_LX9IMa2s8Vcqejs9GrtPcUakG-IWo6hZMp422x4Q0HxibrnBkIgiSq5Wn8dOB1YP8Ij3SWjyZEIgYnvZmap0h8Knhfh_PDNpWOgkxigX4QBFATo9cEXfdqkIhCpkJ6sOslOgLnvOFU3cc2QNABdJWLNMSKk2NX4AgCjqNOyFJfDTqhM2McTgY1Z3h5_mGF92I1PXEKUq_KvykzVwiUmbAgZxXViLIUrikVnh5uElY7efzPauy_qzf5G8wSne0axCM6WoHkrabzzFRfJlthYQfpBEsa-laxTwBunakg-Yr4rGeWvfe27aCNyVPd_jrWFupiIqh_aySRymTz35zzZs5qjRTXkrf2-Tq_EmcHy-U5oEfwTtZB15zV2v2DCPiLqMaolu6Rv0FdrcJZzTBS6xo8hJCdxmBIF8Pq_4olPIhYFoKQ31NnjqAuMdryUmDAsnCuQJDQjTfjNmDNq_9e2VEl-FDXjn0A_orY7T48vJROiOFjmUpuJQsdBACiqEzbquz9SVYfWiVm3]--></g></svg>