<svg xmlns="http://www.w3.org/2000/svg" xmlns:xlink="http://www.w3.org/1999/xlink" contentStyleType="text/css" height="252px" preserveAspectRatio="none" style="width:638px;height:252px;background:#FFFFFF;" version="1.1" viewBox="0 0 638 252" width="638px" zoomAndPan="magnify"><defs/><g><line style="stroke:#C0C0C0;stroke-width:1;" x1="0" x2="0" y1="6" y2="244.416"/><line style="stroke:#C0C0C0;stroke-width:1;" x1="16" x2="16" y1="6" y2="244.416"/><line style="stroke:#C0C0C0;stroke-width:1;" x1="32" x2="32" y1="6" y2="244.416"/><line style="stroke:#C0C0C0;stroke-width:1;" x1="48" x2="48" y1="6" y2="244.416"/><line style="stroke:#C0C0C0;stroke-width:1;" x1="64" x2="64" y1="6" y2="244.416"/><line style="stroke:#C0C0C0;stroke-width:1;" x1="80" x2="80" y1="6" y2="244.416"/><line style="stroke:#C0C0C0;stroke-width:1;" x1="96" x2="96" y1="6" y2="244.416"/><line style="stroke:#C0C0C0;stroke-width:1;" x1="112" x2="112" y1="6" y2="244.416"/><line style="stroke:#C0C0C0;stroke-width:1;" x1="128" x2="128" y1="6" y2="244.416"/><line style="stroke:#C0C0C0;stroke-width:1;" x1="144" x2="144" y1="6" y2="244.416"/><line style="stroke:#C0C0C0;stroke-width:1;" x1="160" x2="160" y1="6" y2="244.416"/><line style="stroke:#C0C0C0;stroke-width:1;" x1="176" x2="176" y1="6" y2="244.416"/><line style="stroke:#C0C0C0;stroke-width:1;" x1="192" x2="192" y1="6" y2="244.416"/><line style="stroke:#C0C0C0;stroke-width:1;" x1="208" x2="208" y1="6" y2="244.416"/><line style="stroke:#C0C0C0;stroke-width:1;" x1="224" x2="224" y1="6" y2="244.416"/><line style="stroke:#C0C0C0;stroke-width:1;" x1="240" x2="240" y1="6" y2="244.416"/><line style="stroke:#C0C0C0;stroke-width:1;" x1="256" x2="256" y1="6" y2="244.416"/><line style="stroke:#C0C0C0;stroke-width:1;" x1="272" x2="272" y1="6" y2="244.416"/><line style="stroke:#C0C0C0;stroke-width:1;" x1="288" x2="288" y1="6" y2="244.416"/><line style="stroke:#C0C0C0;stroke-width:1;" x1="304" x2="304" y1="6" y2="244.416"/><line style="stroke:#C0C0C0;stroke-width:1;" x1="320" x2="320" y1="6" y2="244.416"/><line style="stroke:#C0C0C0;stroke-width:1;" x1="336" x2="336" y1="6" y2="244.416"/><line style="stroke:#C0C0C0;stroke-width:1;" x1="352" x2="352" y1="6" y2="244.416"/><line style="stroke:#C0C0C0;stroke-width:1;" x1="368" x2="368" y1="6" y2="244.416"/><line style="stroke:#C0C0C0;stroke-width:1;" x1="384" x2="384" y1="6" y2="244.416"/><line style="stroke:#C0C0C0;stroke-width:1;" x1="400" x2="400" y1="6" y2="244.416"/><line style="stroke:#C0C0C0;stroke-width:1;" x1="416" x2="416" y1="6" y2="244.416"/><line style="stroke:#C0C0C0;stroke-width:1;" x1="432" x2="432" y1="6" y2="244.416"/><line style="stroke:#C0C0C0;stroke-width:1;" x1="448" x2="448" y1="6" y2="244.416"/><line style="stroke:#C0C0C0;stroke-width:1;" x1="464" x2="464" y1="6" y2="244.416"/><line style="stroke:#C0C0C0;stroke-width:1;" x1="480" x2="480" y1="6" y2="244.416"/><line style="stroke:#C0C0C0;stroke-width:1;" x1="496" x2="496" y1="6" y2="244.416"/><line style="stroke:#C0C0C0;stroke-width:1;" x1="512" x2="512" y1="6" y2="244.416"/><line style="stroke:#C0C0C0;stroke-width:1;" x1="528" x2="528" y1="6" y2="244.416"/><text fill="#000000" font-family="sans-serif" font-size="10" lengthAdjust="spacing" textLength="6.3232" x="4.8384" y="9.668">1</text><text fill="#000000" font-family="sans-serif" font-size="10" lengthAdjust="spacing" textLength="6.3232" x="20.8384" y="9.668">2</text><text fill="#000000" font-family="sans-serif" font-size="10" lengthAdjust="spacing" textLength="6.3232" x="36.8384" y="9.668">3</text><text fill="#000000" font-family="sans-serif" font-size="10" lengthAdjust="spacing" textLength="6.3232" x="52.8384" y="9.668">4</text><text fill="#000000" font-family="sans-serif" font-size="10" lengthAdjust="spacing" textLength="6.3232" x="68.8384" y="9.668">5</text><text fill="#000000" font-family="sans-serif" font-size="10" lengthAdjust="spacing" textLength="6.3232" x="84.8384" y="9.668">6</text><text fill="#000000" font-family="sans-serif" font-size="10" lengthAdjust="spacing" textLength="6.3232" x="100.8384" y="9.668">7</text><text fill="#000000" font-family="sans-serif" font-size="10" lengthAdjust="spacing" textLength="6.3232" x="116.8384" y="9.668">8</text><text fill="#000000" font-family="sans-serif" font-size="10" lengthAdjust="spacing" textLength="6.3232" x="132.8384" y="9.668">9</text><text fill="#000000" font-family="sans-serif" font-size="10" lengthAdjust="spacing" textLength="12.6465" x="145.6768" y="9.668">10</text><text fill="#000000" font-family="sans-serif" font-size="10" lengthAdjust="spacing" textLength="12.6465" x="161.6768" y="9.668">11</text><text fill="#000000" font-family="sans-serif" font-size="10" lengthAdjust="spacing" textLength="12.6465" x="177.6768" y="9.668">12</text><text fill="#000000" font-family="sans-serif" font-size="10" lengthAdjust="spacing" textLength="12.6465" x="193.6768" y="9.668">13</text><text fill="#000000" font-family="sans-serif" font-size="10" lengthAdjust="spacing" textLength="12.6465" x="209.6768" y="9.668">14</text><text fill="#000000" font-family="sans-serif" font-size="10" lengthAdjust="spacing" textLength="12.6465" x="225.6768" y="9.668">15</text><text fill="#000000" font-family="sans-serif" font-size="10" lengthAdjust="spacing" textLength="12.6465" x="241.6768" y="9.668">16</text><text fill="#000000" font-family="sans-serif" font-size="10" lengthAdjust="spacing" textLength="12.6465" x="257.6768" y="9.668">17</text><text fill="#000000" font-family="sans-serif" font-size="10" lengthAdjust="spacing" textLength="12.6465" x="273.6768" y="9.668">18</text><text fill="#000000" font-family="sans-serif" font-size="10" lengthAdjust="spacing" textLength="12.6465" x="289.6768" y="9.668">19</text><text fill="#000000" font-family="sans-serif" font-size="10" lengthAdjust="spacing" textLength="12.6465" x="305.6768" y="9.668">20</text><text fill="#000000" font-family="sans-serif" font-size="10" lengthAdjust="spacing" textLength="12.6465" x="321.6768" y="9.668">21</text><text fill="#000000" font-family="sans-serif" font-size="10" lengthAdjust="spacing" textLength="12.6465" x="337.6768" y="9.668">22</text><text fill="#000000" font-family="sans-serif" font-size="10" lengthAdjust="spacing" textLength="12.6465" x="353.6768" y="9.668">23</text><text fill="#000000" font-family="sans-serif" font-size="10" lengthAdjust="spacing" textLength="12.6465" x="369.6768" y="9.668">24</text><text fill="#000000" font-family="sans-serif" font-size="10" lengthAdjust="spacing" textLength="12.6465" x="385.6768" y="9.668">25</text><text fill="#000000" font-family="sans-serif" font-size="10" lengthAdjust="spacing" textLength="12.6465" x="401.6768" y="9.668">26</text><text fill="#000000" font-family="sans-serif" font-size="10" lengthAdjust="spacing" textLength="12.6465" x="417.6768" y="9.668">27</text><text fill="#000000" font-family="sans-serif" font-size="10" lengthAdjust="spacing" textLength="12.6465" x="433.6768" y="9.668">28</text><text fill="#000000" font-family="sans-serif" font-size="10" lengthAdjust="spacing" textLength="12.6465" x="449.6768" y="9.668">29</text><text fill="#000000" font-family="sans-serif" font-size="10" lengthAdjust="spacing" textLength="12.6465" x="465.6768" y="9.668">30</text><text fill="#000000" font-family="sans-serif" font-size="10" lengthAdjust="spacing" textLength="12.6465" x="481.6768" y="9.668">31</text><text fill="#000000" font-family="sans-serif" font-size="10" lengthAdjust="spacing" textLength="12.6465" x="497.6768" y="9.668">32</text><text fill="#000000" font-family="sans-serif" font-size="10" lengthAdjust="spacing" textLength="12.6465" x="513.6768" y="9.668">33</text><rect fill="#E2E2F0" height="12.9551" style="stroke:none;stroke-width:1;" width="28" x="2" y="18"/><line style="stroke:#181818;stroke-width:1;" x1="2" x2="30" y1="18" y2="18"/><line style="stroke:#181818;stroke-width:1;" x1="2" x2="30" y1="30.9551" y2="30.9551"/><line style="stroke:#181818;stroke-width:1;" x1="2" x2="2" y1="18" y2="30.9551"/><line style="stroke:#181818;stroke-width:1;" x1="30" x2="30" y1="18" y2="30.9551"/><rect fill="#E2E2F0" height="12.9551" style="stroke:none;stroke-width:1;" width="220" x="34" y="34.9551"/><line style="stroke:#181818;stroke-width:1;" x1="34" x2="254" y1="34.9551" y2="34.9551"/><line style="stroke:#181818;stroke-width:1;" x1="34" x2="254" y1="47.9102" y2="47.9102"/><line style="stroke:#181818;stroke-width:1;" x1="34" x2="34" y1="34.9551" y2="47.9102"/><line style="stroke:#181818;stroke-width:1;" x1="254" x2="254" y1="34.9551" y2="47.9102"/><rect fill="#E2E2F0" height="12.9551" style="stroke:none;stroke-width:1;" width="12" x="34" y="51.9102"/><line style="stroke:#181818;stroke-width:1;" x1="34" x2="46" y1="51.9102" y2="51.9102"/><line style="stroke:#181818;stroke-width:1;" x1="34" x2="46" y1="64.8652" y2="64.8652"/><line style="stroke:#181818;stroke-width:1;" x1="34" x2="34" y1="51.9102" y2="64.8652"/><line style="stroke:#181818;stroke-width:1;" x1="46" x2="46" y1="51.9102" y2="64.8652"/><rect fill="#E2E2F0" height="12.9551" style="stroke:none;stroke-width:1;" width="12" x="258" y="68.8652"/><line style="stroke:#181818;stroke-width:1;" x1="258" x2="270" y1="68.8652" y2="68.8652"/><line style="stroke:#181818;stroke-width:1;" x1="258" x2="270" y1="81.8203" y2="81.8203"/><line style="stroke:#181818;stroke-width:1;" x1="258" x2="258" y1="68.8652" y2="81.8203"/><line style="stroke:#181818;stroke-width:1;" x1="270" x2="270" y1="68.8652" y2="81.8203"/><rect fill="#E2E2F0" height="12.9551" style="stroke:none;stroke-width:1;" width="28" x="258" y="85.8203"/><line style="stroke:#181818;stroke-width:1;" x1="258" x2="286" y1="85.8203" y2="85.8203"/><line style="stroke:#181818;stroke-width:1;" x1="258" x2="286" y1="98.7754" y2="98.7754"/><line style="stroke:#181818;stroke-width:1;" x1="258" x2="258" y1="85.8203" y2="98.7754"/><line style="stroke:#181818;stroke-width:1;" x1="286" x2="286" y1="85.8203" y2="98.7754"/><rect fill="#E2E2F0" height="12.9551" style="stroke:none;stroke-width:1;" width="12" x="258" y="102.7754"/><line style="stroke:#181818;stroke-width:1;" x1="258" x2="270" y1="102.7754" y2="102.7754"/><line style="stroke:#181818;stroke-width:1;" x1="258" x2="270" y1="115.7305" y2="115.7305"/><line style="stroke:#181818;stroke-width:1;" x1="258" x2="258" y1="102.7754" y2="115.7305"/><line style="stroke:#181818;stroke-width:1;" x1="270" x2="270" y1="102.7754" y2="115.7305"/><rect fill="#E2E2F0" height="12.9551" style="stroke:none;stroke-width:1;" width="12" x="274" y="119.7305"/><line style="stroke:#181818;stroke-width:1;" x1="274" x2="286" y1="119.7305" y2="119.7305"/><line style="stroke:#181818;stroke-width:1;" x1="274" x2="286" y1="132.6855" y2="132.6855"/><line style="stroke:#181818;stroke-width:1;" x1="274" x2="274" y1="119.7305" y2="132.6855"/><line style="stroke:#181818;stroke-width:1;" x1="286" x2="286" y1="119.7305" y2="132.6855"/><rect fill="#E2E2F0" height="12.9551" style="stroke:none;stroke-width:1;" width="76" x="322" y="136.6855"/><line style="stroke:#181818;stroke-width:1;" x1="322" x2="398" y1="136.6855" y2="136.6855"/><line style="stroke:#181818;stroke-width:1;" x1="322" x2="398" y1="149.6406" y2="149.6406"/><line style="stroke:#181818;stroke-width:1;" x1="322" x2="322" y1="136.6855" y2="149.6406"/><line style="stroke:#181818;stroke-width:1;" x1="398" x2="398" y1="136.6855" y2="149.6406"/><rect fill="#E2E2F0" height="12.9551" style="stroke:none;stroke-width:1;" width="28" x="322" y="153.6406"/><line style="stroke:#181818;stroke-width:1;" x1="322" x2="350" y1="153.6406" y2="153.6406"/><line style="stroke:#181818;stroke-width:1;" x1="322" x2="350" y1="166.5957" y2="166.5957"/><line style="stroke:#181818;stroke-width:1;" x1="322" x2="322" y1="153.6406" y2="166.5957"/><line style="stroke:#181818;stroke-width:1;" x1="350" x2="350" y1="153.6406" y2="166.5957"/><rect fill="#E2E2F0" height="12.9551" style="stroke:none;stroke-width:1;" width="28" x="322" y="170.5957"/><line style="stroke:#181818;stroke-width:1;" x1="322" x2="350" y1="170.5957" y2="170.5957"/><line style="stroke:#181818;stroke-width:1;" x1="322" x2="350" y1="183.5508" y2="183.5508"/><line style="stroke:#181818;stroke-width:1;" x1="322" x2="322" y1="170.5957" y2="183.5508"/><line style="stroke:#181818;stroke-width:1;" x1="350" x2="350" y1="170.5957" y2="183.5508"/><rect fill="#E2E2F0" height="12.9551" style="stroke:none;stroke-width:1;" width="12" x="402" y="187.5508"/><line style="stroke:#181818;stroke-width:1;" x1="402" x2="414" y1="187.5508" y2="187.5508"/><line style="stroke:#181818;stroke-width:1;" x1="402" x2="414" y1="200.5059" y2="200.5059"/><line style="stroke:#181818;stroke-width:1;" x1="402" x2="402" y1="187.5508" y2="200.5059"/><line style="stroke:#181818;stroke-width:1;" x1="414" x2="414" y1="187.5508" y2="200.5059"/><rect fill="#E2E2F0" height="12.9551" style="stroke:none;stroke-width:1;" width="108" x="418" y="204.5059"/><line style="stroke:#181818;stroke-width:1;" x1="418" x2="526" y1="204.5059" y2="204.5059"/><line style="stroke:#181818;stroke-width:1;" x1="418" x2="526" y1="217.4609" y2="217.4609"/><line style="stroke:#181818;stroke-width:1;" x1="418" x2="418" y1="204.5059" y2="217.4609"/><line style="stroke:#181818;stroke-width:1;" x1="526" x2="526" y1="204.5059" y2="217.4609"/><rect fill="#E2E2F0" height="12.9551" style="stroke:none;stroke-width:1;" width="12" x="514" y="221.4609"/><line style="stroke:#181818;stroke-width:1;" x1="514" x2="526" y1="221.4609" y2="221.4609"/><line style="stroke:#181818;stroke-width:1;" x1="514" x2="526" y1="234.416" y2="234.416"/><line style="stroke:#181818;stroke-width:1;" x1="514" x2="514" y1="221.4609" y2="234.416"/><line style="stroke:#181818;stroke-width:1;" x1="526" x2="526" y1="221.4609" y2="234.416"/><text fill="#000000" font-family="sans-serif" font-size="11" lengthAdjust="spacing" textLength="190.9263" x="34" y="28.6348">Entscheidung der Gesch&#228;ftsf&#252;hrung</text><text fill="#000000" font-family="sans-serif" font-size="11" lengthAdjust="spacing" textLength="94.5313" x="38" y="45.5898">Angebot einholen</text><text fill="#000000" font-family="sans-serif" font-size="11" lengthAdjust="spacing" textLength="120.8496" x="50" y="62.5449">Mitarbeiterinformation</text><text fill="#000000" font-family="sans-serif" font-size="11" lengthAdjust="spacing" textLength="112.3203" x="274" y="79.5">Testen des Ger&#228;tes 1</text><text fill="#000000" font-family="sans-serif" font-size="11" lengthAdjust="spacing" textLength="112.3203" x="290" y="96.4551">Testen des Ger&#228;tes 2</text><text fill="#000000" font-family="sans-serif" font-size="11" lengthAdjust="spacing" textLength="112.3203" x="274" y="113.4102">Testen des Ger&#228;tes 3</text><text fill="#000000" font-family="sans-serif" font-size="11" lengthAdjust="spacing" textLength="128.9116" x="290" y="130.3652">Auswahl der Lieferanten</text><text fill="#000000" font-family="sans-serif" font-size="11" lengthAdjust="spacing" textLength="47.6738" x="326" y="147.3203">lieferung</text><text fill="#000000" font-family="sans-serif" font-size="11" lengthAdjust="spacing" textLength="73.1919" x="354" y="164.2754">Raumauswahl</text><text fill="#000000" font-family="sans-serif" font-size="11" lengthAdjust="spacing" textLength="93.0059" x="354" y="181.2305">Elektroinstalation</text><text fill="#000000" font-family="sans-serif" font-size="11" lengthAdjust="spacing" textLength="108.7217" x="418" y="198.1855">Computer aufstellen</text><text fill="#000000" font-family="sans-serif" font-size="11" lengthAdjust="spacing" textLength="106.9063" x="530" y="215.1406">Mitarbeiterschulung</text><text fill="#000000" font-family="sans-serif" font-size="11" lengthAdjust="spacing" textLength="91.1152" x="530" y="232.0957">Arbeitsaufnahme</text><text fill="#000000" font-family="sans-serif" font-size="10" lengthAdjust="spacing" textLength="6.3232" x="4.8384" y="249.084">1</text><text fill="#000000" font-family="sans-serif" font-size="10" lengthAdjust="spacing" textLength="6.3232" x="20.8384" y="249.084">2</text><text fill="#000000" font-family="sans-serif" font-size="10" lengthAdjust="spacing" textLength="6.3232" x="36.8384" y="249.084">3</text><text fill="#000000" font-family="sans-serif" font-size="10" lengthAdjust="spacing" textLength="6.3232" x="52.8384" y="249.084">4</text><text fill="#000000" font-family="sans-serif" font-size="10" lengthAdjust="spacing" textLength="6.3232" x="68.8384" y="249.084">5</text><text fill="#000000" font-family="sans-serif" font-size="10" lengthAdjust="spacing" textLength="6.3232" x="84.8384" y="249.084">6</text><text fill="#000000" font-family="sans-serif" font-size="10" lengthAdjust="spacing" textLength="6.3232" x="100.8384" y="249.084">7</text><text fill="#000000" font-family="sans-serif" font-size="10" lengthAdjust="spacing" textLength="6.3232" x="116.8384" y="249.084">8</text><text fill="#000000" font-family="sans-serif" font-size="10" lengthAdjust="spacing" textLength="6.3232" x="132.8384" y="249.084">9</text><text fill="#000000" font-family="sans-serif" font-size="10" lengthAdjust="spacing" textLength="12.6465" x="145.6768" y="249.084">10</text><text fill="#000000" font-family="sans-serif" font-size="10" lengthAdjust="spacing" textLength="12.6465" x="161.6768" y="249.084">11</text><text fill="#000000" font-family="sans-serif" font-size="10" lengthAdjust="spacing" textLength="12.6465" x="177.6768" y="249.084">12</text><text fill="#000000" font-family="sans-serif" font-size="10" lengthAdjust="spacing" textLength="12.6465" x="193.6768" y="249.084">13</text><text fill="#000000" font-family="sans-serif" font-size="10" lengthAdjust="spacing" textLength="12.6465" x="209.6768" y="249.084">14</text><text fill="#000000" font-family="sans-serif" font-size="10" lengthAdjust="spacing" textLength="12.6465" x="225.6768" y="249.084">15</text><text fill="#000000" font-family="sans-serif" font-size="10" lengthAdjust="spacing" textLength="12.6465" x="241.6768" y="249.084">16</text><text fill="#000000" font-family="sans-serif" font-size="10" lengthAdjust="spacing" textLength="12.6465" x="257.6768" y="249.084">17</text><text fill="#000000" font-family="sans-serif" font-size="10" lengthAdjust="spacing" textLength="12.6465" x="273.6768" y="249.084">18</text><text fill="#000000" font-family="sans-serif" font-size="10" lengthAdjust="spacing" textLength="12.6465" x="289.6768" y="249.084">19</text><text fill="#000000" font-family="sans-serif" font-size="10" lengthAdjust="spacing" textLength="12.6465" x="305.6768" y="249.084">20</text><text fill="#000000" font-family="sans-serif" font-size="10" lengthAdjust="spacing" textLength="12.6465" x="321.6768" y="249.084">21</text><text fill="#000000" font-family="sans-serif" font-size="10" lengthAdjust="spacing" textLength="12.6465" x="337.6768" y="249.084">22</text><text fill="#000000" font-family="sans-serif" font-size="10" lengthAdjust="spacing" textLength="12.6465" x="353.6768" y="249.084">23</text><text fill="#000000" font-family="sans-serif" font-size="10" lengthAdjust="spacing" textLength="12.6465" x="369.6768" y="249.084">24</text><text fill="#000000" font-family="sans-serif" font-size="10" lengthAdjust="spacing" textLength="12.6465" x="385.6768" y="249.084">25</text><text fill="#000000" font-family="sans-serif" font-size="10" lengthAdjust="spacing" textLength="12.6465" x="401.6768" y="249.084">26</text><text fill="#000000" font-family="sans-serif" font-size="10" lengthAdjust="spacing" textLength="12.6465" x="417.6768" y="249.084">27</text><text fill="#000000" font-family="sans-serif" font-size="10" lengthAdjust="spacing" textLength="12.6465" x="433.6768" y="249.084">28</text><text fill="#000000" font-family="sans-serif" font-size="10" lengthAdjust="spacing" textLength="12.6465" x="449.6768" y="249.084">29</text><text fill="#000000" font-family="sans-serif" font-size="10" lengthAdjust="spacing" textLength="12.6465" x="465.6768" y="249.084">30</text><text fill="#000000" font-family="sans-serif" font-size="10" lengthAdjust="spacing" textLength="12.6465" x="481.6768" y="249.084">31</text><text fill="#000000" font-family="sans-serif" font-size="10" lengthAdjust="spacing" textLength="12.6465" x="497.6768" y="249.084">32</text><text fill="#000000" font-family="sans-serif" font-size="10" lengthAdjust="spacing" textLength="12.6465" x="513.6768" y="249.084">33</text><!--SRC=[ZPFDJjj04CVl-nHp15KWx3WXoWcQ6AGqQH4DN2mEctXihxhUHRkpgNWV7gEtl1XhqyInIMXFrixyvpUVlhB43ULS4R4aLcHN1OhKgHnID72B_hrvpSXccp-5yUOdaDoIXH1I_c9PSgroN6e25AhG4XLi1K5qN57dj33v4h9aBlnZYOBG29LfKt8IMkqe5GIEg_P92xJayIbQNxVPl19MyLtICTME50mEYqBezdvCzKzKxx-gwdLHryx-veMiDpCJcA7nQyFsh3vHDQnBbiZQixVGVjqKj3pDT2zOSizToT_PxK50nzUAYYN-8gE5ybRPMkrsYeSKBSHOby_EBnwuo_oKfCGFvt5Gqa3whGFo9-taNkUNVmivA6aWrG9gj_L952zAx5RnmRqBxeMCNQ5At_ypTYVzzs4-WxLFvHk6u3oy2AFpuScD4V1Tho7eGp0SHT4e6i0uNa3bFcKdjtSpiDgP5K8gB1cnTDN0JjcKhpdSEqMYn17yU4OrdNpR6Y1MQs6qAb4HcpxE6y4WElig27wYyPN0uvnDCEDEaezOwLIeV0GFYvkp8PjnbJkUUtQARAmzrxoCO1A_0G00]--></g></svg>