<?xml version="1.0" encoding="UTF-8" standalone="no"?><svg xmlns="http://www.w3.org/2000/svg" xmlns:xlink="http://www.w3.org/1999/xlink" contentStyleType="text/css" height="221px" preserveAspectRatio="none" style="width:1881px;height:221px;background:#FFFFFF;" version="1.1" viewBox="0 0 1881 221" width="1881px" zoomAndPan="magnify"><defs/><g><g id="cluster_##4"><path d="M16.9321,16.6075 C21.7736,8.4557 28.6766,7.2398 34.52,15.536 C39.7147,9.3896 46.3069,9.8836 49.6141,17.5923 C53.1958,10.5669 58.2686,7.8827 64.3838,14.934 C68.9802,8.5007 74.4511,7.8555 79.2799,14.6729 C83.2633,8.6048 89.8232,7.9665 93.1749,15.3266 C98.6258,6.5685 104.7128,7.6747 110.3962,15.0789 C113.0515,8.9372 118.9261,8.6101 122.9308,13.5529 C128.2668,6 136.5788,6.6144 140.009,15.5292 C143.6361,8.7125 148.802,8.1512 153.4033,14.5412 C157.4364,7.267 164.3545,6.8902 168.2344,14.6919 C173.1613,7.5438 180.6541,6.5299 184.8477,15.4502 C189.7082,8.3695 195.7921,9.9965 198.685,17.3379 C203.6483,10.612 209.4708,8.6648 214.8241,16.9177 C219.5047,9.5883 224.6285,8.7353 229.6016,16.6339 C236.9521,20.9723 236.7635,26.9146 230.3279,31.9086 C238.3862,35.392 240.5422,41.8915 232.8082,47.8345 C239.9434,53.4823 240.4248,59.1317 232.2441,64.2533 C240.7727,70.0342 239.3816,78.5496 229.7634,81.7589 C225.7492,89.35 218.8191,90.4203 214.1322,82.4337 C210.0387,88.3609 205.0332,89.3108 201.0606,82.3114 C195.3734,89.778 190.078,90.8194 184.9335,81.7811 C181.8279,88.5531 175.8754,89.5389 170.8745,83.934 C165.5123,92.0157 160.7208,90.9103 155.8222,83.4841 C150.3374,91.2461 144.5244,92.3169 138.6749,83.8699 C134.3535,90.0032 129.3635,90.3758 124.9021,84.0244 C120.6761,91.9841 113.4382,90.6532 109.2195,84.0166 C104.4631,90.5302 96.5406,90.8537 93.2557,82.4426 C88.6004,90.6417 82.6405,89.4301 77.4622,83.0075 C72.3708,88.9634 67.4431,89.0169 64.0262,81.3553 C59.7223,88.6279 53.3292,89.0221 48.7831,81.6067 C44.0122,89.7384 39.2061,88.9459 33.1533,83.0333 C28.2133,88.1807 20.6073,88.8657 18.4304,80.1078 C10.3431,75.7602 10.2824,70.91 17.1888,65.3049 C7.6473,61.8799 6,55.0021 13.6776,48.0692 C8.8068,42.7014 9.8507,36.0856 17.3275,33.898 C9.4015,29.3128 9.8587,21.5356 16.9321,16.6075 " fill="none" style="stroke:#181818;stroke-width:1.0;"/></g><!--MD5=[ce7d135a0dfd2ef62abb620c0d7dad60]
cluster DNS-Server--><g id="cluster_DNS-Server"><polygon fill="none" points="473.7893,121.787,483.7893,111.787,663.7893,111.787,663.7893,194.787,653.7893,204.787,473.7893,204.787,473.7893,121.787" style="stroke:#181818;stroke-width:1.0;"/><line style="stroke:#181818;stroke-width:1.0;" x1="653.7893" x2="663.7893" y1="121.787" y2="111.787"/><line style="stroke:#181818;stroke-width:1.0;" x1="473.7893" x2="653.7893" y1="121.787" y2="121.787"/><line style="stroke:#181818;stroke-width:1.0;" x1="653.7893" x2="653.7893" y1="121.787" y2="204.787"/><text fill="#000000" font-family="sans-serif" font-size="14" font-weight="bold" lengthAdjust="spacing" textLength="82" x="523.7893" y="139.3202">DNS-Server</text></g><!--MD5=[9e878392f47523cfd3966177ba0d865e]
cluster Datei-Server--><g id="cluster_Datei-Server"><polygon fill="none" points="687.7893,121.787,697.7893,111.787,877.7893,111.787,877.7893,194.787,867.7893,204.787,687.7893,204.787,687.7893,121.787" style="stroke:#181818;stroke-width:1.0;"/><line style="stroke:#181818;stroke-width:1.0;" x1="867.7893" x2="877.7893" y1="121.787" y2="111.787"/><line style="stroke:#181818;stroke-width:1.0;" x1="687.7893" x2="867.7893" y1="121.787" y2="121.787"/><line style="stroke:#181818;stroke-width:1.0;" x1="867.7893" x2="867.7893" y1="121.787" y2="204.787"/><text fill="#000000" font-family="sans-serif" font-size="14" font-weight="bold" lengthAdjust="spacing" textLength="89" x="734.2893" y="139.3202">Datei-Server</text></g><!--MD5=[1c2f68cd9120c48139b59929c0eb2831]
entity Internet Service Provider--><g id="elem_Internet Service Provider"><rect fill="#F1F1F1" height="47.6094" rx="2.5" ry="2.5" style="stroke:#181818;stroke-width:0.5;" width="196" x="24.7893" y="23.787"/><rect fill="#F1F1F1" height="10" style="stroke:#181818;stroke-width:0.5;" width="15" x="200.7893" y="28.787"/><rect fill="#F1F1F1" height="2" style="stroke:#181818;stroke-width:0.5;" width="4" x="198.7893" y="30.787"/><rect fill="#F1F1F1" height="2" style="stroke:#181818;stroke-width:0.5;" width="4" x="198.7893" y="34.787"/><text fill="#000000" font-family="sans-serif" font-size="14" lengthAdjust="spacing" textLength="156" x="39.7893" y="58.3202">Internet Service Provider</text></g><g id="elem_192.168.0.21 / 24"><ellipse cx="568.8678" cy="171.0027" fill="#F1F1F1" rx="79.0785" ry="18.2157" style="stroke:#181818;stroke-width:0.5;"/><text fill="#000000" font-family="sans-serif" font-size="14" lengthAdjust="spacing" textLength="112" x="511.4644" y="175.1265">192.168.0.21 / 24</text></g><g id="elem_192.168.0.22 / 24"><ellipse cx="782.8678" cy="171.0027" fill="#F1F1F1" rx="79.0785" ry="18.2157" style="stroke:#181818;stroke-width:0.5;"/><text fill="#000000" font-family="sans-serif" font-size="14" lengthAdjust="spacing" textLength="112" x="725.4644" y="175.1265">192.168.0.22 / 24</text></g><!--MD5=[efeaef92565a805f708bd420f987376c]
entity ##30--><g id="elem_Router des ISP"><ellipse cx="328.9369" cy="47.7165" fill="#F1F1F1" rx="72.6476" ry="16.9295" style="stroke:#181818;stroke-width:0.5;"/><text fill="#000000" font-family="sans-serif" font-size="14" lengthAdjust="spacing" textLength="95" x="278.4369" y="52.2331">Router des ISP</text></g><!--MD5=[7ac472af81b10326706c68d963fcc47c]
entity Firewall--><g id="elem_Firewall"><rect fill="#F1F1F1" height="47.6094" rx="2.5" ry="2.5" style="stroke:#181818;stroke-width:0.5;" width="88" x="436.7893" y="23.787"/><rect fill="#F1F1F1" height="10" style="stroke:#181818;stroke-width:0.5;" width="15" x="504.7893" y="28.787"/><rect fill="#F1F1F1" height="2" style="stroke:#181818;stroke-width:0.5;" width="4" x="502.7893" y="30.787"/><rect fill="#F1F1F1" height="2" style="stroke:#181818;stroke-width:0.5;" width="4" x="502.7893" y="34.787"/><text fill="#000000" font-family="sans-serif" font-size="14" lengthAdjust="spacing" textLength="48" x="451.7893" y="58.3202">Firewall</text></g><g id="elem_Router 192.168.0.2 / 24"><ellipse cx="782.9193" cy="47.813" fill="#F1F1F1" rx="95.63" ry="21.526" style="stroke:#181818;stroke-width:0.5;"/><text fill="#000000" font-family="sans-serif" font-size="14" lengthAdjust="spacing" textLength="151" x="707.4193" y="51.5415">Router 192.168.0.2 / 24</text></g><!--MD5=[cf864069379ab1155c99d11276f939b3]
entity Switch 1--><g id="elem_Switch 1"><rect fill="#F1F1F1" height="47.6094" rx="2.5" ry="2.5" style="stroke:#181818;stroke-width:0.5;" width="92" x="559.7893" y="23.787"/><rect fill="#F1F1F1" height="10" style="stroke:#181818;stroke-width:0.5;" width="15" x="631.7893" y="28.787"/><rect fill="#F1F1F1" height="2" style="stroke:#181818;stroke-width:0.5;" width="4" x="629.7893" y="30.787"/><rect fill="#F1F1F1" height="2" style="stroke:#181818;stroke-width:0.5;" width="4" x="629.7893" y="34.787"/><text fill="#000000" font-family="sans-serif" font-size="14" lengthAdjust="spacing" textLength="52" x="574.7893" y="58.3202">Switch 1</text></g><!--MD5=[41d81b2aba5aa3f397b09a58e355969b]
entity Switch 2--><g id="elem_Switch 2"><rect fill="#F1F1F1" height="47.6094" rx="2.5" ry="2.5" style="stroke:#181818;stroke-width:0.5;" width="92" x="1257.7893" y="23.787"/><rect fill="#F1F1F1" height="10" style="stroke:#181818;stroke-width:0.5;" width="15" x="1329.7893" y="28.787"/><rect fill="#F1F1F1" height="2" style="stroke:#181818;stroke-width:0.5;" width="4" x="1327.7893" y="30.787"/><rect fill="#F1F1F1" height="2" style="stroke:#181818;stroke-width:0.5;" width="4" x="1327.7893" y="34.787"/><text fill="#000000" font-family="sans-serif" font-size="14" lengthAdjust="spacing" textLength="52" x="1272.7893" y="58.3202">Switch 2</text></g><!--MD5=[75ddc6848be21b643a280b5e2ff61c5a]
entity Notebook 1--><g id="elem_Notebook 1"><rect fill="#F1F1F1" height="47.6094" rx="2.5" ry="2.5" style="stroke:#181818;stroke-width:0.5;" width="112" x="896.7893" y="146.787"/><rect fill="#F1F1F1" height="10" style="stroke:#181818;stroke-width:0.5;" width="15" x="988.7893" y="151.787"/><rect fill="#F1F1F1" height="2" style="stroke:#181818;stroke-width:0.5;" width="4" x="986.7893" y="153.787"/><rect fill="#F1F1F1" height="2" style="stroke:#181818;stroke-width:0.5;" width="4" x="986.7893" y="157.787"/><text fill="#000000" font-family="sans-serif" font-size="14" lengthAdjust="spacing" textLength="72" x="911.7893" y="181.3202">Notebook 1</text></g><!--MD5=[51f7272ea130080a91be50ae5f77cb1b]
entity Drucker 1--><g id="elem_Drucker 1"><rect fill="#F1F1F1" height="47.6094" rx="2.5" ry="2.5" style="stroke:#181818;stroke-width:0.5;" width="102" x="1043.7893" y="146.787"/><rect fill="#F1F1F1" height="10" style="stroke:#181818;stroke-width:0.5;" width="15" x="1125.7893" y="151.787"/><rect fill="#F1F1F1" height="2" style="stroke:#181818;stroke-width:0.5;" width="4" x="1123.7893" y="153.787"/><rect fill="#F1F1F1" height="2" style="stroke:#181818;stroke-width:0.5;" width="4" x="1123.7893" y="157.787"/><text fill="#000000" font-family="sans-serif" font-size="14" lengthAdjust="spacing" textLength="62" x="1058.7893" y="181.3202">Drucker 1</text></g><!--MD5=[e87df1a410ef95178dfeda2934067ce9]
entity Drucker 2--><g id="elem_Drucker 2"><rect fill="#F1F1F1" height="47.6094" rx="2.5" ry="2.5" style="stroke:#181818;stroke-width:0.5;" width="102" x="1180.7893" y="146.787"/><rect fill="#F1F1F1" height="10" style="stroke:#181818;stroke-width:0.5;" width="15" x="1262.7893" y="151.787"/><rect fill="#F1F1F1" height="2" style="stroke:#181818;stroke-width:0.5;" width="4" x="1260.7893" y="153.787"/><rect fill="#F1F1F1" height="2" style="stroke:#181818;stroke-width:0.5;" width="4" x="1260.7893" y="157.787"/><text fill="#000000" font-family="sans-serif" font-size="14" lengthAdjust="spacing" textLength="62" x="1195.7893" y="181.3202">Drucker 2</text></g><!--MD5=[ada6115da01482e4ec5b229b98651acb]
entity WLAN AP 1--><g id="elem_WLAN AP 1"><rect fill="#F1F1F1" height="47.6094" rx="2.5" ry="2.5" style="stroke:#181818;stroke-width:0.5;" width="113" x="1318.2893" y="146.787"/><rect fill="#F1F1F1" height="10" style="stroke:#181818;stroke-width:0.5;" width="15" x="1411.2893" y="151.787"/><rect fill="#F1F1F1" height="2" style="stroke:#181818;stroke-width:0.5;" width="4" x="1409.2893" y="153.787"/><rect fill="#F1F1F1" height="2" style="stroke:#181818;stroke-width:0.5;" width="4" x="1409.2893" y="157.787"/><text fill="#000000" font-family="sans-serif" font-size="14" lengthAdjust="spacing" textLength="73" x="1333.2893" y="181.3202">WLAN AP 1</text></g><!--MD5=[d7695b127e3b7a77bf53ce3c5ea93692]
entity WLAN AP 2--><g id="elem_WLAN AP 2"><rect fill="#F1F1F1" height="47.6094" rx="2.5" ry="2.5" style="stroke:#181818;stroke-width:0.5;" width="113" x="1466.2893" y="146.787"/><rect fill="#F1F1F1" height="10" style="stroke:#181818;stroke-width:0.5;" width="15" x="1559.2893" y="151.787"/><rect fill="#F1F1F1" height="2" style="stroke:#181818;stroke-width:0.5;" width="4" x="1557.2893" y="153.787"/><rect fill="#F1F1F1" height="2" style="stroke:#181818;stroke-width:0.5;" width="4" x="1557.2893" y="157.787"/><text fill="#000000" font-family="sans-serif" font-size="14" lengthAdjust="spacing" textLength="73" x="1481.2893" y="181.3202">WLAN AP 2</text></g><!--MD5=[6da7c8abcee8a2ffad0faf05f399be1d]
entity WLAN AP 3--><g id="elem_WLAN AP 3"><rect fill="#F1F1F1" height="47.6094" rx="2.5" ry="2.5" style="stroke:#181818;stroke-width:0.5;" width="113" x="1614.2893" y="146.787"/><rect fill="#F1F1F1" height="10" style="stroke:#181818;stroke-width:0.5;" width="15" x="1707.2893" y="151.787"/><rect fill="#F1F1F1" height="2" style="stroke:#181818;stroke-width:0.5;" width="4" x="1705.2893" y="153.787"/><rect fill="#F1F1F1" height="2" style="stroke:#181818;stroke-width:0.5;" width="4" x="1705.2893" y="157.787"/><text fill="#000000" font-family="sans-serif" font-size="14" lengthAdjust="spacing" textLength="73" x="1629.2893" y="181.3202">WLAN AP 3</text></g><!--MD5=[b75d6cf5634c898dc88c39df5a681d2d]
entity WLAN AP 4--><g id="elem_WLAN AP 4"><rect fill="#F1F1F1" height="47.6094" rx="2.5" ry="2.5" style="stroke:#181818;stroke-width:0.5;" width="113" x="1762.2893" y="146.787"/><rect fill="#F1F1F1" height="10" style="stroke:#181818;stroke-width:0.5;" width="15" x="1855.2893" y="151.787"/><rect fill="#F1F1F1" height="2" style="stroke:#181818;stroke-width:0.5;" width="4" x="1853.2893" y="153.787"/><rect fill="#F1F1F1" height="2" style="stroke:#181818;stroke-width:0.5;" width="4" x="1853.2893" y="157.787"/><text fill="#000000" font-family="sans-serif" font-size="14" lengthAdjust="spacing" textLength="73" x="1777.2893" y="181.3202">WLAN AP 4</text></g><!--MD5=[56f8f342f3430c9185095332b7d25974]
link Internet Service Provider to Router des ISP--><g id="link_Internet Service Provider_Router des ISP"><path d="M220.9593,47.787 C232.6193,47.787 244.2693,47.787 255.9193,47.787 " fill="none" id="Internet Service Provider-Router des ISP" style="stroke:#181818;stroke-width:1.0;"/></g><!--MD5=[9fdd025640d9b9bbdc530a7eddeeceb0]
link Router des ISP to Firewall--><g id="link_Router des ISP_Firewall"><path d="M401.5193,47.787 C413.1893,47.787 424.8493,47.787 436.5093,47.787 " fill="none" id="Router des ISP-Firewall" style="stroke:#181818;stroke-width:1.0;"/></g><!--MD5=[25441a1b604775bcf79b8600a8edac9f]
link Firewall to Switch 1--><g id="link_Firewall_Switch 1"><path d="M525.2193,47.787 C536.6593,47.787 548.0893,47.787 559.5293,47.787 " fill="none" id="Firewall-Switch 1" style="stroke:#181818;stroke-width:1.0;"/></g><!--MD5=[6ef199217eb3ea4de9d22fd97a83c214]
link Switch 1 to Router 192.168.0.2 / 24--><g id="link_Switch 1_Router 192.168.0.2 / 24"><path d="M652.1093,47.787 C663.7693,47.787 675.4193,47.787 687.0793,47.787 " fill="none" id="Switch 1-Router 192.168.0.2 / 24" style="stroke:#181818;stroke-width:1.0;"/></g><!--MD5=[20b1a04276f96c9fa44642d44a1bb734]
link Router 192.168.0.2 / 24 to 192.168.0.21 / 24--><g id="link_Router 192.168.0.2 / 24_192.168.0.21 / 24"><path d="M748.8793,67.957 C706.9193,91.687 636.2493,131.647 597.0693,153.797 " fill="none" id="Router 192.168.0.2 / 24-192.168.0.21 / 24" style="stroke:#181818;stroke-width:1.0;"/></g><!--MD5=[aefd0c18dc1b315feee570a6d2ad3a20]
link Router 192.168.0.2 / 24 to 192.168.0.22 / 24--><g id="link_Router 192.168.0.2 / 24_192.168.0.22 / 24"><path d="M782.7893,69.317 C782.7893,92.777 782.7893,130.757 782.7893,152.687 " fill="none" id="Router 192.168.0.2 / 24-192.168.0.22 / 24" style="stroke:#181818;stroke-width:1.0;"/></g><!--MD5=[e6387f286082c40acdf0289a2ea52a8c]
link Router 192.168.0.2 / 24 to Switch 2--><g id="link_Router 192.168.0.2 / 24_Switch 2"><path d="M878.4393,47.787 C1004.8593,47.787 1131.2693,47.787 1257.6793,47.787 " fill="none" id="Router 192.168.0.2 / 24-Switch 2" style="stroke:#181818;stroke-width:1.0;"/></g><!--MD5=[a1b3829a6f018a236c1881e5ca5711c8]
link Switch 2 to WLAN AP 1--><g id="link_Switch 2_WLAN AP 1"><path d="M1317.3093,71.827 C1329.8593,93.227 1348.4593,124.917 1361.0793,146.417 " fill="none" id="Switch 2-WLAN AP 1" style="stroke:#181818;stroke-width:1.0;"/></g><!--MD5=[cc832d7d2a1eb1f276431a93a93e4640]
link Switch 2 to WLAN AP 2--><g id="link_Switch 2_WLAN AP 2"><path d="M1328.2293,71.927 C1339.1893,80.937 1352.7893,90.367 1366.7893,95.787 C1400.9393,108.997 1415.2493,89.097 1448.7893,103.787 C1470.5493,113.317 1490.3493,131.747 1503.9893,146.717 " fill="none" id="Switch 2-WLAN AP 2" style="stroke:#181818;stroke-width:1.0;"/></g><!--MD5=[0472a6ae5fe03b3a04cc635cb3f6adda]
link Switch 2 to WLAN AP 3--><g id="link_Switch 2_WLAN AP 3"><path d="M1327.4793,71.857 C1338.5093,81.087 1352.3693,90.717 1366.7893,95.787 C1415.0393,112.737 1549.3293,84.747 1596.7893,103.787 C1618.9993,112.697 1638.9093,131.387 1652.4593,146.617 " fill="none" id="Switch 2-WLAN AP 3" style="stroke:#181818;stroke-width:1.0;"/></g><!--MD5=[e80621ba299eadf5c0dbe7e7dfbbc66f]
link Switch 2 to WLAN AP 4--><g id="link_Switch 2_WLAN AP 4"><path d="M1327.4493,71.957 C1338.4693,81.207 1352.3393,90.817 1366.7893,95.787 C1406.5193,109.437 1705.6993,88.407 1744.7893,103.787 C1767.0593,112.547 1786.9593,131.247 1800.4993,146.517 " fill="none" id="Switch 2-WLAN AP 4" style="stroke:#181818;stroke-width:1.0;"/></g><!--MD5=[1168f8b51301bd088cd2f727d0202517]
link Switch 2 to Drucker 1--><g id="link_Switch 2_Drucker 1"><path d="M1257.7793,61.587 C1229.0993,70.787 1192.1893,84.897 1162.7893,103.787 C1144.5193,115.527 1127.0093,132.707 1114.3393,146.597 " fill="none" id="Switch 2-Drucker 1" style="stroke:#181818;stroke-width:1.0;"/></g><!--MD5=[64b150ea972554370ca828e713944f2d]
link Switch 2 to Drucker 2--><g id="link_Switch 2_Drucker 2"><path d="M1290.0793,71.827 C1277.3493,93.227 1258.4893,124.917 1245.6993,146.417 " fill="none" id="Switch 2-Drucker 2" style="stroke:#181818;stroke-width:1.0;"/></g><!--MD5=[cbe2d20a0f05227c8cbc0ebc59eccb39]
link Switch 2 to Notebook 1--><g id="link_Switch 2_Notebook 1"><path d="M1257.5693,50.437 C1200.3393,54.117 1101.1993,65.937 1025.7893,103.787 C1005.0193,114.207 985.7193,132.187 972.1793,146.747 " fill="none" id="Switch 2-Notebook 1" style="stroke:#181818;stroke-width:1.0;"/></g><!--MD5=[d1313df0eec1ba41982b8c7e8756042a]
@startuml
cloud {
[Internet Service Provider]
}
(Router des ISP)
[Firewall]
(Router 192.168.0.2 / 24)
[Switch 1]
node "DNS-Server" {
(192.168.0.21 / 24)
}
node "Datei-Server" {
(192.168.0.22 / 24)
}
[Switch 2]
[Notebook 1]
[Drucker 1]
[Drucker 2]
[WLAN AP 1]
[WLAN AP 2]
[WLAN AP 3]
[WLAN AP 4]

[Internet Service Provider] - (Router des ISP)
(Router des ISP) - [Firewall]
[Firewall] - [Switch 1]
[Switch 1] - (Router 192.168.0.2 / 24)
(Router 192.168.0.2 / 24) - - (192.168.0.21 / 24)
(Router 192.168.0.2 / 24) - - (192.168.0.22 / 24)
(Router 192.168.0.2 / 24) - [Switch 2]
' style test
together {
[WLAN AP 1]
[WLAN AP 2]
[WLAN AP 3]
[WLAN AP 4]
[Notebook 1]
[Drucker 1]
[Drucker 2]
}

[Switch 2] - - [WLAN AP 1]
[Switch 2] - - [WLAN AP 2]
[Switch 2] - - [WLAN AP 3]
[Switch 2] - - [WLAN AP 4]
[Switch 2] - - [Drucker 1]
[Switch 2] - - [Drucker 2]
[Switch 2] - - [Notebook 1]

@enduml

@startuml
cloud {
[Internet Service Provider]
}
(Router des ISP)
[Firewall]
(Router 192.168.0.2 / 24)
[Switch 1]
node "DNS-Server" {
(192.168.0.21 / 24)
}
node "Datei-Server" {
(192.168.0.22 / 24)
}
[Switch 2]
[Notebook 1]
[Drucker 1]
[Drucker 2]
[WLAN AP 1]
[WLAN AP 2]
[WLAN AP 3]
[WLAN AP 4]

[Internet Service Provider] - (Router des ISP)
(Router des ISP) - [Firewall]
[Firewall] - [Switch 1]
[Switch 1] - (Router 192.168.0.2 / 24)
(Router 192.168.0.2 / 24) - - (192.168.0.21 / 24)
(Router 192.168.0.2 / 24) - - (192.168.0.22 / 24)
(Router 192.168.0.2 / 24) - [Switch 2]
together {
[WLAN AP 1]
[WLAN AP 2]
[WLAN AP 3]
[WLAN AP 4]
[Notebook 1]
[Drucker 1]
[Drucker 2]
}

[Switch 2] - - [WLAN AP 1]
[Switch 2] - - [WLAN AP 2]
[Switch 2] - - [WLAN AP 3]
[Switch 2] - - [WLAN AP 4]
[Switch 2] - - [Drucker 1]
[Switch 2] - - [Drucker 2]
[Switch 2] - - [Notebook 1]

@enduml

PlantUML version 1.2022.7(Mon Aug 22 19:01:30 CEST 2022)
(GPL source distribution)
Java Runtime: OpenJDK Runtime Environment
JVM: OpenJDK 64-Bit Server VM
Default Encoding: Cp1252
Language: de
Country: DE
--></g></svg>