<?xml version="1.0" encoding="UTF-8" standalone="no"?><svg xmlns="http://www.w3.org/2000/svg" xmlns:xlink="http://www.w3.org/1999/xlink" contentStyleType="text/css" height="223px" preserveAspectRatio="none" style="width:565px;height:223px;background:#FFFFFF;" version="1.1" viewBox="0 0 565 223" width="565px" zoomAndPan="magnify"><defs/><g><!--MD5=[09ce52be0ee7de43c61b6e2d59bf108b]
class Person--><g id="elem_Person"><rect codeLine="1" fill="#F1F1F1" height="83.2188" id="Person" rx="2.5" ry="2.5" style="stroke:#181818;stroke-width:0.5;" width="111" x="66.5" y="7"/><ellipse cx="96.8" cy="23" fill="#ADD1B2" rx="11" ry="11" style="stroke:#181818;stroke-width:1.0;"/><path d="M99.5656,18.875 Q99.7219,18.6563 99.9094,18.5469 Q100.0969,18.4375 100.3156,18.4375 Q100.6906,18.4375 100.925,18.7031 Q101.1594,18.9531 101.1594,19.5625 L101.1594,21.0156 Q101.1594,21.625 100.925,21.8906 Q100.6906,22.1563 100.3156,22.1563 Q99.9719,22.1563 99.7688,21.9531 Q99.5656,21.7656 99.4563,21.25 Q99.4094,20.8906 99.2219,20.7031 Q98.8938,20.3281 98.2844,20.1094 Q97.675,19.8906 97.05,19.8906 Q96.2844,19.8906 95.6438,20.2188 Q95.0188,20.5469 94.5188,21.2969 Q94.0344,22.0469 94.0344,23.0781 L94.0344,24.1719 Q94.0344,25.4063 94.925,26.2344 Q95.8156,27.0469 97.4094,27.0469 Q98.3469,27.0469 99.0031,26.7969 Q99.3938,26.6406 99.8156,26.2031 Q100.0813,25.9375 100.2219,25.8594 Q100.3781,25.7813 100.5813,25.7813 Q100.9094,25.7813 101.1594,26.0469 Q101.425,26.2969 101.425,26.6406 Q101.425,26.9844 101.0813,27.3906 Q100.5813,27.9688 99.7844,28.2969 Q98.7063,28.75 97.4094,28.75 Q95.8938,28.75 94.6906,28.125 Q93.7063,27.625 93.0188,26.5625 Q92.3313,25.4844 92.3313,24.2031 L92.3313,23.0469 Q92.3313,21.7188 92.9406,20.5781 Q93.5656,19.4219 94.6594,18.8125 Q95.7531,18.1875 96.9875,18.1875 Q97.7219,18.1875 98.3625,18.3594 Q99.0188,18.5156 99.5656,18.875 Z " fill="#000000"/><text fill="#000000" font-family="sans-serif" font-size="14" lengthAdjust="spacing" textLength="45" x="114.2" y="28.7285">Person</text><line style="stroke:#181818;stroke-width:0.5;" x1="67.5" x2="176.5" y1="39" y2="39"/><ellipse cx="77.5" cy="53.3047" fill="none" rx="3" ry="3" style="stroke:#038048;stroke-width:1.0;"/><text fill="#000000" font-family="sans-serif" font-size="14" lengthAdjust="spacing" textLength="85" x="86.5" y="57.5332">Name : String</text><line style="stroke:#181818;stroke-width:0.5;" x1="67.5" x2="176.5" y1="64.6094" y2="64.6094"/><ellipse cx="77.5" cy="78.9141" fill="#84BE84" rx="3" ry="3" style="stroke:#038048;stroke-width:1.0;"/><text fill="#000000" font-family="sans-serif" font-size="14" lengthAdjust="spacing" textLength="53" x="86.5" y="83.1426">kaufen()</text></g><!--MD5=[6913067fad8c192fd175205f79738d90]
class Privatperson--><g id="elem_Privatperson"><rect codeLine="5" fill="#F1F1F1" height="48" id="Privatperson" rx="2.5" ry="2.5" style="stroke:#181818;stroke-width:0.5;" width="112" x="7" y="160"/><ellipse cx="22" cy="176" fill="#ADD1B2" rx="11" ry="11" style="stroke:#181818;stroke-width:1.0;"/><path d="M24.7656,171.875 Q24.9219,171.6563 25.1094,171.5469 Q25.2969,171.4375 25.5156,171.4375 Q25.8906,171.4375 26.125,171.7031 Q26.3594,171.9531 26.3594,172.5625 L26.3594,174.0156 Q26.3594,174.625 26.125,174.8906 Q25.8906,175.1563 25.5156,175.1563 Q25.1719,175.1563 24.9688,174.9531 Q24.7656,174.7656 24.6563,174.25 Q24.6094,173.8906 24.4219,173.7031 Q24.0938,173.3281 23.4844,173.1094 Q22.875,172.8906 22.25,172.8906 Q21.4844,172.8906 20.8438,173.2188 Q20.2188,173.5469 19.7188,174.2969 Q19.2344,175.0469 19.2344,176.0781 L19.2344,177.1719 Q19.2344,178.4063 20.125,179.2344 Q21.0156,180.0469 22.6094,180.0469 Q23.5469,180.0469 24.2031,179.7969 Q24.5938,179.6406 25.0156,179.2031 Q25.2813,178.9375 25.4219,178.8594 Q25.5781,178.7813 25.7813,178.7813 Q26.1094,178.7813 26.3594,179.0469 Q26.625,179.2969 26.625,179.6406 Q26.625,179.9844 26.2813,180.3906 Q25.7813,180.9688 24.9844,181.2969 Q23.9063,181.75 22.6094,181.75 Q21.0938,181.75 19.8906,181.125 Q18.9063,180.625 18.2188,179.5625 Q17.5313,178.4844 17.5313,177.2031 L17.5313,176.0469 Q17.5313,174.7188 18.1406,173.5781 Q18.7656,172.4219 19.8594,171.8125 Q20.9531,171.1875 22.1875,171.1875 Q22.9219,171.1875 23.5625,171.3594 Q24.2188,171.5156 24.7656,171.875 Z " fill="#000000"/><text fill="#000000" font-family="sans-serif" font-size="14" lengthAdjust="spacing" textLength="80" x="36" y="181.7285">Privatperson</text><line style="stroke:#181818;stroke-width:0.5;" x1="8" x2="118" y1="192" y2="192"/><line style="stroke:#181818;stroke-width:0.5;" x1="8" x2="118" y1="200" y2="200"/></g><!--MD5=[8a62592e297cccffe13567fea13fbc3f]
class Arzt--><g id="elem_Arzt"><rect codeLine="6" fill="#F1F1F1" height="48" id="Arzt" rx="2.5" ry="2.5" style="stroke:#181818;stroke-width:0.5;" width="56" x="154" y="160"/><ellipse cx="169" cy="176" fill="#ADD1B2" rx="11" ry="11" style="stroke:#181818;stroke-width:1.0;"/><path d="M171.7656,171.875 Q171.9219,171.6563 172.1094,171.5469 Q172.2969,171.4375 172.5156,171.4375 Q172.8906,171.4375 173.125,171.7031 Q173.3594,171.9531 173.3594,172.5625 L173.3594,174.0156 Q173.3594,174.625 173.125,174.8906 Q172.8906,175.1563 172.5156,175.1563 Q172.1719,175.1563 171.9688,174.9531 Q171.7656,174.7656 171.6563,174.25 Q171.6094,173.8906 171.4219,173.7031 Q171.0938,173.3281 170.4844,173.1094 Q169.875,172.8906 169.25,172.8906 Q168.4844,172.8906 167.8438,173.2188 Q167.2188,173.5469 166.7188,174.2969 Q166.2344,175.0469 166.2344,176.0781 L166.2344,177.1719 Q166.2344,178.4063 167.125,179.2344 Q168.0156,180.0469 169.6094,180.0469 Q170.5469,180.0469 171.2031,179.7969 Q171.5938,179.6406 172.0156,179.2031 Q172.2813,178.9375 172.4219,178.8594 Q172.5781,178.7813 172.7813,178.7813 Q173.1094,178.7813 173.3594,179.0469 Q173.625,179.2969 173.625,179.6406 Q173.625,179.9844 173.2813,180.3906 Q172.7813,180.9688 171.9844,181.2969 Q170.9063,181.75 169.6094,181.75 Q168.0938,181.75 166.8906,181.125 Q165.9063,180.625 165.2188,179.5625 Q164.5313,178.4844 164.5313,177.2031 L164.5313,176.0469 Q164.5313,174.7188 165.1406,173.5781 Q165.7656,172.4219 166.8594,171.8125 Q167.9531,171.1875 169.1875,171.1875 Q169.9219,171.1875 170.5625,171.3594 Q171.2188,171.5156 171.7656,171.875 Z " fill="#000000"/><text fill="#000000" font-family="sans-serif" font-size="14" lengthAdjust="spacing" textLength="24" x="183" y="181.7285">Arzt</text><line style="stroke:#181818;stroke-width:0.5;" x1="155" x2="209" y1="192" y2="192"/><line style="stroke:#181818;stroke-width:0.5;" x1="155" x2="209" y1="200" y2="200"/></g><!--MD5=[bac633b95fd8d004d55c8eb4188bc94a]
class Arztnei--><g id="elem_Arztnei"><rect codeLine="11" fill="#F1F1F1" height="65.6094" id="Arztnei" rx="2.5" ry="2.5" style="stroke:#181818;stroke-width:0.5;" width="111" x="265.5" y="15.5"/><ellipse cx="296.7" cy="31.5" fill="#ADD1B2" rx="11" ry="11" style="stroke:#181818;stroke-width:1.0;"/><path d="M299.4656,27.375 Q299.6219,27.1563 299.8094,27.0469 Q299.9969,26.9375 300.2156,26.9375 Q300.5906,26.9375 300.825,27.2031 Q301.0594,27.4531 301.0594,28.0625 L301.0594,29.5156 Q301.0594,30.125 300.825,30.3906 Q300.5906,30.6563 300.2156,30.6563 Q299.8719,30.6563 299.6688,30.4531 Q299.4656,30.2656 299.3563,29.75 Q299.3094,29.3906 299.1219,29.2031 Q298.7938,28.8281 298.1844,28.6094 Q297.575,28.3906 296.95,28.3906 Q296.1844,28.3906 295.5438,28.7188 Q294.9188,29.0469 294.4188,29.7969 Q293.9344,30.5469 293.9344,31.5781 L293.9344,32.6719 Q293.9344,33.9063 294.825,34.7344 Q295.7156,35.5469 297.3094,35.5469 Q298.2469,35.5469 298.9031,35.2969 Q299.2938,35.1406 299.7156,34.7031 Q299.9813,34.4375 300.1219,34.3594 Q300.2781,34.2813 300.4813,34.2813 Q300.8094,34.2813 301.0594,34.5469 Q301.325,34.7969 301.325,35.1406 Q301.325,35.4844 300.9813,35.8906 Q300.4813,36.4688 299.6844,36.7969 Q298.6063,37.25 297.3094,37.25 Q295.7938,37.25 294.5906,36.625 Q293.6063,36.125 292.9188,35.0625 Q292.2313,33.9844 292.2313,32.7031 L292.2313,31.5469 Q292.2313,30.2188 292.8406,29.0781 Q293.4656,27.9219 294.5594,27.3125 Q295.6531,26.6875 296.8875,26.6875 Q297.6219,26.6875 298.2625,26.8594 Q298.9188,27.0156 299.4656,27.375 Z " fill="#000000"/><text fill="#000000" font-family="sans-serif" font-size="14" lengthAdjust="spacing" textLength="43" x="314.3" y="37.2285">Arztnei</text><line style="stroke:#181818;stroke-width:0.5;" x1="266.5" x2="375.5" y1="47.5" y2="47.5"/><ellipse cx="276.5" cy="61.8047" fill="none" rx="3" ry="3" style="stroke:#038048;stroke-width:1.0;"/><text fill="#000000" font-family="sans-serif" font-size="14" lengthAdjust="spacing" textLength="85" x="285.5" y="66.0332">Name : String</text><line style="stroke:#181818;stroke-width:0.5;" x1="266.5" x2="375.5" y1="73.1094" y2="73.1094"/></g><!--MD5=[03ae38dce95fd4b8a51d91d90433c818]
class Krankheit--><g id="elem_Krankheit"><rect codeLine="14" fill="#F1F1F1" height="65.6094" id="Krankheit" rx="2.5" ry="2.5" style="stroke:#181818;stroke-width:0.5;" width="111" x="447.5" y="15.5"/><ellipse cx="471.05" cy="31.5" fill="#ADD1B2" rx="11" ry="11" style="stroke:#181818;stroke-width:1.0;"/><path d="M473.8156,27.375 Q473.9719,27.1563 474.1594,27.0469 Q474.3469,26.9375 474.5656,26.9375 Q474.9406,26.9375 475.175,27.2031 Q475.4094,27.4531 475.4094,28.0625 L475.4094,29.5156 Q475.4094,30.125 475.175,30.3906 Q474.9406,30.6563 474.5656,30.6563 Q474.2219,30.6563 474.0188,30.4531 Q473.8156,30.2656 473.7063,29.75 Q473.6594,29.3906 473.4719,29.2031 Q473.1438,28.8281 472.5344,28.6094 Q471.925,28.3906 471.3,28.3906 Q470.5344,28.3906 469.8938,28.7188 Q469.2688,29.0469 468.7688,29.7969 Q468.2844,30.5469 468.2844,31.5781 L468.2844,32.6719 Q468.2844,33.9063 469.175,34.7344 Q470.0656,35.5469 471.6594,35.5469 Q472.5969,35.5469 473.2531,35.2969 Q473.6438,35.1406 474.0656,34.7031 Q474.3313,34.4375 474.4719,34.3594 Q474.6281,34.2813 474.8313,34.2813 Q475.1594,34.2813 475.4094,34.5469 Q475.675,34.7969 475.675,35.1406 Q475.675,35.4844 475.3313,35.8906 Q474.8313,36.4688 474.0344,36.7969 Q472.9563,37.25 471.6594,37.25 Q470.1438,37.25 468.9406,36.625 Q467.9563,36.125 467.2688,35.0625 Q466.5813,33.9844 466.5813,32.7031 L466.5813,31.5469 Q466.5813,30.2188 467.1906,29.0781 Q467.8156,27.9219 468.9094,27.3125 Q470.0031,26.6875 471.2375,26.6875 Q471.9719,26.6875 472.6125,26.8594 Q473.2688,27.0156 473.8156,27.375 Z " fill="#000000"/><text fill="#000000" font-family="sans-serif" font-size="14" lengthAdjust="spacing" textLength="60" x="486.95" y="37.2285">Krankheit</text><line style="stroke:#181818;stroke-width:0.5;" x1="448.5" x2="557.5" y1="47.5" y2="47.5"/><ellipse cx="458.5" cy="61.8047" fill="none" rx="3" ry="3" style="stroke:#038048;stroke-width:1.0;"/><text fill="#000000" font-family="sans-serif" font-size="14" lengthAdjust="spacing" textLength="85" x="467.5" y="66.0332">Name : String</text><line style="stroke:#181818;stroke-width:0.5;" x1="448.5" x2="557.5" y1="73.1094" y2="73.1094"/></g><!--MD5=[ba2b8381b14852ab0e9e73f2e9780a1c]
class Syntom--><g id="elem_Syntom"><rect codeLine="17" fill="#F1F1F1" height="65.6094" id="Syntom" rx="2.5" ry="2.5" style="stroke:#181818;stroke-width:0.5;" width="111" x="447.5" y="151"/><ellipse cx="476.9" cy="167" fill="#ADD1B2" rx="11" ry="11" style="stroke:#181818;stroke-width:1.0;"/><path d="M479.6656,162.875 Q479.8219,162.6563 480.0094,162.5469 Q480.1969,162.4375 480.4156,162.4375 Q480.7906,162.4375 481.025,162.7031 Q481.2594,162.9531 481.2594,163.5625 L481.2594,165.0156 Q481.2594,165.625 481.025,165.8906 Q480.7906,166.1563 480.4156,166.1563 Q480.0719,166.1563 479.8688,165.9531 Q479.6656,165.7656 479.5563,165.25 Q479.5094,164.8906 479.3219,164.7031 Q478.9938,164.3281 478.3844,164.1094 Q477.775,163.8906 477.15,163.8906 Q476.3844,163.8906 475.7438,164.2188 Q475.1188,164.5469 474.6188,165.2969 Q474.1344,166.0469 474.1344,167.0781 L474.1344,168.1719 Q474.1344,169.4063 475.025,170.2344 Q475.9156,171.0469 477.5094,171.0469 Q478.4469,171.0469 479.1031,170.7969 Q479.4938,170.6406 479.9156,170.2031 Q480.1813,169.9375 480.3219,169.8594 Q480.4781,169.7813 480.6813,169.7813 Q481.0094,169.7813 481.2594,170.0469 Q481.525,170.2969 481.525,170.6406 Q481.525,170.9844 481.1813,171.3906 Q480.6813,171.9688 479.8844,172.2969 Q478.8063,172.75 477.5094,172.75 Q475.9938,172.75 474.7906,172.125 Q473.8063,171.625 473.1188,170.5625 Q472.4313,169.4844 472.4313,168.2031 L472.4313,167.0469 Q472.4313,165.7188 473.0406,164.5781 Q473.6656,163.4219 474.7594,162.8125 Q475.8531,162.1875 477.0875,162.1875 Q477.8219,162.1875 478.4625,162.3594 Q479.1188,162.5156 479.6656,162.875 Z " fill="#000000"/><text fill="#000000" font-family="sans-serif" font-size="14" lengthAdjust="spacing" textLength="47" x="494.1" y="172.7285">Syntom</text><line style="stroke:#181818;stroke-width:0.5;" x1="448.5" x2="557.5" y1="183" y2="183"/><ellipse cx="458.5" cy="197.3047" fill="none" rx="3" ry="3" style="stroke:#038048;stroke-width:1.0;"/><text fill="#000000" font-family="sans-serif" font-size="14" lengthAdjust="spacing" textLength="85" x="467.5" y="201.5332">Name : String</text><line style="stroke:#181818;stroke-width:0.5;" x1="448.5" x2="557.5" y1="208.6094" y2="208.6094"/></g><!--MD5=[66f6e921d0225ae9bb6865c3cd876c73]
reverse link Person to Privatperson--><g id="link_Person_Privatperson"><path codeLine="8" d="M95.84,108.68 C87.83,126.83 79.47,145.72 73.2,159.92 " fill="none" id="Person-backto-Privatperson" style="stroke:#181818;stroke-width:1.0;"/><polygon fill="none" points="89.49,105.74,103.98,90.28,102.3,111.4,89.49,105.74" style="stroke:#181818;stroke-width:1.0;"/></g><!--MD5=[d7e6a1367bf74869933dabe5bb3554a7]
reverse link Person to Arzt--><g id="link_Person_Arzt"><path codeLine="9" d="M148.6,108.68 C156.75,126.83 165.25,145.72 171.63,159.92 " fill="none" id="Person-backto-Arzt" style="stroke:#181818;stroke-width:1.0;"/><polygon fill="none" points="142.14,111.39,140.33,90.28,154.91,105.65,142.14,111.39" style="stroke:#181818;stroke-width:1.0;"/></g><!--MD5=[d0ef70e25b43a3955dad7ddc480050a5]
reverse link Krankheit to Syntom--><g id="link_Krankheit_Syntom"><path codeLine="21" d="M503,101.84 C503,118.43 503,136.26 503,150.98 " fill="none" id="Krankheit-backto-Syntom" style="stroke:#181818;stroke-width:1.0;"/><polygon fill="none" points="496,101.82,503,81.82,510,101.82,496,101.82" style="stroke:#181818;stroke-width:1.0;"/></g><!--MD5=[d1ef153497bcdc843705c8922755d666]
link Person to Arztnei--><g id="link_Person_Arztnei"><path codeLine="22" d="M177.7,48.5 C205.06,48.5 237.95,48.5 265.32,48.5 " fill="none" id="Person-Arztnei" style="stroke:#181818;stroke-width:1.0;"/><polygon fill="#000000" points="205,36.6758,195.9549,33.7369,195.9549,39.6147,205,36.6758" style="stroke:#000000;stroke-width:1.0;"/><text fill="#000000" font-family="sans-serif" font-size="13" lengthAdjust="spacing" textLength="38" x="209" y="41.9951">kaufen</text><text fill="#000000" font-family="sans-serif" font-size="13" lengthAdjust="spacing" textLength="7" x="185.655" y="44.929">1</text><text fill="#000000" font-family="sans-serif" font-size="13" lengthAdjust="spacing" textLength="29" x="228.6441" y="62.9107">0..50</text></g><!--MD5=[cc4b134453dee9bc65870e466039c643]
link Arztnei to Krankheit--><g id="link_Arztnei_Krankheit"><path codeLine="23" d="M376.59,48.5 C399.07,48.5 424.96,48.5 447.43,48.5 " fill="none" id="Arztnei-Krankheit" style="stroke:#181818;stroke-width:1.0;"/><text fill="#000000" font-family="sans-serif" font-size="13" lengthAdjust="spacing" textLength="34" x="395" y="41.9951">heilen</text><text fill="#000000" font-family="sans-serif" font-size="13" lengthAdjust="spacing" textLength="7" x="384.5302" y="44.97">1</text><text fill="#000000" font-family="sans-serif" font-size="13" lengthAdjust="spacing" textLength="22" x="417.3168" y="63.0153">0..1</text></g><!--MD5=[825116b7437355d85165c07ac287a7e8]
@startuml
class Person {
+ Name : String
+ kaufen()
}
class Privatperson {}
class Arzt {}

Person <|- - Privatperson
Person <|- - Arzt

class Arztnei {
+ Name : String
}
class Krankheit {
+ Name : String
}
class Syntom {
+ Name : String
}

Krankheit <|- - Syntom
Person "1" - "0..50" Arztnei : kaufen >
Arztnei "1" - "0..1" Krankheit : heilen
@enduml

PlantUML version 1.2022.7(Mon Aug 22 19:01:30 CEST 2022)
(GPL source distribution)
Java Runtime: OpenJDK Runtime Environment
JVM: OpenJDK 64-Bit Server VM
Default Encoding: UTF-8
Language: de
Country: DE
--></g></svg>