<?xml version="1.0" encoding="UTF-8" standalone="no"?><svg xmlns="http://www.w3.org/2000/svg" xmlns:xlink="http://www.w3.org/1999/xlink" contentStyleType="text/css" height="254px" preserveAspectRatio="none" style="width:653px;height:254px;background:#FFFFFF;" version="1.1" viewBox="0 0 653 254" width="653px" zoomAndPan="magnify"><defs/><g><line style="stroke:#C0C0C0;stroke-width:1.0;" x1="0" x2="0" y1="0" y2="238.416"/><line style="stroke:#C0C0C0;stroke-width:1.0;" x1="16" x2="16" y1="0" y2="238.416"/><line style="stroke:#C0C0C0;stroke-width:1.0;" x1="32" x2="32" y1="0" y2="238.416"/><line style="stroke:#C0C0C0;stroke-width:1.0;" x1="48" x2="48" y1="0" y2="238.416"/><line style="stroke:#C0C0C0;stroke-width:1.0;" x1="64" x2="64" y1="0" y2="238.416"/><line style="stroke:#C0C0C0;stroke-width:1.0;" x1="80" x2="80" y1="0" y2="238.416"/><line style="stroke:#C0C0C0;stroke-width:1.0;" x1="96" x2="96" y1="0" y2="238.416"/><line style="stroke:#C0C0C0;stroke-width:1.0;" x1="112" x2="112" y1="0" y2="238.416"/><line style="stroke:#C0C0C0;stroke-width:1.0;" x1="128" x2="128" y1="0" y2="238.416"/><line style="stroke:#C0C0C0;stroke-width:1.0;" x1="144" x2="144" y1="0" y2="238.416"/><line style="stroke:#C0C0C0;stroke-width:1.0;" x1="160" x2="160" y1="0" y2="238.416"/><line style="stroke:#C0C0C0;stroke-width:1.0;" x1="176" x2="176" y1="0" y2="238.416"/><line style="stroke:#C0C0C0;stroke-width:1.0;" x1="192" x2="192" y1="0" y2="238.416"/><line style="stroke:#C0C0C0;stroke-width:1.0;" x1="208" x2="208" y1="0" y2="238.416"/><line style="stroke:#C0C0C0;stroke-width:1.0;" x1="224" x2="224" y1="0" y2="238.416"/><line style="stroke:#C0C0C0;stroke-width:1.0;" x1="240" x2="240" y1="0" y2="238.416"/><line style="stroke:#C0C0C0;stroke-width:1.0;" x1="256" x2="256" y1="0" y2="238.416"/><line style="stroke:#C0C0C0;stroke-width:1.0;" x1="272" x2="272" y1="0" y2="238.416"/><line style="stroke:#C0C0C0;stroke-width:1.0;" x1="288" x2="288" y1="0" y2="238.416"/><line style="stroke:#C0C0C0;stroke-width:1.0;" x1="304" x2="304" y1="0" y2="238.416"/><text fill="#000000" font-family="Serif" font-size="10" lengthAdjust="spacing" textLength="5" x="5.5" y="9.3359">1</text><text fill="#000000" font-family="Serif" font-size="10" lengthAdjust="spacing" textLength="5" x="21.5" y="9.3359">2</text><text fill="#000000" font-family="Serif" font-size="10" lengthAdjust="spacing" textLength="5" x="37.5" y="9.3359">3</text><text fill="#000000" font-family="Serif" font-size="10" lengthAdjust="spacing" textLength="5" x="53.5" y="9.3359">4</text><text fill="#000000" font-family="Serif" font-size="10" lengthAdjust="spacing" textLength="5" x="69.5" y="9.3359">5</text><text fill="#000000" font-family="Serif" font-size="10" lengthAdjust="spacing" textLength="5" x="85.5" y="9.3359">6</text><text fill="#000000" font-family="Serif" font-size="10" lengthAdjust="spacing" textLength="5" x="101.5" y="9.3359">7</text><text fill="#000000" font-family="Serif" font-size="10" lengthAdjust="spacing" textLength="5" x="117.5" y="9.3359">8</text><text fill="#000000" font-family="Serif" font-size="10" lengthAdjust="spacing" textLength="5" x="133.5" y="9.3359">9</text><text fill="#000000" font-family="Serif" font-size="10" lengthAdjust="spacing" textLength="10" x="147" y="9.3359">10</text><text fill="#000000" font-family="Serif" font-size="10" lengthAdjust="spacing" textLength="10" x="163" y="9.3359">11</text><text fill="#000000" font-family="Serif" font-size="10" lengthAdjust="spacing" textLength="10" x="179" y="9.3359">12</text><text fill="#000000" font-family="Serif" font-size="10" lengthAdjust="spacing" textLength="10" x="195" y="9.3359">13</text><text fill="#000000" font-family="Serif" font-size="10" lengthAdjust="spacing" textLength="10" x="211" y="9.3359">14</text><text fill="#000000" font-family="Serif" font-size="10" lengthAdjust="spacing" textLength="10" x="227" y="9.3359">15</text><text fill="#000000" font-family="Serif" font-size="10" lengthAdjust="spacing" textLength="10" x="243" y="9.3359">16</text><text fill="#000000" font-family="Serif" font-size="10" lengthAdjust="spacing" textLength="10" x="259" y="9.3359">17</text><text fill="#000000" font-family="Serif" font-size="10" lengthAdjust="spacing" textLength="10" x="275" y="9.3359">18</text><text fill="#000000" font-family="Serif" font-size="10" lengthAdjust="spacing" textLength="10" x="291" y="9.3359">19</text><line style="stroke:#C0C0C0;stroke-width:1.0;" x1="0" x2="304" y1="0" y2="0"/><line style="stroke:#C0C0C0;stroke-width:1.0;" x1="0" x2="304" y1="13" y2="13"/><rect fill="#E2E2F0" height="12.9551" style="stroke:none;stroke-width:1.0;" width="12" x="2" y="18"/><line style="stroke:#181818;stroke-width:1.0;" x1="2" x2="14" y1="18" y2="18"/><line style="stroke:#181818;stroke-width:1.0;" x1="2" x2="14" y1="30.9551" y2="30.9551"/><line style="stroke:#181818;stroke-width:1.0;" x1="2" x2="2" y1="18" y2="30.9551"/><line style="stroke:#181818;stroke-width:1.0;" x1="14" x2="14" y1="18" y2="30.9551"/><rect fill="#E2E2F0" height="12.9551" style="stroke:none;stroke-width:1.0;" width="76" x="18" y="34.9551"/><line style="stroke:#181818;stroke-width:1.0;" x1="18" x2="94" y1="34.9551" y2="34.9551"/><line style="stroke:#181818;stroke-width:1.0;" x1="18" x2="94" y1="47.9102" y2="47.9102"/><line style="stroke:#181818;stroke-width:1.0;" x1="18" x2="18" y1="34.9551" y2="47.9102"/><line style="stroke:#181818;stroke-width:1.0;" x1="94" x2="94" y1="34.9551" y2="47.9102"/><rect fill="#E2E2F0" height="12.9551" style="stroke:none;stroke-width:1.0;" width="12" x="98" y="51.9102"/><line style="stroke:#181818;stroke-width:1.0;" x1="98" x2="110" y1="51.9102" y2="51.9102"/><line style="stroke:#181818;stroke-width:1.0;" x1="98" x2="110" y1="64.8652" y2="64.8652"/><line style="stroke:#181818;stroke-width:1.0;" x1="98" x2="98" y1="51.9102" y2="64.8652"/><line style="stroke:#181818;stroke-width:1.0;" x1="110" x2="110" y1="51.9102" y2="64.8652"/><rect fill="#E2E2F0" height="12.9551" style="stroke:none;stroke-width:1.0;" width="28" x="18" y="68.8652"/><line style="stroke:#181818;stroke-width:1.0;" x1="18" x2="46" y1="68.8652" y2="68.8652"/><line style="stroke:#181818;stroke-width:1.0;" x1="18" x2="46" y1="81.8203" y2="81.8203"/><line style="stroke:#181818;stroke-width:1.0;" x1="18" x2="18" y1="68.8652" y2="81.8203"/><line style="stroke:#181818;stroke-width:1.0;" x1="46" x2="46" y1="68.8652" y2="81.8203"/><rect fill="#E2E2F0" height="12.9551" style="stroke:none;stroke-width:1.0;" width="12" x="50" y="85.8203"/><line style="stroke:#181818;stroke-width:1.0;" x1="50" x2="62" y1="85.8203" y2="85.8203"/><line style="stroke:#181818;stroke-width:1.0;" x1="50" x2="62" y1="98.7754" y2="98.7754"/><line style="stroke:#181818;stroke-width:1.0;" x1="50" x2="50" y1="85.8203" y2="98.7754"/><line style="stroke:#181818;stroke-width:1.0;" x1="62" x2="62" y1="85.8203" y2="98.7754"/><rect fill="#E2E2F0" height="12.9551" style="stroke:none;stroke-width:1.0;" width="12" x="114" y="102.7754"/><line style="stroke:#181818;stroke-width:1.0;" x1="114" x2="126" y1="102.7754" y2="102.7754"/><line style="stroke:#181818;stroke-width:1.0;" x1="114" x2="126" y1="115.7305" y2="115.7305"/><line style="stroke:#181818;stroke-width:1.0;" x1="114" x2="114" y1="102.7754" y2="115.7305"/><line style="stroke:#181818;stroke-width:1.0;" x1="126" x2="126" y1="102.7754" y2="115.7305"/><rect fill="#E2E2F0" height="12.9551" style="stroke:none;stroke-width:1.0;" width="28" x="130" y="119.7305"/><line style="stroke:#181818;stroke-width:1.0;" x1="130" x2="158" y1="119.7305" y2="119.7305"/><line style="stroke:#181818;stroke-width:1.0;" x1="130" x2="158" y1="132.6855" y2="132.6855"/><line style="stroke:#181818;stroke-width:1.0;" x1="130" x2="130" y1="119.7305" y2="132.6855"/><line style="stroke:#181818;stroke-width:1.0;" x1="158" x2="158" y1="119.7305" y2="132.6855"/><rect fill="#E2E2F0" height="12.9551" style="stroke:none;stroke-width:1.0;" width="28" x="162" y="136.6855"/><line style="stroke:#181818;stroke-width:1.0;" x1="162" x2="190" y1="136.6855" y2="136.6855"/><line style="stroke:#181818;stroke-width:1.0;" x1="162" x2="190" y1="149.6406" y2="149.6406"/><line style="stroke:#181818;stroke-width:1.0;" x1="162" x2="162" y1="136.6855" y2="149.6406"/><line style="stroke:#181818;stroke-width:1.0;" x1="190" x2="190" y1="136.6855" y2="149.6406"/><rect fill="#E2E2F0" height="12.9551" style="stroke:none;stroke-width:1.0;" width="12" x="194" y="153.6406"/><line style="stroke:#181818;stroke-width:1.0;" x1="194" x2="206" y1="153.6406" y2="153.6406"/><line style="stroke:#181818;stroke-width:1.0;" x1="194" x2="206" y1="166.5957" y2="166.5957"/><line style="stroke:#181818;stroke-width:1.0;" x1="194" x2="194" y1="153.6406" y2="166.5957"/><line style="stroke:#181818;stroke-width:1.0;" x1="206" x2="206" y1="153.6406" y2="166.5957"/><rect fill="#E2E2F0" height="12.9551" style="stroke:none;stroke-width:1.0;" width="28" x="194" y="170.5957"/><line style="stroke:#181818;stroke-width:1.0;" x1="194" x2="222" y1="170.5957" y2="170.5957"/><line style="stroke:#181818;stroke-width:1.0;" x1="194" x2="222" y1="183.5508" y2="183.5508"/><line style="stroke:#181818;stroke-width:1.0;" x1="194" x2="194" y1="170.5957" y2="183.5508"/><line style="stroke:#181818;stroke-width:1.0;" x1="222" x2="222" y1="170.5957" y2="183.5508"/><rect fill="#E2E2F0" height="12.9551" style="stroke:none;stroke-width:1.0;" width="12" x="226" y="187.5508"/><line style="stroke:#181818;stroke-width:1.0;" x1="226" x2="238" y1="187.5508" y2="187.5508"/><line style="stroke:#181818;stroke-width:1.0;" x1="226" x2="238" y1="200.5059" y2="200.5059"/><line style="stroke:#181818;stroke-width:1.0;" x1="226" x2="226" y1="187.5508" y2="200.5059"/><line style="stroke:#181818;stroke-width:1.0;" x1="238" x2="238" y1="187.5508" y2="200.5059"/><rect fill="#E2E2F0" height="12.9551" style="stroke:none;stroke-width:1.0;" width="28" x="242" y="204.5059"/><line style="stroke:#181818;stroke-width:1.0;" x1="242" x2="270" y1="204.5059" y2="204.5059"/><line style="stroke:#181818;stroke-width:1.0;" x1="242" x2="270" y1="217.4609" y2="217.4609"/><line style="stroke:#181818;stroke-width:1.0;" x1="242" x2="242" y1="204.5059" y2="217.4609"/><line style="stroke:#181818;stroke-width:1.0;" x1="270" x2="270" y1="204.5059" y2="217.4609"/><rect fill="#E2E2F0" height="12.9551" style="stroke:none;stroke-width:1.0;" width="28" x="274" y="221.4609"/><line style="stroke:#181818;stroke-width:1.0;" x1="274" x2="302" y1="221.4609" y2="221.4609"/><line style="stroke:#181818;stroke-width:1.0;" x1="274" x2="302" y1="234.416" y2="234.416"/><line style="stroke:#181818;stroke-width:1.0;" x1="274" x2="274" y1="221.4609" y2="234.416"/><line style="stroke:#181818;stroke-width:1.0;" x1="302" x2="302" y1="221.4609" y2="234.416"/><text fill="#000000" font-family="sans-serif" font-size="11" lengthAdjust="spacing" textLength="179" x="18" y="28.6348">Konzeption der Hartware-Lösung</text><text fill="#000000" font-family="sans-serif" font-size="11" lengthAdjust="spacing" textLength="363" x="98" y="45.5898">Verlegen neuer Netzwerk- und Stromleitungen für Netzinfrastruktur</text><text fill="#000000" font-family="sans-serif" font-size="11" lengthAdjust="spacing" textLength="194" x="114" y="62.5449">Anschluss der Datendosen und APs.</text><text fill="#000000" font-family="sans-serif" font-size="11" lengthAdjust="spacing" textLength="547" x="50" y="79.5">Aufbau Netzschrank, Einbau der Server-Racks und USV inkl. Sicherung und Entsorgung alter Hardware</text><text fill="#000000" font-family="sans-serif" font-size="11" lengthAdjust="spacing" textLength="257" x="66" y="96.4551">Auflegen der Netzwerkleitungen im Netzschrank</text><text fill="#000000" font-family="sans-serif" font-size="11" lengthAdjust="spacing" textLength="139" x="130" y="113.4102">Messung der Verkabelung</text><text fill="#000000" font-family="sans-serif" font-size="11" lengthAdjust="spacing" textLength="320" x="162" y="130.3652">Aufbau der Netzinfrastruktur (Switch, Router, Arbeitsplätze)</text><text fill="#000000" font-family="sans-serif" font-size="11" lengthAdjust="spacing" textLength="289" x="194" y="147.3203">Konfiguration des Netzwerks insbesondere der VLANs</text><text fill="#000000" font-family="sans-serif" font-size="11" lengthAdjust="spacing" textLength="110" x="210" y="164.2754">Kontrolle des Netzes</text><text fill="#000000" font-family="sans-serif" font-size="11" lengthAdjust="spacing" textLength="212" x="226" y="181.2305">Konfiguration der WLAN-Access-Points</text><text fill="#000000" font-family="sans-serif" font-size="11" lengthAdjust="spacing" textLength="250" x="242" y="198.1855">Funktionalität der WLAN-Access-Points prüfen</text><text fill="#000000" font-family="sans-serif" font-size="11" lengthAdjust="spacing" textLength="377" x="274" y="215.1406">Übergabe und Abnahme durch Geschäftsleitung und Arbeitssicherheit</text><text fill="#000000" font-family="sans-serif" font-size="11" lengthAdjust="spacing" textLength="131" x="306" y="232.0957">Dokumentation erstellen</text><line style="stroke:#C0C0C0;stroke-width:1.0;" x1="0" x2="0" y1="239.416" y2="252.416"/><line style="stroke:#C0C0C0;stroke-width:1.0;" x1="16" x2="16" y1="239.416" y2="252.416"/><line style="stroke:#C0C0C0;stroke-width:1.0;" x1="32" x2="32" y1="239.416" y2="252.416"/><line style="stroke:#C0C0C0;stroke-width:1.0;" x1="48" x2="48" y1="239.416" y2="252.416"/><line style="stroke:#C0C0C0;stroke-width:1.0;" x1="64" x2="64" y1="239.416" y2="252.416"/><line style="stroke:#C0C0C0;stroke-width:1.0;" x1="80" x2="80" y1="239.416" y2="252.416"/><line style="stroke:#C0C0C0;stroke-width:1.0;" x1="96" x2="96" y1="239.416" y2="252.416"/><line style="stroke:#C0C0C0;stroke-width:1.0;" x1="112" x2="112" y1="239.416" y2="252.416"/><line style="stroke:#C0C0C0;stroke-width:1.0;" x1="128" x2="128" y1="239.416" y2="252.416"/><line style="stroke:#C0C0C0;stroke-width:1.0;" x1="144" x2="144" y1="239.416" y2="252.416"/><line style="stroke:#C0C0C0;stroke-width:1.0;" x1="160" x2="160" y1="239.416" y2="252.416"/><line style="stroke:#C0C0C0;stroke-width:1.0;" x1="176" x2="176" y1="239.416" y2="252.416"/><line style="stroke:#C0C0C0;stroke-width:1.0;" x1="192" x2="192" y1="239.416" y2="252.416"/><line style="stroke:#C0C0C0;stroke-width:1.0;" x1="208" x2="208" y1="239.416" y2="252.416"/><line style="stroke:#C0C0C0;stroke-width:1.0;" x1="224" x2="224" y1="239.416" y2="252.416"/><line style="stroke:#C0C0C0;stroke-width:1.0;" x1="240" x2="240" y1="239.416" y2="252.416"/><line style="stroke:#C0C0C0;stroke-width:1.0;" x1="256" x2="256" y1="239.416" y2="252.416"/><line style="stroke:#C0C0C0;stroke-width:1.0;" x1="272" x2="272" y1="239.416" y2="252.416"/><line style="stroke:#C0C0C0;stroke-width:1.0;" x1="288" x2="288" y1="239.416" y2="252.416"/><line style="stroke:#C0C0C0;stroke-width:1.0;" x1="304" x2="304" y1="239.416" y2="252.416"/><text fill="#000000" font-family="Serif" font-size="10" lengthAdjust="spacing" textLength="5" x="5.5" y="248.752">1</text><text fill="#000000" font-family="Serif" font-size="10" lengthAdjust="spacing" textLength="5" x="21.5" y="248.752">2</text><text fill="#000000" font-family="Serif" font-size="10" lengthAdjust="spacing" textLength="5" x="37.5" y="248.752">3</text><text fill="#000000" font-family="Serif" font-size="10" lengthAdjust="spacing" textLength="5" x="53.5" y="248.752">4</text><text fill="#000000" font-family="Serif" font-size="10" lengthAdjust="spacing" textLength="5" x="69.5" y="248.752">5</text><text fill="#000000" font-family="Serif" font-size="10" lengthAdjust="spacing" textLength="5" x="85.5" y="248.752">6</text><text fill="#000000" font-family="Serif" font-size="10" lengthAdjust="spacing" textLength="5" x="101.5" y="248.752">7</text><text fill="#000000" font-family="Serif" font-size="10" lengthAdjust="spacing" textLength="5" x="117.5" y="248.752">8</text><text fill="#000000" font-family="Serif" font-size="10" lengthAdjust="spacing" textLength="5" x="133.5" y="248.752">9</text><text fill="#000000" font-family="Serif" font-size="10" lengthAdjust="spacing" textLength="10" x="147" y="248.752">10</text><text fill="#000000" font-family="Serif" font-size="10" lengthAdjust="spacing" textLength="10" x="163" y="248.752">11</text><text fill="#000000" font-family="Serif" font-size="10" lengthAdjust="spacing" textLength="10" x="179" y="248.752">12</text><text fill="#000000" font-family="Serif" font-size="10" lengthAdjust="spacing" textLength="10" x="195" y="248.752">13</text><text fill="#000000" font-family="Serif" font-size="10" lengthAdjust="spacing" textLength="10" x="211" y="248.752">14</text><text fill="#000000" font-family="Serif" font-size="10" lengthAdjust="spacing" textLength="10" x="227" y="248.752">15</text><text fill="#000000" font-family="Serif" font-size="10" lengthAdjust="spacing" textLength="10" x="243" y="248.752">16</text><text fill="#000000" font-family="Serif" font-size="10" lengthAdjust="spacing" textLength="10" x="259" y="248.752">17</text><text fill="#000000" font-family="Serif" font-size="10" lengthAdjust="spacing" textLength="10" x="275" y="248.752">18</text><text fill="#000000" font-family="Serif" font-size="10" lengthAdjust="spacing" textLength="10" x="291" y="248.752">19</text><line style="stroke:#C0C0C0;stroke-width:1.0;" x1="0" x2="304" y1="239.416" y2="239.416"/><!--MD5=[d5991ad154d520731afbf221bb3e66e5]
@startgantt

[Konzeption der Hartware-Lösung] lasts 1 days
[Verlegen neuer Netzwerk- und Stromleitungen für Netzinfrastruktur] starts D+1 
[Verlegen neuer Netzwerk- und Stromleitungen für Netzinfrastruktur] lasts 5 days
[Anschluss der Datendosen und APs.] starts D+6 
[Anschluss der Datendosen und APs.] lasts 1 days
[Aufbau Netzschrank, Einbau der Server-Racks und USV inkl. Sicherung und Entsorgung alter Hardware] starts D+1  
[Aufbau Netzschrank, Einbau der Server-Racks und USV inkl. Sicherung und Entsorgung alter Hardware] lasts 2 days
[Auflegen der Netzwerkleitungen im Netzschrank] starts D+3
[Auflegen der Netzwerkleitungen im Netzschrank] lasts 1 days
[Messung der Verkabelung] starts D+7
[Messung der Verkabelung] lasts 1 days
[Aufbau der Netzinfrastruktur (Switch, Router, Arbeitsplätze)] starts D+8
[Aufbau der Netzinfrastruktur (Switch, Router, Arbeitsplätze)] lasts 2 days
[Konfiguration des Netzwerks insbesondere der VLANs] starts D+10
[Konfiguration des Netzwerks insbesondere der VLANs] lasts 2 days
[Kontrolle des Netzes] starts D+12
[Kontrolle des Netzes] lasts 1 days
[Konfiguration der WLAN-Access-Points] starts D+12
[Konfiguration der WLAN-Access-Points] lasts 2 days
[Funktionalität der WLAN-Access-Points prüfen] starts D+14
[Funktionalität der WLAN-Access-Points prüfen] lasts 1 days
[Übergabe und Abnahme durch Geschäftsleitung und Arbeitssicherheit] starts D+15
[Übergabe und Abnahme durch Geschäftsleitung und Arbeitssicherheit] lasts 2 days
[Dokumentation erstellen] starts D+17
[Dokumentation erstellen] lasts 2 days
@endgantt

PlantUML version 1.2022.7(Mon Aug 22 19:01:30 CEST 2022)
(GPL source distribution)
Java Runtime: OpenJDK Runtime Environment
JVM: OpenJDK 64-Bit Server VM
Default Encoding: UTF-8
Language: de
Country: DE
--></g></svg>