<?xml version="1.0" encoding="UTF-8" standalone="no"?><svg xmlns="http://www.w3.org/2000/svg" xmlns:xlink="http://www.w3.org/1999/xlink" contentStyleType="text/css" height="416px" preserveAspectRatio="none" style="width:575px;height:416px;background:#FFFFFF;" version="1.1" viewBox="0 0 575 416" width="575px" zoomAndPan="magnify"><defs/><g><!--MD5=[b5aec2d829a0280ef022f965c75acd95]
class Buchung--><g id="elem_Buchung"><rect codeLine="1" fill="#F1F1F1" height="171.2656" id="Buchung" rx="2.5" ry="2.5" style="stroke:#181818;stroke-width:0.5;" width="409" x="83" y="238"/><ellipse cx="255.25" cy="254" fill="#ADD1B2" rx="11" ry="11" style="stroke:#181818;stroke-width:1.0;"/><path d="M258.0156,249.875 Q258.1719,249.6563 258.3594,249.5469 Q258.5469,249.4375 258.7656,249.4375 Q259.1406,249.4375 259.375,249.7031 Q259.6094,249.9531 259.6094,250.5625 L259.6094,252.0156 Q259.6094,252.625 259.375,252.8906 Q259.1406,253.1563 258.7656,253.1563 Q258.4219,253.1563 258.2188,252.9531 Q258.0156,252.7656 257.9063,252.25 Q257.8594,251.8906 257.6719,251.7031 Q257.3438,251.3281 256.7344,251.1094 Q256.125,250.8906 255.5,250.8906 Q254.7344,250.8906 254.0938,251.2188 Q253.4688,251.5469 252.9688,252.2969 Q252.4844,253.0469 252.4844,254.0781 L252.4844,255.1719 Q252.4844,256.4063 253.375,257.2344 Q254.2656,258.0469 255.8594,258.0469 Q256.7969,258.0469 257.4531,257.7969 Q257.8438,257.6406 258.2656,257.2031 Q258.5313,256.9375 258.6719,256.8594 Q258.8281,256.7813 259.0313,256.7813 Q259.3594,256.7813 259.6094,257.0469 Q259.875,257.2969 259.875,257.6406 Q259.875,257.9844 259.5313,258.3906 Q259.0313,258.9688 258.2344,259.2969 Q257.1563,259.75 255.8594,259.75 Q254.3438,259.75 253.1406,259.125 Q252.1563,258.625 251.4688,257.5625 Q250.7813,256.4844 250.7813,255.2031 L250.7813,254.0469 Q250.7813,252.7188 251.3906,251.5781 Q252.0156,250.4219 253.1094,249.8125 Q254.2031,249.1875 255.4375,249.1875 Q256.1719,249.1875 256.8125,249.3594 Q257.4688,249.5156 258.0156,249.875 Z " fill="#000000"/><text fill="#000000" font-family="sans-serif" font-size="14" lengthAdjust="spacing" textLength="56" x="275.75" y="259.7285">Buchung</text><line style="stroke:#181818;stroke-width:0.5;" x1="84" x2="491" y1="270" y2="270"/><rect fill="none" height="6" style="stroke:#C82930;stroke-width:1.0;" width="6" x="91" y="281.3047"/><text fill="#000000" font-family="sans-serif" font-size="14" lengthAdjust="spacing" textLength="131" x="103" y="288.5332">ausleihDatum: String</text><rect fill="none" height="6" style="stroke:#C82930;stroke-width:1.0;" width="6" x="91" y="298.9141"/><text fill="#000000" font-family="sans-serif" font-size="14" lengthAdjust="spacing" textLength="87" x="103" y="306.1426">uhrzeit: String</text><rect fill="none" height="6" style="stroke:#C82930;stroke-width:1.0;" width="6" x="91" y="316.5234"/><text fill="#000000" font-family="sans-serif" font-size="14" lengthAdjust="spacing" textLength="83" x="103" y="323.752">fahrer: String</text><line style="stroke:#181818;stroke-width:1.0;" x1="84" x2="491" y1="330.8281" y2="330.8281"/><ellipse cx="94" cy="345.1328" fill="#84BE84" rx="3" ry="3" style="stroke:#038048;stroke-width:1.0;"/><text fill="#000000" font-family="sans-serif" font-size="14" lengthAdjust="spacing" textLength="383" x="103" y="349.3613">Buchung(ausleihDatum: String, uhrzeit: String, fahrer: String)</text><ellipse cx="94" cy="362.7422" fill="#84BE84" rx="3" ry="3" style="stroke:#038048;stroke-width:1.0;"/><text fill="#000000" font-family="sans-serif" font-size="14" lengthAdjust="spacing" textLength="162" x="103" y="366.9707">getAusleihDatum(): String</text><ellipse cx="94" cy="380.3516" fill="#84BE84" rx="3" ry="3" style="stroke:#038048;stroke-width:1.0;"/><text fill="#000000" font-family="sans-serif" font-size="14" lengthAdjust="spacing" textLength="118" x="103" y="384.5801">getUhrzeit(): String</text><ellipse cx="94" cy="397.9609" fill="#84BE84" rx="3" ry="3" style="stroke:#038048;stroke-width:1.0;"/><text fill="#000000" font-family="sans-serif" font-size="14" lengthAdjust="spacing" textLength="114" x="103" y="402.1895">getFahrer():String</text></g><!--MD5=[2f2e48a15d04ea86d33e095aa0bca42a]
class Pkw--><g id="elem_Pkw"><rect codeLine="12" fill="#F1F1F1" height="171.2656" id="Pkw" rx="2.5" ry="2.5" style="stroke:#181818;stroke-width:0.5;" width="561" x="7" y="7"/><ellipse cx="270.75" cy="23" fill="#ADD1B2" rx="11" ry="11" style="stroke:#181818;stroke-width:1.0;"/><path d="M273.5156,18.875 Q273.6719,18.6563 273.8594,18.5469 Q274.0469,18.4375 274.2656,18.4375 Q274.6406,18.4375 274.875,18.7031 Q275.1094,18.9531 275.1094,19.5625 L275.1094,21.0156 Q275.1094,21.625 274.875,21.8906 Q274.6406,22.1563 274.2656,22.1563 Q273.9219,22.1563 273.7188,21.9531 Q273.5156,21.7656 273.4063,21.25 Q273.3594,20.8906 273.1719,20.7031 Q272.8438,20.3281 272.2344,20.1094 Q271.625,19.8906 271,19.8906 Q270.2344,19.8906 269.5938,20.2188 Q268.9688,20.5469 268.4688,21.2969 Q267.9844,22.0469 267.9844,23.0781 L267.9844,24.1719 Q267.9844,25.4063 268.875,26.2344 Q269.7656,27.0469 271.3594,27.0469 Q272.2969,27.0469 272.9531,26.7969 Q273.3438,26.6406 273.7656,26.2031 Q274.0313,25.9375 274.1719,25.8594 Q274.3281,25.7813 274.5313,25.7813 Q274.8594,25.7813 275.1094,26.0469 Q275.375,26.2969 275.375,26.6406 Q275.375,26.9844 275.0313,27.3906 Q274.5313,27.9688 273.7344,28.2969 Q272.6563,28.75 271.3594,28.75 Q269.8438,28.75 268.6406,28.125 Q267.6563,27.625 266.9688,26.5625 Q266.2813,25.4844 266.2813,24.2031 L266.2813,23.0469 Q266.2813,21.7188 266.8906,20.5781 Q267.5156,19.4219 268.6094,18.8125 Q269.7031,18.1875 270.9375,18.1875 Q271.6719,18.1875 272.3125,18.3594 Q272.9688,18.5156 273.5156,18.875 Z " fill="#000000"/><text fill="#000000" font-family="sans-serif" font-size="14" lengthAdjust="spacing" textLength="25" x="291.25" y="28.7285">Pkw</text><line style="stroke:#181818;stroke-width:0.5;" x1="8" x2="567" y1="39" y2="39"/><rect fill="none" height="6" style="stroke:#C82930;stroke-width:1.0;" width="6" x="15" y="50.3047"/><text fill="#000000" font-family="sans-serif" font-size="14" lengthAdjust="spacing" textLength="82" x="27" y="57.5332">kategorie: int</text><rect fill="none" height="6" style="stroke:#C82930;stroke-width:1.0;" width="6" x="15" y="67.9141"/><text fill="#000000" font-family="sans-serif" font-size="14" lengthAdjust="spacing" textLength="86" x="27" y="75.1426">modell: String</text><rect fill="none" height="6" style="stroke:#C82930;stroke-width:1.0;" width="6" x="15" y="85.5234"/><text fill="#000000" font-family="sans-serif" font-size="14" lengthAdjust="spacing" textLength="78" x="27" y="92.752">farbe: String</text><rect fill="none" height="6" style="stroke:#C82930;stroke-width:1.0;" width="6" x="15" y="103.1328"/><text fill="#000000" font-family="sans-serif" font-size="14" lengthAdjust="spacing" textLength="137" x="27" y="110.3613">ertzulassungsJahr: int</text><rect fill="none" height="6" style="stroke:#C82930;stroke-width:1.0;" width="6" x="15" y="120.7422"/><text fill="#000000" font-family="sans-serif" font-size="14" lengthAdjust="spacing" textLength="78" x="27" y="127.9707">kmStand: int</text><line style="stroke:#181818;stroke-width:1.0;" x1="8" x2="567" y1="135.0469" y2="135.0469"/><ellipse cx="18" cy="149.3516" fill="#84BE84" rx="3" ry="3" style="stroke:#038048;stroke-width:1.0;"/><text fill="#000000" font-family="sans-serif" font-size="14" lengthAdjust="spacing" textLength="535" x="27" y="153.5801">Pkw(kategorie: int, modell: String, farbe: String, erstzulassungsJahr: int, kmStand: int)</text><ellipse cx="18" cy="166.9609" fill="#84BE84" rx="3" ry="3" style="stroke:#038048;stroke-width:1.0;"/><text fill="#000000" font-family="sans-serif" font-size="14" lengthAdjust="spacing" textLength="490" x="27" y="171.1895">mieten(ausleihDatum: String, uhrzeit: String, fahrer: String, kmStand: int): bool</text></g><!--MD5=[976893f4964cb6086815ff5895a60cfb]
reverse link Pkw to Buchung--><g id="link_Pkw_Buchung"><path codeLine="23" d="M287.5,191.53 C287.5,206.95 287.5,222.77 287.5,237.85 " fill="none" id="Pkw-backto-Buchung" style="stroke:#181818;stroke-width:1.0;"/><polygon fill="#181818" points="287.5,178.12,283.5,184.12,287.5,190.12,291.5,184.12,287.5,178.12" style="stroke:#181818;stroke-width:1.0;"/><text fill="#000000" font-family="sans-serif" font-size="13" lengthAdjust="spacing" textLength="107" x="175.7352" y="227.0082">- buchungen[] 0...*</text></g><!--MD5=[ccb0e8027304915d2d6c3c34ced7194a]
@startuml
class Buchung {
  - ausleihDatum: String 
  - uhrzeit: String 
  - fahrer: String
  - -
  + Buchung(ausleihDatum: String, uhrzeit: String, fahrer: String)            
  + getAusleihDatum(): String
  + getUhrzeit(): String
  + getFahrer():String
}

class Pkw{
  - kategorie: int
  - modell: String
  - farbe: String
  - ertzulassungsJahr: int
  - kmStand: int
  - -
  + Pkw(kategorie: int, modell: String, farbe: String, erstzulassungsJahr: int, kmStand: int)
  + mieten(ausleihDatum: String, uhrzeit: String, fahrer: String, kmStand: int): bool
}

Pkw *- - "- buchungen[] 0...*" Buchung
@enduml

PlantUML version 1.2022.7(Mon Aug 22 19:01:30 CEST 2022)
(GPL source distribution)
Java Runtime: OpenJDK Runtime Environment
JVM: OpenJDK 64-Bit Server VM
Default Encoding: UTF-8
Language: de
Country: DE
--></g></svg>