<svg xmlns="http://www.w3.org/2000/svg" xmlns:xlink="http://www.w3.org/1999/xlink" contentStyleType="text/css" height="273px" preserveAspectRatio="none" style="width:925px;height:273px;background:#FFFFFF;" version="1.1" viewBox="0 0 925 273" width="925px" zoomAndPan="magnify"><defs/><g><g id="cluster_##12"><path d="M435.5272,86.126 C438.5563,79.0377 446.115,78.413 450.7139,84.2868 C454.082,78.5675 458.8823,77.0964 463.3165,83.145 C464.911,75.6315 471.1004,74.5118 475.8671,80.1081 C480.0516,71.446 487.0764,72.8375 491.5427,79.8259 C494.8023,73.3424 501.1134,73.6592 505.146,78.9314 C508.3303,71.8065 514.2233,72.6341 518.4884,77.7538 C522.3119,71.8458 526.6183,71.5473 530.3631,77.8304 C535.4197,72.9859 540.9225,72.9465 544.0997,80.0001 C549.4686,73.3953 553.7557,73.9218 558.0222,81.1127 C562.9122,75.6271 568.2628,74.8964 571.7511,82.5745 C575.6731,76.8142 580.1529,77.231 584.1071,82.5385 C595.0935,75.6151 600.8718,79.1643 604.35,90.75 C605.9642,90.34 606.7854,91.1641 606.6366,92.7599 C612.5184,96.0983 614.0243,101.577 607.5047,105.7445 C612.5876,109.4242 613.2617,114.3678 607.5286,118.0686 C613.8735,121.6998 613.5195,125.5821 608.1608,129.8418 C614.9359,132.9961 614.9491,139.065 608.572,142.6418 C614.8351,145.8214 615.0681,152.0613 609.8341,156.303 C617.0583,158.366 617.7768,165.1276 612.7046,169.8049 C617.8908,174.6585 617.4863,179.3424 610.5822,182.1109 C615.956,186.4888 614.2532,191.6691 608.5905,194.2338 C614.8166,198.3091 614.3192,205.0343 607.5216,208.1061 C614.2487,211.155 614.5057,217.7665 608.5328,221.7562 C613.397,226.1236 612.5589,231.6558 605.8487,233.3418 C612.3213,243.4221 610.4842,251.2442 597.35,252.73 C597.8796,252.9272 598.1349,253.3623 597.6169,253.8168 C594.4254,261.0182 588.9665,261.2389 583.9859,255.7363 C580.5491,263.1433 573.8242,263.1126 570.3794,255.7437 C567.7551,260.9425 562.3066,261.5906 558.9137,256.6094 C555.3258,263.1626 550.4903,263.3794 545.6132,258.0528 C542.0223,265.4443 534.9347,265.5299 530.3367,259.1717 C526.1289,266.6762 520.4953,265.3505 516.4304,259.028 C512.8709,263.7743 507.3019,264.8593 504.3871,258.3389 C499.419,264.9842 495.2547,264.7152 491.3641,257.3382 C486.3274,263.2033 481.9336,264.1632 477.8218,256.4179 C472.664,264.4488 468.033,264.1873 463.0235,256.2802 C458.872,261.9184 452.3776,261.0498 449.802,254.562 C440.3615,261.424 429.5407,258.906 428.35,245.73 C429.4855,246.2716 429.5684,247.3534 428.4787,248.0201 C422.9793,243.5837 422.2133,239.2707 428.6204,234.9634 C421.7982,231.9457 420.4354,225.9218 426.7334,221.1162 C420.8746,218.3805 419.1976,212.8315 424.4212,208.1234 C418.5539,204.2313 418.2814,199.8599 423.1885,194.9589 C416.6896,191.8195 416.0717,187.7375 420.5491,182.308 C414.5166,178.0045 415.577,173.7989 420.8421,169.7593 C414.6801,164.6525 416.3023,160.1684 422.3903,156.491 C416.4529,153.6293 416.1317,147.7416 421.7924,144.3107 C416.3946,138.6609 416.5338,131.4869 425.5895,129.5569 C420.5346,125.4165 420.5779,120.8136 426.86,117.9099 C421.7381,113.5755 420.9599,109.3273 427.593,105.6986 C419.7572,94.3818 422.8272,87.8717 435.35,83.75 C436.3655,84.4511 436.4691,85.2789 435.5272,86.126 " fill="none" style="stroke:#181818;stroke-width:1;"/></g><!--entity internet Knoten 1--><g id="elem_internet Knoten 1"><rect fill="#F1F1F1" height="46.4883" rx="2.5" ry="2.5" style="stroke:#181818;stroke-width:0.5;" width="159.0889" x="436.81" y="91.75"/><rect fill="#F1F1F1" height="10" style="stroke:#181818;stroke-width:0.5;" width="15" x="575.8989" y="96.75"/><rect fill="#F1F1F1" height="2" style="stroke:#181818;stroke-width:0.5;" width="4" x="573.8989" y="98.75"/><rect fill="#F1F1F1" height="2" style="stroke:#181818;stroke-width:0.5;" width="4" x="573.8989" y="102.75"/><text fill="#000000" font-family="sans-serif" font-size="14" lengthAdjust="spacing" textLength="119.0889" x="451.81" y="125.2852">internet Knoten 1</text></g><!--entity internet Knoten 2--><g id="elem_internet Knoten 2"><rect fill="#F1F1F1" height="46.4883" rx="2.5" ry="2.5" style="stroke:#181818;stroke-width:0.5;" width="159.0889" x="436.81" y="198.24"/><rect fill="#F1F1F1" height="10" style="stroke:#181818;stroke-width:0.5;" width="15" x="575.8989" y="203.24"/><rect fill="#F1F1F1" height="2" style="stroke:#181818;stroke-width:0.5;" width="4" x="573.8989" y="205.24"/><rect fill="#F1F1F1" height="2" style="stroke:#181818;stroke-width:0.5;" width="4" x="573.8989" y="209.24"/><text fill="#000000" font-family="sans-serif" font-size="14" lengthAdjust="spacing" textLength="119.0889" x="451.81" y="231.7752">internet Knoten 2</text></g><!--entity PC 1--><g id="elem_PC 1"><rect fill="#F1F1F1" height="46.4883" rx="2.5" ry="2.5" style="stroke:#181818;stroke-width:0.5;" width="70.707" x="7" y="91.75"/><rect fill="#F1F1F1" height="10" style="stroke:#181818;stroke-width:0.5;" width="15" x="57.707" y="96.75"/><rect fill="#F1F1F1" height="2" style="stroke:#181818;stroke-width:0.5;" width="4" x="55.707" y="98.75"/><rect fill="#F1F1F1" height="2" style="stroke:#181818;stroke-width:0.5;" width="4" x="55.707" y="102.75"/><text fill="#000000" font-family="sans-serif" font-size="14" lengthAdjust="spacing" textLength="30.707" x="22" y="125.2852">PC 1</text></g><!--entity PC 2--><g id="elem_PC 2"><rect fill="#F1F1F1" height="46.4883" rx="2.5" ry="2.5" style="stroke:#181818;stroke-width:0.5;" width="70.707" x="113" y="91.75"/><rect fill="#F1F1F1" height="10" style="stroke:#181818;stroke-width:0.5;" width="15" x="163.707" y="96.75"/><rect fill="#F1F1F1" height="2" style="stroke:#181818;stroke-width:0.5;" width="4" x="161.707" y="98.75"/><rect fill="#F1F1F1" height="2" style="stroke:#181818;stroke-width:0.5;" width="4" x="161.707" y="102.75"/><text fill="#000000" font-family="sans-serif" font-size="14" lengthAdjust="spacing" textLength="30.707" x="128" y="125.2852">PC 2</text></g><!--entity PC 3--><g id="elem_PC 3"><rect fill="#F1F1F1" height="46.4883" rx="2.5" ry="2.5" style="stroke:#181818;stroke-width:0.5;" width="70.707" x="219" y="91.75"/><rect fill="#F1F1F1" height="10" style="stroke:#181818;stroke-width:0.5;" width="15" x="269.707" y="96.75"/><rect fill="#F1F1F1" height="2" style="stroke:#181818;stroke-width:0.5;" width="4" x="267.707" y="98.75"/><rect fill="#F1F1F1" height="2" style="stroke:#181818;stroke-width:0.5;" width="4" x="267.707" y="102.75"/><text fill="#000000" font-family="sans-serif" font-size="14" lengthAdjust="spacing" textLength="30.707" x="234" y="125.2852">PC 3</text></g><!--entity Lan 1--><g id="elem_Lan 1"><rect fill="#F1F1F1" height="46.4883" rx="2.5" ry="2.5" style="stroke:#181818;stroke-width:0.5;" width="77.167" x="324.77" y="91.75"/><rect fill="#F1F1F1" height="10" style="stroke:#181818;stroke-width:0.5;" width="15" x="381.937" y="96.75"/><rect fill="#F1F1F1" height="2" style="stroke:#181818;stroke-width:0.5;" width="4" x="379.937" y="98.75"/><rect fill="#F1F1F1" height="2" style="stroke:#181818;stroke-width:0.5;" width="4" x="379.937" y="102.75"/><text fill="#000000" font-family="sans-serif" font-size="14" lengthAdjust="spacing" textLength="37.167" x="339.77" y="125.2852">Lan 1</text></g><!--entity Lan 2--><g id="elem_Lan 2"><rect fill="#F1F1F1" height="46.4883" rx="2.5" ry="2.5" style="stroke:#181818;stroke-width:0.5;" width="77.167" x="630.77" y="198.24"/><rect fill="#F1F1F1" height="10" style="stroke:#181818;stroke-width:0.5;" width="15" x="687.937" y="203.24"/><rect fill="#F1F1F1" height="2" style="stroke:#181818;stroke-width:0.5;" width="4" x="685.937" y="205.24"/><rect fill="#F1F1F1" height="2" style="stroke:#181818;stroke-width:0.5;" width="4" x="685.937" y="209.24"/><text fill="#000000" font-family="sans-serif" font-size="14" lengthAdjust="spacing" textLength="37.167" x="645.77" y="231.7752">Lan 2</text></g><!--entity PC 4--><g id="elem_PC 4"><rect fill="#F1F1F1" height="46.4883" rx="2.5" ry="2.5" style="stroke:#181818;stroke-width:0.5;" width="70.707" x="849" y="198.24"/><rect fill="#F1F1F1" height="10" style="stroke:#181818;stroke-width:0.5;" width="15" x="899.707" y="203.24"/><rect fill="#F1F1F1" height="2" style="stroke:#181818;stroke-width:0.5;" width="4" x="897.707" y="205.24"/><rect fill="#F1F1F1" height="2" style="stroke:#181818;stroke-width:0.5;" width="4" x="897.707" y="209.24"/><text fill="#000000" font-family="sans-serif" font-size="14" lengthAdjust="spacing" textLength="30.707" x="864" y="231.7752">PC 4</text></g><!--entity PC 5--><g id="elem_PC 5"><rect fill="#F1F1F1" height="46.4883" rx="2.5" ry="2.5" style="stroke:#181818;stroke-width:0.5;" width="70.707" x="743" y="198.24"/><rect fill="#F1F1F1" height="10" style="stroke:#181818;stroke-width:0.5;" width="15" x="793.707" y="203.24"/><rect fill="#F1F1F1" height="2" style="stroke:#181818;stroke-width:0.5;" width="4" x="791.707" y="205.24"/><rect fill="#F1F1F1" height="2" style="stroke:#181818;stroke-width:0.5;" width="4" x="791.707" y="209.24"/><text fill="#000000" font-family="sans-serif" font-size="14" lengthAdjust="spacing" textLength="30.707" x="758" y="231.7752">PC 5</text></g><!--link PC 1 to Lan 1--><g id="link_PC 1_Lan 1"><path d="M56.03,91.52 C68.28,73.05 88.1,48.67 112.85,37.75 C184.83,6 217.55,6.75 289.85,37.75 C315.2,48.62 335.94,73.01 348.85,91.49 " fill="none" id="PC 1-Lan 1" style="stroke:#181818;stroke-width:1;"/></g><!--link PC 2 to Lan 1--><g id="link_PC 2_Lan 1"><path d="M162.03,91.52 C174.28,73.05 194.1,48.67 218.85,37.75 C247.72,25.02 260.85,25.32 289.85,37.75 C315.2,48.62 335.94,73.01 348.85,91.49 " fill="none" id="PC 2-Lan 1" style="stroke:#181818;stroke-width:1;"/></g><!--link PC 3 to Lan 1--><g id="link_PC 3_Lan 1"><path d="M290.12,115 C301.56,115 313,115 324.45,115 " fill="none" id="PC 3-Lan 1" style="stroke:#181818;stroke-width:1;"/></g><!--link internet Knoten 1 to internet Knoten 2--><g id="link_internet Knoten 1_internet Knoten 2"><path d="M516.35,138.67 C516.35,156.2 516.35,180.34 516.35,197.86 " fill="none" id="internet Knoten 1-internet Knoten 2" style="stroke:#181818;stroke-width:1;"/></g><!--link Lan 1 to internet Knoten 1--><g id="link_Lan 1_internet Knoten 1"><path d="M402.2,115 C413.65,115 425.09,115 436.54,115 " fill="none" id="Lan 1-internet Knoten 1" style="stroke:#181818;stroke-width:1;"/></g><!--link internet Knoten 2 to Lan 2--><g id="link_internet Knoten 2_Lan 2"><path d="M596.14,221.49 C607.58,221.49 619.02,221.49 630.46,221.49 " fill="none" id="internet Knoten 2-Lan 2" style="stroke:#181818;stroke-width:1;"/></g><!--link Lan 2 to PC 4--><g id="link_Lan 2_PC 4"><path d="M693.65,197.87 C707.02,186.54 724.57,174.17 742.85,168.24 C772.87,158.51 783.93,158.21 813.85,168.24 C831.6,174.19 848.44,186.56 861.21,197.88 " fill="none" id="Lan 2-PC 4" style="stroke:#181818;stroke-width:1;"/></g><!--link Lan 2 to PC 5--><g id="link_Lan 2_PC 5"><path d="M708.1,221.49 C719.63,221.49 731.15,221.49 742.68,221.49 " fill="none" id="Lan 2-PC 5" style="stroke:#181818;stroke-width:1;"/></g><!--SRC=[YmvmLZ2CvOe6KaOGoXX8-IJcWKL1D5JO14APGYZ3M0LT1RWoi6Oq0MDa0QxadFpI58LghkZCl9BKehpK4WNllFoIr3omGK1rwC90IxbgOUvGmA80P0kc9fYLHd2tWqIWhaSH0Fg32m00]--></g></svg>