<svg xmlns="http://www.w3.org/2000/svg" xmlns:xlink="http://www.w3.org/1999/xlink" contentStyleType="text/css" height="290px" preserveAspectRatio="none" style="width:682px;height:290px;background:#FFFFFF;" version="1.1" viewBox="0 0 682 290" width="682px" zoomAndPan="magnify"><defs/><g><!--entity 10.1.1.0/24--><g id="elem_10.1.1.0/24"><path d="M551.6527,16.7563 C555.0369,10.4752 559.4773,10.6399 564.1164,15.3307 C567.0899,8.8845 571.5724,7.4763 576.3487,13.5726 C579.9556,6.7066 585.3627,7.3342 588.9063,13.633 C592.3942,8.2626 596.7788,7.8034 601.1585,12.5534 C604.5018,7.6831 609.415,7.73 611.5443,13.7149 C615.5734,8.0562 621.5536,9.3559 623.7738,15.5771 C627.9199,9.8805 633.4419,8.7765 637.5103,15.6619 C640.4374,11.7646 645.2217,11.2457 647.5409,16.3401 C657.1593,16.4304 661.0696,23.0608 656.3411,31.4866 C661.3019,40.4346 656.932,44.2794 648.3955,45.6617 C646.106,51.7613 640.8138,51.4466 637.1273,47.1803 C634.4743,52.2162 628.8998,52.7566 625.3685,48.2642 C621.3116,54.8658 616.8354,53.7549 612.6927,48.3549 C608.7118,55.4217 602.9365,54.4892 599.3035,48.011 C595.3905,53.3228 591.7973,53.2623 587.6583,48.2661 C583.1654,53.4804 577.9355,53.3745 575.0252,46.5986 C572.3311,51.9428 567.6335,52.4289 563.9674,47.6616 C559.2879,53.9085 553.95,53.2554 550.9587,46.0313 C542.9497,43.4412 542.7085,36.3286 549.0261,31.7937 C542.3176,25.3717 544.2207,20.7084 551.6527,16.7563 " fill="#F1F1F1" style="stroke:#181818;stroke-width:0.5;"/><text fill="#000000" font-family="sans-serif" font-size="14" lengthAdjust="spacing" textLength="82.5986" x="557.81" y="35.5352">10.1.1.0/24</text></g><!--entity Router Remote--><g id="elem_Router Remote"><rect fill="#F1F1F1" height="46.4883" rx="2.5" ry="2.5" style="stroke:#181818;stroke-width:0.5;" width="140.6934" x="205.76" y="7"/><rect fill="#F1F1F1" height="10" style="stroke:#181818;stroke-width:0.5;" width="15" x="326.4534" y="12"/><rect fill="#F1F1F1" height="2" style="stroke:#181818;stroke-width:0.5;" width="4" x="324.4534" y="14"/><rect fill="#F1F1F1" height="2" style="stroke:#181818;stroke-width:0.5;" width="4" x="324.4534" y="18"/><text fill="#000000" font-family="sans-serif" font-size="14" lengthAdjust="spacing" textLength="100.6934" x="220.76" y="40.5352">Router Remote</text></g><!--entity Router HQ--><g id="elem_Router HQ"><rect fill="#F1F1F1" height="46.4883" rx="2.5" ry="2.5" style="stroke:#181818;stroke-width:0.5;" width="110.499" x="396.86" y="7"/><rect fill="#F1F1F1" height="10" style="stroke:#181818;stroke-width:0.5;" width="15" x="487.359" y="12"/><rect fill="#F1F1F1" height="2" style="stroke:#181818;stroke-width:0.5;" width="4" x="485.359" y="14"/><rect fill="#F1F1F1" height="2" style="stroke:#181818;stroke-width:0.5;" width="4" x="485.359" y="18"/><text fill="#000000" font-family="sans-serif" font-size="14" lengthAdjust="spacing" textLength="70.499" x="411.86" y="40.5352">Router HQ</text></g><!--entity Switch Remote-1--><g id="elem_Switch Remote-1"><rect fill="#F1F1F1" height="46.4883" rx="2.5" ry="2.5" style="stroke:#181818;stroke-width:0.5;" width="156.2109" x="7" y="114.48"/><rect fill="#F1F1F1" height="10" style="stroke:#181818;stroke-width:0.5;" width="15" x="143.2109" y="119.48"/><rect fill="#F1F1F1" height="2" style="stroke:#181818;stroke-width:0.5;" width="4" x="141.2109" y="121.48"/><rect fill="#F1F1F1" height="2" style="stroke:#181818;stroke-width:0.5;" width="4" x="141.2109" y="125.48"/><text fill="#000000" font-family="sans-serif" font-size="14" lengthAdjust="spacing" textLength="116.2109" x="22" y="148.0152">Switch Remote-1</text></g><!--entity Switch Remote-2--><g id="elem_Switch Remote-2"><rect fill="#F1F1F1" height="46.4883" rx="2.5" ry="2.5" style="stroke:#181818;stroke-width:0.5;" width="156.2109" x="198" y="114.48"/><rect fill="#F1F1F1" height="10" style="stroke:#181818;stroke-width:0.5;" width="15" x="334.2109" y="119.48"/><rect fill="#F1F1F1" height="2" style="stroke:#181818;stroke-width:0.5;" width="4" x="332.2109" y="121.48"/><rect fill="#F1F1F1" height="2" style="stroke:#181818;stroke-width:0.5;" width="4" x="332.2109" y="125.48"/><text fill="#000000" font-family="sans-serif" font-size="14" lengthAdjust="spacing" textLength="116.2109" x="213" y="148.0152">Switch Remote-2</text></g><!--entity PC: WS203--><g id="elem_PC: WS203"><rect fill="#F1F1F1" height="46.4883" rx="2.5" ry="2.5" style="stroke:#181818;stroke-width:0.5;" width="112.3584" x="28.93" y="237.97"/><rect fill="#F1F1F1" height="10" style="stroke:#181818;stroke-width:0.5;" width="15" x="121.2884" y="242.97"/><rect fill="#F1F1F1" height="2" style="stroke:#181818;stroke-width:0.5;" width="4" x="119.2884" y="244.97"/><rect fill="#F1F1F1" height="2" style="stroke:#181818;stroke-width:0.5;" width="4" x="119.2884" y="248.97"/><text fill="#000000" font-family="sans-serif" font-size="14" lengthAdjust="spacing" textLength="72.3584" x="43.93" y="271.5052">PC: WS203</text></g><!--entity PC: WS234--><g id="elem_PC: WS234"><rect fill="#F1F1F1" height="46.4883" rx="2.5" ry="2.5" style="stroke:#181818;stroke-width:0.5;" width="112.3584" x="219.93" y="237.97"/><rect fill="#F1F1F1" height="10" style="stroke:#181818;stroke-width:0.5;" width="15" x="312.2884" y="242.97"/><rect fill="#F1F1F1" height="2" style="stroke:#181818;stroke-width:0.5;" width="4" x="310.2884" y="244.97"/><rect fill="#F1F1F1" height="2" style="stroke:#181818;stroke-width:0.5;" width="4" x="310.2884" y="248.97"/><text fill="#000000" font-family="sans-serif" font-size="14" lengthAdjust="spacing" textLength="72.3584" x="234.93" y="271.5052">PC: WS234</text></g><!--entity Switch HQ-1--><g id="elem_Switch HQ-1"><rect fill="#F1F1F1" height="46.4883" rx="2.5" ry="2.5" style="stroke:#181818;stroke-width:0.5;" width="126.0166" x="389.1" y="114.48"/><rect fill="#F1F1F1" height="10" style="stroke:#181818;stroke-width:0.5;" width="15" x="495.1166" y="119.48"/><rect fill="#F1F1F1" height="2" style="stroke:#181818;stroke-width:0.5;" width="4" x="493.1166" y="121.48"/><rect fill="#F1F1F1" height="2" style="stroke:#181818;stroke-width:0.5;" width="4" x="493.1166" y="125.48"/><text fill="#000000" font-family="sans-serif" font-size="14" lengthAdjust="spacing" textLength="86.0166" x="404.1" y="148.0152">Switch HQ-1</text></g><!--entity Switch HQ-2--><g id="elem_Switch HQ-2"><rect fill="#F1F1F1" height="46.4883" rx="2.5" ry="2.5" style="stroke:#181818;stroke-width:0.5;" width="126.0166" x="550.1" y="114.48"/><rect fill="#F1F1F1" height="10" style="stroke:#181818;stroke-width:0.5;" width="15" x="656.1166" y="119.48"/><rect fill="#F1F1F1" height="2" style="stroke:#181818;stroke-width:0.5;" width="4" x="654.1166" y="121.48"/><rect fill="#F1F1F1" height="2" style="stroke:#181818;stroke-width:0.5;" width="4" x="654.1166" y="125.48"/><text fill="#000000" font-family="sans-serif" font-size="14" lengthAdjust="spacing" textLength="86.0166" x="565.1" y="148.0152">Switch HQ-2</text></g><!--entity PC: WS116--><g id="elem_PC: WS116"><rect fill="#F1F1F1" height="46.4883" rx="2.5" ry="2.5" style="stroke:#181818;stroke-width:0.5;" width="112.3584" x="395.93" y="237.97"/><rect fill="#F1F1F1" height="10" style="stroke:#181818;stroke-width:0.5;" width="15" x="488.2884" y="242.97"/><rect fill="#F1F1F1" height="2" style="stroke:#181818;stroke-width:0.5;" width="4" x="486.2884" y="244.97"/><rect fill="#F1F1F1" height="2" style="stroke:#181818;stroke-width:0.5;" width="4" x="486.2884" y="248.97"/><text fill="#000000" font-family="sans-serif" font-size="14" lengthAdjust="spacing" textLength="72.3584" x="410.93" y="271.5052">PC: WS116</text></g><!--entity PC: WS145--><g id="elem_PC: WS145"><rect fill="#F1F1F1" height="46.4883" rx="2.5" ry="2.5" style="stroke:#181818;stroke-width:0.5;" width="112.3584" x="556.93" y="237.97"/><rect fill="#F1F1F1" height="10" style="stroke:#181818;stroke-width:0.5;" width="15" x="649.2884" y="242.97"/><rect fill="#F1F1F1" height="2" style="stroke:#181818;stroke-width:0.5;" width="4" x="647.2884" y="244.97"/><rect fill="#F1F1F1" height="2" style="stroke:#181818;stroke-width:0.5;" width="4" x="647.2884" y="248.97"/><text fill="#000000" font-family="sans-serif" font-size="14" lengthAdjust="spacing" textLength="72.3584" x="571.93" y="271.5052">PC: WS145</text></g><!--link Router Remote to Router HQ--><g id="link_Router Remote_Router HQ"><path d="M346.92,30.24 C363.49,30.24 380.06,30.24 396.64,30.24 " fill="none" id="Router Remote-Router HQ" style="stroke:#181818;stroke-width:1;"/></g><!--link Router Remote to Switch Remote-1--><g id="link_Router Remote_Switch Remote-1"><path d="M235.13,53.87 C202.9,71.67 158.22,96.35 126.01,114.14 " fill="none" id="Router Remote-Switch Remote-1" style="stroke:#181818;stroke-width:1;"/></g><!--link Router Remote to Switch Remote-2--><g id="link_Router Remote_Switch Remote-2"><path d="M276.11,53.87 C276.11,71.67 276.11,96.35 276.11,114.14 " fill="none" id="Router Remote-Switch Remote-2" style="stroke:#181818;stroke-width:1;"/></g><!--link Switch Remote-1 to PC: WS203--><g id="link_Switch Remote-1_PC: WS203"><path d="M85.11,161.29 C85.11,183.12 85.11,215.99 85.11,237.77 " fill="none" id="Switch Remote-1-PC: WS203" style="stroke:#181818;stroke-width:1;"/><text fill="#000000" font-family="sans-serif" font-size="13" lengthAdjust="spacing" textLength="47.9883" x="86.11" y="204.5384">5 Hosts</text></g><!--link Switch Remote-2 to PC: WS234--><g id="link_Switch Remote-2_PC: WS234"><path d="M276.11,161.29 C276.11,183.12 276.11,215.99 276.11,237.77 " fill="none" id="Switch Remote-2-PC: WS234" style="stroke:#181818;stroke-width:1;"/><text fill="#000000" font-family="sans-serif" font-size="13" lengthAdjust="spacing" textLength="56.2085" x="277.11" y="204.5384">47 Hosts</text></g><!--link Router HQ to Switch HQ-1--><g id="link_Router HQ_Switch HQ-1"><path d="M452.11,53.87 C452.11,71.67 452.11,96.35 452.11,114.14 " fill="none" id="Router HQ-Switch HQ-1" style="stroke:#181818;stroke-width:1;"/></g><!--link Router HQ to Switch HQ-2--><g id="link_Router HQ_Switch HQ-2"><path d="M486.64,53.87 C513.81,71.67 551.47,96.35 578.62,114.14 " fill="none" id="Router HQ-Switch HQ-2" style="stroke:#181818;stroke-width:1;"/></g><!--link Switch HQ-1 to PC: WS116--><g id="link_Switch HQ-1_PC: WS116"><path d="M452.11,161.29 C452.11,183.12 452.11,215.99 452.11,237.77 " fill="none" id="Switch HQ-1-PC: WS116" style="stroke:#181818;stroke-width:1;"/><text fill="#000000" font-family="sans-serif" font-size="13" lengthAdjust="spacing" textLength="56.2085" x="453.11" y="204.5384">11 Hosts</text></g><!--link Switch HQ-2 to PC: WS145--><g id="link_Switch HQ-2_PC: WS145"><path d="M613.11,161.29 C613.11,183.12 613.11,215.99 613.11,237.77 " fill="none" id="Switch HQ-2-PC: WS145" style="stroke:#181818;stroke-width:1;"/><text fill="#000000" font-family="sans-serif" font-size="13" lengthAdjust="spacing" textLength="56.2085" x="614.11" y="204.5384">28 Hosts</text></g><!--SRC=[Iyx9BqrHC3JGCmH20tqZ4uLghbekTNM_r9AgrABiWfp4F8MWrDpyabIkwA3yqfBK8YWtLa5N0IRY4HYBAGkK3YxFB4dEW0hf6XAZo0Ye25qRM5c0ivL2UB2HWN6ibOAfWaT-SKan5uPUP9N69a2L9kPGfUhg2Y0lbSFyv178XUHwP8Tu12Ax55CIoOLWfKXs6XgQ0UqqD4Hp7bWJiZ8JKw0o8mkeCW00]--></g></svg>