<svg xmlns="http://www.w3.org/2000/svg" xmlns:xlink="http://www.w3.org/1999/xlink" contentStyleType="text/css" height="183px" preserveAspectRatio="none" style="width:794px;height:183px;background:#FFFFFF;" version="1.1" viewBox="0 0 794 183" width="794px" zoomAndPan="magnify"><defs/><g><g id="cluster_##2"><path d="M15.9507,17.8381 C18.4746,12.7433 22.6065,12.4367 26.3173,16.4935 C28.1508,10.6346 32.6654,9.8679 36.2579,14.8858 C39.5416,9.9863 42.7851,8.1082 47.3008,13.5732 C49.7398,7.8434 54.1342,7.6774 58.0002,12.0639 C61.5047,6 66.3802,6.7006 69.7841,12.1668 C74.2753,6.2548 78.1154,8.0104 81.5695,13.2617 C84.8652,7.7927 89.6951,7.3026 93.0847,13.1663 C96.9918,9.4132 100.7515,11.1998 102.1698,15.8553 C105.5835,9.4368 110.7019,9.4602 114.6061,15.3602 C118.4104,10.8453 122.6536,11.9295 124.7492,17.1421 C133.9707,20.1737 133.9348,28.0218 127.1905,33.4444 C136.141,35.9133 137.7893,43.4863 130.2675,49.1769 C137.2531,53.7514 135.5831,59.6458 129.1547,63.1521 C135.3663,69.8204 133.7346,75.2585 125.696,78.7712 C123.1941,85.5633 119.0749,85.3575 114.0531,81.5355 C110.4911,86.0159 107.3081,87.1116 103.6545,81.6311 C101.3425,86.7183 95.7024,87.9274 92.0716,83.1851 C88.8005,88.6632 85.6087,89.7478 81.296,84.2034 C78.0157,88.7662 73.2263,89.5187 70.5055,83.6259 C65.9587,88.9241 61.4083,89.6619 57.9929,82.4906 C55.3829,87.6833 50.603,87.4954 48.2244,82.2735 C45.4401,87.0097 39.9234,87.1411 36.8403,82.6419 C32.298,87.2079 28.2044,87.2351 25.5572,80.7134 C22.3322,84.5776 18.2994,85.1151 15.5339,80.1893 C7.1993,76.0166 7.2966,70.0205 13.3722,63.9317 C6.3811,60.211 7.4335,53.4515 13.1849,49.5647 C6,43.5831 7.4436,38.9496 14.282,33.9535 C7.8789,28.1276 8.053,22.1831 15.9507,17.8381 " fill="none" style="stroke:#181818;stroke-width:1;"/></g><!--entity Internet--><g id="elem_Internet"><rect fill="#F1F1F1" height="46.4883" rx="2.5" ry="2.5" style="stroke:#181818;stroke-width:0.5;" width="93.2109" x="22.326" y="24.2032"/><rect fill="#F1F1F1" height="10" style="stroke:#181818;stroke-width:0.5;" width="15" x="95.5369" y="29.2032"/><rect fill="#F1F1F1" height="2" style="stroke:#181818;stroke-width:0.5;" width="4" x="93.5369" y="31.2032"/><rect fill="#F1F1F1" height="2" style="stroke:#181818;stroke-width:0.5;" width="4" x="93.5369" y="35.2032"/><text fill="#000000" font-family="sans-serif" font-size="14" lengthAdjust="spacing" textLength="53.2109" x="37.326" y="57.7383">Internet</text></g><!--entity Router 1--><g id="elem_Router 1"><rect fill="#F1F1F1" height="46.4883" rx="2.5" ry="2.5" style="stroke:#181818;stroke-width:0.5;" width="98.1875" x="150.846" y="24.2032"/><rect fill="#F1F1F1" height="10" style="stroke:#181818;stroke-width:0.5;" width="15" x="229.0335" y="29.2032"/><rect fill="#F1F1F1" height="2" style="stroke:#181818;stroke-width:0.5;" width="4" x="227.0335" y="31.2032"/><rect fill="#F1F1F1" height="2" style="stroke:#181818;stroke-width:0.5;" width="4" x="227.0335" y="35.2032"/><text fill="#000000" font-family="sans-serif" font-size="14" lengthAdjust="spacing" textLength="58.1875" x="165.846" y="57.7383">Router 1</text></g><!--entity Server--><g id="elem_Server"><rect fill="#F1F1F1" height="46.4883" rx="2.5" ry="2.5" style="stroke:#181818;stroke-width:0.5;" width="81.8428" x="150.016" y="130.6932"/><rect fill="#F1F1F1" height="10" style="stroke:#181818;stroke-width:0.5;" width="15" x="211.8587" y="135.6932"/><rect fill="#F1F1F1" height="2" style="stroke:#181818;stroke-width:0.5;" width="4" x="209.8587" y="137.6932"/><rect fill="#F1F1F1" height="2" style="stroke:#181818;stroke-width:0.5;" width="4" x="209.8587" y="141.6932"/><text fill="#000000" font-family="sans-serif" font-size="14" lengthAdjust="spacing" textLength="41.8428" x="165.016" y="164.2283">Server</text></g><!--entity Router 2--><g id="elem_Router 2"><rect fill="#F1F1F1" height="46.4883" rx="2.5" ry="2.5" style="stroke:#181818;stroke-width:0.5;" width="98.1875" x="291.846" y="24.2032"/><rect fill="#F1F1F1" height="10" style="stroke:#181818;stroke-width:0.5;" width="15" x="370.0335" y="29.2032"/><rect fill="#F1F1F1" height="2" style="stroke:#181818;stroke-width:0.5;" width="4" x="368.0335" y="31.2032"/><rect fill="#F1F1F1" height="2" style="stroke:#181818;stroke-width:0.5;" width="4" x="368.0335" y="35.2032"/><text fill="#000000" font-family="sans-serif" font-size="14" lengthAdjust="spacing" textLength="58.1875" x="306.846" y="57.7383">Router 2</text></g><!--entity Switch 1 20 PCs--><g id="elem_Switch 1 20 PCs"><rect fill="#F1F1F1" height="46.4883" rx="2.5" ry="2.5" style="stroke:#181818;stroke-width:0.5;" width="147.8779" x="266.996" y="130.6932"/><rect fill="#F1F1F1" height="10" style="stroke:#181818;stroke-width:0.5;" width="15" x="394.8739" y="135.6932"/><rect fill="#F1F1F1" height="2" style="stroke:#181818;stroke-width:0.5;" width="4" x="392.8739" y="137.6932"/><rect fill="#F1F1F1" height="2" style="stroke:#181818;stroke-width:0.5;" width="4" x="392.8739" y="141.6932"/><text fill="#000000" font-family="sans-serif" font-size="14" lengthAdjust="spacing" textLength="107.8779" x="281.996" y="164.2283">Switch 1 20 PCs</text></g><!--entity Router 3--><g id="elem_Router 3"><rect fill="#F1F1F1" height="46.4883" rx="2.5" ry="2.5" style="stroke:#181818;stroke-width:0.5;" width="98.1875" x="478.846" y="24.2032"/><rect fill="#F1F1F1" height="10" style="stroke:#181818;stroke-width:0.5;" width="15" x="557.0335" y="29.2032"/><rect fill="#F1F1F1" height="2" style="stroke:#181818;stroke-width:0.5;" width="4" x="555.0335" y="31.2032"/><rect fill="#F1F1F1" height="2" style="stroke:#181818;stroke-width:0.5;" width="4" x="555.0335" y="35.2032"/><text fill="#000000" font-family="sans-serif" font-size="14" lengthAdjust="spacing" textLength="58.1875" x="493.846" y="57.7383">Router 3</text></g><!--entity Switch 2 325 PCs--><g id="elem_Switch 2 325 PCs"><rect fill="#F1F1F1" height="46.4883" rx="2.5" ry="2.5" style="stroke:#181818;stroke-width:0.5;" width="156.7305" x="449.566" y="130.6932"/><rect fill="#F1F1F1" height="10" style="stroke:#181818;stroke-width:0.5;" width="15" x="586.2964" y="135.6932"/><rect fill="#F1F1F1" height="2" style="stroke:#181818;stroke-width:0.5;" width="4" x="584.2964" y="137.6932"/><rect fill="#F1F1F1" height="2" style="stroke:#181818;stroke-width:0.5;" width="4" x="584.2964" y="141.6932"/><text fill="#000000" font-family="sans-serif" font-size="14" lengthAdjust="spacing" textLength="116.7305" x="464.566" y="164.2283">Switch 2 325 PCs</text></g><!--entity Switch 3 62 PCs--><g id="elem_Switch 3 62 PCs"><rect fill="#F1F1F1" height="46.4883" rx="2.5" ry="2.5" style="stroke:#181818;stroke-width:0.5;" width="147.8779" x="640.996" y="130.6932"/><rect fill="#F1F1F1" height="10" style="stroke:#181818;stroke-width:0.5;" width="15" x="768.8739" y="135.6932"/><rect fill="#F1F1F1" height="2" style="stroke:#181818;stroke-width:0.5;" width="4" x="766.8739" y="137.6932"/><rect fill="#F1F1F1" height="2" style="stroke:#181818;stroke-width:0.5;" width="4" x="766.8739" y="141.6932"/><text fill="#000000" font-family="sans-serif" font-size="14" lengthAdjust="spacing" textLength="107.8779" x="655.996" y="164.2283">Switch 3 62 PCs</text></g><!--link Internet to Router 1--><g id="link_Internet_Router 1"><path d="M116.016,47.4532 C127.486,47.4532 138.966,47.4532 150.436,47.4532 " fill="none" id="Internet-Router 1" style="stroke:#181818;stroke-width:1;"/></g><!--link Router 1 to Server--><g id="link_Router 1_Server"><path d="M197.986,71.1232 C196.476,88.6532 194.396,112.7932 192.886,130.3132 " fill="none" id="Router 1-Server" style="stroke:#181818;stroke-width:1;"/></g><!--link Router 1 to Router 2--><g id="link_Router 1_Router 2"><path d="M249.506,47.4532 C263.556,47.4532 277.606,47.4532 291.646,47.4532 " fill="none" id="Router 1-Router 2" style="stroke:#181818;stroke-width:1;"/></g><!--link Router 2 to Switch 1 20 PCs--><g id="link_Router 2_Switch 1 20 PCs"><path d="M340.936,71.1232 C340.936,88.6532 340.936,112.7932 340.936,130.3132 " fill="none" id="Router 2-Switch 1 20 PCs" style="stroke:#181818;stroke-width:1;"/></g><!--link Router 2 to Router 3--><g id="link_Router 2_Router 3"><path d="M390.246,47.4532 C419.646,47.4532 449.046,47.4532 478.456,47.4532 " fill="none" id="Router 2-Router 3" style="stroke:#181818;stroke-width:1;"/></g><!--link Router 3 to Switch 2 325 PCs--><g id="link_Router 3_Switch 2 325 PCs"><path d="M527.936,71.1232 C527.936,88.6532 527.936,112.7932 527.936,130.3132 " fill="none" id="Router 3-Switch 2 325 PCs" style="stroke:#181818;stroke-width:1;"/></g><!--link Router 3 to Switch 3 62 PCs--><g id="link_Router 3_Switch 3 62 PCs"><path d="M568.516,71.1232 C599.876,88.6532 643.096,112.7932 674.436,130.3132 " fill="none" id="Router 3-Switch 3 62 PCs" style="stroke:#181818;stroke-width:1;"/></g><!--SRC=[Iyx9BqrHgEQAzimhIItAIos9vQhbYWxABmNo50nZkQA3KulAKejYuM968B7op9Ba30L31IC3XG3dOeIaCKBIIC7Oo1Gg2nKoLZ0pWeXmgIk4fHObPUQbbEQbf-OXsQwWgu1iEvofe0kKG7UB8R9o8sGtGfJZSgOHiZvZPESZwqFs0LO5SFy00000]--></g></svg>