<svg xmlns="http://www.w3.org/2000/svg" xmlns:xlink="http://www.w3.org/1999/xlink" contentStyleType="text/css" height="225px" preserveAspectRatio="none" style="width:1926px;height:225px;background:#FFFFFF;" version="1.1" viewBox="0 0 1926 225" width="1926px" zoomAndPan="magnify"><defs/><g><g id="cluster_##2"><path d="M16.4424,22.7045 C19.1762,15.7143 24.0576,14.7615 29.5795,19.6107 C35.5281,11.3906 42.0622,10.8031 47.7249,19.9101 C51.1291,12.4993 57.6538,11.8089 61.8609,19.1403 C65.7929,10.0645 72.978,10.5967 78.589,17.3679 C83.6493,8.9415 88.8008,7.3745 95.6482,15.5293 C98.6573,8.651 105.9889,7.1687 110.6695,13.6499 C116.241,6 123.0283,6.9646 126.7653,15.477 C130.8384,7.3219 137.8979,7.361 142.2291,15.2279 C146.4232,8.6645 152.5941,9.5941 156.5561,15.4947 C163.1892,6.5031 169.8664,7.8411 175.106,16.9247 C181.0136,9.1794 185.8285,11.1383 190.9359,17.8038 C195.377,11.1745 202.4382,11.3215 206.306,18.4445 C211.13,12.1072 218.0779,12.7166 221.3785,20.116 C225.5921,13.4742 232.0865,12.6118 236.2516,20.1668 C246.8346,21.9056 247.7769,30.5214 241.2476,37.2614 C248.871,41.8766 250.2689,46.9082 243.6568,53.62 C249.4848,59.9787 247.736,64.6853 239.8159,67.1375 C247.192,73.8244 245.469,79.2808 237.1568,83.4029 C232.927,90.0055 226.2841,92.3344 221.5044,83.9783 C217.0442,91.1128 211.6299,90.933 206.2911,85.0013 C201.8743,92.6002 196.2023,94.1288 190.8173,85.9509 C186.9017,93.4949 179.9274,94.3407 174.8462,87.2203 C170.855,94.5668 164.387,94.75 159.222,88.5768 C154.7421,97.0931 148.967,97.5411 143.2683,89.7705 C139.4249,99.4949 133.5632,100.8112 126.5734,92.7189 C121.2046,100.0959 113.8639,100.3902 109.2149,91.9299 C104.2694,99.1462 97.0584,97.0622 94.0344,89.901 C89.0906,96.7024 82.9092,93.9534 80.0806,87.649 C75.0753,94.2052 69.4542,96.4992 64.1218,87.9956 C59.6355,95.443 51.0659,95.8651 46.9706,87.5695 C40.9479,94.0172 35.918,94.8863 30.7611,86.616 C25.0739,94.8038 17.8066,92.716 14.186,84.5246 C6.5706,79.4611 8.6279,72.6978 15.7478,69.1291 C8.843,64.7321 8.6865,58.9354 15.2377,54.0822 C7.5853,49.2134 6,43.2435 14.244,37.4262 C8.2451,31.2689 7.9122,26.6921 16.4424,22.7045 " fill="none" style="stroke:#181818;stroke-width:1;"/></g><!--cluster DNS-Server--><g id="cluster_DNS-Server"><polygon fill="none" points="475.6851,124.6068,485.6851,114.6068,675.6851,114.6068,675.6851,198.9068,665.6851,208.9068,475.6851,208.9068,475.6851,124.6068" style="stroke:#181818;stroke-width:1;"/><line style="stroke:#181818;stroke-width:1;" x1="665.6851" x2="675.6851" y1="124.6068" y2="114.6068"/><line style="stroke:#181818;stroke-width:1;" x1="475.6851" x2="665.6851" y1="124.6068" y2="124.6068"/><line style="stroke:#181818;stroke-width:1;" x1="665.6851" x2="665.6851" y1="124.6068" y2="208.9068"/><text fill="#000000" font-family="sans-serif" font-size="14" font-weight="bold" lengthAdjust="spacing" textLength="84.2393" x="529.5655" y="141.142">DNS-Server</text></g><!--cluster Datei-Server--><g id="cluster_Datei-Server"><polygon fill="none" points="699.6851,124.6068,709.6851,114.6068,899.6851,114.6068,899.6851,198.9068,889.6851,208.9068,699.6851,208.9068,699.6851,124.6068" style="stroke:#181818;stroke-width:1;"/><line style="stroke:#181818;stroke-width:1;" x1="889.6851" x2="899.6851" y1="124.6068" y2="114.6068"/><line style="stroke:#181818;stroke-width:1;" x1="699.6851" x2="889.6851" y1="124.6068" y2="124.6068"/><line style="stroke:#181818;stroke-width:1;" x1="889.6851" x2="889.6851" y1="124.6068" y2="208.9068"/><text fill="#000000" font-family="sans-serif" font-size="14" font-weight="bold" lengthAdjust="spacing" textLength="92.1416" x="749.6143" y="141.142">Datei-Server</text></g><!--entity Internet Service Provider--><g id="elem_Internet Service Provider"><rect fill="#F1F1F1" height="46.4883" rx="2.5" ry="2.5" style="stroke:#181818;stroke-width:0.5;" width="205.1016" x="22.1351" y="28.1168"/><rect fill="#F1F1F1" height="10" style="stroke:#181818;stroke-width:0.5;" width="15" x="207.2367" y="33.1168"/><rect fill="#F1F1F1" height="2" style="stroke:#181818;stroke-width:0.5;" width="4" x="205.2367" y="35.1168"/><rect fill="#F1F1F1" height="2" style="stroke:#181818;stroke-width:0.5;" width="4" x="205.2367" y="39.1168"/><text fill="#000000" font-family="sans-serif" font-size="14" lengthAdjust="spacing" textLength="165.1016" x="37.1351" y="61.652">Internet Service Provider</text></g><g id="elem_192.168.0.21 / 24"><ellipse cx="575.6831" cy="173.7564" fill="#F1F1F1" rx="83.748" ry="19.1496" style="stroke:#181818;stroke-width:0.5;"/><text fill="#000000" font-family="sans-serif" font-size="14" lengthAdjust="spacing" textLength="126.8682" x="512.249" y="177.0474">192.168.0.21 / 24</text></g><g id="elem_192.168.0.22 / 24"><ellipse cx="799.6831" cy="173.7564" fill="#F1F1F1" rx="83.748" ry="19.1496" style="stroke:#181818;stroke-width:0.5;"/><text fill="#000000" font-family="sans-serif" font-size="14" lengthAdjust="spacing" textLength="126.8682" x="736.249" y="177.0474">192.168.0.22 / 24</text></g><g id="elem_Router des ISP"><ellipse cx="333.6831" cy="51.3644" fill="#F1F1F1" rx="71.288" ry="16.6576" style="stroke:#181818;stroke-width:0.5;"/><text fill="#000000" font-family="sans-serif" font-size="14" lengthAdjust="spacing" textLength="96.8242" x="284.1539" y="54.9503">Router des ISP</text></g><!--entity Firewall--><g id="elem_Firewall"><rect fill="#F1F1F1" height="46.4883" rx="2.5" ry="2.5" style="stroke:#181818;stroke-width:0.5;" width="91.6934" x="439.8351" y="28.1168"/><rect fill="#F1F1F1" height="10" style="stroke:#181818;stroke-width:0.5;" width="15" x="511.5285" y="33.1168"/><rect fill="#F1F1F1" height="2" style="stroke:#181818;stroke-width:0.5;" width="4" x="509.5285" y="35.1168"/><rect fill="#F1F1F1" height="2" style="stroke:#181818;stroke-width:0.5;" width="4" x="509.5285" y="39.1168"/><text fill="#000000" font-family="sans-serif" font-size="14" lengthAdjust="spacing" textLength="51.6934" x="454.8351" y="61.652">Firewall</text></g><g id="elem_Router 192.168.0.2 / 24"><ellipse cx="799.6806" cy="51.3659" fill="#F1F1F1" rx="101.6955" ry="22.7391" style="stroke:#181818;stroke-width:0.5;"/><text fill="#000000" font-family="sans-serif" font-size="14" lengthAdjust="spacing" textLength="167.3506" x="716.0053" y="54.6569">Router 192.168.0.2 / 24</text></g><!--entity Switch 1--><g id="elem_Switch 1"><rect fill="#F1F1F1" height="46.4883" rx="2.5" ry="2.5" style="stroke:#181818;stroke-width:0.5;" width="96.752" x="566.3051" y="28.1168"/><rect fill="#F1F1F1" height="10" style="stroke:#181818;stroke-width:0.5;" width="15" x="643.0571" y="33.1168"/><rect fill="#F1F1F1" height="2" style="stroke:#181818;stroke-width:0.5;" width="4" x="641.0571" y="35.1168"/><rect fill="#F1F1F1" height="2" style="stroke:#181818;stroke-width:0.5;" width="4" x="641.0571" y="39.1168"/><text fill="#000000" font-family="sans-serif" font-size="14" lengthAdjust="spacing" textLength="56.752" x="581.3051" y="61.652">Switch 1</text></g><!--entity Switch 2--><g id="elem_Switch 2"><rect fill="#F1F1F1" height="46.4883" rx="2.5" ry="2.5" style="stroke:#181818;stroke-width:0.5;" width="96.752" x="1292.3051" y="28.1168"/><rect fill="#F1F1F1" height="10" style="stroke:#181818;stroke-width:0.5;" width="15" x="1369.0571" y="33.1168"/><rect fill="#F1F1F1" height="2" style="stroke:#181818;stroke-width:0.5;" width="4" x="1367.0571" y="35.1168"/><rect fill="#F1F1F1" height="2" style="stroke:#181818;stroke-width:0.5;" width="4" x="1367.0571" y="39.1168"/><text fill="#000000" font-family="sans-serif" font-size="14" lengthAdjust="spacing" textLength="56.752" x="1307.3051" y="61.652">Switch 2</text></g><!--entity Notebook 1--><g id="elem_Notebook 1"><rect fill="#F1F1F1" height="46.4883" rx="2.5" ry="2.5" style="stroke:#181818;stroke-width:0.5;" width="119.4541" x="917.9551" y="150.5168"/><rect fill="#F1F1F1" height="10" style="stroke:#181818;stroke-width:0.5;" width="15" x="1017.4092" y="155.5168"/><rect fill="#F1F1F1" height="2" style="stroke:#181818;stroke-width:0.5;" width="4" x="1015.4092" y="157.5168"/><rect fill="#F1F1F1" height="2" style="stroke:#181818;stroke-width:0.5;" width="4" x="1015.4092" y="161.5168"/><text fill="#000000" font-family="sans-serif" font-size="14" lengthAdjust="spacing" textLength="79.4541" x="932.9551" y="184.052">Notebook 1</text></g><!--entity Drucker 1--><g id="elem_Drucker 1"><rect fill="#F1F1F1" height="46.4883" rx="2.5" ry="2.5" style="stroke:#181818;stroke-width:0.5;" width="107.0674" x="1072.1551" y="150.5168"/><rect fill="#F1F1F1" height="10" style="stroke:#181818;stroke-width:0.5;" width="15" x="1159.2225" y="155.5168"/><rect fill="#F1F1F1" height="2" style="stroke:#181818;stroke-width:0.5;" width="4" x="1157.2225" y="157.5168"/><rect fill="#F1F1F1" height="2" style="stroke:#181818;stroke-width:0.5;" width="4" x="1157.2225" y="161.5168"/><text fill="#000000" font-family="sans-serif" font-size="14" lengthAdjust="spacing" textLength="67.0674" x="1087.1551" y="184.052">Drucker 1</text></g><!--entity Drucker 2--><g id="elem_Drucker 2"><rect fill="#F1F1F1" height="46.4883" rx="2.5" ry="2.5" style="stroke:#181818;stroke-width:0.5;" width="107.0674" x="1214.1551" y="150.5168"/><rect fill="#F1F1F1" height="10" style="stroke:#181818;stroke-width:0.5;" width="15" x="1301.2225" y="155.5168"/><rect fill="#F1F1F1" height="2" style="stroke:#181818;stroke-width:0.5;" width="4" x="1299.2225" y="157.5168"/><rect fill="#F1F1F1" height="2" style="stroke:#181818;stroke-width:0.5;" width="4" x="1299.2225" y="161.5168"/><text fill="#000000" font-family="sans-serif" font-size="14" lengthAdjust="spacing" textLength="67.0674" x="1229.1551" y="184.052">Drucker 2</text></g><!--entity WLAN AP 1--><g id="elem_WLAN AP 1"><rect fill="#F1F1F1" height="46.4883" rx="2.5" ry="2.5" style="stroke:#181818;stroke-width:0.5;" width="114.5527" x="1356.4051" y="150.5168"/><rect fill="#F1F1F1" height="10" style="stroke:#181818;stroke-width:0.5;" width="15" x="1450.9578" y="155.5168"/><rect fill="#F1F1F1" height="2" style="stroke:#181818;stroke-width:0.5;" width="4" x="1448.9578" y="157.5168"/><rect fill="#F1F1F1" height="2" style="stroke:#181818;stroke-width:0.5;" width="4" x="1448.9578" y="161.5168"/><text fill="#000000" font-family="sans-serif" font-size="14" lengthAdjust="spacing" textLength="74.5527" x="1371.4051" y="184.052">WLAN AP 1</text></g><!--entity WLAN AP 2--><g id="elem_WLAN AP 2"><rect fill="#F1F1F1" height="46.4883" rx="2.5" ry="2.5" style="stroke:#181818;stroke-width:0.5;" width="114.5527" x="1506.4051" y="150.5168"/><rect fill="#F1F1F1" height="10" style="stroke:#181818;stroke-width:0.5;" width="15" x="1600.9578" y="155.5168"/><rect fill="#F1F1F1" height="2" style="stroke:#181818;stroke-width:0.5;" width="4" x="1598.9578" y="157.5168"/><rect fill="#F1F1F1" height="2" style="stroke:#181818;stroke-width:0.5;" width="4" x="1598.9578" y="161.5168"/><text fill="#000000" font-family="sans-serif" font-size="14" lengthAdjust="spacing" textLength="74.5527" x="1521.4051" y="184.052">WLAN AP 2</text></g><!--entity WLAN AP 3--><g id="elem_WLAN AP 3"><rect fill="#F1F1F1" height="46.4883" rx="2.5" ry="2.5" style="stroke:#181818;stroke-width:0.5;" width="114.5527" x="1656.4051" y="150.5168"/><rect fill="#F1F1F1" height="10" style="stroke:#181818;stroke-width:0.5;" width="15" x="1750.9578" y="155.5168"/><rect fill="#F1F1F1" height="2" style="stroke:#181818;stroke-width:0.5;" width="4" x="1748.9578" y="157.5168"/><rect fill="#F1F1F1" height="2" style="stroke:#181818;stroke-width:0.5;" width="4" x="1748.9578" y="161.5168"/><text fill="#000000" font-family="sans-serif" font-size="14" lengthAdjust="spacing" textLength="74.5527" x="1671.4051" y="184.052">WLAN AP 3</text></g><!--entity WLAN AP 4--><g id="elem_WLAN AP 4"><rect fill="#F1F1F1" height="46.4883" rx="2.5" ry="2.5" style="stroke:#181818;stroke-width:0.5;" width="114.5527" x="1806.4051" y="150.5168"/><rect fill="#F1F1F1" height="10" style="stroke:#181818;stroke-width:0.5;" width="15" x="1900.9578" y="155.5168"/><rect fill="#F1F1F1" height="2" style="stroke:#181818;stroke-width:0.5;" width="4" x="1898.9578" y="157.5168"/><rect fill="#F1F1F1" height="2" style="stroke:#181818;stroke-width:0.5;" width="4" x="1898.9578" y="161.5168"/><text fill="#000000" font-family="sans-serif" font-size="14" lengthAdjust="spacing" textLength="74.5527" x="1821.4051" y="184.052">WLAN AP 4</text></g><!--link Internet Service Provider to Router des ISP--><g id="link_Internet Service Provider_Router des ISP"><path d="M227.5551,51.3668 C239.0251,51.3668 250.4951,51.3668 261.9651,51.3668 " fill="none" id="Internet Service Provider-Router des ISP" style="stroke:#181818;stroke-width:1;"/></g><!--link Router des ISP to Firewall--><g id="link_Router des ISP_Firewall"><path d="M405.2351,51.3668 C416.6551,51.3668 428.0651,51.3668 439.4851,51.3668 " fill="none" id="Router des ISP-Firewall" style="stroke:#181818;stroke-width:1;"/></g><!--link Firewall to Switch 1--><g id="link_Firewall_Switch 1"><path d="M531.7951,51.3668 C543.2351,51.3668 554.6751,51.3668 566.1151,51.3668 " fill="none" id="Firewall-Switch 1" style="stroke:#181818;stroke-width:1;"/></g><!--link Switch 1 to Router 192.168.0.2 / 24--><g id="link_Switch 1_Router 192.168.0.2 / 24"><path d="M663.4651,51.3668 C674.8151,51.3668 686.1651,51.3668 697.5151,51.3668 " fill="none" id="Switch 1-Router 192.168.0.2 / 24" style="stroke:#181818;stroke-width:1;"/></g><!--link Router 192.168.0.2 / 24 to 192.168.0.21 / 24--><g id="link_Router 192.168.0.2 / 24_192.168.0.21 / 24"><path d="M761.6851,72.7868 C718.2451,96.1368 647.9351,133.9268 607.3451,155.7468 " fill="none" id="Router 192.168.0.2 / 24-192.168.0.21 / 24" style="stroke:#181818;stroke-width:1;"/></g><!--link Router 192.168.0.2 / 24 to 192.168.0.22 / 24--><g id="link_Router 192.168.0.2 / 24_192.168.0.22 / 24"><path d="M799.6851,74.4468 C799.6851,97.3868 799.6851,132.8868 799.6851,154.3568 " fill="none" id="Router 192.168.0.2 / 24-192.168.0.22 / 24" style="stroke:#181818;stroke-width:1;"/></g><!--link Router 192.168.0.2 / 24 to Switch 2--><g id="link_Router 192.168.0.2 / 24_Switch 2"><path d="M901.6551,51.3668 C1031.8451,51.3668 1162.0451,51.3668 1292.2351,51.3668 " fill="none" id="Router 192.168.0.2 / 24-Switch 2" style="stroke:#181818;stroke-width:1;"/></g><!--link Switch 2 to WLAN AP 1--><g id="link_Switch 2_WLAN AP 1"><path d="M1354.4151,75.0068 C1367.4651,96.5368 1386.9851,128.7268 1400.0151,150.2168 " fill="none" id="Switch 2-WLAN AP 1" style="stroke:#181818;stroke-width:1;"/></g><!--link Switch 2 to WLAN AP 2--><g id="link_Switch 2_WLAN AP 2"><path d="M1389.3751,65.2068 C1419.2651,74.2868 1457.6451,88.1268 1488.6851,106.6068 C1508.6751,118.5068 1528.2851,136.0768 1542.4351,150.1168 " fill="none" id="Switch 2-WLAN AP 2" style="stroke:#181818;stroke-width:1;"/></g><!--link Switch 2 to WLAN AP 3--><g id="link_Switch 2_WLAN AP 3"><path d="M1389.3251,53.2968 C1450.4451,56.1968 1557.1751,67.0968 1638.6851,106.6068 C1660.2451,117.0568 1680.3551,135.4668 1694.3151,150.2168 " fill="none" id="Switch 2-WLAN AP 3" style="stroke:#181818;stroke-width:1;"/></g><!--link Switch 2 to WLAN AP 4--><g id="link_Switch 2_WLAN AP 4"><path d="M1389.5051,54.6268 C1490.3551,59.8868 1718.1851,74.9868 1788.6851,106.6068 C1810.7051,116.4868 1830.9251,135.1368 1844.8051,150.1268 " fill="none" id="Switch 2-WLAN AP 4" style="stroke:#181818;stroke-width:1;"/></g><!--link Switch 2 to Drucker 1--><g id="link_Switch 2_Drucker 1"><path d="M1291.8251,65.5468 C1262.8751,74.5968 1226.1951,88.3068 1196.6851,106.6068 C1177.5051,118.5068 1158.9451,136.0768 1145.6151,150.1168 " fill="none" id="Switch 2-Drucker 1" style="stroke:#181818;stroke-width:1;"/></g><!--link Switch 2 to Drucker 2--><g id="link_Switch 2_Drucker 2"><path d="M1326.9551,75.0068 C1313.9051,96.5368 1294.3851,128.7268 1281.3551,150.2168 " fill="none" id="Switch 2-Drucker 2" style="stroke:#181818;stroke-width:1;"/></g><!--link Switch 2 to Notebook 1--><g id="link_Switch 2_Notebook 1"><path d="M1292.0151,53.9868 C1233.1151,57.6168 1132.2151,69.2968 1054.6851,106.6068 C1032.7751,117.1568 1012.1051,135.5568 997.7151,150.2768 " fill="none" id="Switch 2-Notebook 1" style="stroke:#181818;stroke-width:1;"/></g><!--SRC=[bL71QeD04BtlLmovD3rewqPAUmo4Gg28r4CFuY7LeLaYBgnZGWd-UtTBZTEgmTuUyzxRD_icBtLJm5casuhGL4YGe3cg724s-gWAD9benV9LDvQ60clO9l6jI9-LmTEkBBCB5pn9FtXuzEzz2NSWGojAJehoFGIPg7I1iDX4YUUUHxEmaKlc27uiRQVS4Qe9hRnekm2PYJJIXEzQ7rnQkZ5DVd0xCUn4Ro_h2DRnzxp3VBvYECp4jLR0Wq4hVmTMmuhgePlttVIGlJbiSv81pzf6kfnjc940hEeRgEcpH22iIP3-GDfRq_dVxSuwMIlObTtYlrB66Jd9h2QPSC3mXSQPOGx_qHS0]--></g></svg>