<svg xmlns="http://www.w3.org/2000/svg" xmlns:xlink="http://www.w3.org/1999/xlink" contentStyleType="text/css" height="289px" preserveAspectRatio="none" style="width:661px;height:289px;background:#FFFFFF;" version="1.1" viewBox="0 0 661 289" width="661px" zoomAndPan="magnify"><defs/><g><g id="cluster_##3"><path d="M124.1686,17.8381 C126.6924,12.7433 130.8243,12.4367 134.5351,16.4935 C136.3686,10.6346 140.8833,9.8679 144.4757,14.8858 C147.7594,9.9863 151.0029,8.1082 155.5186,13.5732 C157.9576,7.8434 162.352,7.6774 166.218,12.0639 C169.7225,6 174.5981,6.7006 178.0019,12.1668 C182.4931,6.2548 186.3332,8.0104 189.7873,13.2617 C193.083,7.7927 197.9129,7.3026 201.3025,13.1663 C205.2096,9.4132 208.9693,11.1998 210.3876,15.8553 C213.8014,9.4368 218.9197,9.4602 222.8239,15.3602 C226.6282,10.8453 230.8714,11.9295 232.967,17.1421 C242.1872,20.173 242.1514,28.02 235.4083,33.4419 C244.3575,35.9102 246.0058,43.4819 238.4853,49.1719 C245.4696,53.7457 243.7998,59.639 237.3725,63.1446 C243.5829,69.8121 241.9513,75.2493 233.9138,78.7612 C231.4119,85.5533 227.2927,85.3475 222.2709,81.5255 C218.7089,86.0059 215.5259,87.1016 211.8723,81.6211 C209.5603,86.7083 203.9202,87.9174 200.2895,83.1751 C197.0183,88.6532 193.8266,89.7378 189.5138,84.1934 C186.2336,88.7562 181.4441,89.5087 178.7233,83.6159 C174.1765,88.9141 169.6261,89.6519 166.2107,82.4806 C163.6007,87.6733 158.8209,87.4854 156.4423,82.2635 C153.658,86.9997 148.1412,87.1311 145.0581,82.6319 C140.5158,87.1979 136.4223,87.2251 133.7751,80.7034 C130.55,84.5676 126.5172,85.1051 123.7517,80.1793 C115.4183,76.0074 115.5155,70.0122 121.59,63.9242 C114.6001,60.2042 115.6523,53.4458 121.4027,49.5597 C114.219,43.5789 115.6624,38.9463 122.4998,33.951 C116.0978,28.1259 116.272,22.1823 124.1686,17.8381 " fill="none" style="stroke:#181818;stroke-width:1;"/></g><!--entity Internet--><g id="elem_Internet"><rect fill="#F1F1F1" height="46.4883" rx="2.5" ry="2.5" style="stroke:#181818;stroke-width:0.5;" width="93.2109" x="130.5438" y="24.2032"/><rect fill="#F1F1F1" height="10" style="stroke:#181818;stroke-width:0.5;" width="15" x="203.7547" y="29.2032"/><rect fill="#F1F1F1" height="2" style="stroke:#181818;stroke-width:0.5;" width="4" x="201.7547" y="31.2032"/><rect fill="#F1F1F1" height="2" style="stroke:#181818;stroke-width:0.5;" width="4" x="201.7547" y="35.2032"/><text fill="#000000" font-family="sans-serif" font-size="14" lengthAdjust="spacing" textLength="53.2109" x="145.5438" y="57.7383">Internet</text></g><!--entity Router1--><g id="elem_Router1"><rect fill="#F1F1F1" height="46.4883" rx="2.5" ry="2.5" style="stroke:#181818;stroke-width:0.5;" width="93.7578" x="130.2738" y="130.6832"/><rect fill="#F1F1F1" height="10" style="stroke:#181818;stroke-width:0.5;" width="15" x="204.0316" y="135.6832"/><rect fill="#F1F1F1" height="2" style="stroke:#181818;stroke-width:0.5;" width="4" x="202.0316" y="137.6832"/><rect fill="#F1F1F1" height="2" style="stroke:#181818;stroke-width:0.5;" width="4" x="202.0316" y="141.6832"/><text fill="#000000" font-family="sans-serif" font-size="14" lengthAdjust="spacing" textLength="53.7578" x="145.2738" y="164.2183">Router1</text></g><!--entity Switch1--><g id="elem_Switch1"><rect fill="#F1F1F1" height="46.4883" rx="2.5" ry="2.5" style="stroke:#181818;stroke-width:0.5;" width="92.3223" x="258.9938" y="130.6832"/><rect fill="#F1F1F1" height="10" style="stroke:#181818;stroke-width:0.5;" width="15" x="331.3161" y="135.6832"/><rect fill="#F1F1F1" height="2" style="stroke:#181818;stroke-width:0.5;" width="4" x="329.3161" y="137.6832"/><rect fill="#F1F1F1" height="2" style="stroke:#181818;stroke-width:0.5;" width="4" x="329.3161" y="141.6832"/><text fill="#000000" font-family="sans-serif" font-size="14" lengthAdjust="spacing" textLength="52.3223" x="273.9938" y="164.2183">Switch1</text></g><!--entity SwitchMulti--><g id="elem_SwitchMulti"><rect fill="#F1F1F1" height="46.4883" rx="2.5" ry="2.5" style="stroke:#181818;stroke-width:0.5;" width="117.5469" x="118.3838" y="237.1732"/><rect fill="#F1F1F1" height="10" style="stroke:#181818;stroke-width:0.5;" width="15" x="215.9307" y="242.1732"/><rect fill="#F1F1F1" height="2" style="stroke:#181818;stroke-width:0.5;" width="4" x="213.9307" y="244.1732"/><rect fill="#F1F1F1" height="2" style="stroke:#181818;stroke-width:0.5;" width="4" x="213.9307" y="248.1732"/><text fill="#000000" font-family="sans-serif" font-size="14" lengthAdjust="spacing" textLength="77.5469" x="133.3838" y="270.7083">SwitchMulti</text></g><!--entity PC1--><g id="elem_PC1"><rect fill="#F1F1F1" height="46.4883" rx="2.5" ry="2.5" style="stroke:#181818;stroke-width:0.5;" width="66.2773" x="266.0138" y="24.2032"/><rect fill="#F1F1F1" height="10" style="stroke:#181818;stroke-width:0.5;" width="15" x="312.2911" y="29.2032"/><rect fill="#F1F1F1" height="2" style="stroke:#181818;stroke-width:0.5;" width="4" x="310.2911" y="31.2032"/><rect fill="#F1F1F1" height="2" style="stroke:#181818;stroke-width:0.5;" width="4" x="310.2911" y="35.2032"/><text fill="#000000" font-family="sans-serif" font-size="14" lengthAdjust="spacing" textLength="26.2773" x="281.0138" y="57.7383">PC1</text></g><!--entity PC2--><g id="elem_PC2"><rect fill="#F1F1F1" height="46.4883" rx="2.5" ry="2.5" style="stroke:#181818;stroke-width:0.5;" width="66.2773" x="367.0138" y="24.2032"/><rect fill="#F1F1F1" height="10" style="stroke:#181818;stroke-width:0.5;" width="15" x="413.2911" y="29.2032"/><rect fill="#F1F1F1" height="2" style="stroke:#181818;stroke-width:0.5;" width="4" x="411.2911" y="31.2032"/><rect fill="#F1F1F1" height="2" style="stroke:#181818;stroke-width:0.5;" width="4" x="411.2911" y="35.2032"/><text fill="#000000" font-family="sans-serif" font-size="14" lengthAdjust="spacing" textLength="26.2773" x="382.0138" y="57.7383">PC2</text></g><!--entity PCVlan32--><g id="elem_PCVlan32"><rect fill="#F1F1F1" height="46.4883" rx="2.5" ry="2.5" style="stroke:#181818;stroke-width:0.5;" width="104.75" x="550.7838" y="237.1732"/><rect fill="#F1F1F1" height="10" style="stroke:#181818;stroke-width:0.5;" width="15" x="635.5338" y="242.1732"/><rect fill="#F1F1F1" height="2" style="stroke:#181818;stroke-width:0.5;" width="4" x="633.5338" y="244.1732"/><rect fill="#F1F1F1" height="2" style="stroke:#181818;stroke-width:0.5;" width="4" x="633.5338" y="248.1732"/><text fill="#000000" font-family="sans-serif" font-size="14" lengthAdjust="spacing" textLength="64.75" x="565.7838" y="270.7083">PCVlan32</text></g><!--entity PCVlan64--><g id="elem_PCVlan64"><rect fill="#F1F1F1" height="46.4883" rx="2.5" ry="2.5" style="stroke:#181818;stroke-width:0.5;" width="104.75" x="410.7838" y="237.1732"/><rect fill="#F1F1F1" height="10" style="stroke:#181818;stroke-width:0.5;" width="15" x="495.5338" y="242.1732"/><rect fill="#F1F1F1" height="2" style="stroke:#181818;stroke-width:0.5;" width="4" x="493.5338" y="244.1732"/><rect fill="#F1F1F1" height="2" style="stroke:#181818;stroke-width:0.5;" width="4" x="493.5338" y="248.1732"/><text fill="#000000" font-family="sans-serif" font-size="14" lengthAdjust="spacing" textLength="64.75" x="425.7838" y="270.7083">PCVlan64</text></g><!--entity PCVlan96--><g id="elem_PCVlan96"><rect fill="#F1F1F1" height="46.4883" rx="2.5" ry="2.5" style="stroke:#181818;stroke-width:0.5;" width="104.75" x="270.7838" y="237.1732"/><rect fill="#F1F1F1" height="10" style="stroke:#181818;stroke-width:0.5;" width="15" x="355.5338" y="242.1732"/><rect fill="#F1F1F1" height="2" style="stroke:#181818;stroke-width:0.5;" width="4" x="353.5338" y="244.1732"/><rect fill="#F1F1F1" height="2" style="stroke:#181818;stroke-width:0.5;" width="4" x="353.5338" y="248.1732"/><text fill="#000000" font-family="sans-serif" font-size="14" lengthAdjust="spacing" textLength="64.75" x="285.7838" y="270.7083">PCVlan96</text></g><!--link Internet to Router1--><g id="link_Internet_Router1"><path d="M177.1538,71.1132 C177.1538,88.6432 177.1538,112.7832 177.1538,130.3032 " fill="none" id="Internet-Router1" style="stroke:#181818;stroke-width:1;"/><text fill="#000000" font-family="sans-serif" font-size="13" lengthAdjust="spacing" textLength="132.8438" x="29.1702" y="91.3161">IP 141.51.252.65/28</text><text fill="#000000" font-family="sans-serif" font-size="13" lengthAdjust="spacing" textLength="132.8438" x="28.3497" y="119.9358">IP 141.51.252.66/28</text></g><!--link Router1 to SwitchMulti--><g id="link_Router1_SwitchMulti"><path d="M177.1538,177.6032 C177.1538,195.1332 177.1538,219.2732 177.1538,236.7932 " fill="none" id="Router1-SwitchMulti" style="stroke:#181818;stroke-width:1;"/><text fill="#000000" font-family="sans-serif" font-size="13" lengthAdjust="spacing" textLength="117.7998" x="45.9922" y="197.8085">192.168.100.2/30</text><text fill="#000000" font-family="sans-serif" font-size="13" lengthAdjust="spacing" textLength="117.7998" x="45.2648" y="226.4258">192.168.100.1/30</text></g><!--link SwitchMulti to PCVlan32--><g id="link_SwitchMulti_PCVlan32"><path d="M209.0838,236.7232 C226.3538,225.3732 248.6238,213.0032 270.6538,207.1732 C375.9138,179.3032 410.8038,177.7832 515.6538,207.1732 C536.5438,213.0332 557.3938,225.3932 573.5038,236.7432 " fill="none" id="SwitchMulti-PCVlan32" style="stroke:#181818;stroke-width:1;"/></g><!--link SwitchMulti to PCVlan64--><g id="link_SwitchMulti_PCVlan64"><path d="M209.0838,236.7232 C226.3538,225.3732 248.6238,213.0032 270.6538,207.1732 C315.7638,195.2332 330.7238,194.5732 375.6538,207.1732 C396.5438,213.0332 417.3938,225.3932 433.5038,236.7432 " fill="none" id="SwitchMulti-PCVlan64" style="stroke:#181818;stroke-width:1;"/></g><!--link SwitchMulti to PCVlan96--><g id="link_SwitchMulti_PCVlan96"><path d="M236.1838,260.4232 C247.6238,260.4232 259.0538,260.4232 270.4938,260.4232 " fill="none" id="SwitchMulti-PCVlan96" style="stroke:#181818;stroke-width:1;"/></g><!--link Router1 to Switch1--><g id="link_Router1_Switch1"><path d="M224.4038,153.9332 C235.8638,153.9332 247.3238,153.9332 258.7838,153.9332 " fill="none" id="Router1-Switch1" style="stroke:#181818;stroke-width:1;"/><text fill="#000000" font-family="sans-serif" font-size="13" lengthAdjust="spacing" textLength="134.2402" x="6" y="119.9444">192.168.200.254/24</text></g><!--link PC1 to Switch1--><g id="link_PC1_Switch1"><path d="M300.4538,71.1132 C301.4638,88.6432 302.8438,112.7832 303.8538,130.3032 " fill="none" id="PC1-Switch1" style="stroke:#181818;stroke-width:1;"/></g><!--link PC2 to Switch1--><g id="link_PC2_Switch1"><path d="M379.5438,71.1132 C363.6038,88.6432 341.6538,112.7832 325.7238,130.3032 " fill="none" id="PC2-Switch1" style="stroke:#181818;stroke-width:1;"/></g><!--SRC=[RP0n2uCm48Nt_8eZkz4xas3dJWu5QQ5BS2XMg20A9TAXzBytIKMjck5uzruIlZjpxWTRFx5aLTiFTtWpSCVadJExsfRimypbrTZguQwCwZIqjd5TSSHGATHhU-lIMMevoOCk6MFpdy3p0b2YK2X8aT0gfen356q27G8pCKuAE1v8eCu49ecWE4r-xvSk1dV5lEmWWYNtVXJcs8_6kRPCv9cKZ4boVtlUdz-Ov_opQ6Lz0G00]--></g></svg>