<svg xmlns="http://www.w3.org/2000/svg" xmlns:xlink="http://www.w3.org/1999/xlink" contentStyleType="text/css" height="311px" preserveAspectRatio="none" style="width:1334px;height:311px;background:#FFFFFF;" version="1.1" viewBox="0 0 1334 311" width="1334px" zoomAndPan="magnify"><defs/><g><!--cluster switch--><g id="cluster_switch"><polygon fill="none" points="16,16,26,6,1228,6,1228,98.48,1218,108.48,16,108.48,16,16" style="stroke:#181818;stroke-width:1;"/><line style="stroke:#181818;stroke-width:1;" x1="1218" x2="1228" y1="16" y2="6"/><line style="stroke:#181818;stroke-width:1;" x1="16" x2="1218" y1="16" y2="16"/><line style="stroke:#181818;stroke-width:1;" x1="1218" x2="1218" y1="16" y2="108.48"/><text fill="#000000" font-family="sans-serif" font-size="14" font-weight="bold" lengthAdjust="spacing" textLength="46.8672" x="594.5664" y="32.5352">switch</text></g><!--entity Fa1--><g id="elem_Fa1"><rect fill="#F1F1F1" height="46.4883" rx="2.5" ry="2.5" style="stroke:#181818;stroke-width:0.5;" width="64.0898" x="31.96" y="46"/><rect fill="#F1F1F1" height="10" style="stroke:#181818;stroke-width:0.5;" width="15" x="76.0498" y="51"/><rect fill="#F1F1F1" height="2" style="stroke:#181818;stroke-width:0.5;" width="4" x="74.0498" y="53"/><rect fill="#F1F1F1" height="2" style="stroke:#181818;stroke-width:0.5;" width="4" x="74.0498" y="57"/><text fill="#000000" font-family="sans-serif" font-size="14" lengthAdjust="spacing" textLength="24.0898" x="46.96" y="79.5352">Fa1</text></g><!--entity Fa2--><g id="elem_Fa2"><rect fill="#F1F1F1" height="46.4883" rx="2.5" ry="2.5" style="stroke:#181818;stroke-width:0.5;" width="64.0898" x="130.96" y="46"/><rect fill="#F1F1F1" height="10" style="stroke:#181818;stroke-width:0.5;" width="15" x="175.0498" y="51"/><rect fill="#F1F1F1" height="2" style="stroke:#181818;stroke-width:0.5;" width="4" x="173.0498" y="53"/><rect fill="#F1F1F1" height="2" style="stroke:#181818;stroke-width:0.5;" width="4" x="173.0498" y="57"/><text fill="#000000" font-family="sans-serif" font-size="14" lengthAdjust="spacing" textLength="24.0898" x="145.96" y="79.5352">Fa2</text></g><!--entity Fa3--><g id="elem_Fa3"><rect fill="#F1F1F1" height="46.4883" rx="2.5" ry="2.5" style="stroke:#181818;stroke-width:0.5;" width="64.0898" x="229.96" y="46"/><rect fill="#F1F1F1" height="10" style="stroke:#181818;stroke-width:0.5;" width="15" x="274.0498" y="51"/><rect fill="#F1F1F1" height="2" style="stroke:#181818;stroke-width:0.5;" width="4" x="272.0498" y="53"/><rect fill="#F1F1F1" height="2" style="stroke:#181818;stroke-width:0.5;" width="4" x="272.0498" y="57"/><text fill="#000000" font-family="sans-serif" font-size="14" lengthAdjust="spacing" textLength="24.0898" x="244.96" y="79.5352">Fa3</text></g><!--entity Fa4--><g id="elem_Fa4"><rect fill="#F1F1F1" height="46.4883" rx="2.5" ry="2.5" style="stroke:#181818;stroke-width:0.5;" width="64.0898" x="328.96" y="46"/><rect fill="#F1F1F1" height="10" style="stroke:#181818;stroke-width:0.5;" width="15" x="373.0498" y="51"/><rect fill="#F1F1F1" height="2" style="stroke:#181818;stroke-width:0.5;" width="4" x="371.0498" y="53"/><rect fill="#F1F1F1" height="2" style="stroke:#181818;stroke-width:0.5;" width="4" x="371.0498" y="57"/><text fill="#000000" font-family="sans-serif" font-size="14" lengthAdjust="spacing" textLength="24.0898" x="343.96" y="79.5352">Fa4</text></g><!--entity Fa5--><g id="elem_Fa5"><rect fill="#F1F1F1" height="46.4883" rx="2.5" ry="2.5" style="stroke:#181818;stroke-width:0.5;" width="64.0898" x="427.96" y="46"/><rect fill="#F1F1F1" height="10" style="stroke:#181818;stroke-width:0.5;" width="15" x="472.0498" y="51"/><rect fill="#F1F1F1" height="2" style="stroke:#181818;stroke-width:0.5;" width="4" x="470.0498" y="53"/><rect fill="#F1F1F1" height="2" style="stroke:#181818;stroke-width:0.5;" width="4" x="470.0498" y="57"/><text fill="#000000" font-family="sans-serif" font-size="14" lengthAdjust="spacing" textLength="24.0898" x="442.96" y="79.5352">Fa5</text></g><!--entity Fa6--><g id="elem_Fa6"><rect fill="#F1F1F1" height="46.4883" rx="2.5" ry="2.5" style="stroke:#181818;stroke-width:0.5;" width="64.0898" x="526.96" y="46"/><rect fill="#F1F1F1" height="10" style="stroke:#181818;stroke-width:0.5;" width="15" x="571.0498" y="51"/><rect fill="#F1F1F1" height="2" style="stroke:#181818;stroke-width:0.5;" width="4" x="569.0498" y="53"/><rect fill="#F1F1F1" height="2" style="stroke:#181818;stroke-width:0.5;" width="4" x="569.0498" y="57"/><text fill="#000000" font-family="sans-serif" font-size="14" lengthAdjust="spacing" textLength="24.0898" x="541.96" y="79.5352">Fa6</text></g><!--entity Fa7--><g id="elem_Fa7"><rect fill="#F1F1F1" height="46.4883" rx="2.5" ry="2.5" style="stroke:#181818;stroke-width:0.5;" width="64.0898" x="625.96" y="46"/><rect fill="#F1F1F1" height="10" style="stroke:#181818;stroke-width:0.5;" width="15" x="670.0498" y="51"/><rect fill="#F1F1F1" height="2" style="stroke:#181818;stroke-width:0.5;" width="4" x="668.0498" y="53"/><rect fill="#F1F1F1" height="2" style="stroke:#181818;stroke-width:0.5;" width="4" x="668.0498" y="57"/><text fill="#000000" font-family="sans-serif" font-size="14" lengthAdjust="spacing" textLength="24.0898" x="640.96" y="79.5352">Fa7</text></g><!--entity Fa8--><g id="elem_Fa8"><rect fill="#F1F1F1" height="46.4883" rx="2.5" ry="2.5" style="stroke:#181818;stroke-width:0.5;" width="64.0898" x="724.96" y="46"/><rect fill="#F1F1F1" height="10" style="stroke:#181818;stroke-width:0.5;" width="15" x="769.0498" y="51"/><rect fill="#F1F1F1" height="2" style="stroke:#181818;stroke-width:0.5;" width="4" x="767.0498" y="53"/><rect fill="#F1F1F1" height="2" style="stroke:#181818;stroke-width:0.5;" width="4" x="767.0498" y="57"/><text fill="#000000" font-family="sans-serif" font-size="14" lengthAdjust="spacing" textLength="24.0898" x="739.96" y="79.5352">Fa8</text></g><!--entity Fa9--><g id="elem_Fa9"><rect fill="#F1F1F1" height="46.4883" rx="2.5" ry="2.5" style="stroke:#181818;stroke-width:0.5;" width="64.0898" x="823.96" y="46"/><rect fill="#F1F1F1" height="10" style="stroke:#181818;stroke-width:0.5;" width="15" x="868.0498" y="51"/><rect fill="#F1F1F1" height="2" style="stroke:#181818;stroke-width:0.5;" width="4" x="866.0498" y="53"/><rect fill="#F1F1F1" height="2" style="stroke:#181818;stroke-width:0.5;" width="4" x="866.0498" y="57"/><text fill="#000000" font-family="sans-serif" font-size="14" lengthAdjust="spacing" textLength="24.0898" x="838.96" y="79.5352">Fa9</text></g><!--entity Fa10--><g id="elem_Fa10"><rect fill="#F1F1F1" height="46.4883" rx="2.5" ry="2.5" style="stroke:#181818;stroke-width:0.5;" width="72.9424" x="923.53" y="46"/><rect fill="#F1F1F1" height="10" style="stroke:#181818;stroke-width:0.5;" width="15" x="976.4724" y="51"/><rect fill="#F1F1F1" height="2" style="stroke:#181818;stroke-width:0.5;" width="4" x="974.4724" y="53"/><rect fill="#F1F1F1" height="2" style="stroke:#181818;stroke-width:0.5;" width="4" x="974.4724" y="57"/><text fill="#000000" font-family="sans-serif" font-size="14" lengthAdjust="spacing" textLength="32.9424" x="938.53" y="79.5352">Fa10</text></g><!--entity Fa11--><g id="elem_Fa11"><rect fill="#F1F1F1" height="46.4883" rx="2.5" ry="2.5" style="stroke:#181818;stroke-width:0.5;" width="72.9424" x="1031.53" y="46"/><rect fill="#F1F1F1" height="10" style="stroke:#181818;stroke-width:0.5;" width="15" x="1084.4724" y="51"/><rect fill="#F1F1F1" height="2" style="stroke:#181818;stroke-width:0.5;" width="4" x="1082.4724" y="53"/><rect fill="#F1F1F1" height="2" style="stroke:#181818;stroke-width:0.5;" width="4" x="1082.4724" y="57"/><text fill="#000000" font-family="sans-serif" font-size="14" lengthAdjust="spacing" textLength="32.9424" x="1046.53" y="79.5352">Fa11</text></g><!--entity Fa12--><g id="elem_Fa12"><rect fill="#F1F1F1" height="46.4883" rx="2.5" ry="2.5" style="stroke:#181818;stroke-width:0.5;" width="72.9424" x="1139.53" y="46"/><rect fill="#F1F1F1" height="10" style="stroke:#181818;stroke-width:0.5;" width="15" x="1192.4724" y="51"/><rect fill="#F1F1F1" height="2" style="stroke:#181818;stroke-width:0.5;" width="4" x="1190.4724" y="53"/><rect fill="#F1F1F1" height="2" style="stroke:#181818;stroke-width:0.5;" width="4" x="1190.4724" y="57"/><text fill="#000000" font-family="sans-serif" font-size="14" lengthAdjust="spacing" textLength="32.9424" x="1154.53" y="79.5352">Fa12</text></g><!--entity Frame--><g id="elem_Frame"><rect fill="#F1F1F1" height="46.4883" rx="2.5" ry="2.5" style="stroke:#181818;stroke-width:0.5;" width="81.8359" x="1247.08" y="46"/><path d="M1274.3586,46 L1274.3586,51 L1267.3586,58 L1247.08,58 " fill="none" style="stroke:#181818;stroke-width:0.5;"/><text fill="#000000" font-family="sans-serif" font-size="14" lengthAdjust="spacing" textLength="41.8359" x="1262.08" y="79.5352">Frame</text></g><!--entity Hub--><g id="elem_Hub"><rect fill="#F1F1F1" height="46.4883" rx="2.5" ry="2.5" style="stroke:#181818;stroke-width:0.5;" width="67.7881" x="822.11" y="152.48"/><rect fill="#F1F1F1" height="10" style="stroke:#181818;stroke-width:0.5;" width="15" x="869.8981" y="157.48"/><rect fill="#F1F1F1" height="2" style="stroke:#181818;stroke-width:0.5;" width="4" x="867.8981" y="159.48"/><rect fill="#F1F1F1" height="2" style="stroke:#181818;stroke-width:0.5;" width="4" x="867.8981" y="163.48"/><text fill="#000000" font-family="sans-serif" font-size="14" lengthAdjust="spacing" textLength="27.7881" x="837.11" y="186.0152">Hub</text></g><!--entity PC 0A--><g id="elem_PC 0A"><rect fill="#F1F1F1" height="46.4883" rx="2.5" ry="2.5" style="stroke:#181818;stroke-width:0.5;" width="80.3662" x="23.82" y="152.48"/><rect fill="#F1F1F1" height="10" style="stroke:#181818;stroke-width:0.5;" width="15" x="84.1862" y="157.48"/><rect fill="#F1F1F1" height="2" style="stroke:#181818;stroke-width:0.5;" width="4" x="82.1862" y="159.48"/><rect fill="#F1F1F1" height="2" style="stroke:#181818;stroke-width:0.5;" width="4" x="82.1862" y="163.48"/><text fill="#000000" font-family="sans-serif" font-size="14" lengthAdjust="spacing" textLength="40.3662" x="38.82" y="186.0152">PC 0A</text></g><!--entity PC 0B--><g id="elem_PC 0B"><rect fill="#F1F1F1" height="46.4883" rx="2.5" ry="2.5" style="stroke:#181818;stroke-width:0.5;" width="78.7598" x="222.62" y="152.48"/><rect fill="#F1F1F1" height="10" style="stroke:#181818;stroke-width:0.5;" width="15" x="281.3798" y="157.48"/><rect fill="#F1F1F1" height="2" style="stroke:#181818;stroke-width:0.5;" width="4" x="279.3798" y="159.48"/><rect fill="#F1F1F1" height="2" style="stroke:#181818;stroke-width:0.5;" width="4" x="279.3798" y="163.48"/><text fill="#000000" font-family="sans-serif" font-size="14" lengthAdjust="spacing" textLength="38.7598" x="237.62" y="186.0152">PC 0B</text></g><!--entity PC 0C--><g id="elem_PC 0C"><rect fill="#F1F1F1" height="46.4883" rx="2.5" ry="2.5" style="stroke:#181818;stroke-width:0.5;" width="80.3936" x="419.8" y="152.48"/><rect fill="#F1F1F1" height="10" style="stroke:#181818;stroke-width:0.5;" width="15" x="480.1936" y="157.48"/><rect fill="#F1F1F1" height="2" style="stroke:#181818;stroke-width:0.5;" width="4" x="478.1936" y="159.48"/><rect fill="#F1F1F1" height="2" style="stroke:#181818;stroke-width:0.5;" width="4" x="478.1936" y="163.48"/><text fill="#000000" font-family="sans-serif" font-size="14" lengthAdjust="spacing" textLength="40.3936" x="434.8" y="186.0152">PC 0C</text></g><!--entity PC 0D--><g id="elem_PC 0D"><rect fill="#F1F1F1" height="46.4883" rx="2.5" ry="2.5" style="stroke:#181818;stroke-width:0.5;" width="81.1934" x="617.4" y="152.48"/><rect fill="#F1F1F1" height="10" style="stroke:#181818;stroke-width:0.5;" width="15" x="678.5934" y="157.48"/><rect fill="#F1F1F1" height="2" style="stroke:#181818;stroke-width:0.5;" width="4" x="676.5934" y="159.48"/><rect fill="#F1F1F1" height="2" style="stroke:#181818;stroke-width:0.5;" width="4" x="676.5934" y="163.48"/><text fill="#000000" font-family="sans-serif" font-size="14" lengthAdjust="spacing" textLength="41.1934" x="632.4" y="186.0152">PC 0D</text></g><!--entity PC 0E--><g id="elem_PC 0E"><rect fill="#F1F1F1" height="46.4883" rx="2.5" ry="2.5" style="stroke:#181818;stroke-width:0.5;" width="78.2949" x="759.85" y="258.97"/><rect fill="#F1F1F1" height="10" style="stroke:#181818;stroke-width:0.5;" width="15" x="818.1449" y="263.97"/><rect fill="#F1F1F1" height="2" style="stroke:#181818;stroke-width:0.5;" width="4" x="816.1449" y="265.97"/><rect fill="#F1F1F1" height="2" style="stroke:#181818;stroke-width:0.5;" width="4" x="816.1449" y="269.97"/><text fill="#000000" font-family="sans-serif" font-size="14" lengthAdjust="spacing" textLength="38.2949" x="774.85" y="292.5052">PC 0E</text></g><!--entity PC 0F--><g id="elem_PC 0F"><rect fill="#F1F1F1" height="46.4883" rx="2.5" ry="2.5" style="stroke:#181818;stroke-width:0.5;" width="78.2129" x="872.89" y="258.97"/><rect fill="#F1F1F1" height="10" style="stroke:#181818;stroke-width:0.5;" width="15" x="931.1029" y="263.97"/><rect fill="#F1F1F1" height="2" style="stroke:#181818;stroke-width:0.5;" width="4" x="929.1029" y="265.97"/><rect fill="#F1F1F1" height="2" style="stroke:#181818;stroke-width:0.5;" width="4" x="929.1029" y="269.97"/><text fill="#000000" font-family="sans-serif" font-size="14" lengthAdjust="spacing" textLength="38.2129" x="887.89" y="292.5052">PC 0F</text></g><!--link Fa1 to Fa2--><!--link Fa2 to Fa3--><!--link Fa3 to Fa4--><!--link Fa4 to Fa5--><!--link Fa5 to Fa6--><!--link Fa6 to Fa7--><!--link Fa7 to Fa8--><!--link Fa8 to Fa9--><!--link Fa9 to Fa10--><!--link Fa10 to Fa11--><!--link Fa11 to Fa12--><!--link Fa9 to Hub--><g id="link_Fa9_Hub"><path d="M856,92.91 C856,110.44 856,134.58 856,152.1 " fill="none" id="Fa9-Hub" style="stroke:#181818;stroke-width:1;"/></g><!--link Hub to PC 0F--><g id="link_Hub_PC 0F"><path d="M868.15,199.4 C877.54,216.93 890.49,241.07 899.87,258.59 " fill="none" id="Hub-PC 0F" style="stroke:#181818;stroke-width:1;"/></g><!--link Hub to PC 0E--><g id="link_Hub_PC 0E"><path d="M843.63,199.4 C834.07,216.93 820.9,241.07 811.34,258.59 " fill="none" id="Hub-PC 0E" style="stroke:#181818;stroke-width:1;"/></g><!--link Fa7 to PC 0D--><g id="link_Fa7_PC 0D"><path d="M658,92.91 C658,110.44 658,134.58 658,152.1 " fill="none" id="Fa7-PC 0D" style="stroke:#181818;stroke-width:1;"/></g><!--link Fa5 to PC 0C--><g id="link_Fa5_PC 0C"><path d="M460,92.91 C460,110.44 460,134.58 460,152.1 " fill="none" id="Fa5-PC 0C" style="stroke:#181818;stroke-width:1;"/></g><!--link Fa3 to PC 0B--><g id="link_Fa3_PC 0B"><path d="M262,92.91 C262,110.44 262,134.58 262,152.1 " fill="none" id="Fa3-PC 0B" style="stroke:#181818;stroke-width:1;"/></g><!--link Fa1 to PC 0A--><g id="link_Fa1_PC 0A"><path d="M64,92.91 C64,110.44 64,134.58 64,152.1 " fill="none" id="Fa1-PC 0A" style="stroke:#181818;stroke-width:1;"/></g><!--SRC=[xP9BRi8m48RtFiMe6ze55O4aXAnQycX5WQ8-s20MWHXg2PpASL9LLM_MNIzMntOIuGjKghhn_-SRpsGy6W2QfHZEyZV2jozdy840Ld5YhPNsjGwqsbeThQxMeLPFwqYhrQjDNT6I9JiTc1SCTjzV33QOmYD_Fs2a_WpTrGj9KqpNTGTIJl50uO61ROLj0piAEmPs5NODF5HuQ61FOS_08uL71fOlLse4B1qmNrfDHepcivhJRR6Hyre4qBjktBXnGUF2naMDYzT8TzJLfUGfF-lu2OXamh05eGHE2m891YqOIs2rGBHPjRzZoL7iKrn9jKxoHUAumZGjZWTvvpTMxd-r_lvgBGu9vS-pAPIOvIIZO5tsUttxqZkF6O5vLeBbWENvjktRBWJH4rJX2tH-ivX2dXLiYo4bEMTaKt2HVu4cIPd0Gq4vEM8VxbyndOHtDO28beHbz8WfHvFbhBtWsjqnuV28cUW4bZCKubrI7BZ8s6OfeNiVdf_YheUc2TqNoLxKJZ4ACb6NlViGHZy0]--></g></svg>