<svg xmlns="http://www.w3.org/2000/svg" xmlns:xlink="http://www.w3.org/1999/xlink" contentStyleType="text/css" data-diagram-type="CLASS" height="351px" preserveAspectRatio="none" style="width:568px;height:351px;background:#FFFFFF;" version="1.1" viewBox="0 0 568 351" width="568px" zoomAndPan="magnify"><defs/><g><!--class Teilnehmer--><g class="entity" data-entity="Teilnehmer" data-source-line="1" data-uid="ent0002" id="entity_Teilnehmer"><rect fill="#F1F1F1" height="130.4414" rx="2.5" ry="2.5" style="stroke:#181818;stroke-width:0.5;" width="108.5215" x="7" y="7"/><ellipse cx="22" cy="23" fill="#ADD1B2" rx="11" ry="11" style="stroke:#181818;stroke-width:1;"/><path d="M25.6143,29.5 L17.8945,29.5 L17.8945,17.1069 L25.6143,17.1069 L25.6143,19.2651 L20.3433,19.2651 L20.3433,21.938 L25.1162,21.938 L25.1162,24.0962 L20.3433,24.0962 L20.3433,27.3418 L25.6143,27.3418 Z " fill="#000000"/><text fill="#000000" font-family="sans-serif" font-size="14" lengthAdjust="spacing" textLength="76.5215" x="36" y="28.291">Teilnehmer</text><line style="stroke:#181818;stroke-width:0.5;" x1="8" x2="114.5215" y1="39" y2="39"/><ellipse cx="18" cy="52.7441" fill="#000000" rx="3" ry="3" style="stroke:#000000;stroke-width:1;"/><text fill="#000000" font-family="sans-serif" font-size="14" lengthAdjust="spacing" textLength="18.0947" x="27" y="56.5352">tid</text><line style="stroke:#181818;stroke-width:1;" x1="8" x2="114.5215" y1="63.4883" y2="63.4883"/><ellipse cx="18" cy="77.2324" fill="#000000" rx="3" ry="3" style="stroke:#000000;stroke-width:1;"/><text fill="#000000" font-family="sans-serif" font-size="14" lengthAdjust="spacing" textLength="60.7715" x="27" y="81.0234">Vorname</text><ellipse cx="18" cy="93.7207" fill="#000000" rx="3" ry="3" style="stroke:#000000;stroke-width:1;"/><text fill="#000000" font-family="sans-serif" font-size="14" lengthAdjust="spacing" textLength="71.2236" x="27" y="97.5117">Nachname</text><ellipse cx="18" cy="110.209" fill="#000000" rx="3" ry="3" style="stroke:#000000;stroke-width:1;"/><text fill="#000000" font-family="sans-serif" font-size="14" lengthAdjust="spacing" textLength="42.4102" x="27" y="114">Stra&#223;e</text><ellipse cx="18" cy="126.6973" fill="#000000" rx="3" ry="3" style="stroke:#000000;stroke-width:1;"/><text fill="#000000" font-family="sans-serif" font-size="14" lengthAdjust="spacing" textLength="57.5176" x="27" y="130.4883">Wohnort</text></g><!--class Kurs--><g class="entity" data-entity="Kurs" data-source-line="10" data-uid="ent0003" id="entity_Kurs"><rect fill="#F1F1F1" height="130.4414" rx="2.5" ry="2.5" style="stroke:#181818;stroke-width:0.5;" width="161.1396" x="200.69" y="7"/><ellipse cx="261.6631" cy="23" fill="#ADD1B2" rx="11" ry="11" style="stroke:#181818;stroke-width:1;"/><path d="M265.2774,29.5 L257.5577,29.5 L257.5577,17.1069 L265.2774,17.1069 L265.2774,19.2651 L260.0064,19.2651 L260.0064,21.938 L264.7794,21.938 L264.7794,24.0962 L260.0064,24.0962 L260.0064,27.3418 L265.2774,27.3418 Z " fill="#000000"/><text fill="#000000" font-family="sans-serif" font-size="14" lengthAdjust="spacing" textLength="30.6934" x="282.1631" y="28.291">Kurs</text><line style="stroke:#181818;stroke-width:0.5;" x1="201.69" x2="360.8296" y1="39" y2="39"/><ellipse cx="211.69" cy="52.7441" fill="#000000" rx="3" ry="3" style="stroke:#000000;stroke-width:1;"/><text fill="#000000" font-family="sans-serif" font-size="14" lengthAdjust="spacing" textLength="135.1396" x="220.69" y="56.5352">Kurs_id primary key</text><line style="stroke:#181818;stroke-width:1;" x1="201.69" x2="360.8296" y1="63.4883" y2="63.4883"/><ellipse cx="211.69" cy="77.2324" fill="#000000" rx="3" ry="3" style="stroke:#000000;stroke-width:1;"/><text fill="#000000" font-family="sans-serif" font-size="14" lengthAdjust="spacing" textLength="37.29" x="220.69" y="81.0234">name</text><ellipse cx="211.69" cy="93.7207" fill="#000000" rx="3" ry="3" style="stroke:#000000;stroke-width:1;"/><text fill="#000000" font-family="sans-serif" font-size="14" lengthAdjust="spacing" textLength="91.3418" x="220.69" y="97.5117">Beschreibung</text><ellipse cx="211.69" cy="110.209" fill="#000000" rx="3" ry="3" style="stroke:#000000;stroke-width:1;"/><text fill="#000000" font-family="sans-serif" font-size="14" lengthAdjust="spacing" textLength="60.7646" x="220.69" y="114">Zeitraum</text><text fill="#000000" font-family="sans-serif" font-size="14" lengthAdjust="spacing" textLength="6.7471" x="220.69" y="130.4883">*</text></g><!--class Raum--><g class="entity" data-entity="Raum" data-source-line="19" data-uid="ent0004" id="entity_Raum"><rect fill="#F1F1F1" height="130.4414" rx="2.5" ry="2.5" style="stroke:#181818;stroke-width:0.5;" width="206.0449" x="178.24" y="214.44"/><ellipse cx="257.8411" cy="230.44" fill="#ADD1B2" rx="11" ry="11" style="stroke:#181818;stroke-width:1;"/><path d="M261.4553,236.94 L253.7356,236.94 L253.7356,224.5469 L261.4553,224.5469 L261.4553,226.7051 L256.1843,226.7051 L256.1843,229.378 L260.9573,229.378 L260.9573,231.5362 L256.1843,231.5362 L256.1843,234.7818 L261.4553,234.7818 Z " fill="#000000"/><text fill="#000000" font-family="sans-serif" font-size="14" lengthAdjust="spacing" textLength="38.3428" x="278.3411" y="235.731">Raum</text><line style="stroke:#181818;stroke-width:0.5;" x1="179.24" x2="383.2849" y1="246.44" y2="246.44"/><ellipse cx="189.24" cy="260.1841" fill="#000000" rx="3" ry="3" style="stroke:#000000;stroke-width:1;"/><text fill="#000000" font-family="sans-serif" font-size="14" lengthAdjust="spacing" textLength="180.0449" x="198.24" y="263.9752">Raumnummer primery key</text><line style="stroke:#181818;stroke-width:1;" x1="179.24" x2="383.2849" y1="270.9283" y2="270.9283"/><ellipse cx="189.24" cy="284.6724" fill="#000000" rx="3" ry="3" style="stroke:#000000;stroke-width:1;"/><text fill="#000000" font-family="sans-serif" font-size="14" lengthAdjust="spacing" textLength="21.8408" x="198.24" y="288.4634">Ort</text><ellipse cx="189.24" cy="301.1607" fill="#000000" rx="3" ry="3" style="stroke:#000000;stroke-width:1;"/><text fill="#000000" font-family="sans-serif" font-size="14" lengthAdjust="spacing" textLength="39.2314" x="198.24" y="304.9517">gr&#246;&#223;e</text><ellipse cx="189.24" cy="317.649" fill="#000000" rx="3" ry="3" style="stroke:#000000;stroke-width:1;"/><text fill="#000000" font-family="sans-serif" font-size="14" lengthAdjust="spacing" textLength="36.7295" x="198.24" y="321.44">Stock</text><text fill="#000000" font-family="sans-serif" font-size="14" lengthAdjust="spacing" textLength="4.4297" x="198.24" y="337.9283">&#160;</text></g><!--class Dozent--><g class="entity" data-entity="Dozent" data-source-line="28" data-uid="ent0005" id="entity_Dozent"><rect fill="#F1F1F1" height="113.9531" rx="2.5" ry="2.5" style="stroke:#181818;stroke-width:0.5;" width="132.2578" x="429.13" y="15.24"/><ellipse cx="467.2698" cy="31.24" fill="#ADD1B2" rx="11" ry="11" style="stroke:#181818;stroke-width:1;"/><path d="M470.8841,37.74 L463.1644,37.74 L463.1644,25.3469 L470.8841,25.3469 L470.8841,27.5051 L465.6131,27.5051 L465.6131,30.178 L470.3861,30.178 L470.3861,32.3362 L465.6131,32.3362 L465.6131,35.5818 L470.8841,35.5818 Z " fill="#000000"/><text fill="#000000" font-family="sans-serif" font-size="14" lengthAdjust="spacing" textLength="48.8359" x="486.412" y="36.531">Dozent</text><line style="stroke:#181818;stroke-width:0.5;" x1="430.13" x2="560.3878" y1="47.24" y2="47.24"/><ellipse cx="440.13" cy="60.9841" fill="#000000" rx="3" ry="3" style="stroke:#000000;stroke-width:1;"/><text fill="#000000" font-family="sans-serif" font-size="14" lengthAdjust="spacing" textLength="106.2578" x="449.13" y="64.7752">did primary key</text><line style="stroke:#181818;stroke-width:1;" x1="430.13" x2="560.3878" y1="71.7283" y2="71.7283"/><ellipse cx="440.13" cy="85.4724" fill="#000000" rx="3" ry="3" style="stroke:#000000;stroke-width:1;"/><text fill="#000000" font-family="sans-serif" font-size="14" lengthAdjust="spacing" textLength="58.8643" x="449.13" y="89.2634">vorname</text><ellipse cx="440.13" cy="101.9607" fill="#000000" rx="3" ry="3" style="stroke:#000000;stroke-width:1;"/><text fill="#000000" font-family="sans-serif" font-size="14" lengthAdjust="spacing" textLength="69.5693" x="449.13" y="105.7517">nachname</text><text fill="#000000" font-family="sans-serif" font-size="14" lengthAdjust="spacing" textLength="6.7471" x="449.13" y="122.24">*</text></g><!--link Teilnehmer to Kurs--><g class="link" data-entity-1="Teilnehmer" data-entity-2="Kurs" data-source-line="36" data-uid="lnk6" id="link_Teilnehmer_Kurs"><path codeLine="36" d="M115.93,72.22 C141.38,72.22 172.17,72.22 200.25,72.22" fill="none" id="Teilnehmer-Kurs" style="stroke:#181818;stroke-width:1;"/><text fill="#000000" font-family="sans-serif" font-size="13" lengthAdjust="spacing" textLength="49.7085" x="133.61" y="65.7884">besucht</text><text fill="#000000" font-family="sans-serif" font-size="13" lengthAdjust="spacing" textLength="8.0679" x="123.4513" y="68.8472">n</text><text fill="#000000" font-family="sans-serif" font-size="13" lengthAdjust="spacing" textLength="12.1367" x="180.5068" y="69.1342">m</text></g><!--link Kurs to Dozent--><g class="link" data-entity-1="Kurs" data-entity-2="Dozent" data-source-line="37" data-uid="lnk7" id="link_Kurs_Dozent"><path codeLine="37" d="M362.16,72.22 C384.18,72.22 407.77,72.22 428.87,72.22" fill="none" id="Kurs-Dozent" style="stroke:#181818;stroke-width:1;"/><text fill="#000000" font-family="sans-serif" font-size="13" lengthAdjust="spacing" textLength="31.7256" x="379.98" y="65.7884">leitet</text><text fill="#000000" font-family="sans-serif" font-size="13" lengthAdjust="spacing" textLength="8.0679" x="369.7244" y="69.1342">n</text><text fill="#000000" font-family="sans-serif" font-size="13" lengthAdjust="spacing" textLength="8.2202" x="412.744" y="68.9395">1</text></g><!--link Kurs to Raum--><g class="link" data-entity-1="Kurs" data-entity-2="Raum" data-source-line="38" data-uid="lnk8" id="link_Kurs_Raum"><path codeLine="38" d="M281.26,137.66 C281.26,162.02 281.26,189.73 281.26,214.1" fill="none" id="Kurs-Raum" style="stroke:#181818;stroke-width:1;"/><text fill="#000000" font-family="sans-serif" font-size="13" lengthAdjust="spacing" textLength="39.3936" x="282.26" y="181.0084">belegt</text><text fill="#000000" font-family="sans-serif" font-size="13" lengthAdjust="spacing" textLength="8.0679" x="272.8262" y="158.2231">n</text><text fill="#000000" font-family="sans-serif" font-size="13" lengthAdjust="spacing" textLength="8.2202" x="272.8343" y="203.6943">1</text></g><!--SRC=[xL7BJiCm4BpxArQvy91IjUMfd12q89MM8bgAn0MvoP9On6las9KAublu2tw07sDJqf8Yn94JENbsipCxiqXEkJcCKUM4cKOBpmBusmQd4bWymx2gJ8mbgR525pBEQd3ah7n_NQ8Rav6nJhm8WPyAvzuMA-uIt37_erLQsZayuFoRLetv68iuiwYcdbAeQhUeMC_h2jPqhhYwqYa1ULtQAgNmHwcXTKlQrBw_VPaOEHC_Y1ftnppnQyMU_EfWjfOMhQV5f1iRxEn9OUQ9KYGGjHi45408WGuMIKKmnSB7cHEB4AjcAwZsYI3dDB3U_MoNxilP75Cdn15IWbxdApV_D__pc__PYIzpIUvwq8SPsa8PWbQZtMplDTgROu_GamJD0sWTHZjxqSu-d7J7KBQtnERPPHyAussCRBLmbY_WU7vBzEHCmfNdK3H6C7n4wdNEbmNeqanPGvft5Rt9uEk7_TtmM3aOeULDO38G7RoNFdSy4Pj4KHh1zVWqF1HzIQcNANCdA4uCyzfv19tk1m00]--></g></svg>