<svg xmlns="http://www.w3.org/2000/svg" xmlns:xlink="http://www.w3.org/1999/xlink" contentStyleType="text/css" data-diagram-type="CLASS" height="476px" preserveAspectRatio="none" style="width:139px;height:476px;background:#FFFFFF;" version="1.1" viewBox="0 0 139 476" width="139px" zoomAndPan="magnify"><defs/><g><!--class Kassetten--><g class="entity" data-entity="Kassetten" data-source-line="1" data-uid="ent0002" id="entity_Kassetten"><rect fill="#F1F1F1" height="97.4648" rx="2.5" ry="2.5" style="stroke:#181818;stroke-width:0.5;" width="125.1074" x="7" y="7"/><ellipse cx="34.241" cy="23" fill="#ADD1B2" rx="11" ry="11" style="stroke:#181818;stroke-width:1;"/><path d="M37.8552,29.5 L30.1355,29.5 L30.1355,17.1069 L37.8552,17.1069 L37.8552,19.2651 L32.5842,19.2651 L32.5842,21.938 L37.3572,21.938 L37.3572,24.0962 L32.5842,24.0962 L32.5842,27.3418 L37.8552,27.3418 Z " fill="#000000"/><text fill="#000000" font-family="sans-serif" font-size="14" lengthAdjust="spacing" textLength="65.9053" x="50.9612" y="28.291">Kassetten</text><line style="stroke:#181818;stroke-width:0.5;" x1="8" x2="131.1074" y1="39" y2="39"/><ellipse cx="18" cy="52.7441" fill="#000000" rx="3" ry="3" style="stroke:#000000;stroke-width:1;"/><text fill="#000000" font-family="sans-serif" font-size="14" lengthAdjust="spacing" textLength="99.1074" x="27" y="56.5352">ID primary key</text><line style="stroke:#181818;stroke-width:1;" x1="8" x2="131.1074" y1="63.4883" y2="63.4883"/><ellipse cx="18" cy="77.2324" fill="#000000" rx="3" ry="3" style="stroke:#000000;stroke-width:1;"/><text fill="#000000" font-family="sans-serif" font-size="14" lengthAdjust="spacing" textLength="86.3789" x="27" y="81.0234">Bezeichnung</text><ellipse cx="18" cy="93.7207" fill="#000000" rx="3" ry="3" style="stroke:#000000;stroke-width:1;"/><text fill="#000000" font-family="sans-serif" font-size="14" lengthAdjust="spacing" textLength="40.4141" x="27" y="97.5117">L&#228;nge</text></g><!--class Film--><g class="entity" data-entity="Film" data-source-line="7" data-uid="ent0003" id="entity_Film"><rect fill="#F1F1F1" height="113.9531" rx="2.5" ry="2.5" style="stroke:#181818;stroke-width:0.5;" width="125.1074" x="7" y="181.46"/><ellipse cx="50.9969" cy="197.46" fill="#ADD1B2" rx="11" ry="11" style="stroke:#181818;stroke-width:1;"/><path d="M54.6111,203.96 L46.8914,203.96 L46.8914,191.5669 L54.6111,191.5669 L54.6111,193.7251 L49.3401,193.7251 L49.3401,196.398 L54.1131,196.398 L54.1131,198.5562 L49.3401,198.5562 L49.3401,201.8018 L54.6111,201.8018 Z " fill="#000000"/><text fill="#000000" font-family="sans-serif" font-size="14" lengthAdjust="spacing" textLength="28.6699" x="71.4406" y="202.751">Film</text><line style="stroke:#181818;stroke-width:0.5;" x1="8" x2="131.1074" y1="213.46" y2="213.46"/><ellipse cx="18" cy="227.2041" fill="#000000" rx="3" ry="3" style="stroke:#000000;stroke-width:1;"/><text fill="#000000" font-family="sans-serif" font-size="14" lengthAdjust="spacing" textLength="99.1074" x="27" y="230.9952">ID primary key</text><line style="stroke:#181818;stroke-width:1;" x1="8" x2="131.1074" y1="237.9483" y2="237.9483"/><ellipse cx="18" cy="251.6924" fill="#000000" rx="3" ry="3" style="stroke:#000000;stroke-width:1;"/><text fill="#000000" font-family="sans-serif" font-size="14" lengthAdjust="spacing" textLength="29.9824" x="27" y="255.4834">Titel</text><ellipse cx="18" cy="268.1807" fill="#000000" rx="3" ry="3" style="stroke:#000000;stroke-width:1;"/><text fill="#000000" font-family="sans-serif" font-size="14" lengthAdjust="spacing" textLength="40.4141" x="27" y="271.9717">L&#228;nge</text><ellipse cx="18" cy="284.669" fill="#000000" rx="3" ry="3" style="stroke:#000000;stroke-width:1;"/><text fill="#000000" font-family="sans-serif" font-size="14" lengthAdjust="spacing" textLength="26.5029" x="27" y="288.46">Jahr</text></g><!--class Schauspieler--><g class="entity" data-entity="Schauspieler" data-source-line="14" data-uid="ent0004" id="entity_Schauspieler"><rect fill="#F1F1F1" height="97.4648" rx="2.5" ry="2.5" style="stroke:#181818;stroke-width:0.5;" width="117.1895" x="10.96" y="372.42"/><ellipse cx="25.96" cy="388.42" fill="#ADD1B2" rx="11" ry="11" style="stroke:#181818;stroke-width:1;"/><path d="M29.5743,394.92 L21.8545,394.92 L21.8545,382.5269 L29.5743,382.5269 L29.5743,384.6851 L24.3033,384.6851 L24.3033,387.358 L29.0762,387.358 L29.0762,389.5162 L24.3033,389.5162 L24.3033,392.7618 L29.5743,392.7618 Z " fill="#000000"/><text fill="#000000" font-family="sans-serif" font-size="14" lengthAdjust="spacing" textLength="85.1895" x="39.96" y="393.711">Schauspieler</text><line style="stroke:#181818;stroke-width:0.5;" x1="11.96" x2="127.1495" y1="404.42" y2="404.42"/><ellipse cx="21.96" cy="418.1641" fill="#000000" rx="3" ry="3" style="stroke:#000000;stroke-width:1;"/><text fill="#000000" font-family="sans-serif" font-size="14" lengthAdjust="spacing" textLength="14.5195" x="30.96" y="421.9552">ID</text><line style="stroke:#181818;stroke-width:1;" x1="11.96" x2="127.1495" y1="428.9083" y2="428.9083"/><ellipse cx="21.96" cy="442.6524" fill="#000000" rx="3" ry="3" style="stroke:#000000;stroke-width:1;"/><text fill="#000000" font-family="sans-serif" font-size="14" lengthAdjust="spacing" textLength="60.7715" x="30.96" y="446.4434">Vorname</text><ellipse cx="21.96" cy="459.1407" fill="#000000" rx="3" ry="3" style="stroke:#000000;stroke-width:1;"/><text fill="#000000" font-family="sans-serif" font-size="14" lengthAdjust="spacing" textLength="71.2236" x="30.96" y="462.9317">Nachname</text></g><!--link Kassetten to Film--><g class="link" data-entity-1="Kassetten" data-entity-2="Film" data-source-line="21" data-uid="lnk5" id="link_Kassetten_Film"><path codeLine="21" d="M69.55,104.68 C69.55,128.21 69.55,156.7 69.55,181.24" fill="none" id="Kassetten-Film" style="stroke:#181818;stroke-width:1;"/><text fill="#000000" font-family="sans-serif" font-size="13" lengthAdjust="spacing" textLength="20.1094" x="70.55" y="148.0284">hat</text><text fill="#000000" font-family="sans-serif" font-size="13" lengthAdjust="spacing" textLength="8.2202" x="61.0025" y="125.2081">1</text><text fill="#000000" font-family="sans-serif" font-size="13" lengthAdjust="spacing" textLength="8.0679" x="61.0414" y="170.539">n</text></g><!--link Film to Schauspieler--><g class="link" data-entity-1="Film" data-entity-2="Schauspieler" data-source-line="22" data-uid="lnk6" id="link_Film_Schauspieler"><path codeLine="22" d="M69.55,295.63 C69.55,320.08 69.55,348.44 69.55,371.92" fill="none" id="Film-Schauspieler" style="stroke:#181818;stroke-width:1;"/><text fill="#000000" font-family="sans-serif" font-size="13" lengthAdjust="spacing" textLength="34.4297" x="70.55" y="338.9884">spielt</text><text fill="#000000" font-family="sans-serif" font-size="13" lengthAdjust="spacing" textLength="8.0679" x="61.0662" y="316.1018">n</text><text fill="#000000" font-family="sans-serif" font-size="13" lengthAdjust="spacing" textLength="12.1367" x="56.7152" y="361.5322">m</text></g><!--SRC=[ROzD2i8m48NtESMGJQ7WmcsN8e8_k51n7yhG19DfIQQBAhsDD_5YDh7r1vpLumtlcpT8RBY3hGe1cP7W9c2O7DPBQBnnodTmmGwIEvkDomLUqPIQMgfWj7QFErK8eXVuGgwCTP7s1nKvEPmCemNnpaQrKTf_COwbLcre35hq4skAdsjFogNKNWrTekv5bi41hM9JKn2Vh-HS3Z6G95El0hHYaHf6AswS_BbMG18idW00]--></g></svg>