<svg xmlns="http://www.w3.org/2000/svg" xmlns:xlink="http://www.w3.org/1999/xlink" contentStyleType="text/css" data-diagram-type="CLASS" height="585px" preserveAspectRatio="none" style="width:166px;height:585px;background:#FFFFFF;" version="1.1" viewBox="0 0 166 585" width="166px" zoomAndPan="magnify"><defs/><g><!--class Kassetten--><g class="entity" data-entity="Kassetten" data-source-line="1" data-uid="ent0002" id="entity_Kassetten"><rect fill="#F1F1F1" height="97.4648" rx="2.5" ry="2.5" style="stroke:#181818;stroke-width:0.5;" width="125.1074" x="20.88" y="7"/><ellipse cx="48.121" cy="23" fill="#ADD1B2" rx="11" ry="11" style="stroke:#181818;stroke-width:1;"/><path d="M51.7352,29.5 L44.0155,29.5 L44.0155,17.1069 L51.7352,17.1069 L51.7352,19.2651 L46.4642,19.2651 L46.4642,21.938 L51.2372,21.938 L51.2372,24.0962 L46.4642,24.0962 L46.4642,27.3418 L51.7352,27.3418 Z " fill="#000000"/><text fill="#000000" font-family="sans-serif" font-size="14" lengthAdjust="spacing" textLength="65.9053" x="64.8412" y="28.291">Kassetten</text><line style="stroke:#181818;stroke-width:0.5;" x1="21.88" x2="144.9874" y1="39" y2="39"/><ellipse cx="31.88" cy="52.7441" fill="#000000" rx="3" ry="3" style="stroke:#000000;stroke-width:1;"/><text fill="#000000" font-family="sans-serif" font-size="14" lengthAdjust="spacing" textLength="99.1074" x="40.88" y="56.5352">ID primary key</text><line style="stroke:#181818;stroke-width:1;" x1="21.88" x2="144.9874" y1="63.4883" y2="63.4883"/><ellipse cx="31.88" cy="77.2324" fill="#000000" rx="3" ry="3" style="stroke:#000000;stroke-width:1;"/><text fill="#000000" font-family="sans-serif" font-size="14" lengthAdjust="spacing" textLength="86.3789" x="40.88" y="81.0234">Bezeichnung</text><ellipse cx="31.88" cy="93.7207" fill="#000000" rx="3" ry="3" style="stroke:#000000;stroke-width:1;"/><text fill="#000000" font-family="sans-serif" font-size="14" lengthAdjust="spacing" textLength="40.4141" x="40.88" y="97.5117">L&#228;nge</text></g><!--class Film--><g class="entity" data-entity="Film" data-source-line="7" data-uid="ent0003" id="entity_Film"><rect fill="#F1F1F1" height="113.9531" rx="2.5" ry="2.5" style="stroke:#181818;stroke-width:0.5;" width="125.1074" x="20.88" y="181.46"/><ellipse cx="64.8769" cy="197.46" fill="#ADD1B2" rx="11" ry="11" style="stroke:#181818;stroke-width:1;"/><path d="M68.4911,203.96 L60.7714,203.96 L60.7714,191.5669 L68.4911,191.5669 L68.4911,193.7251 L63.2201,193.7251 L63.2201,196.398 L67.9931,196.398 L67.9931,198.5562 L63.2201,198.5562 L63.2201,201.8018 L68.4911,201.8018 Z " fill="#000000"/><text fill="#000000" font-family="sans-serif" font-size="14" lengthAdjust="spacing" textLength="28.6699" x="85.3206" y="202.751">Film</text><line style="stroke:#181818;stroke-width:0.5;" x1="21.88" x2="144.9874" y1="213.46" y2="213.46"/><ellipse cx="31.88" cy="227.2041" fill="#000000" rx="3" ry="3" style="stroke:#000000;stroke-width:1;"/><text fill="#000000" font-family="sans-serif" font-size="14" lengthAdjust="spacing" textLength="99.1074" x="40.88" y="230.9952">ID primary key</text><line style="stroke:#181818;stroke-width:1;" x1="21.88" x2="144.9874" y1="237.9483" y2="237.9483"/><ellipse cx="31.88" cy="251.6924" fill="#000000" rx="3" ry="3" style="stroke:#000000;stroke-width:1;"/><text fill="#000000" font-family="sans-serif" font-size="14" lengthAdjust="spacing" textLength="29.9824" x="40.88" y="255.4834">Titel</text><ellipse cx="31.88" cy="268.1807" fill="#000000" rx="3" ry="3" style="stroke:#000000;stroke-width:1;"/><text fill="#000000" font-family="sans-serif" font-size="14" lengthAdjust="spacing" textLength="40.4141" x="40.88" y="271.9717">L&#228;nge</text><ellipse cx="31.88" cy="284.669" fill="#000000" rx="3" ry="3" style="stroke:#000000;stroke-width:1;"/><text fill="#000000" font-family="sans-serif" font-size="14" lengthAdjust="spacing" textLength="26.5029" x="40.88" y="288.46">Jahr</text></g><!--class Schauspieler--><g class="entity" data-entity="Schauspieler" data-source-line="14" data-uid="ent0004" id="entity_Schauspieler"><rect fill="#F1F1F1" height="97.4648" rx="2.5" ry="2.5" style="stroke:#181818;stroke-width:0.5;" width="117.1895" x="24.83" y="481.42"/><ellipse cx="39.83" cy="497.42" fill="#ADD1B2" rx="11" ry="11" style="stroke:#181818;stroke-width:1;"/><path d="M43.4443,503.92 L35.7245,503.92 L35.7245,491.5269 L43.4443,491.5269 L43.4443,493.6851 L38.1733,493.6851 L38.1733,496.358 L42.9462,496.358 L42.9462,498.5162 L38.1733,498.5162 L38.1733,501.7618 L43.4443,501.7618 Z " fill="#000000"/><text fill="#000000" font-family="sans-serif" font-size="14" lengthAdjust="spacing" textLength="85.1895" x="53.83" y="502.711">Schauspieler</text><line style="stroke:#181818;stroke-width:0.5;" x1="25.83" x2="141.0195" y1="513.42" y2="513.42"/><ellipse cx="35.83" cy="527.1641" fill="#000000" rx="3" ry="3" style="stroke:#000000;stroke-width:1;"/><text fill="#000000" font-family="sans-serif" font-size="14" lengthAdjust="spacing" textLength="14.5195" x="44.83" y="530.9552">ID</text><line style="stroke:#181818;stroke-width:1;" x1="25.83" x2="141.0195" y1="537.9083" y2="537.9083"/><ellipse cx="35.83" cy="551.6524" fill="#000000" rx="3" ry="3" style="stroke:#000000;stroke-width:1;"/><text fill="#000000" font-family="sans-serif" font-size="14" lengthAdjust="spacing" textLength="60.7715" x="44.83" y="555.4434">Vorname</text><ellipse cx="35.83" cy="568.1407" fill="#000000" rx="3" ry="3" style="stroke:#000000;stroke-width:1;"/><text fill="#000000" font-family="sans-serif" font-size="14" lengthAdjust="spacing" textLength="71.2236" x="44.83" y="571.9317">Nachname</text></g><!--class Film_Schauspieler--><g class="entity" data-entity="Film_Schauspieler" data-source-line="20" data-uid="ent0005" id="entity_Film_Schauspieler"><rect fill="#F1F1F1" height="48" rx="2.5" ry="2.5" style="stroke:#181818;stroke-width:0.5;" width="152.8594" x="7" y="356.42"/><ellipse cx="22" cy="372.42" fill="#ADD1B2" rx="11" ry="11" style="stroke:#181818;stroke-width:1;"/><path d="M25.6143,378.92 L17.8945,378.92 L17.8945,366.5269 L25.6143,366.5269 L25.6143,368.6851 L20.3433,368.6851 L20.3433,371.358 L25.1162,371.358 L25.1162,373.5162 L20.3433,373.5162 L20.3433,376.7618 L25.6143,376.7618 Z " fill="#000000"/><text fill="#000000" font-family="sans-serif" font-size="14" lengthAdjust="spacing" textLength="120.8594" x="36" y="377.711">Film_Schauspieler</text><line style="stroke:#181818;stroke-width:0.5;" x1="8" x2="158.8594" y1="388.42" y2="388.42"/><line style="stroke:#181818;stroke-width:0.5;" x1="8" x2="158.8594" y1="396.42" y2="396.42"/></g><!--link Kassetten to Film--><g class="link" data-entity-1="Kassetten" data-entity-2="Film" data-source-line="24" data-uid="lnk6" id="link_Kassetten_Film"><path codeLine="24" d="M83.43,104.68 C83.43,128.21 83.43,156.7 83.43,181.24" fill="none" id="Kassetten-Film" style="stroke:#181818;stroke-width:1;"/><text fill="#000000" font-family="sans-serif" font-size="13" lengthAdjust="spacing" textLength="20.1094" x="84.43" y="148.0284">hat</text><text fill="#000000" font-family="sans-serif" font-size="13" lengthAdjust="spacing" textLength="8.2202" x="74.8825" y="125.2081">1</text><text fill="#000000" font-family="sans-serif" font-size="13" lengthAdjust="spacing" textLength="8.0679" x="74.9214" y="170.539">n</text></g><!--link Film to Film_Schauspieler--><g class="link" data-entity-1="Film" data-entity-2="Film_Schauspieler" data-source-line="25" data-uid="lnk7" id="link_Film_Film_Schauspieler"><path codeLine="25" d="M83.43,295.57 C83.43,316.71 83.43,339.61 83.43,356.13" fill="none" id="Film-Film_Schauspieler" style="stroke:#181818;stroke-width:1;"/><text fill="#000000" font-family="sans-serif" font-size="13" lengthAdjust="spacing" textLength="8.2202" x="74.9555" y="316.0345">1</text><text fill="#000000" font-family="sans-serif" font-size="13" lengthAdjust="spacing" textLength="8.0679" x="74.4138" y="345.592">n</text></g><!--link Film_Schauspieler to Schauspieler--><g class="link" data-entity-1="Film_Schauspieler" data-entity-2="Schauspieler" data-source-line="26" data-uid="lnk8" id="link_Film_Schauspieler_Schauspieler"><path codeLine="26" d="M83.43,404.82 C83.43,425.25 83.43,455.52 83.43,481.09" fill="none" id="Film_Schauspieler-Schauspieler" style="stroke:#181818;stroke-width:1;"/><text fill="#000000" font-family="sans-serif" font-size="13" lengthAdjust="spacing" textLength="34.4297" x="84.43" y="447.9884">spielt</text><text fill="#000000" font-family="sans-serif" font-size="13" lengthAdjust="spacing" textLength="8.0679" x="74.5129" y="424.8011">n</text><text fill="#000000" font-family="sans-serif" font-size="13" lengthAdjust="spacing" textLength="8.2202" x="74.8837" y="470.7261">1</text></g><!--SRC=[ROzD2i8m48NtESNGJQ7GXTikHGH_SA7YLeOoDC4qBKcwgE9jl8aNCucjjjMi7k_D-sP2oWhRmWQD8Mj9mOs1Umci5b1hKQ9kuK8j13TDkt1ELn8vLuqgeBEspuSg2DYTqHkv5BBqj3yepqdWA2n9O9-kLslaUi0uv1mRKmkIf7jMNpzLMc4PMZjqjtWzMdwUj5qQnx0dYLPKoh3ldwDPvA0GgIWKC-1eMRX_aeoHxDVoWtxUrOP-1a5OzW80]--></g></svg>