<svg xmlns="http://www.w3.org/2000/svg" xmlns:xlink="http://www.w3.org/1999/xlink" contentStyleType="text/css" data-diagram-type="CLASS" height="668px" preserveAspectRatio="none" style="width:213px;height:668px;background:#FFFFFF;" version="1.1" viewBox="0 0 213 668" width="213px" zoomAndPan="magnify"><defs/><g><!--class Verlag--><g class="entity" data-entity="Verlag" data-source-line="1" data-uid="ent0002" id="entity_Verlag"><rect fill="#F1F1F1" height="97.4648" rx="2.5" ry="2.5" style="stroke:#181818;stroke-width:0.5;" width="199.8584" x="7" y="7"/><ellipse cx="81.0845" cy="23" fill="#ADD1B2" rx="11" ry="11" style="stroke:#181818;stroke-width:1;"/><path d="M84.6987,29.5 L76.979,29.5 L76.979,17.1069 L84.6987,17.1069 L84.6987,19.2651 L79.4277,19.2651 L79.4277,21.938 L84.2007,21.938 L84.2007,24.0962 L79.4277,24.0962 L79.4277,27.3418 L84.6987,27.3418 Z " fill="#000000"/><text fill="#000000" font-family="sans-serif" font-size="14" lengthAdjust="spacing" textLength="43.1895" x="101.5845" y="28.291">Verlag</text><line style="stroke:#181818;stroke-width:0.5;" x1="8" x2="205.8584" y1="39" y2="39"/><ellipse cx="18" cy="52.7441" fill="#000000" rx="3" ry="3" style="stroke:#000000;stroke-width:1;"/><text fill="#000000" font-family="sans-serif" font-size="14" lengthAdjust="spacing" textLength="173.8584" x="27" y="56.5352">VerlagsName primary key</text><ellipse cx="18" cy="69.2324" fill="#000000" rx="3" ry="3" style="stroke:#000000;stroke-width:1;"/><text fill="#000000" font-family="sans-serif" font-size="14" lengthAdjust="spacing" textLength="91.9023" x="27" y="73.0234">Vertragsleiter</text><ellipse cx="18" cy="85.7207" fill="#000000" rx="3" ry="3" style="stroke:#000000;stroke-width:1;"/><text fill="#000000" font-family="sans-serif" font-size="14" lengthAdjust="spacing" textLength="111.2822" x="27" y="89.5117">Verlagsaddresse</text><line style="stroke:#181818;stroke-width:0.5;" x1="8" x2="205.8584" y1="96.4648" y2="96.4648"/></g><!--class Zeitschrift--><g class="entity" data-entity="Zeitschrift" data-source-line="7" data-uid="ent0003" id="entity_Zeitschrift"><rect fill="#F1F1F1" height="97.4648" rx="2.5" ry="2.5" style="stroke:#181818;stroke-width:0.5;" width="140.5703" x="36.64" y="181.46"/><ellipse cx="69.5811" cy="197.46" fill="#ADD1B2" rx="11" ry="11" style="stroke:#181818;stroke-width:1;"/><path d="M73.1954,203.96 L65.4756,203.96 L65.4756,191.5669 L73.1954,191.5669 L73.1954,193.7251 L67.9244,193.7251 L67.9244,196.398 L72.6973,196.398 L72.6973,198.5562 L67.9244,198.5562 L67.9244,201.8018 L73.1954,201.8018 Z " fill="#000000"/><text fill="#000000" font-family="sans-serif" font-size="14" lengthAdjust="spacing" textLength="68.7012" x="87.568" y="202.751">Zeitschrift</text><line style="stroke:#181818;stroke-width:0.5;" x1="37.64" x2="176.2103" y1="213.46" y2="213.46"/><ellipse cx="47.64" cy="227.2041" fill="#000000" rx="3" ry="3" style="stroke:#000000;stroke-width:1;"/><text fill="#000000" font-family="sans-serif" font-size="14" lengthAdjust="spacing" textLength="114.5703" x="56.64" y="230.9952">Titel primary key</text><ellipse cx="47.64" cy="243.6924" fill="#000000" rx="3" ry="3" style="stroke:#000000;stroke-width:1;"/><text fill="#000000" font-family="sans-serif" font-size="14" lengthAdjust="spacing" textLength="58.5566" x="56.64" y="247.4834">Ausgabe</text><ellipse cx="47.64" cy="260.1807" fill="#000000" rx="3" ry="3" style="stroke:#000000;stroke-width:1;"/><text fill="#000000" font-family="sans-serif" font-size="14" lengthAdjust="spacing" textLength="32.4502" x="56.64" y="263.9717">Preis</text><line style="stroke:#181818;stroke-width:0.5;" x1="37.64" x2="176.2103" y1="270.9248" y2="270.9248"/></g><!--class Abonent--><g class="entity" data-entity="Abonent" data-source-line="12" data-uid="ent0004" id="entity_Abonent"><rect fill="#F1F1F1" height="113.9531" rx="2.5" ry="2.5" style="stroke:#181818;stroke-width:0.5;" width="169.2881" x="22.29" y="547.37"/><ellipse cx="73.9423" cy="563.37" fill="#ADD1B2" rx="11" ry="11" style="stroke:#181818;stroke-width:1;"/><path d="M77.5566,569.87 L69.8369,569.87 L69.8369,557.4769 L77.5566,557.4769 L77.5566,559.6351 L72.2856,559.6351 L72.2856,562.308 L77.0586,562.308 L77.0586,564.4662 L72.2856,564.4662 L72.2856,567.7118 L77.5566,567.7118 Z " fill="#000000"/><text fill="#000000" font-family="sans-serif" font-size="14" lengthAdjust="spacing" textLength="57.4834" x="94.4423" y="568.661">Abonent</text><line style="stroke:#181818;stroke-width:0.5;" x1="23.29" x2="190.5781" y1="579.37" y2="579.37"/><ellipse cx="33.29" cy="593.1141" fill="#000000" rx="3" ry="3" style="stroke:#000000;stroke-width:1;"/><text fill="#000000" font-family="sans-serif" font-size="14" lengthAdjust="spacing" textLength="143.2881" x="42.29" y="596.9052">Nummer primary key</text><line style="stroke:#181818;stroke-width:1;" x1="23.29" x2="190.5781" y1="603.8583" y2="603.8583"/><ellipse cx="33.29" cy="617.6024" fill="#000000" rx="3" ry="3" style="stroke:#000000;stroke-width:1;"/><text fill="#000000" font-family="sans-serif" font-size="14" lengthAdjust="spacing" textLength="38.9443" x="42.29" y="621.3934">Name</text><ellipse cx="33.29" cy="634.0907" fill="#000000" rx="3" ry="3" style="stroke:#000000;stroke-width:1;"/><text fill="#000000" font-family="sans-serif" font-size="14" lengthAdjust="spacing" textLength="62.8838" x="42.29" y="637.8817">Addresse</text><text fill="#000000" font-family="sans-serif" font-size="14" lengthAdjust="spacing" textLength="4.4297" x="42.29" y="654.37">&#160;</text></g><!--class Zeitschrift_Abo--><g class="entity" data-entity="Zeitschrift_Abo" data-source-line="19" data-uid="ent0005" id="entity_Zeitschrift_Abo"><rect fill="#F1F1F1" height="130.4414" rx="2.5" ry="2.5" style="stroke:#181818;stroke-width:0.5;" width="175.2559" x="19.3" y="339.93"/><ellipse cx="52.518" cy="355.93" fill="#ADD1B2" rx="11" ry="11" style="stroke:#181818;stroke-width:1;"/><path d="M56.1322,362.43 L48.4125,362.43 L48.4125,350.0369 L56.1322,350.0369 L56.1322,352.1951 L50.8612,352.1951 L50.8612,354.868 L55.6342,354.868 L55.6342,357.0262 L50.8612,357.0262 L50.8612,360.2718 L56.1322,360.2718 Z " fill="#000000"/><text fill="#000000" font-family="sans-serif" font-size="14" lengthAdjust="spacing" textLength="102.7715" x="70.5664" y="361.221">Zeitschrift_Abo</text><line style="stroke:#181818;stroke-width:0.5;" x1="20.3" x2="193.5559" y1="371.93" y2="371.93"/><ellipse cx="30.3" cy="385.6741" fill="#000000" rx="3" ry="3" style="stroke:#000000;stroke-width:1;"/><text fill="#000000" font-family="sans-serif" font-size="14" lengthAdjust="spacing" textLength="122.5684" x="39.3" y="389.4652">AZ_id primary key</text><line style="stroke:#181818;stroke-width:1;" x1="20.3" x2="193.5559" y1="396.4183" y2="396.4183"/><ellipse cx="30.3" cy="410.1624" fill="#000000" rx="3" ry="3" style="stroke:#000000;stroke-width:1;"/><text fill="#000000" font-family="sans-serif" font-size="14" lengthAdjust="spacing" textLength="149.2559" x="39.3" y="413.9534">ANummer foreign key</text><ellipse cx="30.3" cy="426.6507" fill="#000000" rx="3" ry="3" style="stroke:#000000;stroke-width:1;"/><text fill="#000000" font-family="sans-serif" font-size="14" lengthAdjust="spacing" textLength="119.3418" x="39.3" y="430.4417">ZTitel foreign key</text><ellipse cx="30.3" cy="443.139" fill="#000000" rx="3" ry="3" style="stroke:#000000;stroke-width:1;"/><text fill="#000000" font-family="sans-serif" font-size="14" lengthAdjust="spacing" textLength="40.4346" x="39.3" y="446.93">Dauer</text><ellipse cx="30.3" cy="459.6273" fill="#000000" rx="3" ry="3" style="stroke:#000000;stroke-width:1;"/><text fill="#000000" font-family="sans-serif" font-size="14" lengthAdjust="spacing" textLength="46.0059" x="39.3" y="463.4183">Beginn</text></g><!--link Verlag to Zeitschrift--><g class="link" data-entity-1="Verlag" data-entity-2="Zeitschrift" data-source-line="28" data-uid="lnk6" id="link_Verlag_Zeitschrift"><path codeLine="28" d="M106.93,104.77 C106.93,128.59 106.93,157.28 106.93,181.11" fill="none" id="Verlag-Zeitschrift" style="stroke:#181818;stroke-width:1;"/><text fill="#000000" font-family="sans-serif" font-size="13" lengthAdjust="spacing" textLength="43.2593" x="107.93" y="148.0284">verlegt</text><text fill="#000000" font-family="sans-serif" font-size="13" lengthAdjust="spacing" textLength="8.2202" x="98.4074" y="124.9565">1</text><text fill="#000000" font-family="sans-serif" font-size="13" lengthAdjust="spacing" textLength="8.0679" x="98.373" y="170.7433">n</text></g><!--link Zeitschrift to Zeitschrift_Abo--><g class="link" data-entity-1="Zeitschrift" data-entity-2="Zeitschrift_Abo" data-source-line="30" data-uid="lnk7" id="link_Zeitschrift_Zeitschrift_Abo"><path codeLine="30" d="M106.93,279.37 C106.93,298.06 106.93,319.74 106.93,339.74" fill="none" id="Zeitschrift-Zeitschrift_Abo" style="stroke:#181818;stroke-width:1;"/><text fill="#000000" font-family="sans-serif" font-size="13" lengthAdjust="spacing" textLength="8.2202" x="98.4079" y="299.5753">1</text><text fill="#000000" font-family="sans-serif" font-size="13" lengthAdjust="spacing" textLength="8.0679" x="98.4964" y="329.3507">n</text></g><!--link Zeitschrift_Abo to Abonent--><g class="link" data-entity-1="Zeitschrift_Abo" data-entity-2="Abonent" data-source-line="31" data-uid="lnk8" id="link_Zeitschrift_Abo_Abonent"><path codeLine="31" d="M106.93,470.72 C106.93,495.32 106.93,523.14 106.93,546.92" fill="none" id="Zeitschrift_Abo-Abonent" style="stroke:#181818;stroke-width:1;"/><text fill="#000000" font-family="sans-serif" font-size="13" lengthAdjust="spacing" textLength="64.7461" x="107.93" y="513.9384">bezieht | |</text><text fill="#000000" font-family="sans-serif" font-size="13" lengthAdjust="spacing" textLength="8.0679" x="98.5212" y="490.8396">n</text><text fill="#000000" font-family="sans-serif" font-size="13" lengthAdjust="spacing" textLength="8.2202" x="98.4554" y="536.5944">1</text></g><!--SRC=[VP19Ry9038Nl_XKM9q02iHIASYfRAr5eKGiSkA21c31gCa6p8D7blzU1GA12pLpYUUzzzfYKbNQFCzAX2Bu0-IkcbNaH4U5MoqZeFNxGFbEjPZaaQKbVHuJlQpA6u0U0ZkWvsynge-NQugd1X9FX3NJRcK0iAQt6cgHXKWfgBsF5lsV8YuiYqfSKF2Ybqid0yv_0wLm86UzYi0MppzpsV27zVx3jjF4wvla2bJcAE3y-x8RI4uuZQT6XG2gLxEYuDinLSyp7dCfThSl37UiKM83Bwzlkv0tmzqs9v-3bIBe_3vVqAMbZyPiFm0CfdrmK0en3eUnqD4ow6Xahh9PhbLgZNCjF7E50AApSOxNbrHjUlOdT_WGJkG3vf_4GJUpqYj2NncgvT9Rp1HY8dS0tn_kEoCFNBQb1x_bqWNsrapfM4Gy5WzaeCpJlIXrfyPqqJuAp4VHeBLneER6AVQa23wUJnr8BXa85JWJCzWcwCNFrtiDU_nS0]--></g></svg>