<svg xmlns="http://www.w3.org/2000/svg" xmlns:xlink="http://www.w3.org/1999/xlink" contentStyleType="text/css" data-diagram-type="CLASS" height="476px" preserveAspectRatio="none" style="width:273px;height:476px;background:#FFFFFF;" version="1.1" viewBox="0 0 273 476" width="273px" zoomAndPan="magnify"><defs/><g><!--class Verlag--><g class="entity" data-entity="Verlag" data-source-line="1" data-uid="ent0002" id="entity_Verlag"><rect fill="#F1F1F1" height="97.4648" rx="2.5" ry="2.5" style="stroke:#181818;stroke-width:0.5;" width="199.8584" x="7" y="7"/><ellipse cx="81.0845" cy="23" fill="#ADD1B2" rx="11" ry="11" style="stroke:#181818;stroke-width:1;"/><path d="M84.6987,29.5 L76.979,29.5 L76.979,17.1069 L84.6987,17.1069 L84.6987,19.2651 L79.4277,19.2651 L79.4277,21.938 L84.2007,21.938 L84.2007,24.0962 L79.4277,24.0962 L79.4277,27.3418 L84.6987,27.3418 Z " fill="#000000"/><text fill="#000000" font-family="sans-serif" font-size="14" lengthAdjust="spacing" textLength="43.1895" x="101.5845" y="28.291">Verlag</text><line style="stroke:#181818;stroke-width:0.5;" x1="8" x2="205.8584" y1="39" y2="39"/><ellipse cx="18" cy="52.7441" fill="#000000" rx="3" ry="3" style="stroke:#000000;stroke-width:1;"/><text fill="#000000" font-family="sans-serif" font-size="14" lengthAdjust="spacing" textLength="173.8584" x="27" y="56.5352">VerlagsName primary key</text><ellipse cx="18" cy="69.2324" fill="#000000" rx="3" ry="3" style="stroke:#000000;stroke-width:1;"/><text fill="#000000" font-family="sans-serif" font-size="14" lengthAdjust="spacing" textLength="91.9023" x="27" y="73.0234">Vertragsleiter</text><ellipse cx="18" cy="85.7207" fill="#000000" rx="3" ry="3" style="stroke:#000000;stroke-width:1;"/><text fill="#000000" font-family="sans-serif" font-size="14" lengthAdjust="spacing" textLength="111.2822" x="27" y="89.5117">Verlagsaddresse</text><line style="stroke:#181818;stroke-width:0.5;" x1="8" x2="205.8584" y1="96.4648" y2="96.4648"/></g><!--class Zeitschrift--><g class="entity" data-entity="Zeitschrift" data-source-line="7" data-uid="ent0003" id="entity_Zeitschrift"><rect fill="#F1F1F1" height="97.4648" rx="2.5" ry="2.5" style="stroke:#181818;stroke-width:0.5;" width="140.5703" x="36.64" y="181.46"/><ellipse cx="69.5811" cy="197.46" fill="#ADD1B2" rx="11" ry="11" style="stroke:#181818;stroke-width:1;"/><path d="M73.1954,203.96 L65.4756,203.96 L65.4756,191.5669 L73.1954,191.5669 L73.1954,193.7251 L67.9244,193.7251 L67.9244,196.398 L72.6973,196.398 L72.6973,198.5562 L67.9244,198.5562 L67.9244,201.8018 L73.1954,201.8018 Z " fill="#000000"/><text fill="#000000" font-family="sans-serif" font-size="14" lengthAdjust="spacing" textLength="68.7012" x="87.568" y="202.751">Zeitschrift</text><line style="stroke:#181818;stroke-width:0.5;" x1="37.64" x2="176.2103" y1="213.46" y2="213.46"/><ellipse cx="47.64" cy="227.2041" fill="#000000" rx="3" ry="3" style="stroke:#000000;stroke-width:1;"/><text fill="#000000" font-family="sans-serif" font-size="14" lengthAdjust="spacing" textLength="114.5703" x="56.64" y="230.9952">Titel primary key</text><ellipse cx="47.64" cy="243.6924" fill="#000000" rx="3" ry="3" style="stroke:#000000;stroke-width:1;"/><text fill="#000000" font-family="sans-serif" font-size="14" lengthAdjust="spacing" textLength="58.5566" x="56.64" y="247.4834">Ausgabe</text><ellipse cx="47.64" cy="260.1807" fill="#000000" rx="3" ry="3" style="stroke:#000000;stroke-width:1;"/><text fill="#000000" font-family="sans-serif" font-size="14" lengthAdjust="spacing" textLength="32.4502" x="56.64" y="263.9717">Preis</text><line style="stroke:#181818;stroke-width:0.5;" x1="37.64" x2="176.2103" y1="270.9248" y2="270.9248"/></g><!--class Abonent--><g class="entity" data-entity="Abonent" data-source-line="12" data-uid="ent0004" id="entity_Abonent"><rect fill="#F1F1F1" height="113.9531" rx="2.5" ry="2.5" style="stroke:#181818;stroke-width:0.5;" width="169.2881" x="22.29" y="355.93"/><ellipse cx="73.9423" cy="371.93" fill="#ADD1B2" rx="11" ry="11" style="stroke:#181818;stroke-width:1;"/><path d="M77.5566,378.43 L69.8369,378.43 L69.8369,366.0369 L77.5566,366.0369 L77.5566,368.1951 L72.2856,368.1951 L72.2856,370.868 L77.0586,370.868 L77.0586,373.0262 L72.2856,373.0262 L72.2856,376.2718 L77.5566,376.2718 Z " fill="#000000"/><text fill="#000000" font-family="sans-serif" font-size="14" lengthAdjust="spacing" textLength="57.4834" x="94.4423" y="377.221">Abonent</text><line style="stroke:#181818;stroke-width:0.5;" x1="23.29" x2="190.5781" y1="387.93" y2="387.93"/><ellipse cx="33.29" cy="401.6741" fill="#000000" rx="3" ry="3" style="stroke:#000000;stroke-width:1;"/><text fill="#000000" font-family="sans-serif" font-size="14" lengthAdjust="spacing" textLength="143.2881" x="42.29" y="405.4652">Nummer primary key</text><line style="stroke:#181818;stroke-width:1;" x1="23.29" x2="190.5781" y1="412.4183" y2="412.4183"/><ellipse cx="33.29" cy="426.1624" fill="#000000" rx="3" ry="3" style="stroke:#000000;stroke-width:1;"/><text fill="#000000" font-family="sans-serif" font-size="14" lengthAdjust="spacing" textLength="38.9443" x="42.29" y="429.9534">Name</text><ellipse cx="33.29" cy="442.6507" fill="#000000" rx="3" ry="3" style="stroke:#000000;stroke-width:1;"/><text fill="#000000" font-family="sans-serif" font-size="14" lengthAdjust="spacing" textLength="62.8838" x="42.29" y="446.4417">Addresse</text><text fill="#000000" font-family="sans-serif" font-size="14" lengthAdjust="spacing" textLength="4.4297" x="42.29" y="462.93">&#160;</text></g><!--link Verlag to Zeitschrift--><g class="link" data-entity-1="Verlag" data-entity-2="Zeitschrift" data-source-line="20" data-uid="lnk5" id="link_Verlag_Zeitschrift"><path codeLine="20" d="M106.93,104.77 C106.93,128.59 106.93,157.29 106.93,181.11" fill="none" id="Verlag-Zeitschrift" style="stroke:#181818;stroke-width:1;"/><text fill="#000000" font-family="sans-serif" font-size="13" lengthAdjust="spacing" textLength="43.2593" x="107.93" y="148.0284">verlegt</text><text fill="#000000" font-family="sans-serif" font-size="13" lengthAdjust="spacing" textLength="8.2202" x="98.4074" y="124.9565">1</text><text fill="#000000" font-family="sans-serif" font-size="13" lengthAdjust="spacing" textLength="8.0679" x="98.373" y="170.7433">n</text></g><!--link Zeitschrift to Abonent--><g class="link" data-entity-1="Zeitschrift" data-entity-2="Abonent" data-source-line="22" data-uid="lnk6" id="link_Zeitschrift_Abonent"><path codeLine="22" d="M106.93,279.15 C106.93,302.67 106.93,331.16 106.93,355.7" fill="none" id="Zeitschrift-Abonent" style="stroke:#181818;stroke-width:1;"/><text fill="#000000" font-family="sans-serif" font-size="13" lengthAdjust="spacing" textLength="157.3521" x="107.93" y="322.4984">bezieht | Dauer  | Beginn</text><text fill="#000000" font-family="sans-serif" font-size="13" lengthAdjust="spacing" textLength="8.0679" x="98.3977" y="299.3257">n</text><text fill="#000000" font-family="sans-serif" font-size="13" lengthAdjust="spacing" textLength="12.1367" x="94.1695" y="344.9977">m</text></g><!--SRC=[xP9DRjim48NtFCM3DaaAE8YT9WsqgXEx1LmxDLh7Y-ueQq8F8b41VmouJQ_L2_HY7LbIx1JPTLkkIBsPxprgI3Pms699hj3cXuAiD-t9t-gIyEYur6wB1zhkrU14BeW3kPSjEiyTUK_gfrBKeBz9cL-j7Ty7T0OBwInUGG-ZDpgZzZHtn5v8BMYOLLQspv3RM9Ra3YdOARrULo3vEt2R2wfEreH5qa-a68bDNeHCiH6TJ517HnXxmm74ujpU4T7co9cyUAzrm9Afe4E0L7A9eJMKLK4Tackdsh1CkikaoEWxqphW2ICT1IcRQp9iBHfx6Cu2DZkJjaaCTlvu-FtBri4QDOhYn8efBtYr_ZjJOqHMlIURKooBvmdz7_vhm_-7mUt_yBpGDjpDfZNLSsNHFnsS3IvE1yUBI9XeYxDtw5-bvnVf-ILknWlKyeaw_ZYVmbVHhKXcxOFZB0RfFr4JlT7u8hFcab9yVYGx6NtgFc1iD-mgMqf2DLdEzWMNRtlNyf2_afCaMCxKYEvrB89qhAgShKbnj_ZGkr9JRKtKHjWvgPjAk6wROZJ-0m00]--></g></svg>