<?xml version="1.0" encoding="UTF-8" standalone="no"?><svg xmlns="http://www.w3.org/2000/svg" xmlns:xlink="http://www.w3.org/1999/xlink" contentStyleType="text/css" height="501px" preserveAspectRatio="none" style="width:790px;height:501px;background:#FFFFFF;" version="1.1" viewBox="0 0 790 501" width="790px" zoomAndPan="magnify"><defs/><g><!--MD5=[8699c0c8e953ee53654a072cc875bfb4]
cluster Browser--><g id="cluster_Browser"><rect fill="none" height="100" rx="2.5" ry="2.5" style="stroke:#181818;stroke-width:1.0;" width="108" x="7" y="55"/><path d="M76,55 L76,65.6094 L66,75.6094 L7,75.6094 " fill="none" style="stroke:#181818;stroke-width:1.0;"/><text fill="#000000" font-family="sans-serif" font-size="14" font-weight="bold" lengthAdjust="spacing" textLength="59" x="10" y="70.5332">Browser</text></g><!--MD5=[1be187d37bd3ac4ecee03fc35f39c46d]
cluster small Br端ckenkopf--><g id="cluster_small Br端ckenkopf"><polygon fill="none" points="139,16,149,6,393,6,393,169,383,179,139,179,139,16" style="stroke:#181818;stroke-width:1.0;"/><line style="stroke:#181818;stroke-width:1.0;" x1="383" x2="393" y1="16" y2="6"/><line style="stroke:#181818;stroke-width:1.0;" x1="139" x2="383" y1="16" y2="16"/><line style="stroke:#181818;stroke-width:1.0;" x1="383" x2="383" y1="16" y2="179"/><text fill="#000000" font-family="sans-serif" font-size="14" font-weight="bold" lengthAdjust="spacing" textLength="130" x="197" y="33.5332">small Br端ckenkopf</text></g><!--MD5=[1e870b726e24be24923faed03f8c63e8]
cluster Docker Container--><g id="cluster_Docker Container"><rect fill="none" height="100" rx="2.5" ry="2.5" style="stroke:#181818;stroke-width:1.0;" width="206" x="163" y="55"/><path d="M296,55 L296,65.6094 L286,75.6094 L163,75.6094 " fill="none" style="stroke:#181818;stroke-width:1.0;"/><text fill="#000000" font-family="sans-serif" font-size="14" font-weight="bold" lengthAdjust="spacing" textLength="123" x="166" y="70.5332">Docker Container</text></g><!--MD5=[5166bb842ef0518b189718832e210401]
cluster central Service--><g id="cluster_central Service"><polygon fill="none" points="140,267,150,257,323,257,323,352,313,362,140,362,140,267" style="stroke:#181818;stroke-width:1.0;"/><line style="stroke:#181818;stroke-width:1.0;" x1="313" x2="323" y1="267" y2="257"/><line style="stroke:#181818;stroke-width:1.0;" x1="140" x2="313" y1="267" y2="267"/><line style="stroke:#181818;stroke-width:1.0;" x1="313" x2="313" y1="267" y2="362"/><text fill="#000000" font-family="sans-serif" font-size="14" font-weight="bold" lengthAdjust="spacing" textLength="107" x="174" y="284.5332">central Service</text></g><!--MD5=[470ed74b7b165da1eff8dd4ca3f57bfb]
cluster central Server--><g id="cluster_central Server"><path d="M349.5,203 L451.5,203 A3.75,3.75 0 0 1 454,205.5 L461,226.6094 L780.5,226.6094 A2.5,2.5 0 0 1 783,229.1094 L783,491.5 A2.5,2.5 0 0 1 780.5,494 L349.5,494 A2.5,2.5 0 0 1 347,491.5 L347,205.5 A2.5,2.5 0 0 1 349.5,203 " fill="none" style="stroke:#000000;stroke-width:1.5;"/><line style="stroke:#000000;stroke-width:1.5;" x1="347" x2="461" y1="226.6094" y2="226.6094"/><text fill="#000000" font-family="sans-serif" font-size="14" font-weight="bold" lengthAdjust="spacing" textLength="101" x="351" y="219.5332">central Server</text></g><g id="cluster_##12"><path d="M379.2282,399.6959 C383.5231,393.2059 389.1479,392.5218 393.4324,399.7066 C395.7397,393.1098 401.5984,392.6984 405.3804,398.257 C409.3485,392.15 414.4182,393.4057 417.281,399.3486 C420.2912,392.7294 425.2026,392.77 429.6467,397.8304 C432.9524,391.4307 437.0541,391.8215 441.4944,396.6312 C446.2845,390.0328 451.0413,391.2606 454.6171,397.8404 C458.5319,392.0626 463.4042,391.4074 467.2321,397.9295 C470.5344,391.6958 474.9828,391.7143 478.615,397.6202 C482.3215,392.2834 487.3664,392.1426 490.161,398.519 C494.2764,391.7092 498.8623,391.4919 503.8982,397.5353 C507.5891,392.8894 511.2952,392.7032 515.1711,397.31 C519.6888,392.8359 523.9025,392.9884 526.9937,398.9292 C530.9791,393.2443 535.5433,393.2759 539.7194,398.711 C543.8543,394.2705 548.6051,394.9221 551.4531,400.2559 C558.961,403.8764 560.7864,408.9004 554.1429,415.0874 C564.3649,418.6091 564.3539,425.4064 557.3572,432.1684 C562.7858,438.4429 562.9224,443.831 554.4474,447.4598 C560.7497,454.3655 559.889,459.8465 551.4388,464.0819 C547.9168,470.1766 542.3118,468.8356 539.3913,463.4508 C535.0964,469.882 530.852,469.3432 526.4597,463.5538 C522.5688,468.9359 518.5158,469.0435 514.4297,463.7742 C510.3194,469.2832 506.4728,470.0357 501.9927,464.1789 C497.6225,468.7785 493.8655,469.0436 490.719,462.8953 C488.4482,468.3214 483.4622,468.9633 479.5521,464.8054 C474.8479,470.8335 469.8774,470.598 465.2994,464.6551 C462.0932,470.4713 457.726,469.8669 454.0281,465.1829 C449.309,470.8385 443.9313,469.7726 441.5088,462.8898 C438.5785,468.7897 432.9791,467.8798 429.7484,463.2244 C426.1945,470.307 421.8391,469.5194 416.8356,464.8121 C413.1576,469.4704 408.6074,468.9633 405.4234,464.2129 C401.2672,470.0394 396.4163,469.4449 392.8074,463.6203 C388.9349,470.044 383.1135,470.3415 379.8278,463.0643 C372.7764,459.5609 370.1612,453.0851 377.3173,447.3167 C369.3252,444.1214 367.5693,437.811 374.4972,431.8885 C367.9329,424.883 369.1602,419.4073 377.6008,415.1906 C370.708,409.3126 371.2966,404.0169 379.2282,399.6959 " fill="none" style="stroke:#181818;stroke-width:1.0;"/></g><!--MD5=[35416571f72b437e1b0191dcaf7d4da4]
cluster Mrbs--><g id="cluster_Mrbs"><path d="M561,257 C561,247 660,247 660,247 C660,247 759,247 759,257 L759,352 C759,362 660,362 660,362 C660,362 561,362 561,352 L561,257 " fill="none" style="stroke:#181818;stroke-width:1.0;"/><path d="M561,257 C561,267 660,267 660,267 C660,267 759,267 759,257 " fill="none" style="stroke:#181818;stroke-width:1.0;"/><text fill="#000000" font-family="sans-serif" font-size="14" font-weight="bold" lengthAdjust="spacing" textLength="36" x="642" y="283.5332">Mrbs</text></g><!--MD5=[0ba5ee7700168656dc1b457c6fe9fdac]
entity Client--><g id="elem_Client"><rect fill="#F1F1F1" height="47.6094" rx="2.5" ry="2.5" style="stroke:#181818;stroke-width:0.5;" width="76" x="23" y="91"/><rect fill="#F1F1F1" height="10" style="stroke:#181818;stroke-width:0.5;" width="15" x="79" y="96"/><rect fill="#F1F1F1" height="2" style="stroke:#181818;stroke-width:0.5;" width="4" x="77" y="98"/><rect fill="#F1F1F1" height="2" style="stroke:#181818;stroke-width:0.5;" width="4" x="77" y="102"/><text fill="#000000" font-family="sans-serif" font-size="14" lengthAdjust="spacing" textLength="36" x="38" y="125.5332">Client</text></g><!--MD5=[81026714d7846fb593feb67150cd0701]
entity Samply_Proxy_Client--><g id="elem_Samply_Proxy_Client"><rect fill="#F1F1F1" height="47.6094" rx="2.5" ry="2.5" style="stroke:#181818;stroke-width:0.5;" width="173" x="179.5" y="91"/><rect fill="#F1F1F1" height="10" style="stroke:#181818;stroke-width:0.5;" width="15" x="332.5" y="96"/><rect fill="#F1F1F1" height="2" style="stroke:#181818;stroke-width:0.5;" width="4" x="330.5" y="98"/><rect fill="#F1F1F1" height="2" style="stroke:#181818;stroke-width:0.5;" width="4" x="330.5" y="102"/><text fill="#000000" font-family="sans-serif" font-size="14" lengthAdjust="spacing" textLength="133" x="194.5" y="125.5332">Samply_Proxy_Client</text></g><!--MD5=[241b36de05534b6660b3ddf6e8766aa9]
entity Broker--><g id="elem_Broker"><rect fill="#F1F1F1" height="47.6094" rx="2.5" ry="2.5" style="stroke:#181818;stroke-width:0.5;" width="82" x="225" y="298"/><rect fill="#F1F1F1" height="10" style="stroke:#181818;stroke-width:0.5;" width="15" x="287" y="303"/><rect fill="#F1F1F1" height="2" style="stroke:#181818;stroke-width:0.5;" width="4" x="285" y="305"/><rect fill="#F1F1F1" height="2" style="stroke:#181818;stroke-width:0.5;" width="4" x="285" y="309"/><text fill="#000000" font-family="sans-serif" font-size="14" lengthAdjust="spacing" textLength="42" x="240" y="332.5332">Broker</text></g><!--MD5=[a1b9d70e4213532ab7b518d54737a1bc]
entity Samply_Proxy_Server--><g id="elem_Samply_Proxy_Server"><rect fill="#F1F1F1" height="47.6094" rx="2.5" ry="2.5" style="stroke:#181818;stroke-width:0.5;" width="179" x="363.5" y="298"/><rect fill="#F1F1F1" height="10" style="stroke:#181818;stroke-width:0.5;" width="15" x="522.5" y="303"/><rect fill="#F1F1F1" height="2" style="stroke:#181818;stroke-width:0.5;" width="4" x="520.5" y="305"/><rect fill="#F1F1F1" height="2" style="stroke:#181818;stroke-width:0.5;" width="4" x="520.5" y="309"/><text fill="#000000" font-family="sans-serif" font-size="14" lengthAdjust="spacing" textLength="139" x="378.5" y="332.5332">Samply_Proxy_Server</text></g><!--MD5=[76d4525ec49858fec3d316d6597b97fa]
entity Server_REST_API--><g id="elem_Server_REST_API"><rect fill="#F1F1F1" height="47.6094" rx="2.5" ry="2.5" style="stroke:#181818;stroke-width:0.5;" width="156" x="387" y="406"/><rect fill="#F1F1F1" height="10" style="stroke:#181818;stroke-width:0.5;" width="15" x="523" y="411"/><rect fill="#F1F1F1" height="2" style="stroke:#181818;stroke-width:0.5;" width="4" x="521" y="413"/><rect fill="#F1F1F1" height="2" style="stroke:#181818;stroke-width:0.5;" width="4" x="521" y="417"/><text fill="#000000" font-family="sans-serif" font-size="14" lengthAdjust="spacing" textLength="116" x="402" y="440.5332">Server_REST_API</text></g><!--MD5=[aa670ab98ddb6c13b71b71b59872f278]
entity Verbis_Raumplaner--><g id="elem_Verbis_Raumplaner"><rect fill="#F1F1F1" height="47.6094" rx="2.5" ry="2.5" style="stroke:#181818;stroke-width:0.5;" width="165" x="577.5" y="298"/><rect fill="#F1F1F1" height="10" style="stroke:#181818;stroke-width:0.5;" width="15" x="722.5" y="303"/><rect fill="#F1F1F1" height="2" style="stroke:#181818;stroke-width:0.5;" width="4" x="720.5" y="305"/><rect fill="#F1F1F1" height="2" style="stroke:#181818;stroke-width:0.5;" width="4" x="720.5" y="309"/><text fill="#000000" font-family="sans-serif" font-size="14" lengthAdjust="spacing" textLength="125" x="592.5" y="332.5332">Verbis_Raumplaner</text></g><!--MD5=[29335ec67a8a00c7a36942606bafbcd4]
link Client to Samply_Proxy_Client--><g id="link_Client_Samply_Proxy_Client"><path d="M99.04,115 C125.78,115 152.52,115 179.26,115 " fill="none" id="Client-Samply_Proxy_Client" style="stroke:#181818;stroke-width:1.0;"/></g><!--MD5=[d6a74fc8eeef0c2cd0f286fbe661f19e]
link Samply_Proxy_Client to Broker--><g id="link_Samply_Proxy_Client_Broker"><path d="M266,139.12 C266,178.59 266,258.55 266,297.97 " fill="none" id="Samply_Proxy_Client-Broker" style="stroke:#181818;stroke-width:1.0;"/></g><!--MD5=[ff0bcd878e9a4e92822be96669d6c88e]
link Broker to Samply_Proxy_Server--><g id="link_Broker_Samply_Proxy_Server"><path d="M307.27,322 C325.96,322 344.65,322 363.34,322 " fill="none" id="Broker-Samply_Proxy_Server" style="stroke:#181818;stroke-width:1.0;"/></g><!--MD5=[2dba2340578c58048ebfa2c8b985b42c]
link Samply_Proxy_Server to Server_REST_API--><g id="link_Samply_Proxy_Server_Server_REST_API"><path d="M455.6,346 C457.6,363.66 460.35,387.94 462.36,405.68 " fill="none" id="Samply_Proxy_Server-Server_REST_API" style="stroke:#181818;stroke-width:1.0;"/></g><!--MD5=[f2dae88bc9f5cf2d69e34f5e84363183]
@startuml

frame "Browser" {
    [Client]
}

node "small Br端ckenkopf" {
    frame "Docker Container" {
        [Samply_Proxy_Client]
    }
    
}

node "central Service" {
    [Broker]
}

package "central Server" {
    [Samply_Proxy_Server]
    cloud {
        [Server_REST_API]
    }
    database "Mrbs" {
        [Verbis_Raumplaner]
    }
}

[Client] - [Samply_Proxy_Client]
[Samply_Proxy_Client] - - [Broker]
[Broker] - [Samply_Proxy_Server]
[Samply_Proxy_Server] - - [Server_REST_API]

@enduml

PlantUML version 1.2022.7(Mon Aug 22 19:01:30 CEST 2022)
(GPL source distribution)
Java Runtime: OpenJDK Runtime Environment
JVM: OpenJDK 64-Bit Server VM
Default Encoding: UTF-8
Language: de
Country: DE
--></g></svg>