<svg xmlns="http://www.w3.org/2000/svg" xmlns:xlink="http://www.w3.org/1999/xlink" contentStyleType="text/css" data-diagram-type="ACTIVITY" height="500px" preserveAspectRatio="none" style="width:750px;height:500px;background:#FFFFFF;" version="1.1" viewBox="0 0 750 500" width="750px" zoomAndPan="magnify"><defs/><g><ellipse cx="378.5234" cy="20" fill="#222222" rx="10" ry="10" style="stroke:#222222;stroke-width:1;"/><rect fill="#F1F1F1" height="34.1328" rx="12.5" ry="12.5" style="stroke:#181818;stroke-width:0.5;" width="168.4121" x="294.3174" y="50"/><text fill="#000000" font-family="sans-serif" font-size="12" lengthAdjust="spacing" textLength="144.6152" x="308.1143" y="71.6016">Ausgabe Men&#252;steuerung</text><rect fill="#F1F1F1" height="34.1328" rx="12.5" ry="12.5" style="stroke:#181818;stroke-width:0.5;" width="131.1523" x="312.9473" y="104.1328"/><text fill="#000000" font-family="sans-serif" font-size="12" lengthAdjust="spacing" textLength="107.3555" x="326.7441" y="125.7344">Eingabe einer Zahl</text><polygon fill="#F1F1F1" points="98.8926,227.2656,122.8926,227.2656,134.8926,239.2656,122.8926,251.2656,98.8926,251.2656,86.8926,239.2656,98.8926,227.2656" style="stroke:#181818;stroke-width:0.5;"/><text fill="#000000" font-family="sans-serif" font-size="11" lengthAdjust="spacing" textLength="17.4829" x="114.8926" y="261.9004">yes</text><text fill="#000000" font-family="sans-serif" font-size="11" lengthAdjust="spacing" textLength="6.9556" x="107.4148" y="243.4229">1</text><rect fill="#F1F1F1" height="34.1328" rx="12.5" ry="12.5" style="stroke:#181818;stroke-width:0.5;" width="131.7852" x="45" y="284.2207"/><text fill="#000000" font-family="sans-serif" font-size="12" lengthAdjust="spacing" textLength="107.9883" x="58.7969" y="305.8223">Datensatz anlegen</text><polygon fill="#F1F1F1" points="232.0615,227.2656,256.0615,227.2656,268.0615,239.2656,256.0615,251.2656,232.0615,251.2656,220.0615,239.2656,232.0615,227.2656" style="stroke:#181818;stroke-width:0.5;"/><text fill="#000000" font-family="sans-serif" font-size="11" lengthAdjust="spacing" textLength="17.4829" x="248.0615" y="261.9004">yes</text><text fill="#000000" font-family="sans-serif" font-size="11" lengthAdjust="spacing" textLength="6.9556" x="240.5837" y="243.4229">2</text><rect fill="#F1F1F1" height="34.1328" rx="12.5" ry="12.5" style="stroke:#181818;stroke-width:0.5;" width="114.5527" x="186.7852" y="284.2207"/><text fill="#000000" font-family="sans-serif" font-size="12" lengthAdjust="spacing" textLength="90.7559" x="200.582" y="305.8223">Daten anzeigen</text><polygon fill="#F1F1F1" points="372.4297,227.2656,396.4297,227.2656,408.4297,239.2656,396.4297,251.2656,372.4297,251.2656,360.4297,239.2656,372.4297,227.2656" style="stroke:#181818;stroke-width:0.5;"/><text fill="#000000" font-family="sans-serif" font-size="11" lengthAdjust="spacing" textLength="17.4829" x="388.4297" y="261.9004">yes</text><text fill="#000000" font-family="sans-serif" font-size="11" lengthAdjust="spacing" textLength="6.9556" x="380.9519" y="243.4229">3</text><rect fill="#F1F1F1" height="34.1328" rx="12.5" ry="12.5" style="stroke:#181818;stroke-width:0.5;" width="126.1836" x="321.3379" y="284.2207"/><text fill="#000000" font-family="sans-serif" font-size="12" lengthAdjust="spacing" textLength="102.3867" x="335.1348" y="305.8223">Daten korrigieren</text><polygon fill="#F1F1F1" points="508.7783,227.2656,532.7783,227.2656,544.7783,239.2656,532.7783,251.2656,508.7783,251.2656,496.7783,239.2656,508.7783,227.2656" style="stroke:#181818;stroke-width:0.5;"/><text fill="#000000" font-family="sans-serif" font-size="11" lengthAdjust="spacing" textLength="17.4829" x="524.7783" y="261.9004">yes</text><text fill="#000000" font-family="sans-serif" font-size="11" lengthAdjust="spacing" textLength="6.9556" x="517.3005" y="243.4229">4</text><rect fill="#F1F1F1" height="34.1328" rx="12.5" ry="12.5" style="stroke:#181818;stroke-width:0.5;" width="106.5137" x="467.5215" y="284.2207"/><text fill="#000000" font-family="sans-serif" font-size="12" lengthAdjust="spacing" textLength="82.7168" x="481.3184" y="305.8223">Daten l&#246;schen</text><rect fill="#F1F1F1" height="34.1328" rx="12.5" ry="12.5" style="stroke:#181818;stroke-width:0.5;" width="128.0117" x="584.0352" y="280.7432"/><text fill="#000000" font-family="sans-serif" font-size="12" lengthAdjust="spacing" textLength="104.2148" x="597.832" y="302.3447">keine g&#252;ltige Zahl</text><rect fill="#F1F1F1" height="34.1328" rx="12.5" ry="12.5" style="stroke:#181818;stroke-width:0.5;" width="213.2891" x="271.8789" y="378.3535"/><text fill="#000000" font-family="sans-serif" font-size="12" lengthAdjust="spacing" textLength="189.4922" x="285.6758" y="399.9551">Men&#252;steuerung wieder anzeigen</text><rect fill="#F1F1F1" height="34.1328" rx="12.5" ry="12.5" style="stroke:#181818;stroke-width:0.5;" width="100.3965" x="328.3252" y="432.4863"/><text fill="#000000" font-family="sans-serif" font-size="12" lengthAdjust="spacing" textLength="76.5996" x="342.1221" y="454.0879">Zahl einlesen</text><polygon fill="#F1F1F1" points="354.0876,158.2656,402.9592,158.2656,414.9592,170.2656,402.9592,182.2656,354.0876,182.2656,342.0876,170.2656,354.0876,158.2656" style="stroke:#181818;stroke-width:0.5;"/><text fill="#000000" font-family="sans-serif" font-size="11" lengthAdjust="spacing" textLength="48.8716" x="354.0876" y="174.4229">Zahl =! 0</text><ellipse cx="24" cy="213.2656" fill="none" rx="11" ry="11" style="stroke:#222222;stroke-width:1;"/><ellipse cx="24" cy="213.2656" fill="#222222" rx="6" ry="6" style="stroke:#222222;stroke-width:1;"/><line style="stroke:#181818;stroke-width:1;" x1="378.5234" x2="378.5234" y1="30" y2="50"/><polygon fill="#181818" points="374.5234,40,378.5234,50,382.5234,40,378.5234,44" style="stroke:#181818;stroke-width:1;"/><line style="stroke:#181818;stroke-width:1;" x1="378.5234" x2="378.5234" y1="84.1328" y2="104.1328"/><polygon fill="#181818" points="374.5234,94.1328,378.5234,104.1328,382.5234,94.1328,378.5234,98.1328" style="stroke:#181818;stroke-width:1;"/><line style="stroke:#181818;stroke-width:1;" x1="110.8926" x2="110.8926" y1="251.2656" y2="284.2207"/><polygon fill="#181818" points="106.8926,274.2207,110.8926,284.2207,114.8926,274.2207,110.8926,278.2207" style="stroke:#181818;stroke-width:1;"/><line style="stroke:#181818;stroke-width:1;" x1="110.8926" x2="110.8926" y1="318.3535" y2="358.3535"/><polygon fill="#181818" points="106.8926,348.3535,110.8926,358.3535,114.8926,348.3535,110.8926,352.3535" style="stroke:#181818;stroke-width:1;"/><line style="stroke:#181818;stroke-width:1;" x1="244.0615" x2="244.0615" y1="251.2656" y2="284.2207"/><polygon fill="#181818" points="240.0615,274.2207,244.0615,284.2207,248.0615,274.2207,244.0615,278.2207" style="stroke:#181818;stroke-width:1;"/><line style="stroke:#181818;stroke-width:1;" x1="244.0615" x2="244.0615" y1="318.3535" y2="358.3535"/><polygon fill="#181818" points="240.0615,348.3535,244.0615,358.3535,248.0615,348.3535,244.0615,352.3535" style="stroke:#181818;stroke-width:1;"/><line style="stroke:#181818;stroke-width:1;" x1="384.4297" x2="384.4297" y1="251.2656" y2="284.2207"/><polygon fill="#181818" points="380.4297,274.2207,384.4297,284.2207,388.4297,274.2207,384.4297,278.2207" style="stroke:#181818;stroke-width:1;"/><line style="stroke:#181818;stroke-width:1;" x1="384.4297" x2="384.4297" y1="318.3535" y2="358.3535"/><polygon fill="#181818" points="380.4297,348.3535,384.4297,358.3535,388.4297,348.3535,384.4297,352.3535" style="stroke:#181818;stroke-width:1;"/><line style="stroke:#181818;stroke-width:1;" x1="520.7783" x2="520.7783" y1="251.2656" y2="284.2207"/><polygon fill="#181818" points="516.7783,274.2207,520.7783,284.2207,524.7783,274.2207,520.7783,278.2207" style="stroke:#181818;stroke-width:1;"/><line style="stroke:#181818;stroke-width:1;" x1="520.7783" x2="520.7783" y1="318.3535" y2="358.3535"/><polygon fill="#181818" points="516.7783,348.3535,520.7783,358.3535,524.7783,348.3535,520.7783,352.3535" style="stroke:#181818;stroke-width:1;"/><line style="stroke:#181818;stroke-width:1;" x1="134.8926" x2="220.0615" y1="239.2656" y2="239.2656"/><polygon fill="#181818" points="210.0615,235.2656,220.0615,239.2656,210.0615,243.2656,214.0615,239.2656" style="stroke:#181818;stroke-width:1;"/><line style="stroke:#181818;stroke-width:1;" x1="268.0615" x2="360.4297" y1="239.2656" y2="239.2656"/><polygon fill="#181818" points="350.4297,235.2656,360.4297,239.2656,350.4297,243.2656,354.4297,239.2656" style="stroke:#181818;stroke-width:1;"/><line style="stroke:#181818;stroke-width:1;" x1="408.4297" x2="496.7783" y1="239.2656" y2="239.2656"/><polygon fill="#181818" points="486.7783,235.2656,496.7783,239.2656,486.7783,243.2656,490.7783,239.2656" style="stroke:#181818;stroke-width:1;"/><line style="stroke:#181818;stroke-width:1;" x1="378.5234" x2="378.5234" y1="182.2656" y2="202.2656"/><line style="stroke:#181818;stroke-width:1;" x1="378.5234" x2="110.8926" y1="202.2656" y2="202.2656"/><line style="stroke:#181818;stroke-width:1;" x1="110.8926" x2="110.8926" y1="202.2656" y2="227.2656"/><polygon fill="#181818" points="106.8926,217.2656,110.8926,227.2656,114.8926,217.2656,110.8926,221.2656" style="stroke:#181818;stroke-width:1;"/><line style="stroke:#181818;stroke-width:1;" x1="544.7783" x2="648.041" y1="239.2656" y2="239.2656"/><line style="stroke:#181818;stroke-width:1;" x1="648.041" x2="648.041" y1="239.2656" y2="280.7432"/><polygon fill="#181818" points="644.041,270.7432,648.041,280.7432,652.041,270.7432,648.041,274.7432" style="stroke:#181818;stroke-width:1;"/><line style="stroke:#181818;stroke-width:1;" x1="648.041" x2="648.041" y1="314.876" y2="358.3535"/><polygon fill="#181818" points="644.041,348.3535,648.041,358.3535,652.041,348.3535,648.041,352.3535" style="stroke:#181818;stroke-width:1;"/><line style="stroke:#181818;stroke-width:1;" x1="110.8926" x2="648.041" y1="358.3535" y2="358.3535"/><line style="stroke:#181818;stroke-width:1;" x1="378.5234" x2="378.5234" y1="358.3535" y2="378.3535"/><polygon fill="#181818" points="374.5234,368.3535,378.5234,378.3535,382.5234,368.3535,378.5234,372.3535" style="stroke:#181818;stroke-width:1;"/><line style="stroke:#181818;stroke-width:1;" x1="378.5234" x2="378.5234" y1="412.4863" y2="432.4863"/><polygon fill="#181818" points="374.5234,422.4863,378.5234,432.4863,382.5234,422.4863,378.5234,426.4863" style="stroke:#181818;stroke-width:1;"/><line style="stroke:#181818;stroke-width:1;" x1="378.5234" x2="378.5234" y1="466.6191" y2="476.6191"/><line style="stroke:#181818;stroke-width:1;" x1="378.5234" x2="724.0469" y1="476.6191" y2="476.6191"/><polygon fill="#181818" points="720.0469,338.3535,724.0469,328.3535,728.0469,338.3535,724.0469,334.3535" style="stroke:#181818;stroke-width:1;"/><line style="stroke:#181818;stroke-width:1;" x1="724.0469" x2="724.0469" y1="170.2656" y2="476.6191"/><line style="stroke:#181818;stroke-width:1;" x1="724.0469" x2="414.9592" y1="170.2656" y2="170.2656"/><polygon fill="#181818" points="424.9592,166.2656,414.9592,170.2656,424.9592,174.2656,420.9592,170.2656" style="stroke:#181818;stroke-width:1;"/><line style="stroke:#181818;stroke-width:1;" x1="342.0876" x2="24" y1="170.2656" y2="170.2656"/><line style="stroke:#181818;stroke-width:1;" x1="24" x2="24" y1="170.2656" y2="202.2656"/><polygon fill="#181818" points="20,192.2656,24,202.2656,28,192.2656,24,196.2656" style="stroke:#181818;stroke-width:1;"/><line style="stroke:#181818;stroke-width:1;" x1="378.5234" x2="378.5234" y1="138.2656" y2="158.2656"/><polygon fill="#181818" points="374.5234,148.2656,378.5234,158.2656,382.5234,148.2656,378.5234,152.2656" style="stroke:#181818;stroke-width:1;"/><!--SRC=[VP2x3i8m34NtV8NPsetNr8e12KP-W2t09Os838fJ8VWmfcxzCP9cuI7LM-nxBET8q3weYjQj67q0xS1z9m4jVCkcZfEjvM42o_2qrushITqRwq15Uj5gGjDIKInxfc9MKcZ0L3mWkPkgeeqEOD7XIPeT3BWUXd22XCt7i8WyOV-OnIXpkNflZON_nPQZcEjVScm-cO_89KaWqtSkn7EoZ9pZKrojSkhR8TqjJj7Szn-g0KvI7IGruuOiLKcutfHw0m00]--></g></svg>