<svg xmlns="http://www.w3.org/2000/svg" xmlns:xlink="http://www.w3.org/1999/xlink" contentStyleType="text/css" data-diagram-type="DESCRIPTION" height="220px" preserveAspectRatio="none" style="width:3215px;height:220px;background:#FFFFFF;" version="1.1" viewBox="0 0 3215 220" width="3215px" zoomAndPan="magnify"><defs/><g><!--cluster Internet--><g class="cluster" data-entity="Internet" data-source-line="1" data-uid="ent0002" id="cluster_Internet"><path d="M26.5276,19.1574 C31.8741,11.1731 37.8175,11.6142 43.3928,18.9047 C48.9247,11.8809 53.5111,12.046 58.0796,19.8583 C64.075,11.9172 69.6475,12.2501 75.8108,19.6646 C79.9676,12.6819 84.8446,12.7886 90.2098,18.2684 C95.301,10.0435 101.1255,8.8432 107.4708,16.9422 C111.1057,9.6111 118.5266,9.8793 122.5205,16.5565 C128.3311,7.8389 135.9025,6.4601 141.6124,16.6581 C145.5095,9.9273 152.6503,9.7382 156.4246,16.79 C161.1747,9.4221 167.5385,8.8392 172.496,16.5691 C177.2759,9.9493 183.8184,10.8067 187.8595,17.4264 C192.1657,9.8226 199.7156,11.5405 203.4737,18.0335 C210.6391,9.0267 216.3681,11.9034 221.4582,20.1916 C227.0625,13.5592 232.371,12.8635 237.6913,20.5145 C242.9952,12.3449 248.0996,11.7054 254.6002,19.2248 C264.8754,24.0502 265.5345,31.0428 258.2897,39.1176 C271.1942,42.0054 274.6404,53.0351 264.8363,62.328 C272.5984,70.554 269.0067,77.4332 259.191,80.0643 C268.3248,88.5104 265.7786,96.7626 254.2826,100.1731 C249.0799,109.5417 243.6655,109.519 236.693,102.0185 C233.1842,111.8892 226.6146,113.5913 219.6557,105.2451 C214.0557,111.5965 207.9141,111.5984 203.2599,104.1236 C199.3646,111.8146 193.9321,110.9019 189.2558,104.9238 C184.1284,114.5165 178.3654,115.2639 171.4384,106.6887 C167.0094,115.0376 161.2689,115.1661 155.1037,108.5889 C149.4522,115.7563 144.7942,114.9624 139.8596,107.825 C135.9181,113.8326 129.4284,114.2299 125.2259,108.1407 C119.347,115.8789 112.7885,116.264 106.8471,108.2135 C100.5992,114.4624 96.0121,111.9479 93.0448,104.8268 C88.0953,112.0279 82.2586,112.9651 76.8993,105.2709 C70.636,112.716 63.7954,111.0874 59.2677,103.2664 C52.7151,110.5405 46.9155,109.0994 41.9499,101.4275 C36.5544,108.4383 32.179,106.9697 27.7315,100.4327 C16.3758,98.3655 14.5328,89.9612 20.2916,81.2547 C10.0012,78.2223 5.4204,70.1197 14.6007,61.483 C6.2989,51.7617 6.9791,44.9762 20.0356,40.8925 C10.0267,31.6888 15.8649,22.1866 26.5276,19.1574" fill="none" style="stroke:#181818;stroke-width:1;"/><text fill="#000000" font-family="sans-serif" font-size="14" font-weight="bold" lengthAdjust="spacing" textLength="57.1484" x="110.043" y="37.1562">Internet</text></g><!--cluster IPv6_Netzwerkprefix--><g class="cluster" data-entity="IPv6_Netzwerkprefix" data-source-line="6" data-uid="ent0008" id="cluster_IPv6_Netzwerkprefix"><rect fill="none" height="203.98" rx="2.5" ry="2.5" style="stroke:#181818;stroke-width:1;" width="2680" x="529.6172" y="10.621"/><text fill="#000000" font-family="sans-serif" font-size="14" font-weight="bold" lengthAdjust="spacing" textLength="148.6543" x="1795.2901" y="26.1562">IPv6_Netzwerkprefix</text></g><!--entity Internet Service Provider --><g class="entity" data-entity="Internet Service Provider " data-source-line="2" data-uid="ent0003" id="entity_Internet Service Provider "><rect fill="#F1F1F1" height="46.4883" rx="2.5" ry="2.5" style="stroke:#181818;stroke-width:0.5;" width="209.5313" x="33.8472" y="45.621"/><rect fill="#F1F1F1" height="10" style="stroke:#181818;stroke-width:0.5;" width="15" x="223.3785" y="50.621"/><rect fill="#F1F1F1" height="2" style="stroke:#181818;stroke-width:0.5;" width="4" x="221.3785" y="52.621"/><rect fill="#F1F1F1" height="2" style="stroke:#181818;stroke-width:0.5;" width="4" x="221.3785" y="56.621"/><text fill="#000000" font-family="sans-serif" font-size="14" lengthAdjust="spacing" textLength="165.1016" x="48.8472" y="79.1562">Internet Service Provider</text></g><!--entity Router fe80::1/64--><g class="entity" data-entity="Router fe80::1/64" data-source-line="7" data-uid="ent0009" id="entity_Router fe80::1/64"><rect fill="#F1F1F1" height="46.4883" rx="2.5" ry="2.5" style="stroke:#181818;stroke-width:0.5;" width="162.7461" x="563.2472" y="45.621"/><rect fill="#F1F1F1" height="10" style="stroke:#181818;stroke-width:0.5;" width="15" x="705.9933" y="50.621"/><rect fill="#F1F1F1" height="2" style="stroke:#181818;stroke-width:0.5;" width="4" x="703.9933" y="52.621"/><rect fill="#F1F1F1" height="2" style="stroke:#181818;stroke-width:0.5;" width="4" x="703.9933" y="56.621"/><text fill="#000000" font-family="sans-serif" font-size="14" lengthAdjust="spacing" textLength="122.7461" x="578.2472" y="79.1562">Router fe80::1/64</text></g><!--entity Switch 1--><g class="entity" data-entity="Switch 1" data-source-line="8" data-uid="ent0011" id="entity_Switch 1"><rect fill="#F1F1F1" height="46.4883" rx="2.5" ry="2.5" style="stroke:#181818;stroke-width:0.5;" width="96.752" x="776.2372" y="45.621"/><rect fill="#F1F1F1" height="10" style="stroke:#181818;stroke-width:0.5;" width="15" x="852.9892" y="50.621"/><rect fill="#F1F1F1" height="2" style="stroke:#181818;stroke-width:0.5;" width="4" x="850.9892" y="52.621"/><rect fill="#F1F1F1" height="2" style="stroke:#181818;stroke-width:0.5;" width="4" x="850.9892" y="56.621"/><text fill="#000000" font-family="sans-serif" font-size="14" lengthAdjust="spacing" textLength="56.752" x="791.2372" y="79.1562">Switch 1</text></g><!--entity DHCPv6-Server--><g class="entity" data-entity="DHCPv6-Server" data-source-line="9" data-uid="ent0013" id="entity_DHCPv6-Server"><rect fill="#F1F1F1" height="46.4883" rx="2.5" ry="2.5" style="stroke:#181818;stroke-width:0.5;" width="144.2412" x="545.4972" y="152.111"/><rect fill="#F1F1F1" height="10" style="stroke:#181818;stroke-width:0.5;" width="15" x="669.7384" y="157.111"/><rect fill="#F1F1F1" height="2" style="stroke:#181818;stroke-width:0.5;" width="4" x="667.7384" y="159.111"/><rect fill="#F1F1F1" height="2" style="stroke:#181818;stroke-width:0.5;" width="4" x="667.7384" y="163.111"/><text fill="#000000" font-family="sans-serif" font-size="14" lengthAdjust="spacing" textLength="104.2412" x="560.4972" y="185.6462">DHCPv6-Server</text></g><!--entity DNS-Server fe80::5 /64--><g class="entity" data-entity="DNS-Server fe80::5 /64" data-source-line="10" data-uid="ent0015" id="entity_DNS-Server fe80::5 /64"><rect fill="#F1F1F1" height="46.4883" rx="2.5" ry="2.5" style="stroke:#181818;stroke-width:0.5;" width="200.583" x="724.3272" y="152.111"/><rect fill="#F1F1F1" height="10" style="stroke:#181818;stroke-width:0.5;" width="15" x="904.9102" y="157.111"/><rect fill="#F1F1F1" height="2" style="stroke:#181818;stroke-width:0.5;" width="4" x="902.9102" y="159.111"/><rect fill="#F1F1F1" height="2" style="stroke:#181818;stroke-width:0.5;" width="4" x="902.9102" y="163.111"/><text fill="#000000" font-family="sans-serif" font-size="14" lengthAdjust="spacing" textLength="160.583" x="739.3272" y="185.6462">DNS-Server fe80::5 /64</text></g><!--entity Datei-Server fe80::6--><g class="entity" data-entity="Datei-Server fe80::6" data-source-line="11" data-uid="ent0017" id="entity_Datei-Server fe80::6"><rect fill="#F1F1F1" height="46.4883" rx="2.5" ry="2.5" style="stroke:#181818;stroke-width:0.5;" width="178.0381" x="959.5972" y="152.111"/><rect fill="#F1F1F1" height="10" style="stroke:#181818;stroke-width:0.5;" width="15" x="1117.6353" y="157.111"/><rect fill="#F1F1F1" height="2" style="stroke:#181818;stroke-width:0.5;" width="4" x="1115.6353" y="159.111"/><rect fill="#F1F1F1" height="2" style="stroke:#181818;stroke-width:0.5;" width="4" x="1115.6353" y="163.111"/><text fill="#000000" font-family="sans-serif" font-size="14" lengthAdjust="spacing" textLength="138.0381" x="974.5972" y="185.6462">Datei-Server fe80::6</text></g><!--entity Switch 2--><g class="entity" data-entity="Switch 2" data-source-line="12" data-uid="ent0019" id="entity_Switch 2"><rect fill="#F1F1F1" height="46.4883" rx="2.5" ry="2.5" style="stroke:#181818;stroke-width:0.5;" width="96.752" x="2104.2372" y="45.621"/><rect fill="#F1F1F1" height="10" style="stroke:#181818;stroke-width:0.5;" width="15" x="2180.9892" y="50.621"/><rect fill="#F1F1F1" height="2" style="stroke:#181818;stroke-width:0.5;" width="4" x="2178.9892" y="52.621"/><rect fill="#F1F1F1" height="2" style="stroke:#181818;stroke-width:0.5;" width="4" x="2178.9892" y="56.621"/><text fill="#000000" font-family="sans-serif" font-size="14" lengthAdjust="spacing" textLength="56.752" x="2119.2372" y="79.1562">Switch 2</text></g><!--entity Computer 1--><g class="entity" data-entity="Computer 1" data-source-line="13" data-uid="ent0021" id="entity_Computer 1"><rect fill="#F1F1F1" height="46.4883" rx="2.5" ry="2.5" style="stroke:#181818;stroke-width:0.5;" width="120.9033" x="1172.1672" y="152.111"/><rect fill="#F1F1F1" height="10" style="stroke:#181818;stroke-width:0.5;" width="15" x="1273.0706" y="157.111"/><rect fill="#F1F1F1" height="2" style="stroke:#181818;stroke-width:0.5;" width="4" x="1271.0706" y="159.111"/><rect fill="#F1F1F1" height="2" style="stroke:#181818;stroke-width:0.5;" width="4" x="1271.0706" y="163.111"/><text fill="#000000" font-family="sans-serif" font-size="14" lengthAdjust="spacing" textLength="80.9033" x="1187.1672" y="185.6462">Computer 1</text></g><!--entity Netzwerdrucker 1--><g class="entity" data-entity="Netzwerdrucker 1" data-source-line="14" data-uid="ent0023" id="entity_Netzwerdrucker 1"><rect fill="#F1F1F1" height="46.4883" rx="2.5" ry="2.5" style="stroke:#181818;stroke-width:0.5;" width="161.1123" x="1328.0572" y="152.111"/><rect fill="#F1F1F1" height="10" style="stroke:#181818;stroke-width:0.5;" width="15" x="1469.1695" y="157.111"/><rect fill="#F1F1F1" height="2" style="stroke:#181818;stroke-width:0.5;" width="4" x="1467.1695" y="159.111"/><rect fill="#F1F1F1" height="2" style="stroke:#181818;stroke-width:0.5;" width="4" x="1467.1695" y="163.111"/><text fill="#000000" font-family="sans-serif" font-size="14" lengthAdjust="spacing" textLength="121.1123" x="1343.0572" y="185.6462">Netzwerdrucker 1</text></g><!--entity Netzwerdrucker 2--><g class="entity" data-entity="Netzwerdrucker 2" data-source-line="15" data-uid="ent0025" id="entity_Netzwerdrucker 2"><rect fill="#F1F1F1" height="46.4883" rx="2.5" ry="2.5" style="stroke:#181818;stroke-width:0.5;" width="161.1123" x="1524.0572" y="152.111"/><rect fill="#F1F1F1" height="10" style="stroke:#181818;stroke-width:0.5;" width="15" x="1665.1695" y="157.111"/><rect fill="#F1F1F1" height="2" style="stroke:#181818;stroke-width:0.5;" width="4" x="1663.1695" y="159.111"/><rect fill="#F1F1F1" height="2" style="stroke:#181818;stroke-width:0.5;" width="4" x="1663.1695" y="163.111"/><text fill="#000000" font-family="sans-serif" font-size="14" lengthAdjust="spacing" textLength="121.1123" x="1539.0572" y="185.6462">Netzwerdrucker 2</text></g><!--entity WLAN AP 1--><g class="entity" data-entity="WLAN AP 1" data-source-line="16" data-uid="ent0027" id="entity_WLAN AP 1"><rect fill="#F1F1F1" height="46.4883" rx="2.5" ry="2.5" style="stroke:#181818;stroke-width:0.5;" width="114.5527" x="1720.3372" y="152.111"/><rect fill="#F1F1F1" height="10" style="stroke:#181818;stroke-width:0.5;" width="15" x="1814.89" y="157.111"/><rect fill="#F1F1F1" height="2" style="stroke:#181818;stroke-width:0.5;" width="4" x="1812.89" y="159.111"/><rect fill="#F1F1F1" height="2" style="stroke:#181818;stroke-width:0.5;" width="4" x="1812.89" y="163.111"/><text fill="#000000" font-family="sans-serif" font-size="14" lengthAdjust="spacing" textLength="74.5527" x="1735.3372" y="185.6462">WLAN AP 1</text></g><!--entity WLAN AP 2--><g class="entity" data-entity="WLAN AP 2" data-source-line="17" data-uid="ent0029" id="entity_WLAN AP 2"><rect fill="#F1F1F1" height="46.4883" rx="2.5" ry="2.5" style="stroke:#181818;stroke-width:0.5;" width="114.5527" x="1870.3372" y="152.111"/><rect fill="#F1F1F1" height="10" style="stroke:#181818;stroke-width:0.5;" width="15" x="1964.89" y="157.111"/><rect fill="#F1F1F1" height="2" style="stroke:#181818;stroke-width:0.5;" width="4" x="1962.89" y="159.111"/><rect fill="#F1F1F1" height="2" style="stroke:#181818;stroke-width:0.5;" width="4" x="1962.89" y="163.111"/><text fill="#000000" font-family="sans-serif" font-size="14" lengthAdjust="spacing" textLength="74.5527" x="1885.3372" y="185.6462">WLAN AP 2</text></g><!--entity WLAN AP 3--><g class="entity" data-entity="WLAN AP 3" data-source-line="18" data-uid="ent0031" id="entity_WLAN AP 3"><rect fill="#F1F1F1" height="46.4883" rx="2.5" ry="2.5" style="stroke:#181818;stroke-width:0.5;" width="114.5527" x="2020.3372" y="152.111"/><rect fill="#F1F1F1" height="10" style="stroke:#181818;stroke-width:0.5;" width="15" x="2114.89" y="157.111"/><rect fill="#F1F1F1" height="2" style="stroke:#181818;stroke-width:0.5;" width="4" x="2112.89" y="159.111"/><rect fill="#F1F1F1" height="2" style="stroke:#181818;stroke-width:0.5;" width="4" x="2112.89" y="163.111"/><text fill="#000000" font-family="sans-serif" font-size="14" lengthAdjust="spacing" textLength="74.5527" x="2035.3372" y="185.6462">WLAN AP 3</text></g><!--entity WLAN AP 4--><g class="entity" data-entity="WLAN AP 4" data-source-line="19" data-uid="ent0033" id="entity_WLAN AP 4"><rect fill="#F1F1F1" height="46.4883" rx="2.5" ry="2.5" style="stroke:#181818;stroke-width:0.5;" width="114.5527" x="2170.3372" y="152.111"/><rect fill="#F1F1F1" height="10" style="stroke:#181818;stroke-width:0.5;" width="15" x="2264.89" y="157.111"/><rect fill="#F1F1F1" height="2" style="stroke:#181818;stroke-width:0.5;" width="4" x="2262.89" y="159.111"/><rect fill="#F1F1F1" height="2" style="stroke:#181818;stroke-width:0.5;" width="4" x="2262.89" y="163.111"/><text fill="#000000" font-family="sans-serif" font-size="14" lengthAdjust="spacing" textLength="74.5527" x="2185.3372" y="185.6462">WLAN AP 4</text></g><!--entity WLAN AP 5--><g class="entity" data-entity="WLAN AP 5" data-source-line="20" data-uid="ent0035" id="entity_WLAN AP 5"><rect fill="#F1F1F1" height="46.4883" rx="2.5" ry="2.5" style="stroke:#181818;stroke-width:0.5;" width="114.5527" x="2320.3372" y="152.111"/><rect fill="#F1F1F1" height="10" style="stroke:#181818;stroke-width:0.5;" width="15" x="2414.89" y="157.111"/><rect fill="#F1F1F1" height="2" style="stroke:#181818;stroke-width:0.5;" width="4" x="2412.89" y="159.111"/><rect fill="#F1F1F1" height="2" style="stroke:#181818;stroke-width:0.5;" width="4" x="2412.89" y="163.111"/><text fill="#000000" font-family="sans-serif" font-size="14" lengthAdjust="spacing" textLength="74.5527" x="2335.3372" y="185.6462">WLAN AP 5</text></g><!--entity WLAN AP 6--><g class="entity" data-entity="WLAN AP 6" data-source-line="21" data-uid="ent0037" id="entity_WLAN AP 6"><rect fill="#F1F1F1" height="46.4883" rx="2.5" ry="2.5" style="stroke:#181818;stroke-width:0.5;" width="114.5527" x="2470.3372" y="152.111"/><rect fill="#F1F1F1" height="10" style="stroke:#181818;stroke-width:0.5;" width="15" x="2564.89" y="157.111"/><rect fill="#F1F1F1" height="2" style="stroke:#181818;stroke-width:0.5;" width="4" x="2562.89" y="159.111"/><rect fill="#F1F1F1" height="2" style="stroke:#181818;stroke-width:0.5;" width="4" x="2562.89" y="163.111"/><text fill="#000000" font-family="sans-serif" font-size="14" lengthAdjust="spacing" textLength="74.5527" x="2485.3372" y="185.6462">WLAN AP 6</text></g><!--entity WLAN AP 7--><g class="entity" data-entity="WLAN AP 7" data-source-line="22" data-uid="ent0039" id="entity_WLAN AP 7"><rect fill="#F1F1F1" height="46.4883" rx="2.5" ry="2.5" style="stroke:#181818;stroke-width:0.5;" width="114.5527" x="2620.3372" y="152.111"/><rect fill="#F1F1F1" height="10" style="stroke:#181818;stroke-width:0.5;" width="15" x="2714.89" y="157.111"/><rect fill="#F1F1F1" height="2" style="stroke:#181818;stroke-width:0.5;" width="4" x="2712.89" y="159.111"/><rect fill="#F1F1F1" height="2" style="stroke:#181818;stroke-width:0.5;" width="4" x="2712.89" y="163.111"/><text fill="#000000" font-family="sans-serif" font-size="14" lengthAdjust="spacing" textLength="74.5527" x="2635.3372" y="185.6462">WLAN AP 7</text></g><!--entity WLAN AP 8--><g class="entity" data-entity="WLAN AP 8" data-source-line="23" data-uid="ent0041" id="entity_WLAN AP 8"><rect fill="#F1F1F1" height="46.4883" rx="2.5" ry="2.5" style="stroke:#181818;stroke-width:0.5;" width="114.5527" x="2770.3372" y="152.111"/><rect fill="#F1F1F1" height="10" style="stroke:#181818;stroke-width:0.5;" width="15" x="2864.89" y="157.111"/><rect fill="#F1F1F1" height="2" style="stroke:#181818;stroke-width:0.5;" width="4" x="2862.89" y="159.111"/><rect fill="#F1F1F1" height="2" style="stroke:#181818;stroke-width:0.5;" width="4" x="2862.89" y="163.111"/><text fill="#000000" font-family="sans-serif" font-size="14" lengthAdjust="spacing" textLength="74.5527" x="2785.3372" y="185.6462">WLAN AP 8</text></g><!--entity WLAN AP 9--><g class="entity" data-entity="WLAN AP 9" data-source-line="24" data-uid="ent0043" id="entity_WLAN AP 9"><rect fill="#F1F1F1" height="46.4883" rx="2.5" ry="2.5" style="stroke:#181818;stroke-width:0.5;" width="114.5527" x="2920.3372" y="152.111"/><rect fill="#F1F1F1" height="10" style="stroke:#181818;stroke-width:0.5;" width="15" x="3014.89" y="157.111"/><rect fill="#F1F1F1" height="2" style="stroke:#181818;stroke-width:0.5;" width="4" x="3012.89" y="159.111"/><rect fill="#F1F1F1" height="2" style="stroke:#181818;stroke-width:0.5;" width="4" x="3012.89" y="163.111"/><text fill="#000000" font-family="sans-serif" font-size="14" lengthAdjust="spacing" textLength="74.5527" x="2935.3372" y="185.6462">WLAN AP 9</text></g><!--entity WLAN AP 10--><g class="entity" data-entity="WLAN AP 10" data-source-line="25" data-uid="ent0045" id="entity_WLAN AP 10"><rect fill="#F1F1F1" height="46.4883" rx="2.5" ry="2.5" style="stroke:#181818;stroke-width:0.5;" width="123.4053" x="3069.9172" y="152.111"/><rect fill="#F1F1F1" height="10" style="stroke:#181818;stroke-width:0.5;" width="15" x="3173.3225" y="157.111"/><rect fill="#F1F1F1" height="2" style="stroke:#181818;stroke-width:0.5;" width="4" x="3171.3225" y="159.111"/><rect fill="#F1F1F1" height="2" style="stroke:#181818;stroke-width:0.5;" width="4" x="3171.3225" y="163.111"/><text fill="#000000" font-family="sans-serif" font-size="14" lengthAdjust="spacing" textLength="83.4053" x="3084.9172" y="185.6462">WLAN AP 10</text></g><!--entity Router ISP--><g class="entity" data-entity="Router ISP" data-source-line="4" data-uid="ent0004" id="entity_Router ISP"><rect fill="#F1F1F1" height="46.4883" rx="2.5" ry="2.5" style="stroke:#181818;stroke-width:0.5;" width="108.6465" x="278.2972" y="45.621"/><rect fill="#F1F1F1" height="10" style="stroke:#181818;stroke-width:0.5;" width="15" x="366.9437" y="50.621"/><rect fill="#F1F1F1" height="2" style="stroke:#181818;stroke-width:0.5;" width="4" x="364.9437" y="52.621"/><rect fill="#F1F1F1" height="2" style="stroke:#181818;stroke-width:0.5;" width="4" x="364.9437" y="56.621"/><text fill="#000000" font-family="sans-serif" font-size="14" lengthAdjust="spacing" textLength="68.6465" x="293.2972" y="79.1562">Router ISP</text></g><!--entity Firewall--><g class="entity" data-entity="Firewall" data-source-line="5" data-uid="ent0006" id="entity_Firewall"><rect fill="#F1F1F1" height="46.4883" rx="2.5" ry="2.5" style="stroke:#181818;stroke-width:0.5;" width="91.6934" x="421.7672" y="45.621"/><rect fill="#F1F1F1" height="10" style="stroke:#181818;stroke-width:0.5;" width="15" x="493.4606" y="50.621"/><rect fill="#F1F1F1" height="2" style="stroke:#181818;stroke-width:0.5;" width="4" x="491.4606" y="52.621"/><rect fill="#F1F1F1" height="2" style="stroke:#181818;stroke-width:0.5;" width="4" x="491.4606" y="56.621"/><text fill="#000000" font-family="sans-serif" font-size="14" lengthAdjust="spacing" textLength="51.6934" x="436.7672" y="79.1562">Firewall</text></g><!--link Internet Service Provider  to Router ISP--><g class="link" data-entity-1="Internet Service Provider " data-entity-2="Router ISP" data-source-line="4" data-uid="lnk5" id="link_Internet Service Provider _Router ISP"><path d="M243.5772,68.871 C255.0572,68.871 266.5272,68.871 278.0072,68.871" fill="none" id="Internet Service Provider -Router ISP" style="stroke:#181818;stroke-width:1;"/></g><!--link Router ISP to Firewall--><g class="link" data-entity-1="Router ISP" data-entity-2="Firewall" data-source-line="5" data-uid="lnk7" id="link_Router ISP_Firewall"><path d="M387.1972,68.871 C398.6072,68.871 410.0272,68.871 421.4372,68.871" fill="none" id="Router ISP-Firewall" style="stroke:#181818;stroke-width:1;"/></g><!--link Firewall to Router fe80::1/64--><g class="link" data-entity-1="Firewall" data-entity-2="Router fe80::1/64" data-source-line="7" data-uid="lnk10" id="link_Firewall_Router fe80::1/64"><path d="M513.9372,68.871 C530.2772,68.871 546.6072,68.871 562.9472,68.871" fill="none" id="Firewall-Router fe80::1/64" style="stroke:#181818;stroke-width:1;"/></g><!--link Router fe80::1/64 to Switch 1--><g class="link" data-entity-1="Router fe80::1/64" data-entity-2="Switch 1" data-source-line="8" data-uid="lnk12" id="link_Router fe80::1/64_Switch 1"><path d="M726.1772,68.871 C742.7172,68.871 759.2472,68.871 775.7872,68.871" fill="none" id="Router fe80::1/64-Switch 1" style="stroke:#181818;stroke-width:1;"/></g><!--link Switch 1 to DHCPv6-Server--><g class="link" data-entity-1="Switch 1" data-entity-2="DHCPv6-Server" data-source-line="9" data-uid="lnk14" id="link_Switch 1_DHCPv6-Server"><path d="M786.6672,92.431 C773.2072,100.191 757.8672,108.771 743.6172,116.111 C719.5172,128.531 692.2672,141.281 669.2872,151.681" fill="none" id="Switch 1-DHCPv6-Server" style="stroke:#181818;stroke-width:1;"/></g><!--link Switch 1 to DNS-Server fe80::5 /64--><g class="link" data-entity-1="Switch 1" data-entity-2="DNS-Server fe80::5 /64" data-source-line="10" data-uid="lnk16" id="link_Switch 1_DNS-Server fe80::5 /64"><path d="M824.6172,92.541 C824.6172,110.071 824.6172,134.211 824.6172,151.731" fill="none" id="Switch 1-DNS-Server fe80::5 /64" style="stroke:#181818;stroke-width:1;"/></g><!--link Switch 1 to Datei-Server fe80::6--><g class="link" data-entity-1="Switch 1" data-entity-2="Datei-Server fe80::6" data-source-line="11" data-uid="lnk18" id="link_Switch 1_Datei-Server fe80::6"><path d="M873.2172,92.541 C910.7972,110.071 962.5572,134.211 1000.1072,151.731" fill="none" id="Switch 1-Datei-Server fe80::6" style="stroke:#181818;stroke-width:1;"/></g><!--link Switch 1 to Switch 2--><g class="link" data-entity-1="Switch 1" data-entity-2="Switch 2" data-source-line="12" data-uid="lnk20" id="link_Switch 1_Switch 2"><path d="M873.2472,68.871 C1283.4672,68.871 1693.6772,68.871 2103.8872,68.871" fill="none" id="Switch 1-Switch 2" style="stroke:#181818;stroke-width:1;"/></g><!--link Switch 2 to Computer 1--><g class="link" data-entity-1="Switch 2" data-entity-2="Computer 1" data-source-line="13" data-uid="lnk22" id="link_Switch 2_Computer 1"><path d="M2103.7672,71.561 C1973.7172,76.721 1608.5972,95.551 1310.6172,152.111 C1304.9472,153.191 1299.0872,154.491 1293.2572,155.921" fill="none" id="Switch 2-Computer 1" style="stroke:#181818;stroke-width:1;"/></g><!--link Switch 2 to Netzwerdrucker 1--><g class="link" data-entity-1="Switch 2" data-entity-2="Netzwerdrucker 1" data-source-line="14" data-uid="lnk24" id="link_Switch 2_Netzwerdrucker 1"><path d="M2103.7472,74.461 C1995.6272,84.981 1728.1672,112.961 1506.6172,152.111 C1501.0372,153.101 1495.2872,154.191 1489.5072,155.351" fill="none" id="Switch 2-Netzwerdrucker 1" style="stroke:#181818;stroke-width:1;"/></g><!--link Switch 2 to Netzwerdrucker 2--><g class="link" data-entity-1="Switch 2" data-entity-2="Netzwerdrucker 2" data-source-line="15" data-uid="lnk26" id="link_Switch 2_Netzwerdrucker 2"><path d="M2103.8772,78.081 C2021.1572,92.171 1848.1072,122.321 1702.6172,152.111 C1697.0672,153.251 1691.3372,154.461 1685.5772,155.701" fill="none" id="Switch 2-Netzwerdrucker 2" style="stroke:#181818;stroke-width:1;"/></g><!--link Switch 2 to WLAN AP 1--><g class="link" data-entity-1="Switch 2" data-entity-2="WLAN AP 1" data-source-line="16" data-uid="lnk28" id="link_Switch 2_WLAN AP 1"><path d="M2103.9472,82.881 C2044.5272,98.841 1941.0272,126.881 1852.6172,152.111 C1846.9972,153.711 1841.1572,155.411 1835.3172,157.111" fill="none" id="Switch 2-WLAN AP 1" style="stroke:#181818;stroke-width:1;"/></g><!--link Switch 2 to WLAN AP 2--><g class="link" data-entity-1="Switch 2" data-entity-2="WLAN AP 2" data-source-line="17" data-uid="lnk30" id="link_Switch 2_WLAN AP 2"><path d="M2103.7972,92.541 C2066.0572,110.071 2014.0572,134.211 1976.3472,151.731" fill="none" id="Switch 2-WLAN AP 2" style="stroke:#181818;stroke-width:1;"/></g><!--link Switch 2 to WLAN AP 3--><g class="link" data-entity-1="Switch 2" data-entity-2="WLAN AP 3" data-source-line="18" data-uid="lnk32" id="link_Switch 2_WLAN AP 3"><path d="M2136.3472,92.541 C2123.7672,110.071 2106.4272,134.211 2093.8572,151.731" fill="none" id="Switch 2-WLAN AP 3" style="stroke:#181818;stroke-width:1;"/></g><!--link Switch 2 to WLAN AP 4--><g class="link" data-entity-1="Switch 2" data-entity-2="WLAN AP 4" data-source-line="19" data-uid="lnk34" id="link_Switch 2_WLAN AP 4"><path d="M2168.8872,92.541 C2181.4672,110.071 2198.8072,134.211 2211.3772,151.731" fill="none" id="Switch 2-WLAN AP 4" style="stroke:#181818;stroke-width:1;"/></g><!--link Switch 2 to WLAN AP 5--><g class="link" data-entity-1="Switch 2" data-entity-2="WLAN AP 5" data-source-line="20" data-uid="lnk36" id="link_Switch 2_WLAN AP 5"><path d="M2201.4372,92.541 C2239.1772,110.071 2291.1772,134.211 2328.8872,151.731" fill="none" id="Switch 2-WLAN AP 5" style="stroke:#181818;stroke-width:1;"/></g><!--link Switch 2 to WLAN AP 6--><g class="link" data-entity-1="Switch 2" data-entity-2="WLAN AP 6" data-source-line="21" data-uid="lnk38" id="link_Switch 2_WLAN AP 6"><path d="M2201.2872,82.881 C2260.7072,98.841 2364.2072,126.881 2452.6172,152.111 C2458.2372,153.711 2464.0772,155.411 2469.9172,157.111" fill="none" id="Switch 2-WLAN AP 6" style="stroke:#181818;stroke-width:1;"/></g><!--link Switch 2 to WLAN AP 7--><g class="link" data-entity-1="Switch 2" data-entity-2="WLAN AP 7" data-source-line="22" data-uid="lnk40" id="link_Switch 2_WLAN AP 7"><path d="M2201.2572,77.001 C2284.1772,89.551 2457.9772,117.551 2602.6172,152.111 C2608.2972,153.471 2614.1872,155.001 2620.0472,156.601" fill="none" id="Switch 2-WLAN AP 7" style="stroke:#181818;stroke-width:1;"/></g><!--link Switch 2 to WLAN AP 8--><g class="link" data-entity-1="Switch 2" data-entity-2="WLAN AP 8" data-source-line="23" data-uid="lnk42" id="link_Switch 2_WLAN AP 8"><path d="M2201.2672,74.011 C2303.9772,83.291 2550.1372,108.471 2752.6172,152.111 C2758.3272,153.341 2764.2372,154.791 2770.1072,156.341" fill="none" id="Switch 2-WLAN AP 8" style="stroke:#181818;stroke-width:1;"/></g><!--link Switch 2 to WLAN AP 9--><g class="link" data-entity-1="Switch 2" data-entity-2="WLAN AP 9" data-source-line="24" data-uid="lnk44" id="link_Switch 2_WLAN AP 9"><path d="M2201.3372,72.181 C2321.5072,78.551 2641.3072,99.471 2902.6172,152.111 C2908.3472,153.261 2914.2572,154.661 2920.1472,156.181" fill="none" id="Switch 2-WLAN AP 9" style="stroke:#181818;stroke-width:1;"/></g><!--link Switch 2 to WLAN AP 10--><g class="link" data-entity-1="Switch 2" data-entity-2="WLAN AP 10" data-source-line="25" data-uid="lnk46" id="link_Switch 2_WLAN AP 10"><path d="M2201.3372,71.181 C2337.1872,75.531 2731.3172,92.721 3052.6172,152.111 C3058.2172,153.151 3064.0072,154.401 3069.7672,155.781" fill="none" id="Switch 2-WLAN AP 10" style="stroke:#181818;stroke-width:1;"/></g><!--SRC=[ZPBFRe9048Vl-nJp0gHY5QqtOjEKf2543ZsOZI7Bg1ifcCa2JPk-UzU2-0ydtTjllszdPZUhig9C8SWDKeu6lWNOjUnoZ5HfXH1HKUaK2QJu4HnsOBaeIeiXY2CfpWDOzg89woJBf21K9iat6K8GLTugHFDL8-tsX6lzsOnnbE5KT8tJmMpcFdWZsKnwkt-mureRjGMtbRe8ZeNFhtFRqJdCZjHlX76Bsy9ZE7MyKXE3-bBsRiKk32_Pi2aoBpxsVzTmUt7xDYcLQlTVgR_H-viVWX_TAN6a_Db7bevOEcQfnz89IwSiVU9VOo25_TQ_]--></g></svg>