<?xml version="1.0" encoding="us-ascii" standalone="no"?><svg xmlns="http://www.w3.org/2000/svg" xmlns:xlink="http://www.w3.org/1999/xlink" contentStyleType="text/css" height="697px" preserveAspectRatio="none" style="width:3021px;height:697px;background:#FFFFFF;" version="1.1" viewBox="0 0 3021 697" width="3021px" zoomAndPan="magnify"><defs/><g><!--cluster routes--><g id="cluster_routes"><path d="M8.5,260.36 L55.5,260.36 A3.75,3.75 0 0 1 58,262.86 L65,282.8483 L961.5,282.8483 A2.5,2.5 0 0 1 964,285.3483 L964,546.92 A2.5,2.5 0 0 1 961.5,549.42 L8.5,549.42 A2.5,2.5 0 0 1 6,546.92 L6,262.86 A2.5,2.5 0 0 1 8.5,260.36 " fill="none" style="stroke:#000000;stroke-width:1.5;"/><line style="stroke:#000000;stroke-width:1.5;" x1="6" x2="65" y1="282.8483" y2="282.8483"/><text fill="#000000" font-family="sans-serif" font-size="14" font-weight="bold" lengthAdjust="spacing" textLength="46" x="10" y="275.8952">routes</text><text fill="#000000" font-family="sans-serif" font-size="14" font-style="italic" lengthAdjust="spacing" textLength="72" x="453" y="298.3834">&#171;Modules&#187;</text></g><!--cluster api_connect--><g id="cluster_api_connect"><path d="M32.5,319.36 L117.5,319.36 A3.75,3.75 0 0 1 120,321.86 L127,341.8483 L937.5,341.8483 A2.5,2.5 0 0 1 940,344.3483 L940,522.92 A2.5,2.5 0 0 1 937.5,525.42 L32.5,525.42 A2.5,2.5 0 0 1 30,522.92 L30,321.86 A2.5,2.5 0 0 1 32.5,319.36 " fill="none" style="stroke:#000000;stroke-width:1.5;"/><line style="stroke:#000000;stroke-width:1.5;" x1="30" x2="127" y1="341.8483" y2="341.8483"/><text fill="#000000" font-family="sans-serif" font-size="14" font-weight="bold" lengthAdjust="spacing" textLength="84" x="34" y="334.8952">api_connect</text><text fill="#000000" font-family="sans-serif" font-size="14" font-style="italic" lengthAdjust="spacing" textLength="57" x="460.5" y="357.3834">&#171;Modul&#187;</text></g><!--cluster group--><g id="cluster_group"><path d="M990.5,6 L1033.5,6 A3.75,3.75 0 0 1 1036,8.5 L1043,28.4883 L3011.5,28.4883 A2.5,2.5 0 0 1 3014,30.9883 L3014,498.19 A2.5,2.5 0 0 1 3011.5,500.69 L990.5,500.69 A2.5,2.5 0 0 1 988,498.19 L988,8.5 A2.5,2.5 0 0 1 990.5,6 " fill="none" style="stroke:#000000;stroke-width:1.5;"/><line style="stroke:#000000;stroke-width:1.5;" x1="988" x2="1043" y1="28.4883" y2="28.4883"/><text fill="#000000" font-family="sans-serif" font-size="14" font-weight="bold" lengthAdjust="spacing" textLength="42" x="992" y="21.5352">group</text><text fill="#000000" font-family="sans-serif" font-size="14" font-style="italic" lengthAdjust="spacing" textLength="72" x="1969" y="44.0234">&#171;Modules&#187;</text></g><!--cluster mod--><g id="cluster_mod"><path d="M1551.5,65 L1584.5,65 A3.75,3.75 0 0 1 1587,67.5 L1594,87.4883 L1880.5,87.4883 A2.5,2.5 0 0 1 1883,89.9883 L1883,202.61 A2.5,2.5 0 0 1 1880.5,205.11 L1551.5,205.11 A2.5,2.5 0 0 1 1549,202.61 L1549,67.5 A2.5,2.5 0 0 1 1551.5,65 " fill="none" style="stroke:#000000;stroke-width:1.5;"/><line style="stroke:#000000;stroke-width:1.5;" x1="1549" x2="1594" y1="87.4883" y2="87.4883"/><text fill="#000000" font-family="sans-serif" font-size="14" font-weight="bold" lengthAdjust="spacing" textLength="32" x="1553" y="80.5352">mod</text><text fill="#000000" font-family="sans-serif" font-size="14" font-style="italic" lengthAdjust="spacing" textLength="72" x="1684" y="103.0234">&#171;Modules&#187;</text></g><!--cluster entities--><g id="cluster_entities"><path d="M1281.5,582.42 L1337.5,582.42 A3.75,3.75 0 0 1 1340,584.92 L1347,604.9083 L1892.5,604.9083 A2.5,2.5 0 0 1 1895,607.4083 L1895,687.54 A2.5,2.5 0 0 1 1892.5,690.04 L1281.5,690.04 A2.5,2.5 0 0 1 1279,687.54 L1279,584.92 A2.5,2.5 0 0 1 1281.5,582.42 " fill="none" style="stroke:#000000;stroke-width:1.5;"/><line style="stroke:#000000;stroke-width:1.5;" x1="1279" x2="1347" y1="604.9083" y2="604.9083"/><text fill="#000000" font-family="sans-serif" font-size="14" font-weight="bold" lengthAdjust="spacing" textLength="55" x="1283" y="597.9552">entities</text></g><!--class BeamRequestTask--><g id="elem_BeamRequestTask"><rect codeLine="8" fill="#F1F1F1" height="139.0625" id="BeamRequestTask" rx="2.5" ry="2.5" style="stroke:#181818;stroke-width:0.5;" width="879" x="45.5" y="370.36"/><ellipse cx="418.75" cy="390.6705" fill="#FF7700" rx="11" ry="11" style="stroke:#181818;stroke-width:1.0;"/><path d="M418.4834,391.7335 Q416.6323,391.028 415.9766,390.2518 Q415.3208,389.4757 415.3208,388.1642 Q415.3208,386.4791 416.3999,385.5162 Q417.479,384.5534 419.3633,384.5534 Q420.2183,384.5534 421.0732,384.7484 Q421.9282,384.9435 422.7666,385.3253 L422.7666,387.716 Q421.978,387.1598 421.1646,386.8693 Q420.3511,386.5787 419.5542,386.5787 Q418.666,386.5787 418.1929,386.9357 Q417.7197,387.2926 417.7197,387.9567 Q417.7197,388.4713 418.0642,388.8075 Q418.4087,389.1437 419.5044,389.5504 L420.5586,389.9489 Q422.0527,390.4967 422.7583,391.4015 Q423.4639,392.3063 423.4639,393.6842 Q423.4639,395.5602 422.3557,396.4857 Q421.2476,397.4113 419.0063,397.4113 Q418.085,397.4113 417.1594,397.1913 Q416.2339,396.9713 415.3706,396.5397 L415.3706,394.0079 Q416.3501,394.7052 417.2673,395.0455 Q418.1846,395.3859 419.0811,395.3859 Q419.9858,395.3859 420.4839,394.975 Q420.9819,394.5641 420.9819,393.8253 Q420.9819,393.2692 420.6499,392.85 Q420.3179,392.4308 419.687,392.1901 Z " fill="#000000"/><text fill="#000000" font-family="sans-serif" font-size="12" font-style="italic" lengthAdjust="spacing" textLength="44" x="479.25" y="386.9616">&#171;Struct&#187;</text><text fill="#000000" font-family="sans-serif" font-size="14" lengthAdjust="spacing" textLength="124" x="439.25" y="403.028">BeamRequestTask</text><line style="stroke:#181818;stroke-width:0.5;" x1="46.5" x2="923.5" y1="410.9811" y2="410.9811"/><line style="stroke:#181818;stroke-width:1.0;" x1="46.5" x2="923.5" y1="418.9811" y2="418.9811"/><ellipse cx="56.5" cy="432.7252" fill="#84BE84" rx="3" ry="3" style="stroke:#038048;stroke-width:1.0;"/><text fill="#000000" font-family="sans-serif" font-size="14" lengthAdjust="spacing" textLength="843" x="65.5" y="436.5162">read_overview_day(Query(query_day): Query&lt;GetTimestamp&gt;): Result&lt;Json&lt;Vec&lt;EntryRelatedData&gt;&gt;, Json&lt;ErrorType&gt;&gt;</text><ellipse cx="56.5" cy="449.2135" fill="#84BE84" rx="3" ry="3" style="stroke:#038048;stroke-width:1.0;"/><text fill="#000000" font-family="sans-serif" font-size="14" lengthAdjust="spacing" textLength="557" x="65.5" y="453.0045">joinroom(Path(id): Path&lt;i32&gt;): Result&lt;Json&lt;ResponseType&gt;, Json&lt;ErrorType&gt;&gt;</text><ellipse cx="56.5" cy="465.7018" fill="#84BE84" rx="3" ry="3" style="stroke:#038048;stroke-width:1.0;"/><text fill="#000000" font-family="sans-serif" font-size="14" lengthAdjust="spacing" textLength="853" x="65.5" y="469.4928">joinrooms(Path(entry_id): Path&lt;i32&gt;, Json(payload): Json&lt;Vec&lt;String&gt;&gt;): Result&lt;Json&lt;ResponseType&gt;, Json&lt;ErrorType&gt;&gt;</text><ellipse cx="56.5" cy="482.1901" fill="#84BE84" rx="3" ry="3" style="stroke:#038048;stroke-width:1.0;"/><text fill="#000000" font-family="sans-serif" font-size="14" lengthAdjust="spacing" textLength="659" x="65.5" y="485.9811">delete_participant(Path(entry_id): Path&lt;i32&gt;): Result&lt;Json&lt;ResponseType&gt;, Json&lt;ErrorType&gt;&gt;</text><ellipse cx="56.5" cy="498.6784" fill="#84BE84" rx="3" ry="3" style="stroke:#038048;stroke-width:1.0;"/><text fill="#000000" font-family="sans-serif" font-size="14" lengthAdjust="spacing" textLength="246" x="65.5" y="502.4694">get_user(): Json&lt;std::string::String&gt;</text></g><!--class read--><g id="elem_read"><rect codeLine="19" fill="#F1F1F1" height="89.5977" id="read" rx="2.5" ry="2.5" style="stroke:#181818;stroke-width:0.5;" width="685" x="1004.5" y="395.09"/><ellipse cx="1317.75" cy="415.4005" fill="#6A3100" rx="11" ry="11" style="stroke:#181818;stroke-width:1.0;"/><path d="M1313.4639,409.5075 L1316.3857,409.5075 L1317.8633,414.9445 L1319.3325,409.5075 L1322.271,409.5075 L1322.271,421.9005 L1320.1626,421.9005 L1320.1626,411.9728 L1318.8511,417.3932 L1316.9004,417.3932 L1315.5723,411.9728 L1315.5723,421.9005 L1313.4639,421.9005 Z " fill="#000000"/><text fill="#000000" font-family="sans-serif" font-size="12" font-style="italic" lengthAdjust="spacing" textLength="54" x="1336.25" y="411.6916">&#171;Module&#187;</text><text fill="#000000" font-family="sans-serif" font-size="14" lengthAdjust="spacing" textLength="31" x="1347.75" y="427.758">read</text><line style="stroke:#181818;stroke-width:0.5;" x1="1005.5" x2="1688.5" y1="435.7111" y2="435.7111"/><line style="stroke:#181818;stroke-width:1.0;" x1="1005.5" x2="1688.5" y1="443.7111" y2="443.7111"/><ellipse cx="1015.5" cy="457.4552" fill="#84BE84" rx="3" ry="3" style="stroke:#038048;stroke-width:1.0;"/><text fill="#000000" font-family="sans-serif" font-size="14" lengthAdjust="spacing" textLength="659" x="1024.5" y="461.2463">get_overview_day(db, customday: Option&lt;String&gt;): Result&lt;Vec&lt;EntryRelatedData&gt;, ErrorType&gt;</text><text fill="#000000" font-family="sans-serif" font-size="14" lengthAdjust="spacing" textLength="4" x="1024.5" y="477.7345">&#160;</text></g><!--class create--><g id="elem_create"><rect codeLine="24" fill="#F1F1F1" height="89.5977" id="create" rx="2.5" ry="2.5" style="stroke:#181818;stroke-width:0.5;" width="720" x="1725" y="395.09"/><ellipse cx="2055.75" cy="415.4005" fill="#6A3100" rx="11" ry="11" style="stroke:#181818;stroke-width:1.0;"/><path d="M2051.4639,409.5075 L2054.3857,409.5075 L2055.8633,414.9445 L2057.3325,409.5075 L2060.271,409.5075 L2060.271,421.9005 L2058.1626,421.9005 L2058.1626,411.9728 L2056.8511,417.3932 L2054.9004,417.3932 L2053.5723,411.9728 L2053.5723,421.9005 L2051.4639,421.9005 Z " fill="#000000"/><text fill="#000000" font-family="sans-serif" font-size="12" font-style="italic" lengthAdjust="spacing" textLength="54" x="2074.25" y="411.6916">&#171;Module&#187;</text><text fill="#000000" font-family="sans-serif" font-size="14" lengthAdjust="spacing" textLength="42" x="2080.25" y="427.758">create</text><line style="stroke:#181818;stroke-width:0.5;" x1="1726" x2="2444" y1="435.7111" y2="435.7111"/><line style="stroke:#181818;stroke-width:1.0;" x1="1726" x2="2444" y1="443.7111" y2="443.7111"/><ellipse cx="1736" cy="457.4552" fill="#84BE84" rx="3" ry="3" style="stroke:#038048;stroke-width:1.0;"/><text fill="#000000" font-family="sans-serif" font-size="14" lengthAdjust="spacing" textLength="551" x="1745" y="461.2463">post_joinroom(db, entry_id: i32, user_name): Result&lt;ResponseType, ErrorType&gt;</text><ellipse cx="1736" cy="473.9435" fill="#84BE84" rx="3" ry="3" style="stroke:#038048;stroke-width:1.0;"/><text fill="#000000" font-family="sans-serif" font-size="14" lengthAdjust="spacing" textLength="694" x="1745" y="477.7345">post_joinrooms(db, room_id: i32, days: Vec&lt;String&gt;, user_name): Result&lt;ResponseType, ErrorType&gt;</text></g><!--class delete--><g id="elem_delete"><rect codeLine="29" fill="#F1F1F1" height="73.1094" id="delete" rx="2.5" ry="2.5" style="stroke:#181818;stroke-width:0.5;" width="517" x="2480.5" y="403.33"/><ellipse cx="2709.75" cy="423.6405" fill="#6A3100" rx="11" ry="11" style="stroke:#181818;stroke-width:1.0;"/><path d="M2705.4639,417.7475 L2708.3857,417.7475 L2709.8633,423.1845 L2711.3325,417.7475 L2714.271,417.7475 L2714.271,430.1405 L2712.1626,430.1405 L2712.1626,420.2128 L2710.8511,425.6332 L2708.9004,425.6332 L2707.5723,420.2128 L2707.5723,430.1405 L2705.4639,430.1405 Z " fill="#000000"/><text fill="#000000" font-family="sans-serif" font-size="12" font-style="italic" lengthAdjust="spacing" textLength="54" x="2728.25" y="419.9316">&#171;Module&#187;</text><text fill="#000000" font-family="sans-serif" font-size="14" lengthAdjust="spacing" textLength="42" x="2734.25" y="435.998">delete</text><line style="stroke:#181818;stroke-width:0.5;" x1="2481.5" x2="2996.5" y1="443.9511" y2="443.9511"/><line style="stroke:#181818;stroke-width:1.0;" x1="2481.5" x2="2996.5" y1="451.9511" y2="451.9511"/><ellipse cx="2491.5" cy="465.6952" fill="#84BE84" rx="3" ry="3" style="stroke:#038048;stroke-width:1.0;"/><text fill="#000000" font-family="sans-serif" font-size="14" lengthAdjust="spacing" textLength="491" x="2500.5" y="469.4863">delete_participant(db, entry_id: i32): Result&lt;ResponseType, ErrorType&gt;</text></g><!--class BeamBackendConnector--><g id="elem_BeamBackendConnector"><rect codeLine="34" fill="#F1F1F1" height="73.1094" id="BeamBackendConnector" rx="2.5" ry="2.5" style="stroke:#181818;stroke-width:0.5;" width="302" x="1565" y="116"/><ellipse cx="1628.75" cy="136.3105" fill="#FF7700" rx="11" ry="11" style="stroke:#181818;stroke-width:1.0;"/><path d="M1628.4834,137.3735 Q1626.6323,136.668 1625.9766,135.8918 Q1625.3208,135.1157 1625.3208,133.8042 Q1625.3208,132.1191 1626.3999,131.1563 Q1627.479,130.1934 1629.3633,130.1934 Q1630.2183,130.1934 1631.0732,130.3884 Q1631.9282,130.5835 1632.7666,130.9653 L1632.7666,133.356 Q1631.978,132.7998 1631.1646,132.5093 Q1630.3511,132.2188 1629.5542,132.2188 Q1628.666,132.2188 1628.1929,132.5757 Q1627.7197,132.9326 1627.7197,133.5967 Q1627.7197,134.1113 1628.0642,134.4475 Q1628.4087,134.7837 1629.5044,135.1904 L1630.5586,135.5889 Q1632.0527,136.1367 1632.7583,137.0415 Q1633.4639,137.9463 1633.4639,139.3242 Q1633.4639,141.2002 1632.3557,142.1257 Q1631.2476,143.0513 1629.0063,143.0513 Q1628.085,143.0513 1627.1594,142.8313 Q1626.2339,142.6113 1625.3706,142.1797 L1625.3706,139.6479 Q1626.3501,140.3452 1627.2673,140.6855 Q1628.1846,141.0259 1629.0811,141.0259 Q1629.9858,141.0259 1630.4839,140.615 Q1630.9819,140.2041 1630.9819,139.4653 Q1630.9819,138.9092 1630.6499,138.49 Q1630.3179,138.0708 1629.687,137.8301 Z " fill="#000000"/><text fill="#000000" font-family="sans-serif" font-size="12" font-style="italic" lengthAdjust="spacing" textLength="44" x="1710.25" y="132.6016">&#171;Struct&#187;</text><text fill="#000000" font-family="sans-serif" font-size="14" lengthAdjust="spacing" textLength="166" x="1649.25" y="148.668">BeamBackendConnector</text><line style="stroke:#181818;stroke-width:0.5;" x1="1566" x2="1866" y1="156.6211" y2="156.6211"/><line style="stroke:#181818;stroke-width:1.0;" x1="1566" x2="1866" y1="164.6211" y2="164.6211"/><ellipse cx="1576" cy="178.3652" fill="#84BE84" rx="3" ry="3" style="stroke:#038048;stroke-width:1.0;"/><text fill="#000000" font-family="sans-serif" font-size="14" lengthAdjust="spacing" textLength="276" x="1585" y="182.1563">process_task(db: &amp;DatabaseConnection)</text></g><!--class mrbs_area--><g id="elem_mrbs_area"><rect codeLine="42" fill="#F1F1F1" height="56.6211" id="mrbs_area" rx="2.5" ry="2.5" style="stroke:#181818;stroke-width:0.5;" width="104" x="1295" y="617.42"/><ellipse cx="1310" cy="637.7305" fill="#6A3100" rx="11" ry="11" style="stroke:#181818;stroke-width:1.0;"/><path d="M1305.7139,631.8375 L1308.6357,631.8375 L1310.1133,637.2745 L1311.5825,631.8375 L1314.521,631.8375 L1314.521,644.2305 L1312.4126,644.2305 L1312.4126,634.3028 L1311.1011,639.7232 L1309.1504,639.7232 L1307.8223,634.3028 L1307.8223,644.2305 L1305.7139,644.2305 Z " fill="#000000"/><text fill="#000000" font-family="sans-serif" font-size="12" font-style="italic" lengthAdjust="spacing" textLength="54" x="1333" y="634.0216">&#171;Module&#187;</text><text fill="#000000" font-family="sans-serif" font-size="14" lengthAdjust="spacing" textLength="72" x="1324" y="650.088">mrbs_area</text><line style="stroke:#181818;stroke-width:0.5;" x1="1296" x2="1398" y1="658.0411" y2="658.0411"/><line style="stroke:#181818;stroke-width:0.5;" x1="1296" x2="1398" y1="666.0411" y2="666.0411"/></g><!--class mrbs_room--><g id="elem_mrbs_room"><rect codeLine="43" fill="#F1F1F1" height="56.6211" id="mrbs_room" rx="2.5" ry="2.5" style="stroke:#181818;stroke-width:0.5;" width="111" x="1433.5" y="617.42"/><ellipse cx="1448.5" cy="637.7305" fill="#6A3100" rx="11" ry="11" style="stroke:#181818;stroke-width:1.0;"/><path d="M1444.2139,631.8375 L1447.1357,631.8375 L1448.6133,637.2745 L1450.0825,631.8375 L1453.021,631.8375 L1453.021,644.2305 L1450.9126,644.2305 L1450.9126,634.3028 L1449.6011,639.7232 L1447.6504,639.7232 L1446.3223,634.3028 L1446.3223,644.2305 L1444.2139,644.2305 Z " fill="#000000"/><text fill="#000000" font-family="sans-serif" font-size="12" font-style="italic" lengthAdjust="spacing" textLength="54" x="1475" y="634.0216">&#171;Module&#187;</text><text fill="#000000" font-family="sans-serif" font-size="14" lengthAdjust="spacing" textLength="79" x="1462.5" y="650.088">mrbs_room</text><line style="stroke:#181818;stroke-width:0.5;" x1="1434.5" x2="1543.5" y1="658.0411" y2="658.0411"/><line style="stroke:#181818;stroke-width:0.5;" x1="1434.5" x2="1543.5" y1="666.0411" y2="666.0411"/></g><!--class mrbs_entry--><g id="elem_mrbs_entry"><rect codeLine="44" fill="#F1F1F1" height="56.6211" id="mrbs_entry" rx="2.5" ry="2.5" style="stroke:#181818;stroke-width:0.5;" width="109" x="1579.5" y="617.42"/><ellipse cx="1594.5" cy="637.7305" fill="#6A3100" rx="11" ry="11" style="stroke:#181818;stroke-width:1.0;"/><path d="M1590.2139,631.8375 L1593.1357,631.8375 L1594.6133,637.2745 L1596.0825,631.8375 L1599.021,631.8375 L1599.021,644.2305 L1596.9126,644.2305 L1596.9126,634.3028 L1595.6011,639.7232 L1593.6504,639.7232 L1592.3223,634.3028 L1592.3223,644.2305 L1590.2139,644.2305 Z " fill="#000000"/><text fill="#000000" font-family="sans-serif" font-size="12" font-style="italic" lengthAdjust="spacing" textLength="54" x="1620" y="634.0216">&#171;Module&#187;</text><text fill="#000000" font-family="sans-serif" font-size="14" lengthAdjust="spacing" textLength="77" x="1608.5" y="650.088">mrbs_entry</text><line style="stroke:#181818;stroke-width:0.5;" x1="1580.5" x2="1687.5" y1="658.0411" y2="658.0411"/><line style="stroke:#181818;stroke-width:0.5;" x1="1580.5" x2="1687.5" y1="666.0411" y2="666.0411"/></g><!--class mrbs_participants--><g id="elem_mrbs_participants"><rect codeLine="45" fill="#F1F1F1" height="56.6211" id="mrbs_participants" rx="2.5" ry="2.5" style="stroke:#181818;stroke-width:0.5;" width="155" x="1723.5" y="617.42"/><ellipse cx="1738.5" cy="637.7305" fill="#6A3100" rx="11" ry="11" style="stroke:#181818;stroke-width:1.0;"/><path d="M1734.2139,631.8375 L1737.1357,631.8375 L1738.6133,637.2745 L1740.0825,631.8375 L1743.021,631.8375 L1743.021,644.2305 L1740.9126,644.2305 L1740.9126,634.3028 L1739.6011,639.7232 L1737.6504,639.7232 L1736.3223,634.3028 L1736.3223,644.2305 L1734.2139,644.2305 Z " fill="#000000"/><text fill="#000000" font-family="sans-serif" font-size="12" font-style="italic" lengthAdjust="spacing" textLength="54" x="1787" y="634.0216">&#171;Module&#187;</text><text fill="#000000" font-family="sans-serif" font-size="14" lengthAdjust="spacing" textLength="123" x="1752.5" y="650.088">mrbs_participants</text><line style="stroke:#181818;stroke-width:0.5;" x1="1724.5" x2="1877.5" y1="658.0411" y2="658.0411"/><line style="stroke:#181818;stroke-width:0.5;" x1="1724.5" x2="1877.5" y1="666.0411" y2="666.0411"/></g><!--class servieces--><g id="elem_servieces"><rect codeLine="1" fill="#F1F1F1" height="89.5977" id="servieces" rx="2.5" ry="2.5" style="stroke:#181818;stroke-width:0.5;" width="217" x="376.5" y="107.76"/><ellipse cx="449.75" cy="128.0705" fill="#6A3100" rx="11" ry="11" style="stroke:#181818;stroke-width:1.0;"/><path d="M445.4639,122.1775 L448.3857,122.1775 L449.8633,127.6145 L451.3325,122.1775 L454.271,122.1775 L454.271,134.5705 L452.1626,134.5705 L452.1626,124.6428 L450.8511,130.0632 L448.9004,130.0632 L447.5723,124.6428 L447.5723,134.5705 L445.4639,134.5705 Z " fill="#000000"/><text fill="#000000" font-family="sans-serif" font-size="12" font-style="italic" lengthAdjust="spacing" textLength="54" x="474.25" y="124.3616">&#171;Module&#187;</text><text fill="#000000" font-family="sans-serif" font-size="14" lengthAdjust="spacing" textLength="62" x="470.25" y="140.428">servieces</text><line style="stroke:#181818;stroke-width:0.5;" x1="377.5" x2="592.5" y1="148.3811" y2="148.3811"/><line style="stroke:#181818;stroke-width:1.0;" x1="377.5" x2="592.5" y1="156.3811" y2="156.3811"/><ellipse cx="387.5" cy="170.1252" fill="#84BE84" rx="3" ry="3" style="stroke:#038048;stroke-width:1.0;"/><text fill="#000000" font-family="sans-serif" font-size="14" lengthAdjust="spacing" textLength="191" x="396.5" y="173.9163">front_public_route(): Router</text><ellipse cx="387.5" cy="186.6135" fill="#84BE84" rx="3" ry="3" style="stroke:#038048;stroke-width:1.0;"/><text fill="#000000" font-family="sans-serif" font-size="14" lengthAdjust="spacing" textLength="186" x="396.5" y="190.4045">back_token_route(): Router</text></g><!--link BeamBackendConnector to read--><g id="link_BeamBackendConnector_read"><path codeLine="49" d="M1669.64,189.41 C1602.18,241.57 1477.08,338.31 1404.05,394.77 " fill="none" id="BeamBackendConnector-read" style="stroke:#181818;stroke-width:1.0;"/><text fill="#000000" font-family="sans-serif" font-size="13" lengthAdjust="spacing" textLength="22" x="1618" y="240.9284">use</text></g><!--link BeamBackendConnector to create--><g id="link_BeamBackendConnector_create"><path codeLine="50" d="M1762.36,189.41 C1829.82,241.57 1954.92,338.31 2027.95,394.77 " fill="none" id="BeamBackendConnector-create" style="stroke:#181818;stroke-width:1.0;"/><text fill="#000000" font-family="sans-serif" font-size="13" lengthAdjust="spacing" textLength="22" x="1826" y="240.9284">use</text></g><!--link BeamBackendConnector to delete--><g id="link_BeamBackendConnector_delete"><path codeLine="51" d="M1867.29,165.31 C2053.26,181.19 2357.21,212.19 2463,252.36 C2555.72,287.57 2648.08,359.32 2698.95,402.84 " fill="none" id="BeamBackendConnector-delete" style="stroke:#181818;stroke-width:1.0;"/><text fill="#000000" font-family="sans-serif" font-size="13" lengthAdjust="spacing" textLength="22" x="2431" y="240.9284">use</text></g><!--link read to mrbs_area--><g id="link_read_mrbs_area"><path codeLine="52" d="M1347,485.12 C1347,525.28 1347,583.26 1347,617.17 " fill="none" id="read-mrbs_area" style="stroke:#181818;stroke-width:1.0;"/></g><!--link read to mrbs_room--><g id="link_read_mrbs_room"><path codeLine="53" d="M1377.81,485.12 C1405.79,525.28 1446.18,583.26 1469.8,617.17 " fill="none" id="read-mrbs_room" style="stroke:#181818;stroke-width:1.0;"/></g><!--link read to mrbs_entry--><g id="link_read_mrbs_entry"><path codeLine="54" d="M1427.37,485.17 C1469,509.48 1519.8,541.36 1562,574.42 C1578.5,587.35 1595.35,603.61 1608.6,617.23 " fill="none" id="read-mrbs_entry" style="stroke:#181818;stroke-width:1.0;"/></g><!--link read to mrbs_participants--><g id="link_read_mrbs_participants"><path codeLine="55" d="M1493.87,485.08 C1560.52,507.74 1639.2,538.22 1706,574.42 C1728.19,586.44 1750.99,603.14 1768.69,617.25 " fill="none" id="read-mrbs_participants" style="stroke:#181818;stroke-width:1.0;"/></g><!--link create to mrbs_participants--><g id="link_create_mrbs_participants"><path codeLine="56" d="M2023.38,485.12 C1967.42,525.28 1886.63,583.26 1839.4,617.17 " fill="none" id="create-mrbs_participants" style="stroke:#181818;stroke-width:1.0;"/></g><!--link create to mrbs_entry--><g id="link_create_mrbs_entry"><path codeLine="57" d="M1909.91,485.09 C1843.15,506.34 1768.21,535.75 1706,574.42 C1687.6,585.86 1670.13,602.71 1657.01,617.05 " fill="none" id="create-mrbs_entry" style="stroke:#181818;stroke-width:1.0;"/></g><!--link delete to mrbs_participants--><g id="link_delete_mrbs_participants"><path codeLine="58" d="M2668.53,476.87 C2613.84,503.24 2535.4,537.75 2463,557.42 C2256.6,613.5 2003.86,634.1 1878.77,641.23 " fill="none" id="delete-mrbs_participants" style="stroke:#181818;stroke-width:1.0;"/></g><!--link servieces to BeamRequestTask--><g id="link_servieces_BeamRequestTask"><path codeLine="59" d="M485,197.83 C485,243.85 485,316.5 485,370.03 " fill="none" id="servieces-BeamRequestTask" style="stroke:#181818;stroke-width:1.0;"/><text fill="#000000" font-family="sans-serif" font-size="13" lengthAdjust="spacing" textLength="22" x="486" y="240.9284">use</text></g><!--link BeamBackendConnector to BeamRequestTask--><g id="link_BeamBackendConnector_BeamRequestTask"><path codeLine="60" d="M1564.65,155.27 C1335.5,159.56 912.25,174.61 771,227.36 C688.12,258.3 608.44,320.85 554.34,369.94 " fill="none" id="BeamBackendConnector-BeamRequestTask" style="stroke:#181818;stroke-width:1.0;stroke-dasharray:7.0,7.0;"/><text fill="#000000" font-family="sans-serif" font-size="13" lengthAdjust="spacing" textLength="215" x="772" y="240.9284">communication over Samply.Beam</text></g><!--SRC=[fLLjQzim4FxkNo4Oh0vDGhV22iOOrgqT3Cgs9EohKEHRfiMML4dk22F_lIVPZfsNXcJL1rlMdUwUv_Jep0jcBR5WdWHmi2HDIVmm96y-VBn-TtKr80yghmh8Cl8l8ZX6e_2w9B-CaexgQbu8Jesg7CI3X4pyn936PyxuaZgr1Bdh4QqZZKQs018iFc-ToMPPdQcrCoqeLr82TwrJw-873_XlWPKJUAp0kXcpoy1YYYpkxszkF8kfCnLt6nRjQDYquv8OO3bLJw4QVsdELl6F2imgVlHF_uqCmahw1TnCb9YFbJhplC1MXKk_MYNJdy3JE-dCQW85Sv1_PevbsP04uvqnoinM6ckwa_oF4j8eLSRVcViTYnoZ-baghj_lPi2vLj92Y7DoO5j71W-DRiUlOyIQhGh5l6L314idv29x7O8S2d10DJDESA6PT2z3ULMY1JXQePhZbe9rUPBOm2596YwRFUkeVdPgNA0STL-CZM9gcNbvd7n3F9GjAUNp8U6LTQh4huHyqquWm0PJn_gWUeQaunpYHnt-6Xj7S0vEHgULTNIZE0-jFOk4u2aCYQyYbQo43bd_AFO0xOIq8QQVTI6Hjar8JrJdP-aphaLrCkC36joZVHQALZEboWyePhivtQ8loFnJtSYK-UyEfOt2DcsfmpQ7-1ForkjZpYmqiL5JWps1znIEV8KJs77xmYxDt5A62ZfIpVMklp_SS_n3fS_Pq3igUtGV4houG66PkP1v9HSaEbZpqIZSuCIhxaMF-XuTzscKLpk5fe2Bcnfkh_WgRQ-4EcmlzPb6pKq-nLQ7Qk0StD3zsT6yyviyGd8ytdVcgYmhAJZp6YE-jP4f_lsArTYxFWC0]--></g></svg>