<?xml version="1.0" encoding="UTF-8" standalone="no"?><svg xmlns="http://www.w3.org/2000/svg" xmlns:xlink="http://www.w3.org/1999/xlink" contentStyleType="text/css" height="150px" preserveAspectRatio="none" style="width:444px;height:150px;background:#FFFFFF;" version="1.1" viewBox="0 0 444 150" width="444px" zoomAndPan="magnify"><defs/><g><!--MD5=[94b216fe498429a71359deabdcabce8b]
class tblbenutzer--><g id="elem_tblbenutzer"><rect codeLine="1" fill="#F1F1F1" height="136.0469" id="tblbenutzer" rx="2.5" ry="2.5" style="stroke:#181818;stroke-width:0.5;" width="102" x="7" y="7"/><ellipse cx="22" cy="23" fill="#ADD1B2" rx="11" ry="11" style="stroke:#181818;stroke-width:1.0;"/><path d="M20.8594,23.7969 L20.8594,26.2969 L25.1875,26.2969 L25.1875,25.375 Q25.1875,24.7656 25.4219,24.5 Q25.6719,24.2344 26.0469,24.2344 Q26.4219,24.2344 26.6563,24.5 Q26.8906,24.7656 26.8906,25.375 L26.8906,28 L18.8906,28 Q18.2656,28 18,27.7656 Q17.75,27.5313 17.75,27.1406 Q17.75,26.7656 18.0156,26.5313 Q18.2813,26.2969 18.8906,26.2969 L19.1563,26.2969 L19.1563,19.6406 L18.8906,19.6406 Q18.2656,19.6406 18,19.4063 Q17.75,19.1719 17.75,18.7813 Q17.75,18.4063 18,18.1719 Q18.2656,17.9375 18.8906,17.9375 L26.5156,17.9375 L26.5156,20.5313 Q26.5156,21.1406 26.2813,21.4063 Q26.0625,21.6563 25.6719,21.6563 Q25.2969,21.6563 25.0625,21.4063 Q24.8281,21.1406 24.8281,20.5313 L24.8281,19.6406 L20.8594,19.6406 L20.8594,22.0938 L22.3438,22.0938 Q22.3438,21.4375 22.4688,21.25 Q22.7344,20.8438 23.2031,20.8438 Q23.5781,20.8438 23.8125,21.1094 Q24.0469,21.3594 24.0469,21.9688 L24.0469,23.9375 Q24.0469,24.4844 23.9219,24.6719 Q23.6563,25.0625 23.2031,25.0625 Q22.7344,25.0625 22.4688,24.6563 Q22.3438,24.4688 22.3438,23.7969 L20.8594,23.7969 Z " fill="#000000"/><text fill="#000000" font-family="sans-serif" font-size="14" lengthAdjust="spacing" textLength="70" x="36" y="28.7285">tblbenutzer</text><line style="stroke:#181818;stroke-width:0.5;" x1="8" x2="108" y1="39" y2="39"/><ellipse cx="18" cy="53.3047" fill="#000000" rx="3" ry="3" style="stroke:#000000;stroke-width:1.0;"/><text fill="#000000" font-family="sans-serif" font-size="14" lengthAdjust="spacing" textLength="19" x="27" y="57.5332">bid</text><line style="stroke:#181818;stroke-width:1.0;" x1="8" x2="108" y1="64.6094" y2="64.6094"/><ellipse cx="18" cy="78.9141" fill="#000000" rx="3" ry="3" style="stroke:#000000;stroke-width:1.0;"/><text fill="#000000" font-family="sans-serif" font-size="14" lengthAdjust="spacing" textLength="55" x="27" y="83.1426">vorname</text><ellipse cx="18" cy="96.5234" fill="#000000" rx="3" ry="3" style="stroke:#000000;stroke-width:1.0;"/><text fill="#000000" font-family="sans-serif" font-size="14" lengthAdjust="spacing" textLength="66" x="27" y="100.752">nachname</text><ellipse cx="18" cy="114.1328" fill="#000000" rx="3" ry="3" style="stroke:#000000;stroke-width:1.0;"/><text fill="#000000" font-family="sans-serif" font-size="14" lengthAdjust="spacing" textLength="30" x="27" y="118.3613">login</text><ellipse cx="18" cy="131.7422" fill="#000000" rx="3" ry="3" style="stroke:#000000;stroke-width:1.0;"/><text fill="#000000" font-family="sans-serif" font-size="14" lengthAdjust="spacing" textLength="60" x="27" y="135.9707">password</text></g><!--MD5=[8fdde12f0d25b84a02e0141b431367a1]
class tblmeldung--><g id="elem_tblmeldung"><rect codeLine="9" fill="#F1F1F1" height="136.0469" id="tblmeldung" rx="2.5" ry="2.5" style="stroke:#181818;stroke-width:0.5;" width="101" x="166.5" y="7"/><ellipse cx="181.5" cy="23" fill="#ADD1B2" rx="11" ry="11" style="stroke:#181818;stroke-width:1.0;"/><path d="M180.3594,23.7969 L180.3594,26.2969 L184.6875,26.2969 L184.6875,25.375 Q184.6875,24.7656 184.9219,24.5 Q185.1719,24.2344 185.5469,24.2344 Q185.9219,24.2344 186.1563,24.5 Q186.3906,24.7656 186.3906,25.375 L186.3906,28 L178.3906,28 Q177.7656,28 177.5,27.7656 Q177.25,27.5313 177.25,27.1406 Q177.25,26.7656 177.5156,26.5313 Q177.7813,26.2969 178.3906,26.2969 L178.6563,26.2969 L178.6563,19.6406 L178.3906,19.6406 Q177.7656,19.6406 177.5,19.4063 Q177.25,19.1719 177.25,18.7813 Q177.25,18.4063 177.5,18.1719 Q177.7656,17.9375 178.3906,17.9375 L186.0156,17.9375 L186.0156,20.5313 Q186.0156,21.1406 185.7813,21.4063 Q185.5625,21.6563 185.1719,21.6563 Q184.7969,21.6563 184.5625,21.4063 Q184.3281,21.1406 184.3281,20.5313 L184.3281,19.6406 L180.3594,19.6406 L180.3594,22.0938 L181.8438,22.0938 Q181.8438,21.4375 181.9688,21.25 Q182.2344,20.8438 182.7031,20.8438 Q183.0781,20.8438 183.3125,21.1094 Q183.5469,21.3594 183.5469,21.9688 L183.5469,23.9375 Q183.5469,24.4844 183.4219,24.6719 Q183.1563,25.0625 182.7031,25.0625 Q182.2344,25.0625 181.9688,24.6563 Q181.8438,24.4688 181.8438,23.7969 L180.3594,23.7969 Z " fill="#000000"/><text fill="#000000" font-family="sans-serif" font-size="14" lengthAdjust="spacing" textLength="69" x="195.5" y="28.7285">tblmeldung</text><line style="stroke:#181818;stroke-width:0.5;" x1="167.5" x2="266.5" y1="39" y2="39"/><ellipse cx="177.5" cy="53.3047" fill="#000000" rx="3" ry="3" style="stroke:#000000;stroke-width:1.0;"/><text fill="#000000" font-family="sans-serif" font-size="14" lengthAdjust="spacing" textLength="22" x="186.5" y="57.5332">mid</text><line style="stroke:#181818;stroke-width:1.0;" x1="167.5" x2="266.5" y1="64.6094" y2="64.6094"/><ellipse cx="177.5" cy="78.9141" fill="#000000" rx="3" ry="3" style="stroke:#000000;stroke-width:1.0;"/><text fill="#000000" font-family="sans-serif" font-size="14" lengthAdjust="spacing" textLength="54" x="186.5" y="83.1426">meldung</text><ellipse cx="177.5" cy="96.5234" fill="#000000" rx="3" ry="3" style="stroke:#000000;stroke-width:1.0;"/><text fill="#000000" font-family="sans-serif" font-size="14" lengthAdjust="spacing" textLength="42" x="186.5" y="100.752">erstellt</text><ellipse cx="177.5" cy="114.1328" fill="#000000" rx="3" ry="3" style="stroke:#000000;stroke-width:1.0;"/><text fill="#000000" font-family="sans-serif" font-size="14" lengthAdjust="spacing" textLength="23" x="186.5" y="118.3613">fbid</text><ellipse cx="177.5" cy="131.7422" fill="#000000" rx="3" ry="3" style="stroke:#000000;stroke-width:1.0;"/><text fill="#000000" font-family="sans-serif" font-size="14" lengthAdjust="spacing" textLength="22" x="186.5" y="135.9707">fsid</text></g><!--MD5=[54e203f05465af1f351c5177bd7a6cef]
class tblstatus--><g id="elem_tblstatus"><rect codeLine="17" fill="#F1F1F1" height="83.2188" id="tblstatus" rx="2.5" ry="2.5" style="stroke:#181818;stroke-width:0.5;" width="112" x="325" y="33.5"/><ellipse cx="352.15" cy="49.5" fill="#ADD1B2" rx="11" ry="11" style="stroke:#181818;stroke-width:1.0;"/><path d="M351.0094,50.2969 L351.0094,52.7969 L355.3375,52.7969 L355.3375,51.875 Q355.3375,51.2656 355.5719,51 Q355.8219,50.7344 356.1969,50.7344 Q356.5719,50.7344 356.8063,51 Q357.0406,51.2656 357.0406,51.875 L357.0406,54.5 L349.0406,54.5 Q348.4156,54.5 348.15,54.2656 Q347.9,54.0313 347.9,53.6406 Q347.9,53.2656 348.1656,53.0313 Q348.4313,52.7969 349.0406,52.7969 L349.3063,52.7969 L349.3063,46.1406 L349.0406,46.1406 Q348.4156,46.1406 348.15,45.9063 Q347.9,45.6719 347.9,45.2813 Q347.9,44.9063 348.15,44.6719 Q348.4156,44.4375 349.0406,44.4375 L356.6656,44.4375 L356.6656,47.0313 Q356.6656,47.6406 356.4313,47.9063 Q356.2125,48.1563 355.8219,48.1563 Q355.4469,48.1563 355.2125,47.9063 Q354.9781,47.6406 354.9781,47.0313 L354.9781,46.1406 L351.0094,46.1406 L351.0094,48.5938 L352.4938,48.5938 Q352.4938,47.9375 352.6188,47.75 Q352.8844,47.3438 353.3531,47.3438 Q353.7281,47.3438 353.9625,47.6094 Q354.1969,47.8594 354.1969,48.4688 L354.1969,50.4375 Q354.1969,50.9844 354.0719,51.1719 Q353.8063,51.5625 353.3531,51.5625 Q352.8844,51.5625 352.6188,51.1563 Q352.4938,50.9688 352.4938,50.2969 L351.0094,50.2969 Z " fill="#000000"/><text fill="#000000" font-family="sans-serif" font-size="14" lengthAdjust="spacing" textLength="53" x="368.85" y="55.2285">tblstatus</text><line style="stroke:#181818;stroke-width:0.5;" x1="326" x2="436" y1="65.5" y2="65.5"/><ellipse cx="336" cy="79.8047" fill="#000000" rx="3" ry="3" style="stroke:#000000;stroke-width:1.0;"/><text fill="#000000" font-family="sans-serif" font-size="14" lengthAdjust="spacing" textLength="18" x="345" y="84.0332">sid</text><line style="stroke:#181818;stroke-width:1.0;" x1="326" x2="436" y1="91.1094" y2="91.1094"/><ellipse cx="336" cy="105.4141" fill="#000000" rx="3" ry="3" style="stroke:#000000;stroke-width:1.0;"/><text fill="#000000" font-family="sans-serif" font-size="14" lengthAdjust="spacing" textLength="86" x="345" y="109.6426">beschreibung</text></g><!--MD5=[fcc585ea5e16e57347470c45b368be6a]
link tblbenutzer to tblmeldung--><g id="link_tblbenutzer_tblmeldung"><path codeLine="22" d="M109.18,75 C127.52,75 148.17,75 166.46,75 " fill="none" id="tblbenutzer-tblmeldung" style="stroke:#181818;stroke-width:1.0;"/><text fill="#000000" font-family="sans-serif" font-size="13" lengthAdjust="spacing" textLength="21" x="127.25" y="68.4951">leer</text><text fill="#000000" font-family="sans-serif" font-size="13" lengthAdjust="spacing" textLength="21" x="117.0828" y="89.5396">leer</text><text fill="#000000" font-family="sans-serif" font-size="13" lengthAdjust="spacing" textLength="21" x="137.6393" y="89.5396">leer</text></g><!--MD5=[713a65ce0c89ff0dad79248e3cee133d]
link tblmeldung to tblstatus--><g id="link_tblmeldung_tblstatus"><path codeLine="23" d="M267.54,75 C285.71,75 306.3,75 324.91,75 " fill="none" id="tblmeldung-tblstatus" style="stroke:#181818;stroke-width:1.0;"/><text fill="#000000" font-family="sans-serif" font-size="13" lengthAdjust="spacing" textLength="21" x="285.75" y="68.4951">leer</text><text fill="#000000" font-family="sans-serif" font-size="13" lengthAdjust="spacing" textLength="21" x="275.3608" y="89.5396">leer</text><text fill="#000000" font-family="sans-serif" font-size="13" lengthAdjust="spacing" textLength="21" x="295.7943" y="89.4782">leer</text></g><!--MD5=[31ea0c3c60e6d460d8756ef97ea34933]
@startuml name Aufgabe4_1_Benutzer
entity tblbenutzer {
    * bid
    - -
    * vorname
    * nachname
    * login
    *password 
}
entity tblmeldung {
    * mid 
    - -
    * meldung
    * erstellt
    * fbid 
    * fsid 
}
entity tblstatus {
    * sid 
    - -
    * beschreibung 
}
tblbenutzer "leer" - "leer" tblmeldung: leer
tblmeldung "leer" - "leer" tblstatus: leer 
@enduml

PlantUML version 1.2022.7(Mon Aug 22 19:01:30 CEST 2022)
(GPL source distribution)
Java Runtime: OpenJDK Runtime Environment
JVM: OpenJDK 64-Bit Server VM
Default Encoding: Cp1252
Language: de
Country: DE
--></g></svg>