<?xml version="1.0" encoding="UTF-8" standalone="no"?><svg xmlns="http://www.w3.org/2000/svg" xmlns:xlink="http://www.w3.org/1999/xlink" contentStyleType="text/css" height="253px" preserveAspectRatio="none" style="width:536px;height:253px;background:#FFFFFF;" version="1.1" viewBox="0 0 536 253" width="536px" zoomAndPan="magnify"><defs/><g><g id="Geschlossen"><rect fill="#F1F1F1" height="50" rx="12.5" ry="12.5" style="stroke:#181818;stroke-width:0.5;" width="102" x="7" y="102.5"/><line style="stroke:#181818;stroke-width:0.5;" x1="7" x2="109" y1="130.1094" y2="130.1094"/><text fill="#000000" font-family="sans-serif" font-size="14" lengthAdjust="spacing" textLength="82" x="17" y="122.0332">Geschlossen</text></g><path d="M156.5,7 L225.5,7 A12.5,12.5 0 0 1 238,19.5 L238,34.6094 L144,34.6094 L144,19.5 A12.5,12.5 0 0 1 156.5,7 " fill="#F1F1F1" style="stroke:#F1F1F1;stroke-width:1.0;"/><rect fill="none" height="240.6094" rx="12.5" ry="12.5" style="stroke:#181818;stroke-width:0.5;" width="94" x="144" y="7"/><line style="stroke:#181818;stroke-width:0.5;" x1="144" x2="238" y1="34.6094" y2="34.6094"/><text fill="#000000" font-family="sans-serif" font-size="14" lengthAdjust="spacing" textLength="35" x="173.5" y="26.5332">Offen</text><ellipse cx="192.5" cy="55.6094" fill="#222222" rx="10" ry="10" style="stroke:none;stroke-width:1.0;"/><g id="Offen.Arbeiten"><rect fill="#F1F1F1" height="50" rx="12.5" ry="12.5" style="stroke:#181818;stroke-width:0.5;" width="73" x="156" y="101.6094"/><line style="stroke:#181818;stroke-width:0.5;" x1="156" x2="229" y1="129.2188" y2="129.2188"/><text fill="#000000" font-family="sans-serif" font-size="14" lengthAdjust="spacing" textLength="53" x="166" y="121.1426">Arbeiten</text></g><g id="Offen.Pause"><rect fill="#F1F1F1" height="50" rx="12.5" ry="12.5" style="stroke:#181818;stroke-width:0.5;" width="60" x="162.5" y="187.6094"/><line style="stroke:#181818;stroke-width:0.5;" x1="162.5" x2="222.5" y1="215.2188" y2="215.2188"/><text fill="#000000" font-family="sans-serif" font-size="14" lengthAdjust="spacing" textLength="40" x="172.5" y="207.1426">Pause</text></g><!--MD5=[030d4a13396ef2d96601497802fa6f13]
link *start*Offen to Arbeiten--><g id="link_*start*Offen_Arbeiten"><path d="M192.5,65.6294 C192.5,73.4894 192.5,85.3294 192.5,96.4194 " fill="none" id="*start*Offen-to-Arbeiten" style="stroke:#181818;stroke-width:1.0;"/><polygon fill="#181818" points="192.5,101.4394,196.5,92.4394,192.5,96.4394,188.5,92.4394,192.5,101.4394" style="stroke:#181818;stroke-width:1.0;"/></g><!--MD5=[914b644670f0a13620e2a0baacc40a44]
link Arbeiten to Pause--><g id="link_Arbeiten_Pause"><path d="M192.5,151.9094 C192.5,161.3994 192.5,172.3594 192.5,182.2894 " fill="none" id="Arbeiten-to-Pause" style="stroke:#181818;stroke-width:1.0;"/><polygon fill="#181818" points="192.5,187.3694,196.5,178.3694,192.5,182.3694,188.5,178.3694,192.5,187.3694" style="stroke:#181818;stroke-width:1.0;"/></g><path d="M286,18 L510,18 A12.5,12.5 0 0 1 522.5,30.5 L522.5,45.6094 L273.5,45.6094 L273.5,30.5 A12.5,12.5 0 0 1 286,18 " fill="#F1F1F1" style="stroke:#F1F1F1;stroke-width:1.0;"/><rect fill="none" height="219.1294" rx="12.5" ry="12.5" style="stroke:#181818;stroke-width:0.5;" width="249" x="273.5" y="18"/><line style="stroke:#181818;stroke-width:0.5;" x1="273.5" x2="522.5" y1="45.6094" y2="45.6094"/><text fill="#000000" font-family="sans-serif" font-size="14" lengthAdjust="spacing" textLength="91" x="352.5" y="37.5332">Buchhandlung</text><ellipse cx="294.5" cy="110.6294" fill="#222222" rx="10" ry="10" style="stroke:none;stroke-width:1.0;"/><g id="Buchhandlung.Suchnend"><rect fill="#F1F1F1" height="50" rx="12.5" ry="12.5" style="stroke:#181818;stroke-width:0.5;" width="84" x="322.5" y="85.6294"/><line style="stroke:#181818;stroke-width:0.5;" x1="322.5" x2="406.5" y1="113.2388" y2="113.2388"/><text fill="#000000" font-family="sans-serif" font-size="14" lengthAdjust="spacing" textLength="64" x="332.5" y="105.1626">Suchnend</text></g><ellipse cx="504.5" cy="110.6294" fill="none" rx="10" ry="10" style="stroke:#222222;stroke-width:1.0;"/><ellipse cx="505" cy="111.1294" fill="#222222" rx="6" ry="6" style="stroke:none;stroke-width:1.0;"/><g id="elem_GMN16"><path d="M424.5,97.6294 L424.5,106.6294 L406.83,110.6294 L424.5,114.6294 L424.5,123.9809 A0,0 0 0 0 424.5,123.9809 L476.5,123.9809 A0,0 0 0 0 476.5,123.9809 L476.5,107.6294 L466.5,97.6294 L424.5,97.6294 A0,0 0 0 0 424.5,97.6294 " fill="#FEFFDD" style="stroke:#181818;stroke-width:0.5;"/><path d="M466.5,97.6294 L466.5,107.6294 L476.5,107.6294 L466.5,97.6294 " fill="#FEFFDD" style="stroke:#181818;stroke-width:0.5;"/><text fill="#000000" font-family="sans-serif" font-size="13" lengthAdjust="spacing" textLength="31" x="430.5" y="116.1245">Geist</text></g><!--MD5=[faeff534e8c7012bf617caa838313e6e]
link *start*Buchhandlung to Suchnend--><g id="link_*start*Buchhandlung_Suchnend"><path d="M304.62,110.6294 C308.78,110.6294 312.95,110.6294 317.12,110.6294 " fill="none" id="*start*Buchhandlung-to-Suchnend" style="stroke:#181818;stroke-width:1.0;"/><polygon fill="#181818" points="322.39,110.6294,313.39,106.6294,317.39,110.6294,313.39,114.6294,322.39,110.6294" style="stroke:#181818;stroke-width:1.0;"/></g><!--MD5=[7b0572bffdab104c1e6a5bda8fa7299a]
link Suchnend to *end*Buchhandlung--><g id="link_Suchnend_*end*Buchhandlung"><path d="M392.09,85.4194 C401.66,78.2394 412.91,71.3494 424.5,67.6294 C446.5,60.5594 456.18,56.6094 476.5,67.6294 C487.67,73.6894 495.09,86.3494 499.46,96.3694 " fill="none" id="Suchnend-to-*end*Buchhandlung" style="stroke:#181818;stroke-width:1.0;"/><polygon fill="#181818" points="501.37,101.0394,501.6787,91.1954,499.4835,96.4089,494.27,94.2137,501.37,101.0394" style="stroke:#181818;stroke-width:1.0;"/></g><line style="stroke:#181818;stroke-width:1.5;stroke-dasharray:8.0,10.0;" x1="278.5" x2="515.5" y1="140.6294" y2="140.6294"/><ellipse cx="294.5" cy="202.1294" fill="#222222" rx="10" ry="10" style="stroke:none;stroke-width:1.0;"/><g id="Buchhandlung.CONC21.Gehend"><rect fill="#F1F1F1" height="50" rx="12.5" ry="12.5" style="stroke:#181818;stroke-width:0.5;" width="71" x="323" y="177.1294"/><line style="stroke:#181818;stroke-width:0.5;" x1="323" x2="394" y1="204.7387" y2="204.7387"/><text fill="#000000" font-family="sans-serif" font-size="14" lengthAdjust="spacing" textLength="51" x="333" y="196.6626">Gehend</text></g><ellipse cx="499.5" cy="202.1294" fill="none" rx="10" ry="10" style="stroke:#222222;stroke-width:1.0;"/><ellipse cx="500" cy="202.6294" fill="#222222" rx="6" ry="6" style="stroke:none;stroke-width:1.0;"/><g id="elem_GMN28"><path d="M412,189.1294 L412,198.1294 L394.16,202.1294 L412,206.1294 L412,215.4809 A0,0 0 0 0 412,215.4809 L471,215.4809 A0,0 0 0 0 471,215.4809 L471,199.1294 L461,189.1294 L412,189.1294 A0,0 0 0 0 412,189.1294 " fill="#FEFFDD" style="stroke:#181818;stroke-width:0.5;"/><path d="M461,189.1294 L461,199.1294 L471,199.1294 L461,189.1294 " fill="#FEFFDD" style="stroke:#181818;stroke-width:0.5;"/><text fill="#000000" font-family="sans-serif" font-size="13" lengthAdjust="spacing" textLength="38" x="418" y="207.6245">Körper</text></g><!--MD5=[cceff1b091cf9a9665d22ab2e427347e]
link *start*CONC21 to Gehend--><g id="link_*start*CONC21_Gehend"><path d="M305,202.1294 C309.31,202.1294 313.61,202.1294 317.92,202.1294 " fill="none" id="*start*CONC21-to-Gehend" style="stroke:#181818;stroke-width:1.0;"/><polygon fill="#181818" points="322.97,202.1294,313.97,198.1294,317.97,202.1294,313.97,206.1294,322.97,202.1294" style="stroke:#181818;stroke-width:1.0;"/></g><!--MD5=[08942f6dfa68ce2f75d89fe325e1a3fa]
link Gehend to *end*CONC21--><g id="link_Gehend_*end*CONC21"><path d="M382.96,176.9594 C391.55,169.7794 401.75,162.8894 412.5,159.1294 C437.25,150.4794 448.45,146.6294 471.5,159.1294 C482.67,165.1894 490.09,177.8494 494.46,187.8694 " fill="none" id="Gehend-to-*end*CONC21" style="stroke:#181818;stroke-width:1.0;"/><polygon fill="#181818" points="496.37,192.5394,496.6787,182.6954,494.4835,187.9089,489.27,185.7137,496.37,192.5394" style="stroke:#181818;stroke-width:1.0;"/></g><!--MD5=[e9a92b6b5f021651e067f041c7b9d9bb]
link Geschlossen to Offen--><g id="link_Geschlossen_Offen"><path d="M109.17,127.5 C118.97,127.5 128.77,127.5 138.57,127.5 " fill="none" id="Geschlossen-to-Offen" style="stroke:#181818;stroke-width:1.0;"/><polygon fill="#181818" points="143.69,127.5,134.69,123.5,138.69,127.5,134.69,131.5,143.69,127.5" style="stroke:#181818;stroke-width:1.0;"/></g><!--MD5=[b1953aeb723a34a9b4ca271e0d616f60]
@startuml
 state Offen {
  [*] - -> Arbeiten
  Arbeiten - -> Pause
 }
 state Geschlossen
  Geschlossen-> Offen
  ' orthogonalen Zustand

  state Buchhandlung {
  [*] -> Suchnend
  Suchnend -> [*]
  note right of Suchnend
  Geist
  end note
  - -
  [*] -> Gehend
  Gehend -> [*]
  note right of Gehend
  Körper
  end note
  }

@enduml

@startuml
 state Offen {
  [*] - -> Arbeiten
  Arbeiten - -> Pause
 }
 state Geschlossen
  Geschlossen-> Offen

  state Buchhandlung {
  [*] -> Suchnend
  Suchnend -> [*]
  note right of Suchnend
  Geist
  end note
  - -
  [*] -> Gehend
  Gehend -> [*]
  note right of Gehend
  Körper
  end note
  }

@enduml

PlantUML version 1.2022.7(Mon Aug 22 19:01:30 CEST 2022)
(GPL source distribution)
Java Runtime: OpenJDK Runtime Environment
JVM: OpenJDK 64-Bit Server VM
Default Encoding: UTF-8
Language: de
Country: DE
--></g></svg>