<?xml version="1.0" encoding="us-ascii" standalone="no"?><svg xmlns="http://www.w3.org/2000/svg" xmlns:xlink="http://www.w3.org/1999/xlink" contentStyleType="text/css" height="351px" preserveAspectRatio="none" style="width:666px;height:351px;background:#FFFFFF;" version="1.1" viewBox="0 0 666 351" width="666px" zoomAndPan="magnify"><defs/><g><!--cluster RechnungserstellungModul--><g id="cluster_RechnungserstellungModul"><path d="M8.5,162 L205.5,162 A3.75,3.75 0 0 1 208,164.5 L215,184.4883 L554.5,184.4883 A2.5,2.5 0 0 1 557,186.9883 L557,341.5 A2.5,2.5 0 0 1 554.5,344 L8.5,344 A2.5,2.5 0 0 1 6,341.5 L6,164.5 A2.5,2.5 0 0 1 8.5,162 " fill="none" style="stroke:#000000;stroke-width:1.5;"/><line style="stroke:#000000;stroke-width:1.5;" x1="6" x2="215" y1="184.4883" y2="184.4883"/><text fill="#000000" font-family="sans-serif" font-size="14" font-weight="bold" lengthAdjust="spacing" textLength="196" x="10" y="177.5352">RechnungserstellungModul</text></g><!--cluster Basismodul--><g id="cluster_Basismodul"><path d="M40.5,213 L125.5,213 A3.75,3.75 0 0 1 128,215.5 L135,235.4883 L514.5,235.4883 A2.5,2.5 0 0 1 517,237.9883 L517,309.5 A2.5,2.5 0 0 1 514.5,312 L40.5,312 A2.5,2.5 0 0 1 38,309.5 L38,215.5 A2.5,2.5 0 0 1 40.5,213 " fill="none" style="stroke:#000000;stroke-width:1.5;"/><line style="stroke:#000000;stroke-width:1.5;" x1="38" x2="135" y1="235.4883" y2="235.4883"/><text fill="#000000" font-family="sans-serif" font-size="14" font-weight="bold" lengthAdjust="spacing" textLength="84" x="42" y="228.5352">Basismodul</text></g><!--cluster DatenbankModul--><g id="cluster_DatenbankModul"><path d="M464.5,6 L587.5,6 A3.75,3.75 0 0 1 590,8.5 L597,28.4883 L633.5,28.4883 A2.5,2.5 0 0 1 636,30.9883 L636,102.5 A2.5,2.5 0 0 1 633.5,105 L464.5,105 A2.5,2.5 0 0 1 462,102.5 L462,8.5 A2.5,2.5 0 0 1 464.5,6 " fill="none" style="stroke:#000000;stroke-width:1.5;"/><line style="stroke:#000000;stroke-width:1.5;" x1="462" x2="597" y1="28.4883" y2="28.4883"/><text fill="#000000" font-family="sans-serif" font-size="14" font-weight="bold" lengthAdjust="spacing" textLength="122" x="466" y="21.5352">DatenbankModul</text></g><!--class Merhrwertsteuerberechnen--><g id="elem_Merhrwertsteuerberechnen"><rect codeLine="4" fill="#F1F1F1" height="48" id="Merhrwertsteuerberechnen" rx="2.5" ry="2.5" style="stroke:#181818;stroke-width:0.5;" width="219" x="54.5" y="248"/><ellipse cx="69.5" cy="264" fill="#ADD1B2" rx="11" ry="11" style="stroke:#181818;stroke-width:1.0;"/><path d="M71.9731,270.1431 Q71.3921,270.4419 70.7529,270.5913 Q70.1138,270.7407 69.4082,270.7407 Q66.9014,270.7407 65.5815,269.0889 Q64.2617,267.437 64.2617,264.3159 Q64.2617,261.1865 65.5815,259.5347 Q66.9014,257.8828 69.4082,257.8828 Q70.1138,257.8828 70.7612,258.0322 Q71.4087,258.1816 71.9731,258.4805 L71.9731,261.2031 Q71.3423,260.6221 70.7488,260.3523 Q70.1553,260.0825 69.5244,260.0825 Q68.1797,260.0825 67.4949,261.1492 Q66.8101,262.2158 66.8101,264.3159 Q66.8101,266.4077 67.4949,267.4744 Q68.1797,268.541 69.5244,268.541 Q70.1553,268.541 70.7488,268.2712 Q71.3423,268.0015 71.9731,267.4204 Z " fill="#000000"/><text fill="#000000" font-family="sans-serif" font-size="14" lengthAdjust="spacing" textLength="187" x="83.5" y="269.291">Merhrwertsteuerberechnen</text><line style="stroke:#181818;stroke-width:0.5;" x1="55.5" x2="272.5" y1="280" y2="280"/><line style="stroke:#181818;stroke-width:0.5;" x1="55.5" x2="272.5" y1="288" y2="288"/></g><!--class Teilsummenbestimmen--><g id="elem_Teilsummenbestimmen"><rect codeLine="5" fill="#F1F1F1" height="48" id="Teilsummenbestimmen" rx="2.5" ry="2.5" style="stroke:#181818;stroke-width:0.5;" width="192" x="309" y="248"/><ellipse cx="324" cy="264" fill="#ADD1B2" rx="11" ry="11" style="stroke:#181818;stroke-width:1.0;"/><path d="M326.4731,270.1431 Q325.8921,270.4419 325.2529,270.5913 Q324.6138,270.7407 323.9082,270.7407 Q321.4014,270.7407 320.0815,269.0889 Q318.7617,267.437 318.7617,264.3159 Q318.7617,261.1865 320.0815,259.5347 Q321.4014,257.8828 323.9082,257.8828 Q324.6138,257.8828 325.2612,258.0322 Q325.9087,258.1816 326.4731,258.4805 L326.4731,261.2031 Q325.8423,260.6221 325.2488,260.3523 Q324.6553,260.0825 324.0244,260.0825 Q322.6797,260.0825 321.9949,261.1492 Q321.3101,262.2158 321.3101,264.3159 Q321.3101,266.4077 321.9949,267.4744 Q322.6797,268.541 324.0244,268.541 Q324.6553,268.541 325.2488,268.2712 Q325.8423,268.0015 326.4731,267.4204 Z " fill="#000000"/><text fill="#000000" font-family="sans-serif" font-size="14" lengthAdjust="spacing" textLength="160" x="338" y="269.291">Teilsummenbestimmen</text><line style="stroke:#181818;stroke-width:0.5;" x1="310" x2="500" y1="280" y2="280"/><line style="stroke:#181818;stroke-width:0.5;" x1="310" x2="500" y1="288" y2="288"/></g><!--class SQL_Funktionen--><g id="elem_SQL_Funktionen"><rect codeLine="10" fill="#F1F1F1" height="48" id="SQL_Funktionen" rx="2.5" ry="2.5" style="stroke:#181818;stroke-width:0.5;" width="143" x="477.5" y="41"/><ellipse cx="492.5" cy="57" fill="#ADD1B2" rx="11" ry="11" style="stroke:#181818;stroke-width:1.0;"/><path d="M494.9731,63.1431 Q494.3921,63.4419 493.7529,63.5913 Q493.1138,63.7407 492.4082,63.7407 Q489.9014,63.7407 488.5815,62.0889 Q487.2617,60.437 487.2617,57.3159 Q487.2617,54.1865 488.5815,52.5347 Q489.9014,50.8828 492.4082,50.8828 Q493.1138,50.8828 493.7612,51.0322 Q494.4087,51.1816 494.9731,51.4805 L494.9731,54.2031 Q494.3423,53.6221 493.7488,53.3523 Q493.1553,53.0825 492.5244,53.0825 Q491.1797,53.0825 490.4949,54.1492 Q489.8101,55.2158 489.8101,57.3159 Q489.8101,59.4077 490.4949,60.4744 Q491.1797,61.541 492.5244,61.541 Q493.1553,61.541 493.7488,61.2712 Q494.3423,61.0015 494.9731,60.4204 Z " fill="#000000"/><text fill="#000000" font-family="sans-serif" font-size="14" lengthAdjust="spacing" textLength="111" x="506.5" y="62.291">SQL_Funktionen</text><line style="stroke:#181818;stroke-width:0.5;" x1="478.5" x2="619.5" y1="73" y2="73"/><line style="stroke:#181818;stroke-width:0.5;" x1="478.5" x2="619.5" y1="81" y2="81"/></g><!--link SQL_Funktionen to RechnungserstellungModul--><g id="link_SQL_Funktionen_RechnungserstellungModul"><path codeLine="13" d="M549,89.12 C549,102.3125 549,120.0269 549,139.2386 C549,144.0415 549,148.938 549,153.8809 C549,156.3523 549,158.8353 549,161.324 " fill="none" id="SQL_Funktionen-RechnungserstellungModul" style="stroke:#181818;stroke-width:1.0;"/><text fill="#000000" font-family="sans-serif" font-size="13" lengthAdjust="spacing" textLength="108" x="550" y="134.5684">indirekter Zugriff</text></g><!--SRC=[TO-z2iCm38HtFuN8dXVeM4gdPkZFrAKuYP8OsqgGR3gKl7lj40e9LDEX-xYJ9jrOtIFSi1aeKY_84j2v9AknZGu-2j9CArOSjHZnsIbMAq_Zj0XKo0E_aKDAYCWrSWv5sc4FD4wYzqWrIZ1PBCIiPhKfE-cG64rskMJVThzUNkT8DfYHVWbgkuMo_FlP0GorXj46P7Z6datNgIy0]--></g></svg>