<svg xmlns="http://www.w3.org/2000/svg" xmlns:xlink="http://www.w3.org/1999/xlink" contentStyleType="text/css" height="351px" preserveAspectRatio="none" style="width:660px;height:351px;background:#FFFFFF;" version="1.1" viewBox="0 0 660 351" width="660px" zoomAndPan="magnify"><defs/><g><!--cluster RechnungserstellungModul--><g id="cluster_RechnungserstellungModul"><path d="M8.5,162 L206.5049,162 A3.75,3.75 0 0 1 209.0049,164.5 L216.0049,184.4883 L548.5,184.4883 A2.5,2.5 0 0 1 551,186.9883 L551,341.5 A2.5,2.5 0 0 1 548.5,344 L8.5,344 A2.5,2.5 0 0 1 6,341.5 L6,164.5 A2.5,2.5 0 0 1 8.5,162 " fill="none" style="stroke:#000000;stroke-width:1.5;"/><line style="stroke:#000000;stroke-width:1.5;" x1="6" x2="216.0049" y1="184.4883" y2="184.4883"/><text fill="#000000" font-family="sans-serif" font-size="14" font-weight="bold" lengthAdjust="spacing" textLength="197.0049" x="10" y="177.5352">RechnungserstellungModul</text></g><!--cluster Basismodul--><g id="cluster_Basismodul"><path d="M40.5,213 L124.4746,213 A3.75,3.75 0 0 1 126.9746,215.5 L133.9746,235.4883 L508.5,235.4883 A2.5,2.5 0 0 1 511,237.9883 L511,309.5 A2.5,2.5 0 0 1 508.5,312 L40.5,312 A2.5,2.5 0 0 1 38,309.5 L38,215.5 A2.5,2.5 0 0 1 40.5,213 " fill="none" style="stroke:#000000;stroke-width:1.5;"/><line style="stroke:#000000;stroke-width:1.5;" x1="38" x2="133.9746" y1="235.4883" y2="235.4883"/><text fill="#000000" font-family="sans-serif" font-size="14" font-weight="bold" lengthAdjust="spacing" textLength="82.9746" x="42" y="228.5352">Basismodul</text></g><!--cluster DatenbankModul--><g id="cluster_DatenbankModul"><path d="M458.5,6 L582.1367,6 A3.75,3.75 0 0 1 584.6367,8.5 L591.6367,28.4883 L627.5,28.4883 A2.5,2.5 0 0 1 630,30.9883 L630,102.5 A2.5,2.5 0 0 1 627.5,105 L458.5,105 A2.5,2.5 0 0 1 456,102.5 L456,8.5 A2.5,2.5 0 0 1 458.5,6 " fill="none" style="stroke:#000000;stroke-width:1.5;"/><line style="stroke:#000000;stroke-width:1.5;" x1="456" x2="591.6367" y1="28.4883" y2="28.4883"/><text fill="#000000" font-family="sans-serif" font-size="14" font-weight="bold" lengthAdjust="spacing" textLength="122.6367" x="460" y="21.5352">DatenbankModul</text></g><!--class Merhrwertsteuerberechnen--><g id="elem_Merhrwertsteuerberechnen"><rect codeLine="4" fill="#F1F1F1" height="48" id="Merhrwertsteuerberechnen" rx="2.5" ry="2.5" style="stroke:#181818;stroke-width:0.5;" width="215.1211" x="54.44" y="248"/><ellipse cx="69.44" cy="264" fill="#ADD1B2" rx="11" ry="11" style="stroke:#181818;stroke-width:1;"/><path d="M71.9131,270.1431 Q71.3321,270.4419 70.6929,270.5913 Q70.0538,270.7407 69.3482,270.7407 Q66.8414,270.7407 65.5215,269.0889 Q64.2017,267.437 64.2017,264.3159 Q64.2017,261.1865 65.5215,259.5347 Q66.8414,257.8828 69.3482,257.8828 Q70.0538,257.8828 70.7012,258.0322 Q71.3487,258.1816 71.9131,258.4805 L71.9131,261.2031 Q71.2823,260.6221 70.6888,260.3523 Q70.0953,260.0825 69.4644,260.0825 Q68.1197,260.0825 67.4349,261.1492 Q66.7501,262.2158 66.7501,264.3159 Q66.7501,266.4077 67.4349,267.4744 Q68.1197,268.541 69.4644,268.541 Q70.0953,268.541 70.6888,268.2712 Q71.2823,268.0015 71.9131,267.4204 Z " fill="#000000"/><text fill="#000000" font-family="sans-serif" font-size="14" lengthAdjust="spacing" textLength="183.1211" x="83.44" y="269.291">Merhrwertsteuerberechnen</text><line style="stroke:#181818;stroke-width:0.5;" x1="55.44" x2="268.5611" y1="280" y2="280"/><line style="stroke:#181818;stroke-width:0.5;" x1="55.44" x2="268.5611" y1="288" y2="288"/></g><!--class Teilsummenbestimmen--><g id="elem_Teilsummenbestimmen"><rect codeLine="5" fill="#F1F1F1" height="48" id="Teilsummenbestimmen" rx="2.5" ry="2.5" style="stroke:#181818;stroke-width:0.5;" width="190.8604" x="304.57" y="248"/><ellipse cx="319.57" cy="264" fill="#ADD1B2" rx="11" ry="11" style="stroke:#181818;stroke-width:1;"/><path d="M322.0431,270.1431 Q321.4621,270.4419 320.8229,270.5913 Q320.1838,270.7407 319.4782,270.7407 Q316.9714,270.7407 315.6515,269.0889 Q314.3317,267.437 314.3317,264.3159 Q314.3317,261.1865 315.6515,259.5347 Q316.9714,257.8828 319.4782,257.8828 Q320.1838,257.8828 320.8312,258.0322 Q321.4787,258.1816 322.0431,258.4805 L322.0431,261.2031 Q321.4123,260.6221 320.8188,260.3523 Q320.2253,260.0825 319.5944,260.0825 Q318.2497,260.0825 317.5649,261.1492 Q316.8801,262.2158 316.8801,264.3159 Q316.8801,266.4077 317.5649,267.4744 Q318.2497,268.541 319.5944,268.541 Q320.2253,268.541 320.8188,268.2712 Q321.4123,268.0015 322.0431,267.4204 Z " fill="#000000"/><text fill="#000000" font-family="sans-serif" font-size="14" lengthAdjust="spacing" textLength="158.8604" x="333.57" y="269.291">Teilsummenbestimmen</text><line style="stroke:#181818;stroke-width:0.5;" x1="305.57" x2="494.4304" y1="280" y2="280"/><line style="stroke:#181818;stroke-width:0.5;" x1="305.57" x2="494.4304" y1="288" y2="288"/></g><!--class SQL_Funktionen--><g id="elem_SQL_Funktionen"><rect codeLine="10" fill="#F1F1F1" height="48" id="SQL_Funktionen" rx="2.5" ry="2.5" style="stroke:#181818;stroke-width:0.5;" width="141.0059" x="472.5" y="41"/><ellipse cx="487.5" cy="57" fill="#ADD1B2" rx="11" ry="11" style="stroke:#181818;stroke-width:1;"/><path d="M489.9731,63.1431 Q489.3921,63.4419 488.7529,63.5913 Q488.1138,63.7407 487.4082,63.7407 Q484.9014,63.7407 483.5815,62.0889 Q482.2617,60.437 482.2617,57.3159 Q482.2617,54.1865 483.5815,52.5347 Q484.9014,50.8828 487.4082,50.8828 Q488.1138,50.8828 488.7612,51.0322 Q489.4087,51.1816 489.9731,51.4805 L489.9731,54.2031 Q489.3423,53.6221 488.7488,53.3523 Q488.1553,53.0825 487.5244,53.0825 Q486.1797,53.0825 485.4949,54.1492 Q484.8101,55.2158 484.8101,57.3159 Q484.8101,59.4077 485.4949,60.4744 Q486.1797,61.541 487.5244,61.541 Q488.1553,61.541 488.7488,61.2712 Q489.3423,61.0015 489.9731,60.4204 Z " fill="#000000"/><text fill="#000000" font-family="sans-serif" font-size="14" lengthAdjust="spacing" textLength="109.0059" x="501.5" y="62.291">SQL_Funktionen</text><line style="stroke:#181818;stroke-width:0.5;" x1="473.5" x2="612.5059" y1="73" y2="73"/><line style="stroke:#181818;stroke-width:0.5;" x1="473.5" x2="612.5059" y1="81" y2="81"/></g><!--link SQL_Funktionen to RechnungserstellungModul--><g id="link_SQL_Funktionen_RechnungserstellungModul"><path codeLine="13" d="M543,89.12 C543,102.3125 543,120.0269 543,139.2386 C543,144.0415 543,148.938 543,153.8809 C543,156.3523 543,181.3236 543,183.8123 " fill="none" id="SQL_Funktionen-RechnungserstellungModul" style="stroke:#181818;stroke-width:1;"/><text fill="#000000" font-family="sans-serif" font-size="13" lengthAdjust="spacing" textLength="108.1323" x="544" y="134.5684">indirekter Zugriff</text></g><!--SRC=[TO-z2iCm38HtFuN8dXVeM4gdPkZFrAKuYP8OsqgGR3gKl7lj40e9LDEX-xYJ9jrOtIFSi1aeKY_84j2v9AknZGu-2j9CArOSjHZnsIbMAq_Zj0XKo0E_aKDAYCWrSWv5sc4FD4wYzqWrIZ1PBCIiPhKfE-cG64rskMJVThzUNkT8DfYHVWbgkuMo_FlP0GorXj46P7Z6datNgIy0]--></g></svg>