<svg xmlns="http://www.w3.org/2000/svg" xmlns:xlink="http://www.w3.org/1999/xlink" contentStyleType="text/css" height="574px" preserveAspectRatio="none" style="width:673px;height:574px;background:#FFFFFF;" version="1.1" viewBox="0 0 673 574" width="673px" zoomAndPan="magnify"><defs/><g><!--class Vorgang--><g id="elem_Vorgang"><rect codeLine="2" fill="#F1F1F1" height="146.9297" id="Vorgang" rx="2.5" ry="2.5" style="stroke:#181818;stroke-width:0.5;" width="89.3604" x="159.33" y="7"/><ellipse cx="174.33" cy="23" fill="#ADD1B2" rx="11" ry="11" style="stroke:#181818;stroke-width:1;"/><path d="M176.8031,29.1431 Q176.2221,29.4419 175.5829,29.5913 Q174.9438,29.7407 174.2382,29.7407 Q171.7314,29.7407 170.4115,28.0889 Q169.0917,26.437 169.0917,23.3159 Q169.0917,20.1865 170.4115,18.5347 Q171.7314,16.8828 174.2382,16.8828 Q174.9438,16.8828 175.5912,17.0322 Q176.2387,17.1816 176.8031,17.4805 L176.8031,20.2031 Q176.1723,19.6221 175.5788,19.3523 Q174.9853,19.0825 174.3544,19.0825 Q173.0097,19.0825 172.3249,20.1492 Q171.6401,21.2158 171.6401,23.3159 Q171.6401,25.4077 172.3249,26.4744 Q173.0097,27.541 174.3544,27.541 Q174.9853,27.541 175.5788,27.2712 Q176.1723,27.0015 176.8031,26.4204 Z " fill="#000000"/><text fill="#000000" font-family="sans-serif" font-size="14" lengthAdjust="spacing" textLength="57.3604" x="188.33" y="28.291">Vorgang</text><line style="stroke:#181818;stroke-width:0.5;" x1="160.33" x2="247.6904" y1="39" y2="39"/><text fill="#000000" font-family="sans-serif" font-size="14" lengthAdjust="spacing" textLength="61.79" x="165.33" y="56.5352">Vorgang:</text><text fill="#000000" font-family="sans-serif" font-size="14" lengthAdjust="spacing" textLength="44.8643" x="165.33" y="73.0234">Dauer:</text><text fill="#000000" font-family="sans-serif" font-size="14" lengthAdjust="spacing" textLength="30.0576" x="165.33" y="89.5117">FAZ:</text><text fill="#000000" font-family="sans-serif" font-size="14" lengthAdjust="spacing" textLength="27.9863" x="165.33" y="106">FEZ:</text><text fill="#000000" font-family="sans-serif" font-size="14" lengthAdjust="spacing" textLength="30.0918" x="165.33" y="122.4883">SAZ:</text><text fill="#000000" font-family="sans-serif" font-size="14" lengthAdjust="spacing" textLength="28.0205" x="165.33" y="138.9766">SEZ:</text><line style="stroke:#181818;stroke-width:0.5;" x1="160.33" x2="247.6904" y1="145.9297" y2="145.9297"/></g><!--class A--><g id="elem_A"><rect codeLine="10" fill="#F1F1F1" height="146.9297" id="A" rx="2.5" ry="2.5" style="stroke:#181818;stroke-width:0.5;" width="179.8359" x="284.09" y="7"/><ellipse cx="364.9284" cy="23" fill="#ADD1B2" rx="11" ry="11" style="stroke:#181818;stroke-width:1;"/><path d="M367.4015,29.1431 Q366.8205,29.4419 366.1813,29.5913 Q365.5421,29.7407 364.8366,29.7407 Q362.3297,29.7407 361.0099,28.0889 Q359.6901,26.437 359.6901,23.3159 Q359.6901,20.1865 361.0099,18.5347 Q362.3297,16.8828 364.8366,16.8828 Q365.5421,16.8828 366.1896,17.0322 Q366.8371,17.1816 367.4015,17.4805 L367.4015,20.2031 Q366.7707,19.6221 366.1772,19.3523 Q365.5837,19.0825 364.9528,19.0825 Q363.6081,19.0825 362.9233,20.1492 Q362.2384,21.2158 362.2384,23.3159 Q362.2384,25.4077 362.9233,26.4744 Q363.6081,27.541 364.9528,27.541 Q365.5837,27.541 366.1772,27.2712 Q366.7707,27.0015 367.4015,26.4204 Z " fill="#000000"/><text fill="#000000" font-family="sans-serif" font-size="14" lengthAdjust="spacing" textLength="9.6592" x="385.4284" y="28.291">A</text><line style="stroke:#181818;stroke-width:0.5;" x1="285.09" x2="462.9259" y1="39" y2="39"/><text fill="#000000" font-family="sans-serif" font-size="14" lengthAdjust="spacing" textLength="167.8359" x="290.09" y="56.5352">Vorgang: Planungsphase</text><text fill="#000000" font-family="sans-serif" font-size="14" lengthAdjust="spacing" textLength="58.1465" x="290.09" y="73.0234">Dauer: 5</text><text fill="#000000" font-family="sans-serif" font-size="14" lengthAdjust="spacing" textLength="43.3398" x="290.09" y="89.5117">FAZ: 0</text><text fill="#000000" font-family="sans-serif" font-size="14" lengthAdjust="spacing" textLength="41.2686" x="290.09" y="106">FEZ: 5</text><text fill="#000000" font-family="sans-serif" font-size="14" lengthAdjust="spacing" textLength="43.374" x="290.09" y="122.4883">SAZ: 0</text><text fill="#000000" font-family="sans-serif" font-size="14" lengthAdjust="spacing" textLength="41.3027" x="290.09" y="138.9766">SEZ: 5</text><line style="stroke:#181818;stroke-width:0.5;" x1="285.09" x2="462.9259" y1="145.9297" y2="145.9297"/></g><!--class B--><g id="elem_B"><rect codeLine="18" fill="#F1F1F1" height="146.9297" id="B" rx="2.5" ry="2.5" style="stroke:#181818;stroke-width:0.5;" width="388.0176" x="7" y="213.93"/><ellipse cx="192.7324" cy="229.93" fill="#ADD1B2" rx="11" ry="11" style="stroke:#181818;stroke-width:1;"/><path d="M195.2056,236.0731 Q194.6245,236.3719 193.9854,236.5213 Q193.3462,236.6707 192.6406,236.6707 Q190.1338,236.6707 188.814,235.0189 Q187.4941,233.367 187.4941,230.2459 Q187.4941,227.1165 188.814,225.4647 Q190.1338,223.8128 192.6406,223.8128 Q193.3462,223.8128 193.9937,223.9622 Q194.6411,224.1116 195.2056,224.4105 L195.2056,227.1331 Q194.5747,226.5521 193.9812,226.2823 Q193.3877,226.0125 192.7568,226.0125 Q191.4121,226.0125 190.7273,227.0792 Q190.0425,228.1458 190.0425,230.2459 Q190.0425,232.3377 190.7273,233.4044 Q191.4121,234.471 192.7568,234.471 Q193.3877,234.471 193.9812,234.2012 Q194.5747,233.9315 195.2056,233.3504 Z " fill="#000000"/><text fill="#000000" font-family="sans-serif" font-size="14" lengthAdjust="spacing" textLength="8.0527" x="213.2324" y="235.221">B</text><line style="stroke:#181818;stroke-width:0.5;" x1="8" x2="394.0176" y1="245.93" y2="245.93"/><text fill="#000000" font-family="sans-serif" font-size="14" lengthAdjust="spacing" textLength="376.0176" x="13" y="263.4652">Vorgang: Installation der n&#246;tigen Entwicklungssoftware</text><text fill="#000000" font-family="sans-serif" font-size="14" lengthAdjust="spacing" textLength="58.1465" x="13" y="279.9534">Dauer: 4</text><text fill="#000000" font-family="sans-serif" font-size="14" lengthAdjust="spacing" textLength="43.3398" x="13" y="296.4417">FAZ: 5</text><text fill="#000000" font-family="sans-serif" font-size="14" lengthAdjust="spacing" textLength="41.2686" x="13" y="312.93">FEZ: 9</text><text fill="#000000" font-family="sans-serif" font-size="14" lengthAdjust="spacing" textLength="43.374" x="13" y="329.4183">SAZ: 5</text><text fill="#000000" font-family="sans-serif" font-size="14" lengthAdjust="spacing" textLength="41.3027" x="13" y="345.9066">SEZ: 9</text><line style="stroke:#181818;stroke-width:0.5;" x1="8" x2="394.0176" y1="352.8597" y2="352.8597"/></g><!--class C--><g id="elem_C"><rect codeLine="26" fill="#F1F1F1" height="146.9297" id="C" rx="2.5" ry="2.5" style="stroke:#181818;stroke-width:0.5;" width="236.5879" x="429.71" y="213.93"/><ellipse cx="538.9107" cy="229.93" fill="#ADD1B2" rx="11" ry="11" style="stroke:#181818;stroke-width:1;"/><path d="M541.3838,236.0731 Q540.8028,236.3719 540.1636,236.5213 Q539.5245,236.6707 538.8189,236.6707 Q536.3121,236.6707 534.9922,235.0189 Q533.6724,233.367 533.6724,230.2459 Q533.6724,227.1165 534.9922,225.4647 Q536.3121,223.8128 538.8189,223.8128 Q539.5245,223.8128 540.1719,223.9622 Q540.8194,224.1116 541.3838,224.4105 L541.3838,227.1331 Q540.753,226.5521 540.1595,226.2823 Q539.566,226.0125 538.9351,226.0125 Q537.5904,226.0125 536.9056,227.0792 Q536.2207,228.1458 536.2207,230.2459 Q536.2207,232.3377 536.9056,233.4044 Q537.5904,234.471 538.9351,234.471 Q539.566,234.471 540.1595,234.2012 Q540.753,233.9315 541.3838,233.3504 Z " fill="#000000"/><text fill="#000000" font-family="sans-serif" font-size="14" lengthAdjust="spacing" textLength="9.6865" x="559.4107" y="235.221">C</text><line style="stroke:#181818;stroke-width:0.5;" x1="430.71" x2="665.2979" y1="245.93" y2="245.93"/><text fill="#000000" font-family="sans-serif" font-size="14" lengthAdjust="spacing" textLength="224.5879" x="435.71" y="263.4652">Vorgang: Erstelluen des Entwurfs</text><text fill="#000000" font-family="sans-serif" font-size="14" lengthAdjust="spacing" textLength="58.1465" x="435.71" y="279.9534">Dauer: 2</text><text fill="#000000" font-family="sans-serif" font-size="14" lengthAdjust="spacing" textLength="43.3398" x="435.71" y="296.4417">FAZ: 5</text><text fill="#000000" font-family="sans-serif" font-size="14" lengthAdjust="spacing" textLength="41.2686" x="435.71" y="312.93">FEZ: 7</text><text fill="#000000" font-family="sans-serif" font-size="14" lengthAdjust="spacing" textLength="43.374" x="435.71" y="329.4183">SAZ: 7</text><text fill="#000000" font-family="sans-serif" font-size="14" lengthAdjust="spacing" textLength="41.3027" x="435.71" y="345.9066">SEZ: 9</text><line style="stroke:#181818;stroke-width:0.5;" x1="430.71" x2="665.2979" y1="352.8597" y2="352.8597"/></g><!--class D--><g id="elem_D"><rect codeLine="34" fill="#F1F1F1" height="146.9297" id="D" rx="2.5" ry="2.5" style="stroke:#181818;stroke-width:0.5;" width="194.458" x="276.78" y="420.86"/><ellipse cx="364.5158" cy="436.86" fill="#ADD1B2" rx="11" ry="11" style="stroke:#181818;stroke-width:1;"/><path d="M366.989,443.0031 Q366.4079,443.3019 365.7688,443.4513 Q365.1296,443.6007 364.424,443.6007 Q361.9172,443.6007 360.5974,441.9489 Q359.2776,440.297 359.2776,437.1759 Q359.2776,434.0465 360.5974,432.3947 Q361.9172,430.7428 364.424,430.7428 Q365.1296,430.7428 365.7771,430.8922 Q366.4245,431.0416 366.989,431.3405 L366.989,434.0631 Q366.3581,433.4821 365.7646,433.2123 Q365.1711,432.9425 364.5403,432.9425 Q363.1955,432.9425 362.5107,434.0092 Q361.8259,435.0758 361.8259,437.1759 Q361.8259,439.2677 362.5107,440.3344 Q363.1955,441.401 364.5403,441.401 Q365.1711,441.401 365.7646,441.1312 Q366.3581,440.8615 366.989,440.2804 Z " fill="#000000"/><text fill="#000000" font-family="sans-serif" font-size="14" lengthAdjust="spacing" textLength="10.4863" x="385.0158" y="442.151">D</text><line style="stroke:#181818;stroke-width:0.5;" x1="277.78" x2="470.238" y1="452.86" y2="452.86"/><text fill="#000000" font-family="sans-serif" font-size="14" lengthAdjust="spacing" textLength="182.458" x="282.78" y="470.3952">Vorgang: Implementierung</text><text fill="#000000" font-family="sans-serif" font-size="14" lengthAdjust="spacing" textLength="66.999" x="282.78" y="486.8834">Dauer: 16</text><text fill="#000000" font-family="sans-serif" font-size="14" lengthAdjust="spacing" textLength="43.3398" x="282.78" y="503.3717">FAZ: 9</text><text fill="#000000" font-family="sans-serif" font-size="14" lengthAdjust="spacing" textLength="45.6914" x="282.78" y="519.86">FEZ:25</text><text fill="#000000" font-family="sans-serif" font-size="14" lengthAdjust="spacing" textLength="43.374" x="282.78" y="536.3483">SAZ: 9</text><text fill="#000000" font-family="sans-serif" font-size="14" lengthAdjust="spacing" textLength="50.1553" x="282.78" y="552.8366">SEZ: 25</text><line style="stroke:#181818;stroke-width:0.5;" x1="277.78" x2="470.238" y1="559.7897" y2="559.7897"/></g><!--link A to B--><g id="link_A_B"><path codeLine="43" d="M312.53,154.29 C296.31,173.51 282.6811,189.6558 266.4511,208.8758 " fill="none" id="A-to-B" style="stroke:#181818;stroke-width:1;"/><polygon fill="#181818" points="262.58,213.46,271.4427,209.1644,265.8059,209.6398,265.3304,204.003,262.58,213.46" style="stroke:#181818;stroke-width:1;"/></g><!--link A to C--><g id="link_A_C"><path codeLine="44" d="M435.84,154.29 C452.16,173.51 465.8765,189.6664 482.1965,208.8864 " fill="none" id="A-to-C" style="stroke:#181818;stroke-width:1;"/><polygon fill="#181818" points="486.08,213.46,483.3038,204.0105,482.8437,209.6486,477.2056,209.1886,486.08,213.46" style="stroke:#181818;stroke-width:1;"/></g><!--link B to D--><g id="link_B_D"><path codeLine="45" d="M262.49,361.22 C278.71,380.44 292.3389,396.5858 308.5689,415.8058 " fill="none" id="B-to-D" style="stroke:#181818;stroke-width:1;"/><polygon fill="#181818" points="312.44,420.39,309.6896,410.933,309.2141,416.5698,303.5773,416.0944,312.44,420.39" style="stroke:#181818;stroke-width:1;"/></g><!--link C to D--><g id="link_C_D"><path codeLine="46" d="M486.17,361.22 C469.86,380.44 456.1435,396.5964 439.8235,415.8164 " fill="none" id="C-to-D" style="stroke:#181818;stroke-width:1;"/><polygon fill="#181818" points="435.94,420.39,444.8144,416.1186,439.1763,416.5786,438.7162,410.9405,435.94,420.39" style="stroke:#181818;stroke-width:1;"/></g><!--SRC=[RP1DQiCm48NtEiLS8D2Qgi5P1FnNwAvWwA8xuKnSKsKSD39PX5mh5yZ56YkAvBhHvisynVlUgD6A6JvxqofguIZW-los0hULQa3ZvxViQtKRAZ_KTwSUdPDeN5usJ_hGYWPgUV-j6AUnCkJ2KqW62I7SsxMp0o2V0zw9hT9QsQudsA01kfnjro91HVRGDJzwn7E_jGTb_ZHuYGraR9360Z8MI4E1ObwWCcnHwm57F3lgOBOy9IKFISj8MZuYbVzEtUqrxf1iX-Pwr9Jm_1eHQK0aCYBIY4Z6xnGPB1PhoBqM8dTQYiBhBm00]--></g></svg>