<svg xmlns="http://www.w3.org/2000/svg" xmlns:xlink="http://www.w3.org/1999/xlink" contentStyleType="text/css" height="360px" preserveAspectRatio="none" style="width:404px;height:360px;background:#FFFFFF;" version="1.1" viewBox="0 0 404 360" width="404px" zoomAndPan="magnify"><defs/><g><!--class AbstractList--><g id="elem_AbstractList"><rect codeLine="3" fill="#F1F1F1" height="48" id="AbstractList" rx="2.5" ry="2.5" style="stroke:#181818;stroke-width:0.5;" width="112.5957" x="199.02" y="164.46"/><ellipse cx="214.02" cy="180.46" fill="#A9DCDF" rx="11" ry="11" style="stroke:#181818;stroke-width:1;"/><path d="M213.8833,175.8081 L212.7295,180.8799 L215.0454,180.8799 Z M212.3891,173.5669 L215.3857,173.5669 L218.7309,185.96 L216.2822,185.96 L215.5185,182.897 L212.2397,182.897 L211.4927,185.96 L209.0439,185.96 Z " fill="#000000"/><text fill="#000000" font-family="sans-serif" font-size="14" font-style="italic" lengthAdjust="spacing" textLength="80.5957" x="228.02" y="185.751">AbstractList</text><line style="stroke:#181818;stroke-width:0.5;" x1="200.02" x2="310.6157" y1="196.46" y2="196.46"/><line style="stroke:#181818;stroke-width:0.5;" x1="200.02" x2="310.6157" y1="204.46" y2="204.46"/></g><!--class AbstractCollection--><g id="elem_AbstractCollection"><rect codeLine="4" fill="#F1F1F1" height="48" id="AbstractCollection" rx="2.5" ry="2.5" style="stroke:#181818;stroke-width:0.5;" width="156.6328" x="7" y="164.46"/><ellipse cx="22" cy="180.46" fill="#A9DCDF" rx="11" ry="11" style="stroke:#181818;stroke-width:1;"/><path d="M21.8633,175.8081 L20.7095,180.8799 L23.0254,180.8799 Z M20.3691,173.5669 L23.3657,173.5669 L26.7109,185.96 L24.2622,185.96 L23.4985,182.897 L20.2197,182.897 L19.4727,185.96 L17.0239,185.96 Z " fill="#000000"/><text fill="#000000" font-family="sans-serif" font-size="14" font-style="italic" lengthAdjust="spacing" textLength="124.6328" x="36" y="185.751">AbstractCollection</text><line style="stroke:#181818;stroke-width:0.5;" x1="8" x2="162.6328" y1="196.46" y2="196.46"/><line style="stroke:#181818;stroke-width:0.5;" x1="8" x2="162.6328" y1="204.46" y2="204.46"/></g><!--class List--><g id="elem_List"><rect codeLine="5" fill="#F1F1F1" height="48" id="List" rx="2.5" ry="2.5" style="stroke:#181818;stroke-width:0.5;" width="55.8848" x="212.37" y="31.73"/><ellipse cx="227.37" cy="47.73" fill="#B4A7E5" rx="11" ry="11" style="stroke:#181818;stroke-width:1;"/><path d="M223.7977,43.9951 L223.7977,41.8369 L231.1771,41.8369 L231.1771,43.9951 L228.7118,43.9951 L228.7118,52.0718 L231.1771,52.0718 L231.1771,54.23 L223.7977,54.23 L223.7977,52.0718 L226.2631,52.0718 L226.2631,43.9951 Z " fill="#000000"/><text fill="#000000" font-family="sans-serif" font-size="14" font-style="italic" lengthAdjust="spacing" textLength="23.8848" x="241.37" y="53.021">List</text><line style="stroke:#181818;stroke-width:0.5;" x1="213.37" x2="267.2548" y1="63.73" y2="63.73"/><line style="stroke:#181818;stroke-width:0.5;" x1="213.37" x2="267.2548" y1="71.73" y2="71.73"/></g><!--class Collection--><g id="elem_Collection"><rect codeLine="6" fill="#F1F1F1" height="48" id="Collection" rx="2.5" ry="2.5" style="stroke:#181818;stroke-width:0.5;" width="99.9219" x="63.36" y="31.73"/><ellipse cx="78.36" cy="47.73" fill="#B4A7E5" rx="11" ry="11" style="stroke:#181818;stroke-width:1;"/><path d="M74.7877,43.9951 L74.7877,41.8369 L82.1671,41.8369 L82.1671,43.9951 L79.7018,43.9951 L79.7018,52.0718 L82.1671,52.0718 L82.1671,54.23 L74.7877,54.23 L74.7877,52.0718 L77.2531,52.0718 L77.2531,43.9951 Z " fill="#000000"/><text fill="#000000" font-family="sans-serif" font-size="14" font-style="italic" lengthAdjust="spacing" textLength="67.9219" x="92.36" y="53.021">Collection</text><line style="stroke:#181818;stroke-width:0.5;" x1="64.36" x2="162.2819" y1="63.73" y2="63.73"/><line style="stroke:#181818;stroke-width:0.5;" x1="64.36" x2="162.2819" y1="71.73" y2="71.73"/></g><!--class ArrayList--><g id="elem_ArrayList"><rect codeLine="15" fill="#F1F1F1" height="80.9766" id="ArrayList" rx="2.5" ry="2.5" style="stroke:#181818;stroke-width:0.5;" width="155.3154" x="177.66" y="272.46"/><ellipse cx="221.1308" cy="288.46" fill="#ADD1B2" rx="11" ry="11" style="stroke:#181818;stroke-width:1;"/><path d="M223.604,294.6031 Q223.0229,294.9019 222.3838,295.0513 Q221.7446,295.2007 221.0391,295.2007 Q218.5322,295.2007 217.2124,293.5489 Q215.8926,291.897 215.8926,288.7759 Q215.8926,285.6465 217.2124,283.9947 Q218.5322,282.3428 221.0391,282.3428 Q221.7446,282.3428 222.3921,282.4922 Q223.0395,282.6416 223.604,282.9405 L223.604,285.6631 Q222.9731,285.0821 222.3796,284.8123 Q221.7861,284.5425 221.1553,284.5425 Q219.8105,284.5425 219.1257,285.6092 Q218.4409,286.6758 218.4409,288.7759 Q218.4409,290.8677 219.1257,291.9344 Q219.8105,293.001 221.1553,293.001 Q221.7861,293.001 222.3796,292.7312 Q222.9731,292.4615 223.604,291.8804 Z " fill="#000000"/><text fill="#000000" font-family="sans-serif" font-size="14" lengthAdjust="spacing" textLength="60.0469" x="241.4577" y="293.751">ArrayList</text><line style="stroke:#181818;stroke-width:0.5;" x1="178.66" x2="331.9754" y1="304.46" y2="304.46"/><text fill="#000000" font-family="sans-serif" font-size="14" lengthAdjust="spacing" textLength="143.3154" x="183.66" y="321.9952">Object[] elementData</text><line style="stroke:#181818;stroke-width:0.5;" x1="178.66" x2="331.9754" y1="328.9483" y2="328.9483"/><text fill="#000000" font-family="sans-serif" font-size="14" lengthAdjust="spacing" textLength="36.1143" x="183.66" y="346.4834">size()</text></g><!--class TimeUnit--><g id="elem_TimeUnit"><rect codeLine="20" fill="#F1F1F1" height="97.4648" id="TimeUnit" rx="2.5" ry="2.5" style="stroke:#181818;stroke-width:0.5;" width="93.4414" x="303.6" y="7"/><ellipse cx="318.6" cy="23" fill="#EB937F" rx="11" ry="11" style="stroke:#181818;stroke-width:1;"/><path d="M322.2143,29.5 L314.4945,29.5 L314.4945,17.1069 L322.2143,17.1069 L322.2143,19.2651 L316.9433,19.2651 L316.9433,21.938 L321.7162,21.938 L321.7162,24.0962 L316.9433,24.0962 L316.9433,27.3418 L322.2143,27.3418 Z " fill="#000000"/><text fill="#000000" font-family="sans-serif" font-size="14" lengthAdjust="spacing" textLength="61.4414" x="332.6" y="28.291">TimeUnit</text><line style="stroke:#181818;stroke-width:0.5;" x1="304.6" x2="396.0414" y1="39" y2="39"/><text fill="#000000" font-family="sans-serif" font-size="14" lengthAdjust="spacing" textLength="36.4082" x="309.6" y="56.5352">DAYS</text><text fill="#000000" font-family="sans-serif" font-size="14" lengthAdjust="spacing" textLength="47.2568" x="309.6" y="73.0234">HOURS</text><text fill="#000000" font-family="sans-serif" font-size="14" lengthAdjust="spacing" textLength="60.1152" x="309.6" y="89.5117">MINUTES</text><line style="stroke:#181818;stroke-width:0.5;" x1="304.6" x2="396.0414" y1="96.4648" y2="96.4648"/></g><!--reverse link List to AbstractList--><g id="link_List_AbstractList"><path codeLine="8" d="M245.0513,97.9827 C247.7813,121.7827 249.94,140.57 252.66,164.29 " fill="none" id="List-backto-AbstractList" style="stroke:#181818;stroke-width:1;"/><polygon fill="none" points="243,80.1,239.0903,98.6665,251.0122,97.299,243,80.1" style="stroke:#181818;stroke-width:1;"/></g><!--reverse link Collection to AbstractCollection--><g id="link_Collection_AbstractCollection"><path codeLine="9" d="M104.5385,97.7004 C99.4385,121.5004 95.36,140.57 90.28,164.29 " fill="none" id="Collection-backto-AbstractCollection" style="stroke:#181818;stroke-width:1;"/><polygon fill="none" points="108.31,80.1,98.6717,96.4433,110.4053,98.9576,108.31,80.1" style="stroke:#181818;stroke-width:1;"/></g><!--reverse link Collection to List--><g id="link_Collection_List"><path codeLine="11" d="M181.42,55.73 C197.64,55.73 195.86,55.73 212.08,55.73 " fill="none" id="Collection-backto-List" style="stroke:#181818;stroke-width:1;"/><polygon fill="none" points="163.42,55.73,181.42,61.73,181.42,49.73,163.42,55.73" style="stroke:#181818;stroke-width:1;"/></g><!--reverse link AbstractCollection to AbstractList--><g id="link_AbstractCollection_AbstractList"><path codeLine="12" d="M182.01,188.46 C193.54,188.46 187.07,188.46 198.61,188.46 " fill="none" id="AbstractCollection-backto-AbstractList" style="stroke:#181818;stroke-width:1;"/><polygon fill="none" points="164.01,188.46,182.01,194.46,182.01,182.46,164.01,188.46" style="stroke:#181818;stroke-width:1;"/></g><!--reverse link AbstractList to ArrayList--><g id="link_AbstractList_ArrayList"><path codeLine="13" d="M255.32,230.79 C255.32,247.59 255.32,252.66 255.32,272.32 " fill="none" id="AbstractList-backto-ArrayList" style="stroke:#181818;stroke-width:1;"/><polygon fill="none" points="255.32,212.79,249.32,230.79,261.32,230.79,255.32,212.79" style="stroke:#181818;stroke-width:1;"/></g><!--SRC=[PO_B2i8m44NtynNPgOlQlRWHAoZu06iN8Yx6E6eaIIKP5xx-NLihRN1vxpcvOLedvellnV55e-MhqLsPcrXgz3xQApmwD80xpmubYx8MWofEbUUQ_TfXhZL9Lha5PPdS0IM9KgrZmu42YVupYiBTMWbXysdeV3_vzqeMR3T3jUuStae6rOs_GZnWiJj_bZPRGPeCMKwG4RowKxi3Bm2oLoDMob1cLQ4dWtKAuqMsJ64scMUhKVgntW00]--></g></svg>