<svg xmlns="http://www.w3.org/2000/svg" xmlns:xlink="http://www.w3.org/1999/xlink" contentStyleType="text/css" height="393px" preserveAspectRatio="none" style="width:690px;height:393px;background:#FFFFFF;" version="1.1" viewBox="0 0 690 393" width="690px" zoomAndPan="magnify"><defs/><g><!--class Import--><g id="elem_Import"><rect codeLine="2" fill="#F1F1F1" height="48" id="Import" rx="2.5" ry="2.5" style="stroke:#181818;stroke-width:0.5;" width="77.4795" x="19.88" y="7"/><ellipse cx="34.88" cy="23" fill="#ADD1B2" rx="11" ry="11" style="stroke:#181818;stroke-width:1;"/><path d="M37.3531,29.1431 Q36.7721,29.4419 36.1329,29.5913 Q35.4938,29.7407 34.7882,29.7407 Q32.2814,29.7407 30.9615,28.0889 Q29.6417,26.437 29.6417,23.3159 Q29.6417,20.1865 30.9615,18.5347 Q32.2814,16.8828 34.7882,16.8828 Q35.4938,16.8828 36.1412,17.0322 Q36.7887,17.1816 37.3531,17.4805 L37.3531,20.2031 Q36.7223,19.6221 36.1288,19.3523 Q35.5353,19.0825 34.9044,19.0825 Q33.5597,19.0825 32.8749,20.1492 Q32.1901,21.2158 32.1901,23.3159 Q32.1901,25.4077 32.8749,26.4744 Q33.5597,27.541 34.9044,27.541 Q35.5353,27.541 36.1288,27.2712 Q36.7223,27.0015 37.3531,26.4204 Z " fill="#000000"/><text fill="#000000" font-family="sans-serif" font-size="14" lengthAdjust="spacing" textLength="45.4795" x="48.88" y="28.291">Import</text><line style="stroke:#181818;stroke-width:0.5;" x1="20.88" x2="96.3595" y1="39" y2="39"/><line style="stroke:#181818;stroke-width:0.5;" x1="20.88" x2="96.3595" y1="47" y2="47"/></g><!--class ImportController--><g id="elem_ImportController"><rect codeLine="3" fill="#F1F1F1" height="48" id="ImportController" rx="2.5" ry="2.5" style="stroke:#181818;stroke-width:0.5;" width="145.6406" x="349.8" y="7"/><ellipse cx="364.8" cy="23" fill="#ADD1B2" rx="11" ry="11" style="stroke:#181818;stroke-width:1;"/><path d="M367.2731,29.1431 Q366.6921,29.4419 366.0529,29.5913 Q365.4138,29.7407 364.7082,29.7407 Q362.2014,29.7407 360.8815,28.0889 Q359.5617,26.437 359.5617,23.3159 Q359.5617,20.1865 360.8815,18.5347 Q362.2014,16.8828 364.7082,16.8828 Q365.4138,16.8828 366.0612,17.0322 Q366.7087,17.1816 367.2731,17.4805 L367.2731,20.2031 Q366.6423,19.6221 366.0488,19.3523 Q365.4553,19.0825 364.8244,19.0825 Q363.4797,19.0825 362.7949,20.1492 Q362.1101,21.2158 362.1101,23.3159 Q362.1101,25.4077 362.7949,26.4744 Q363.4797,27.541 364.8244,27.541 Q365.4553,27.541 366.0488,27.2712 Q366.6423,27.0015 367.2731,26.4204 Z " fill="#000000"/><text fill="#000000" font-family="sans-serif" font-size="14" lengthAdjust="spacing" textLength="113.6406" x="378.8" y="28.291">ImportController</text><line style="stroke:#181818;stroke-width:0.5;" x1="350.8" x2="494.4406" y1="39" y2="39"/><line style="stroke:#181818;stroke-width:0.5;" x1="350.8" x2="494.4406" y1="47" y2="47"/></g><!--class SeriesCollection--><g id="elem_SeriesCollection"><rect codeLine="4" fill="#F1F1F1" height="48" id="SeriesCollection" rx="2.5" ry="2.5" style="stroke:#181818;stroke-width:0.5;" width="139.9736" x="132.63" y="7"/><ellipse cx="147.63" cy="23" fill="#ADD1B2" rx="11" ry="11" style="stroke:#181818;stroke-width:1;"/><path d="M150.1031,29.1431 Q149.5221,29.4419 148.8829,29.5913 Q148.2438,29.7407 147.5382,29.7407 Q145.0314,29.7407 143.7115,28.0889 Q142.3917,26.437 142.3917,23.3159 Q142.3917,20.1865 143.7115,18.5347 Q145.0314,16.8828 147.5382,16.8828 Q148.2438,16.8828 148.8912,17.0322 Q149.5387,17.1816 150.1031,17.4805 L150.1031,20.2031 Q149.4723,19.6221 148.8788,19.3523 Q148.2853,19.0825 147.6544,19.0825 Q146.3097,19.0825 145.6249,20.1492 Q144.9401,21.2158 144.9401,23.3159 Q144.9401,25.4077 145.6249,26.4744 Q146.3097,27.541 147.6544,27.541 Q148.2853,27.541 148.8788,27.2712 Q149.4723,27.0015 150.1031,26.4204 Z " fill="#000000"/><text fill="#000000" font-family="sans-serif" font-size="14" lengthAdjust="spacing" textLength="107.9736" x="161.63" y="28.291">SeriesCollection</text><line style="stroke:#181818;stroke-width:0.5;" x1="133.63" x2="271.6036" y1="39" y2="39"/><line style="stroke:#181818;stroke-width:0.5;" x1="133.63" x2="271.6036" y1="47" y2="47"/></g><!--class DataSeries--><g id="elem_DataSeries"><rect codeLine="5" fill="#F1F1F1" height="48" id="DataSeries" rx="2.5" ry="2.5" style="stroke:#181818;stroke-width:0.5;" width="103.2373" x="7" y="164.47"/><ellipse cx="22" cy="180.47" fill="#ADD1B2" rx="11" ry="11" style="stroke:#181818;stroke-width:1;"/><path d="M24.4731,186.6131 Q23.8921,186.9119 23.2529,187.0613 Q22.6138,187.2107 21.9082,187.2107 Q19.4014,187.2107 18.0815,185.5589 Q16.7617,183.907 16.7617,180.7859 Q16.7617,177.6565 18.0815,176.0047 Q19.4014,174.3528 21.9082,174.3528 Q22.6138,174.3528 23.2612,174.5022 Q23.9087,174.6516 24.4731,174.9505 L24.4731,177.6731 Q23.8423,177.0921 23.2488,176.8223 Q22.6553,176.5525 22.0244,176.5525 Q20.6797,176.5525 19.9949,177.6192 Q19.3101,178.6858 19.3101,180.7859 Q19.3101,182.8777 19.9949,183.9444 Q20.6797,185.011 22.0244,185.011 Q22.6553,185.011 23.2488,184.7412 Q23.8423,184.4715 24.4731,183.8904 Z " fill="#000000"/><text fill="#000000" font-family="sans-serif" font-size="14" lengthAdjust="spacing" textLength="71.2373" x="36" y="185.761">DataSeries</text><line style="stroke:#181818;stroke-width:0.5;" x1="8" x2="109.2373" y1="196.47" y2="196.47"/><line style="stroke:#181818;stroke-width:0.5;" x1="8" x2="109.2373" y1="204.47" y2="204.47"/></g><!--class DataPoint--><g id="elem_DataPoint"><rect codeLine="6" fill="#F1F1F1" height="48" id="DataPoint" rx="2.5" ry="2.5" style="stroke:#181818;stroke-width:0.5;" width="97.4951" x="144.87" y="164.47"/><ellipse cx="159.87" cy="180.47" fill="#ADD1B2" rx="11" ry="11" style="stroke:#181818;stroke-width:1;"/><path d="M162.3431,186.6131 Q161.7621,186.9119 161.1229,187.0613 Q160.4838,187.2107 159.7782,187.2107 Q157.2714,187.2107 155.9515,185.5589 Q154.6317,183.907 154.6317,180.7859 Q154.6317,177.6565 155.9515,176.0047 Q157.2714,174.3528 159.7782,174.3528 Q160.4838,174.3528 161.1312,174.5022 Q161.7787,174.6516 162.3431,174.9505 L162.3431,177.6731 Q161.7123,177.0921 161.1188,176.8223 Q160.5253,176.5525 159.8944,176.5525 Q158.5497,176.5525 157.8649,177.6192 Q157.1801,178.6858 157.1801,180.7859 Q157.1801,182.8777 157.8649,183.9444 Q158.5497,185.011 159.8944,185.011 Q160.5253,185.011 161.1188,184.7412 Q161.7123,184.4715 162.3431,183.8904 Z " fill="#000000"/><text fill="#000000" font-family="sans-serif" font-size="14" lengthAdjust="spacing" textLength="65.4951" x="173.87" y="185.761">DataPoint</text><line style="stroke:#181818;stroke-width:0.5;" x1="145.87" x2="241.3651" y1="196.47" y2="196.47"/><line style="stroke:#181818;stroke-width:0.5;" x1="145.87" x2="241.3651" y1="204.47" y2="204.47"/></g><!--class ImportService--><g id="elem_ImportService"><rect codeLine="8" fill="#F1F1F1" height="146.9297" id="ImportService" rx="2.5" ry="2.5" style="stroke:#181818;stroke-width:0.5;" width="290.4414" x="277.4" y="115"/><ellipse cx="371.9649" cy="131" fill="#A9DCDF" rx="11" ry="11" style="stroke:#181818;stroke-width:1;"/><path d="M371.8282,126.3481 L370.6744,131.4199 L372.9903,131.4199 Z M370.3341,124.1069 L373.3307,124.1069 L376.6759,136.5 L374.2271,136.5 L373.4635,133.437 L370.1847,133.437 L369.4376,136.5 L366.9889,136.5 Z " fill="#000000"/><text fill="#000000" font-family="sans-serif" font-size="14" font-style="italic" lengthAdjust="spacing" textLength="92.8115" x="392.4649" y="136.291">ImportService</text><line style="stroke:#181818;stroke-width:0.5;" x1="278.4" x2="566.8414" y1="147" y2="147"/><line style="stroke:#181818;stroke-width:0.5;" x1="278.4" x2="566.8414" y1="155" y2="155"/><ellipse cx="288.4" cy="168.7441" fill="#84BE84" rx="3" ry="3" style="stroke:#038048;stroke-width:1;"/><text fill="#000000" font-family="sans-serif" font-size="14" lengthAdjust="spacing" textLength="141.668" x="297.4" y="172.5352">GetDataPath(): String</text><ellipse cx="288.4" cy="185.2324" fill="#84BE84" rx="3" ry="3" style="stroke:#038048;stroke-width:1;"/><text fill="#000000" font-family="sans-serif" font-size="14" lengthAdjust="spacing" textLength="79.8643" x="297.4" y="189.0234">Read(): void</text><ellipse cx="288.4" cy="201.7207" fill="#84BE84" rx="3" ry="3" style="stroke:#038048;stroke-width:1;"/><text fill="#000000" font-family="sans-serif" font-size="14" lengthAdjust="spacing" textLength="215.7832" x="297.4" y="205.5117">GetTraceStartTime(): timestamp</text><ellipse cx="288.4" cy="218.209" fill="#84BE84" rx="3" ry="3" style="stroke:#038048;stroke-width:1;"/><text fill="#000000" font-family="sans-serif" font-size="14" lengthAdjust="spacing" textLength="155.3398" x="297.4" y="222">GetDriveName(): String</text><ellipse cx="288.4" cy="234.6973" fill="#84BE84" rx="3" ry="3" style="stroke:#038048;stroke-width:1;"/><text fill="#000000" font-family="sans-serif" font-size="14" lengthAdjust="spacing" textLength="228.6484" x="297.4" y="238.4883">GetAvailableValueTypes(): String[]</text><ellipse cx="288.4" cy="251.1855" fill="#84BE84" rx="3" ry="3" style="stroke:#038048;stroke-width:1;"/><text fill="#000000" font-family="sans-serif" font-size="14" lengthAdjust="spacing" textLength="264.4414" x="297.4" y="254.9766">EetData(valueType: Dtring): DataPoint[]</text></g><!--class Manufacturer1--><g id="elem_Manufacturer1"><rect codeLine="16" fill="#F1F1F1" height="64.4883" id="Manufacturer1" rx="2.5" ry="2.5" style="stroke:#181818;stroke-width:0.5;" width="243.1641" x="162.04" y="321.93"/><ellipse cx="229.7465" cy="337.93" fill="#ADD1B2" rx="11" ry="11" style="stroke:#181818;stroke-width:1;"/><path d="M232.2197,344.0731 Q231.6386,344.3719 230.9995,344.5213 Q230.3603,344.6707 229.6547,344.6707 Q227.1479,344.6707 225.8281,343.0189 Q224.5083,341.367 224.5083,338.2459 Q224.5083,335.1165 225.8281,333.4647 Q227.1479,331.8128 229.6547,331.8128 Q230.3603,331.8128 231.0078,331.9622 Q231.6552,332.1116 232.2197,332.4105 L232.2197,335.1331 Q231.5888,334.5521 230.9953,334.2823 Q230.4018,334.0125 229.771,334.0125 Q228.4262,334.0125 227.7414,335.0792 Q227.0566,336.1458 227.0566,338.2459 Q227.0566,340.3377 227.7414,341.4044 Q228.4262,342.471 229.771,342.471 Q230.4018,342.471 230.9953,342.2012 Q231.5888,341.9315 232.2197,341.3504 Z " fill="#000000"/><text fill="#000000" font-family="sans-serif" font-size="14" lengthAdjust="spacing" textLength="99.251" x="250.2465" y="343.221">Manufacturer1</text><line style="stroke:#181818;stroke-width:0.5;" x1="163.04" x2="404.2041" y1="353.93" y2="353.93"/><line style="stroke:#181818;stroke-width:1;" x1="163.04" x2="404.2041" y1="361.93" y2="361.93"/><ellipse cx="173.04" cy="375.6741" fill="#84BE84" rx="3" ry="3" style="stroke:#038048;stroke-width:1;"/><text fill="#000000" font-family="sans-serif" font-size="14" lengthAdjust="spacing" textLength="217.1641" x="182.04" y="379.4652">Manufacturer1(datapath: String)</text></g><!--class Manufacturer2--><g id="elem_Manufacturer2"><rect codeLine="20" fill="#F1F1F1" height="64.4883" id="Manufacturer2" rx="2.5" ry="2.5" style="stroke:#181818;stroke-width:0.5;" width="243.1641" x="440.04" y="321.93"/><ellipse cx="507.7465" cy="337.93" fill="#ADD1B2" rx="11" ry="11" style="stroke:#181818;stroke-width:1;"/><path d="M510.2197,344.0731 Q509.6386,344.3719 508.9995,344.5213 Q508.3603,344.6707 507.6547,344.6707 Q505.1479,344.6707 503.8281,343.0189 Q502.5083,341.367 502.5083,338.2459 Q502.5083,335.1165 503.8281,333.4647 Q505.1479,331.8128 507.6547,331.8128 Q508.3603,331.8128 509.0078,331.9622 Q509.6552,332.1116 510.2197,332.4105 L510.2197,335.1331 Q509.5888,334.5521 508.9953,334.2823 Q508.4018,334.0125 507.771,334.0125 Q506.4262,334.0125 505.7414,335.0792 Q505.0566,336.1458 505.0566,338.2459 Q505.0566,340.3377 505.7414,341.4044 Q506.4262,342.471 507.771,342.471 Q508.4018,342.471 508.9953,342.2012 Q509.5888,341.9315 510.2197,341.3504 Z " fill="#000000"/><text fill="#000000" font-family="sans-serif" font-size="14" lengthAdjust="spacing" textLength="99.251" x="528.2465" y="343.221">Manufacturer2</text><line style="stroke:#181818;stroke-width:0.5;" x1="441.04" x2="682.2041" y1="353.93" y2="353.93"/><line style="stroke:#181818;stroke-width:1;" x1="441.04" x2="682.2041" y1="361.93" y2="361.93"/><ellipse cx="451.04" cy="375.6741" fill="#84BE84" rx="3" ry="3" style="stroke:#038048;stroke-width:1;"/><text fill="#000000" font-family="sans-serif" font-size="14" lengthAdjust="spacing" textLength="217.1641" x="460.04" y="379.4652">Manufacturer2(datapath: String)</text></g><!--link ImportController to ImportService--><g id="link_ImportController_ImportService"><path codeLine="25" d="M422.62,55.28 C422.62,71.2 422.62,93.25 422.62,114.79 " fill="none" id="ImportController-ImportService" style="stroke:#181818;stroke-width:1;"/></g><!--link ImportService to Manufacturer1--><g id="link_ImportService_Manufacturer1"><path codeLine="26" d="M360.84,262.23 C343.15,283.06 324.78,304.69 310.4,321.63 " fill="none" id="ImportService-Manufacturer1" style="stroke:#181818;stroke-width:1;"/></g><!--link ImportService to Manufacturer2--><g id="link_ImportService_Manufacturer2"><path codeLine="27" d="M484.4,262.23 C502.09,283.06 520.45,304.69 534.84,321.63 " fill="none" id="ImportService-Manufacturer2" style="stroke:#181818;stroke-width:1;"/></g><!--SRC=[VP51ImCn48Nl-HLpwnRfeJts9gs8I4NSnOjucEvEDP1DbcGs8E9_TxQRsaqfvXBolZTlCabjC0HuQ3ldMTMJmyPPziuOyaakoMiAcq6gMJkRv2qoZWWcohFJba7DPc2f9tWS05bGk0_iiMQOjfBog6k2RmMoRk2U-9Y1_5dCrr2or_O34dmXR0OrEjt0kQ2IL2ePFLUwfS70iWV6jfkaUXtf2KUUnmgzZQWDxWszekcf-keed7rlxybuDrwkY2VJ6hP7XrZ_9XVtJtgD7Th-81FtdlmoZRXOZ64PAngfxcJcKylvrOpLHKOEhuQeon-LulpfLVuHWhEh_OzNlm00]--></g></svg>