<svg xmlns="http://www.w3.org/2000/svg" xmlns:xlink="http://www.w3.org/1999/xlink" contentStyleType="text/css" height="508px" preserveAspectRatio="none" style="width:1032px;height:508px;background:#FFFFFF;" version="1.1" viewBox="0 0 1032 508" width="1032px" zoomAndPan="magnify"><defs/><g><!--class SozialesNetzwerk--><g id="elem_SozialesNetzwerk"><rect codeLine="2" fill="#F1F1F1" height="113.9531" id="SozialesNetzwerk" rx="2.5" ry="2.5" style="stroke:#181818;stroke-width:0.5;" width="313.0273" x="357.51" y="7"/><ellipse cx="450.3591" cy="23" fill="#ADD1B2" rx="11" ry="11" style="stroke:#181818;stroke-width:1;"/><path d="M452.8323,29.1431 Q452.2512,29.4419 451.6121,29.5913 Q450.9729,29.7407 450.2673,29.7407 Q447.7605,29.7407 446.4407,28.0889 Q445.1208,26.437 445.1208,23.3159 Q445.1208,20.1865 446.4407,18.5347 Q447.7605,16.8828 450.2673,16.8828 Q450.9729,16.8828 451.6204,17.0322 Q452.2678,17.1816 452.8323,17.4805 L452.8323,20.2031 Q452.2014,19.6221 451.6079,19.3523 Q451.0144,19.0825 450.3835,19.0825 Q449.0388,19.0825 448.354,20.1492 Q447.6692,21.2158 447.6692,23.3159 Q447.6692,25.4077 448.354,26.4744 Q449.0388,27.541 450.3835,27.541 Q451.0144,27.541 451.6079,27.2712 Q452.2014,27.0015 452.8323,26.4204 Z " fill="#000000"/><text fill="#000000" font-family="sans-serif" font-size="14" lengthAdjust="spacing" textLength="118.8291" x="470.8591" y="28.291">SozialesNetzwerk</text><line style="stroke:#181818;stroke-width:0.5;" x1="358.51" x2="669.5373" y1="39" y2="39"/><text fill="#000000" font-family="sans-serif" font-size="14" lengthAdjust="spacing" textLength="16.2012" x="363.51" y="56.5352">--</text><line style="stroke:#181818;stroke-width:0.5;" x1="358.51" x2="669.5373" y1="63.4883" y2="63.4883"/><ellipse cx="368.51" cy="77.2324" fill="#84BE84" rx="3" ry="3" style="stroke:#038048;stroke-width:1;"/><text fill="#000000" font-family="sans-serif" font-size="14" lengthAdjust="spacing" textLength="250.1885" x="377.51" y="81.0234">hinzufuegenMitglied(person: Person)</text><ellipse cx="368.51" cy="93.7207" fill="#84BE84" rx="3" ry="3" style="stroke:#038048;stroke-width:1;"/><text fill="#000000" font-family="sans-serif" font-size="14" lengthAdjust="spacing" textLength="287.0273" x="377.51" y="97.5117">hinzufuegenNachrict(nachricht: Nachricht)</text><ellipse cx="368.51" cy="110.209" fill="#84BE84" rx="3" ry="3" style="stroke:#038048;stroke-width:1;"/><text fill="#000000" font-family="sans-serif" font-size="14" lengthAdjust="spacing" textLength="182.7725" x="377.51" y="114">getAllNachrichten() : string</text></g><!--class Nachricht--><g id="elem_Nachricht"><rect codeLine="10" fill="#F1F1F1" height="130.4414" id="Nachricht" rx="2.5" ry="2.5" style="stroke:#181818;stroke-width:0.5;" width="216.9688" x="406.54" y="371.4"/><ellipse cx="478.372" cy="387.4" fill="#A9DCDF" rx="11" ry="11" style="stroke:#181818;stroke-width:1;"/><path d="M478.2353,382.7481 L477.0815,387.8199 L479.3974,387.8199 Z M476.7412,380.5069 L479.7378,380.5069 L483.083,392.9 L480.6342,392.9 L479.8706,389.837 L476.5918,389.837 L475.8447,392.9 L473.396,392.9 Z " fill="#000000"/><text fill="#000000" font-family="sans-serif" font-size="14" font-style="italic" lengthAdjust="spacing" textLength="64.8047" x="498.872" y="392.691">Nachricht</text><line style="stroke:#181818;stroke-width:0.5;" x1="407.54" x2="622.5088" y1="403.4" y2="403.4"/><polygon fill="none" points="417.54,412.1441,421.54,416.1441,417.54,420.1441,413.54,416.1441" style="stroke:#B38D22;stroke-width:1;"/><text fill="#000000" font-family="sans-serif" font-size="14" lengthAdjust="spacing" textLength="58.0439" x="426.54" y="420.9352">likes: int</text><line style="stroke:#181818;stroke-width:1;" x1="407.54" x2="622.5088" y1="427.8883" y2="427.8883"/><ellipse cx="417.54" cy="441.6324" fill="#84BE84" rx="3" ry="3" style="stroke:#038048;stroke-width:1;"/><text fill="#000000" font-family="sans-serif" font-size="14" lengthAdjust="spacing" textLength="73.9102" x="426.54" y="445.4234">Nachricht()</text><ellipse cx="417.54" cy="458.1207" fill="#84BE84" rx="3" ry="3" style="stroke:#038048;stroke-width:1;"/><text fill="#000000" font-family="sans-serif" font-size="14" lengthAdjust="spacing" textLength="190.9688" x="426.54" y="461.9117">Nachricht(absender: Person)</text><ellipse cx="417.54" cy="474.609" fill="#84BE84" rx="3" ry="3" style="stroke:#038048;stroke-width:1;"/><text fill="#000000" font-family="sans-serif" font-size="14" lengthAdjust="spacing" textLength="121.5908" x="426.54" y="478.4">hinzufuegenLike()</text><ellipse cx="417.54" cy="491.0973" fill="#84BE84" rx="3" ry="3" style="stroke:#038048;stroke-width:1;"/><text fill="#000000" font-family="sans-serif" font-size="14" font-style="italic" lengthAdjust="spacing" textLength="144.1016" x="426.54" y="494.8883">getNachricht(): string</text></g><!--class Person--><g id="elem_Person"><rect codeLine="19" fill="#F1F1F1" height="130.4414" id="Person" rx="2.5" ry="2.5" style="stroke:#181818;stroke-width:0.5;" width="316.5889" x="461.73" y="180.96"/><ellipse cx="592.9287" cy="196.96" fill="#ADD1B2" rx="11" ry="11" style="stroke:#181818;stroke-width:1;"/><path d="M595.4019,203.1031 Q594.8208,203.4019 594.1817,203.5513 Q593.5425,203.7007 592.8369,203.7007 Q590.3301,203.7007 589.0103,202.0489 Q587.6904,200.397 587.6904,197.2759 Q587.6904,194.1465 589.0103,192.4947 Q590.3301,190.8428 592.8369,190.8428 Q593.5425,190.8428 594.19,190.9922 Q594.8374,191.1416 595.4019,191.4405 L595.4019,194.1631 Q594.771,193.5821 594.1775,193.3123 Q593.584,193.0425 592.9531,193.0425 Q591.6084,193.0425 590.9236,194.1092 Q590.2388,195.1758 590.2388,197.2759 Q590.2388,199.3677 590.9236,200.4344 Q591.6084,201.501 592.9531,201.501 Q593.584,201.501 594.1775,201.2312 Q594.771,200.9615 595.4019,200.3804 Z " fill="#000000"/><text fill="#000000" font-family="sans-serif" font-size="14" lengthAdjust="spacing" textLength="45.6914" x="613.4287" y="202.251">Person</text><line style="stroke:#181818;stroke-width:0.5;" x1="462.73" x2="777.3189" y1="212.96" y2="212.96"/><rect fill="none" height="6" style="stroke:#C82930;stroke-width:1;" width="6" x="469.73" y="223.7041"/><text fill="#000000" font-family="sans-serif" font-size="14" lengthAdjust="spacing" textLength="117.9951" x="481.73" y="230.4952">nachname: string</text><rect fill="none" height="6" style="stroke:#C82930;stroke-width:1;" width="6" x="469.73" y="240.1924"/><text fill="#000000" font-family="sans-serif" font-size="14" lengthAdjust="spacing" textLength="107.29" x="481.73" y="246.9834">vorname: string</text><line style="stroke:#181818;stroke-width:1;" x1="462.73" x2="777.3189" y1="253.9366" y2="253.9366"/><ellipse cx="472.73" cy="267.6807" fill="#84BE84" rx="3" ry="3" style="stroke:#038048;stroke-width:1;"/><text fill="#000000" font-family="sans-serif" font-size="14" lengthAdjust="spacing" textLength="54.7969" x="481.73" y="271.4717">Person()</text><ellipse cx="472.73" cy="284.169" fill="#84BE84" rx="3" ry="3" style="stroke:#038048;stroke-width:1;"/><text fill="#000000" font-family="sans-serif" font-size="14" lengthAdjust="spacing" textLength="198.249" x="481.73" y="287.96">Person(nn: string , vn: string)</text><ellipse cx="472.73" cy="300.6573" fill="#84BE84" rx="3" ry="3" style="stroke:#038048;stroke-width:1;"/><text fill="#000000" font-family="sans-serif" font-size="14" lengthAdjust="spacing" textLength="290.5889" x="481.73" y="304.4483">getNachname(): stringgetVorname(): string</text></g><!--class Textnachricht--><g id="elem_Textnachricht"><rect codeLine="28" fill="#F1F1F1" height="113.9531" id="Textnachricht" rx="2.5" ry="2.5" style="stroke:#181818;stroke-width:0.5;" width="366.2246" x="658.91" y="379.64"/><ellipse cx="790.9598" cy="395.64" fill="#ADD1B2" rx="11" ry="11" style="stroke:#181818;stroke-width:1;"/><path d="M793.4329,401.7831 Q792.8519,402.0819 792.2127,402.2313 Q791.5736,402.3807 790.868,402.3807 Q788.3612,402.3807 787.0413,400.7289 Q785.7215,399.077 785.7215,395.9559 Q785.7215,392.8265 787.0413,391.1747 Q788.3612,389.5228 790.868,389.5228 Q791.5736,389.5228 792.221,389.6722 Q792.8685,389.8216 793.4329,390.1205 L793.4329,392.8431 Q792.8021,392.2621 792.2086,391.9923 Q791.6151,391.7225 790.9842,391.7225 Q789.6395,391.7225 788.9547,392.7892 Q788.2699,393.8558 788.2699,395.9559 Q788.2699,398.0477 788.9547,399.1144 Q789.6395,400.181 790.9842,400.181 Q791.6151,400.181 792.2086,399.9112 Q792.8021,399.6415 793.4329,399.0604 Z " fill="#000000"/><text fill="#000000" font-family="sans-serif" font-size="14" lengthAdjust="spacing" textLength="93.625" x="811.4598" y="400.931">Textnachricht</text><line style="stroke:#181818;stroke-width:0.5;" x1="659.91" x2="1024.1346" y1="411.64" y2="411.64"/><rect fill="none" height="6" style="stroke:#C82930;stroke-width:1;" width="6" x="666.91" y="422.3841"/><text fill="#000000" font-family="sans-serif" font-size="14" lengthAdjust="spacing" textLength="111.5762" x="678.91" y="429.1752">nachricht: string</text><line style="stroke:#181818;stroke-width:1;" x1="659.91" x2="1024.1346" y1="436.1283" y2="436.1283"/><ellipse cx="669.91" cy="449.8724" fill="#84BE84" rx="3" ry="3" style="stroke:#038048;stroke-width:1;"/><text fill="#000000" font-family="sans-serif" font-size="14" lengthAdjust="spacing" textLength="102.7305" x="678.91" y="453.6634">Textnachricht()</text><ellipse cx="669.91" cy="466.3607" fill="#84BE84" rx="3" ry="3" style="stroke:#038048;stroke-width:1;"/><text fill="#000000" font-family="sans-serif" font-size="14" lengthAdjust="spacing" textLength="340.2246" x="678.91" y="470.1517">Textnachricht(nachricht: string, absender: Person)</text><ellipse cx="669.91" cy="482.849" fill="#84BE84" rx="3" ry="3" style="stroke:#038048;stroke-width:1;"/><text fill="#000000" font-family="sans-serif" font-size="14" lengthAdjust="spacing" textLength="144.1016" x="678.91" y="486.64">getNachricht(): string</text></g><!--class Bildnachricht--><g id="elem_Bildnachricht"><rect codeLine="36" fill="#F1F1F1" height="113.9531" id="Bildnachricht" rx="2.5" ry="2.5" style="stroke:#181818;stroke-width:0.5;" width="364.0439" x="7" y="379.64"/><ellipse cx="140.7178" cy="395.64" fill="#ADD1B2" rx="11" ry="11" style="stroke:#181818;stroke-width:1;"/><path d="M143.1909,401.7831 Q142.6099,402.0819 141.9707,402.2313 Q141.3315,402.3807 140.626,402.3807 Q138.1191,402.3807 136.7993,400.7289 Q135.4795,399.077 135.4795,395.9559 Q135.4795,392.8265 136.7993,391.1747 Q138.1191,389.5228 140.626,389.5228 Q141.3315,389.5228 141.979,389.6722 Q142.6265,389.8216 143.1909,390.1205 L143.1909,392.8431 Q142.5601,392.2621 141.9666,391.9923 Q141.373,391.7225 140.7422,391.7225 Q139.3975,391.7225 138.7126,392.7892 Q138.0278,393.8558 138.0278,395.9559 Q138.0278,398.0477 138.7126,399.1144 Q139.3975,400.181 140.7422,400.181 Q141.373,400.181 141.9666,399.9112 Q142.5601,399.6415 143.1909,399.0604 Z " fill="#000000"/><text fill="#000000" font-family="sans-serif" font-size="14" lengthAdjust="spacing" textLength="88.1084" x="161.2178" y="400.931">Bildnachricht</text><line style="stroke:#181818;stroke-width:0.5;" x1="8" x2="370.0439" y1="411.64" y2="411.64"/><rect fill="none" height="6" style="stroke:#C82930;stroke-width:1;" width="6" x="15" y="422.3841"/><text fill="#000000" font-family="sans-serif" font-size="14" lengthAdjust="spacing" textLength="119.3418" x="27" y="429.1752">dateiname: string</text><line style="stroke:#181818;stroke-width:1;" x1="8" x2="370.0439" y1="436.1283" y2="436.1283"/><ellipse cx="18" cy="449.8724" fill="#84BE84" rx="3" ry="3" style="stroke:#038048;stroke-width:1;"/><text fill="#000000" font-family="sans-serif" font-size="14" lengthAdjust="spacing" textLength="97.2139" x="27" y="453.6634">Bildnachricht()</text><ellipse cx="18" cy="466.3607" fill="#84BE84" rx="3" ry="3" style="stroke:#038048;stroke-width:1;"/><text fill="#000000" font-family="sans-serif" font-size="14" lengthAdjust="spacing" textLength="338.0439" x="27" y="470.1517">Bildnachricht(dateiname:string, absender: Person)</text><ellipse cx="18" cy="482.849" fill="#84BE84" rx="3" ry="3" style="stroke:#038048;stroke-width:1;"/><text fill="#000000" font-family="sans-serif" font-size="14" lengthAdjust="spacing" textLength="144.1016" x="27" y="486.64">getNachricht(): string</text></g><!--reverse link SozialesNetzwerk to Person--><g id="link_SozialesNetzwerk_Person"><path codeLine="44" d="M553.0628,131.3541 C564.1828,150.2641 570.6,161.17 582.08,180.68 " fill="none" id="SozialesNetzwerk-backto-Person" style="stroke:#181818;stroke-width:1;"/><polygon fill="none" points="546.98,121.01,546.5734,128.2096,553.0628,131.3541,553.4694,124.1544,546.98,121.01" style="stroke:#181818;stroke-width:1;"/><text fill="#000000" font-family="sans-serif" font-size="13" lengthAdjust="spacing" textLength="84.4556" x="461.9056" y="141.4623">- mitglieder[]</text><text fill="#000000" font-family="sans-serif" font-size="13" lengthAdjust="spacing" textLength="22.7119" x="554.7656" y="170.2809">0..*</text></g><!--reverse link SozialesNetzwerk to Nachricht--><g id="link_SozialesNetzwerk_Nachricht"><path codeLine="45" d="M465.2784,131.6137 C454.0484,149.6937 449.79,160.23 444.02,180.96 C428.47,236.81 429.14,255.37 444.02,311.4 C449.47,331.93 459.2,352.6 469.75,371.03 " fill="none" id="SozialesNetzwerk-backto-Nachricht" style="stroke:#181818;stroke-width:1;"/><polygon fill="none" points="471.61,121.42,465.0463,124.4063,465.2784,131.6137,471.8421,128.6274,471.61,121.42" style="stroke:#181818;stroke-width:1;"/><text fill="#000000" font-family="sans-serif" font-size="13" lengthAdjust="spacing" textLength="113.0454" x="345.6209" y="360.621">- nachrichtenlist[]</text></g><!--reverse link Person to Nachricht--><g id="link_Person_Nachricht"><path codeLine="46" d="M581.1099,317.0115 C570.4299,336.1815 561.65,351.94 550.96,371.12 " fill="none" id="Person-backto-Nachricht" style="stroke:#181818;stroke-width:1;"/><polygon fill="#181818" points="584.03,311.77,576.1555,317.6854,581.5966,316.1379,583.1441,321.5789,584.03,311.77" style="stroke:#181818;stroke-width:1;"/><text fill="#000000" font-family="sans-serif" font-size="13" lengthAdjust="spacing" textLength="65.5649" x="511.9956" y="331.8917">-absender</text></g><!--reverse link Nachricht to Textnachricht--><g id="link_Nachricht_Textnachricht"><path codeLine="47" d="M641.92,436.62 C653.42,436.62 646.92,436.62 658.42,436.62 " fill="none" id="Nachricht-backto-Textnachricht" style="stroke:#181818;stroke-width:1;"/><polygon fill="none" points="623.92,436.62,641.92,442.62,641.92,430.62,623.92,436.62" style="stroke:#181818;stroke-width:1;"/></g><!--link Bildnachricht to Nachricht--><g id="link_Bildnachricht_Nachricht"><path codeLine="48" d="M371.44,436.62 C383.03,436.62 376.62,436.62 388.22,436.62 " fill="none" id="Bildnachricht-to-Nachricht" style="stroke:#181818;stroke-width:1;"/><polygon fill="none" points="406.22,436.62,388.22,430.62,388.22,442.62,406.22,436.62" style="stroke:#181818;stroke-width:1;"/></g><!--SRC=[VPF1JiCm38RlUGgh7EXWcJXN4n8xGuK4ue8uXDQqqR8KjTb0tVRkj4tgBaHRBt4i_x-_E4scHDF0IzLAeR19qRG_MAzXpnXq7-V3SWkbrEtsQui5wYTf2YKnZx-nRYgTmFEmpiBAL6HbBJCJQnkK9e5q3CVw0is3KfH67SyWWSRKKXVio9Zux6AH6SW6KYhS3_ehK7ADJG9I6v-O2kDPaEayKUTONs1_x6n9kHyXZZtkYVC82j2ZMa9h2PQFGtzsBJP8PxBfNLM7sP7TMb1xjzMQsirXHvkJGQQkrmJM9TzifoateRxYhz7-G2smkopNpOVpHCJePmEFEGGp1v_x_qGdofLKEHdIN7DXK9uVeISYIZyxMPo5lCZO8Lx32bk9vROd3bvHn67ZNWlMxnyHL9n3TBTOt4IkGQWPIavk0RMIZUd5HC3SBnRnaJU2PIUR2YY2vO7xTyFySVB3_QG3zWS0]--></g></svg>