<svg xmlns="http://www.w3.org/2000/svg" xmlns:xlink="http://www.w3.org/1999/xlink" contentStyleType="text/css" height="767px" preserveAspectRatio="none" style="width:754px;height:767px;background:#FFFFFF;" version="1.1" viewBox="0 0 754 767" width="754px" zoomAndPan="magnify"><defs/><g><!--class Adresse--><g id="elem_Adresse"><rect codeLine="2" fill="#F1F1F1" height="130.4414" id="Adresse" rx="2.5" ry="2.5" style="stroke:#181818;stroke-width:0.5;" width="341.7383" x="7" y="15.24"/><ellipse cx="146.583" cy="31.24" fill="#ADD1B2" rx="11" ry="11" style="stroke:#181818;stroke-width:1;"/><path d="M149.0562,37.3831 Q148.4751,37.6819 147.8359,37.8313 Q147.1968,37.9807 146.4912,37.9807 Q143.9844,37.9807 142.6646,36.3289 Q141.3447,34.677 141.3447,31.5559 Q141.3447,28.4265 142.6646,26.7747 Q143.9844,25.1228 146.4912,25.1228 Q147.1968,25.1228 147.8442,25.2722 Q148.4917,25.4216 149.0562,25.7205 L149.0562,28.4431 Q148.4253,27.8621 147.8318,27.5923 Q147.2383,27.3225 146.6074,27.3225 Q145.2627,27.3225 144.5779,28.3892 Q143.8931,29.4558 143.8931,31.5559 Q143.8931,33.6477 144.5779,34.7144 Q145.2627,35.781 146.6074,35.781 Q147.2383,35.781 147.8318,35.5112 Q148.4253,35.2415 149.0562,34.6604 Z " fill="#000000"/><text fill="#000000" font-family="sans-serif" font-size="14" lengthAdjust="spacing" textLength="54.0723" x="167.083" y="36.531">Adresse</text><line style="stroke:#181818;stroke-width:0.5;" x1="8" x2="347.7383" y1="47.24" y2="47.24"/><rect fill="none" height="6" style="stroke:#C82930;stroke-width:1;" width="6" x="15" y="57.9841"/><text fill="#000000" font-family="sans-serif" font-size="14" lengthAdjust="spacing" textLength="69.7129" x="27" y="64.7752">plz: String</text><rect fill="none" height="6" style="stroke:#C82930;stroke-width:1;" width="6" x="15" y="74.4724"/><text fill="#000000" font-family="sans-serif" font-size="14" lengthAdjust="spacing" textLength="68.3936" x="27" y="81.2634">ort: String</text><rect fill="none" height="6" style="stroke:#C82930;stroke-width:1;" width="6" x="15" y="90.9607"/><text fill="#000000" font-family="sans-serif" font-size="14" lengthAdjust="spacing" textLength="96.7354" x="27" y="97.7517">strasse: String</text><line style="stroke:#181818;stroke-width:1;" x1="8" x2="347.7383" y1="104.7048" y2="104.7048"/><ellipse cx="18" cy="118.449" fill="#84BE84" rx="3" ry="3" style="stroke:#038048;stroke-width:1;"/><text fill="#000000" font-family="sans-serif" font-size="14" lengthAdjust="spacing" textLength="315.7383" x="27" y="122.24">Adresse(plz: String, ort: String, strasse: String)</text><ellipse cx="18" cy="134.9373" fill="#84BE84" rx="3" ry="3" style="stroke:#038048;stroke-width:1;"/><text fill="#000000" font-family="sans-serif" font-size="14" lengthAdjust="spacing" textLength="165.6279" x="27" y="138.7283">GetAdressdaten(): String</text></g><!--class Wohngebaeude--><g id="elem_Wohngebaeude"><rect codeLine="11" fill="#F1F1F1" height="130.4414" id="Wohngebaeude" rx="2.5" ry="2.5" style="stroke:#181818;stroke-width:0.5;" width="347.1182" x="193.31" y="230.93"/><ellipse cx="310.5566" cy="246.93" fill="#ADD1B2" rx="11" ry="11" style="stroke:#181818;stroke-width:1;"/><path d="M313.0297,253.0731 Q312.4487,253.3719 311.8095,253.5213 Q311.1704,253.6707 310.4648,253.6707 Q307.9579,253.6707 306.6381,252.0189 Q305.3183,250.367 305.3183,247.2459 Q305.3183,244.1165 306.6381,242.4647 Q307.9579,240.8128 310.4648,240.8128 Q311.1704,240.8128 311.8178,240.9622 Q312.4653,241.1116 313.0297,241.4105 L313.0297,244.1331 Q312.3989,243.5521 311.8054,243.2823 Q311.2119,243.0125 310.581,243.0125 Q309.2363,243.0125 308.5515,244.0792 Q307.8666,245.1458 307.8666,247.2459 Q307.8666,249.3377 308.5515,250.4044 Q309.2363,251.471 310.581,251.471 Q311.2119,251.471 311.8054,251.2012 Q312.3989,250.9315 313.0297,250.3504 Z " fill="#000000"/><text fill="#000000" font-family="sans-serif" font-size="14" lengthAdjust="spacing" textLength="104.125" x="331.0566" y="252.221">Wohngebaeude</text><line style="stroke:#181818;stroke-width:0.5;" x1="194.31" x2="539.4282" y1="262.93" y2="262.93"/><rect fill="none" height="6" style="stroke:#C82930;stroke-width:1;" width="6" x="201.31" y="273.6741"/><text fill="#000000" font-family="sans-serif" font-size="14" lengthAdjust="spacing" textLength="91.752" x="213.31" y="280.4652">baujahr: Date</text><rect fill="none" height="6" style="stroke:#C82930;stroke-width:1;" width="6" x="201.31" y="290.1624"/><text fill="#000000" font-family="sans-serif" font-size="14" lengthAdjust="spacing" textLength="115.0762" x="213.31" y="296.9534">adresse: Adresse</text><line style="stroke:#181818;stroke-width:1;" x1="194.31" x2="539.4282" y1="303.9066" y2="303.9066"/><ellipse cx="204.31" cy="317.6507" fill="#84BE84" rx="3" ry="3" style="stroke:#038048;stroke-width:1;"/><text fill="#000000" font-family="sans-serif" font-size="14" lengthAdjust="spacing" textLength="321.1182" x="213.31" y="321.4417">Wohngebaeude(baujahr: Date, adress: Adresse)</text><ellipse cx="204.31" cy="334.139" fill="#84BE84" rx="3" ry="3" style="stroke:#038048;stroke-width:1;"/><text fill="#000000" font-family="sans-serif" font-size="14" lengthAdjust="spacing" textLength="186.915" x="213.31" y="337.93">GetGebaeudedaten(): String</text><ellipse cx="204.31" cy="350.6273" fill="#84BE84" rx="3" ry="3" style="stroke:#038048;stroke-width:1;"/><text fill="#000000" font-family="sans-serif" font-size="14" lengthAdjust="spacing" textLength="189.1162" x="213.31" y="354.4183">BerechneMietpreis(): double</text></g><!--class Einfamilienhaus--><g id="elem_Einfamilienhaus"><rect codeLine="20" fill="#F1F1F1" height="97.4648" id="Einfamilienhaus" rx="2.5" ry="2.5" style="stroke:#181818;stroke-width:0.5;" width="210.6865" x="88.53" y="455.35"/><ellipse cx="136.05" cy="471.35" fill="#ADD1B2" rx="11" ry="11" style="stroke:#181818;stroke-width:1;"/><path d="M138.5232,477.4931 Q137.9421,477.7919 137.3029,477.9413 Q136.6638,478.0907 135.9582,478.0907 Q133.4514,478.0907 132.1316,476.4389 Q130.8117,474.787 130.8117,471.6659 Q130.8117,468.5365 132.1316,466.8847 Q133.4514,465.2328 135.9582,465.2328 Q136.6638,465.2328 137.3113,465.3822 Q137.9587,465.5316 138.5232,465.8305 L138.5232,468.5531 Q137.8923,467.9721 137.2988,467.7023 Q136.7053,467.4325 136.0744,467.4325 Q134.7297,467.4325 134.0449,468.4992 Q133.3601,469.5658 133.3601,471.6659 Q133.3601,473.7577 134.0449,474.8244 Q134.7297,475.891 136.0744,475.891 Q136.7053,475.891 137.2988,475.6212 Q137.8923,475.3515 138.5232,474.7704 Z " fill="#000000"/><text fill="#000000" font-family="sans-serif" font-size="14" lengthAdjust="spacing" textLength="107.1465" x="156.55" y="476.641">Einfamilienhaus</text><line style="stroke:#181818;stroke-width:0.5;" x1="89.53" x2="298.2165" y1="487.35" y2="487.35"/><rect fill="none" height="6" style="stroke:#C82930;stroke-width:1;" width="6" x="96.53" y="498.0941"/><text fill="#000000" font-family="sans-serif" font-size="14" lengthAdjust="spacing" textLength="176.1895" x="108.53" y="504.8852">wohneinheit: Wohneinheit</text><line style="stroke:#181818;stroke-width:1;" x1="89.53" x2="298.2165" y1="511.8383" y2="511.8383"/><ellipse cx="99.53" cy="525.5824" fill="#84BE84" rx="3" ry="3" style="stroke:#038048;stroke-width:1;"/><text fill="#000000" font-family="sans-serif" font-size="14" lengthAdjust="spacing" textLength="124.0518" x="108.53" y="529.3734">Einfamielienhaus()</text><ellipse cx="99.53" cy="542.0707" fill="#84BE84" rx="3" ry="3" style="stroke:#038048;stroke-width:1;"/><text fill="#000000" font-family="sans-serif" font-size="14" lengthAdjust="spacing" textLength="184.6865" x="108.53" y="545.8617">BerechneMietpreis() double</text></g><!--class Mehrfamilienhaus--><g id="elem_Mehrfamilienhaus"><rect codeLine="27" fill="#F1F1F1" height="163.418" id="Mehrfamilienhaus" rx="2.5" ry="2.5" style="stroke:#181818;stroke-width:0.5;" width="413.1875" x="334.28" y="422.37"/><ellipse cx="476.0744" cy="438.37" fill="#ADD1B2" rx="11" ry="11" style="stroke:#181818;stroke-width:1;"/><path d="M478.5476,444.5131 Q477.9665,444.8119 477.3274,444.9613 Q476.6882,445.1107 475.9826,445.1107 Q473.4758,445.1107 472.156,443.4589 Q470.8362,441.807 470.8362,438.6859 Q470.8362,435.5565 472.156,433.9047 Q473.4758,432.2528 475.9826,432.2528 Q476.6882,432.2528 477.3357,432.4022 Q477.9831,432.5516 478.5476,432.8505 L478.5476,435.5731 Q477.9167,434.9921 477.3232,434.7223 Q476.7297,434.4525 476.0988,434.4525 Q474.7541,434.4525 474.0693,435.5192 Q473.3845,436.5858 473.3845,438.6859 Q473.3845,440.7777 474.0693,441.8444 Q474.7541,442.911 476.0988,442.911 Q476.7297,442.911 477.3232,442.6412 Q477.9167,442.3715 478.5476,441.7904 Z " fill="#000000"/><text fill="#000000" font-family="sans-serif" font-size="14" lengthAdjust="spacing" textLength="121.0986" x="496.5744" y="443.661">Mehrfamilienhaus</text><line style="stroke:#181818;stroke-width:0.5;" x1="335.28" x2="746.4675" y1="454.37" y2="454.37"/><rect fill="none" height="6" style="stroke:#C82930;stroke-width:1;" width="6" x="342.28" y="465.1141"/><text fill="#000000" font-family="sans-serif" font-size="14" lengthAdjust="spacing" textLength="117.5166" x="354.28" y="471.9052">anzahlEtagen: int</text><rect fill="none" height="6" style="stroke:#C82930;stroke-width:1;" width="6" x="342.28" y="481.6024"/><text fill="#000000" font-family="sans-serif" font-size="14" lengthAdjust="spacing" textLength="166.8721" x="354.28" y="488.3934">anzahlwohneinheiten int</text><rect fill="none" height="6" style="stroke:#C82930;stroke-width:1;" width="6" x="342.28" y="498.0907"/><text fill="#000000" font-family="sans-serif" font-size="14" lengthAdjust="spacing" textLength="270.5049" x="354.28" y="504.8817">wohneinheitenListe: List&lt;Wohneinheit&gt;</text><line style="stroke:#181818;stroke-width:1;" x1="335.28" x2="746.4675" y1="511.8348" y2="511.8348"/><ellipse cx="345.28" cy="525.579" fill="#84BE84" rx="3" ry="3" style="stroke:#038048;stroke-width:1;"/><text fill="#000000" font-family="sans-serif" font-size="14" lengthAdjust="spacing" textLength="130.2041" x="354.28" y="529.37">Mehrfamilienhaus()</text><ellipse cx="345.28" cy="542.0673" fill="#84BE84" rx="3" ry="3" style="stroke:#038048;stroke-width:1;"/><text fill="#000000" font-family="sans-serif" font-size="14" lengthAdjust="spacing" textLength="151.7031" x="354.28" y="545.8583">GetAnzahlEtagen(): int</text><ellipse cx="345.28" cy="558.5555" fill="#84BE84" rx="3" ry="3" style="stroke:#038048;stroke-width:1;"/><text fill="#000000" font-family="sans-serif" font-size="14" lengthAdjust="spacing" textLength="206.6777" x="354.28" y="562.3466">GetAnzahlWohneinheiten(): int</text><ellipse cx="345.28" cy="575.0438" fill="#84BE84" rx="3" ry="3" style="stroke:#038048;stroke-width:1;"/><text fill="#000000" font-family="sans-serif" font-size="14" lengthAdjust="spacing" textLength="387.1875" x="354.28" y="578.8348">AddWohneinheit(etage: int, wohnung: Wohneinheit): void</text></g><!--class Wohneinheit--><g id="elem_Wohneinheit"><rect codeLine="37" fill="#F1F1F1" height="113.9531" id="Wohneinheit" rx="2.5" ry="2.5" style="stroke:#181818;stroke-width:0.5;" width="296.1357" x="218.8" y="646.79"/><ellipse cx="320.488" cy="662.79" fill="#ADD1B2" rx="11" ry="11" style="stroke:#181818;stroke-width:1;"/><path d="M322.9611,668.9331 Q322.3801,669.2319 321.7409,669.3813 Q321.1018,669.5307 320.3962,669.5307 Q317.8894,669.5307 316.5695,667.8789 Q315.2497,666.227 315.2497,663.1059 Q315.2497,659.9765 316.5695,658.3247 Q317.8894,656.6728 320.3962,656.6728 Q321.1018,656.6728 321.7492,656.8222 Q322.3967,656.9716 322.9611,657.2705 L322.9611,659.9931 Q322.3303,659.4121 321.7368,659.1423 Q321.1433,658.8725 320.5124,658.8725 Q319.1677,658.8725 318.4829,659.9392 Q317.798,661.0058 317.798,663.1059 Q317.798,665.1977 318.4829,666.2644 Q319.1677,667.331 320.5124,667.331 Q321.1433,667.331 321.7368,667.0612 Q322.3303,666.7915 322.9611,666.2104 Z " fill="#000000"/><text fill="#000000" font-family="sans-serif" font-size="14" lengthAdjust="spacing" textLength="84.2598" x="340.988" y="668.081">Wohneinheit</text><line style="stroke:#181818;stroke-width:0.5;" x1="219.8" x2="513.9357" y1="678.79" y2="678.79"/><rect fill="none" height="6" style="stroke:#C82930;stroke-width:1;" width="6" x="226.8" y="689.5341"/><text fill="#000000" font-family="sans-serif" font-size="14" lengthAdjust="spacing" textLength="123.9219" x="238.8" y="696.3252">anzahlZimmer: int</text><rect fill="none" height="6" style="stroke:#C82930;stroke-width:1;" width="6" x="226.8" y="706.0224"/><text fill="#000000" font-family="sans-serif" font-size="14" lengthAdjust="spacing" textLength="270.1357" x="238.8" y="712.8134">preisProQM: double- anzahlQM: double</text><line style="stroke:#181818;stroke-width:1;" x1="219.8" x2="513.9357" y1="719.7666" y2="719.7666"/><ellipse cx="229.8" cy="733.5107" fill="#84BE84" rx="3" ry="3" style="stroke:#038048;stroke-width:1;"/><text fill="#000000" font-family="sans-serif" font-size="14" lengthAdjust="spacing" textLength="93.3652" x="238.8" y="737.3017">Wohneinheit()</text><ellipse cx="229.8" cy="749.999" fill="#84BE84" rx="3" ry="3" style="stroke:#038048;stroke-width:1;"/><text fill="#000000" font-family="sans-serif" font-size="14" lengthAdjust="spacing" textLength="211.6475" x="238.8" y="753.79">MietpreisWohneinheit(): double</text></g><!--class Gebaeudeverwaltung--><g id="elem_Gebaeudeverwaltung"><rect codeLine="44" fill="#F1F1F1" height="146.9297" id="Gebaeudeverwaltung" rx="2.5" ry="2.5" style="stroke:#181818;stroke-width:0.5;" width="346.667" x="383.54" y="7"/><ellipse cx="481.5024" cy="23" fill="#ADD1B2" rx="11" ry="11" style="stroke:#181818;stroke-width:1;"/><path d="M483.9755,29.1431 Q483.3945,29.4419 482.7553,29.5913 Q482.1162,29.7407 481.4106,29.7407 Q478.9038,29.7407 477.5839,28.0889 Q476.2641,26.437 476.2641,23.3159 Q476.2641,20.1865 477.5839,18.5347 Q478.9038,16.8828 481.4106,16.8828 Q482.1162,16.8828 482.7636,17.0322 Q483.4111,17.1816 483.9755,17.4805 L483.9755,20.2031 Q483.3447,19.6221 482.7512,19.3523 Q482.1577,19.0825 481.5268,19.0825 Q480.1821,19.0825 479.4973,20.1492 Q478.8125,21.2158 478.8125,23.3159 Q478.8125,25.4077 479.4973,26.4744 Q480.1821,27.541 481.5268,27.541 Q482.1577,27.541 482.7512,27.2712 Q483.3447,27.0015 483.9755,26.4204 Z " fill="#000000"/><text fill="#000000" font-family="sans-serif" font-size="14" lengthAdjust="spacing" textLength="142.2422" x="502.0024" y="28.291">Gebaeudeverwaltung</text><line style="stroke:#181818;stroke-width:0.5;" x1="384.54" x2="729.207" y1="39" y2="39"/><rect fill="none" height="6" style="stroke:#C82930;stroke-width:1;" width="6" x="391.54" y="49.7441"/><text fill="#000000" font-family="sans-serif" font-size="14" lengthAdjust="spacing" textLength="86.1191" x="403.54" y="56.5352">name: String</text><rect fill="none" height="6" style="stroke:#C82930;stroke-width:1;" width="6" x="391.54" y="66.2324"/><text fill="#000000" font-family="sans-serif" font-size="14" lengthAdjust="spacing" textLength="256.9834" x="403.54" y="73.0234">gebaeudeListe: List&lt;Wohngebaeude&gt;</text><line style="stroke:#181818;stroke-width:1;" x1="384.54" x2="729.207" y1="79.9766" y2="79.9766"/><ellipse cx="394.54" cy="93.7207" fill="#84BE84" rx="3" ry="3" style="stroke:#038048;stroke-width:1;"/><text fill="#000000" font-family="sans-serif" font-size="14" lengthAdjust="spacing" textLength="151.3477" x="403.54" y="97.5117">Gebaeudeverwaltung()</text><ellipse cx="394.54" cy="110.209" fill="#84BE84" rx="3" ry="3" style="stroke:#038048;stroke-width:1;"/><text fill="#000000" font-family="sans-serif" font-size="14" lengthAdjust="spacing" textLength="320.667" x="403.54" y="114">AddGebaeude(gebaeude: Wohngebaeude): void</text><ellipse cx="394.54" cy="126.6973" fill="#84BE84" rx="3" ry="3" style="stroke:#038048;stroke-width:1;"/><text fill="#000000" font-family="sans-serif" font-size="14" lengthAdjust="spacing" textLength="240.1943" x="403.54" y="130.4883">AusgabeMietGebaeudedaten(): void</text><ellipse cx="394.54" cy="143.1855" fill="#84BE84" rx="3" ry="3" style="stroke:#038048;stroke-width:1;"/><text fill="#000000" font-family="sans-serif" font-size="14" lengthAdjust="spacing" textLength="214.4844" x="403.54" y="146.9766">BerechneGesamtMiete(): double</text></g><!--reverse link Adresse to Wohngebaeude--><g id="link_Adresse_Wohngebaeude"><path codeLine="54" d="M239.0653,150.6541 C262.7453,177.4241 286.18,203.92 309.84,230.68 " fill="none" id="Adresse-backto-Wohngebaeude" style="stroke:#181818;stroke-width:1;"/><polygon fill="#181818" points="235.09,146.16,238.057,155.5513,238.4028,149.9051,244.0491,150.2509,235.09,146.16" style="stroke:#181818;stroke-width:1;"/><rect fill="none" height="6" style="stroke:#C82930;stroke-width:1;" width="6" x="281.04" y="190.0853"/><text fill="#000000" font-family="sans-serif" font-size="13" lengthAdjust="spacing" textLength="48.4199" x="291.04" y="197.4984">adresse</text><text fill="#000000" font-family="sans-serif" font-size="13" lengthAdjust="spacing" textLength="8.2202" x="232.5898" y="166.293">1</text><text fill="#000000" font-family="sans-serif" font-size="13" lengthAdjust="spacing" textLength="8.2202" x="295.177" y="220.2842">1</text></g><!--link Gebaeudeverwaltung to Wohngebaeude--><g id="link_Gebaeudeverwaltung_Wohngebaeude"><path codeLine="55" d="M492.01,154.4 C469.98,179.19 449.5066,202.206 428.1066,226.276 " fill="none" id="Gebaeudeverwaltung-to-Wohngebaeude" style="stroke:#181818;stroke-width:1;"/><polygon fill="#181818" points="424.12,230.76,433.0893,226.6917,427.4422,227.0233,427.1106,221.3762,424.12,230.76" style="stroke:#181818;stroke-width:1;"/><rect fill="none" height="6" style="stroke:#C82930;stroke-width:1;" width="6" x="464.87" y="190.0853"/><text fill="#000000" font-family="sans-serif" font-size="13" lengthAdjust="spacing" textLength="90.8667" x="474.87" y="197.4984">gebaeudeListe</text><text fill="#000000" font-family="sans-serif" font-size="13" lengthAdjust="spacing" textLength="8.2202" x="477.6718" y="174.49">1</text><text fill="#000000" font-family="sans-serif" font-size="13" lengthAdjust="spacing" textLength="26.8252" x="403.0051" y="220.3729">1...*</text></g><!--reverse link Wohngebaeude to Mehrfamilienhaus--><g id="link_Wohngebaeude_Mehrfamilienhaus"><path codeLine="56" d="M433.0644,375.4916 C449.2044,394.6016 455.48,402.02 472.38,422.02 " fill="none" id="Wohngebaeude-backto-Mehrfamilienhaus" style="stroke:#181818;stroke-width:1;"/><polygon fill="none" points="421.45,361.74,428.4805,379.3631,437.6482,371.6201,421.45,361.74" style="stroke:#181818;stroke-width:1;"/></g><!--reverse link Wohngebaeude to Einfamilienhaus--><g id="link_Wohngebaeude_Einfamilienhaus"><path codeLine="57" d="M301.032,375.5222 C275.662,405.7222 257.55,427.27 234.21,455.06 " fill="none" id="Wohngebaeude-backto-Einfamilienhaus" style="stroke:#181818;stroke-width:1;"/><polygon fill="none" points="312.61,361.74,296.4379,371.6629,305.6261,379.3816,312.61,361.74" style="stroke:#181818;stroke-width:1;"/></g><!--reverse link Mehrfamilienhaus to Wohneinheit--><g id="link_Mehrfamilienhaus_Wohneinheit"><path codeLine="58" d="M461.6622,595.0583 C443.8322,615.3183 433.02,627.61 416.5,646.38 " fill="none" id="Mehrfamilienhaus-backto-Wohneinheit" style="stroke:#181818;stroke-width:1;"/><polygon fill="#181818" points="469.59,586.05,462.6233,587.9115,461.6622,595.0583,468.6288,593.1968,469.59,586.05" style="stroke:#181818;stroke-width:1;"/><text fill="#000000" font-family="sans-serif" font-size="13" lengthAdjust="spacing" textLength="8.2202" x="455.1298" y="606.3206">1</text><text fill="#000000" font-family="sans-serif" font-size="13" lengthAdjust="spacing" textLength="8.2202" x="414.0748" y="636.0592">1</text></g><!--reverse link Einfamilienhaus to Wohneinheit--><g id="link_Einfamilienhaus_Wohneinheit"><path codeLine="59" d="M243.8711,562.2117 C268.4711,590.3317 291.75,616.93 317.51,646.36 " fill="none" id="Einfamilienhaus-backto-Wohneinheit" style="stroke:#181818;stroke-width:1;"/><polygon fill="#181818" points="235.97,553.18,236.91,560.3296,243.8711,562.2117,242.9311,555.0621,235.97,553.18" style="stroke:#181818;stroke-width:1;"/><text fill="#000000" font-family="sans-serif" font-size="13" lengthAdjust="spacing" textLength="26.8252" x="213.9353" y="573.3745">1...*</text><text fill="#000000" font-family="sans-serif" font-size="13" lengthAdjust="spacing" textLength="8.2202" x="303.0204" y="636.0368">1</text></g><!--SRC=[TPDDJyCm38Rl_HKHfswqaxXMqoGGqovC0d6On2rRJHlKfYX9GUBZlvDqSUkaOvTejb_xgJzE3TUQtPOAj8RlXDbVpjwRhu8z6oLavIsTCf556sML45hpuRd6V2b9bD4SMInVUE4Ep5bRSWCoNQ2V9Rz9SXfO3rqjApXowCiH-CZxDrwhWjrRcRVnCqE1C24XpP86yimhH-62JN0xBudmVC0TA3ZL4lO2pBi2eLr4sVN71YR-hP2ll1MD05dpNkCdV5eW4B86ORjqcFw4s5uCg4uN_vUULTv3hMXfXhMv_E9ripMy0bam8KrW9sGWYJUmFmXjRA_TioRqcn0_9aZft0c4wniM8iu3hUXZsBXo9N6duF8C0Ta0siigQAiLVtIYT7irhPNtXMrv4MqBYjIoz-4Q_AYwfpsE5uCdotpT40s_UHnLu2GBSmR3bVi0zSaROpzad9laBKmNShRXKiS3GNiqaNdsaSzs5BqfgelWS7mJCRxN5JyE6pWx4nA6cxe3pLlZeY4y4tzsxEhcYgtpV7XfrOBb_hQJ2xrnqNc-iUzgjLhEb45x4kfawnzRBDxG2o7H0IUpit88ImAEbnm9HyGBiNy0]--></g></svg>