<svg xmlns="http://www.w3.org/2000/svg" xmlns:xlink="http://www.w3.org/1999/xlink" contentStyleType="text/css" height="508px" preserveAspectRatio="none" style="width:842px;height:508px;background:#FFFFFF;" version="1.1" viewBox="0 0 842 508" width="842px" zoomAndPan="magnify"><defs/><g><!--class BestellPosition--><g id="elem_BestellPosition"><rect codeLine="1" fill="#F1F1F1" height="64.4883" id="BestellPosition" rx="2.5" ry="2.5" style="stroke:#181818;stroke-width:0.5;" width="188.4697" x="94.9" y="23.49"/><ellipse cx="136.116" cy="39.49" fill="#ADD1B2" rx="11" ry="11" style="stroke:#181818;stroke-width:1;"/><path d="M138.5892,45.6331 Q138.0081,45.9319 137.3689,46.0813 Q136.7298,46.2307 136.0242,46.2307 Q133.5174,46.2307 132.1976,44.5789 Q130.8777,42.927 130.8777,39.8059 Q130.8777,36.6765 132.1976,35.0247 Q133.5174,33.3728 136.0242,33.3728 Q136.7298,33.3728 137.3772,33.5222 Q138.0247,33.6716 138.5892,33.9705 L138.5892,36.6931 Q137.9583,36.1121 137.3648,35.8423 Q136.7713,35.5725 136.1404,35.5725 Q134.7957,35.5725 134.1109,36.6392 Q133.4261,37.7058 133.4261,39.8059 Q133.4261,41.8977 134.1109,42.9644 Q134.7957,44.031 136.1404,44.031 Q136.7713,44.031 137.3648,43.7612 Q137.9583,43.4915 138.5892,42.9104 Z " fill="#000000"/><text fill="#000000" font-family="sans-serif" font-size="14" lengthAdjust="spacing" textLength="98.2119" x="155.9418" y="44.781">BestellPosition</text><line style="stroke:#181818;stroke-width:0.5;" x1="95.9" x2="282.3697" y1="55.49" y2="55.49"/><rect fill="none" height="6" style="stroke:#C82930;stroke-width:1;" width="6" x="102.9" y="66.2341"/><text fill="#000000" font-family="sans-serif" font-size="14" lengthAdjust="spacing" textLength="162.4697" x="114.9" y="73.0252">nr: interface-anzahl: int</text><line style="stroke:#181818;stroke-width:1;" x1="95.9" x2="282.3697" y1="79.9783" y2="79.9783"/></g><!--class Komponente--><g id="elem_Komponente"><rect codeLine="6" fill="#F1F1F1" height="97.4648" id="Komponente" rx="2.5" ry="2.5" style="stroke:#181818;stroke-width:0.5;" width="140.9531" x="318.65" y="7"/><ellipse cx="343.7838" cy="23" fill="#A9DCDF" rx="11" ry="11" style="stroke:#181818;stroke-width:1;"/><path d="M343.6471,18.3481 L342.4933,23.4199 L344.8092,23.4199 Z M342.1529,16.1069 L345.1495,16.1069 L348.4947,28.5 L346.046,28.5 L345.2823,25.437 L342.0035,25.437 L341.2564,28.5 L338.8077,28.5 Z " fill="#000000"/><text fill="#000000" font-family="sans-serif" font-size="14" font-style="italic" lengthAdjust="spacing" textLength="86.4336" x="360.0357" y="28.291">Komponente</text><line style="stroke:#181818;stroke-width:0.5;" x1="319.65" x2="458.6031" y1="39" y2="39"/><rect fill="none" height="6" style="stroke:#C82930;stroke-width:1;" width="6" x="326.65" y="49.7441"/><text fill="#000000" font-family="sans-serif" font-size="14" lengthAdjust="spacing" textLength="39.6895" x="338.65" y="56.5352">id: int</text><rect fill="none" height="6" style="stroke:#C82930;stroke-width:1;" width="6" x="326.65" y="66.2324"/><text fill="#000000" font-family="sans-serif" font-size="14" lengthAdjust="spacing" textLength="89.1406" x="338.65" y="73.0234">preis: double</text><line style="stroke:#181818;stroke-width:1;" x1="319.65" x2="458.6031" y1="79.9766" y2="79.9766"/><ellipse cx="329.65" cy="93.7207" fill="#84BE84" rx="3" ry="3" style="stroke:#038048;stroke-width:1;"/><text fill="#000000" font-family="sans-serif" font-size="14" lengthAdjust="spacing" textLength="114.9531" x="338.65" y="97.5117">ToString(): string</text></g><!--class Wechselrichter--><g id="elem_Wechselrichter"><rect codeLine="12" fill="#F1F1F1" height="80.9766" id="Wechselrichter" rx="2.5" ry="2.5" style="stroke:#181818;stroke-width:0.5;" width="341.1367" x="494.56" y="15.25"/><ellipse cx="611.3691" cy="31.25" fill="#ADD1B2" rx="11" ry="11" style="stroke:#181818;stroke-width:1;"/><path d="M613.8422,37.3931 Q613.2612,37.6919 612.622,37.8413 Q611.9829,37.9907 611.2773,37.9907 Q608.7704,37.9907 607.4506,36.3389 Q606.1308,34.687 606.1308,31.5659 Q606.1308,28.4365 607.4506,26.7847 Q608.7704,25.1328 611.2773,25.1328 Q611.9829,25.1328 612.6303,25.2822 Q613.2778,25.4316 613.8422,25.7305 L613.8422,28.4531 Q613.2114,27.8721 612.6179,27.6023 Q612.0244,27.3325 611.3935,27.3325 Q610.0488,27.3325 609.364,28.3992 Q608.6791,29.4658 608.6791,31.5659 Q608.6791,33.6577 609.364,34.7244 Q610.0488,35.791 611.3935,35.791 Q612.0244,35.791 612.6179,35.5212 Q613.2114,35.2515 613.8422,34.6704 Z " fill="#000000"/><text fill="#000000" font-family="sans-serif" font-size="14" lengthAdjust="spacing" textLength="99.0186" x="631.8691" y="36.541">Wechselrichter</text><line style="stroke:#181818;stroke-width:0.5;" x1="495.56" x2="834.6967" y1="47.25" y2="47.25"/><rect fill="none" height="6" style="stroke:#C82930;stroke-width:1;" width="6" x="502.56" y="57.9941"/><text fill="#000000" font-family="sans-serif" font-size="14" lengthAdjust="spacing" textLength="69.8975" x="514.56" y="64.7852">mppts: int</text><rect fill="none" height="6" style="stroke:#C82930;stroke-width:1;" width="6" x="502.56" y="74.4824"/><text fill="#000000" font-family="sans-serif" font-size="14" lengthAdjust="spacing" textLength="315.1367" x="514.56" y="81.2734">leistungMppt: double- spannungMppt: double</text><line style="stroke:#181818;stroke-width:1;" x1="495.56" x2="834.6967" y1="88.2266" y2="88.2266"/></g><!--class HybridWechselrichter--><g id="elem_HybridWechselrichter"><rect codeLine="17" fill="#F1F1F1" height="97.4648" id="HybridWechselrichter" rx="2.5" ry="2.5" style="stroke:#181818;stroke-width:0.5;" width="177.0879" x="100.59" y="180.96"/><ellipse cx="116.0708" cy="196.96" fill="#ADD1B2" rx="11" ry="11" style="stroke:#181818;stroke-width:1;"/><path d="M118.5439,203.1031 Q117.9629,203.4019 117.3237,203.5513 Q116.6845,203.7007 115.979,203.7007 Q113.4721,203.7007 112.1523,202.0489 Q110.8325,200.397 110.8325,197.2759 Q110.8325,194.1465 112.1523,192.4947 Q113.4721,190.8428 115.979,190.8428 Q116.6845,190.8428 117.332,190.9922 Q117.9795,191.1416 118.5439,191.4405 L118.5439,194.1631 Q117.913,193.5821 117.3195,193.3123 Q116.726,193.0425 116.0952,193.0425 Q114.7504,193.0425 114.0656,194.1092 Q113.3808,195.1758 113.3808,197.2759 Q113.3808,199.3677 114.0656,200.4344 Q114.7504,201.501 116.0952,201.501 Q116.726,201.501 117.3195,201.2312 Q117.913,200.9615 118.5439,200.3804 Z " fill="#000000"/><text fill="#000000" font-family="sans-serif" font-size="14" lengthAdjust="spacing" textLength="144.0195" x="130.1776" y="202.251">HybridWechselrichter</text><line style="stroke:#181818;stroke-width:0.5;" x1="101.59" x2="276.6779" y1="212.96" y2="212.96"/><rect fill="none" height="6" style="stroke:#C82930;stroke-width:1;" width="6" x="108.59" y="223.7041"/><text fill="#000000" font-family="sans-serif" font-size="14" lengthAdjust="spacing" textLength="151.0879" x="120.59" y="230.4952">lagespannung: double</text><rect fill="none" height="6" style="stroke:#C82930;stroke-width:1;" width="6" x="108.59" y="240.1924"/><text fill="#000000" font-family="sans-serif" font-size="14" lengthAdjust="spacing" textLength="123.7783" x="120.59" y="246.9834">ladestrom: double</text><rect fill="none" height="6" style="stroke:#C82930;stroke-width:1;" width="6" x="108.59" y="256.6807"/><text fill="#000000" font-family="sans-serif" font-size="14" lengthAdjust="spacing" textLength="147.4238" x="120.59" y="263.4717">mayKapazit&#228;t: double</text><line style="stroke:#181818;stroke-width:1;" x1="101.59" x2="276.6779" y1="270.4248" y2="270.4248"/></g><!--class PvModul--><g id="elem_PvModul"><rect codeLine="23" fill="#F1F1F1" height="130.4414" id="PvModul" rx="2.5" ry="2.5" style="stroke:#181818;stroke-width:0.5;" width="148.7803" x="312.74" y="164.47"/><ellipse cx="354.5559" cy="180.47" fill="#ADD1B2" rx="11" ry="11" style="stroke:#181818;stroke-width:1;"/><path d="M357.029,186.6131 Q356.448,186.9119 355.8088,187.0613 Q355.1696,187.2107 354.4641,187.2107 Q351.9572,187.2107 350.6374,185.5589 Q349.3176,183.907 349.3176,180.7859 Q349.3176,177.6565 350.6374,176.0047 Q351.9572,174.3528 354.4641,174.3528 Q355.1696,174.3528 355.8171,174.5022 Q356.4646,174.6516 357.029,174.9505 L357.029,177.6731 Q356.3982,177.0921 355.8046,176.8223 Q355.2111,176.5525 354.5803,176.5525 Q353.2356,176.5525 352.5507,177.6192 Q351.8659,178.6858 351.8659,180.7859 Q351.8659,182.8777 352.5507,183.9444 Q353.2356,185.011 354.5803,185.011 Q355.2111,185.011 355.8046,184.7412 Q356.3982,184.4715 357.029,183.8904 Z " fill="#000000"/><text fill="#000000" font-family="sans-serif" font-size="14" lengthAdjust="spacing" textLength="57.1895" x="374.515" y="185.761">PvModul</text><line style="stroke:#181818;stroke-width:0.5;" x1="313.74" x2="460.5203" y1="196.47" y2="196.47"/><rect fill="none" height="6" style="stroke:#C82930;stroke-width:1;" width="6" x="320.74" y="207.2141"/><text fill="#000000" font-family="sans-serif" font-size="14" lengthAdjust="spacing" textLength="109.9902" x="332.74" y="214.0052">leistung: double</text><rect fill="none" height="6" style="stroke:#C82930;stroke-width:1;" width="6" x="320.74" y="223.7024"/><text fill="#000000" font-family="sans-serif" font-size="14" lengthAdjust="spacing" textLength="122.7803" x="332.74" y="230.4934">spannung: double</text><rect fill="none" height="6" style="stroke:#C82930;stroke-width:1;" width="6" x="320.74" y="240.1907"/><text fill="#000000" font-family="sans-serif" font-size="14" lengthAdjust="spacing" textLength="100.4131" x="332.74" y="246.9817">laenge: double</text><rect fill="none" height="6" style="stroke:#C82930;stroke-width:1;" width="6" x="320.74" y="256.679"/><text fill="#000000" font-family="sans-serif" font-size="14" lengthAdjust="spacing" textLength="95.04" x="332.74" y="263.47">breite: double</text><rect fill="none" height="6" style="stroke:#C82930;stroke-width:1;" width="6" x="320.74" y="273.1673"/><text fill="#000000" font-family="sans-serif" font-size="14" lengthAdjust="spacing" textLength="97.1934" x="332.74" y="279.9583">hoehe: double</text><line style="stroke:#181818;stroke-width:1;" x1="313.74" x2="460.5203" y1="286.9114" y2="286.9114"/></g><!--class Batteriespeicher--><g id="elem_Batteriespeicher"><rect codeLine="31" fill="#F1F1F1" height="80.9766" id="Batteriespeicher" rx="2.5" ry="2.5" style="stroke:#181818;stroke-width:0.5;" width="177.1699" x="496.55" y="189.2"/><ellipse cx="527.91" cy="205.2" fill="#ADD1B2" rx="11" ry="11" style="stroke:#181818;stroke-width:1;"/><path d="M530.3831,211.3431 Q529.8021,211.6419 529.1629,211.7913 Q528.5237,211.9407 527.8182,211.9407 Q525.3113,211.9407 523.9915,210.2889 Q522.6717,208.637 522.6717,205.5159 Q522.6717,202.3865 523.9915,200.7347 Q525.3113,199.0828 527.8182,199.0828 Q528.5237,199.0828 529.1712,199.2322 Q529.8187,199.3816 530.3831,199.6805 L530.3831,202.4031 Q529.7522,201.8221 529.1587,201.5523 Q528.5652,201.2825 527.9344,201.2825 Q526.5896,201.2825 525.9048,202.3492 Q525.22,203.4158 525.22,205.5159 Q525.22,207.6077 525.9048,208.6744 Q526.5896,209.741 527.9344,209.741 Q528.5652,209.741 529.1587,209.4712 Q529.7522,209.2015 530.3831,208.6204 Z " fill="#000000"/><text fill="#000000" font-family="sans-serif" font-size="14" lengthAdjust="spacing" textLength="108.8145" x="545.5455" y="210.491">Batteriespeicher</text><line style="stroke:#181818;stroke-width:0.5;" x1="497.55" x2="672.7199" y1="221.2" y2="221.2"/><rect fill="none" height="6" style="stroke:#C82930;stroke-width:1;" width="6" x="504.55" y="231.9441"/><text fill="#000000" font-family="sans-serif" font-size="14" lengthAdjust="spacing" textLength="126.1504" x="516.55" y="238.7352">kapazitaet: double</text><rect fill="none" height="6" style="stroke:#C82930;stroke-width:1;" width="6" x="504.55" y="248.4324"/><text fill="#000000" font-family="sans-serif" font-size="14" lengthAdjust="spacing" textLength="151.1699" x="516.55" y="255.2234">ladespannung: double</text><line style="stroke:#181818;stroke-width:1;" x1="497.55" x2="672.7199" y1="262.1766" y2="262.1766"/></g><!--class DBVerbindungsManager--><g id="elem_DBVerbindungsManager"><rect codeLine="36" fill="#F1F1F1" height="146.9297" id="DBVerbindungsManager" rx="2.5" ry="2.5" style="stroke:#181818;stroke-width:0.5;" width="364.2627" x="7" y="354.91"/><ellipse cx="103.2363" cy="370.91" fill="#ADD1B2" rx="11" ry="11" style="stroke:#181818;stroke-width:1;"/><path d="M105.7095,377.0531 Q105.1284,377.3519 104.4893,377.5013 Q103.8501,377.6507 103.1445,377.6507 Q100.6377,377.6507 99.3179,375.9989 Q97.998,374.347 97.998,371.2259 Q97.998,368.0965 99.3179,366.4447 Q100.6377,364.7928 103.1445,364.7928 Q103.8501,364.7928 104.4976,364.9422 Q105.145,365.0916 105.7095,365.3905 L105.7095,368.1131 Q105.0786,367.5321 104.4851,367.2623 Q103.8916,366.9925 103.2607,366.9925 Q101.916,366.9925 101.2312,368.0592 Q100.5464,369.1258 100.5464,371.2259 Q100.5464,373.3177 101.2312,374.3844 Q101.916,375.451 103.2607,375.451 Q103.8916,375.451 104.4851,375.1812 Q105.0786,374.9115 105.7095,374.3304 Z " fill="#000000"/><text fill="#000000" font-family="sans-serif" font-size="14" lengthAdjust="spacing" textLength="163.29" x="123.7363" y="376.201">DBVerbindungsManager</text><line style="stroke:#181818;stroke-width:0.5;" x1="8" x2="370.2627" y1="386.91" y2="386.91"/><rect fill="none" height="6" style="stroke:#C82930;stroke-width:1;" width="6" x="15" y="397.6541"/><text fill="#000000" font-family="sans-serif" font-size="14" lengthAdjust="spacing" textLength="201.291" x="27" y="404.4452">dbConneciton: SqlConnection</text><rect fill="none" height="6" style="stroke:#C82930;stroke-width:1;" width="6" x="15" y="414.1424"/><text fill="#000000" font-family="sans-serif" font-size="14" lengthAdjust="spacing" textLength="163.085" x="27" y="420.9334">connectionString: string</text><line style="stroke:#181818;stroke-width:1;" x1="8" x2="370.2627" y1="427.8866" y2="427.8866"/><ellipse cx="18" cy="441.6307" fill="#84BE84" rx="3" ry="3" style="stroke:#038048;stroke-width:1;"/><text fill="#000000" font-family="sans-serif" font-size="14" lengthAdjust="spacing" textLength="128.7617" x="27" y="445.4217">GetDbConnection()</text><ellipse cx="18" cy="458.119" fill="#84BE84" rx="3" ry="3" style="stroke:#038048;stroke-width:1;"/><text fill="#000000" font-family="sans-serif" font-size="14" lengthAdjust="spacing" textLength="172.4023" x="27" y="461.91">GetPvModule(): PvModul[]</text><ellipse cx="18" cy="474.6073" fill="#84BE84" rx="3" ry="3" style="stroke:#038048;stroke-width:1;"/><text fill="#000000" font-family="sans-serif" font-size="14" lengthAdjust="spacing" textLength="248.2607" x="27" y="478.3983">GetWechselrichter(): Wechselrichter[]</text><ellipse cx="18" cy="491.0955" fill="#84BE84" rx="3" ry="3" style="stroke:#038048;stroke-width:1;"/><text fill="#000000" font-family="sans-serif" font-size="14" lengthAdjust="spacing" textLength="338.2627" x="27" y="494.8866">GetHybridWechselrichter(): HybridWechselrichter[]</text></g><!--SRC=[TL9BQiCm4Dtx5BDCABw0bscWXH089BIBqeKiJMrHUUHAIY4fkKrlqejr_8z5uesbD_FUcncDDC9xMA4FQCpEUXsqfPy4-4k1N0QQ0heF8J4LT1QbQP4kdYQN916v3qx80B9LsjYgjeHCWa55goiEr0wrpq3POsvmq6b-3t2m- -0q5Ojb1huz0JjqkgyeIu_6QLboFQDsLTV1j_BG8uRbmv6ABKS6cnHyBOWYT6gYitW-vKwhkT7WOqI1WyQSpo75qtEsYl1Ad3QY5cST_dxlUkw-jrOTpTZFK7saTTSQgS08p7d08GPBY-M8GLp5IWJkLNE7o6rFNNzszGiC4RLh-cPHa-fwzO8krwGunsy5yGYdXrFveoL2gOEb3FPVfhisszTdo17ejcBOYVdEF65OvnDtiPpmVhROh5D_VdkVmlE7RfBco7NkhTLe6BTmvbsIVm00]--></g></svg>