<svg xmlns="http://www.w3.org/2000/svg" xmlns:xlink="http://www.w3.org/1999/xlink" contentStyleType="text/css" data-diagram-type="CLASS" height="318px" preserveAspectRatio="none" style="width:688px;height:318px;background:#FFFFFF;" version="1.1" viewBox="0 0 688 318" width="688px" zoomAndPan="magnify"><defs/><g><!--class machine--><g class="entity" data-entity="machine" data-source-line="1" data-uid="ent0002" id="entity_machine"><rect fill="#F1F1F1" height="80.9766" rx="2.5" ry="2.5" style="stroke:#181818;stroke-width:0.5;" width="182.3037" x="7" y="48.22"/><ellipse cx="65.3037" cy="64.22" fill="#ADD1B2" rx="11" ry="11" style="stroke:#181818;stroke-width:1;"/><path d="M68.918,70.72 L61.1982,70.72 L61.1982,58.3269 L68.918,58.3269 L68.918,60.4851 L63.647,60.4851 L63.647,63.158 L68.4199,63.158 L68.4199,65.3162 L63.647,65.3162 L63.647,68.5618 L68.918,68.5618 Z " fill="#000000"/><text fill="#000000" font-family="sans-serif" font-size="14" lengthAdjust="spacing" textLength="57.1963" x="85.8037" y="69.511">machine</text><line style="stroke:#181818;stroke-width:0.5;" x1="8" x2="188.3037" y1="80.22" y2="80.22"/><ellipse cx="18" cy="93.9641" fill="#000000" rx="3" ry="3" style="stroke:#000000;stroke-width:1;"/><text fill="#000000" font-family="sans-serif" font-size="14" lengthAdjust="spacing" textLength="156.3037" x="27" y="97.7552">machineID primary key</text><line style="stroke:#181818;stroke-width:1;" x1="8" x2="188.3037" y1="104.7083" y2="104.7083"/><ellipse cx="18" cy="118.4524" fill="#000000" rx="3" ry="3" style="stroke:#000000;stroke-width:1;"/><text fill="#000000" font-family="sans-serif" font-size="14" lengthAdjust="spacing" textLength="76.0771" x="27" y="122.2434">description</text></g><!--class drive--><g class="entity" data-entity="drive" data-source-line="7" data-uid="ent0003" id="entity_drive"><rect fill="#F1F1F1" height="97.4648" rx="2.5" ry="2.5" style="stroke:#181818;stroke-width:0.5;" width="212.8262" x="224.74" y="39.97"/><ellipse cx="310.0867" cy="55.97" fill="#ADD1B2" rx="11" ry="11" style="stroke:#181818;stroke-width:1;"/><path d="M313.7009,62.47 L305.9812,62.47 L305.9812,50.0769 L313.7009,50.0769 L313.7009,52.2351 L308.4299,52.2351 L308.4299,54.908 L313.2029,54.908 L313.2029,57.0662 L308.4299,57.0662 L308.4299,60.3118 L313.7009,60.3118 Z " fill="#000000"/><text fill="#000000" font-family="sans-serif" font-size="14" lengthAdjust="spacing" textLength="33.6328" x="330.5867" y="61.261">drive</text><line style="stroke:#181818;stroke-width:0.5;" x1="225.74" x2="436.5662" y1="71.97" y2="71.97"/><ellipse cx="235.74" cy="85.7141" fill="#000000" rx="3" ry="3" style="stroke:#000000;stroke-width:1;"/><text fill="#000000" font-family="sans-serif" font-size="14" lengthAdjust="spacing" textLength="132.7402" x="244.74" y="89.5052">driveID primary key</text><line style="stroke:#181818;stroke-width:1;" x1="225.74" x2="436.5662" y1="96.4583" y2="96.4583"/><ellipse cx="235.74" cy="110.2024" fill="#000000" rx="3" ry="3" style="stroke:#000000;stroke-width:1;"/><text fill="#000000" font-family="sans-serif" font-size="14" lengthAdjust="spacing" textLength="152.6123" x="244.74" y="113.9934">machineID foreign key</text><ellipse cx="235.74" cy="126.6907" fill="#000000" rx="3" ry="3" style="stroke:#000000;stroke-width:1;"/><text fill="#000000" font-family="sans-serif" font-size="14" lengthAdjust="spacing" textLength="186.8262" x="244.74" y="130.4817">manufacturerID foreign key</text></g><!--class manufacturer--><g class="entity" data-entity="manufacturer" data-source-line="14" data-uid="ent0004" id="entity_manufacturer"><rect fill="#F1F1F1" height="80.9766" rx="2.5" ry="2.5" style="stroke:#181818;stroke-width:0.5;" width="216.5176" x="216.89" y="230.41"/><ellipse cx="275.1937" cy="246.41" fill="#ADD1B2" rx="11" ry="11" style="stroke:#181818;stroke-width:1;"/><path d="M278.808,252.91 L271.0882,252.91 L271.0882,240.5169 L278.808,240.5169 L278.808,242.6751 L273.537,242.6751 L273.537,245.348 L278.3099,245.348 L278.3099,247.5062 L273.537,247.5062 L273.537,250.7518 L278.808,250.7518 Z " fill="#000000"/><text fill="#000000" font-family="sans-serif" font-size="14" lengthAdjust="spacing" textLength="91.4102" x="295.6937" y="251.701">manufacturer</text><line style="stroke:#181818;stroke-width:0.5;" x1="217.89" x2="432.4076" y1="262.41" y2="262.41"/><ellipse cx="227.89" cy="276.1541" fill="#000000" rx="3" ry="3" style="stroke:#000000;stroke-width:1;"/><text fill="#000000" font-family="sans-serif" font-size="14" lengthAdjust="spacing" textLength="190.5176" x="236.89" y="279.9452">manufacturerID primary key</text><line style="stroke:#181818;stroke-width:1;" x1="217.89" x2="432.4076" y1="286.8983" y2="286.8983"/><ellipse cx="227.89" cy="300.6424" fill="#000000" rx="3" ry="3" style="stroke:#000000;stroke-width:1;"/><text fill="#000000" font-family="sans-serif" font-size="14" lengthAdjust="spacing" textLength="61.3867" x="236.89" y="304.4334">company</text></g><!--class controller_type--><g class="entity" data-entity="controller_type" data-source-line="20" data-uid="ent0005" id="entity_controller_type"><rect fill="#F1F1F1" height="80.9766" rx="2.5" ry="2.5" style="stroke:#181818;stroke-width:0.5;" width="212.8262" x="468.74" y="230.41"/><ellipse cx="519.9993" cy="246.41" fill="#ADD1B2" rx="11" ry="11" style="stroke:#181818;stroke-width:1;"/><path d="M523.6135,252.91 L515.8938,252.91 L515.8938,240.5169 L523.6135,240.5169 L523.6135,242.6751 L518.3425,242.6751 L518.3425,245.348 L523.1155,245.348 L523.1155,247.5062 L518.3425,247.5062 L518.3425,250.7518 L523.6135,250.7518 Z " fill="#000000"/><text fill="#000000" font-family="sans-serif" font-size="14" lengthAdjust="spacing" textLength="101.8076" x="540.4993" y="251.701">controller_type</text><line style="stroke:#181818;stroke-width:0.5;" x1="469.74" x2="680.5662" y1="262.41" y2="262.41"/><ellipse cx="479.74" cy="276.1541" fill="#000000" rx="3" ry="3" style="stroke:#000000;stroke-width:1;"/><text fill="#000000" font-family="sans-serif" font-size="14" lengthAdjust="spacing" textLength="150.4521" x="488.74" y="279.9452">ctrltypeID primary key</text><line style="stroke:#181818;stroke-width:1;" x1="469.74" x2="680.5662" y1="286.8983" y2="286.8983"/><ellipse cx="479.74" cy="300.6424" fill="#000000" rx="3" ry="3" style="stroke:#000000;stroke-width:1;"/><text fill="#000000" font-family="sans-serif" font-size="14" lengthAdjust="spacing" textLength="186.8262" x="488.74" y="304.4334">manufacturerID foreign key</text></g><!--class trace_data--><g class="entity" data-entity="trace_data" data-source-line="26" data-uid="ent0006" id="entity_trace_data"><rect fill="#F1F1F1" height="163.418" rx="2.5" ry="2.5" style="stroke:#181818;stroke-width:0.5;" width="172.7607" x="483.77" y="7"/><ellipse cx="530.8115" cy="23" fill="#ADD1B2" rx="11" ry="11" style="stroke:#181818;stroke-width:1;"/><path d="M534.4258,29.5 L526.706,29.5 L526.706,17.1069 L534.4258,17.1069 L534.4258,19.2651 L529.1548,19.2651 L529.1548,21.938 L533.9277,21.938 L533.9277,24.0962 L529.1548,24.0962 L529.1548,27.3418 L534.4258,27.3418 Z " fill="#000000"/><text fill="#000000" font-family="sans-serif" font-size="14" lengthAdjust="spacing" textLength="70.1777" x="551.3115" y="28.291">trace_data</text><line style="stroke:#181818;stroke-width:0.5;" x1="484.77" x2="655.5307" y1="39" y2="39"/><ellipse cx="494.77" cy="52.7441" fill="#000000" rx="3" ry="3" style="stroke:#000000;stroke-width:1;"/><text fill="#000000" font-family="sans-serif" font-size="14" lengthAdjust="spacing" textLength="132.7744" x="503.77" y="56.5352">traceID primary key</text><line style="stroke:#181818;stroke-width:1;" x1="484.77" x2="655.5307" y1="63.4883" y2="63.4883"/><ellipse cx="494.77" cy="77.2324" fill="#000000" rx="3" ry="3" style="stroke:#000000;stroke-width:1;"/><text fill="#000000" font-family="sans-serif" font-size="14" lengthAdjust="spacing" textLength="129.0488" x="503.77" y="81.0234">driveID foreign key</text><ellipse cx="494.77" cy="93.7207" fill="#000000" rx="3" ry="3" style="stroke:#000000;stroke-width:1;"/><text fill="#000000" font-family="sans-serif" font-size="14" lengthAdjust="spacing" textLength="146.7607" x="503.77" y="97.5117">ctrltypeID foreign key</text><ellipse cx="494.77" cy="110.209" fill="#000000" rx="3" ry="3" style="stroke:#000000;stroke-width:1;"/><text fill="#000000" font-family="sans-serif" font-size="14" lengthAdjust="spacing" textLength="72.1396" x="503.77" y="114">timestamp</text><ellipse cx="494.77" cy="126.6973" fill="#000000" rx="3" ry="3" style="stroke:#000000;stroke-width:1;"/><text fill="#000000" font-family="sans-serif" font-size="14" lengthAdjust="spacing" textLength="55.166" x="503.77" y="130.4883">position</text><ellipse cx="494.77" cy="143.1855" fill="#000000" rx="3" ry="3" style="stroke:#000000;stroke-width:1;"/><text fill="#000000" font-family="sans-serif" font-size="14" lengthAdjust="spacing" textLength="109.9014" x="503.77" y="146.9766">geschwindigkeit</text><ellipse cx="494.77" cy="159.6738" fill="#000000" rx="3" ry="3" style="stroke:#000000;stroke-width:1;"/><text fill="#000000" font-family="sans-serif" font-size="14" lengthAdjust="spacing" textLength="107.3174" x="503.77" y="163.4648">stromaufnahme</text></g><!--link machine to drive--><g class="link" data-entity-1="machine" data-entity-2="drive" data-source-line="37" data-uid="lnk7" id="link_machine_drive"><path codeLine="37" d="M189.62,88.7 C201.23,88.7 212.84,88.7 224.45,88.7" fill="none" id="machine-drive" style="stroke:#181818;stroke-width:1;"/><text fill="#000000" font-family="sans-serif" font-size="13" lengthAdjust="spacing" textLength="8.2202" x="197.2364" y="85.6824">1</text><text fill="#000000" font-family="sans-serif" font-size="13" lengthAdjust="spacing" textLength="8.0679" x="208.6686" y="85.7518">n</text></g><!--link drive to trace_data--><g class="link" data-entity-1="drive" data-entity-2="trace_data" data-source-line="38" data-uid="lnk8" id="link_drive_trace_data"><path codeLine="38" d="M438.05,88.7 C453.19,88.7 468.32,88.7 483.46,88.7" fill="none" id="drive-trace_data" style="stroke:#181818;stroke-width:1;"/><text fill="#000000" font-family="sans-serif" font-size="13" lengthAdjust="spacing" textLength="8.0679" x="445.5032" y="85.7747">n</text><text fill="#000000" font-family="sans-serif" font-size="13" lengthAdjust="spacing" textLength="12.1367" x="463.5003" y="85.6364">m</text></g><!--link drive to manufacturer--><g class="link" data-entity-1="drive" data-entity-2="manufacturer" data-source-line="39" data-uid="lnk9" id="link_drive_manufacturer"><path codeLine="39" d="M329.56,137.52 C328.6,166.4 327.39,202.78 326.48,230.09" fill="none" id="drive-manufacturer" style="stroke:#181818;stroke-width:1;"/><text fill="#000000" font-family="sans-serif" font-size="13" lengthAdjust="spacing" textLength="8.0679" x="320.7782" y="158.0299">n</text><text fill="#000000" font-family="sans-serif" font-size="13" lengthAdjust="spacing" textLength="8.2202" x="318.0562" y="219.683">1</text></g><!--link manufacturer to controller_type--><g class="link" data-entity-1="manufacturer" data-entity-2="controller_type" data-source-line="40" data-uid="lnk10" id="link_manufacturer_controller_type"><path codeLine="40" d="M433.55,270.9 C445.17,270.9 456.78,270.9 468.4,270.9" fill="none" id="manufacturer-controller_type" style="stroke:#181818;stroke-width:1;"/><text fill="#000000" font-family="sans-serif" font-size="13" lengthAdjust="spacing" textLength="8.2202" x="441.461" y="267.9521">1</text><text fill="#000000" font-family="sans-serif" font-size="13" lengthAdjust="spacing" textLength="8.0679" x="452.6151" y="267.9521">n</text></g><!--link trace_data to controller_type--><g class="link" data-entity-1="trace_data" data-entity-2="controller_type" data-source-line="41" data-uid="lnk11" id="link_trace_data_controller_type"><path codeLine="41" d="M572.4,170.84 C572.97,191.39 573.56,212.57 574.05,230.05" fill="none" id="trace_data-controller_type" style="stroke:#181818;stroke-width:1;"/><text fill="#000000" font-family="sans-serif" font-size="13" lengthAdjust="spacing" textLength="8.0679" x="564.2525" y="191.1244">n</text><text fill="#000000" font-family="sans-serif" font-size="13" lengthAdjust="spacing" textLength="12.1367" x="560.8849" y="219.6364">m</text></g><!--SRC=[ZLBBRiGW3Bpp5OXZfHpw3xtqArQ8E8crmI37QHLL_VScBDd0lbGko3F3-0MGe2pQMpSWWVvHUZrlU_pveIEZjxpeCoo9QveiQM5oZ54maFfL2Yv6BUFNOPEYLoP7dYumO4zNoSRHt5adCmFN0bqaB5L5-TNJf-bTyD5IvUS22OTn13x94ezMdF2u0RMTlctdFoKBMmUdregzkYVevRJp92lBkyeUi88U9h4-vZY62RUTxNo_hd7uHcgnFmDAHgTr1jxE7Td1Gwfz_o7ctUX66p9vrUfoRS0AUrDqLr9DUbZEHrMREsnl5g2AQUrE_axr1m00]--></g></svg>