<svg xmlns="http://www.w3.org/2000/svg" xmlns:xlink="http://www.w3.org/1999/xlink" contentStyleType="text/css" data-diagram-type="CLASS" height="144px" preserveAspectRatio="none" style="width:482px;height:144px;background:#FFFFFF;" version="1.1" viewBox="0 0 482 144" width="482px" zoomAndPan="magnify"><defs/><g><!--class tblbenutzer--><g class="entity" data-entity="tblbenutzer" data-source-line="1" data-uid="ent0002" id="entity_tblbenutzer"><rect fill="#F1F1F1" height="130.4414" rx="2.5" ry="2.5" style="stroke:#181818;stroke-width:0.5;" width="110.873" x="7" y="7"/><ellipse cx="22" cy="23" fill="#ADD1B2" rx="11" ry="11" style="stroke:#181818;stroke-width:1;"/><path d="M25.6143,29.5 L17.8945,29.5 L17.8945,17.1069 L25.6143,17.1069 L25.6143,19.2651 L20.3433,19.2651 L20.3433,21.938 L25.1162,21.938 L25.1162,24.0962 L20.3433,24.0962 L20.3433,27.3418 L25.6143,27.3418 Z " fill="#000000"/><text fill="#000000" font-family="sans-serif" font-size="14" lengthAdjust="spacing" textLength="78.873" x="36" y="28.291">tblbenutzer</text><line style="stroke:#181818;stroke-width:0.5;" x1="8" x2="116.873" y1="39" y2="39"/><ellipse cx="18" cy="52.7441" fill="#000000" rx="3" ry="3" style="stroke:#000000;stroke-width:1;"/><text fill="#000000" font-family="sans-serif" font-size="14" lengthAdjust="spacing" textLength="21.6699" x="27" y="56.5352">bid</text><line style="stroke:#181818;stroke-width:1;" x1="8" x2="116.873" y1="63.4883" y2="63.4883"/><ellipse cx="18" cy="77.2324" fill="#000000" rx="3" ry="3" style="stroke:#000000;stroke-width:1;"/><text fill="#000000" font-family="sans-serif" font-size="14" lengthAdjust="spacing" textLength="58.8643" x="27" y="81.0234">vorname</text><ellipse cx="18" cy="93.7207" fill="#000000" rx="3" ry="3" style="stroke:#000000;stroke-width:1;"/><text fill="#000000" font-family="sans-serif" font-size="14" lengthAdjust="spacing" textLength="69.5693" x="27" y="97.5117">nachname</text><ellipse cx="18" cy="110.209" fill="#000000" rx="3" ry="3" style="stroke:#000000;stroke-width:1;"/><text fill="#000000" font-family="sans-serif" font-size="14" lengthAdjust="spacing" textLength="34.1113" x="27" y="114">login</text><ellipse cx="18" cy="126.6973" fill="#000000" rx="3" ry="3" style="stroke:#000000;stroke-width:1;"/><text fill="#000000" font-family="sans-serif" font-size="14" lengthAdjust="spacing" textLength="64.7432" x="27" y="130.4883">password</text></g><!--class tblmeldung--><g class="entity" data-entity="tblmeldung" data-source-line="9" data-uid="ent0003" id="entity_tblmeldung"><rect fill="#F1F1F1" height="130.4414" rx="2.5" ry="2.5" style="stroke:#181818;stroke-width:0.5;" width="109.9297" x="190.47" y="7"/><ellipse cx="205.47" cy="23" fill="#ADD1B2" rx="11" ry="11" style="stroke:#181818;stroke-width:1;"/><path d="M209.0843,29.5 L201.3645,29.5 L201.3645,17.1069 L209.0843,17.1069 L209.0843,19.2651 L203.8133,19.2651 L203.8133,21.938 L208.5862,21.938 L208.5862,24.0962 L203.8133,24.0962 L203.8133,27.3418 L209.0843,27.3418 Z " fill="#000000"/><text fill="#000000" font-family="sans-serif" font-size="14" lengthAdjust="spacing" textLength="77.9297" x="219.47" y="28.291">tblmeldung</text><line style="stroke:#181818;stroke-width:0.5;" x1="191.47" x2="299.3997" y1="39" y2="39"/><ellipse cx="201.47" cy="52.7441" fill="#000000" rx="3" ry="3" style="stroke:#000000;stroke-width:1;"/><text fill="#000000" font-family="sans-serif" font-size="14" lengthAdjust="spacing" textLength="25.9287" x="210.47" y="56.5352">mid</text><line style="stroke:#181818;stroke-width:1;" x1="191.47" x2="299.3997" y1="63.4883" y2="63.4883"/><ellipse cx="201.47" cy="77.2324" fill="#000000" rx="3" ry="3" style="stroke:#000000;stroke-width:1;"/><text fill="#000000" font-family="sans-serif" font-size="14" lengthAdjust="spacing" textLength="59.835" x="210.47" y="81.0234">meldung</text><ellipse cx="201.47" cy="93.7207" fill="#000000" rx="3" ry="3" style="stroke:#000000;stroke-width:1;"/><text fill="#000000" font-family="sans-serif" font-size="14" lengthAdjust="spacing" textLength="47.0313" x="210.47" y="97.5117">erstellt</text><ellipse cx="201.47" cy="110.209" fill="#000000" rx="3" ry="3" style="stroke:#000000;stroke-width:1;"/><text fill="#000000" font-family="sans-serif" font-size="14" lengthAdjust="spacing" textLength="26.8174" x="210.47" y="114">fbid</text><ellipse cx="201.47" cy="126.6973" fill="#000000" rx="3" ry="3" style="stroke:#000000;stroke-width:1;"/><text fill="#000000" font-family="sans-serif" font-size="14" lengthAdjust="spacing" textLength="25.1426" x="210.47" y="130.4883">fsid</text></g><!--class tblstatus--><g class="entity" data-entity="tblstatus" data-source-line="17" data-uid="ent0004" id="entity_tblstatus"><rect fill="#F1F1F1" height="80.9766" rx="2.5" ry="2.5" style="stroke:#181818;stroke-width:0.5;" width="118.1006" x="357.39" y="31.73"/><ellipse cx="384.4679" cy="47.73" fill="#ADD1B2" rx="11" ry="11" style="stroke:#181818;stroke-width:1;"/><path d="M388.0822,54.23 L380.3625,54.23 L380.3625,41.8369 L388.0822,41.8369 L388.0822,43.9951 L382.8112,43.9951 L382.8112,46.668 L387.5841,46.668 L387.5841,48.8262 L382.8112,48.8262 L382.8112,52.0718 L388.0822,52.0718 Z " fill="#000000"/><text fill="#000000" font-family="sans-serif" font-size="14" lengthAdjust="spacing" textLength="59.2607" x="401.1519" y="53.021">tblstatus</text><line style="stroke:#181818;stroke-width:0.5;" x1="358.39" x2="474.4906" y1="63.73" y2="63.73"/><ellipse cx="368.39" cy="77.4741" fill="#000000" rx="3" ry="3" style="stroke:#000000;stroke-width:1;"/><text fill="#000000" font-family="sans-serif" font-size="14" lengthAdjust="spacing" textLength="19.9951" x="377.39" y="81.2652">sid</text><line style="stroke:#181818;stroke-width:1;" x1="358.39" x2="474.4906" y1="88.2183" y2="88.2183"/><ellipse cx="368.39" cy="101.9624" fill="#000000" rx="3" ry="3" style="stroke:#000000;stroke-width:1;"/><text fill="#000000" font-family="sans-serif" font-size="14" lengthAdjust="spacing" textLength="92.1006" x="377.39" y="105.7534">beschreibung</text></g><!--link tblbenutzer to tblmeldung--><g class="link" data-entity-1="tblbenutzer" data-entity-2="tblmeldung" data-source-line="22" data-uid="lnk5" id="link_tblbenutzer_tblmeldung"><path codeLine="22" d="M118.34,72.22 C141.15,72.22 167.45,72.22 190.19,72.22" fill="none" id="tblbenutzer-tblmeldung" style="stroke:#181818;stroke-width:1;"/><text fill="#000000" font-family="sans-serif" font-size="13" lengthAdjust="spacing" textLength="36.4292" x="136.17" y="65.7884">erh&#228;lt</text><text fill="#000000" font-family="sans-serif" font-size="13" lengthAdjust="spacing" textLength="8.2202" x="126.0292" y="68.8472">1</text><text fill="#000000" font-family="sans-serif" font-size="13" lengthAdjust="spacing" textLength="8.0679" x="174.2335" y="68.8013">n</text></g><!--link tblmeldung to tblstatus--><g class="link" data-entity-1="tblmeldung" data-entity-2="tblstatus" data-source-line="23" data-uid="lnk6" id="link_tblmeldung_tblstatus"><path codeLine="23" d="M300.48,72.22 C318.55,72.22 338.69,72.22 357.06,72.22" fill="none" id="tblmeldung-tblstatus" style="stroke:#181818;stroke-width:1;"/><text fill="#000000" font-family="sans-serif" font-size="13" lengthAdjust="spacing" textLength="20.1094" x="318.89" y="65.7884">hat</text><text fill="#000000" font-family="sans-serif" font-size="13" lengthAdjust="spacing" textLength="8.0679" x="308.4188" y="68.8013">n</text><text fill="#000000" font-family="sans-serif" font-size="13" lengthAdjust="spacing" textLength="8.2202" x="341.3489" y="68.8934">1</text></g><!--SRC=[POz13i8W44Ntd6B2qeI5szu6sh6GqAbXfXertiQRU35fHO8wg__9dpSV90bo0N7H8IronGGt1NbsuCAmAMFAmsbEP2SiZcpl6nldCT1R7otpUKu3gBl2ofym3WkD5J-57FZYbqHnc5WmHYdsu3xvh3dym5ciB5pP_CTsoBrF6DnQ8Q-s7zPx3GOqwQPcb-_xvoCAgARxcZ5Rljxim5jv0G00]--></g></svg>