<svg xmlns="http://www.w3.org/2000/svg" xmlns:xlink="http://www.w3.org/1999/xlink" contentStyleType="text/css" data-diagram-type="CLASS" height="236px" preserveAspectRatio="none" style="width:100px;height:236px;background:#FFFFFF;" version="1.1" viewBox="0 0 100 236" width="100px" zoomAndPan="magnify"><defs/><g><!--class Artikel--><g class="entity" data-entity="Artikel" data-source-line="1" data-uid="ent0002" id="entity_Artikel"><rect fill="#F1F1F1" height="80.9766" rx="2.5" ry="2.5" style="stroke:#181818;stroke-width:0.5;" width="84.8438" x="7.65" y="7"/><ellipse cx="26.3146" cy="23" fill="#ADD1B2" rx="11" ry="11" style="stroke:#181818;stroke-width:1;"/><path d="M29.9289,29.5 L22.2091,29.5 L22.2091,17.1069 L29.9289,17.1069 L29.9289,19.2651 L24.6579,19.2651 L24.6579,21.938 L29.4308,21.938 L29.4308,24.0962 L24.6579,24.0962 L24.6579,27.3418 L29.9289,27.3418 Z " fill="#000000"/><text fill="#000000" font-family="sans-serif" font-size="14" lengthAdjust="spacing" textLength="44.7002" x="41.129" y="28.291">Artikel</text><line style="stroke:#181818;stroke-width:0.5;" x1="8.65" x2="91.4938" y1="39" y2="39"/><ellipse cx="18.65" cy="52.7441" fill="#000000" rx="3" ry="3" style="stroke:#000000;stroke-width:1;"/><text fill="#000000" font-family="sans-serif" font-size="14" lengthAdjust="spacing" textLength="58.8438" x="27.65" y="56.5352">artikelNr</text><line style="stroke:#181818;stroke-width:1;" x1="8.65" x2="91.4938" y1="63.4883" y2="63.4883"/><ellipse cx="18.65" cy="77.2324" fill="#000000" rx="3" ry="3" style="stroke:#000000;stroke-width:1;"/><text fill="#000000" font-family="sans-serif" font-size="14" lengthAdjust="spacing" textLength="40.5303" x="27.65" y="81.0234">LiefNr</text></g><!--class kreditor--><g class="entity" data-entity="kreditor" data-source-line="6" data-uid="ent0003" id="entity_kreditor"><rect fill="#F1F1F1" height="64.4883" rx="2.5" ry="2.5" style="stroke:#181818;stroke-width:0.5;" width="86.1338" x="7" y="164.97"/><ellipse cx="22" cy="180.97" fill="#ADD1B2" rx="11" ry="11" style="stroke:#181818;stroke-width:1;"/><path d="M25.6143,187.47 L17.8945,187.47 L17.8945,175.0769 L25.6143,175.0769 L25.6143,177.2351 L20.3433,177.2351 L20.3433,179.908 L25.1162,179.908 L25.1162,182.0662 L20.3433,182.0662 L20.3433,185.3118 L25.6143,185.3118 Z " fill="#000000"/><text fill="#000000" font-family="sans-serif" font-size="14" lengthAdjust="spacing" textLength="54.1338" x="36" y="186.261">kreditor</text><line style="stroke:#181818;stroke-width:0.5;" x1="8" x2="92.1338" y1="196.97" y2="196.97"/><ellipse cx="18" cy="210.7141" fill="#000000" rx="3" ry="3" style="stroke:#000000;stroke-width:1;"/><text fill="#000000" font-family="sans-serif" font-size="14" lengthAdjust="spacing" textLength="40.5303" x="27" y="214.5052">LiefNr</text><line style="stroke:#181818;stroke-width:0.5;" x1="8" x2="92.1338" y1="221.4583" y2="221.4583"/></g><!--link Artikel to kreditor--><g class="link" data-entity-1="Artikel" data-entity-2="kreditor" data-source-line="9" data-uid="lnk4" id="link_Artikel_kreditor"><path codeLine="9" d="M50.07,88.46 C50.07,112.39 50.07,142.37 50.07,164.63" fill="none" id="Artikel-kreditor" style="stroke:#181818;stroke-width:1;"/><text fill="#000000" font-family="sans-serif" font-size="13" lengthAdjust="spacing" textLength="36.9624" x="51.07" y="131.5384">liefert</text><text fill="#000000" font-family="sans-serif" font-size="13" lengthAdjust="spacing" textLength="8.2202" x="41.4741" y="108.4744">1</text><text fill="#000000" font-family="sans-serif" font-size="13" lengthAdjust="spacing" textLength="8.2202" x="41.3048" y="154.3374">1</text></g><!--SRC=[IyqhoIofL70iAidCJisfvj9II8Gm_OguT7M1N9_Cr3GWkvOh5Q8okoWr9RCalwWQMGwgNK79K4b1LnTCmTGfM2da09Mb5fK00000]--></g></svg>