<svg xmlns="http://www.w3.org/2000/svg" xmlns:xlink="http://www.w3.org/1999/xlink" contentStyleType="text/css" height="301px" preserveAspectRatio="none" style="width:604px;height:301px;background:#FFFFFF;" version="1.1" viewBox="0 0 604 301" width="604px" zoomAndPan="magnify"><defs/><g><!--class Kunde--><g id="elem_Kunde"><rect codeLine="1" fill="#F1F1F1" height="97.4648" id="Kunde" rx="2.5" ry="2.5" style="stroke:#181818;stroke-width:0.5;" width="180.2324" x="7" y="23.49"/><ellipse cx="71.3022" cy="39.49" fill="#ADD1B2" rx="11" ry="11" style="stroke:#181818;stroke-width:1;"/><path d="M74.9165,45.99 L67.1968,45.99 L67.1968,33.5969 L74.9165,33.5969 L74.9165,35.7551 L69.6455,35.7551 L69.6455,38.428 L74.4185,38.428 L74.4185,40.5862 L69.6455,40.5862 L69.6455,43.8318 L74.9165,43.8318 Z " fill="#000000"/><text fill="#000000" font-family="sans-serif" font-size="14" lengthAdjust="spacing" textLength="43.1279" x="91.8022" y="44.781">Kunde</text><line style="stroke:#181818;stroke-width:0.5;" x1="8" x2="186.2324" y1="55.49" y2="55.49"/><text fill="#000000" font-family="sans-serif" font-size="14" lengthAdjust="spacing" textLength="168.2324" x="13" y="73.0252">idKunde INT primary key</text><line style="stroke:#181818;stroke-width:1;" x1="8" x2="186.2324" y1="79.9783" y2="79.9783"/><text fill="#000000" font-family="sans-serif" font-size="14" lengthAdjust="spacing" textLength="115.2266" x="13" y="97.5134">Vorname varchar</text><text fill="#000000" font-family="sans-serif" font-size="14" lengthAdjust="spacing" textLength="71.2236" x="13" y="114.0017">Nachname</text></g><!--class Verkauf--><g id="elem_Verkauf"><rect codeLine="7" fill="#F1F1F1" height="130.4414" id="Verkauf" rx="2.5" ry="2.5" style="stroke:#181818;stroke-width:0.5;" width="168.6523" x="221.79" y="7"/><ellipse cx="275.6504" cy="23" fill="#ADD1B2" rx="11" ry="11" style="stroke:#181818;stroke-width:1;"/><path d="M279.2646,29.5 L271.5449,29.5 L271.5449,17.1069 L279.2646,17.1069 L279.2646,19.2651 L273.9936,19.2651 L273.9936,21.938 L278.7666,21.938 L278.7666,24.0962 L273.9936,24.0962 L273.9936,27.3418 L279.2646,27.3418 Z " fill="#000000"/><text fill="#000000" font-family="sans-serif" font-size="14" lengthAdjust="spacing" textLength="52.4316" x="296.1504" y="28.291">Verkauf</text><line style="stroke:#181818;stroke-width:0.5;" x1="222.79" x2="389.4423" y1="39" y2="39"/><text fill="#000000" font-family="sans-serif" font-size="14" lengthAdjust="spacing" textLength="115.7393" x="227.79" y="56.5352">idVK primary key</text><line style="stroke:#181818;stroke-width:1;" x1="222.79" x2="389.4423" y1="63.4883" y2="63.4883"/><text fill="#000000" font-family="sans-serif" font-size="14" lengthAdjust="spacing" textLength="109.1563" x="227.79" y="81.0234">idKunde foreign</text><text fill="#000000" font-family="sans-serif" font-size="14" lengthAdjust="spacing" textLength="156.6523" x="227.79" y="97.5117">idFahrzeug foreign key</text><text fill="#000000" font-family="sans-serif" font-size="14" lengthAdjust="spacing" textLength="45.2129" x="227.79" y="114">Datum</text><text fill="#000000" font-family="sans-serif" font-size="14" lengthAdjust="spacing" textLength="32.4502" x="227.79" y="130.4883">Preis</text></g><!--class Fahrzeug--><g id="elem_Fahrzeug"><rect codeLine="15" fill="#F1F1F1" height="80.9766" id="Fahrzeug" rx="2.5" ry="2.5" style="stroke:#181818;stroke-width:0.5;" width="172.3438" x="424.94" y="31.74"/><ellipse cx="475.4131" cy="47.74" fill="#ADD1B2" rx="11" ry="11" style="stroke:#181818;stroke-width:1;"/><path d="M479.0274,54.24 L471.3077,54.24 L471.3077,41.8469 L479.0274,41.8469 L479.0274,44.0051 L473.7564,44.0051 L473.7564,46.678 L478.5294,46.678 L478.5294,48.8362 L473.7564,48.8362 L473.7564,52.0818 L479.0274,52.0818 Z " fill="#000000"/><text fill="#000000" font-family="sans-serif" font-size="14" lengthAdjust="spacing" textLength="62.8975" x="495.9131" y="53.031">Fahrzeug</text><line style="stroke:#181818;stroke-width:0.5;" x1="425.94" x2="596.2838" y1="63.74" y2="63.74"/><text fill="#000000" font-family="sans-serif" font-size="14" lengthAdjust="spacing" textLength="160.3438" x="430.94" y="81.2752">idFahrzeug primary key</text><line style="stroke:#181818;stroke-width:1;" x1="425.94" x2="596.2838" y1="88.2283" y2="88.2283"/><text fill="#000000" font-family="sans-serif" font-size="14" lengthAdjust="spacing" textLength="139.1182" x="430.94" y="105.7634">idModell foreign key</text></g><!--class Model--><g id="elem_Model"><rect codeLine="20" fill="#F1F1F1" height="97.4648" id="Model" rx="2.5" ry="2.5" style="stroke:#181818;stroke-width:0.5;" width="154.8096" x="19.71" y="197.45"/><ellipse cx="72.2066" cy="213.45" fill="#ADD1B2" rx="11" ry="11" style="stroke:#181818;stroke-width:1;"/><path d="M75.8208,219.95 L68.1011,219.95 L68.1011,207.5569 L75.8208,207.5569 L75.8208,209.7151 L70.5498,209.7151 L70.5498,212.388 L75.3228,212.388 L75.3228,214.5462 L70.5498,214.5462 L70.5498,217.7918 L75.8208,217.7918 Z " fill="#000000"/><text fill="#000000" font-family="sans-serif" font-size="14" lengthAdjust="spacing" textLength="41.3164" x="92.7066" y="218.741">Model</text><line style="stroke:#181818;stroke-width:0.5;" x1="20.71" x2="173.5196" y1="229.45" y2="229.45"/><text fill="#000000" font-family="sans-serif" font-size="14" lengthAdjust="spacing" textLength="142.8096" x="25.71" y="246.9852">idModell primary key</text><line style="stroke:#181818;stroke-width:1;" x1="20.71" x2="173.5196" y1="253.9383" y2="253.9383"/><text fill="#000000" font-family="sans-serif" font-size="14" lengthAdjust="spacing" textLength="84.3076" x="25.71" y="271.4734">ModellName</text><text fill="#000000" font-family="sans-serif" font-size="14" lengthAdjust="spacing" textLength="135.2559" x="25.71" y="287.9617">idMarke foreign key</text></g><!--class Marke--><g id="elem_Marke"><rect codeLine="26" fill="#F1F1F1" height="80.9766" id="Marke" rx="2.5" ry="2.5" style="stroke:#181818;stroke-width:0.5;" width="150.9473" x="209.64" y="205.69"/><ellipse cx="260.1131" cy="221.69" fill="#ADD1B2" rx="11" ry="11" style="stroke:#181818;stroke-width:1;"/><path d="M263.7274,228.19 L256.0077,228.19 L256.0077,215.7969 L263.7274,215.7969 L263.7274,217.9551 L258.4564,217.9551 L258.4564,220.628 L263.2294,220.628 L263.2294,222.7862 L258.4564,222.7862 L258.4564,226.0318 L263.7274,226.0318 Z " fill="#000000"/><text fill="#000000" font-family="sans-serif" font-size="14" lengthAdjust="spacing" textLength="41.501" x="280.6131" y="226.981">Marke</text><line style="stroke:#181818;stroke-width:0.5;" x1="210.64" x2="359.5873" y1="237.69" y2="237.69"/><text fill="#000000" font-family="sans-serif" font-size="14" lengthAdjust="spacing" textLength="138.9473" x="215.64" y="255.2252">idMarke primary key</text><line style="stroke:#181818;stroke-width:1;" x1="210.64" x2="359.5873" y1="262.1783" y2="262.1783"/><text fill="#000000" font-family="sans-serif" font-size="14" lengthAdjust="spacing" textLength="80.4453" x="215.64" y="279.7134">MarkeName</text></g><!--SRC=[TP112eCm44NtESNiN7c9KWf56heexWSTDQYnJ4r1G-zUJTIQWjaa-N_c_MH8zweV834w9x02fgLoVxlA1pnPjSW3r3GuBuxTbdQiiILu8sSLijCaPjKiYeyW3qs9QpJ5XasJ8zuQMNHCgjImY1UiU2HJRlhQTiRUjEvqdupNBtBjiF-4NJ24oRSkfwO98ZQSysnOUF05xyfv04ivSarxBEouisU3mgC7EbVwkOeeWXEDYYgZI_W2]--></g></svg>