<svg xmlns="http://www.w3.org/2000/svg" xmlns:xlink="http://www.w3.org/1999/xlink" contentStyleType="text/css" height="144px" preserveAspectRatio="none" style="width:548px;height:144px;background:#FFFFFF;" version="1.1" viewBox="0 0 548 144" width="548px" zoomAndPan="magnify"><defs/><g><!--class artikel--><g id="elem_artikel"><rect codeLine="2" fill="#F1F1F1" height="80.9766" id="artikel" rx="2.5" ry="2.5" style="stroke:#181818;stroke-width:0.5;" width="84.8438" x="7" y="31.73"/><ellipse cx="26.5321" cy="47.73" fill="#ADD1B2" rx="11" ry="11" style="stroke:#181818;stroke-width:1;"/><path d="M30.1463,54.23 L22.4266,54.23 L22.4266,41.8369 L30.1463,41.8369 L30.1463,43.9951 L24.8753,43.9951 L24.8753,46.668 L29.6483,46.668 L29.6483,48.8262 L24.8753,48.8262 L24.8753,52.0718 L30.1463,52.0718 Z " fill="#000000"/><text fill="#000000" font-family="sans-serif" font-size="14" lengthAdjust="spacing" textLength="42.7725" x="41.5392" y="53.021">artikel</text><line style="stroke:#181818;stroke-width:0.5;" x1="8" x2="90.8438" y1="63.73" y2="63.73"/><ellipse cx="18" cy="77.4741" fill="#000000" rx="3" ry="3" style="stroke:#000000;stroke-width:1;"/><text fill="#000000" font-family="sans-serif" font-size="14" lengthAdjust="spacing" textLength="58.8438" x="27" y="81.2652">artikelNr</text><line style="stroke:#181818;stroke-width:1;" x1="8" x2="90.8438" y1="88.2183" y2="88.2183"/><text fill="#000000" font-family="sans-serif" font-size="14" lengthAdjust="spacing" textLength="4.4297" x="13" y="105.7534">&#160;</text></g><!--class angebots_Pos--><g id="elem_angebots_Pos"><rect codeLine="9" fill="#F1F1F1" height="130.4414" id="angebots_Pos" rx="2.5" ry="2.5" style="stroke:#181818;stroke-width:0.5;" width="125.208" x="126.82" y="7"/><ellipse cx="141.82" cy="23" fill="#ADD1B2" rx="11" ry="11" style="stroke:#181818;stroke-width:1;"/><path d="M145.4343,29.5 L137.7145,29.5 L137.7145,17.1069 L145.4343,17.1069 L145.4343,19.2651 L140.1633,19.2651 L140.1633,21.938 L144.9362,21.938 L144.9362,24.0962 L140.1633,24.0962 L140.1633,27.3418 L145.4343,27.3418 Z " fill="#000000"/><text fill="#000000" font-family="sans-serif" font-size="14" lengthAdjust="spacing" textLength="93.208" x="155.82" y="28.291">angebots_Pos</text><line style="stroke:#181818;stroke-width:0.5;" x1="127.82" x2="251.028" y1="39" y2="39"/><ellipse cx="137.82" cy="52.7441" fill="#000000" rx="3" ry="3" style="stroke:#000000;stroke-width:1;"/><text fill="#000000" font-family="sans-serif" font-size="14" lengthAdjust="spacing" textLength="40.6191" x="146.82" y="56.5352">posNr</text><ellipse cx="137.82" cy="69.2324" fill="#000000" rx="3" ry="3" style="stroke:#000000;stroke-width:1;"/><text fill="#000000" font-family="sans-serif" font-size="14" lengthAdjust="spacing" textLength="32.5322" x="146.82" y="73.0234">agNr</text><text fill="#000000" font-family="sans-serif" font-size="14" lengthAdjust="spacing" textLength="60.7715" x="146.82" y="89.5117">ArtikelNr</text><line style="stroke:#181818;stroke-width:1;" x1="127.82" x2="251.028" y1="96.4648" y2="96.4648"/><text fill="#000000" font-family="sans-serif" font-size="14" lengthAdjust="spacing" textLength="46.0879" x="132.82" y="114">menge</text><text fill="#000000" font-family="sans-serif" font-size="14" lengthAdjust="spacing" textLength="33.5234" x="132.82" y="130.4883">preis</text></g><!--class angebots_Kopf--><g id="elem_angebots_Kopf"><rect codeLine="20" fill="#F1F1F1" height="97.4648" id="angebots_Kopf" rx="2.5" ry="2.5" style="stroke:#181818;stroke-width:0.5;" width="133.4316" x="286.71" y="23.49"/><ellipse cx="301.71" cy="39.49" fill="#ADD1B2" rx="11" ry="11" style="stroke:#181818;stroke-width:1;"/><path d="M305.3243,45.99 L297.6045,45.99 L297.6045,33.5969 L305.3243,33.5969 L305.3243,35.7551 L300.0533,35.7551 L300.0533,38.428 L304.8262,38.428 L304.8262,40.5862 L300.0533,40.5862 L300.0533,43.8318 L305.3243,43.8318 Z " fill="#000000"/><text fill="#000000" font-family="sans-serif" font-size="14" lengthAdjust="spacing" textLength="101.4316" x="315.71" y="44.781">angebots_Kopf</text><line style="stroke:#181818;stroke-width:0.5;" x1="287.71" x2="419.1416" y1="55.49" y2="55.49"/><ellipse cx="297.71" cy="69.2341" fill="#000000" rx="3" ry="3" style="stroke:#000000;stroke-width:1;"/><text fill="#000000" font-family="sans-serif" font-size="14" lengthAdjust="spacing" textLength="32.5322" x="306.71" y="73.0252">agNr</text><ellipse cx="297.71" cy="85.7224" fill="#000000" rx="3" ry="3" style="stroke:#000000;stroke-width:1;"/><text fill="#000000" font-family="sans-serif" font-size="14" lengthAdjust="spacing" textLength="29.3125" x="306.71" y="89.5134">lifNr</text><line style="stroke:#181818;stroke-width:1;" x1="287.71" x2="419.1416" y1="96.4666" y2="96.4666"/><text fill="#000000" font-family="sans-serif" font-size="14" lengthAdjust="spacing" textLength="45.2129" x="292.71" y="114.0017">Datum</text></g><!--class kreditor--><g id="elem_kreditor"><rect codeLine="29" fill="#F1F1F1" height="64.4883" id="kreditor" rx="2.5" ry="2.5" style="stroke:#181818;stroke-width:0.5;" width="86.1338" x="455.35" y="39.98"/><ellipse cx="470.35" cy="55.98" fill="#ADD1B2" rx="11" ry="11" style="stroke:#181818;stroke-width:1;"/><path d="M473.9643,62.48 L466.2445,62.48 L466.2445,50.0869 L473.9643,50.0869 L473.9643,52.2451 L468.6933,52.2451 L468.6933,54.918 L473.4662,54.918 L473.4662,57.0762 L468.6933,57.0762 L468.6933,60.3218 L473.9643,60.3218 Z " fill="#000000"/><text fill="#000000" font-family="sans-serif" font-size="14" lengthAdjust="spacing" textLength="54.1338" x="484.35" y="61.271">kreditor</text><line style="stroke:#181818;stroke-width:0.5;" x1="456.35" x2="540.4838" y1="71.98" y2="71.98"/><ellipse cx="466.35" cy="85.7241" fill="#000000" rx="3" ry="3" style="stroke:#000000;stroke-width:1;"/><text fill="#000000" font-family="sans-serif" font-size="14" lengthAdjust="spacing" textLength="37.1123" x="475.35" y="89.5152">liefNr</text><line style="stroke:#181818;stroke-width:0.5;" x1="456.35" x2="540.4838" y1="96.4683" y2="96.4683"/></g><!--link artikel to angebots_Pos--><g id="link_artikel_angebots_Pos"><path codeLine="34" d="M92.08,72.22 C103.61,72.22 115.15,72.22 126.68,72.22 " fill="none" id="artikel-angebots_Pos" style="stroke:#181818;stroke-width:1;"/><text fill="#000000" font-family="sans-serif" font-size="13" lengthAdjust="spacing" textLength="8.2202" x="99.826" y="68.5722">1</text><text fill="#000000" font-family="sans-serif" font-size="13" lengthAdjust="spacing" textLength="8.0679" x="110.5497" y="68.8931">n</text></g><!--link angebots_Pos to angebots_Kopf--><g id="link_angebots_Pos_angebots_Kopf"><path codeLine="35" d="M252.52,72.22 C263.82,72.22 275.12,72.22 286.42,72.22 " fill="none" id="angebots_Pos-angebots_Kopf" style="stroke:#181818;stroke-width:1;"/><text fill="#000000" font-family="sans-serif" font-size="13" lengthAdjust="spacing" textLength="8.0679" x="259.8623" y="68.985">n</text><text fill="#000000" font-family="sans-serif" font-size="13" lengthAdjust="spacing" textLength="8.2202" x="270.6658" y="68.9848">1</text></g><!--link angebots_Kopf to kreditor--><g id="link_angebots_Kopf_kreditor"><path codeLine="36" d="M420.54,72.22 C432,72.22 443.46,72.22 454.92,72.22 " fill="none" id="angebots_Kopf-kreditor" style="stroke:#181818;stroke-width:1;"/><text fill="#000000" font-family="sans-serif" font-size="13" lengthAdjust="spacing" textLength="8.0679" x="428.3218" y="68.9848">n</text><text fill="#000000" font-family="sans-serif" font-size="13" lengthAdjust="spacing" textLength="8.2202" x="439.0716" y="68.5712">1</text></g><!--SRC=[XL31Ri8m3BtxAwnUa91ws2UCSPk4Tfbsd0AugTKqgMptC13_JYZgHc3JJedjzvxVymBJO9oY2tWO1JzObQAwRIFE4xwq576Jp5qWsgM-fsXE2FB3zeLEZ3iAU8Jb_Dy8BF0z6ecQyAw5kWOumJSZUjecqy-tf1DjIFf0oMB-lebZtAEdQq4XzmlAyytslr7PIqxW2GOXrcphtjLh6ffh6l-Bgy3D_mlMpiR-9d4dj6TBCia6fkP1-9Jh5HsOsZ7xY31VjNggiCOgLiNLe3ZXPLfFo283b8b-KBCR03W3]--></g></svg>