<?xml version="1.0" encoding="us-ascii" standalone="no"?><svg xmlns="http://www.w3.org/2000/svg" xmlns:xlink="http://www.w3.org/1999/xlink" contentStyleType="text/css" height="435px" preserveAspectRatio="none" style="width:680px;height:435px;background:#FFFFFF;" version="1.1" viewBox="0 0 680 435" width="680px" zoomAndPan="magnify"><defs/><g><!--cluster Local--><g id="cluster_Local"><path d="M8.5,6 L46.5,6 A3.75,3.75 0 0 1 49,8.5 L56,28.4883 L621.5,28.4883 A2.5,2.5 0 0 1 624,30.9883 L624,304.47 A2.5,2.5 0 0 1 621.5,306.97 L8.5,306.97 A2.5,2.5 0 0 1 6,304.47 L6,8.5 A2.5,2.5 0 0 1 8.5,6 " fill="none" style="stroke:#000000;stroke-width:1.5;"/><line style="stroke:#000000;stroke-width:1.5;" x1="6" x2="56" y1="28.4883" y2="28.4883"/><text fill="#000000" font-family="sans-serif" font-size="14" font-weight="bold" lengthAdjust="spacing" textLength="37" x="10" y="21.5352">Local</text></g><!--cluster Bridgehead--><g id="cluster_Bridgehead"><rect fill="none" height="179.49" rx="2.5" ry="2.5" style="stroke:#181818;stroke-width:1.0;" width="342" x="122" y="103.48"/><path d="M212,103.48 L212,112.9683 L202,122.9683 L122,122.9683 " fill="none" style="stroke:#181818;stroke-width:1.0;"/><text fill="#000000" font-family="sans-serif" font-size="14" font-weight="bold" lengthAdjust="spacing" textLength="80" x="125" y="118.0152">Bridgehead</text></g><!--cluster Database--><g id="cluster_Database"><path d="M146,156.48 C146,146.48 293,146.48 293,146.48 C293,146.48 440,146.48 440,156.48 L440,248.97 C440,258.97 293,258.97 293,258.97 C293,258.97 146,258.97 146,248.97 L146,156.48 " fill="none" style="stroke:#181818;stroke-width:1.0;"/><path d="M146,156.48 C146,166.48 293,166.48 293,166.48 C293,166.48 440,166.48 440,156.48 " fill="none" style="stroke:#181818;stroke-width:1.0;"/><text fill="#000000" font-family="sans-serif" font-size="14" font-weight="bold" lengthAdjust="spacing" textLength="66" x="260" y="182.0152">Database</text></g><!--cluster Central--><g id="cluster_Central"><path d="M126.5,330.97 L179.5,330.97 A3.75,3.75 0 0 1 182,333.47 L189,353.4583 L670.5,353.4583 A2.5,2.5 0 0 1 673,355.9583 L673,425.96 A2.5,2.5 0 0 1 670.5,428.46 L126.5,428.46 A2.5,2.5 0 0 1 124,425.96 L124,333.47 A2.5,2.5 0 0 1 126.5,330.97 " fill="none" style="stroke:#000000;stroke-width:1.5;"/><line style="stroke:#000000;stroke-width:1.5;" x1="124" x2="189" y1="353.4583" y2="353.4583"/><text fill="#000000" font-family="sans-serif" font-size="14" font-weight="bold" lengthAdjust="spacing" textLength="52" x="128" y="346.5052">Central</text></g><!--entity Site1-DB1 (ADT)--><g id="elem_Site1-DB1 (ADT)"><rect fill="#F1F1F1" height="46.4883" rx="2.5" ry="2.5" style="stroke:#181818;stroke-width:0.5;" width="152" x="22" y="41"/><rect fill="#F1F1F1" height="10" style="stroke:#181818;stroke-width:0.5;" width="15" x="154" y="46"/><rect fill="#F1F1F1" height="2" style="stroke:#181818;stroke-width:0.5;" width="4" x="152" y="48"/><rect fill="#F1F1F1" height="2" style="stroke:#181818;stroke-width:0.5;" width="4" x="152" y="52"/><text fill="#000000" font-family="sans-serif" font-size="14" lengthAdjust="spacing" textLength="112" x="37" y="74.5352">Site1-DB1 (ADT)</text></g><!--entity Site1-DB2 (OMICS)--><g id="elem_Site1-DB2 (OMICS)"><rect fill="#F1F1F1" height="46.4883" rx="2.5" ry="2.5" style="stroke:#181818;stroke-width:0.5;" width="168" x="209" y="41"/><rect fill="#F1F1F1" height="10" style="stroke:#181818;stroke-width:0.5;" width="15" x="357" y="46"/><rect fill="#F1F1F1" height="2" style="stroke:#181818;stroke-width:0.5;" width="4" x="355" y="48"/><rect fill="#F1F1F1" height="2" style="stroke:#181818;stroke-width:0.5;" width="4" x="355" y="52"/><text fill="#000000" font-family="sans-serif" font-size="14" lengthAdjust="spacing" textLength="128" x="224" y="74.5352">Site1-DB2 (OMICS)</text></g><!--entity Site1-DB3 (CENTRAXX)--><g id="elem_Site1-DB3 (CENTRAXX)"><rect fill="#F1F1F1" height="46.4883" rx="2.5" ry="2.5" style="stroke:#181818;stroke-width:0.5;" width="197" x="411.5" y="41"/><rect fill="#F1F1F1" height="10" style="stroke:#181818;stroke-width:0.5;" width="15" x="588.5" y="46"/><rect fill="#F1F1F1" height="2" style="stroke:#181818;stroke-width:0.5;" width="4" x="586.5" y="48"/><rect fill="#F1F1F1" height="2" style="stroke:#181818;stroke-width:0.5;" width="4" x="586.5" y="52"/><text fill="#000000" font-family="sans-serif" font-size="14" lengthAdjust="spacing" textLength="157" x="426.5" y="74.5352">Site1-DB3 (CENTRAXX)</text></g><!--entity Version1.0 SQL, Version2.0 FHIR--><g id="elem_Version1.0 SQL, Version2.0 FHIR"><rect fill="#F1F1F1" height="46.4883" rx="2.5" ry="2.5" style="stroke:#181818;stroke-width:0.5;" width="261" x="162.5" y="196.48"/><rect fill="#F1F1F1" height="10" style="stroke:#181818;stroke-width:0.5;" width="15" x="403.5" y="201.48"/><rect fill="#F1F1F1" height="2" style="stroke:#181818;stroke-width:0.5;" width="4" x="401.5" y="203.48"/><rect fill="#F1F1F1" height="2" style="stroke:#181818;stroke-width:0.5;" width="4" x="401.5" y="207.48"/><text fill="#000000" font-family="sans-serif" font-size="14" lengthAdjust="spacing" textLength="221" x="177.5" y="230.0152">Version1.0 SQL, Version2.0 FHIR</text></g><!--entity F?derierte Suche (LENS, CCP-Explorer)--><g id="elem_F&#246;derierte Suche (LENS, CCP-Explorer)"><rect fill="#F1F1F1" height="46.4883" rx="2.5" ry="2.5" style="stroke:#181818;stroke-width:0.5;" width="306" x="140" y="365.97"/><rect fill="#F1F1F1" height="10" style="stroke:#181818;stroke-width:0.5;" width="15" x="426" y="370.97"/><rect fill="#F1F1F1" height="2" style="stroke:#181818;stroke-width:0.5;" width="4" x="424" y="372.97"/><rect fill="#F1F1F1" height="2" style="stroke:#181818;stroke-width:0.5;" width="4" x="424" y="376.97"/><text fill="#000000" font-family="sans-serif" font-size="14" lengthAdjust="spacing" textLength="266" x="155" y="399.5052">F&#246;derierte Suche (LENS, CCP-Explorer)</text></g><!--entity Pseudonymisierung--><g id="elem_Pseudonymisierung"><rect fill="#F1F1F1" height="46.4883" rx="2.5" ry="2.5" style="stroke:#181818;stroke-width:0.5;" width="175" x="481.5" y="365.97"/><rect fill="#F1F1F1" height="10" style="stroke:#181818;stroke-width:0.5;" width="15" x="636.5" y="370.97"/><rect fill="#F1F1F1" height="2" style="stroke:#181818;stroke-width:0.5;" width="4" x="634.5" y="372.97"/><rect fill="#F1F1F1" height="2" style="stroke:#181818;stroke-width:0.5;" width="4" x="634.5" y="376.97"/><text fill="#000000" font-family="sans-serif" font-size="14" lengthAdjust="spacing" textLength="135" x="496.5" y="399.5052">Pseudonymisierung</text></g><!--link Site1-DB1 (ADT) to Version1.0 SQL, Version2.0 FHIR--><g id="link_Site1-DB1 (ADT)_Version1.0 SQL, Version2.0 FHIR"><path d="M126.77,87.89 C163.64,116.91 222.4654,163.2088 259.3954,192.2788 " fill="none" id="Site1-DB1 (ADT)-to-Version1.0 SQL, Version2.0 FHIR" style="stroke:#181818;stroke-width:1.0;"/><polygon fill="#181818" points="264.11,195.99,259.5122,187.2802,260.1812,192.8974,254.564,193.5663,264.11,195.99" style="stroke:#181818;stroke-width:1.0;"/></g><!--link Site1-DB2 (OMICS) to Version1.0 SQL, Version2.0 FHIR--><g id="link_Site1-DB2 (OMICS)_Version1.0 SQL, Version2.0 FHIR"><path d="M293,87.89 C293,116.91 293,160.92 293,189.99 " fill="none" id="Site1-DB2 (OMICS)-to-Version1.0 SQL, Version2.0 FHIR" style="stroke:#181818;stroke-width:1.0;"/><polygon fill="#181818" points="293,195.99,297,186.99,293,190.99,289,186.99,293,195.99" style="stroke:#181818;stroke-width:1.0;"/></g><!--link Site1-DB3 (CENTRAXX) to Version1.0 SQL, Version2.0 FHIR--><g id="link_Site1-DB3 (CENTRAXX)_Version1.0 SQL, Version2.0 FHIR"><path d="M477.98,87.89 C436.95,116.91 371.1381,163.4547 330.0481,192.5247 " fill="none" id="Site1-DB3 (CENTRAXX)-to-Version1.0 SQL, Version2.0 FHIR" style="stroke:#181818;stroke-width:1.0;"/><polygon fill="#181818" points="325.15,195.99,334.8074,194.0575,329.2318,193.1023,330.187,187.5266,325.15,195.99" style="stroke:#181818;stroke-width:1.0;"/></g><!--reverse link Version1.0 SQL, Version2.0 FHIR to F?derierte Suche (LENS, CCP-Explorer)--><g id="link_Version1.0 SQL, Version2.0 FHIR_F&#246;derierte Suche (LENS, CCP-Explorer)"><path d="M293,249.32 C293,281.37 293,333.71 293,365.72 " fill="none" id="Version1.0 SQL, Version2.0 FHIR-backto-F&#246;derierte Suche (LENS, CCP-Explorer)" style="stroke:#181818;stroke-width:1.0;"/><polygon fill="#181818" points="293,243.32,289,252.32,293,248.32,297,252.32,293,243.32" style="stroke:#181818;stroke-width:1.0;"/></g><!--SRC=[bL3HQi8m57tFLrnyiGCph7iLmQQL2PrJKqGOVSYQQnkcRKbRs1H_Qp-m7pDpLdGRhBiF8UUUUqvoJowY5n4ZjFmi4kiMx0YOUkAgH9kwZWtMq0rkmkjk3wp7Xp7Zt_jtO35l4io7owMXZjnAYurnTxIICIOePFt4PqbHYcTH6DuztIxPe_K2TQ6orBxj0f_v7JZXdi6Z-_4yF4_loTUv9tcz4iEqr1TBZJxU9Mg5kaJWLPGWMButuHrWR4gzrtoTQTJrJjC2AvcbRnjL64MLng6nRhV1mQt2n612VgG4b0uQVFcN7F-hl4gwgVYl2UXJsZob0m00]--></g></svg>