<?xml version="1.0" encoding="UTF-8" standalone="no"?><svg xmlns="http://www.w3.org/2000/svg" xmlns:xlink="http://www.w3.org/1999/xlink" contentStyleType="text/css" height="444px" preserveAspectRatio="none" style="width:653px;height:444px;background:#FFFFFF;" version="1.1" viewBox="0 0 653 444" width="653px" zoomAndPan="magnify"><defs/><g><!--MD5=[5bdf219cc3b76c81b283dcec53599e99]
cluster Local--><g id="cluster_Local"><path d="M48.5,6 L86.5,6 A3.75,3.75 0 0 1 89,8.5 L96,29.6094 L643.5,29.6094 A2.5,2.5 0 0 1 646,32.1094 L646,310.5 A2.5,2.5 0 0 1 643.5,313 L48.5,313 A2.5,2.5 0 0 1 46,310.5 L46,8.5 A2.5,2.5 0 0 1 48.5,6 " fill="none" style="stroke:#000000;stroke-width:1.5;"/><line style="stroke:#000000;stroke-width:1.5;" x1="46" x2="96" y1="29.6094" y2="29.6094"/><text fill="#000000" font-family="sans-serif" font-size="14" font-weight="bold" lengthAdjust="spacing" textLength="37" x="50" y="22.5332">Local</text></g><!--MD5=[33e0e73fe8402d9cdc7a80bccb6282ff]
cluster Bridgehead--><g id="cluster_Bridgehead"><rect fill="none" height="183" rx="2.5" ry="2.5" style="stroke:#181818;stroke-width:1.0;" width="332" x="202" y="106"/><path d="M294,106 L294,116.6094 L284,126.6094 L202,126.6094 " fill="none" style="stroke:#181818;stroke-width:1.0;"/><text fill="#000000" font-family="sans-serif" font-size="14" font-weight="bold" lengthAdjust="spacing" textLength="82" x="205" y="121.5332">Bridgehead</text></g><!--MD5=[815249f79c2c08157ac02b3106e03757]
cluster Database--><g id="cluster_Database"><path d="M226,160 C226,150 368,150 368,150 C368,150 510,150 510,160 L510,255 C510,265 368,265 368,265 C368,265 226,265 226,255 L226,160 " fill="none" style="stroke:#181818;stroke-width:1.0;"/><path d="M226,160 C226,170 368,170 368,170 C368,170 510,170 510,160 " fill="none" style="stroke:#181818;stroke-width:1.0;"/><text fill="#000000" font-family="sans-serif" font-size="14" font-weight="bold" lengthAdjust="spacing" textLength="65" x="335.5" y="186.5332">Database</text></g><!--MD5=[ed16ba90fd2a5d94aa62caa82124b783]
cluster Central--><g id="cluster_Central"><path d="M8.5,337 L60.5,337 A3.75,3.75 0 0 1 63,339.5 L70,360.6094 L528.5,360.6094 A2.5,2.5 0 0 1 531,363.1094 L531,434.5 A2.5,2.5 0 0 1 528.5,437 L8.5,437 A2.5,2.5 0 0 1 6,434.5 L6,339.5 A2.5,2.5 0 0 1 8.5,337 " fill="none" style="stroke:#000000;stroke-width:1.5;"/><line style="stroke:#000000;stroke-width:1.5;" x1="6" x2="70" y1="360.6094" y2="360.6094"/><text fill="#000000" font-family="sans-serif" font-size="14" font-weight="bold" lengthAdjust="spacing" textLength="51" x="10" y="353.5332">Central</text></g><!--MD5=[101a6ee369803d3e20ee1d71cb39163e]
entity Site1-DB1 (ADT)--><g id="elem_Site1-DB1 (ADT)"><rect fill="#F1F1F1" height="47.6094" rx="2.5" ry="2.5" style="stroke:#181818;stroke-width:0.5;" width="146" x="484" y="42"/><rect fill="#F1F1F1" height="10" style="stroke:#181818;stroke-width:0.5;" width="15" x="610" y="47"/><rect fill="#F1F1F1" height="2" style="stroke:#181818;stroke-width:0.5;" width="4" x="608" y="49"/><rect fill="#F1F1F1" height="2" style="stroke:#181818;stroke-width:0.5;" width="4" x="608" y="53"/><text fill="#000000" font-family="sans-serif" font-size="14" lengthAdjust="spacing" textLength="106" x="499" y="76.5332">Site1-DB1 (ADT)</text></g><!--MD5=[98d88a1eea30f93adcc3763af2efa107]
entity Site1-DB2 (OMICS)--><g id="elem_Site1-DB2 (OMICS)"><rect fill="#F1F1F1" height="47.6094" rx="2.5" ry="2.5" style="stroke:#181818;stroke-width:0.5;" width="162" x="287" y="42"/><rect fill="#F1F1F1" height="10" style="stroke:#181818;stroke-width:0.5;" width="15" x="429" y="47"/><rect fill="#F1F1F1" height="2" style="stroke:#181818;stroke-width:0.5;" width="4" x="427" y="49"/><rect fill="#F1F1F1" height="2" style="stroke:#181818;stroke-width:0.5;" width="4" x="427" y="53"/><text fill="#000000" font-family="sans-serif" font-size="14" lengthAdjust="spacing" textLength="122" x="302" y="76.5332">Site1-DB2 (OMICS)</text></g><!--MD5=[631fe7a968ed43ae0d40708bb1975e88]
entity Site1-DB3 (CENTRAXX)--><g id="elem_Site1-DB3 (CENTRAXX)"><rect fill="#F1F1F1" height="47.6094" rx="2.5" ry="2.5" style="stroke:#181818;stroke-width:0.5;" width="190" x="62" y="42"/><rect fill="#F1F1F1" height="10" style="stroke:#181818;stroke-width:0.5;" width="15" x="232" y="47"/><rect fill="#F1F1F1" height="2" style="stroke:#181818;stroke-width:0.5;" width="4" x="230" y="49"/><rect fill="#F1F1F1" height="2" style="stroke:#181818;stroke-width:0.5;" width="4" x="230" y="53"/><text fill="#000000" font-family="sans-serif" font-size="14" lengthAdjust="spacing" textLength="150" x="77" y="76.5332">Site1-DB3 (CENTRAXX)</text></g><!--MD5=[cc568028734e0276610d36346a700f80]
entity Version1.0 SQL, Version2.0 FHIR--><g id="elem_Version1.0 SQL, Version2.0 FHIR"><rect fill="#F1F1F1" height="47.6094" rx="2.5" ry="2.5" style="stroke:#181818;stroke-width:0.5;" width="251" x="242.5" y="201"/><rect fill="#F1F1F1" height="10" style="stroke:#181818;stroke-width:0.5;" width="15" x="473.5" y="206"/><rect fill="#F1F1F1" height="2" style="stroke:#181818;stroke-width:0.5;" width="4" x="471.5" y="208"/><rect fill="#F1F1F1" height="2" style="stroke:#181818;stroke-width:0.5;" width="4" x="471.5" y="212"/><text fill="#000000" font-family="sans-serif" font-size="14" lengthAdjust="spacing" textLength="211" x="257.5" y="235.5332">Version1.0 SQL, Version2.0 FHIR</text></g><!--MD5=[5557e246217b927106a286ae06a8c008]
entity Föderierte Suche (LENS, CCP-Explorer)--><g id="elem_Föderierte Suche (LENS, CCP-Explorer)"><rect fill="#F1F1F1" height="47.6094" rx="2.5" ry="2.5" style="stroke:#181818;stroke-width:0.5;" width="293" x="221.5" y="373"/><rect fill="#F1F1F1" height="10" style="stroke:#181818;stroke-width:0.5;" width="15" x="494.5" y="378"/><rect fill="#F1F1F1" height="2" style="stroke:#181818;stroke-width:0.5;" width="4" x="492.5" y="380"/><rect fill="#F1F1F1" height="2" style="stroke:#181818;stroke-width:0.5;" width="4" x="492.5" y="384"/><text fill="#000000" font-family="sans-serif" font-size="14" lengthAdjust="spacing" textLength="253" x="236.5" y="407.5332">Föderierte Suche (LENS, CCP-Explorer)</text></g><!--MD5=[7e388e403e801b5e5690bafe430f45ad]
entity Pseudonymisierung--><g id="elem_Pseudonymisierung"><rect fill="#F1F1F1" height="47.6094" rx="2.5" ry="2.5" style="stroke:#181818;stroke-width:0.5;" width="164" x="22" y="373"/><rect fill="#F1F1F1" height="10" style="stroke:#181818;stroke-width:0.5;" width="15" x="166" y="378"/><rect fill="#F1F1F1" height="2" style="stroke:#181818;stroke-width:0.5;" width="4" x="164" y="380"/><rect fill="#F1F1F1" height="2" style="stroke:#181818;stroke-width:0.5;" width="4" x="164" y="384"/><text fill="#000000" font-family="sans-serif" font-size="14" lengthAdjust="spacing" textLength="124" x="37" y="407.5332">Pseudonymisierung</text></g><!--MD5=[5297ee89c6e6cdaf350699e978197ef5]
link Site1-DB1 (ADT) to Version1.0 SQL, Version2.0 FHIR--><g id="link_Site1-DB1 (ADT)_Version1.0 SQL, Version2.0 FHIR"><path d="M529.11,90.17 C494.54,118.89 435.75,167.72 399.56,197.78 " fill="none" id="Site1-DB1 (ADT)-to-Version1.0 SQL, Version2.0 FHIR" style="stroke:#181818;stroke-width:1.0;"/><polygon fill="#181818" points="395.69,200.99,405.1706,198.322,399.5381,197.7975,400.0626,192.165,395.69,200.99" style="stroke:#181818;stroke-width:1.0;"/></g><!--MD5=[1eeb22c144529eed449180c774571488]
link Site1-DB2 (OMICS) to Version1.0 SQL, Version2.0 FHIR--><g id="link_Site1-DB2 (OMICS)_Version1.0 SQL, Version2.0 FHIR"><path d="M368,90.17 C368,118.31 368,165.75 368,195.94 " fill="none" id="Site1-DB2 (OMICS)-to-Version1.0 SQL, Version2.0 FHIR" style="stroke:#181818;stroke-width:1.0;"/><polygon fill="#181818" points="368,200.99,372,191.99,368,195.99,364,191.99,368,200.99" style="stroke:#181818;stroke-width:1.0;"/></g><!--MD5=[1abaaccf6caf80b77c0d827f490fc515]
link Site1-DB3 (CENTRAXX) to Version1.0 SQL, Version2.0 FHIR--><g id="link_Site1-DB3 (CENTRAXX)_Version1.0 SQL, Version2.0 FHIR"><path d="M188.13,90.17 C226.73,118.89 292.36,167.72 332.77,197.78 " fill="none" id="Site1-DB3 (CENTRAXX)-to-Version1.0 SQL, Version2.0 FHIR" style="stroke:#181818;stroke-width:1.0;"/><polygon fill="#181818" points="337.08,200.99,332.2603,192.401,333.0731,197.9992,327.475,198.812,337.08,200.99" style="stroke:#181818;stroke-width:1.0;"/></g><!--MD5=[ecfbc52fc7cbbc59917be70e8cb70d2d]
reverse link Version1.0 SQL, Version2.0 FHIR to Föderierte Suche (LENS, CCP-Explorer)--><g id="link_Version1.0 SQL, Version2.0 FHIR_Föderierte Suche (LENS, CCP-Explorer)"><path d="M368,254.44 C368,287.74 368,342.24 368,373 " fill="none" id="Version1.0 SQL, Version2.0 FHIR-backto-Föderierte Suche (LENS, CCP-Explorer)" style="stroke:#181818;stroke-width:1.0;"/><polygon fill="#181818" points="368,249.28,364,258.28,368,254.28,372,258.28,368,249.28" style="stroke:#181818;stroke-width:1.0;"/></g><!--MD5=[bf705d939787430df0009a04c9579138]
@startuml
package "Local" {
    [Site1-DB1 (ADT)]
    [Site1-DB2 (OMICS)]
    [Site1-DB3 (CENTRAXX)]

    frame "Bridgehead" {
        database "Database" {
            [Version1.0 SQL, Version2.0 FHIR]
        }
    }
}
package "Central" {
    [Föderierte Suche (LENS, CCP-Explorer)]
    [Pseudonymisierung]
}
'' Beziehung

[Site1-DB1 (ADT)] - -> [Version1.0 SQL, Version2.0 FHIR]
[Site1-DB2 (OMICS)] - -> [Version1.0 SQL, Version2.0 FHIR]
[Site1-DB3 (CENTRAXX)] - -> [Version1.0 SQL, Version2.0 FHIR]
[Version1.0 SQL, Version2.0 FHIR] <- - [Föderierte Suche (LENS, CCP-Explorer)]

@enduml

@startuml
package "Local" {
    [Site1-DB1 (ADT)]
    [Site1-DB2 (OMICS)]
    [Site1-DB3 (CENTRAXX)]

    frame "Bridgehead" {
        database "Database" {
            [Version1.0 SQL, Version2.0 FHIR]
        }
    }
}
package "Central" {
    [Föderierte Suche (LENS, CCP-Explorer)]
    [Pseudonymisierung]
}

[Site1-DB1 (ADT)] - -> [Version1.0 SQL, Version2.0 FHIR]
[Site1-DB2 (OMICS)] - -> [Version1.0 SQL, Version2.0 FHIR]
[Site1-DB3 (CENTRAXX)] - -> [Version1.0 SQL, Version2.0 FHIR]
[Version1.0 SQL, Version2.0 FHIR] <- - [Föderierte Suche (LENS, CCP-Explorer)]

@enduml

PlantUML version 1.2022.7(Mon Aug 22 19:01:30 CEST 2022)
(GPL source distribution)
Java Runtime: OpenJDK Runtime Environment
JVM: OpenJDK 64-Bit Server VM
Default Encoding: UTF-8
Language: de
Country: DE
--></g></svg>