<?xml version="1.0" encoding="UTF-8" standalone="no"?><svg xmlns="http://www.w3.org/2000/svg" xmlns:xlink="http://www.w3.org/1999/xlink" contentStyleType="text/css" height="275px" preserveAspectRatio="none" style="width:589px;height:275px;background:#FFFFFF;" version="1.1" viewBox="0 0 589 275" width="589px" zoomAndPan="magnify"><defs/><g><!--MD5=[4c0f2c208a8b53004bc0d82bfcabe9fa]
class Kunden--><g id="elem_Kunden"><rect codeLine="1" fill="#F1F1F1" height="100.8281" id="Kunden" rx="2.5" ry="2.5" style="stroke:#181818;stroke-width:0.5;" width="173" x="409" y="15.5"/><ellipse cx="466.75" cy="31.5" fill="#ADD1B2" rx="11" ry="11" style="stroke:#181818;stroke-width:1.0;"/><path d="M465.6094,32.2969 L465.6094,34.7969 L469.9375,34.7969 L469.9375,33.875 Q469.9375,33.2656 470.1719,33 Q470.4219,32.7344 470.7969,32.7344 Q471.1719,32.7344 471.4063,33 Q471.6406,33.2656 471.6406,33.875 L471.6406,36.5 L463.6406,36.5 Q463.0156,36.5 462.75,36.2656 Q462.5,36.0313 462.5,35.6406 Q462.5,35.2656 462.7656,35.0313 Q463.0313,34.7969 463.6406,34.7969 L463.9063,34.7969 L463.9063,28.1406 L463.6406,28.1406 Q463.0156,28.1406 462.75,27.9063 Q462.5,27.6719 462.5,27.2813 Q462.5,26.9063 462.75,26.6719 Q463.0156,26.4375 463.6406,26.4375 L471.2656,26.4375 L471.2656,29.0313 Q471.2656,29.6406 471.0313,29.9063 Q470.8125,30.1563 470.4219,30.1563 Q470.0469,30.1563 469.8125,29.9063 Q469.5781,29.6406 469.5781,29.0313 L469.5781,28.1406 L465.6094,28.1406 L465.6094,30.5938 L467.0938,30.5938 Q467.0938,29.9375 467.2188,29.75 Q467.4844,29.3438 467.9531,29.3438 Q468.3281,29.3438 468.5625,29.6094 Q468.7969,29.8594 468.7969,30.4688 L468.7969,32.4375 Q468.7969,32.9844 468.6719,33.1719 Q468.4063,33.5625 467.9531,33.5625 Q467.4844,33.5625 467.2188,33.1563 Q467.0938,32.9688 467.0938,32.2969 L465.6094,32.2969 Z " fill="#000000"/><text fill="#000000" font-family="sans-serif" font-size="14" lengthAdjust="spacing" textLength="49" x="487.25" y="37.2285">Kunden</text><line style="stroke:#181818;stroke-width:0.5;" x1="410" x2="581" y1="47.5" y2="47.5"/><ellipse cx="420" cy="61.8047" fill="#000000" rx="3" ry="3" style="stroke:#000000;stroke-width:1.0;"/><text fill="#000000" font-family="sans-serif" font-size="14" lengthAdjust="spacing" textLength="147" x="429" y="66.0332">Kunden_ID primary key</text><line style="stroke:#181818;stroke-width:1.0;" x1="410" x2="581" y1="73.1094" y2="73.1094"/><ellipse cx="420" cy="87.4141" fill="#000000" rx="3" ry="3" style="stroke:#000000;stroke-width:1.0;"/><text fill="#000000" font-family="sans-serif" font-size="14" lengthAdjust="spacing" textLength="57" x="429" y="91.6426">Vorname</text><ellipse cx="420" cy="105.0234" fill="#000000" rx="3" ry="3" style="stroke:#000000;stroke-width:1.0;"/><text fill="#000000" font-family="sans-serif" font-size="14" lengthAdjust="spacing" textLength="36" x="429" y="109.252">Name</text></g><!--MD5=[fa38dfee88ae4b6dad25acbbcc410260]
class Konto--><g id="elem_Konto"><rect codeLine="7" fill="#F1F1F1" height="118.4375" id="Konto" rx="2.5" ry="2.5" style="stroke:#181818;stroke-width:0.5;" width="161" x="7" y="7"/><ellipse cx="64.75" cy="23" fill="#ADD1B2" rx="11" ry="11" style="stroke:#181818;stroke-width:1.0;"/><path d="M63.6094,23.7969 L63.6094,26.2969 L67.9375,26.2969 L67.9375,25.375 Q67.9375,24.7656 68.1719,24.5 Q68.4219,24.2344 68.7969,24.2344 Q69.1719,24.2344 69.4063,24.5 Q69.6406,24.7656 69.6406,25.375 L69.6406,28 L61.6406,28 Q61.0156,28 60.75,27.7656 Q60.5,27.5313 60.5,27.1406 Q60.5,26.7656 60.7656,26.5313 Q61.0313,26.2969 61.6406,26.2969 L61.9063,26.2969 L61.9063,19.6406 L61.6406,19.6406 Q61.0156,19.6406 60.75,19.4063 Q60.5,19.1719 60.5,18.7813 Q60.5,18.4063 60.75,18.1719 Q61.0156,17.9375 61.6406,17.9375 L69.2656,17.9375 L69.2656,20.5313 Q69.2656,21.1406 69.0313,21.4063 Q68.8125,21.6563 68.4219,21.6563 Q68.0469,21.6563 67.8125,21.4063 Q67.5781,21.1406 67.5781,20.5313 L67.5781,19.6406 L63.6094,19.6406 L63.6094,22.0938 L65.0938,22.0938 Q65.0938,21.4375 65.2188,21.25 Q65.4844,20.8438 65.9531,20.8438 Q66.3281,20.8438 66.5625,21.1094 Q66.7969,21.3594 66.7969,21.9688 L66.7969,23.9375 Q66.7969,24.4844 66.6719,24.6719 Q66.4063,25.0625 65.9531,25.0625 Q65.4844,25.0625 65.2188,24.6563 Q65.0938,24.4688 65.0938,23.7969 L63.6094,23.7969 Z " fill="#000000"/><text fill="#000000" font-family="sans-serif" font-size="14" lengthAdjust="spacing" textLength="37" x="85.25" y="28.7285">Konto</text><line style="stroke:#181818;stroke-width:0.5;" x1="8" x2="167" y1="39" y2="39"/><ellipse cx="18" cy="53.3047" fill="#000000" rx="3" ry="3" style="stroke:#000000;stroke-width:1.0;"/><text fill="#000000" font-family="sans-serif" font-size="14" lengthAdjust="spacing" textLength="135" x="27" y="57.5332">Konto_ID primary key</text><line style="stroke:#181818;stroke-width:1.0;" x1="8" x2="167" y1="64.6094" y2="64.6094"/><ellipse cx="18" cy="78.9141" fill="#000000" rx="3" ry="3" style="stroke:#000000;stroke-width:1.0;"/><text fill="#000000" font-family="sans-serif" font-size="14" lengthAdjust="spacing" textLength="52" x="27" y="83.1426">Nummer</text><ellipse cx="18" cy="96.5234" fill="#000000" rx="3" ry="3" style="stroke:#000000;stroke-width:1.0;"/><text fill="#000000" font-family="sans-serif" font-size="14" lengthAdjust="spacing" textLength="39" x="27" y="100.752">Art_ID</text><ellipse cx="18" cy="114.1328" fill="#000000" rx="3" ry="3" style="stroke:#000000;stroke-width:1.0;"/><text fill="#000000" font-family="sans-serif" font-size="14" lengthAdjust="spacing" textLength="41" x="27" y="118.3613">Datum</text></g><!--MD5=[941969976064b4ecb57d224362762065]
class Kontoarten--><g id="elem_Kontoarten"><rect codeLine="14" fill="#F1F1F1" height="83.2188" id="Kontoarten" rx="2.5" ry="2.5" style="stroke:#181818;stroke-width:0.5;" width="142" x="16.5" y="185"/><ellipse cx="49.5" cy="201" fill="#ADD1B2" rx="11" ry="11" style="stroke:#181818;stroke-width:1.0;"/><path d="M48.3594,201.7969 L48.3594,204.2969 L52.6875,204.2969 L52.6875,203.375 Q52.6875,202.7656 52.9219,202.5 Q53.1719,202.2344 53.5469,202.2344 Q53.9219,202.2344 54.1563,202.5 Q54.3906,202.7656 54.3906,203.375 L54.3906,206 L46.3906,206 Q45.7656,206 45.5,205.7656 Q45.25,205.5313 45.25,205.1406 Q45.25,204.7656 45.5156,204.5313 Q45.7813,204.2969 46.3906,204.2969 L46.6563,204.2969 L46.6563,197.6406 L46.3906,197.6406 Q45.7656,197.6406 45.5,197.4063 Q45.25,197.1719 45.25,196.7813 Q45.25,196.4063 45.5,196.1719 Q45.7656,195.9375 46.3906,195.9375 L54.0156,195.9375 L54.0156,198.5313 Q54.0156,199.1406 53.7813,199.4063 Q53.5625,199.6563 53.1719,199.6563 Q52.7969,199.6563 52.5625,199.4063 Q52.3281,199.1406 52.3281,198.5313 L52.3281,197.6406 L48.3594,197.6406 L48.3594,200.0938 L49.8438,200.0938 Q49.8438,199.4375 49.9688,199.25 Q50.2344,198.8438 50.7031,198.8438 Q51.0781,198.8438 51.3125,199.1094 Q51.5469,199.3594 51.5469,199.9688 L51.5469,201.9375 Q51.5469,202.4844 51.4219,202.6719 Q51.1563,203.0625 50.7031,203.0625 Q50.2344,203.0625 49.9688,202.6563 Q49.8438,202.4688 49.8438,201.7969 L48.3594,201.7969 Z " fill="#000000"/><text fill="#000000" font-family="sans-serif" font-size="14" lengthAdjust="spacing" textLength="70" x="67.5" y="206.7285">Kontoarten</text><line style="stroke:#181818;stroke-width:0.5;" x1="17.5" x2="157.5" y1="217" y2="217"/><ellipse cx="27.5" cy="231.3047" fill="#000000" rx="3" ry="3" style="stroke:#000000;stroke-width:1.0;"/><text fill="#000000" font-family="sans-serif" font-size="14" lengthAdjust="spacing" textLength="116" x="36.5" y="235.5332">Art_ID primary key</text><line style="stroke:#181818;stroke-width:1.0;" x1="17.5" x2="157.5" y1="242.6094" y2="242.6094"/><ellipse cx="27.5" cy="256.9141" fill="#000000" rx="3" ry="3" style="stroke:#000000;stroke-width:1.0;"/><text fill="#000000" font-family="sans-serif" font-size="14" lengthAdjust="spacing" textLength="87" x="36.5" y="261.1426">Beschreibung</text></g><!--MD5=[26c60937faa5f4603320409b8d9c1799]
class Kunde_Konto--><g id="elem_Kunde_Konto"><rect codeLine="19" fill="#F1F1F1" height="83.2188" id="Kunde_Konto" rx="2.5" ry="2.5" style="stroke:#181818;stroke-width:0.5;" width="170" x="203.5" y="24.5"/><ellipse cx="241.9" cy="40.5" fill="#ADD1B2" rx="11" ry="11" style="stroke:#181818;stroke-width:1.0;"/><path d="M240.7594,41.2969 L240.7594,43.7969 L245.0875,43.7969 L245.0875,42.875 Q245.0875,42.2656 245.3219,42 Q245.5719,41.7344 245.9469,41.7344 Q246.3219,41.7344 246.5563,42 Q246.7906,42.2656 246.7906,42.875 L246.7906,45.5 L238.7906,45.5 Q238.1656,45.5 237.9,45.2656 Q237.65,45.0313 237.65,44.6406 Q237.65,44.2656 237.9156,44.0313 Q238.1813,43.7969 238.7906,43.7969 L239.0563,43.7969 L239.0563,37.1406 L238.7906,37.1406 Q238.1656,37.1406 237.9,36.9063 Q237.65,36.6719 237.65,36.2813 Q237.65,35.9063 237.9,35.6719 Q238.1656,35.4375 238.7906,35.4375 L246.4156,35.4375 L246.4156,38.0313 Q246.4156,38.6406 246.1813,38.9063 Q245.9625,39.1563 245.5719,39.1563 Q245.1969,39.1563 244.9625,38.9063 Q244.7281,38.6406 244.7281,38.0313 L244.7281,37.1406 L240.7594,37.1406 L240.7594,39.5938 L242.2438,39.5938 Q242.2438,38.9375 242.3688,38.75 Q242.6344,38.3438 243.1031,38.3438 Q243.4781,38.3438 243.7125,38.6094 Q243.9469,38.8594 243.9469,39.4688 L243.9469,41.4375 Q243.9469,41.9844 243.8219,42.1719 Q243.5563,42.5625 243.1031,42.5625 Q242.6344,42.5625 242.3688,42.1563 Q242.2438,41.9688 242.2438,41.2969 L240.7594,41.2969 Z " fill="#000000"/><text fill="#000000" font-family="sans-serif" font-size="14" lengthAdjust="spacing" textLength="86" x="261.1" y="46.2285">Kunde_Konto</text><line style="stroke:#181818;stroke-width:0.5;" x1="204.5" x2="372.5" y1="56.5" y2="56.5"/><ellipse cx="214.5" cy="70.8047" fill="#000000" rx="3" ry="3" style="stroke:#000000;stroke-width:1.0;"/><text fill="#000000" font-family="sans-serif" font-size="14" lengthAdjust="spacing" textLength="144" x="223.5" y="75.0332">Kunden_ID foreign key</text><line style="stroke:#181818;stroke-width:1.0;" x1="204.5" x2="372.5" y1="82.1094" y2="82.1094"/><ellipse cx="214.5" cy="96.4141" fill="#000000" rx="3" ry="3" style="stroke:#000000;stroke-width:1.0;"/><text fill="#000000" font-family="sans-serif" font-size="14" lengthAdjust="spacing" textLength="132" x="223.5" y="100.6426">Konto_ID foreign key</text></g><!--MD5=[a47713ece1bcc4bd66151ff65e755844]
link Konto to Kontoarten--><g id="link_Konto_Kontoarten"><path codeLine="24" d="M87.5,125.12 C87.5,144.91 87.5,166.6 87.5,184.73 " fill="none" id="Konto-Kontoarten" style="stroke:#181818;stroke-width:1.0;"/><text fill="#000000" font-family="sans-serif" font-size="13" lengthAdjust="spacing" textLength="7" x="80.0734" y="146.7901">n</text><text fill="#000000" font-family="sans-serif" font-size="13" lengthAdjust="spacing" textLength="7" x="79.9203" y="173.993">1</text></g><!--MD5=[e7a43d310ba30454132ed4af9e35b3ca]
link Konto to Kunde_Konto--><g id="link_Konto_Kunde_Konto"><path codeLine="25" d="M168.37,66 C179.95,66 191.52,66 203.1,66 " fill="none" id="Konto-Kunde_Konto" style="stroke:#181818;stroke-width:1.0;"/></g><!--MD5=[ef95f1b14ad1418efb432a6deaed14a4]
link Kunde_Konto to Kunden--><g id="link_Kunde_Konto_Kunden"><path codeLine="26" d="M373.81,66 C385.53,66 397.26,66 408.98,66 " fill="none" id="Kunde_Konto-Kunden" style="stroke:#181818;stroke-width:1.0;"/></g><!--MD5=[f41310409abf2ca83df697536b1c11a2]
@startuml name Konto
entity Kunden {
    * Kunden_ID primary key 
    - -
    * Vorname
    * Name
}
entity Konto {
    * Konto_ID primary key 
    - -
    * Nummer 
    * Art_ID 
    * Datum 
}
entity Kontoarten {
    * Art_ID primary key 
    - -
    * Beschreibung 
}
entity Kunde_Konto {
    * Kunden_ID foreign key 
    - -
    * Konto_ID foreign key 
}
Konto "n" - - "1" Kontoarten
Konto - Kunde_Konto
Kunde_Konto- Kunden
@enduml

PlantUML version 1.2022.7(Mon Aug 22 19:01:30 CEST 2022)
(GPL source distribution)
Java Runtime: OpenJDK Runtime Environment
JVM: OpenJDK 64-Bit Server VM
Default Encoding: Cp1252
Language: de
Country: DE
--></g></svg>