<?xml version="1.0" encoding="UTF-8" standalone="no"?><svg xmlns="http://www.w3.org/2000/svg" xmlns:xlink="http://www.w3.org/1999/xlink" contentStyleType="text/css" height="158px" preserveAspectRatio="none" style="width:1602px;height:158px;background:#FFFFFF;" version="1.1" viewBox="0 0 1602 158" width="1602px" zoomAndPan="magnify"><defs/><g><line style="stroke:#C0C0C0;stroke-width:1.0;" x1="0" x2="0" y1="0" y2="142.8516"/><line style="stroke:#C0C0C0;stroke-width:1.0;" x1="16" x2="16" y1="0" y2="142.8516"/><line style="stroke:#C0C0C0;stroke-width:1.0;" x1="32" x2="32" y1="0" y2="142.8516"/><line style="stroke:#C0C0C0;stroke-width:1.0;" x1="48" x2="48" y1="0" y2="142.8516"/><line style="stroke:#C0C0C0;stroke-width:1.0;" x1="64" x2="64" y1="0" y2="142.8516"/><line style="stroke:#C0C0C0;stroke-width:1.0;" x1="80" x2="80" y1="0" y2="142.8516"/><line style="stroke:#C0C0C0;stroke-width:1.0;" x1="96" x2="96" y1="0" y2="142.8516"/><line style="stroke:#C0C0C0;stroke-width:1.0;" x1="112" x2="112" y1="0" y2="142.8516"/><line style="stroke:#C0C0C0;stroke-width:1.0;" x1="128" x2="128" y1="0" y2="142.8516"/><line style="stroke:#C0C0C0;stroke-width:1.0;" x1="144" x2="144" y1="0" y2="142.8516"/><line style="stroke:#C0C0C0;stroke-width:1.0;" x1="160" x2="160" y1="0" y2="142.8516"/><line style="stroke:#C0C0C0;stroke-width:1.0;" x1="176" x2="176" y1="0" y2="142.8516"/><line style="stroke:#C0C0C0;stroke-width:1.0;" x1="192" x2="192" y1="0" y2="142.8516"/><line style="stroke:#C0C0C0;stroke-width:1.0;" x1="208" x2="208" y1="0" y2="142.8516"/><line style="stroke:#C0C0C0;stroke-width:1.0;" x1="224" x2="224" y1="0" y2="142.8516"/><line style="stroke:#C0C0C0;stroke-width:1.0;" x1="240" x2="240" y1="0" y2="142.8516"/><line style="stroke:#C0C0C0;stroke-width:1.0;" x1="256" x2="256" y1="0" y2="142.8516"/><line style="stroke:#C0C0C0;stroke-width:1.0;" x1="272" x2="272" y1="0" y2="142.8516"/><line style="stroke:#C0C0C0;stroke-width:1.0;" x1="288" x2="288" y1="0" y2="142.8516"/><line style="stroke:#C0C0C0;stroke-width:1.0;" x1="304" x2="304" y1="0" y2="142.8516"/><line style="stroke:#C0C0C0;stroke-width:1.0;" x1="320" x2="320" y1="0" y2="142.8516"/><line style="stroke:#C0C0C0;stroke-width:1.0;" x1="336" x2="336" y1="0" y2="142.8516"/><line style="stroke:#C0C0C0;stroke-width:1.0;" x1="352" x2="352" y1="0" y2="142.8516"/><line style="stroke:#C0C0C0;stroke-width:1.0;" x1="368" x2="368" y1="0" y2="142.8516"/><line style="stroke:#C0C0C0;stroke-width:1.0;" x1="384" x2="384" y1="0" y2="142.8516"/><line style="stroke:#C0C0C0;stroke-width:1.0;" x1="400" x2="400" y1="0" y2="142.8516"/><line style="stroke:#C0C0C0;stroke-width:1.0;" x1="416" x2="416" y1="0" y2="142.8516"/><line style="stroke:#C0C0C0;stroke-width:1.0;" x1="432" x2="432" y1="0" y2="142.8516"/><line style="stroke:#C0C0C0;stroke-width:1.0;" x1="448" x2="448" y1="0" y2="142.8516"/><line style="stroke:#C0C0C0;stroke-width:1.0;" x1="464" x2="464" y1="0" y2="142.8516"/><line style="stroke:#C0C0C0;stroke-width:1.0;" x1="480" x2="480" y1="0" y2="142.8516"/><line style="stroke:#C0C0C0;stroke-width:1.0;" x1="496" x2="496" y1="0" y2="142.8516"/><line style="stroke:#C0C0C0;stroke-width:1.0;" x1="512" x2="512" y1="0" y2="142.8516"/><line style="stroke:#C0C0C0;stroke-width:1.0;" x1="528" x2="528" y1="0" y2="142.8516"/><line style="stroke:#C0C0C0;stroke-width:1.0;" x1="544" x2="544" y1="0" y2="142.8516"/><line style="stroke:#C0C0C0;stroke-width:1.0;" x1="560" x2="560" y1="0" y2="142.8516"/><line style="stroke:#C0C0C0;stroke-width:1.0;" x1="576" x2="576" y1="0" y2="142.8516"/><line style="stroke:#C0C0C0;stroke-width:1.0;" x1="592" x2="592" y1="0" y2="142.8516"/><line style="stroke:#C0C0C0;stroke-width:1.0;" x1="608" x2="608" y1="0" y2="142.8516"/><line style="stroke:#C0C0C0;stroke-width:1.0;" x1="624" x2="624" y1="0" y2="142.8516"/><line style="stroke:#C0C0C0;stroke-width:1.0;" x1="640" x2="640" y1="0" y2="142.8516"/><line style="stroke:#C0C0C0;stroke-width:1.0;" x1="656" x2="656" y1="0" y2="142.8516"/><line style="stroke:#C0C0C0;stroke-width:1.0;" x1="672" x2="672" y1="0" y2="142.8516"/><line style="stroke:#C0C0C0;stroke-width:1.0;" x1="688" x2="688" y1="0" y2="142.8516"/><line style="stroke:#C0C0C0;stroke-width:1.0;" x1="704" x2="704" y1="0" y2="142.8516"/><line style="stroke:#C0C0C0;stroke-width:1.0;" x1="720" x2="720" y1="0" y2="142.8516"/><line style="stroke:#C0C0C0;stroke-width:1.0;" x1="736" x2="736" y1="0" y2="142.8516"/><line style="stroke:#C0C0C0;stroke-width:1.0;" x1="752" x2="752" y1="0" y2="142.8516"/><line style="stroke:#C0C0C0;stroke-width:1.0;" x1="768" x2="768" y1="0" y2="142.8516"/><line style="stroke:#C0C0C0;stroke-width:1.0;" x1="784" x2="784" y1="0" y2="142.8516"/><line style="stroke:#C0C0C0;stroke-width:1.0;" x1="800" x2="800" y1="0" y2="142.8516"/><line style="stroke:#C0C0C0;stroke-width:1.0;" x1="816" x2="816" y1="0" y2="142.8516"/><line style="stroke:#C0C0C0;stroke-width:1.0;" x1="832" x2="832" y1="0" y2="142.8516"/><line style="stroke:#C0C0C0;stroke-width:1.0;" x1="848" x2="848" y1="0" y2="142.8516"/><line style="stroke:#C0C0C0;stroke-width:1.0;" x1="864" x2="864" y1="0" y2="142.8516"/><line style="stroke:#C0C0C0;stroke-width:1.0;" x1="880" x2="880" y1="0" y2="142.8516"/><line style="stroke:#C0C0C0;stroke-width:1.0;" x1="896" x2="896" y1="0" y2="142.8516"/><line style="stroke:#C0C0C0;stroke-width:1.0;" x1="912" x2="912" y1="0" y2="142.8516"/><line style="stroke:#C0C0C0;stroke-width:1.0;" x1="928" x2="928" y1="0" y2="142.8516"/><line style="stroke:#C0C0C0;stroke-width:1.0;" x1="944" x2="944" y1="0" y2="142.8516"/><line style="stroke:#C0C0C0;stroke-width:1.0;" x1="960" x2="960" y1="0" y2="142.8516"/><line style="stroke:#C0C0C0;stroke-width:1.0;" x1="976" x2="976" y1="0" y2="142.8516"/><line style="stroke:#C0C0C0;stroke-width:1.0;" x1="992" x2="992" y1="0" y2="142.8516"/><line style="stroke:#C0C0C0;stroke-width:1.0;" x1="1008" x2="1008" y1="0" y2="142.8516"/><line style="stroke:#C0C0C0;stroke-width:1.0;" x1="1024" x2="1024" y1="0" y2="142.8516"/><line style="stroke:#C0C0C0;stroke-width:1.0;" x1="1040" x2="1040" y1="0" y2="142.8516"/><line style="stroke:#C0C0C0;stroke-width:1.0;" x1="1056" x2="1056" y1="0" y2="142.8516"/><line style="stroke:#C0C0C0;stroke-width:1.0;" x1="1072" x2="1072" y1="0" y2="142.8516"/><line style="stroke:#C0C0C0;stroke-width:1.0;" x1="1088" x2="1088" y1="0" y2="142.8516"/><line style="stroke:#C0C0C0;stroke-width:1.0;" x1="1104" x2="1104" y1="0" y2="142.8516"/><line style="stroke:#C0C0C0;stroke-width:1.0;" x1="1120" x2="1120" y1="0" y2="142.8516"/><line style="stroke:#C0C0C0;stroke-width:1.0;" x1="1136" x2="1136" y1="0" y2="142.8516"/><line style="stroke:#C0C0C0;stroke-width:1.0;" x1="1152" x2="1152" y1="0" y2="142.8516"/><line style="stroke:#C0C0C0;stroke-width:1.0;" x1="1168" x2="1168" y1="0" y2="142.8516"/><line style="stroke:#C0C0C0;stroke-width:1.0;" x1="1184" x2="1184" y1="0" y2="142.8516"/><line style="stroke:#C0C0C0;stroke-width:1.0;" x1="1200" x2="1200" y1="0" y2="142.8516"/><line style="stroke:#C0C0C0;stroke-width:1.0;" x1="1216" x2="1216" y1="0" y2="142.8516"/><line style="stroke:#C0C0C0;stroke-width:1.0;" x1="1232" x2="1232" y1="0" y2="142.8516"/><line style="stroke:#C0C0C0;stroke-width:1.0;" x1="1248" x2="1248" y1="0" y2="142.8516"/><line style="stroke:#C0C0C0;stroke-width:1.0;" x1="1264" x2="1264" y1="0" y2="142.8516"/><line style="stroke:#C0C0C0;stroke-width:1.0;" x1="1280" x2="1280" y1="0" y2="142.8516"/><line style="stroke:#C0C0C0;stroke-width:1.0;" x1="1296" x2="1296" y1="0" y2="142.8516"/><line style="stroke:#C0C0C0;stroke-width:1.0;" x1="1312" x2="1312" y1="0" y2="142.8516"/><line style="stroke:#C0C0C0;stroke-width:1.0;" x1="1328" x2="1328" y1="0" y2="142.8516"/><line style="stroke:#C0C0C0;stroke-width:1.0;" x1="1344" x2="1344" y1="0" y2="142.8516"/><line style="stroke:#C0C0C0;stroke-width:1.0;" x1="1360" x2="1360" y1="0" y2="142.8516"/><line style="stroke:#C0C0C0;stroke-width:1.0;" x1="1376" x2="1376" y1="0" y2="142.8516"/><line style="stroke:#C0C0C0;stroke-width:1.0;" x1="1392" x2="1392" y1="0" y2="142.8516"/><line style="stroke:#C0C0C0;stroke-width:1.0;" x1="1408" x2="1408" y1="0" y2="142.8516"/><line style="stroke:#C0C0C0;stroke-width:1.0;" x1="1424" x2="1424" y1="0" y2="142.8516"/><line style="stroke:#C0C0C0;stroke-width:1.0;" x1="1440" x2="1440" y1="0" y2="142.8516"/><line style="stroke:#C0C0C0;stroke-width:1.0;" x1="1456" x2="1456" y1="0" y2="142.8516"/><line style="stroke:#C0C0C0;stroke-width:1.0;" x1="1472" x2="1472" y1="0" y2="142.8516"/><line style="stroke:#C0C0C0;stroke-width:1.0;" x1="1488" x2="1488" y1="0" y2="142.8516"/><line style="stroke:#C0C0C0;stroke-width:1.0;" x1="1504" x2="1504" y1="0" y2="142.8516"/><line style="stroke:#C0C0C0;stroke-width:1.0;" x1="1520" x2="1520" y1="0" y2="142.8516"/><line style="stroke:#C0C0C0;stroke-width:1.0;" x1="1536" x2="1536" y1="0" y2="142.8516"/><line style="stroke:#C0C0C0;stroke-width:1.0;" x1="1552" x2="1552" y1="0" y2="142.8516"/><line style="stroke:#C0C0C0;stroke-width:1.0;" x1="1568" x2="1568" y1="0" y2="142.8516"/><line style="stroke:#C0C0C0;stroke-width:1.0;" x1="1584" x2="1584" y1="0" y2="142.8516"/><line style="stroke:#C0C0C0;stroke-width:1.0;" x1="1600" x2="1600" y1="0" y2="142.8516"/><text fill="#000000" font-family="Serif" font-size="10" lengthAdjust="spacing" textLength="5" x="5.5" y="10.4785">1</text><text fill="#000000" font-family="Serif" font-size="10" lengthAdjust="spacing" textLength="5" x="21.5" y="10.4785">2</text><text fill="#000000" font-family="Serif" font-size="10" lengthAdjust="spacing" textLength="5" x="37.5" y="10.4785">3</text><text fill="#000000" font-family="Serif" font-size="10" lengthAdjust="spacing" textLength="5" x="53.5" y="10.4785">4</text><text fill="#000000" font-family="Serif" font-size="10" lengthAdjust="spacing" textLength="5" x="69.5" y="10.4785">5</text><text fill="#000000" font-family="Serif" font-size="10" lengthAdjust="spacing" textLength="5" x="85.5" y="10.4785">6</text><text fill="#000000" font-family="Serif" font-size="10" lengthAdjust="spacing" textLength="5" x="101.5" y="10.4785">7</text><text fill="#000000" font-family="Serif" font-size="10" lengthAdjust="spacing" textLength="5" x="117.5" y="10.4785">8</text><text fill="#000000" font-family="Serif" font-size="10" lengthAdjust="spacing" textLength="5" x="133.5" y="10.4785">9</text><text fill="#000000" font-family="Serif" font-size="10" lengthAdjust="spacing" textLength="10" x="147" y="10.4785">10</text><text fill="#000000" font-family="Serif" font-size="10" lengthAdjust="spacing" textLength="10" x="163" y="10.4785">11</text><text fill="#000000" font-family="Serif" font-size="10" lengthAdjust="spacing" textLength="10" x="179" y="10.4785">12</text><text fill="#000000" font-family="Serif" font-size="10" lengthAdjust="spacing" textLength="10" x="195" y="10.4785">13</text><text fill="#000000" font-family="Serif" font-size="10" lengthAdjust="spacing" textLength="10" x="211" y="10.4785">14</text><text fill="#000000" font-family="Serif" font-size="10" lengthAdjust="spacing" textLength="10" x="227" y="10.4785">15</text><text fill="#000000" font-family="Serif" font-size="10" lengthAdjust="spacing" textLength="10" x="243" y="10.4785">16</text><text fill="#000000" font-family="Serif" font-size="10" lengthAdjust="spacing" textLength="10" x="259" y="10.4785">17</text><text fill="#000000" font-family="Serif" font-size="10" lengthAdjust="spacing" textLength="10" x="275" y="10.4785">18</text><text fill="#000000" font-family="Serif" font-size="10" lengthAdjust="spacing" textLength="10" x="291" y="10.4785">19</text><text fill="#000000" font-family="Serif" font-size="10" lengthAdjust="spacing" textLength="10" x="307" y="10.4785">20</text><text fill="#000000" font-family="Serif" font-size="10" lengthAdjust="spacing" textLength="10" x="323" y="10.4785">21</text><text fill="#000000" font-family="Serif" font-size="10" lengthAdjust="spacing" textLength="10" x="339" y="10.4785">22</text><text fill="#000000" font-family="Serif" font-size="10" lengthAdjust="spacing" textLength="10" x="355" y="10.4785">23</text><text fill="#000000" font-family="Serif" font-size="10" lengthAdjust="spacing" textLength="10" x="371" y="10.4785">24</text><text fill="#000000" font-family="Serif" font-size="10" lengthAdjust="spacing" textLength="10" x="387" y="10.4785">25</text><text fill="#000000" font-family="Serif" font-size="10" lengthAdjust="spacing" textLength="10" x="403" y="10.4785">26</text><text fill="#000000" font-family="Serif" font-size="10" lengthAdjust="spacing" textLength="10" x="419" y="10.4785">27</text><text fill="#000000" font-family="Serif" font-size="10" lengthAdjust="spacing" textLength="10" x="435" y="10.4785">28</text><text fill="#000000" font-family="Serif" font-size="10" lengthAdjust="spacing" textLength="10" x="451" y="10.4785">29</text><text fill="#000000" font-family="Serif" font-size="10" lengthAdjust="spacing" textLength="10" x="467" y="10.4785">30</text><text fill="#000000" font-family="Serif" font-size="10" lengthAdjust="spacing" textLength="10" x="483" y="10.4785">31</text><text fill="#000000" font-family="Serif" font-size="10" lengthAdjust="spacing" textLength="10" x="499" y="10.4785">32</text><text fill="#000000" font-family="Serif" font-size="10" lengthAdjust="spacing" textLength="10" x="515" y="10.4785">33</text><text fill="#000000" font-family="Serif" font-size="10" lengthAdjust="spacing" textLength="10" x="531" y="10.4785">34</text><text fill="#000000" font-family="Serif" font-size="10" lengthAdjust="spacing" textLength="10" x="547" y="10.4785">35</text><text fill="#000000" font-family="Serif" font-size="10" lengthAdjust="spacing" textLength="10" x="563" y="10.4785">36</text><text fill="#000000" font-family="Serif" font-size="10" lengthAdjust="spacing" textLength="10" x="579" y="10.4785">37</text><text fill="#000000" font-family="Serif" font-size="10" lengthAdjust="spacing" textLength="10" x="595" y="10.4785">38</text><text fill="#000000" font-family="Serif" font-size="10" lengthAdjust="spacing" textLength="10" x="611" y="10.4785">39</text><text fill="#000000" font-family="Serif" font-size="10" lengthAdjust="spacing" textLength="10" x="627" y="10.4785">40</text><text fill="#000000" font-family="Serif" font-size="10" lengthAdjust="spacing" textLength="10" x="643" y="10.4785">41</text><text fill="#000000" font-family="Serif" font-size="10" lengthAdjust="spacing" textLength="10" x="659" y="10.4785">42</text><text fill="#000000" font-family="Serif" font-size="10" lengthAdjust="spacing" textLength="10" x="675" y="10.4785">43</text><text fill="#000000" font-family="Serif" font-size="10" lengthAdjust="spacing" textLength="10" x="691" y="10.4785">44</text><text fill="#000000" font-family="Serif" font-size="10" lengthAdjust="spacing" textLength="10" x="707" y="10.4785">45</text><text fill="#000000" font-family="Serif" font-size="10" lengthAdjust="spacing" textLength="10" x="723" y="10.4785">46</text><text fill="#000000" font-family="Serif" font-size="10" lengthAdjust="spacing" textLength="10" x="739" y="10.4785">47</text><text fill="#000000" font-family="Serif" font-size="10" lengthAdjust="spacing" textLength="10" x="755" y="10.4785">48</text><text fill="#000000" font-family="Serif" font-size="10" lengthAdjust="spacing" textLength="10" x="771" y="10.4785">49</text><text fill="#000000" font-family="Serif" font-size="10" lengthAdjust="spacing" textLength="10" x="787" y="10.4785">50</text><text fill="#000000" font-family="Serif" font-size="10" lengthAdjust="spacing" textLength="10" x="803" y="10.4785">51</text><text fill="#000000" font-family="Serif" font-size="10" lengthAdjust="spacing" textLength="10" x="819" y="10.4785">52</text><text fill="#000000" font-family="Serif" font-size="10" lengthAdjust="spacing" textLength="10" x="835" y="10.4785">53</text><text fill="#000000" font-family="Serif" font-size="10" lengthAdjust="spacing" textLength="10" x="851" y="10.4785">54</text><text fill="#000000" font-family="Serif" font-size="10" lengthAdjust="spacing" textLength="10" x="867" y="10.4785">55</text><text fill="#000000" font-family="Serif" font-size="10" lengthAdjust="spacing" textLength="10" x="883" y="10.4785">56</text><text fill="#000000" font-family="Serif" font-size="10" lengthAdjust="spacing" textLength="10" x="899" y="10.4785">57</text><text fill="#000000" font-family="Serif" font-size="10" lengthAdjust="spacing" textLength="10" x="915" y="10.4785">58</text><text fill="#000000" font-family="Serif" font-size="10" lengthAdjust="spacing" textLength="10" x="931" y="10.4785">59</text><text fill="#000000" font-family="Serif" font-size="10" lengthAdjust="spacing" textLength="10" x="947" y="10.4785">60</text><text fill="#000000" font-family="Serif" font-size="10" lengthAdjust="spacing" textLength="10" x="963" y="10.4785">61</text><text fill="#000000" font-family="Serif" font-size="10" lengthAdjust="spacing" textLength="10" x="979" y="10.4785">62</text><text fill="#000000" font-family="Serif" font-size="10" lengthAdjust="spacing" textLength="10" x="995" y="10.4785">63</text><text fill="#000000" font-family="Serif" font-size="10" lengthAdjust="spacing" textLength="10" x="1011" y="10.4785">64</text><text fill="#000000" font-family="Serif" font-size="10" lengthAdjust="spacing" textLength="10" x="1027" y="10.4785">65</text><text fill="#000000" font-family="Serif" font-size="10" lengthAdjust="spacing" textLength="10" x="1043" y="10.4785">66</text><text fill="#000000" font-family="Serif" font-size="10" lengthAdjust="spacing" textLength="10" x="1059" y="10.4785">67</text><text fill="#000000" font-family="Serif" font-size="10" lengthAdjust="spacing" textLength="10" x="1075" y="10.4785">68</text><text fill="#000000" font-family="Serif" font-size="10" lengthAdjust="spacing" textLength="10" x="1091" y="10.4785">69</text><text fill="#000000" font-family="Serif" font-size="10" lengthAdjust="spacing" textLength="10" x="1107" y="10.4785">70</text><text fill="#000000" font-family="Serif" font-size="10" lengthAdjust="spacing" textLength="10" x="1123" y="10.4785">71</text><text fill="#000000" font-family="Serif" font-size="10" lengthAdjust="spacing" textLength="10" x="1139" y="10.4785">72</text><text fill="#000000" font-family="Serif" font-size="10" lengthAdjust="spacing" textLength="10" x="1155" y="10.4785">73</text><text fill="#000000" font-family="Serif" font-size="10" lengthAdjust="spacing" textLength="10" x="1171" y="10.4785">74</text><text fill="#000000" font-family="Serif" font-size="10" lengthAdjust="spacing" textLength="10" x="1187" y="10.4785">75</text><text fill="#000000" font-family="Serif" font-size="10" lengthAdjust="spacing" textLength="10" x="1203" y="10.4785">76</text><text fill="#000000" font-family="Serif" font-size="10" lengthAdjust="spacing" textLength="10" x="1219" y="10.4785">77</text><text fill="#000000" font-family="Serif" font-size="10" lengthAdjust="spacing" textLength="10" x="1235" y="10.4785">78</text><text fill="#000000" font-family="Serif" font-size="10" lengthAdjust="spacing" textLength="10" x="1251" y="10.4785">79</text><text fill="#000000" font-family="Serif" font-size="10" lengthAdjust="spacing" textLength="10" x="1267" y="10.4785">80</text><text fill="#000000" font-family="Serif" font-size="10" lengthAdjust="spacing" textLength="10" x="1283" y="10.4785">81</text><text fill="#000000" font-family="Serif" font-size="10" lengthAdjust="spacing" textLength="10" x="1299" y="10.4785">82</text><text fill="#000000" font-family="Serif" font-size="10" lengthAdjust="spacing" textLength="10" x="1315" y="10.4785">83</text><text fill="#000000" font-family="Serif" font-size="10" lengthAdjust="spacing" textLength="10" x="1331" y="10.4785">84</text><text fill="#000000" font-family="Serif" font-size="10" lengthAdjust="spacing" textLength="10" x="1347" y="10.4785">85</text><text fill="#000000" font-family="Serif" font-size="10" lengthAdjust="spacing" textLength="10" x="1363" y="10.4785">86</text><text fill="#000000" font-family="Serif" font-size="10" lengthAdjust="spacing" textLength="10" x="1379" y="10.4785">87</text><text fill="#000000" font-family="Serif" font-size="10" lengthAdjust="spacing" textLength="10" x="1395" y="10.4785">88</text><text fill="#000000" font-family="Serif" font-size="10" lengthAdjust="spacing" textLength="10" x="1411" y="10.4785">89</text><text fill="#000000" font-family="Serif" font-size="10" lengthAdjust="spacing" textLength="10" x="1427" y="10.4785">90</text><text fill="#000000" font-family="Serif" font-size="10" lengthAdjust="spacing" textLength="10" x="1443" y="10.4785">91</text><text fill="#000000" font-family="Serif" font-size="10" lengthAdjust="spacing" textLength="10" x="1459" y="10.4785">92</text><text fill="#000000" font-family="Serif" font-size="10" lengthAdjust="spacing" textLength="10" x="1475" y="10.4785">93</text><text fill="#000000" font-family="Serif" font-size="10" lengthAdjust="spacing" textLength="10" x="1491" y="10.4785">94</text><text fill="#000000" font-family="Serif" font-size="10" lengthAdjust="spacing" textLength="10" x="1507" y="10.4785">95</text><text fill="#000000" font-family="Serif" font-size="10" lengthAdjust="spacing" textLength="10" x="1523" y="10.4785">96</text><text fill="#000000" font-family="Serif" font-size="10" lengthAdjust="spacing" textLength="10" x="1539" y="10.4785">97</text><text fill="#000000" font-family="Serif" font-size="10" lengthAdjust="spacing" textLength="10" x="1555" y="10.4785">98</text><text fill="#000000" font-family="Serif" font-size="10" lengthAdjust="spacing" textLength="10" x="1571" y="10.4785">99</text><text fill="#000000" font-family="Serif" font-size="10" lengthAdjust="spacing" textLength="15" x="1584.5" y="10.4785">100</text><line style="stroke:#C0C0C0;stroke-width:1.0;" x1="0" x2="1600" y1="0" y2="0"/><line style="stroke:#C0C0C0;stroke-width:1.0;" x1="0" x2="1600" y1="13" y2="13"/><rect fill="#E2E2F0" height="13.8359" style="stroke:none;stroke-width:1.0;" width="156" x="2" y="18"/><line style="stroke:#181818;stroke-width:1.0;" x1="2" x2="158" y1="18" y2="18"/><line style="stroke:#181818;stroke-width:1.0;" x1="2" x2="158" y1="31.8359" y2="31.8359"/><line style="stroke:#181818;stroke-width:1.0;" x1="2" x2="2" y1="18" y2="31.8359"/><line style="stroke:#181818;stroke-width:1.0;" x1="158" x2="158" y1="18" y2="31.8359"/><rect fill="#E2E2F0" height="13.8359" style="stroke:none;stroke-width:1.0;" width="396" x="162" y="35.8359"/><line style="stroke:#181818;stroke-width:1.0;" x1="162" x2="558" y1="35.8359" y2="35.8359"/><line style="stroke:#181818;stroke-width:1.0;" x1="162" x2="558" y1="49.6719" y2="49.6719"/><line style="stroke:#181818;stroke-width:1.0;" x1="162" x2="162" y1="35.8359" y2="49.6719"/><line style="stroke:#181818;stroke-width:1.0;" x1="558" x2="558" y1="35.8359" y2="49.6719"/><rect fill="#E2E2F0" height="13.8359" style="stroke:none;stroke-width:1.0;" width="268" x="162" y="53.6719"/><line style="stroke:#181818;stroke-width:1.0;" x1="162" x2="430" y1="53.6719" y2="53.6719"/><line style="stroke:#181818;stroke-width:1.0;" x1="162" x2="430" y1="67.5078" y2="67.5078"/><line style="stroke:#181818;stroke-width:1.0;" x1="162" x2="162" y1="53.6719" y2="67.5078"/><line style="stroke:#181818;stroke-width:1.0;" x1="430" x2="430" y1="53.6719" y2="67.5078"/><rect fill="#E2E2F0" height="13.8359" style="stroke:none;stroke-width:1.0;" width="556" x="562" y="71.5078"/><line style="stroke:#181818;stroke-width:1.0;" x1="562" x2="1118" y1="71.5078" y2="71.5078"/><line style="stroke:#181818;stroke-width:1.0;" x1="562" x2="1118" y1="85.3438" y2="85.3438"/><line style="stroke:#181818;stroke-width:1.0;" x1="562" x2="562" y1="71.5078" y2="85.3438"/><line style="stroke:#181818;stroke-width:1.0;" x1="1118" x2="1118" y1="71.5078" y2="85.3438"/><rect fill="#E2E2F0" height="13.8359" style="stroke:none;stroke-width:1.0;" width="508" x="434" y="89.3438"/><line style="stroke:#181818;stroke-width:1.0;" x1="434" x2="942" y1="89.3438" y2="89.3438"/><line style="stroke:#181818;stroke-width:1.0;" x1="434" x2="942" y1="103.1797" y2="103.1797"/><line style="stroke:#181818;stroke-width:1.0;" x1="434" x2="434" y1="89.3438" y2="103.1797"/><line style="stroke:#181818;stroke-width:1.0;" x1="942" x2="942" y1="89.3438" y2="103.1797"/><rect fill="#E2E2F0" height="13.8359" style="stroke:none;stroke-width:1.0;" width="236" x="1122" y="107.1797"/><line style="stroke:#181818;stroke-width:1.0;" x1="1122" x2="1358" y1="107.1797" y2="107.1797"/><line style="stroke:#181818;stroke-width:1.0;" x1="1122" x2="1358" y1="121.0156" y2="121.0156"/><line style="stroke:#181818;stroke-width:1.0;" x1="1122" x2="1122" y1="107.1797" y2="121.0156"/><line style="stroke:#181818;stroke-width:1.0;" x1="1358" x2="1358" y1="107.1797" y2="121.0156"/><rect fill="#E2E2F0" height="13.8359" style="stroke:none;stroke-width:1.0;" width="236" x="1362" y="125.0156"/><line style="stroke:#181818;stroke-width:1.0;" x1="1362" x2="1598" y1="125.0156" y2="125.0156"/><line style="stroke:#181818;stroke-width:1.0;" x1="1362" x2="1598" y1="138.8516" y2="138.8516"/><line style="stroke:#181818;stroke-width:1.0;" x1="1362" x2="1362" y1="125.0156" y2="138.8516"/><line style="stroke:#181818;stroke-width:1.0;" x1="1598" x2="1598" y1="125.0156" y2="138.8516"/><text fill="#000000" font-family="sans-serif" font-size="11" lengthAdjust="spacing" textLength="145" x="6" y="29.4189">1 Türen und Fenster einbauen</text><text fill="#000000" font-family="sans-serif" font-size="11" lengthAdjust="spacing" textLength="164" x="166" y="47.2549">2 Kabel verlegen und anschließen</text><text fill="#000000" font-family="sans-serif" font-size="11" lengthAdjust="spacing" textLength="103" x="166" y="65.0908">3 Fußboden verlegen</text><text fill="#000000" font-family="sans-serif" font-size="11" lengthAdjust="spacing" textLength="118" x="566" y="82.9268">4 Lichtanlage installieren</text><text fill="#000000" font-family="sans-serif" font-size="11" lengthAdjust="spacing" textLength="105" x="438" y="100.7627">5 Schränke montieren</text><text fill="#000000" font-family="sans-serif" font-size="11" lengthAdjust="spacing" textLength="92" x="1126" y="118.5986">6 Geräte aufstellen</text><text fill="#000000" font-family="sans-serif" font-size="11" lengthAdjust="spacing" textLength="104" x="1366" y="136.4346">7 Geräte anschließen</text><line style="stroke:#C0C0C0;stroke-width:1.0;" x1="0" x2="0" y1="143.8516" y2="156.8516"/><line style="stroke:#C0C0C0;stroke-width:1.0;" x1="16" x2="16" y1="143.8516" y2="156.8516"/><line style="stroke:#C0C0C0;stroke-width:1.0;" x1="32" x2="32" y1="143.8516" y2="156.8516"/><line style="stroke:#C0C0C0;stroke-width:1.0;" x1="48" x2="48" y1="143.8516" y2="156.8516"/><line style="stroke:#C0C0C0;stroke-width:1.0;" x1="64" x2="64" y1="143.8516" y2="156.8516"/><line style="stroke:#C0C0C0;stroke-width:1.0;" x1="80" x2="80" y1="143.8516" y2="156.8516"/><line style="stroke:#C0C0C0;stroke-width:1.0;" x1="96" x2="96" y1="143.8516" y2="156.8516"/><line style="stroke:#C0C0C0;stroke-width:1.0;" x1="112" x2="112" y1="143.8516" y2="156.8516"/><line style="stroke:#C0C0C0;stroke-width:1.0;" x1="128" x2="128" y1="143.8516" y2="156.8516"/><line style="stroke:#C0C0C0;stroke-width:1.0;" x1="144" x2="144" y1="143.8516" y2="156.8516"/><line style="stroke:#C0C0C0;stroke-width:1.0;" x1="160" x2="160" y1="143.8516" y2="156.8516"/><line style="stroke:#C0C0C0;stroke-width:1.0;" x1="176" x2="176" y1="143.8516" y2="156.8516"/><line style="stroke:#C0C0C0;stroke-width:1.0;" x1="192" x2="192" y1="143.8516" y2="156.8516"/><line style="stroke:#C0C0C0;stroke-width:1.0;" x1="208" x2="208" y1="143.8516" y2="156.8516"/><line style="stroke:#C0C0C0;stroke-width:1.0;" x1="224" x2="224" y1="143.8516" y2="156.8516"/><line style="stroke:#C0C0C0;stroke-width:1.0;" x1="240" x2="240" y1="143.8516" y2="156.8516"/><line style="stroke:#C0C0C0;stroke-width:1.0;" x1="256" x2="256" y1="143.8516" y2="156.8516"/><line style="stroke:#C0C0C0;stroke-width:1.0;" x1="272" x2="272" y1="143.8516" y2="156.8516"/><line style="stroke:#C0C0C0;stroke-width:1.0;" x1="288" x2="288" y1="143.8516" y2="156.8516"/><line style="stroke:#C0C0C0;stroke-width:1.0;" x1="304" x2="304" y1="143.8516" y2="156.8516"/><line style="stroke:#C0C0C0;stroke-width:1.0;" x1="320" x2="320" y1="143.8516" y2="156.8516"/><line style="stroke:#C0C0C0;stroke-width:1.0;" x1="336" x2="336" y1="143.8516" y2="156.8516"/><line style="stroke:#C0C0C0;stroke-width:1.0;" x1="352" x2="352" y1="143.8516" y2="156.8516"/><line style="stroke:#C0C0C0;stroke-width:1.0;" x1="368" x2="368" y1="143.8516" y2="156.8516"/><line style="stroke:#C0C0C0;stroke-width:1.0;" x1="384" x2="384" y1="143.8516" y2="156.8516"/><line style="stroke:#C0C0C0;stroke-width:1.0;" x1="400" x2="400" y1="143.8516" y2="156.8516"/><line style="stroke:#C0C0C0;stroke-width:1.0;" x1="416" x2="416" y1="143.8516" y2="156.8516"/><line style="stroke:#C0C0C0;stroke-width:1.0;" x1="432" x2="432" y1="143.8516" y2="156.8516"/><line style="stroke:#C0C0C0;stroke-width:1.0;" x1="448" x2="448" y1="143.8516" y2="156.8516"/><line style="stroke:#C0C0C0;stroke-width:1.0;" x1="464" x2="464" y1="143.8516" y2="156.8516"/><line style="stroke:#C0C0C0;stroke-width:1.0;" x1="480" x2="480" y1="143.8516" y2="156.8516"/><line style="stroke:#C0C0C0;stroke-width:1.0;" x1="496" x2="496" y1="143.8516" y2="156.8516"/><line style="stroke:#C0C0C0;stroke-width:1.0;" x1="512" x2="512" y1="143.8516" y2="156.8516"/><line style="stroke:#C0C0C0;stroke-width:1.0;" x1="528" x2="528" y1="143.8516" y2="156.8516"/><line style="stroke:#C0C0C0;stroke-width:1.0;" x1="544" x2="544" y1="143.8516" y2="156.8516"/><line style="stroke:#C0C0C0;stroke-width:1.0;" x1="560" x2="560" y1="143.8516" y2="156.8516"/><line style="stroke:#C0C0C0;stroke-width:1.0;" x1="576" x2="576" y1="143.8516" y2="156.8516"/><line style="stroke:#C0C0C0;stroke-width:1.0;" x1="592" x2="592" y1="143.8516" y2="156.8516"/><line style="stroke:#C0C0C0;stroke-width:1.0;" x1="608" x2="608" y1="143.8516" y2="156.8516"/><line style="stroke:#C0C0C0;stroke-width:1.0;" x1="624" x2="624" y1="143.8516" y2="156.8516"/><line style="stroke:#C0C0C0;stroke-width:1.0;" x1="640" x2="640" y1="143.8516" y2="156.8516"/><line style="stroke:#C0C0C0;stroke-width:1.0;" x1="656" x2="656" y1="143.8516" y2="156.8516"/><line style="stroke:#C0C0C0;stroke-width:1.0;" x1="672" x2="672" y1="143.8516" y2="156.8516"/><line style="stroke:#C0C0C0;stroke-width:1.0;" x1="688" x2="688" y1="143.8516" y2="156.8516"/><line style="stroke:#C0C0C0;stroke-width:1.0;" x1="704" x2="704" y1="143.8516" y2="156.8516"/><line style="stroke:#C0C0C0;stroke-width:1.0;" x1="720" x2="720" y1="143.8516" y2="156.8516"/><line style="stroke:#C0C0C0;stroke-width:1.0;" x1="736" x2="736" y1="143.8516" y2="156.8516"/><line style="stroke:#C0C0C0;stroke-width:1.0;" x1="752" x2="752" y1="143.8516" y2="156.8516"/><line style="stroke:#C0C0C0;stroke-width:1.0;" x1="768" x2="768" y1="143.8516" y2="156.8516"/><line style="stroke:#C0C0C0;stroke-width:1.0;" x1="784" x2="784" y1="143.8516" y2="156.8516"/><line style="stroke:#C0C0C0;stroke-width:1.0;" x1="800" x2="800" y1="143.8516" y2="156.8516"/><line style="stroke:#C0C0C0;stroke-width:1.0;" x1="816" x2="816" y1="143.8516" y2="156.8516"/><line style="stroke:#C0C0C0;stroke-width:1.0;" x1="832" x2="832" y1="143.8516" y2="156.8516"/><line style="stroke:#C0C0C0;stroke-width:1.0;" x1="848" x2="848" y1="143.8516" y2="156.8516"/><line style="stroke:#C0C0C0;stroke-width:1.0;" x1="864" x2="864" y1="143.8516" y2="156.8516"/><line style="stroke:#C0C0C0;stroke-width:1.0;" x1="880" x2="880" y1="143.8516" y2="156.8516"/><line style="stroke:#C0C0C0;stroke-width:1.0;" x1="896" x2="896" y1="143.8516" y2="156.8516"/><line style="stroke:#C0C0C0;stroke-width:1.0;" x1="912" x2="912" y1="143.8516" y2="156.8516"/><line style="stroke:#C0C0C0;stroke-width:1.0;" x1="928" x2="928" y1="143.8516" y2="156.8516"/><line style="stroke:#C0C0C0;stroke-width:1.0;" x1="944" x2="944" y1="143.8516" y2="156.8516"/><line style="stroke:#C0C0C0;stroke-width:1.0;" x1="960" x2="960" y1="143.8516" y2="156.8516"/><line style="stroke:#C0C0C0;stroke-width:1.0;" x1="976" x2="976" y1="143.8516" y2="156.8516"/><line style="stroke:#C0C0C0;stroke-width:1.0;" x1="992" x2="992" y1="143.8516" y2="156.8516"/><line style="stroke:#C0C0C0;stroke-width:1.0;" x1="1008" x2="1008" y1="143.8516" y2="156.8516"/><line style="stroke:#C0C0C0;stroke-width:1.0;" x1="1024" x2="1024" y1="143.8516" y2="156.8516"/><line style="stroke:#C0C0C0;stroke-width:1.0;" x1="1040" x2="1040" y1="143.8516" y2="156.8516"/><line style="stroke:#C0C0C0;stroke-width:1.0;" x1="1056" x2="1056" y1="143.8516" y2="156.8516"/><line style="stroke:#C0C0C0;stroke-width:1.0;" x1="1072" x2="1072" y1="143.8516" y2="156.8516"/><line style="stroke:#C0C0C0;stroke-width:1.0;" x1="1088" x2="1088" y1="143.8516" y2="156.8516"/><line style="stroke:#C0C0C0;stroke-width:1.0;" x1="1104" x2="1104" y1="143.8516" y2="156.8516"/><line style="stroke:#C0C0C0;stroke-width:1.0;" x1="1120" x2="1120" y1="143.8516" y2="156.8516"/><line style="stroke:#C0C0C0;stroke-width:1.0;" x1="1136" x2="1136" y1="143.8516" y2="156.8516"/><line style="stroke:#C0C0C0;stroke-width:1.0;" x1="1152" x2="1152" y1="143.8516" y2="156.8516"/><line style="stroke:#C0C0C0;stroke-width:1.0;" x1="1168" x2="1168" y1="143.8516" y2="156.8516"/><line style="stroke:#C0C0C0;stroke-width:1.0;" x1="1184" x2="1184" y1="143.8516" y2="156.8516"/><line style="stroke:#C0C0C0;stroke-width:1.0;" x1="1200" x2="1200" y1="143.8516" y2="156.8516"/><line style="stroke:#C0C0C0;stroke-width:1.0;" x1="1216" x2="1216" y1="143.8516" y2="156.8516"/><line style="stroke:#C0C0C0;stroke-width:1.0;" x1="1232" x2="1232" y1="143.8516" y2="156.8516"/><line style="stroke:#C0C0C0;stroke-width:1.0;" x1="1248" x2="1248" y1="143.8516" y2="156.8516"/><line style="stroke:#C0C0C0;stroke-width:1.0;" x1="1264" x2="1264" y1="143.8516" y2="156.8516"/><line style="stroke:#C0C0C0;stroke-width:1.0;" x1="1280" x2="1280" y1="143.8516" y2="156.8516"/><line style="stroke:#C0C0C0;stroke-width:1.0;" x1="1296" x2="1296" y1="143.8516" y2="156.8516"/><line style="stroke:#C0C0C0;stroke-width:1.0;" x1="1312" x2="1312" y1="143.8516" y2="156.8516"/><line style="stroke:#C0C0C0;stroke-width:1.0;" x1="1328" x2="1328" y1="143.8516" y2="156.8516"/><line style="stroke:#C0C0C0;stroke-width:1.0;" x1="1344" x2="1344" y1="143.8516" y2="156.8516"/><line style="stroke:#C0C0C0;stroke-width:1.0;" x1="1360" x2="1360" y1="143.8516" y2="156.8516"/><line style="stroke:#C0C0C0;stroke-width:1.0;" x1="1376" x2="1376" y1="143.8516" y2="156.8516"/><line style="stroke:#C0C0C0;stroke-width:1.0;" x1="1392" x2="1392" y1="143.8516" y2="156.8516"/><line style="stroke:#C0C0C0;stroke-width:1.0;" x1="1408" x2="1408" y1="143.8516" y2="156.8516"/><line style="stroke:#C0C0C0;stroke-width:1.0;" x1="1424" x2="1424" y1="143.8516" y2="156.8516"/><line style="stroke:#C0C0C0;stroke-width:1.0;" x1="1440" x2="1440" y1="143.8516" y2="156.8516"/><line style="stroke:#C0C0C0;stroke-width:1.0;" x1="1456" x2="1456" y1="143.8516" y2="156.8516"/><line style="stroke:#C0C0C0;stroke-width:1.0;" x1="1472" x2="1472" y1="143.8516" y2="156.8516"/><line style="stroke:#C0C0C0;stroke-width:1.0;" x1="1488" x2="1488" y1="143.8516" y2="156.8516"/><line style="stroke:#C0C0C0;stroke-width:1.0;" x1="1504" x2="1504" y1="143.8516" y2="156.8516"/><line style="stroke:#C0C0C0;stroke-width:1.0;" x1="1520" x2="1520" y1="143.8516" y2="156.8516"/><line style="stroke:#C0C0C0;stroke-width:1.0;" x1="1536" x2="1536" y1="143.8516" y2="156.8516"/><line style="stroke:#C0C0C0;stroke-width:1.0;" x1="1552" x2="1552" y1="143.8516" y2="156.8516"/><line style="stroke:#C0C0C0;stroke-width:1.0;" x1="1568" x2="1568" y1="143.8516" y2="156.8516"/><line style="stroke:#C0C0C0;stroke-width:1.0;" x1="1584" x2="1584" y1="143.8516" y2="156.8516"/><line style="stroke:#C0C0C0;stroke-width:1.0;" x1="1600" x2="1600" y1="143.8516" y2="156.8516"/><text fill="#000000" font-family="Serif" font-size="10" lengthAdjust="spacing" textLength="5" x="5.5" y="154.3301">1</text><text fill="#000000" font-family="Serif" font-size="10" lengthAdjust="spacing" textLength="5" x="21.5" y="154.3301">2</text><text fill="#000000" font-family="Serif" font-size="10" lengthAdjust="spacing" textLength="5" x="37.5" y="154.3301">3</text><text fill="#000000" font-family="Serif" font-size="10" lengthAdjust="spacing" textLength="5" x="53.5" y="154.3301">4</text><text fill="#000000" font-family="Serif" font-size="10" lengthAdjust="spacing" textLength="5" x="69.5" y="154.3301">5</text><text fill="#000000" font-family="Serif" font-size="10" lengthAdjust="spacing" textLength="5" x="85.5" y="154.3301">6</text><text fill="#000000" font-family="Serif" font-size="10" lengthAdjust="spacing" textLength="5" x="101.5" y="154.3301">7</text><text fill="#000000" font-family="Serif" font-size="10" lengthAdjust="spacing" textLength="5" x="117.5" y="154.3301">8</text><text fill="#000000" font-family="Serif" font-size="10" lengthAdjust="spacing" textLength="5" x="133.5" y="154.3301">9</text><text fill="#000000" font-family="Serif" font-size="10" lengthAdjust="spacing" textLength="10" x="147" y="154.3301">10</text><text fill="#000000" font-family="Serif" font-size="10" lengthAdjust="spacing" textLength="10" x="163" y="154.3301">11</text><text fill="#000000" font-family="Serif" font-size="10" lengthAdjust="spacing" textLength="10" x="179" y="154.3301">12</text><text fill="#000000" font-family="Serif" font-size="10" lengthAdjust="spacing" textLength="10" x="195" y="154.3301">13</text><text fill="#000000" font-family="Serif" font-size="10" lengthAdjust="spacing" textLength="10" x="211" y="154.3301">14</text><text fill="#000000" font-family="Serif" font-size="10" lengthAdjust="spacing" textLength="10" x="227" y="154.3301">15</text><text fill="#000000" font-family="Serif" font-size="10" lengthAdjust="spacing" textLength="10" x="243" y="154.3301">16</text><text fill="#000000" font-family="Serif" font-size="10" lengthAdjust="spacing" textLength="10" x="259" y="154.3301">17</text><text fill="#000000" font-family="Serif" font-size="10" lengthAdjust="spacing" textLength="10" x="275" y="154.3301">18</text><text fill="#000000" font-family="Serif" font-size="10" lengthAdjust="spacing" textLength="10" x="291" y="154.3301">19</text><text fill="#000000" font-family="Serif" font-size="10" lengthAdjust="spacing" textLength="10" x="307" y="154.3301">20</text><text fill="#000000" font-family="Serif" font-size="10" lengthAdjust="spacing" textLength="10" x="323" y="154.3301">21</text><text fill="#000000" font-family="Serif" font-size="10" lengthAdjust="spacing" textLength="10" x="339" y="154.3301">22</text><text fill="#000000" font-family="Serif" font-size="10" lengthAdjust="spacing" textLength="10" x="355" y="154.3301">23</text><text fill="#000000" font-family="Serif" font-size="10" lengthAdjust="spacing" textLength="10" x="371" y="154.3301">24</text><text fill="#000000" font-family="Serif" font-size="10" lengthAdjust="spacing" textLength="10" x="387" y="154.3301">25</text><text fill="#000000" font-family="Serif" font-size="10" lengthAdjust="spacing" textLength="10" x="403" y="154.3301">26</text><text fill="#000000" font-family="Serif" font-size="10" lengthAdjust="spacing" textLength="10" x="419" y="154.3301">27</text><text fill="#000000" font-family="Serif" font-size="10" lengthAdjust="spacing" textLength="10" x="435" y="154.3301">28</text><text fill="#000000" font-family="Serif" font-size="10" lengthAdjust="spacing" textLength="10" x="451" y="154.3301">29</text><text fill="#000000" font-family="Serif" font-size="10" lengthAdjust="spacing" textLength="10" x="467" y="154.3301">30</text><text fill="#000000" font-family="Serif" font-size="10" lengthAdjust="spacing" textLength="10" x="483" y="154.3301">31</text><text fill="#000000" font-family="Serif" font-size="10" lengthAdjust="spacing" textLength="10" x="499" y="154.3301">32</text><text fill="#000000" font-family="Serif" font-size="10" lengthAdjust="spacing" textLength="10" x="515" y="154.3301">33</text><text fill="#000000" font-family="Serif" font-size="10" lengthAdjust="spacing" textLength="10" x="531" y="154.3301">34</text><text fill="#000000" font-family="Serif" font-size="10" lengthAdjust="spacing" textLength="10" x="547" y="154.3301">35</text><text fill="#000000" font-family="Serif" font-size="10" lengthAdjust="spacing" textLength="10" x="563" y="154.3301">36</text><text fill="#000000" font-family="Serif" font-size="10" lengthAdjust="spacing" textLength="10" x="579" y="154.3301">37</text><text fill="#000000" font-family="Serif" font-size="10" lengthAdjust="spacing" textLength="10" x="595" y="154.3301">38</text><text fill="#000000" font-family="Serif" font-size="10" lengthAdjust="spacing" textLength="10" x="611" y="154.3301">39</text><text fill="#000000" font-family="Serif" font-size="10" lengthAdjust="spacing" textLength="10" x="627" y="154.3301">40</text><text fill="#000000" font-family="Serif" font-size="10" lengthAdjust="spacing" textLength="10" x="643" y="154.3301">41</text><text fill="#000000" font-family="Serif" font-size="10" lengthAdjust="spacing" textLength="10" x="659" y="154.3301">42</text><text fill="#000000" font-family="Serif" font-size="10" lengthAdjust="spacing" textLength="10" x="675" y="154.3301">43</text><text fill="#000000" font-family="Serif" font-size="10" lengthAdjust="spacing" textLength="10" x="691" y="154.3301">44</text><text fill="#000000" font-family="Serif" font-size="10" lengthAdjust="spacing" textLength="10" x="707" y="154.3301">45</text><text fill="#000000" font-family="Serif" font-size="10" lengthAdjust="spacing" textLength="10" x="723" y="154.3301">46</text><text fill="#000000" font-family="Serif" font-size="10" lengthAdjust="spacing" textLength="10" x="739" y="154.3301">47</text><text fill="#000000" font-family="Serif" font-size="10" lengthAdjust="spacing" textLength="10" x="755" y="154.3301">48</text><text fill="#000000" font-family="Serif" font-size="10" lengthAdjust="spacing" textLength="10" x="771" y="154.3301">49</text><text fill="#000000" font-family="Serif" font-size="10" lengthAdjust="spacing" textLength="10" x="787" y="154.3301">50</text><text fill="#000000" font-family="Serif" font-size="10" lengthAdjust="spacing" textLength="10" x="803" y="154.3301">51</text><text fill="#000000" font-family="Serif" font-size="10" lengthAdjust="spacing" textLength="10" x="819" y="154.3301">52</text><text fill="#000000" font-family="Serif" font-size="10" lengthAdjust="spacing" textLength="10" x="835" y="154.3301">53</text><text fill="#000000" font-family="Serif" font-size="10" lengthAdjust="spacing" textLength="10" x="851" y="154.3301">54</text><text fill="#000000" font-family="Serif" font-size="10" lengthAdjust="spacing" textLength="10" x="867" y="154.3301">55</text><text fill="#000000" font-family="Serif" font-size="10" lengthAdjust="spacing" textLength="10" x="883" y="154.3301">56</text><text fill="#000000" font-family="Serif" font-size="10" lengthAdjust="spacing" textLength="10" x="899" y="154.3301">57</text><text fill="#000000" font-family="Serif" font-size="10" lengthAdjust="spacing" textLength="10" x="915" y="154.3301">58</text><text fill="#000000" font-family="Serif" font-size="10" lengthAdjust="spacing" textLength="10" x="931" y="154.3301">59</text><text fill="#000000" font-family="Serif" font-size="10" lengthAdjust="spacing" textLength="10" x="947" y="154.3301">60</text><text fill="#000000" font-family="Serif" font-size="10" lengthAdjust="spacing" textLength="10" x="963" y="154.3301">61</text><text fill="#000000" font-family="Serif" font-size="10" lengthAdjust="spacing" textLength="10" x="979" y="154.3301">62</text><text fill="#000000" font-family="Serif" font-size="10" lengthAdjust="spacing" textLength="10" x="995" y="154.3301">63</text><text fill="#000000" font-family="Serif" font-size="10" lengthAdjust="spacing" textLength="10" x="1011" y="154.3301">64</text><text fill="#000000" font-family="Serif" font-size="10" lengthAdjust="spacing" textLength="10" x="1027" y="154.3301">65</text><text fill="#000000" font-family="Serif" font-size="10" lengthAdjust="spacing" textLength="10" x="1043" y="154.3301">66</text><text fill="#000000" font-family="Serif" font-size="10" lengthAdjust="spacing" textLength="10" x="1059" y="154.3301">67</text><text fill="#000000" font-family="Serif" font-size="10" lengthAdjust="spacing" textLength="10" x="1075" y="154.3301">68</text><text fill="#000000" font-family="Serif" font-size="10" lengthAdjust="spacing" textLength="10" x="1091" y="154.3301">69</text><text fill="#000000" font-family="Serif" font-size="10" lengthAdjust="spacing" textLength="10" x="1107" y="154.3301">70</text><text fill="#000000" font-family="Serif" font-size="10" lengthAdjust="spacing" textLength="10" x="1123" y="154.3301">71</text><text fill="#000000" font-family="Serif" font-size="10" lengthAdjust="spacing" textLength="10" x="1139" y="154.3301">72</text><text fill="#000000" font-family="Serif" font-size="10" lengthAdjust="spacing" textLength="10" x="1155" y="154.3301">73</text><text fill="#000000" font-family="Serif" font-size="10" lengthAdjust="spacing" textLength="10" x="1171" y="154.3301">74</text><text fill="#000000" font-family="Serif" font-size="10" lengthAdjust="spacing" textLength="10" x="1187" y="154.3301">75</text><text fill="#000000" font-family="Serif" font-size="10" lengthAdjust="spacing" textLength="10" x="1203" y="154.3301">76</text><text fill="#000000" font-family="Serif" font-size="10" lengthAdjust="spacing" textLength="10" x="1219" y="154.3301">77</text><text fill="#000000" font-family="Serif" font-size="10" lengthAdjust="spacing" textLength="10" x="1235" y="154.3301">78</text><text fill="#000000" font-family="Serif" font-size="10" lengthAdjust="spacing" textLength="10" x="1251" y="154.3301">79</text><text fill="#000000" font-family="Serif" font-size="10" lengthAdjust="spacing" textLength="10" x="1267" y="154.3301">80</text><text fill="#000000" font-family="Serif" font-size="10" lengthAdjust="spacing" textLength="10" x="1283" y="154.3301">81</text><text fill="#000000" font-family="Serif" font-size="10" lengthAdjust="spacing" textLength="10" x="1299" y="154.3301">82</text><text fill="#000000" font-family="Serif" font-size="10" lengthAdjust="spacing" textLength="10" x="1315" y="154.3301">83</text><text fill="#000000" font-family="Serif" font-size="10" lengthAdjust="spacing" textLength="10" x="1331" y="154.3301">84</text><text fill="#000000" font-family="Serif" font-size="10" lengthAdjust="spacing" textLength="10" x="1347" y="154.3301">85</text><text fill="#000000" font-family="Serif" font-size="10" lengthAdjust="spacing" textLength="10" x="1363" y="154.3301">86</text><text fill="#000000" font-family="Serif" font-size="10" lengthAdjust="spacing" textLength="10" x="1379" y="154.3301">87</text><text fill="#000000" font-family="Serif" font-size="10" lengthAdjust="spacing" textLength="10" x="1395" y="154.3301">88</text><text fill="#000000" font-family="Serif" font-size="10" lengthAdjust="spacing" textLength="10" x="1411" y="154.3301">89</text><text fill="#000000" font-family="Serif" font-size="10" lengthAdjust="spacing" textLength="10" x="1427" y="154.3301">90</text><text fill="#000000" font-family="Serif" font-size="10" lengthAdjust="spacing" textLength="10" x="1443" y="154.3301">91</text><text fill="#000000" font-family="Serif" font-size="10" lengthAdjust="spacing" textLength="10" x="1459" y="154.3301">92</text><text fill="#000000" font-family="Serif" font-size="10" lengthAdjust="spacing" textLength="10" x="1475" y="154.3301">93</text><text fill="#000000" font-family="Serif" font-size="10" lengthAdjust="spacing" textLength="10" x="1491" y="154.3301">94</text><text fill="#000000" font-family="Serif" font-size="10" lengthAdjust="spacing" textLength="10" x="1507" y="154.3301">95</text><text fill="#000000" font-family="Serif" font-size="10" lengthAdjust="spacing" textLength="10" x="1523" y="154.3301">96</text><text fill="#000000" font-family="Serif" font-size="10" lengthAdjust="spacing" textLength="10" x="1539" y="154.3301">97</text><text fill="#000000" font-family="Serif" font-size="10" lengthAdjust="spacing" textLength="10" x="1555" y="154.3301">98</text><text fill="#000000" font-family="Serif" font-size="10" lengthAdjust="spacing" textLength="10" x="1571" y="154.3301">99</text><text fill="#000000" font-family="Serif" font-size="10" lengthAdjust="spacing" textLength="15" x="1584.5" y="154.3301">100</text><line style="stroke:#C0C0C0;stroke-width:1.0;" x1="0" x2="1600" y1="143.8516" y2="143.8516"/><!--MD5=[82fd952e7d2f71ccffe3bf8e1b276b72]
@startgantt
'' days = hours in this Example 
[1 Türen und Fenster einbauen] lasts 10 days 
[2 Kabel verlegen und anschließen] lasts 25 days 
[2 Kabel verlegen und anschließen] starts D+10 
[3 Fußboden verlegen] lasts 17 days 
[3 Fußboden verlegen] starts D+10
[4 Lichtanlage installieren] lasts 35 days 
[4 Lichtanlage installieren] starts D+35
[5 Schränke montieren] lasts 32 days 
[5 Schränke montieren] starts D+27
[6 Geräte aufstellen] lasts 15 days 
[6 Geräte aufstellen] starts D+70
[7 Geräte anschließen] lasts 15 days 
[7 Geräte anschließen] starts D+85
@endgantt

@startgantt
[1 Türen und Fenster einbauen] lasts 10 days 
[2 Kabel verlegen und anschließen] lasts 25 days 
[2 Kabel verlegen und anschließen] starts D+10 
[3 Fußboden verlegen] lasts 17 days 
[3 Fußboden verlegen] starts D+10
[4 Lichtanlage installieren] lasts 35 days 
[4 Lichtanlage installieren] starts D+35
[5 Schränke montieren] lasts 32 days 
[5 Schränke montieren] starts D+27
[6 Geräte aufstellen] lasts 15 days 
[6 Geräte aufstellen] starts D+70
[7 Geräte anschließen] lasts 15 days 
[7 Geräte anschließen] starts D+85
@endgantt

PlantUML version 1.2022.7(Mon Aug 22 19:01:30 CEST 2022)
(GPL source distribution)
Java Runtime: OpenJDK Runtime Environment
JVM: OpenJDK 64-Bit Server VM
Default Encoding: UTF-8
Language: de
Country: DE
--></g></svg>