<?xml version="1.0" encoding="us-ascii" standalone="no"?><svg xmlns="http://www.w3.org/2000/svg" xmlns:xlink="http://www.w3.org/1999/xlink" contentStyleType="text/css" height="318px" preserveAspectRatio="none" style="width:689px;height:318px;background:#FFFFFF;" version="1.1" viewBox="0 0 689 318" width="689px" zoomAndPan="magnify"><defs/><g><!--class machine--><g id="elem_machine"><rect codeLine="1" fill="#F1F1F1" height="80.9766" id="machine" rx="2.5" ry="2.5" style="stroke:#181818;stroke-width:0.5;" width="182" x="7" y="48.22"/><ellipse cx="64.75" cy="64.22" fill="#ADD1B2" rx="11" ry="11" style="stroke:#181818;stroke-width:1.0;"/><path d="M68.3643,70.72 L60.6445,70.72 L60.6445,58.3269 L68.3643,58.3269 L68.3643,60.4851 L63.0933,60.4851 L63.0933,63.158 L67.8662,63.158 L67.8662,65.3162 L63.0933,65.3162 L63.0933,68.5618 L68.3643,68.5618 Z " fill="#000000"/><text fill="#000000" font-family="sans-serif" font-size="14" lengthAdjust="spacing" textLength="58" x="85.25" y="69.511">machine</text><line style="stroke:#181818;stroke-width:0.5;" x1="8" x2="188" y1="80.22" y2="80.22"/><ellipse cx="18" cy="93.9641" fill="#000000" rx="3" ry="3" style="stroke:#000000;stroke-width:1.0;"/><text fill="#000000" font-family="sans-serif" font-size="14" lengthAdjust="spacing" textLength="156" x="27" y="97.7552">machineID primary key</text><line style="stroke:#181818;stroke-width:1.0;" x1="8" x2="188" y1="104.7083" y2="104.7083"/><ellipse cx="18" cy="118.4524" fill="#000000" rx="3" ry="3" style="stroke:#000000;stroke-width:1.0;"/><text fill="#000000" font-family="sans-serif" font-size="14" lengthAdjust="spacing" textLength="77" x="27" y="122.2434">description</text></g><!--class drive--><g id="elem_drive"><rect codeLine="7" fill="#F1F1F1" height="97.4648" id="drive" rx="2.5" ry="2.5" style="stroke:#181818;stroke-width:0.5;" width="214" x="224" y="39.97"/><ellipse cx="309.75" cy="55.97" fill="#ADD1B2" rx="11" ry="11" style="stroke:#181818;stroke-width:1.0;"/><path d="M313.3643,62.47 L305.6445,62.47 L305.6445,50.0769 L313.3643,50.0769 L313.3643,52.2351 L308.0933,52.2351 L308.0933,54.908 L312.8662,54.908 L312.8662,57.0662 L308.0933,57.0662 L308.0933,60.3118 L313.3643,60.3118 Z " fill="#000000"/><text fill="#000000" font-family="sans-serif" font-size="14" lengthAdjust="spacing" textLength="34" x="330.25" y="61.261">drive</text><line style="stroke:#181818;stroke-width:0.5;" x1="225" x2="437" y1="71.97" y2="71.97"/><ellipse cx="235" cy="85.7141" fill="#000000" rx="3" ry="3" style="stroke:#000000;stroke-width:1.0;"/><text fill="#000000" font-family="sans-serif" font-size="14" lengthAdjust="spacing" textLength="132" x="244" y="89.5052">driveID primary key</text><line style="stroke:#181818;stroke-width:1.0;" x1="225" x2="437" y1="96.4583" y2="96.4583"/><ellipse cx="235" cy="110.2024" fill="#000000" rx="3" ry="3" style="stroke:#000000;stroke-width:1.0;"/><text fill="#000000" font-family="sans-serif" font-size="14" lengthAdjust="spacing" textLength="153" x="244" y="113.9934">machineID foreign key</text><ellipse cx="235" cy="126.6907" fill="#000000" rx="3" ry="3" style="stroke:#000000;stroke-width:1.0;"/><text fill="#000000" font-family="sans-serif" font-size="14" lengthAdjust="spacing" textLength="188" x="244" y="130.4817">manufacturerID foreign key</text></g><!--class manufacturer--><g id="elem_manufacturer"><rect codeLine="14" fill="#F1F1F1" height="80.9766" id="manufacturer" rx="2.5" ry="2.5" style="stroke:#181818;stroke-width:0.5;" width="217" x="216.5" y="230.41"/><ellipse cx="274.25" cy="246.41" fill="#ADD1B2" rx="11" ry="11" style="stroke:#181818;stroke-width:1.0;"/><path d="M277.8643,252.91 L270.1445,252.91 L270.1445,240.5169 L277.8643,240.5169 L277.8643,242.6751 L272.5933,242.6751 L272.5933,245.348 L277.3662,245.348 L277.3662,247.5062 L272.5933,247.5062 L272.5933,250.7518 L277.8643,250.7518 Z " fill="#000000"/><text fill="#000000" font-family="sans-serif" font-size="14" lengthAdjust="spacing" textLength="93" x="294.75" y="251.701">manufacturer</text><line style="stroke:#181818;stroke-width:0.5;" x1="217.5" x2="432.5" y1="262.41" y2="262.41"/><ellipse cx="227.5" cy="276.1541" fill="#000000" rx="3" ry="3" style="stroke:#000000;stroke-width:1.0;"/><text fill="#000000" font-family="sans-serif" font-size="14" lengthAdjust="spacing" textLength="191" x="236.5" y="279.9452">manufacturerID primary key</text><line style="stroke:#181818;stroke-width:1.0;" x1="217.5" x2="432.5" y1="286.8983" y2="286.8983"/><ellipse cx="227.5" cy="300.6424" fill="#000000" rx="3" ry="3" style="stroke:#000000;stroke-width:1.0;"/><text fill="#000000" font-family="sans-serif" font-size="14" lengthAdjust="spacing" textLength="62" x="236.5" y="304.4334">company</text></g><!--class controller_type--><g id="elem_controller_type"><rect codeLine="20" fill="#F1F1F1" height="80.9766" id="controller_type" rx="2.5" ry="2.5" style="stroke:#181818;stroke-width:0.5;" width="214" x="468" y="230.41"/><ellipse cx="519.25" cy="246.41" fill="#ADD1B2" rx="11" ry="11" style="stroke:#181818;stroke-width:1.0;"/><path d="M522.8643,252.91 L515.1445,252.91 L515.1445,240.5169 L522.8643,240.5169 L522.8643,242.6751 L517.5933,242.6751 L517.5933,245.348 L522.3662,245.348 L522.3662,247.5062 L517.5933,247.5062 L517.5933,250.7518 L522.8643,250.7518 Z " fill="#000000"/><text fill="#000000" font-family="sans-serif" font-size="14" lengthAdjust="spacing" textLength="103" x="539.75" y="251.701">controller_type</text><line style="stroke:#181818;stroke-width:0.5;" x1="469" x2="681" y1="262.41" y2="262.41"/><ellipse cx="479" cy="276.1541" fill="#000000" rx="3" ry="3" style="stroke:#000000;stroke-width:1.0;"/><text fill="#000000" font-family="sans-serif" font-size="14" lengthAdjust="spacing" textLength="149" x="488" y="279.9452">ctrltypeID primary key</text><line style="stroke:#181818;stroke-width:1.0;" x1="469" x2="681" y1="286.8983" y2="286.8983"/><ellipse cx="479" cy="300.6424" fill="#000000" rx="3" ry="3" style="stroke:#000000;stroke-width:1.0;"/><text fill="#000000" font-family="sans-serif" font-size="14" lengthAdjust="spacing" textLength="188" x="488" y="304.4334">manufacturerID foreign key</text></g><!--class trace_data--><g id="elem_trace_data"><rect codeLine="26" fill="#F1F1F1" height="163.418" id="trace_data" rx="2.5" ry="2.5" style="stroke:#181818;stroke-width:0.5;" width="172" x="484" y="7"/><ellipse cx="530.25" cy="23" fill="#ADD1B2" rx="11" ry="11" style="stroke:#181818;stroke-width:1.0;"/><path d="M533.8643,29.5 L526.1445,29.5 L526.1445,17.1069 L533.8643,17.1069 L533.8643,19.2651 L528.5933,19.2651 L528.5933,21.938 L533.3662,21.938 L533.3662,24.0962 L528.5933,24.0962 L528.5933,27.3418 L533.8643,27.3418 Z " fill="#000000"/><text fill="#000000" font-family="sans-serif" font-size="14" lengthAdjust="spacing" textLength="71" x="550.75" y="28.291">trace_data</text><line style="stroke:#181818;stroke-width:0.5;" x1="485" x2="655" y1="39" y2="39"/><ellipse cx="495" cy="52.7441" fill="#000000" rx="3" ry="3" style="stroke:#000000;stroke-width:1.0;"/><text fill="#000000" font-family="sans-serif" font-size="14" lengthAdjust="spacing" textLength="132" x="504" y="56.5352">traceID primary key</text><line style="stroke:#181818;stroke-width:1.0;" x1="485" x2="655" y1="63.4883" y2="63.4883"/><ellipse cx="495" cy="77.2324" fill="#000000" rx="3" ry="3" style="stroke:#000000;stroke-width:1.0;"/><text fill="#000000" font-family="sans-serif" font-size="14" lengthAdjust="spacing" textLength="129" x="504" y="81.0234">driveID foreign key</text><ellipse cx="495" cy="93.7207" fill="#000000" rx="3" ry="3" style="stroke:#000000;stroke-width:1.0;"/><text fill="#000000" font-family="sans-serif" font-size="14" lengthAdjust="spacing" textLength="146" x="504" y="97.5117">ctrltypeID foreign key</text><ellipse cx="495" cy="110.209" fill="#000000" rx="3" ry="3" style="stroke:#000000;stroke-width:1.0;"/><text fill="#000000" font-family="sans-serif" font-size="14" lengthAdjust="spacing" textLength="72" x="504" y="114">timestamp</text><ellipse cx="495" cy="126.6973" fill="#000000" rx="3" ry="3" style="stroke:#000000;stroke-width:1.0;"/><text fill="#000000" font-family="sans-serif" font-size="14" lengthAdjust="spacing" textLength="56" x="504" y="130.4883">position</text><ellipse cx="495" cy="143.1855" fill="#000000" rx="3" ry="3" style="stroke:#000000;stroke-width:1.0;"/><text fill="#000000" font-family="sans-serif" font-size="14" lengthAdjust="spacing" textLength="111" x="504" y="146.9766">geschwindigkeit</text><ellipse cx="495" cy="159.6738" fill="#000000" rx="3" ry="3" style="stroke:#000000;stroke-width:1.0;"/><text fill="#000000" font-family="sans-serif" font-size="14" lengthAdjust="spacing" textLength="109" x="504" y="163.4648">stromaufnahme</text></g><!--link machine to drive--><g id="link_machine_drive"><path codeLine="37" d="M189.47,88.7 C200.9,88.7 212.32,88.7 223.75,88.7 " fill="none" id="machine-drive" style="stroke:#181818;stroke-width:1.0;"/><text fill="#000000" font-family="sans-serif" font-size="13" lengthAdjust="spacing" textLength="8" x="197.0778" y="85.6824">1</text><text fill="#000000" font-family="sans-serif" font-size="13" lengthAdjust="spacing" textLength="8" x="207.9277" y="85.7518">n</text></g><!--link drive to trace_data--><g id="link_drive_trace_data"><path codeLine="38" d="M438.36,88.7 C453.45,88.7 468.53,88.7 483.61,88.7 " fill="none" id="drive-trace_data" style="stroke:#181818;stroke-width:1.0;"/><text fill="#000000" font-family="sans-serif" font-size="13" lengthAdjust="spacing" textLength="8" x="445.842" y="85.7747">n</text><text fill="#000000" font-family="sans-serif" font-size="13" lengthAdjust="spacing" textLength="12" x="463.959" y="85.6594">m</text></g><!--link drive to manufacturer--><g id="link_drive_manufacturer"><path codeLine="39" d="M329.41,137.52 C328.45,166.4 327.23,202.78 326.33,230.09 " fill="none" id="drive-manufacturer" style="stroke:#181818;stroke-width:1.0;"/><text fill="#000000" font-family="sans-serif" font-size="13" lengthAdjust="spacing" textLength="8" x="320.6239" y="158.0299">n</text><text fill="#000000" font-family="sans-serif" font-size="13" lengthAdjust="spacing" textLength="8" x="317.8878" y="219.683">1</text></g><!--link manufacturer to controller_type--><g id="link_manufacturer_controller_type"><path codeLine="40" d="M433.89,270.9 C445.09,270.9 456.3,270.9 467.51,270.9 " fill="none" id="manufacturer-controller_type" style="stroke:#181818;stroke-width:1.0;"/><text fill="#000000" font-family="sans-serif" font-size="13" lengthAdjust="spacing" textLength="8" x="441.4748" y="267.975">1</text><text fill="#000000" font-family="sans-serif" font-size="13" lengthAdjust="spacing" textLength="8" x="452.0193" y="267.975">n</text></g><!--link trace_data to controller_type--><g id="link_trace_data_controller_type"><path codeLine="41" d="M572.25,170.84 C572.82,191.39 573.41,212.57 573.89,230.05 " fill="none" id="trace_data-controller_type" style="stroke:#181818;stroke-width:1.0;"/><text fill="#000000" font-family="sans-serif" font-size="13" lengthAdjust="spacing" textLength="8" x="564.0996" y="191.1244">n</text><text fill="#000000" font-family="sans-serif" font-size="13" lengthAdjust="spacing" textLength="12" x="560.7124" y="219.6364">m</text></g><!--SRC=[ZLBBRiGW3Bpp5OXZfHpw3xtqArQ8E8crmI37QHLL_VScBDd0lbGko3F3-0MGe2pQMpSWWVvHUZrlU_pveIEZjxpeCoo9QveiQM5oZ54maFfL2Yv6BUFNOPEYLoP7dYumO4zNoSRHt5adCmFN0bqaB5L5-TNJf-bTyD5IvUS22OTn13x94ezMdF2u0RMTlctdFoKBMmUdregzkYVevRJp92lBkyeUi88U9h4-vZY62RUTxNo_hd7uHcgnFmDAHgTr1jxE7Td1Gwfz_o7ctUX66p9vrUfoRS0AUrDqLr9DUbZEHrMREsnl5g2AQUrE_axr1m00]--></g></svg>