<?xml version="1.0" encoding="us-ascii" standalone="no"?><svg xmlns="http://www.w3.org/2000/svg" xmlns:xlink="http://www.w3.org/1999/xlink" contentStyleType="text/css" height="366px" preserveAspectRatio="none" style="width:757px;height:366px;background:#FFFFFF;" version="1.1" viewBox="0 0 757 366" width="757px" zoomAndPan="magnify"><defs/><g><rect fill="#F1F1F1" height="40.9766" rx="5" ry="5" style="stroke:#F1F1F1;stroke-width:1.5;" width="22" x="10" y="131.209"/><text fill="#000000" font-family="sans-serif" font-size="14" lengthAdjust="spacing" textLength="12" x="15" y="146.7441">&#160;&#160;&#160;</text><line style="stroke:#000000;stroke-width:1.0;" x1="10" x2="32" y1="151.6973" y2="151.6973"/><text fill="#000000" font-family="sans-serif" font-size="14" lengthAdjust="spacing" textLength="12" x="15" y="167.2324">&#160;&#160;&#160;</text><rect fill="none" height="40.9766" rx="5" ry="5" style="stroke:#000000;stroke-width:1.5;" width="22" x="10" y="131.209"/><rect fill="#F1F1F1" height="61.4648" rx="5" ry="5" style="stroke:#F1F1F1;stroke-width:1.5;" width="177" x="69" y="71.9766"/><text fill="#000000" font-family="sans-serif" font-size="14" font-weight="bold" lengthAdjust="spacing" textLength="74" x="74" y="87.5117">mrbs_area</text><text fill="#000000" font-family="sans-serif" font-size="14" lengthAdjust="spacing" textLength="75" x="166" y="87.5117">Heidelberg</text><line style="stroke:#000000;stroke-width:1.0;" x1="161" x2="161" y1="71.9766" y2="92.4648"/><line style="stroke:#000000;stroke-width:1.0;" x1="69" x2="246" y1="92.4648" y2="92.4648"/><text fill="#000000" font-family="sans-serif" font-size="14" font-weight="bold" lengthAdjust="spacing" textLength="14" x="74" y="108">id</text><text fill="#000000" font-family="sans-serif" font-size="14" lengthAdjust="spacing" textLength="9" x="166" y="108">1</text><line style="stroke:#000000;stroke-width:1.0;" x1="161" x2="161" y1="92.4648" y2="112.9531"/><line style="stroke:#000000;stroke-width:1.0;" x1="69" x2="246" y1="112.9531" y2="112.9531"/><text fill="#000000" font-family="sans-serif" font-size="14" font-weight="bold" lengthAdjust="spacing" textLength="82" x="74" y="128.4883">mrbs_room</text><text fill="#000000" font-family="sans-serif" font-size="14" lengthAdjust="spacing" textLength="12" x="166" y="128.4883">&#160;&#160;&#160;</text><line style="stroke:#000000;stroke-width:1.0;" x1="161" x2="161" y1="112.9531" y2="133.4414"/><rect fill="none" height="61.4648" rx="5" ry="5" style="stroke:#000000;stroke-width:1.5;" width="177" x="69" y="71.9766"/><rect fill="#F1F1F1" height="143.418" rx="5" ry="5" style="stroke:#F1F1F1;stroke-width:1.5;" width="195" x="283" y="10"/><text fill="#000000" font-family="sans-serif" font-size="14" font-weight="bold" lengthAdjust="spacing" textLength="14" x="288" y="25.5352">id</text><text fill="#000000" font-family="sans-serif" font-size="14" lengthAdjust="spacing" textLength="9" x="425" y="25.5352">8</text><line style="stroke:#000000;stroke-width:1.0;" x1="420" x2="420" y1="10" y2="30.4883"/><line style="stroke:#000000;stroke-width:1.0;" x1="283" x2="478" y1="30.4883" y2="30.4883"/><text fill="#000000" font-family="sans-serif" font-size="14" font-weight="bold" lengthAdjust="spacing" textLength="84" x="288" y="46.0234">room_name</text><text fill="#000000" font-family="sans-serif" font-size="14" lengthAdjust="spacing" textLength="48" x="425" y="46.0234">S2.109</text><line style="stroke:#000000;stroke-width:1.0;" x1="420" x2="420" y1="30.4883" y2="50.9766"/><line style="stroke:#000000;stroke-width:1.0;" x1="283" x2="478" y1="50.9766" y2="50.9766"/><text fill="#000000" font-family="sans-serif" font-size="14" font-weight="bold" lengthAdjust="spacing" textLength="81" x="288" y="66.5117">description</text><text fill="#000000" font-family="sans-serif" font-size="14" lengthAdjust="spacing" textLength="32" x="425" y="66.5117">B&#252;ro</text><line style="stroke:#000000;stroke-width:1.0;" x1="420" x2="420" y1="50.9766" y2="71.4648"/><line style="stroke:#000000;stroke-width:1.0;" x1="283" x2="478" y1="71.4648" y2="71.4648"/><text fill="#000000" font-family="sans-serif" font-size="14" font-weight="bold" lengthAdjust="spacing" textLength="58" x="288" y="87">capacity</text><text fill="#000000" font-family="sans-serif" font-size="14" lengthAdjust="spacing" textLength="9" x="425" y="87">2</text><line style="stroke:#000000;stroke-width:1.0;" x1="420" x2="420" y1="71.4648" y2="91.9531"/><line style="stroke:#000000;stroke-width:1.0;" x1="283" x2="478" y1="91.9531" y2="91.9531"/><text fill="#000000" font-family="sans-serif" font-size="14" font-weight="bold" lengthAdjust="spacing" textLength="58" x="288" y="107.4883">entry_id</text><text fill="#000000" font-family="sans-serif" font-size="14" lengthAdjust="spacing" textLength="45" x="425" y="107.4883">19828</text><line style="stroke:#000000;stroke-width:1.0;" x1="420" x2="420" y1="91.9531" y2="112.4414"/><line style="stroke:#000000;stroke-width:1.0;" x1="283" x2="478" y1="112.4414" y2="112.4414"/><text fill="#000000" font-family="sans-serif" font-size="14" font-weight="bold" lengthAdjust="spacing" textLength="127" x="288" y="127.9766">registration_limit</text><text fill="#000000" font-family="sans-serif" font-size="14" lengthAdjust="spacing" textLength="9" x="425" y="127.9766">2</text><line style="stroke:#000000;stroke-width:1.0;" x1="420" x2="420" y1="112.4414" y2="132.9297"/><line style="stroke:#000000;stroke-width:1.0;" x1="283" x2="478" y1="132.9297" y2="132.9297"/><text fill="#000000" font-family="sans-serif" font-size="14" font-weight="bold" lengthAdjust="spacing" textLength="86" x="288" y="148.4648">participants</text><text fill="#000000" font-family="sans-serif" font-size="14" lengthAdjust="spacing" textLength="12" x="425" y="148.4648">&#160;&#160;&#160;</text><line style="stroke:#000000;stroke-width:1.0;" x1="420" x2="420" y1="132.9297" y2="153.418"/><rect fill="none" height="143.418" rx="5" ry="5" style="stroke:#000000;stroke-width:1.5;" width="195" x="283" y="10"/><rect fill="#F1F1F1" height="40.9766" rx="5" ry="5" style="stroke:#F1F1F1;stroke-width:1.5;" width="22" x="515" y="122.209"/><text fill="#000000" font-family="sans-serif" font-size="14" lengthAdjust="spacing" textLength="12" x="520" y="137.7441">&#160;&#160;&#160;</text><line style="stroke:#000000;stroke-width:1.0;" x1="515" x2="537" y1="142.6973" y2="142.6973"/><text fill="#000000" font-family="sans-serif" font-size="14" lengthAdjust="spacing" textLength="12" x="520" y="158.2324">&#160;&#160;&#160;</text><rect fill="none" height="40.9766" rx="5" ry="5" style="stroke:#000000;stroke-width:1.5;" width="22" x="515" y="122.209"/><rect fill="#F1F1F1" height="40.9766" rx="5" ry="5" style="stroke:#F1F1F1;stroke-width:1.5;" width="145" x="587" y="93.209"/><text fill="#000000" font-family="sans-serif" font-size="14" font-weight="bold" lengthAdjust="spacing" textLength="39" x="592" y="108.7441">name</text><text fill="#000000" font-family="sans-serif" font-size="14" lengthAdjust="spacing" textLength="86" x="641" y="108.7441">erwin.m&#252;ller</text><line style="stroke:#000000;stroke-width:1.0;" x1="636" x2="636" y1="93.209" y2="113.6973"/><line style="stroke:#000000;stroke-width:1.0;" x1="587" x2="732" y1="113.6973" y2="113.6973"/><text fill="#000000" font-family="sans-serif" font-size="14" font-weight="bold" lengthAdjust="spacing" textLength="14" x="592" y="129.2324">id</text><text fill="#000000" font-family="sans-serif" font-size="14" lengthAdjust="spacing" textLength="27" x="641" y="129.2324">111</text><line style="stroke:#000000;stroke-width:1.0;" x1="636" x2="636" y1="113.6973" y2="134.1855"/><rect fill="none" height="40.9766" rx="5" ry="5" style="stroke:#000000;stroke-width:1.5;" width="145" x="587" y="93.209"/><rect fill="#F1F1F1" height="40.9766" rx="5" ry="5" style="stroke:#F1F1F1;stroke-width:1.5;" width="171" x="574" y="152.209"/><text fill="#000000" font-family="sans-serif" font-size="14" font-weight="bold" lengthAdjust="spacing" textLength="39" x="579" y="167.7441">name</text><text fill="#000000" font-family="sans-serif" font-size="14" lengthAdjust="spacing" textLength="112" x="628" y="167.7441">max.musterman</text><line style="stroke:#000000;stroke-width:1.0;" x1="623" x2="623" y1="152.209" y2="172.6973"/><line style="stroke:#000000;stroke-width:1.0;" x1="574" x2="745" y1="172.6973" y2="172.6973"/><text fill="#000000" font-family="sans-serif" font-size="14" font-weight="bold" lengthAdjust="spacing" textLength="14" x="579" y="188.2324">id</text><text fill="#000000" font-family="sans-serif" font-size="14" lengthAdjust="spacing" textLength="27" x="628" y="188.2324">110</text><line style="stroke:#000000;stroke-width:1.0;" x1="623" x2="623" y1="172.6973" y2="193.1855"/><rect fill="none" height="40.9766" rx="5" ry="5" style="stroke:#000000;stroke-width:1.5;" width="171" x="574" y="152.209"/><rect fill="#F1F1F1" height="61.4648" rx="5" ry="5" style="stroke:#F1F1F1;stroke-width:1.5;" width="174" x="70.5" y="170.9766"/><text fill="#000000" font-family="sans-serif" font-size="14" font-weight="bold" lengthAdjust="spacing" textLength="74" x="75.5" y="186.5117">mrbs_area</text><text fill="#000000" font-family="sans-serif" font-size="14" lengthAdjust="spacing" textLength="72" x="167.5" y="186.5117">Mannheim</text><line style="stroke:#000000;stroke-width:1.0;" x1="162.5" x2="162.5" y1="170.9766" y2="191.4648"/><line style="stroke:#000000;stroke-width:1.0;" x1="70.5" x2="244.5" y1="191.4648" y2="191.4648"/><text fill="#000000" font-family="sans-serif" font-size="14" font-weight="bold" lengthAdjust="spacing" textLength="14" x="75.5" y="207">id</text><text fill="#000000" font-family="sans-serif" font-size="14" lengthAdjust="spacing" textLength="9" x="167.5" y="207">1</text><line style="stroke:#000000;stroke-width:1.0;" x1="162.5" x2="162.5" y1="191.4648" y2="211.9531"/><line style="stroke:#000000;stroke-width:1.0;" x1="70.5" x2="244.5" y1="211.9531" y2="211.9531"/><text fill="#000000" font-family="sans-serif" font-size="14" font-weight="bold" lengthAdjust="spacing" textLength="82" x="75.5" y="227.4883">mrbs_room</text><text fill="#000000" font-family="sans-serif" font-size="14" lengthAdjust="spacing" textLength="12" x="167.5" y="227.4883">&#160;&#160;&#160;</text><line style="stroke:#000000;stroke-width:1.0;" x1="162.5" x2="162.5" y1="211.9531" y2="232.4414"/><rect fill="none" height="61.4648" rx="5" ry="5" style="stroke:#000000;stroke-width:1.5;" width="174" x="70.5" y="170.9766"/><rect fill="#F1F1F1" height="143.418" rx="5" ry="5" style="stroke:#F1F1F1;stroke-width:1.5;" width="192" x="284.5" y="171"/><text fill="#000000" font-family="sans-serif" font-size="14" font-weight="bold" lengthAdjust="spacing" textLength="14" x="289.5" y="186.5352">id</text><text fill="#000000" font-family="sans-serif" font-size="14" lengthAdjust="spacing" textLength="18" x="426.5" y="186.5352">12</text><line style="stroke:#000000;stroke-width:1.0;" x1="421.5" x2="421.5" y1="171" y2="191.4883"/><line style="stroke:#000000;stroke-width:1.0;" x1="284.5" x2="476.5" y1="191.4883" y2="191.4883"/><text fill="#000000" font-family="sans-serif" font-size="14" font-weight="bold" lengthAdjust="spacing" textLength="84" x="289.5" y="207.0234">room_name</text><text fill="#000000" font-family="sans-serif" font-size="14" lengthAdjust="spacing" textLength="27" x="426.5" y="207.0234">041</text><line style="stroke:#000000;stroke-width:1.0;" x1="421.5" x2="421.5" y1="191.4883" y2="211.9766"/><line style="stroke:#000000;stroke-width:1.0;" x1="284.5" x2="476.5" y1="211.9766" y2="211.9766"/><text fill="#000000" font-family="sans-serif" font-size="14" font-weight="bold" lengthAdjust="spacing" textLength="81" x="289.5" y="227.5117">description</text><text fill="#000000" font-family="sans-serif" font-size="14" lengthAdjust="spacing" textLength="32" x="426.5" y="227.5117">B&#252;ro</text><line style="stroke:#000000;stroke-width:1.0;" x1="421.5" x2="421.5" y1="211.9766" y2="232.4648"/><line style="stroke:#000000;stroke-width:1.0;" x1="284.5" x2="476.5" y1="232.4648" y2="232.4648"/><text fill="#000000" font-family="sans-serif" font-size="14" font-weight="bold" lengthAdjust="spacing" textLength="58" x="289.5" y="248">capacity</text><text fill="#000000" font-family="sans-serif" font-size="14" lengthAdjust="spacing" textLength="9" x="426.5" y="248">3</text><line style="stroke:#000000;stroke-width:1.0;" x1="421.5" x2="421.5" y1="232.4648" y2="252.9531"/><line style="stroke:#000000;stroke-width:1.0;" x1="284.5" x2="476.5" y1="252.9531" y2="252.9531"/><text fill="#000000" font-family="sans-serif" font-size="14" font-weight="bold" lengthAdjust="spacing" textLength="58" x="289.5" y="268.4883">entry_id</text><text fill="#000000" font-family="sans-serif" font-size="14" lengthAdjust="spacing" textLength="45" x="426.5" y="268.4883">19827</text><line style="stroke:#000000;stroke-width:1.0;" x1="421.5" x2="421.5" y1="252.9531" y2="273.4414"/><line style="stroke:#000000;stroke-width:1.0;" x1="284.5" x2="476.5" y1="273.4414" y2="273.4414"/><text fill="#000000" font-family="sans-serif" font-size="14" font-weight="bold" lengthAdjust="spacing" textLength="127" x="289.5" y="288.9766">registration_limit</text><text fill="#000000" font-family="sans-serif" font-size="14" lengthAdjust="spacing" textLength="9" x="426.5" y="288.9766">3</text><line style="stroke:#000000;stroke-width:1.0;" x1="421.5" x2="421.5" y1="273.4414" y2="293.9297"/><line style="stroke:#000000;stroke-width:1.0;" x1="284.5" x2="476.5" y1="293.9297" y2="293.9297"/><text fill="#000000" font-family="sans-serif" font-size="14" font-weight="bold" lengthAdjust="spacing" textLength="86" x="289.5" y="309.4648">participants</text><text fill="#000000" font-family="sans-serif" font-size="14" lengthAdjust="spacing" textLength="12" x="426.5" y="309.4648">&#160;&#160;&#160;</text><line style="stroke:#000000;stroke-width:1.0;" x1="421.5" x2="421.5" y1="293.9297" y2="314.418"/><rect fill="none" height="143.418" rx="5" ry="5" style="stroke:#000000;stroke-width:1.5;" width="192" x="284.5" y="171"/><rect fill="#F1F1F1" height="40.9766" rx="5" ry="5" style="stroke:#F1F1F1;stroke-width:1.5;" width="22" x="515" y="283.209"/><text fill="#000000" font-family="sans-serif" font-size="14" lengthAdjust="spacing" textLength="12" x="520" y="298.7441">&#160;&#160;&#160;</text><line style="stroke:#000000;stroke-width:1.0;" x1="515" x2="537" y1="303.6973" y2="303.6973"/><text fill="#000000" font-family="sans-serif" font-size="14" lengthAdjust="spacing" textLength="12" x="520" y="319.2324">&#160;&#160;&#160;</text><rect fill="none" height="40.9766" rx="5" ry="5" style="stroke:#000000;stroke-width:1.5;" width="22" x="515" y="283.209"/><rect fill="#F1F1F1" height="40.9766" rx="5" ry="5" style="stroke:#F1F1F1;stroke-width:1.5;" width="145" x="587" y="254.209"/><text fill="#000000" font-family="sans-serif" font-size="14" font-weight="bold" lengthAdjust="spacing" textLength="39" x="592" y="269.7441">name</text><text fill="#000000" font-family="sans-serif" font-size="14" lengthAdjust="spacing" textLength="86" x="641" y="269.7441">erwin.m&#252;ller</text><line style="stroke:#000000;stroke-width:1.0;" x1="636" x2="636" y1="254.209" y2="274.6973"/><line style="stroke:#000000;stroke-width:1.0;" x1="587" x2="732" y1="274.6973" y2="274.6973"/><text fill="#000000" font-family="sans-serif" font-size="14" font-weight="bold" lengthAdjust="spacing" textLength="14" x="592" y="290.2324">id</text><text fill="#000000" font-family="sans-serif" font-size="14" lengthAdjust="spacing" textLength="18" x="641" y="290.2324">11</text><line style="stroke:#000000;stroke-width:1.0;" x1="636" x2="636" y1="274.6973" y2="295.1855"/><rect fill="none" height="40.9766" rx="5" ry="5" style="stroke:#000000;stroke-width:1.5;" width="145" x="587" y="254.209"/><rect fill="#F1F1F1" height="40.9766" rx="5" ry="5" style="stroke:#F1F1F1;stroke-width:1.5;" width="171" x="574" y="313.209"/><text fill="#000000" font-family="sans-serif" font-size="14" font-weight="bold" lengthAdjust="spacing" textLength="39" x="579" y="328.7441">name</text><text fill="#000000" font-family="sans-serif" font-size="14" lengthAdjust="spacing" textLength="112" x="628" y="328.7441">max.musterman</text><line style="stroke:#000000;stroke-width:1.0;" x1="623" x2="623" y1="313.209" y2="333.6973"/><line style="stroke:#000000;stroke-width:1.0;" x1="574" x2="745" y1="333.6973" y2="333.6973"/><text fill="#000000" font-family="sans-serif" font-size="14" font-weight="bold" lengthAdjust="spacing" textLength="14" x="579" y="349.2324">id</text><text fill="#000000" font-family="sans-serif" font-size="14" lengthAdjust="spacing" textLength="18" x="628" y="349.2324">10</text><line style="stroke:#000000;stroke-width:1.0;" x1="623" x2="623" y1="333.6973" y2="354.1855"/><rect fill="none" height="40.9766" rx="5" ry="5" style="stroke:#000000;stroke-width:1.5;" width="171" x="574" y="313.209"/><path d="M525,132.709 L538,132.709 C551.5461,132.709 565.843,131.5325 579.6783,129.765 " fill="none" style="stroke:#000000;stroke-width:1.0;stroke-dasharray:3.0,3.0;"/><path d="M580.094,132.8174 L581.9677,129.4533 L579.2627,126.7125 L587.3095,128.726 L580.094,132.8174 " fill="#000000" style="stroke:#000000;stroke-width:1.0;"/><ellipse cx="525" cy="132.709" fill="#000000" rx="3" ry="3" style="stroke:#000000;stroke-width:1.0;"/><path d="M525,152.709 L538,152.709 C547.3244,152.709 556.9995,153.2943 566.6325,154.2646 " fill="none" style="stroke:#000000;stroke-width:1.0;stroke-dasharray:3.0,3.0;"/><path d="M566.2897,157.3481 L568.9452,154.5216 L566.9752,151.181 L574.3414,155.1215 L566.2897,157.3481 " fill="#000000" style="stroke:#000000;stroke-width:1.0;"/><ellipse cx="525" cy="152.709" fill="#000000" rx="3" ry="3" style="stroke:#000000;stroke-width:1.0;"/><path d="M466,142.709 L479,142.709 C488.4213,142.709 498.9164,142.709 507.5483,142.709 " fill="none" style="stroke:#000000;stroke-width:1.0;stroke-dasharray:3.0,3.0;"/><path d="M507.5483,145.7527 L509.8311,142.709 L507.5483,139.6653 L515.1575,142.709 L507.5483,145.7527 " fill="#000000" style="stroke:#000000;stroke-width:1.0;"/><ellipse cx="466" cy="142.709" fill="#000000" rx="3" ry="3" style="stroke:#000000;stroke-width:1.0;"/><path d="M234,122.709 L247,122.709 C256.531,122.709 266.2825,121.7356 275.9602,120.0887 " fill="none" style="stroke:#000000;stroke-width:1.0;stroke-dasharray:3.0,3.0;"/><path d="M276.5145,123.0413 L278.1747,119.673 L275.406,117.1362 L283.3416,118.7031 L276.5145,123.0413 " fill="#000000" style="stroke:#000000;stroke-width:1.0;"/><ellipse cx="234" cy="122.709" fill="#000000" rx="3" ry="3" style="stroke:#000000;stroke-width:1.0;"/><path d="M20,141.709 L33,141.709 C47.5093,141.709 62.5518,139.2491 76.9446,135.5649 " fill="none" style="stroke:#000000;stroke-width:1.0;stroke-dasharray:3.0,3.0;"/><path d="M77.7573,138.5494 L79.1829,134.9555 L76.132,132.5805 L84.4057,133.5333 L77.7573,138.5494 " fill="#000000" style="stroke:#000000;stroke-width:1.0;"/><ellipse cx="20" cy="141.709" fill="#000000" rx="3" ry="3" style="stroke:#000000;stroke-width:1.0;"/><path d="M525,293.709 L538,293.709 C551.5461,293.709 565.843,292.5325 579.6783,290.765 " fill="none" style="stroke:#000000;stroke-width:1.0;stroke-dasharray:3.0,3.0;"/><path d="M580.094,293.8174 L581.9677,290.4533 L579.2627,287.7125 L587.3095,289.726 L580.094,293.8174 " fill="#000000" style="stroke:#000000;stroke-width:1.0;"/><ellipse cx="525" cy="293.709" fill="#000000" rx="3" ry="3" style="stroke:#000000;stroke-width:1.0;"/><path d="M525,313.709 L538,313.709 C547.3244,313.709 556.9995,314.2943 566.6325,315.2646 " fill="none" style="stroke:#000000;stroke-width:1.0;stroke-dasharray:3.0,3.0;"/><path d="M566.2897,318.3481 L568.9452,315.5216 L566.9752,312.181 L574.3414,316.1215 L566.2897,318.3481 " fill="#000000" style="stroke:#000000;stroke-width:1.0;"/><ellipse cx="525" cy="313.709" fill="#000000" rx="3" ry="3" style="stroke:#000000;stroke-width:1.0;"/><path d="M465,303.709 L478,303.709 C487.8494,303.709 498.8477,303.709 507.7789,303.709 " fill="none" style="stroke:#000000;stroke-width:1.0;stroke-dasharray:3.0,3.0;"/><path d="M507.7789,306.7205 L510.0375,303.709 L507.7789,300.6975 L515.3076,303.709 L507.7789,306.7205 " fill="#000000" style="stroke:#000000;stroke-width:1.0;"/><ellipse cx="465" cy="303.709" fill="#000000" rx="3" ry="3" style="stroke:#000000;stroke-width:1.0;"/><path d="M233,221.709 L246,221.709 C256.1375,221.709 266.655,222.3029 277.1379,223.2909 " fill="none" style="stroke:#000000;stroke-width:1.0;stroke-dasharray:3.0,3.0;"/><path d="M276.8234,226.3394 L279.4243,223.5268 L277.4524,220.2424 L284.7591,224.0771 L276.8234,226.3394 " fill="#000000" style="stroke:#000000;stroke-width:1.0;"/><ellipse cx="233" cy="221.709" fill="#000000" rx="3" ry="3" style="stroke:#000000;stroke-width:1.0;"/><path d="M20,161.709 L33,161.709 C48.4541,161.709 64.4912,164.5579 79.6995,168.7351 " fill="none" style="stroke:#000000;stroke-width:1.0;stroke-dasharray:3.0,3.0;"/><path d="M78.8392,171.6923 L81.9174,169.3803 L80.5597,165.7779 L87.0925,170.8858 L78.8392,171.6923 " fill="#000000" style="stroke:#000000;stroke-width:1.0;"/><ellipse cx="20" cy="161.709" fill="#000000" rx="3" ry="3" style="stroke:#000000;stroke-width:1.0;"/><!--SRC=[hLF1JkCm4BtxAqOvWHIY92rGSaBGigjkAz1Ik21KkSaG1iLsP3jTAiIVSUF7rYxRxROB1IthWoNFlFSyVay-D9PhUsUKP5SCt7gOxtu5Ga_Cc6laGGR1LwG2gmdgCWYN42fSBmdNE5efuUfBgIMs4wuMFNGikK1_ntaQ9V51i0OfqEIQQajAUj3HyvDMwvYSrpmdEtE0TAs5qkhP-6NGWqxwrm1Oah6QU_bnHOBiAngryuXoghcq9iYkLffpquB54r3_81c9vwUgGXs42uUIv37Sm1ByFXADiQW5bt-muiSLqlNlqqlzb-PRaGsvbBT8ubE19UccnE9syicuMflZslz8NAt_7jU_fFLUM7vZr-mGPJ7_R-oiSWDU30SmHMtSUo29qZXjHwsjqMq39pY1P1VIE6l7MRmBnxqH-FOss_foDfYcO5IZSuJ2-q6JnZkopVfyok5x8oq9pE2qHjdlVbiKe2Udf9KKpcJMlnmk0NljdIEoS8xQpGANGzR56zvKrZ5oLP0iCxWOdUnqs83Bik6bqowG7Ql6fvL1j_SJ]--></g></svg>