<?xml version="1.0" encoding="UTF-8" standalone="no"?><svg xmlns="http://www.w3.org/2000/svg" xmlns:xlink="http://www.w3.org/1999/xlink" contentStyleType="text/css" height="157px" preserveAspectRatio="none" style="width:166px;height:157px;background:#FFFFFF;" version="1.1" viewBox="0 0 166 157" width="166px" zoomAndPan="magnify"><defs/><g><!--MD5=[0e52e9688cc90300983c8cb354940feb]
class Installation--><g id="elem_Installation"><rect codeLine="1" fill="#F1F1F1" height="136.0469" id="Installation" rx="2.5" ry="2.5" style="stroke:#181818;stroke-width:0.5;" width="145" x="7" y="7"/><ellipse cx="42.7" cy="23" fill="#ADD1B2" rx="11" ry="11" style="stroke:#181818;stroke-width:1.0;"/><path d="M45.4656,18.875 Q45.6219,18.6563 45.8094,18.5469 Q45.9969,18.4375 46.2156,18.4375 Q46.5906,18.4375 46.825,18.7031 Q47.0594,18.9531 47.0594,19.5625 L47.0594,21.0156 Q47.0594,21.625 46.825,21.8906 Q46.5906,22.1563 46.2156,22.1563 Q45.8719,22.1563 45.6688,21.9531 Q45.4656,21.7656 45.3563,21.25 Q45.3094,20.8906 45.1219,20.7031 Q44.7938,20.3281 44.1844,20.1094 Q43.575,19.8906 42.95,19.8906 Q42.1844,19.8906 41.5438,20.2188 Q40.9188,20.5469 40.4188,21.2969 Q39.9344,22.0469 39.9344,23.0781 L39.9344,24.1719 Q39.9344,25.4063 40.825,26.2344 Q41.7156,27.0469 43.3094,27.0469 Q44.2469,27.0469 44.9031,26.7969 Q45.2938,26.6406 45.7156,26.2031 Q45.9813,25.9375 46.1219,25.8594 Q46.2781,25.7813 46.4813,25.7813 Q46.8094,25.7813 47.0594,26.0469 Q47.325,26.2969 47.325,26.6406 Q47.325,26.9844 46.9813,27.3906 Q46.4813,27.9688 45.6844,28.2969 Q44.6063,28.75 43.3094,28.75 Q41.7938,28.75 40.5906,28.125 Q39.6063,27.625 38.9188,26.5625 Q38.2313,25.4844 38.2313,24.2031 L38.2313,23.0469 Q38.2313,21.7188 38.8406,20.5781 Q39.4656,19.4219 40.5594,18.8125 Q41.6531,18.1875 42.8875,18.1875 Q43.6219,18.1875 44.2625,18.3594 Q44.9188,18.5156 45.4656,18.875 Z " fill="#000000"/><text fill="#000000" font-family="sans-serif" font-size="14" lengthAdjust="spacing" textLength="67" x="61.3" y="28.7285">Installation</text><line style="stroke:#181818;stroke-width:0.5;" x1="8" x2="151" y1="39" y2="39"/><ellipse cx="18" cy="53.3047" fill="#000000" rx="3" ry="3" style="stroke:#000000;stroke-width:1.0;"/><text fill="#000000" font-family="sans-serif" font-size="14" lengthAdjust="spacing" textLength="8" x="27" y="57.5332">tt</text><line style="stroke:#181818;stroke-width:1.0;" x1="8" x2="151" y1="64.6094" y2="64.6094"/><text fill="#000000" font-family="sans-serif" font-size="14" lengthAdjust="spacing" textLength="133" x="13" y="83.1426">FAZ |               | FEZ |</text><text fill="#000000" font-family="sans-serif" font-size="14" lengthAdjust="spacing" textLength="128" x="13" y="100.752">1   | Installation  |     |</text><text fill="#000000" font-family="sans-serif" font-size="14" lengthAdjust="spacing" textLength="133" x="13" y="118.3613">D   | GP            | FP  |</text><text fill="#000000" font-family="sans-serif" font-size="14" lengthAdjust="spacing" textLength="133" x="13" y="135.9707">SAZ |               | SEZ |</text></g><!--MD5=[32106b08d64e880d55e416edea0ca1d7]
@startuml
class Installation {
* tt
- -
FAZ |               | FEZ |
1   | Installation  |     |
D   | GP            | FP  |
SAZ |               | SEZ |
}
@enduml

PlantUML version 1.2022.7(Mon Aug 22 19:01:30 CEST 2022)
(GPL source distribution)
Java Runtime: OpenJDK Runtime Environment
JVM: OpenJDK 64-Bit Server VM
Default Encoding: UTF-8
Language: de
Country: DE
--></g></svg>