<?xml version="1.0" encoding="UTF-8" standalone="no"?><svg xmlns="http://www.w3.org/2000/svg" xmlns:xlink="http://www.w3.org/1999/xlink" contentStyleType="text/css" height="273px" preserveAspectRatio="none" style="width:916px;height:273px;background:#FFFFFF;" version="1.1" viewBox="0 0 916 273" width="916px" zoomAndPan="magnify"><defs/><g><g id="cluster_##12"><path d="M435.8912,85.0899 C439.2803,78.1364 444.1149,76.3609 449.4779,83.1366 C452.4828,76.7445 457.6556,76.5195 461.8988,81.8213 C465.6592,75.8074 471.3242,75.793 475.6098,81.1902 C477.8032,74.9389 482.3323,75.0128 486.2689,79.4523 C489.8195,71.5345 495.6071,71.8418 500.9539,77.5109 C504.3807,71.3342 509.6926,71.762 513.0435,77.5875 C517.8298,71.7158 522.1603,71.1751 526.2655,78.2814 C530.3681,71.6805 535.2624,72.8219 539.0103,78.6452 C543.6274,73.6042 547.7246,74.5531 550.5993,80.4854 C554.5767,75.8098 559.3312,75.5468 562.5668,81.3339 C567.2235,75.457 573.2017,76.9919 576.0279,83.3482 C586.2188,76.861 591.9659,78.7624 594.5,90.93 C594.862,91.1718 594.9098,91.4221 594.5087,91.6729 C600.6979,94.3832 601.2117,100.4347 596.1792,104.5957 C601.6337,108.0891 601.7843,114.1522 596.0411,117.5261 C603.1509,121.4792 602.5484,126.4835 597.21,131.4793 C603.8821,135.2595 603.7537,139.4278 598.0036,143.9956 C604.8585,148.6614 603.8689,153.8547 597.0763,157.5896 C603.2119,161.0475 604.2305,166.5203 598.9359,171.5055 C604.614,175.419 605.8726,180.9716 598.6261,184.5787 C605.1516,188.0764 604.6827,194.9342 598.693,198.4922 C603.1184,202.8288 602.4506,207.5071 596.4677,209.7943 C603.0237,213.8079 602.1735,218.5767 596.9804,223.0448 C602.2598,227.9735 602.8258,233.3119 595.5415,236.9395 C603.3418,246.3688 598.4158,254.426 587.5,255.93 C588.1969,254.966 588.8036,255.0378 589.3692,256.0539 C586.1598,262.8113 579.4785,262.3699 575.747,256.6228 C572.8402,263.2849 568.0877,263.2271 563.44,258.5045 C559.0067,265.1267 554.7645,266.4948 549.5226,259.3202 C545.6958,263.945 540.5343,264.0235 537.8686,258.0441 C533.9181,264.5399 528.4535,264.5266 524.5946,257.9511 C522.1549,264.5361 517.4134,265.3219 512.9888,259.8639 C508.6597,266.1049 504.6498,265.3816 500.2031,259.9933 C496.2723,264.3872 490.788,263.8868 488.5127,258.0935 C484.8241,264.0404 479.6277,264.4534 475.4132,258.6814 C471.3672,264.8062 465.4166,266.5294 461.2343,258.821 C456.4378,263.9579 452.9774,261.7552 450.3185,256.5621 C440.0736,263.7605 431.7954,261.5989 428.5,248.93 C428.7271,248.7058 428.9232,248.7326 429.0806,249.0105 C423.6656,244.9628 423.5346,240.268 429.7298,236.8396 C422.5226,233.7046 422.2994,229.0287 426.9449,223.4317 C419.8056,219.3636 420.5905,214.6003 425.9699,209.6468 C419.3651,205.3993 418.7535,201.2261 425.436,196.4414 C420.5478,193.5394 420.2834,188.4017 425.3187,185.3943 C418.5127,181.5655 417.6503,174.875 424.47,170.281 C418.7964,166.6509 417.9831,163.0192 423.5628,158.521 C418.0409,153.2302 419.4546,149.1811 425.3162,145.413 C419.9194,141.0999 420.8861,134.963 426.9961,132.1023 C420.0016,126.3744 421.9378,121.6219 428.6928,117.4905 C422.1803,114.6491 422.9586,108.2326 427.9193,104.6974 C420.1459,95.1159 423.4334,86.2693 435.5,83.93 C436.177,84.0776 436.2834,84.5817 435.8912,85.0899 " fill="none" style="stroke:#181818;stroke-width:1.0;"/></g><!--MD5=[0b98f88368bf094d15e875149c8991bc]
entity internet Knoten 1--><g id="elem_internet Knoten 1"><rect fill="#F1F1F1" height="47.6094" rx="2.5" ry="2.5" style="stroke:#181818;stroke-width:0.5;" width="149" x="437" y="91.93"/><rect fill="#F1F1F1" height="10" style="stroke:#181818;stroke-width:0.5;" width="15" x="566" y="96.93"/><rect fill="#F1F1F1" height="2" style="stroke:#181818;stroke-width:0.5;" width="4" x="564" y="98.93"/><rect fill="#F1F1F1" height="2" style="stroke:#181818;stroke-width:0.5;" width="4" x="564" y="102.93"/><text fill="#000000" font-family="sans-serif" font-size="14" lengthAdjust="spacing" textLength="109" x="452" y="126.4632">internet Knoten 1</text></g><!--MD5=[a0f16ae938b23dcd37bd654ea8c295d7]
entity internet Knoten 2--><g id="elem_internet Knoten 2"><rect fill="#F1F1F1" height="47.6094" rx="2.5" ry="2.5" style="stroke:#181818;stroke-width:0.5;" width="149" x="437" y="199.93"/><rect fill="#F1F1F1" height="10" style="stroke:#181818;stroke-width:0.5;" width="15" x="566" y="204.93"/><rect fill="#F1F1F1" height="2" style="stroke:#181818;stroke-width:0.5;" width="4" x="564" y="206.93"/><rect fill="#F1F1F1" height="2" style="stroke:#181818;stroke-width:0.5;" width="4" x="564" y="210.93"/><text fill="#000000" font-family="sans-serif" font-size="14" lengthAdjust="spacing" textLength="109" x="452" y="234.4632">internet Knoten 2</text></g><!--MD5=[bf421a757bd9fea302dea685273093f8]
entity PC 1--><g id="elem_PC 1"><rect fill="#F1F1F1" height="47.6094" rx="2.5" ry="2.5" style="stroke:#181818;stroke-width:0.5;" width="71" x="7" y="91.93"/><rect fill="#F1F1F1" height="10" style="stroke:#181818;stroke-width:0.5;" width="15" x="58" y="96.93"/><rect fill="#F1F1F1" height="2" style="stroke:#181818;stroke-width:0.5;" width="4" x="56" y="98.93"/><rect fill="#F1F1F1" height="2" style="stroke:#181818;stroke-width:0.5;" width="4" x="56" y="102.93"/><text fill="#000000" font-family="sans-serif" font-size="14" lengthAdjust="spacing" textLength="31" x="22" y="126.4632">PC 1</text></g><!--MD5=[3061af9139049fb8926e2da128d3dd76]
entity PC 2--><g id="elem_PC 2"><rect fill="#F1F1F1" height="47.6094" rx="2.5" ry="2.5" style="stroke:#181818;stroke-width:0.5;" width="71" x="113" y="91.93"/><rect fill="#F1F1F1" height="10" style="stroke:#181818;stroke-width:0.5;" width="15" x="164" y="96.93"/><rect fill="#F1F1F1" height="2" style="stroke:#181818;stroke-width:0.5;" width="4" x="162" y="98.93"/><rect fill="#F1F1F1" height="2" style="stroke:#181818;stroke-width:0.5;" width="4" x="162" y="102.93"/><text fill="#000000" font-family="sans-serif" font-size="14" lengthAdjust="spacing" textLength="31" x="128" y="126.4632">PC 2</text></g><!--MD5=[445f7b14c99dcf06797230b95cd64b76]
entity PC 3--><g id="elem_PC 3"><rect fill="#F1F1F1" height="47.6094" rx="2.5" ry="2.5" style="stroke:#181818;stroke-width:0.5;" width="71" x="219" y="91.93"/><rect fill="#F1F1F1" height="10" style="stroke:#181818;stroke-width:0.5;" width="15" x="270" y="96.93"/><rect fill="#F1F1F1" height="2" style="stroke:#181818;stroke-width:0.5;" width="4" x="268" y="98.93"/><rect fill="#F1F1F1" height="2" style="stroke:#181818;stroke-width:0.5;" width="4" x="268" y="102.93"/><text fill="#000000" font-family="sans-serif" font-size="14" lengthAdjust="spacing" textLength="31" x="234" y="126.4632">PC 3</text></g><!--MD5=[9d9afcd6e0937fbc1a0c9dca833eba35]
entity Lan 1--><g id="elem_Lan 1"><rect fill="#F1F1F1" height="47.6094" rx="2.5" ry="2.5" style="stroke:#181818;stroke-width:0.5;" width="76" x="325.5" y="91.93"/><rect fill="#F1F1F1" height="10" style="stroke:#181818;stroke-width:0.5;" width="15" x="381.5" y="96.93"/><rect fill="#F1F1F1" height="2" style="stroke:#181818;stroke-width:0.5;" width="4" x="379.5" y="98.93"/><rect fill="#F1F1F1" height="2" style="stroke:#181818;stroke-width:0.5;" width="4" x="379.5" y="102.93"/><text fill="#000000" font-family="sans-serif" font-size="14" lengthAdjust="spacing" textLength="36" x="340.5" y="126.4632">Lan 1</text></g><!--MD5=[e10f13a34166333e6a252ce60123d3a5]
entity Lan 2--><g id="elem_Lan 2"><rect fill="#F1F1F1" height="47.6094" rx="2.5" ry="2.5" style="stroke:#181818;stroke-width:0.5;" width="76" x="621.5" y="199.93"/><rect fill="#F1F1F1" height="10" style="stroke:#181818;stroke-width:0.5;" width="15" x="677.5" y="204.93"/><rect fill="#F1F1F1" height="2" style="stroke:#181818;stroke-width:0.5;" width="4" x="675.5" y="206.93"/><rect fill="#F1F1F1" height="2" style="stroke:#181818;stroke-width:0.5;" width="4" x="675.5" y="210.93"/><text fill="#000000" font-family="sans-serif" font-size="14" lengthAdjust="spacing" textLength="36" x="636.5" y="234.4632">Lan 2</text></g><!--MD5=[cd711f82cec46841d3c541ae656ad747]
entity PC 4--><g id="elem_PC 4"><rect fill="#F1F1F1" height="47.6094" rx="2.5" ry="2.5" style="stroke:#181818;stroke-width:0.5;" width="71" x="839" y="199.93"/><rect fill="#F1F1F1" height="10" style="stroke:#181818;stroke-width:0.5;" width="15" x="890" y="204.93"/><rect fill="#F1F1F1" height="2" style="stroke:#181818;stroke-width:0.5;" width="4" x="888" y="206.93"/><rect fill="#F1F1F1" height="2" style="stroke:#181818;stroke-width:0.5;" width="4" x="888" y="210.93"/><text fill="#000000" font-family="sans-serif" font-size="14" lengthAdjust="spacing" textLength="31" x="854" y="234.4632">PC 4</text></g><!--MD5=[2a8d611d9a4813de1feb105474a2d448]
entity PC 5--><g id="elem_PC 5"><rect fill="#F1F1F1" height="47.6094" rx="2.5" ry="2.5" style="stroke:#181818;stroke-width:0.5;" width="71" x="733" y="199.93"/><rect fill="#F1F1F1" height="10" style="stroke:#181818;stroke-width:0.5;" width="15" x="784" y="204.93"/><rect fill="#F1F1F1" height="2" style="stroke:#181818;stroke-width:0.5;" width="4" x="782" y="206.93"/><rect fill="#F1F1F1" height="2" style="stroke:#181818;stroke-width:0.5;" width="4" x="782" y="210.93"/><text fill="#000000" font-family="sans-serif" font-size="14" lengthAdjust="spacing" textLength="31" x="748" y="234.4632">PC 5</text></g><!--MD5=[0753616009d4a66e7227270b7105fad5]
link PC 1 to Lan 1--><g id="link_PC 1_Lan 1"><path d="M56.37,91.85 C68.6,73.25 88.31,48.89 113,37.93 C184.9,6 217.78,6.75 290,37.93 C315.28,48.84 335.9,73.21 348.79,91.82 " fill="none" id="PC 1-Lan 1" style="stroke:#181818;stroke-width:1.0;"/></g><!--MD5=[75b72522ad5b97c53bd576eaf1136421]
link PC 2 to Lan 1--><g id="link_PC 2_Lan 1"><path d="M162.37,91.85 C174.6,73.25 194.31,48.89 219,37.93 C247.84,25.12 261.03,25.42 290,37.93 C315.28,48.84 335.9,73.21 348.79,91.82 " fill="none" id="PC 2-Lan 1" style="stroke:#181818;stroke-width:1.0;"/></g><!--MD5=[e68147689e0e246b2c2c8c822f355aed]
link PC 3 to Lan 1--><g id="link_PC 3_Lan 1"><path d="M290.27,115.93 C301.99,115.93 313.72,115.93 325.45,115.93 " fill="none" id="PC 3-Lan 1" style="stroke:#181818;stroke-width:1.0;"/></g><!--MD5=[910408f8124c0c3898342a708c4c1766]
link internet Knoten 1 to internet Knoten 2--><g id="link_internet Knoten 1_internet Knoten 2"><path d="M511.5,139.93 C511.5,157.59 511.5,181.87 511.5,199.61 " fill="none" id="internet Knoten 1-internet Knoten 2" style="stroke:#181818;stroke-width:1.0;"/></g><!--MD5=[2c6de3b8ace400f0da662a3c4fa83885]
link Lan 1 to internet Knoten 1--><g id="link_Lan 1_internet Knoten 1"><path d="M401.66,115.93 C413.38,115.93 425.11,115.93 436.84,115.93 " fill="none" id="Lan 1-internet Knoten 1" style="stroke:#181818;stroke-width:1.0;"/></g><!--MD5=[5b4c2b792aaf55f637daf366f1a3c7c9]
link internet Knoten 2 to Lan 2--><g id="link_internet Knoten 2_Lan 2"><path d="M586.08,223.93 C597.84,223.93 609.6,223.93 621.36,223.93 " fill="none" id="internet Knoten 2-Lan 2" style="stroke:#181818;stroke-width:1.0;"/></g><!--MD5=[336b88f00b1a1f02ff856d100c89e163]
link Lan 2 to PC 4--><g id="link_Lan 2_PC 4"><path d="M684.07,199.7 C697.38,188.29 714.79,175.9 733,169.93 C762.99,160.1 774.11,159.8 804,169.93 C821.67,175.92 838.38,188.31 851.1,199.71 " fill="none" id="Lan 2-PC 4" style="stroke:#181818;stroke-width:1.0;"/></g><!--MD5=[ed24a37aa9bdd2d167b640215fdfa280]
link Lan 2 to PC 5--><g id="link_Lan 2_PC 5"><path d="M697.82,223.93 C709.51,223.93 721.2,223.93 732.88,223.93 " fill="none" id="Lan 2-PC 5" style="stroke:#181818;stroke-width:1.0;"/></g><!--MD5=[099ba5b74ca6e2b2fc25e1c7180344ef]
@startuml
[PC 1]
[PC 2]
[PC 3]
[Lan 1]
[Lan 2]
[PC 4]
[PC 5]
[PC 1] - [Lan 1]
[PC 2] - [Lan 1]
[PC 3] - [Lan 1]

cloud {
[internet Knoten 1] - - [internet Knoten 2]

}
[Lan 1] - [internet Knoten 1]
[internet Knoten 2] - [Lan 2]
[Lan 2] - [PC 4]
[Lan 2] - [PC 5]


@enduml

PlantUML version 1.2022.7(Mon Aug 22 19:01:30 CEST 2022)
(GPL source distribution)
Java Runtime: OpenJDK Runtime Environment
JVM: OpenJDK 64-Bit Server VM
Default Encoding: Cp1252
Language: de
Country: DE
--></g></svg>