<svg xmlns="http://www.w3.org/2000/svg" xmlns:xlink="http://www.w3.org/1999/xlink" contentStyleType="text/css" height="409px" preserveAspectRatio="none" style="width:299px;height:409px;background:#FFFFFF;" version="1.1" viewBox="0 0 299 409" width="299px" zoomAndPan="magnify"><defs/><g><!--class Pc__Data--><g id="elem_Pc__Data"><rect codeLine="1" fill="#F1F1F1" height="97.4648" id="Pc__Data" rx="2.5" ry="2.5" style="stroke:#181818;stroke-width:0.5;" width="270.6582" x="14.22" y="7"/><ellipse cx="115.2517" cy="23" fill="#ADD1B2" rx="11" ry="11" style="stroke:#181818;stroke-width:1;"/><path d="M118.866,29.5 L111.1463,29.5 L111.1463,17.1069 L118.866,17.1069 L118.866,19.2651 L113.595,19.2651 L113.595,21.938 L118.3679,21.938 L118.3679,24.0962 L113.595,24.0962 L113.595,27.3418 L118.866,27.3418 Z " fill="#000000"/><text fill="#000000" font-family="sans-serif" font-size="14" lengthAdjust="spacing" textLength="60.0947" x="135.7517" y="28.291">Pc__Data</text><line style="stroke:#181818;stroke-width:0.5;" x1="15.22" x2="283.8782" y1="39" y2="39"/><ellipse cx="25.22" cy="52.7441" fill="#000000" rx="3" ry="3" style="stroke:#000000;stroke-width:1;"/><text fill="#000000" font-family="sans-serif" font-size="14" lengthAdjust="spacing" textLength="244.6582" x="34.22" y="56.5352">PcId int primary key auto_increment</text><line style="stroke:#181818;stroke-width:1;" x1="15.22" x2="283.8782" y1="63.4883" y2="63.4883"/><ellipse cx="25.22" cy="77.2324" fill="#000000" rx="3" ry="3" style="stroke:#000000;stroke-width:1;"/><text fill="#000000" font-family="sans-serif" font-size="14" lengthAdjust="spacing" textLength="167.8701" x="34.22" y="81.0234">Description varchar(255)</text><ellipse cx="25.22" cy="93.7207" fill="#000000" rx="3" ry="3" style="stroke:#000000;stroke-width:1;"/><text fill="#000000" font-family="sans-serif" font-size="14" lengthAdjust="spacing" textLength="135.7686" x="34.22" y="97.5117">Purpose varchar(50)</text></g><!--class MainUser--><g id="elem_MainUser"><rect codeLine="8" fill="#F1F1F1" height="80.9766" id="MainUser" rx="2.5" ry="2.5" style="stroke:#181818;stroke-width:0.5;" width="285.1025" x="7" y="164.47"/><ellipse cx="113.856" cy="180.47" fill="#ADD1B2" rx="11" ry="11" style="stroke:#181818;stroke-width:1;"/><path d="M117.4702,186.97 L109.7505,186.97 L109.7505,174.5769 L117.4702,174.5769 L117.4702,176.7351 L112.1992,176.7351 L112.1992,179.408 L116.9722,179.408 L116.9722,181.5662 L112.1992,181.5662 L112.1992,184.8118 L117.4702,184.8118 Z " fill="#000000"/><text fill="#000000" font-family="sans-serif" font-size="14" lengthAdjust="spacing" textLength="62.8906" x="134.356" y="185.761">MainUser</text><line style="stroke:#181818;stroke-width:0.5;" x1="8" x2="291.1025" y1="196.47" y2="196.47"/><ellipse cx="18" cy="210.2141" fill="#000000" rx="3" ry="3" style="stroke:#000000;stroke-width:1;"/><text fill="#000000" font-family="sans-serif" font-size="14" lengthAdjust="spacing" textLength="259.1025" x="27" y="214.0052">userId int primary key auto_increment</text><line style="stroke:#181818;stroke-width:1;" x1="8" x2="291.1025" y1="220.9583" y2="220.9583"/><ellipse cx="18" cy="234.7024" fill="#000000" rx="3" ry="3" style="stroke:#000000;stroke-width:1;"/><text fill="#000000" font-family="sans-serif" font-size="14" lengthAdjust="spacing" textLength="158.416" x="27" y="238.4934">userName varchar(255)</text></g><!--class IPAddresses--><g id="elem_IPAddresses"><rect codeLine="14" fill="#F1F1F1" height="97.4648" id="IPAddresses" rx="2.5" ry="2.5" style="stroke:#181818;stroke-width:0.5;" width="173.9775" x="62.56" y="305.45"/><ellipse cx="104.6435" cy="321.45" fill="#ADD1B2" rx="11" ry="11" style="stroke:#181818;stroke-width:1;"/><path d="M108.2578,327.95 L100.538,327.95 L100.538,315.5569 L108.2578,315.5569 L108.2578,317.7151 L102.9868,317.7151 L102.9868,320.388 L107.7597,320.388 L107.7597,322.5462 L102.9868,322.5462 L102.9868,325.7918 L108.2578,325.7918 Z " fill="#000000"/><text fill="#000000" font-family="sans-serif" font-size="14" lengthAdjust="spacing" textLength="81.792" x="124.6621" y="326.741">IPAddresses</text><line style="stroke:#181818;stroke-width:0.5;" x1="63.56" x2="235.5375" y1="337.45" y2="337.45"/><ellipse cx="73.56" cy="351.1941" fill="#000000" rx="3" ry="3" style="stroke:#000000;stroke-width:1;"/><text fill="#000000" font-family="sans-serif" font-size="14" lengthAdjust="spacing" textLength="145.4961" x="82.56" y="354.9852">userId int foreign key</text><line style="stroke:#181818;stroke-width:1;" x1="63.56" x2="235.5375" y1="361.9383" y2="361.9383"/><ellipse cx="73.56" cy="375.6824" fill="#000000" rx="3" ry="3" style="stroke:#000000;stroke-width:1;"/><text fill="#000000" font-family="sans-serif" font-size="14" lengthAdjust="spacing" textLength="118.6855" x="82.56" y="379.4734">Value varchar(50)</text><ellipse cx="73.56" cy="392.1707" fill="#000000" rx="3" ry="3" style="stroke:#000000;stroke-width:1;"/><text fill="#000000" font-family="sans-serif" font-size="14" lengthAdjust="spacing" textLength="147.9775" x="82.56" y="395.9617">Type ENUM("v4", "v6")</text></g><!--link MainUser to IPAddresses--><g id="link_MainUser_IPAddresses"><path codeLine="21" d="M149.55,245.8 C149.55,264.11 149.55,285.97 149.55,305.18 " fill="none" id="MainUser-IPAddresses" style="stroke:#181818;stroke-width:1;"/><text fill="#000000" font-family="sans-serif" font-size="13" lengthAdjust="spacing" textLength="8.2202" x="140.9298" y="266.0976">1</text><text fill="#000000" font-family="sans-serif" font-size="13" lengthAdjust="spacing" textLength="8.0679" x="140.9924" y="294.8245">n</text></g><!--link Pc__Data to MainUser--><g id="link_Pc__Data_MainUser"><path codeLine="22" d="M149.55,104.94 C149.55,124.06 149.55,145.79 149.55,164.01 " fill="none" id="Pc__Data-MainUser" style="stroke:#181818;stroke-width:1;"/><text fill="#000000" font-family="sans-serif" font-size="13" lengthAdjust="spacing" textLength="8.2202" x="141.0274" y="125.1493">1</text><text fill="#000000" font-family="sans-serif" font-size="13" lengthAdjust="spacing" textLength="8.2202" x="140.9055" y="153.5798">1</text></g><!--SRC=[bP0n3u8m48Nt_efB9p6Ig15t4nmOD0xYIYvmQgCKSYqanFZVhIWeYOjTBdtNzxwxahRADh1BaoH4Yt0JuCxO2L46IbieMUN83Loe0QniaIYTCkMaRVlIzz-6a4pAghIgq50ZfsVaqJm8l2wluh8mrBU2gIVkGj0Blq6bOqFSuojt-NE0fsMBEGtf7qQqMsKPap5aVb2E1PCwwPOop3tWjHhE_TBtJKcmtiQRaQmNSWAoNigMroyZPzB5WDJo6oxwl-xwhdIU1m00]--></g></svg>