<svg xmlns="http://www.w3.org/2000/svg" xmlns:xlink="http://www.w3.org/1999/xlink" contentStyleType="text/css" height="182px" preserveAspectRatio="none" style="width:1119px;height:182px;background:#FFFFFF;" version="1.1" viewBox="0 0 1119 182" width="1119px" zoomAndPan="magnify"><defs/><g><rect fill="#F1F1F1" height="20.4883" rx="5" ry="5" style="stroke:#F1F1F1;stroke-width:1.5;" width="99.085" x="10" y="50.9766"/><text fill="#000000" font-family="sans-serif" font-size="14" font-weight="bold" lengthAdjust="spacing" textLength="65.7959" x="15" y="66.5117">PC__Data</text><text fill="#000000" font-family="sans-serif" font-size="14" lengthAdjust="spacing" textLength="13.2891" x="90.7959" y="66.5117">&#160;&#160;&#160;</text><line style="stroke:#000000;stroke-width:1;" x1="85.7959" x2="85.7959" y1="50.9766" y2="71.4648"/><rect fill="none" height="20.4883" rx="5" ry="5" style="stroke:#000000;stroke-width:1.5;" width="99.085" x="10" y="50.9766"/><rect fill="#F1F1F1" height="102.4414" rx="5" ry="5" style="stroke:#F1F1F1;stroke-width:1.5;" width="307.5332" x="146" y="10"/><text fill="#000000" font-family="sans-serif" font-size="14" font-weight="bold" lengthAdjust="spacing" textLength="30.6455" x="151" y="25.5352">pcId</text><text fill="#000000" font-family="sans-serif" font-size="14" lengthAdjust="spacing" textLength="26.5576" x="249.6074" y="25.5352">494</text><line style="stroke:#000000;stroke-width:1;" x1="244.6074" x2="244.6074" y1="10" y2="30.4883"/><line style="stroke:#000000;stroke-width:1;" x1="146" x2="453.5332" y1="30.4883" y2="30.4883"/><text fill="#000000" font-family="sans-serif" font-size="14" font-weight="bold" lengthAdjust="spacing" textLength="83.2275" x="151" y="46.0234">Description</text><text fill="#000000" font-family="sans-serif" font-size="14" lengthAdjust="spacing" textLength="198.9258" x="249.6074" y="46.0234">PC in der Abteilung Software.</text><line style="stroke:#000000;stroke-width:1;" x1="244.6074" x2="244.6074" y1="30.4883" y2="50.9766"/><line style="stroke:#000000;stroke-width:1;" x1="146" x2="453.5332" y1="50.9766" y2="50.9766"/><text fill="#000000" font-family="sans-serif" font-size="14" font-weight="bold" lengthAdjust="spacing" textLength="58.4814" x="151" y="66.5117">Purpose</text><text fill="#000000" font-family="sans-serif" font-size="14" lengthAdjust="spacing" textLength="89.585" x="249.6074" y="66.5117">Development</text><line style="stroke:#000000;stroke-width:1;" x1="244.6074" x2="244.6074" y1="50.9766" y2="71.4648"/><line style="stroke:#000000;stroke-width:1;" x1="146" x2="453.5332" y1="71.4648" y2="71.4648"/><text fill="#000000" font-family="sans-serif" font-size="14" font-weight="bold" lengthAdjust="spacing" textLength="67.4775" x="151" y="87">MainUser</text><text fill="#000000" font-family="sans-serif" font-size="14" lengthAdjust="spacing" textLength="13.2891" x="249.6074" y="87">&#160;&#160;&#160;</text><line style="stroke:#000000;stroke-width:1;" x1="244.6074" x2="244.6074" y1="71.4648" y2="91.9531"/><line style="stroke:#000000;stroke-width:1;" x1="146" x2="453.5332" y1="91.9531" y2="91.9531"/><text fill="#000000" font-family="sans-serif" font-size="14" font-weight="bold" lengthAdjust="spacing" textLength="88.6074" x="151" y="107.4883">IPAddresses</text><text fill="#000000" font-family="sans-serif" font-size="14" lengthAdjust="spacing" textLength="13.2891" x="249.6074" y="107.4883">&#160;&#160;&#160;</text><line style="stroke:#000000;stroke-width:1;" x1="244.6074" x2="244.6074" y1="91.9531" y2="112.4414"/><rect fill="none" height="102.4414" rx="5" ry="5" style="stroke:#000000;stroke-width:1.5;" width="307.5332" x="146" y="10"/><rect fill="#F1F1F1" height="40.9766" rx="5" ry="5" style="stroke:#F1F1F1;stroke-width:1.5;" width="239.3516" x="491" y="41.7207"/><text fill="#000000" font-family="sans-serif" font-size="14" font-weight="bold" lengthAdjust="spacing" textLength="45.5957" x="496" y="57.2559">userId</text><text fill="#000000" font-family="sans-serif" font-size="14" lengthAdjust="spacing" textLength="17.7051" x="578.4473" y="57.2559">12</text><line style="stroke:#000000;stroke-width:1;" x1="573.4473" x2="573.4473" y1="41.7207" y2="62.209"/><line style="stroke:#000000;stroke-width:1;" x1="491" x2="730.3516" y1="62.209" y2="62.209"/><text fill="#000000" font-family="sans-serif" font-size="14" font-weight="bold" lengthAdjust="spacing" textLength="72.4473" x="496" y="77.7441">userName</text><text fill="#000000" font-family="sans-serif" font-size="14" lengthAdjust="spacing" textLength="146.9043" x="578.4473" y="77.7441">Anita Scheurenbrandt</text><line style="stroke:#000000;stroke-width:1;" x1="573.4473" x2="573.4473" y1="62.209" y2="82.6973"/><rect fill="none" height="40.9766" rx="5" ry="5" style="stroke:#000000;stroke-width:1.5;" width="239.3516" x="491" y="41.7207"/><rect fill="#F1F1F1" height="40.9766" rx="5" ry="5" style="stroke:#F1F1F1;stroke-width:1.5;" width="23.2891" x="599" y="100.7207"/><text fill="#000000" font-family="sans-serif" font-size="14" lengthAdjust="spacing" textLength="13.2891" x="604" y="116.2559">&#160;&#160;&#160;</text><line style="stroke:#000000;stroke-width:1;" x1="599" x2="622.2891" y1="121.209" y2="121.209"/><text fill="#000000" font-family="sans-serif" font-size="14" lengthAdjust="spacing" textLength="13.2891" x="604" y="136.7441">&#160;&#160;&#160;</text><rect fill="none" height="40.9766" rx="5" ry="5" style="stroke:#000000;stroke-width:1.5;" width="23.2891" x="599" y="100.7207"/><rect fill="#F1F1F1" height="40.9766" rx="5" ry="5" style="stroke:#F1F1F1;stroke-width:1.5;" width="177.9717" x="848.5" y="70.7207"/><text fill="#000000" font-family="sans-serif" font-size="14" font-weight="bold" lengthAdjust="spacing" textLength="39.9629" x="853.5" y="86.2559">Value</text><text fill="#000000" font-family="sans-serif" font-size="14" lengthAdjust="spacing" textLength="118.0088" x="903.4629" y="86.2559">192.168.0.23/24</text><line style="stroke:#000000;stroke-width:1;" x1="898.4629" x2="898.4629" y1="70.7207" y2="91.209"/><line style="stroke:#000000;stroke-width:1;" x1="848.5" x2="1026.4717" y1="91.209" y2="91.209"/><text fill="#000000" font-family="sans-serif" font-size="14" font-weight="bold" lengthAdjust="spacing" textLength="35.3008" x="853.5" y="106.7441">Type</text><text fill="#000000" font-family="sans-serif" font-size="14" lengthAdjust="spacing" textLength="16.0986" x="903.4629" y="106.7441">v4</text><line style="stroke:#000000;stroke-width:1;" x1="898.4629" x2="898.4629" y1="91.209" y2="111.6973"/><rect fill="none" height="40.9766" rx="5" ry="5" style="stroke:#000000;stroke-width:1.5;" width="177.9717" x="848.5" y="70.7207"/><rect fill="#F1F1F1" height="40.9766" rx="5" ry="5" style="stroke:#F1F1F1;stroke-width:1.5;" width="340.9199" x="767" y="129.7207"/><text fill="#000000" font-family="sans-serif" font-size="14" font-weight="bold" lengthAdjust="spacing" textLength="39.9629" x="772" y="145.2559">Value</text><text fill="#000000" font-family="sans-serif" font-size="14" lengthAdjust="spacing" textLength="280.957" x="821.9629" y="145.2559">2012:65:fd85:5712:fdf4:11ed:9aba:9e27</text><line style="stroke:#000000;stroke-width:1;" x1="816.9629" x2="816.9629" y1="129.7207" y2="150.209"/><line style="stroke:#000000;stroke-width:1;" x1="767" x2="1107.9199" y1="150.209" y2="150.209"/><text fill="#000000" font-family="sans-serif" font-size="14" font-weight="bold" lengthAdjust="spacing" textLength="35.3008" x="772" y="165.7441">Type</text><text fill="#000000" font-family="sans-serif" font-size="14" lengthAdjust="spacing" textLength="16.0986" x="821.9629" y="165.7441">v6</text><line style="stroke:#000000;stroke-width:1;" x1="816.9629" x2="816.9629" y1="150.209" y2="170.6973"/><rect fill="none" height="40.9766" rx="5" ry="5" style="stroke:#000000;stroke-width:1.5;" width="340.9199" x="767" y="129.7207"/><path d="M442,81.2207 L455,81.2207 C464.3057,81.2207 473.9024,80.8791 483.5449,80.2876 " fill="none" style="stroke:#000000;stroke-width:1;stroke-dasharray:3.0,3.0;"/><path d="M483.7554,83.3829 L485.8664,80.1297 L483.3344,77.1923 L491.2831,79.7614 L483.7554,83.3829 " fill="#000000" style="stroke:#000000;stroke-width:1;"/><ellipse cx="442" cy="81.2207" fill="#000000" rx="3" ry="3" style="stroke:#000000;stroke-width:1;"/><path d="M611,111.2207 L624,111.2207 C696.8438,111.2207 779.0297,105.7591 840.9017,100.544 " fill="none" style="stroke:#000000;stroke-width:1;stroke-dasharray:3.0,3.0;"/><path d="M841.1687,103.674 L843.2492,100.3438 L840.6348,97.414 L848.7267,99.8767 L841.1687,103.674 " fill="#000000" style="stroke:#000000;stroke-width:1;"/><ellipse cx="611" cy="111.2207" fill="#000000" rx="3" ry="3" style="stroke:#000000;stroke-width:1;"/><path d="M611,131.2207 L624,131.2207 C668.0009,131.2207 715.4175,133.1146 759.7068,135.7065 " fill="none" style="stroke:#000000;stroke-width:1;stroke-dasharray:3.0,3.0;"/><path d="M759.5242,138.7681 L762.003,135.8435 L759.8895,132.6449 L767.3608,136.1631 L759.5242,138.7681 " fill="#000000" style="stroke:#000000;stroke-width:1;"/><ellipse cx="611" cy="131.2207" fill="#000000" rx="3" ry="3" style="stroke:#000000;stroke-width:1;"/><path d="M442,102.2207 L455,102.2207 C504.5975,102.2207 562.4633,111.9235 591.4519,117.4616 " fill="none" style="stroke:#000000;stroke-width:1;stroke-dasharray:3.0,3.0;"/><path d="M590.85,120.5435 L593.7634,117.9131 L592.0539,114.3797 L599.1567,118.9665 L590.85,120.5435 " fill="#000000" style="stroke:#000000;stroke-width:1;"/><ellipse cx="442" cy="102.2207" fill="#000000" rx="3" ry="3" style="stroke:#000000;stroke-width:1;"/><path d="M97,61.2207 L110,61.2207 C119.3455,61.2207 128.9502,61.2207 138.6415,61.2207 " fill="none" style="stroke:#000000;stroke-width:1;stroke-dasharray:3.0,3.0;"/><path d="M138.6415,64.3357 L140.9778,61.2207 L138.6415,58.1057 L146.4291,61.2207 L138.6415,64.3357 " fill="#000000" style="stroke:#000000;stroke-width:1;"/><ellipse cx="97" cy="61.2207" fill="#000000" rx="3" ry="3" style="stroke:#000000;stroke-width:1;"/><!--SRC=[ZLB9Rjim4BtpAmOw9O2ZMYhjo3p5jPmYhfqAyN8fYe0MHouBcHIuA0WA_tjf5Kdi1YZA4-SjymQOkR6E6_VJQaL-4GWlAYQFZpbtF6Bm1-dGfhmJ0Q4Zsdi3SxIbaOsJMWKkE44g46XWl7KeQwzsiDILU-86u-Z4LtZJQ8j7JuujrhhPetAdYWMNQctHd0tHCJwWtIX9sdlFtFDzrtQifEEmB7-WDwYsXYlXebVvuIJfhXWBOT1QjC7uxQpbUNGdt_3QTmd9A8sJOHRtu_JZXvH6lVVQrNFJILiQdP67td-dfFqaPSC1gqGsO8FhK5IYeYn9KB0Htt8smlJwdzd3lx9Vg-_Txm3aG6vGYUu4I55pvTQBERHeR5Wh977QJscSNTmQ2VUwXMG0ISOePNG8a-aAZlGbkVXSpC5gRqe48QqpSkkFPt59PhpbyE2LatjayBL1DSk_l00mLQqqMXtNJsQRnPjWIAy-IGTBD64Is2n8ZXNtjGkEKWkfTWpMgzkhZCovsdc-2xq5aeaEVSqpWtpw6m00]--></g></svg>