<?xml version="1.0" encoding="us-ascii" standalone="no"?><svg xmlns="http://www.w3.org/2000/svg" xmlns:xlink="http://www.w3.org/1999/xlink" contentStyleType="text/css" height="520px" preserveAspectRatio="none" style="width:1231px;height:520px;background:#FFFFFF;" version="1.1" viewBox="0 0 1231 520" width="1231px" zoomAndPan="magnify"><defs/><g><!--cluster routes--><g id="cluster_routes"><path d="M8.5,6 L55.5,6 A3.75,3.75 0 0 1 58,8.5 L65,28.4883 L1221.5,28.4883 A2.5,2.5 0 0 1 1224,30.9883 L1224,371.21 A2.5,2.5 0 0 1 1221.5,373.71 L8.5,373.71 A2.5,2.5 0 0 1 6,371.21 L6,8.5 A2.5,2.5 0 0 1 8.5,6 " fill="none" style="stroke:#000000;stroke-width:1.5;"/><line style="stroke:#000000;stroke-width:1.5;" x1="6" x2="65" y1="28.4883" y2="28.4883"/><text fill="#000000" font-family="sans-serif" font-size="14" font-weight="bold" lengthAdjust="spacing" textLength="46" x="10" y="21.5352">routes</text><text fill="#000000" font-family="sans-serif" font-size="14" font-style="italic" lengthAdjust="spacing" textLength="72" x="583" y="44.0234">&#171;Modules&#187;</text></g><!--cluster mod--><g id="cluster_mod"><path d="M502.5,65 L535.5,65 A3.75,3.75 0 0 1 538,67.5 L545,87.4883 L831.5,87.4883 A2.5,2.5 0 0 1 834,89.9883 L834,202.61 A2.5,2.5 0 0 1 831.5,205.11 L502.5,205.11 A2.5,2.5 0 0 1 500,202.61 L500,67.5 A2.5,2.5 0 0 1 502.5,65 " fill="none" style="stroke:#000000;stroke-width:1.5;"/><line style="stroke:#000000;stroke-width:1.5;" x1="500" x2="545" y1="87.4883" y2="87.4883"/><text fill="#000000" font-family="sans-serif" font-size="14" font-weight="bold" lengthAdjust="spacing" textLength="32" x="504" y="80.5352">mod</text><text fill="#000000" font-family="sans-serif" font-size="14" font-style="italic" lengthAdjust="spacing" textLength="72" x="635" y="103.0234">&#171;Modules&#187;</text></g><!--cluster entities--><g id="cluster_entities"><path d="M143.5,405.71 L199.5,405.71 A3.75,3.75 0 0 1 202,408.21 L209,428.1983 L754.5,428.1983 A2.5,2.5 0 0 1 757,430.6983 L757,510.83 A2.5,2.5 0 0 1 754.5,513.33 L143.5,513.33 A2.5,2.5 0 0 1 141,510.83 L141,408.21 A2.5,2.5 0 0 1 143.5,405.71 " fill="none" style="stroke:#000000;stroke-width:1.5;"/><line style="stroke:#000000;stroke-width:1.5;" x1="141" x2="209" y1="428.1983" y2="428.1983"/><text fill="#000000" font-family="sans-serif" font-size="14" font-weight="bold" lengthAdjust="spacing" textLength="55" x="145" y="421.2452">entities</text></g><!--class read--><g id="elem_read"><rect codeLine="3" fill="#F1F1F1" height="89.5977" id="read" rx="2.5" ry="2.5" style="stroke:#181818;stroke-width:0.5;" width="374" x="22" y="268.11"/><ellipse cx="179.75" cy="288.4205" fill="#6A3100" rx="11" ry="11" style="stroke:#181818;stroke-width:1.0;"/><path d="M175.4639,282.5275 L178.3857,282.5275 L179.8633,287.9645 L181.3325,282.5275 L184.271,282.5275 L184.271,294.9205 L182.1626,294.9205 L182.1626,284.9928 L180.8511,290.4132 L178.9004,290.4132 L177.5723,284.9928 L177.5723,294.9205 L175.4639,294.9205 Z " fill="#000000"/><text fill="#000000" font-family="sans-serif" font-size="12" font-style="italic" lengthAdjust="spacing" textLength="54" x="198.25" y="284.7116">&#171;Module&#187;</text><text fill="#000000" font-family="sans-serif" font-size="14" lengthAdjust="spacing" textLength="31" x="209.75" y="300.778">read</text><line style="stroke:#181818;stroke-width:0.5;" x1="23" x2="395" y1="308.7311" y2="308.7311"/><line style="stroke:#181818;stroke-width:1.0;" x1="23" x2="395" y1="316.7311" y2="316.7311"/><ellipse cx="33" cy="330.4752" fill="#84BE84" rx="3" ry="3" style="stroke:#038048;stroke-width:1.0;"/><text fill="#000000" font-family="sans-serif" font-size="14" lengthAdjust="spacing" textLength="348" x="42" y="334.2663">get_overview_day(db, customday: Option&lt;String&gt;)</text><text fill="#000000" font-family="sans-serif" font-size="14" lengthAdjust="spacing" textLength="4" x="42" y="350.7545">&#160;</text></g><!--class create--><g id="elem_create"><rect codeLine="8" fill="#F1F1F1" height="89.5977" id="create" rx="2.5" ry="2.5" style="stroke:#181818;stroke-width:0.5;" width="473" x="430.5" y="268.11"/><ellipse cx="637.75" cy="288.4205" fill="#6A3100" rx="11" ry="11" style="stroke:#181818;stroke-width:1.0;"/><path d="M633.4639,282.5275 L636.3857,282.5275 L637.8633,287.9645 L639.3325,282.5275 L642.271,282.5275 L642.271,294.9205 L640.1626,294.9205 L640.1626,284.9928 L638.8511,290.4132 L636.9004,290.4132 L635.5723,284.9928 L635.5723,294.9205 L633.4639,294.9205 Z " fill="#000000"/><text fill="#000000" font-family="sans-serif" font-size="12" font-style="italic" lengthAdjust="spacing" textLength="54" x="656.25" y="284.7116">&#171;Module&#187;</text><text fill="#000000" font-family="sans-serif" font-size="14" lengthAdjust="spacing" textLength="42" x="662.25" y="300.778">create</text><line style="stroke:#181818;stroke-width:0.5;" x1="431.5" x2="902.5" y1="308.7311" y2="308.7311"/><line style="stroke:#181818;stroke-width:1.0;" x1="431.5" x2="902.5" y1="316.7311" y2="316.7311"/><ellipse cx="441.5" cy="330.4752" fill="#84BE84" rx="3" ry="3" style="stroke:#038048;stroke-width:1.0;"/><text fill="#000000" font-family="sans-serif" font-size="14" lengthAdjust="spacing" textLength="304" x="450.5" y="334.2663">post_joinroom(db, entry_id: i32, user_name)</text><ellipse cx="441.5" cy="346.9635" fill="#84BE84" rx="3" ry="3" style="stroke:#038048;stroke-width:1.0;"/><text fill="#000000" font-family="sans-serif" font-size="14" lengthAdjust="spacing" textLength="447" x="450.5" y="350.7545">post_joinrooms(db, room_id: i32, days: Vec&lt;String&gt;, user_name)</text></g><!--class delete--><g id="elem_delete"><rect codeLine="13" fill="#F1F1F1" height="73.1094" id="delete" rx="2.5" ry="2.5" style="stroke:#181818;stroke-width:0.5;" width="270" x="938" y="276.36"/><ellipse cx="1043.75" cy="296.6705" fill="#6A3100" rx="11" ry="11" style="stroke:#181818;stroke-width:1.0;"/><path d="M1039.4639,290.7775 L1042.3857,290.7775 L1043.8633,296.2145 L1045.3325,290.7775 L1048.271,290.7775 L1048.271,303.1705 L1046.1626,303.1705 L1046.1626,293.2428 L1044.8511,298.6632 L1042.9004,298.6632 L1041.5723,293.2428 L1041.5723,303.1705 L1039.4639,303.1705 Z " fill="#000000"/><text fill="#000000" font-family="sans-serif" font-size="12" font-style="italic" lengthAdjust="spacing" textLength="54" x="1062.25" y="292.9616">&#171;Module&#187;</text><text fill="#000000" font-family="sans-serif" font-size="14" lengthAdjust="spacing" textLength="42" x="1068.25" y="309.028">delete</text><line style="stroke:#181818;stroke-width:0.5;" x1="939" x2="1207" y1="316.9811" y2="316.9811"/><line style="stroke:#181818;stroke-width:1.0;" x1="939" x2="1207" y1="324.9811" y2="324.9811"/><ellipse cx="949" cy="338.7252" fill="#84BE84" rx="3" ry="3" style="stroke:#038048;stroke-width:1.0;"/><text fill="#000000" font-family="sans-serif" font-size="14" lengthAdjust="spacing" textLength="244" x="958" y="342.5163">delete_participant(db, entry_id: i32)</text></g><!--class BeamBackendConnector--><g id="elem_BeamBackendConnector"><rect codeLine="18" fill="#F1F1F1" height="73.1094" id="BeamBackendConnector" rx="2.5" ry="2.5" style="stroke:#181818;stroke-width:0.5;" width="302" x="516" y="116"/><ellipse cx="579.75" cy="136.3105" fill="#FF7700" rx="11" ry="11" style="stroke:#181818;stroke-width:1.0;"/><path d="M579.4834,137.3735 Q577.6323,136.668 576.9766,135.8918 Q576.3208,135.1157 576.3208,133.8042 Q576.3208,132.1191 577.3999,131.1563 Q578.479,130.1934 580.3633,130.1934 Q581.2183,130.1934 582.0732,130.3884 Q582.9282,130.5835 583.7666,130.9653 L583.7666,133.356 Q582.978,132.7998 582.1646,132.5093 Q581.3511,132.2188 580.5542,132.2188 Q579.666,132.2188 579.1929,132.5757 Q578.7197,132.9326 578.7197,133.5967 Q578.7197,134.1113 579.0642,134.4475 Q579.4087,134.7837 580.5044,135.1904 L581.5586,135.5889 Q583.0527,136.1367 583.7583,137.0415 Q584.4639,137.9463 584.4639,139.3242 Q584.4639,141.2002 583.3557,142.1257 Q582.2476,143.0513 580.0063,143.0513 Q579.085,143.0513 578.1594,142.8313 Q577.2339,142.6113 576.3706,142.1797 L576.3706,139.6479 Q577.3501,140.3452 578.2673,140.6855 Q579.1846,141.0259 580.0811,141.0259 Q580.9858,141.0259 581.4839,140.615 Q581.9819,140.2041 581.9819,139.4653 Q581.9819,138.9092 581.6499,138.49 Q581.3179,138.0708 580.687,137.8301 Z " fill="#000000"/><text fill="#000000" font-family="sans-serif" font-size="12" font-style="italic" lengthAdjust="spacing" textLength="44" x="661.25" y="132.6016">&#171;Struct&#187;</text><text fill="#000000" font-family="sans-serif" font-size="14" lengthAdjust="spacing" textLength="166" x="600.25" y="148.668">BeamBackendConnector</text><line style="stroke:#181818;stroke-width:0.5;" x1="517" x2="817" y1="156.6211" y2="156.6211"/><line style="stroke:#181818;stroke-width:1.0;" x1="517" x2="817" y1="164.6211" y2="164.6211"/><ellipse cx="527" cy="178.3652" fill="#84BE84" rx="3" ry="3" style="stroke:#038048;stroke-width:1.0;"/><text fill="#000000" font-family="sans-serif" font-size="14" lengthAdjust="spacing" textLength="276" x="536" y="182.1563">process_task(db: &amp;DatabaseConnection)</text></g><!--class mrbs_area--><g id="elem_mrbs_area"><rect codeLine="26" fill="#F1F1F1" height="56.6211" id="mrbs_area" rx="2.5" ry="2.5" style="stroke:#181818;stroke-width:0.5;" width="104" x="157" y="440.71"/><ellipse cx="172" cy="461.0205" fill="#FF7700" rx="11" ry="11" style="stroke:#181818;stroke-width:1.0;"/><path d="M171.7334,462.0835 Q169.8823,461.378 169.2266,460.6018 Q168.5708,459.8257 168.5708,458.5142 Q168.5708,456.8291 169.6499,455.8663 Q170.729,454.9034 172.6133,454.9034 Q173.4683,454.9034 174.3232,455.0984 Q175.1782,455.2935 176.0166,455.6753 L176.0166,458.066 Q175.228,457.5098 174.4146,457.2193 Q173.6011,456.9288 172.8042,456.9288 Q171.916,456.9288 171.4429,457.2857 Q170.9697,457.6426 170.9697,458.3067 Q170.9697,458.8213 171.3142,459.1575 Q171.6587,459.4937 172.7544,459.9004 L173.8086,460.2989 Q175.3027,460.8467 176.0083,461.7515 Q176.7139,462.6563 176.7139,464.0342 Q176.7139,465.9102 175.6057,466.8357 Q174.4976,467.7613 172.2563,467.7613 Q171.335,467.7613 170.4094,467.5413 Q169.4839,467.3213 168.6206,466.8897 L168.6206,464.3579 Q169.6001,465.0552 170.5173,465.3955 Q171.4346,465.7359 172.3311,465.7359 Q173.2358,465.7359 173.7339,465.325 Q174.2319,464.9141 174.2319,464.1753 Q174.2319,463.6192 173.8999,463.2 Q173.5679,462.7808 172.937,462.5401 Z " fill="#000000"/><text fill="#000000" font-family="sans-serif" font-size="12" font-style="italic" lengthAdjust="spacing" textLength="44" x="200" y="457.3116">&#171;Struct&#187;</text><text fill="#000000" font-family="sans-serif" font-size="14" lengthAdjust="spacing" textLength="72" x="186" y="473.378">mrbs_area</text><line style="stroke:#181818;stroke-width:0.5;" x1="158" x2="260" y1="481.3311" y2="481.3311"/><line style="stroke:#181818;stroke-width:0.5;" x1="158" x2="260" y1="489.3311" y2="489.3311"/></g><!--class mrbs_room--><g id="elem_mrbs_room"><rect codeLine="27" fill="#F1F1F1" height="56.6211" id="mrbs_room" rx="2.5" ry="2.5" style="stroke:#181818;stroke-width:0.5;" width="111" x="295.5" y="440.71"/><ellipse cx="310.5" cy="461.0205" fill="#FF7700" rx="11" ry="11" style="stroke:#181818;stroke-width:1.0;"/><path d="M310.2334,462.0835 Q308.3823,461.378 307.7266,460.6018 Q307.0708,459.8257 307.0708,458.5142 Q307.0708,456.8291 308.1499,455.8663 Q309.229,454.9034 311.1133,454.9034 Q311.9683,454.9034 312.8232,455.0984 Q313.6782,455.2935 314.5166,455.6753 L314.5166,458.066 Q313.728,457.5098 312.9146,457.2193 Q312.1011,456.9288 311.3042,456.9288 Q310.416,456.9288 309.9429,457.2857 Q309.4697,457.6426 309.4697,458.3067 Q309.4697,458.8213 309.8142,459.1575 Q310.1587,459.4937 311.2544,459.9004 L312.3086,460.2989 Q313.8027,460.8467 314.5083,461.7515 Q315.2139,462.6563 315.2139,464.0342 Q315.2139,465.9102 314.1057,466.8357 Q312.9976,467.7613 310.7563,467.7613 Q309.835,467.7613 308.9094,467.5413 Q307.9839,467.3213 307.1206,466.8897 L307.1206,464.3579 Q308.1001,465.0552 309.0173,465.3955 Q309.9346,465.7359 310.8311,465.7359 Q311.7358,465.7359 312.2339,465.325 Q312.7319,464.9141 312.7319,464.1753 Q312.7319,463.6192 312.3999,463.2 Q312.0679,462.7808 311.437,462.5401 Z " fill="#000000"/><text fill="#000000" font-family="sans-serif" font-size="12" font-style="italic" lengthAdjust="spacing" textLength="44" x="342" y="457.3116">&#171;Struct&#187;</text><text fill="#000000" font-family="sans-serif" font-size="14" lengthAdjust="spacing" textLength="79" x="324.5" y="473.378">mrbs_room</text><line style="stroke:#181818;stroke-width:0.5;" x1="296.5" x2="405.5" y1="481.3311" y2="481.3311"/><line style="stroke:#181818;stroke-width:0.5;" x1="296.5" x2="405.5" y1="489.3311" y2="489.3311"/></g><!--class mrbs_entry--><g id="elem_mrbs_entry"><rect codeLine="28" fill="#F1F1F1" height="56.6211" id="mrbs_entry" rx="2.5" ry="2.5" style="stroke:#181818;stroke-width:0.5;" width="109" x="441.5" y="440.71"/><ellipse cx="456.5" cy="461.0205" fill="#FF7700" rx="11" ry="11" style="stroke:#181818;stroke-width:1.0;"/><path d="M456.2334,462.0835 Q454.3823,461.378 453.7266,460.6018 Q453.0708,459.8257 453.0708,458.5142 Q453.0708,456.8291 454.1499,455.8663 Q455.229,454.9034 457.1133,454.9034 Q457.9683,454.9034 458.8232,455.0984 Q459.6782,455.2935 460.5166,455.6753 L460.5166,458.066 Q459.728,457.5098 458.9146,457.2193 Q458.1011,456.9288 457.3042,456.9288 Q456.416,456.9288 455.9429,457.2857 Q455.4697,457.6426 455.4697,458.3067 Q455.4697,458.8213 455.8142,459.1575 Q456.1587,459.4937 457.2544,459.9004 L458.3086,460.2989 Q459.8027,460.8467 460.5083,461.7515 Q461.2139,462.6563 461.2139,464.0342 Q461.2139,465.9102 460.1057,466.8357 Q458.9976,467.7613 456.7563,467.7613 Q455.835,467.7613 454.9094,467.5413 Q453.9839,467.3213 453.1206,466.8897 L453.1206,464.3579 Q454.1001,465.0552 455.0173,465.3955 Q455.9346,465.7359 456.8311,465.7359 Q457.7358,465.7359 458.2339,465.325 Q458.7319,464.9141 458.7319,464.1753 Q458.7319,463.6192 458.3999,463.2 Q458.0679,462.7808 457.437,462.5401 Z " fill="#000000"/><text fill="#000000" font-family="sans-serif" font-size="12" font-style="italic" lengthAdjust="spacing" textLength="44" x="487" y="457.3116">&#171;Struct&#187;</text><text fill="#000000" font-family="sans-serif" font-size="14" lengthAdjust="spacing" textLength="77" x="470.5" y="473.378">mrbs_entry</text><line style="stroke:#181818;stroke-width:0.5;" x1="442.5" x2="549.5" y1="481.3311" y2="481.3311"/><line style="stroke:#181818;stroke-width:0.5;" x1="442.5" x2="549.5" y1="489.3311" y2="489.3311"/></g><!--class mrbs_participants--><g id="elem_mrbs_participants"><rect codeLine="29" fill="#F1F1F1" height="56.6211" id="mrbs_participants" rx="2.5" ry="2.5" style="stroke:#181818;stroke-width:0.5;" width="155" x="585.5" y="440.71"/><ellipse cx="600.5" cy="461.0205" fill="#FF7700" rx="11" ry="11" style="stroke:#181818;stroke-width:1.0;"/><path d="M600.2334,462.0835 Q598.3823,461.378 597.7266,460.6018 Q597.0708,459.8257 597.0708,458.5142 Q597.0708,456.8291 598.1499,455.8663 Q599.229,454.9034 601.1133,454.9034 Q601.9683,454.9034 602.8232,455.0984 Q603.6782,455.2935 604.5166,455.6753 L604.5166,458.066 Q603.728,457.5098 602.9146,457.2193 Q602.1011,456.9288 601.3042,456.9288 Q600.416,456.9288 599.9429,457.2857 Q599.4697,457.6426 599.4697,458.3067 Q599.4697,458.8213 599.8142,459.1575 Q600.1587,459.4937 601.2544,459.9004 L602.3086,460.2989 Q603.8027,460.8467 604.5083,461.7515 Q605.2139,462.6563 605.2139,464.0342 Q605.2139,465.9102 604.1057,466.8357 Q602.9976,467.7613 600.7563,467.7613 Q599.835,467.7613 598.9094,467.5413 Q597.9839,467.3213 597.1206,466.8897 L597.1206,464.3579 Q598.1001,465.0552 599.0173,465.3955 Q599.9346,465.7359 600.8311,465.7359 Q601.7358,465.7359 602.2339,465.325 Q602.7319,464.9141 602.7319,464.1753 Q602.7319,463.6192 602.3999,463.2 Q602.0679,462.7808 601.437,462.5401 Z " fill="#000000"/><text fill="#000000" font-family="sans-serif" font-size="12" font-style="italic" lengthAdjust="spacing" textLength="44" x="654" y="457.3116">&#171;Struct&#187;</text><text fill="#000000" font-family="sans-serif" font-size="14" lengthAdjust="spacing" textLength="123" x="614.5" y="473.378">mrbs_participants</text><line style="stroke:#181818;stroke-width:0.5;" x1="586.5" x2="739.5" y1="481.3311" y2="481.3311"/><line style="stroke:#181818;stroke-width:0.5;" x1="586.5" x2="739.5" y1="489.3311" y2="489.3311"/></g><!--link BeamBackendConnector to read--><g id="link_BeamBackendConnector_read"><path codeLine="33" d="M562.79,189.59 C495.74,212.77 408.14,243.06 336.89,267.69 " fill="none" id="BeamBackendConnector-read" style="stroke:#181818;stroke-width:1.0;"/><text fill="#000000" font-family="sans-serif" font-size="13" lengthAdjust="spacing" textLength="22" x="466" y="234.6784">use</text></g><!--link BeamBackendConnector to create--><g id="link_BeamBackendConnector_create"><path codeLine="34" d="M667,189.49 C667,212.67 667,242.98 667,267.64 " fill="none" id="BeamBackendConnector-create" style="stroke:#181818;stroke-width:1.0;"/><text fill="#000000" font-family="sans-serif" font-size="13" lengthAdjust="spacing" textLength="22" x="668" y="234.6784">use</text></g><!--link BeamBackendConnector to delete--><g id="link_BeamBackendConnector_delete"><path codeLine="35" d="M759.38,189.59 C825.6,215.42 914.43,250.06 980.65,275.89 " fill="none" id="BeamBackendConnector-delete" style="stroke:#181818;stroke-width:1.0;"/><text fill="#000000" font-family="sans-serif" font-size="13" lengthAdjust="spacing" textLength="22" x="883" y="234.6784">use</text></g><!--link read to mrbs_area--><g id="link_read_mrbs_area"><path codeLine="36" d="M209,358.07 C209,384.58 209,417.47 209,440.34 " fill="none" id="read-mrbs_area" style="stroke:#181818;stroke-width:1.0;"/></g><!--link read to mrbs_room--><g id="link_read_mrbs_room"><path codeLine="37" d="M249.69,358.07 C274.11,384.58 304.43,417.47 325.5,440.34 " fill="none" id="read-mrbs_room" style="stroke:#181818;stroke-width:1.0;"/></g><!--link read to mrbs_entry--><g id="link_read_mrbs_entry"><path codeLine="38" d="M346.95,358.16 C373.48,369.27 400.35,382.46 424,397.71 C442.06,409.35 459.39,426.04 472.52,440.23 " fill="none" id="read-mrbs_entry" style="stroke:#181818;stroke-width:1.0;"/></g><!--link read to mrbs_participants--><g id="link_read_mrbs_participants"><path codeLine="39" d="M327.53,358.13 C355.26,367.12 384.91,375.67 413,381.71 C480.71,396.27 503.43,372.67 568,397.71 C592.68,407.28 616.61,425.06 634.28,440.34 " fill="none" id="read-mrbs_participants" style="stroke:#181818;stroke-width:1.0;"/></g><!--link create to mrbs_participants--><g id="link_create_mrbs_participants"><path codeLine="40" d="M665.85,358.07 C665.17,384.58 664.31,417.47 663.72,440.34 " fill="none" id="create-mrbs_participants" style="stroke:#181818;stroke-width:1.0;"/></g><!--link create to mrbs_entry--><g id="link_create_mrbs_entry"><path codeLine="41" d="M613.48,358.02 C598.57,370.63 582.49,384.53 568,397.71 C552.88,411.46 536.54,427.33 523.25,440.51 " fill="none" id="create-mrbs_entry" style="stroke:#181818;stroke-width:1.0;"/></g><!--link delete to mrbs_participants--><g id="link_delete_mrbs_participants"><path codeLine="42" d="M996.28,349.86 C972.37,360.6 945.77,372.07 921,381.71 C861.25,404.97 792.32,427.83 740.75,444.17 " fill="none" id="delete-mrbs_participants" style="stroke:#181818;stroke-width:1.0;"/></g><!--SRC=[bPFVQy8m4CVV-rSS3APb5jo42KM4kU6Rx47OQud9KJ9jKfBK8QF_-wvfTUtiHFFG7ydtc_laxf8plcKfWj65GmkpsKgBOeTsFeVl06Zm7RCM3391Yp1SZU3k-MNoE1w7K4jFoYZohmT8qILwZsOlyIiHx30Kcn7mmZgTqLyCxxcJMitMpaYLpaFlye-o5P5JI8TNnyorTScdbifedVc0g9mv95B482TF8oWicaIn34FeirZlgRv-BGHhO_X0VaHjxt86B727Dm3NyYHdnaakSwRSENKxIDuKAjEYfqg_60jasOAqgCIhLWgvqyP3hGbgkPnEAoWwJy5Tnzs2EmvAaT4ShKqSirl2Y-7-ZJcsOHQRlQcEuSbJDhX16HnfwJZIIMgiTZDbPcCJHlMzm5N-rLUbkKNl4tcBeLK9Uz571nmCg2tCHYfHg1I2tfn7aRyrSTKp_ohgBh-iQHgh5lcBI9Ed77PdgYnrPtmUkbFjamRDFRjchTwgmUar_000]--></g></svg>