<?xml version="1.0" encoding="UTF-8" standalone="no"?><svg xmlns="http://www.w3.org/2000/svg" xmlns:xlink="http://www.w3.org/1999/xlink" contentStyleType="text/css" height="1001px" preserveAspectRatio="none" style="width:1267px;height:1001px;background:#FFFFFF;" version="1.1" viewBox="0 0 1267 1001" width="1267px" zoomAndPan="magnify"><defs/><g><!--MD5=[45f9ad77edf46c81c946c0e83e3b2b53]
class SewMotor--><g id="elem_SewMotor"><rect codeLine="1" fill="#F1F1F1" height="400.1875" id="SewMotor" rx="2.5" ry="2.5" style="stroke:#181818;stroke-width:0.5;" width="842" x="418" y="133"/><ellipse cx="803.75" cy="149" fill="#ADD1B2" rx="11" ry="11" style="stroke:#181818;stroke-width:1.0;"/><path d="M806.5156,144.875 Q806.6719,144.6563 806.8594,144.5469 Q807.0469,144.4375 807.2656,144.4375 Q807.6406,144.4375 807.875,144.7031 Q808.1094,144.9531 808.1094,145.5625 L808.1094,147.0156 Q808.1094,147.625 807.875,147.8906 Q807.6406,148.1563 807.2656,148.1563 Q806.9219,148.1563 806.7188,147.9531 Q806.5156,147.7656 806.4063,147.25 Q806.3594,146.8906 806.1719,146.7031 Q805.8438,146.3281 805.2344,146.1094 Q804.625,145.8906 804,145.8906 Q803.2344,145.8906 802.5938,146.2188 Q801.9688,146.5469 801.4688,147.2969 Q800.9844,148.0469 800.9844,149.0781 L800.9844,150.1719 Q800.9844,151.4063 801.875,152.2344 Q802.7656,153.0469 804.3594,153.0469 Q805.2969,153.0469 805.9531,152.7969 Q806.3438,152.6406 806.7656,152.2031 Q807.0313,151.9375 807.1719,151.8594 Q807.3281,151.7813 807.5313,151.7813 Q807.8594,151.7813 808.1094,152.0469 Q808.375,152.2969 808.375,152.6406 Q808.375,152.9844 808.0313,153.3906 Q807.5313,153.9688 806.7344,154.2969 Q805.6563,154.75 804.3594,154.75 Q802.8438,154.75 801.6406,154.125 Q800.6563,153.625 799.9688,152.5625 Q799.2813,151.4844 799.2813,150.2031 L799.2813,149.0469 Q799.2813,147.7188 799.8906,146.5781 Q800.5156,145.4219 801.6094,144.8125 Q802.7031,144.1875 803.9375,144.1875 Q804.6719,144.1875 805.3125,144.3594 Q805.9688,144.5156 806.5156,144.875 Z " fill="#000000"/><text fill="#000000" font-family="sans-serif" font-size="14" lengthAdjust="spacing" textLength="62" x="824.25" y="154.7285">SewMotor</text><line style="stroke:#181818;stroke-width:0.5;" x1="419" x2="1259" y1="165" y2="165"/><rect fill="none" height="6" style="stroke:#C82930;stroke-width:1.0;" width="6" x="426" y="176.3047"/><text fill="#000000" font-family="sans-serif" font-size="14" lengthAdjust="spacing" textLength="101" x="438" y="183.5332">drehzahl:double</text><rect fill="none" height="6" style="stroke:#C82930;stroke-width:1.0;" width="6" x="426" y="193.9141"/><text fill="#000000" font-family="sans-serif" font-size="14" lengthAdjust="spacing" textLength="126" x="438" y="201.1426">drehmoment:double</text><rect fill="none" height="6" style="stroke:#C82930;stroke-width:1.0;" width="6" x="426" y="211.5234"/><text fill="#000000" font-family="sans-serif" font-size="14" lengthAdjust="spacing" textLength="110" x="438" y="218.752">spannung:double</text><rect fill="none" height="6" style="stroke:#C82930;stroke-width:1.0;" width="6" x="426" y="229.1328"/><text fill="#000000" font-family="sans-serif" font-size="14" lengthAdjust="spacing" textLength="82" x="438" y="236.3613">strom:double</text><rect fill="none" height="6" style="stroke:#C82930;stroke-width:1.0;" width="6" x="426" y="246.7422"/><text fill="#000000" font-family="sans-serif" font-size="14" lengthAdjust="spacing" textLength="69" x="438" y="253.9707">cos:double</text><rect fill="none" height="6" style="stroke:#C82930;stroke-width:1.0;" width="6" x="426" y="264.3516"/><text fill="#000000" font-family="sans-serif" font-size="14" lengthAdjust="spacing" textLength="220" x="438" y="271.5801">uebersetzungDesGetriebes:double</text><line style="stroke:#181818;stroke-width:1.0;" x1="419" x2="1259" y1="278.6563" y2="278.6563"/><ellipse cx="429" cy="292.9609" fill="#84BE84" rx="3" ry="3" style="stroke:#038048;stroke-width:1.0;"/><text fill="#000000" font-family="sans-serif" font-size="14" lengthAdjust="spacing" textLength="816" x="438" y="297.1895">SewMotor(double drehzahl, double drehmoment, double spannung, double strom, double cos,double uebersetzungDesGetriebes)</text><ellipse cx="429" cy="310.5703" fill="#84BE84" rx="3" ry="3" style="stroke:#038048;stroke-width:1.0;"/><text fill="#000000" font-family="sans-serif" font-size="14" lengthAdjust="spacing" textLength="72" x="438" y="314.7988">SewMotor()</text><ellipse cx="429" cy="328.1797" fill="#84BE84" rx="3" ry="3" style="stroke:#038048;stroke-width:1.0;"/><text fill="#000000" font-family="sans-serif" font-size="14" lengthAdjust="spacing" textLength="166" x="438" y="332.4082">getDrehmoment() : double</text><ellipse cx="429" cy="345.7891" fill="#84BE84" rx="3" ry="3" style="stroke:#038048;stroke-width:1.0;"/><text fill="#000000" font-family="sans-serif" font-size="14" lengthAdjust="spacing" textLength="110" x="438" y="350.0176">getCos() : double</text><ellipse cx="429" cy="363.3984" fill="#84BE84" rx="3" ry="3" style="stroke:#038048;stroke-width:1.0;"/><text fill="#000000" font-family="sans-serif" font-size="14" lengthAdjust="spacing" textLength="242" x="438" y="367.627">getDrehzahl(double drehzahl) : double</text><ellipse cx="429" cy="381.0078" fill="#84BE84" rx="3" ry="3" style="stroke:#038048;stroke-width:1.0;"/><text fill="#000000" font-family="sans-serif" font-size="14" lengthAdjust="spacing" textLength="260" x="438" y="385.2363">getSpannung(double spannung) : double</text><ellipse cx="429" cy="398.6172" fill="#84BE84" rx="3" ry="3" style="stroke:#038048;stroke-width:1.0;"/><text fill="#000000" font-family="sans-serif" font-size="14" lengthAdjust="spacing" textLength="204" x="438" y="402.8457">getStrom(double strom) : double</text><ellipse cx="429" cy="416.2266" fill="none" rx="3" ry="3" style="stroke:#038048;stroke-width:1.0;"/><text fill="#000000" font-family="sans-serif" font-size="14" lengthAdjust="spacing" textLength="228" x="438" y="420.4551">uebersetzungDesGetriebes : double</text><ellipse cx="429" cy="433.8359" fill="#84BE84" rx="3" ry="3" style="stroke:#038048;stroke-width:1.0;"/><text fill="#000000" font-family="sans-serif" font-size="14" lengthAdjust="spacing" textLength="123" x="438" y="438.0645">setCos(double cos)</text><ellipse cx="429" cy="451.4453" fill="#84BE84" rx="3" ry="3" style="stroke:#038048;stroke-width:1.0;"/><text fill="#000000" font-family="sans-serif" font-size="14" lengthAdjust="spacing" textLength="238" x="438" y="455.6738">setDrehmoment(double Drehmoment)</text><ellipse cx="429" cy="469.0547" fill="#84BE84" rx="3" ry="3" style="stroke:#038048;stroke-width:1.0;"/><text fill="#000000" font-family="sans-serif" font-size="14" lengthAdjust="spacing" textLength="188" x="438" y="473.2832">setDrehzahl(double Drehzahl)</text><ellipse cx="429" cy="486.6641" fill="#84BE84" rx="3" ry="3" style="stroke:#038048;stroke-width:1.0;"/><text fill="#000000" font-family="sans-serif" font-size="14" lengthAdjust="spacing" textLength="206" x="438" y="490.8926">setSpannung(double Spannung)</text><ellipse cx="429" cy="504.2734" fill="#84BE84" rx="3" ry="3" style="stroke:#038048;stroke-width:1.0;"/><text fill="#000000" font-family="sans-serif" font-size="14" lengthAdjust="spacing" textLength="150" x="438" y="508.502">setStrom(double Strom)</text><ellipse cx="429" cy="521.8828" fill="#84BE84" rx="3" ry="3" style="stroke:#038048;stroke-width:1.0;"/><text fill="#000000" font-family="sans-serif" font-size="14" lengthAdjust="spacing" textLength="424" x="438" y="526.1113">setUebersetzungDesGetriebes(double UebersetzungDesGetriebes)</text></g><!--MD5=[7a6f890cfc9c01de7024a66729eb2ff9]
class Formeln--><g id="elem_Formeln"><rect codeLine="25" fill="#F1F1F1" height="400.1875" id="Formeln" rx="2.5" ry="2.5" style="stroke:#181818;stroke-width:0.5;" width="691" x="170.5" y="594"/><ellipse cx="485.75" cy="610" fill="#ADD1B2" rx="11" ry="11" style="stroke:#181818;stroke-width:1.0;"/><path d="M488.5156,605.875 Q488.6719,605.6563 488.8594,605.5469 Q489.0469,605.4375 489.2656,605.4375 Q489.6406,605.4375 489.875,605.7031 Q490.1094,605.9531 490.1094,606.5625 L490.1094,608.0156 Q490.1094,608.625 489.875,608.8906 Q489.6406,609.1563 489.2656,609.1563 Q488.9219,609.1563 488.7188,608.9531 Q488.5156,608.7656 488.4063,608.25 Q488.3594,607.8906 488.1719,607.7031 Q487.8438,607.3281 487.2344,607.1094 Q486.625,606.8906 486,606.8906 Q485.2344,606.8906 484.5938,607.2188 Q483.9688,607.5469 483.4688,608.2969 Q482.9844,609.0469 482.9844,610.0781 L482.9844,611.1719 Q482.9844,612.4063 483.875,613.2344 Q484.7656,614.0469 486.3594,614.0469 Q487.2969,614.0469 487.9531,613.7969 Q488.3438,613.6406 488.7656,613.2031 Q489.0313,612.9375 489.1719,612.8594 Q489.3281,612.7813 489.5313,612.7813 Q489.8594,612.7813 490.1094,613.0469 Q490.375,613.2969 490.375,613.6406 Q490.375,613.9844 490.0313,614.3906 Q489.5313,614.9688 488.7344,615.2969 Q487.6563,615.75 486.3594,615.75 Q484.8438,615.75 483.6406,615.125 Q482.6563,614.625 481.9688,613.5625 Q481.2813,612.4844 481.2813,611.2031 L481.2813,610.0469 Q481.2813,608.7188 481.8906,607.5781 Q482.5156,606.4219 483.6094,605.8125 Q484.7031,605.1875 485.9375,605.1875 Q486.6719,605.1875 487.3125,605.3594 Q487.9688,605.5156 488.5156,605.875 Z " fill="#000000"/><text fill="#000000" font-family="sans-serif" font-size="14" lengthAdjust="spacing" textLength="52" x="506.25" y="615.7285">Formeln</text><line style="stroke:#181818;stroke-width:0.5;" x1="171.5" x2="860.5" y1="626" y2="626"/><rect fill="none" height="6" style="stroke:#C82930;stroke-width:1.0;" width="6" x="178.5" y="637.3047"/><text fill="#000000" font-family="sans-serif" font-size="14" lengthAdjust="spacing" textLength="190" x="190.5" y="644.5332">leistungsaufnahme:double 0.0</text><rect fill="none" height="6" style="stroke:#C82930;stroke-width:1.0;" width="6" x="178.5" y="654.9141"/><text fill="#000000" font-family="sans-serif" font-size="14" lengthAdjust="spacing" textLength="175" x="190.5" y="662.1426">leistungsabgabe:double 0.0</text><rect fill="none" height="6" style="stroke:#C82930;stroke-width:1.0;" width="6" x="178.5" y="672.5234"/><text fill="#000000" font-family="sans-serif" font-size="14" lengthAdjust="spacing" textLength="162" x="190.5" y="679.752">verlustleistung:double 0.0</text><rect fill="none" height="6" style="stroke:#C82930;stroke-width:1.0;" width="6" x="178.5" y="690.1328"/><text fill="#000000" font-family="sans-serif" font-size="14" lengthAdjust="spacing" textLength="155" x="190.5" y="697.3613">wirkungsgrad:double 0.0</text><line style="stroke:#181818;stroke-width:1.0;" x1="171.5" x2="860.5" y1="704.4375" y2="704.4375"/><ellipse cx="181.5" cy="718.7422" fill="#84BE84" rx="3" ry="3" style="stroke:#038048;stroke-width:1.0;"/><text fill="#000000" font-family="sans-serif" font-size="14" lengthAdjust="spacing" textLength="445" x="190.5" y="722.9707">berechneLeistungsaufnahme(double spannung, double strom): double</text><ellipse cx="181.5" cy="736.3516" fill="#84BE84" rx="3" ry="3" style="stroke:#038048;stroke-width:1.0;"/><text fill="#000000" font-family="sans-serif" font-size="14" lengthAdjust="spacing" textLength="665" x="190.5" y="740.5801">berechneLeistungsabgabe(double drehmoment, double drehzahl, double uebersetzungGetriebe) : double</text><ellipse cx="181.5" cy="753.9609" fill="#84BE84" rx="3" ry="3" style="stroke:#038048;stroke-width:1.0;"/><text fill="#000000" font-family="sans-serif" font-size="14" lengthAdjust="spacing" textLength="218" x="190.5" y="758.1895">berechneVerlustleistung() : double</text><ellipse cx="181.5" cy="771.5703" fill="#84BE84" rx="3" ry="3" style="stroke:#038048;stroke-width:1.0;"/><text fill="#000000" font-family="sans-serif" font-size="14" lengthAdjust="spacing" textLength="272" x="190.5" y="775.7988">berechneWirkungsgradInProzent() : double</text><ellipse cx="181.5" cy="789.1797" fill="#84BE84" rx="3" ry="3" style="stroke:#038048;stroke-width:1.0;"/><text fill="#000000" font-family="sans-serif" font-size="14" lengthAdjust="spacing" textLength="502" x="190.5" y="793.4082">berechneStromNeu(double drehmoment, double spannung, double cos) : String</text><ellipse cx="181.5" cy="806.7891" fill="#84BE84" rx="3" ry="3" style="stroke:#038048;stroke-width:1.0;"/><text fill="#000000" font-family="sans-serif" font-size="14" lengthAdjust="spacing" textLength="521" x="190.5" y="811.0176">berechneDrehzahlNeu(double drehmoment, double spannung, double cos) : String</text><ellipse cx="181.5" cy="824.3984" fill="#84BE84" rx="3" ry="3" style="stroke:#038048;stroke-width:1.0;"/><text fill="#000000" font-family="sans-serif" font-size="14" lengthAdjust="spacing" textLength="209" x="190.5" y="828.627">getLeistungsaufnahme() : double</text><ellipse cx="181.5" cy="842.0078" fill="#84BE84" rx="3" ry="3" style="stroke:#038048;stroke-width:1.0;"/><text fill="#000000" font-family="sans-serif" font-size="14" lengthAdjust="spacing" textLength="357" x="190.5" y="846.2363">setLeistungsaufnahme(double leistungsaufnahme) : void</text><ellipse cx="181.5" cy="859.6172" fill="#84BE84" rx="3" ry="3" style="stroke:#038048;stroke-width:1.0;"/><text fill="#000000" font-family="sans-serif" font-size="14" lengthAdjust="spacing" textLength="194" x="190.5" y="863.8457">getLeistungsabgabe() : double</text><ellipse cx="181.5" cy="877.2266" fill="#84BE84" rx="3" ry="3" style="stroke:#038048;stroke-width:1.0;"/><text fill="#000000" font-family="sans-serif" font-size="14" lengthAdjust="spacing" textLength="327" x="190.5" y="881.4551">setLeistungsabgabe(double leistungsabgabe) : void</text><ellipse cx="181.5" cy="894.8359" fill="#84BE84" rx="3" ry="3" style="stroke:#038048;stroke-width:1.0;"/><text fill="#000000" font-family="sans-serif" font-size="14" lengthAdjust="spacing" textLength="178" x="190.5" y="899.0645">getVerlustleistung() : double</text><ellipse cx="181.5" cy="912.4453" fill="#84BE84" rx="3" ry="3" style="stroke:#038048;stroke-width:1.0;"/><text fill="#000000" font-family="sans-serif" font-size="14" lengthAdjust="spacing" textLength="363" x="190.5" y="916.6738">setVerlustleistung(double verlustleistung) : verlustleistung</text><ellipse cx="181.5" cy="930.0547" fill="#84BE84" rx="3" ry="3" style="stroke:#038048;stroke-width:1.0;"/><text fill="#000000" font-family="sans-serif" font-size="14" lengthAdjust="spacing" textLength="173" x="190.5" y="934.2832">getWirkungsgrad() : double</text><ellipse cx="181.5" cy="947.6641" fill="#84BE84" rx="3" ry="3" style="stroke:#038048;stroke-width:1.0;"/><text fill="#000000" font-family="sans-serif" font-size="14" lengthAdjust="spacing" textLength="248" x="190.5" y="951.8926">setWirkungsgrad(double wirkungsgrad)</text><ellipse cx="181.5" cy="965.2734" fill="#84BE84" rx="3" ry="3" style="stroke:#038048;stroke-width:1.0;"/><text fill="#000000" font-family="sans-serif" font-size="14" lengthAdjust="spacing" textLength="227" x="190.5" y="969.502">getUebersetzungGetriebe() : double</text><ellipse cx="181.5" cy="982.8828" fill="#84BE84" rx="3" ry="3" style="stroke:#038048;stroke-width:1.0;"/><text fill="#000000" font-family="sans-serif" font-size="14" lengthAdjust="spacing" textLength="414" x="190.5" y="987.1113">setUebersetzungGetriebe(double uebersetzungGetriebe) : double</text></g><!--MD5=[19ad7998796bffc86dd501cbb7371740]
class DrehstrommotorGUI--><g id="elem_DrehstrommotorGUI"><rect codeLine="48" fill="#F1F1F1" height="329.75" id="DrehstrommotorGUI" rx="2.5" ry="2.5" style="stroke:#181818;stroke-width:0.5;" width="376" x="7" y="168"/><ellipse cx="128.25" cy="184" fill="#ADD1B2" rx="11" ry="11" style="stroke:#181818;stroke-width:1.0;"/><path d="M131.0156,179.875 Q131.1719,179.6563 131.3594,179.5469 Q131.5469,179.4375 131.7656,179.4375 Q132.1406,179.4375 132.375,179.7031 Q132.6094,179.9531 132.6094,180.5625 L132.6094,182.0156 Q132.6094,182.625 132.375,182.8906 Q132.1406,183.1563 131.7656,183.1563 Q131.4219,183.1563 131.2188,182.9531 Q131.0156,182.7656 130.9063,182.25 Q130.8594,181.8906 130.6719,181.7031 Q130.3438,181.3281 129.7344,181.1094 Q129.125,180.8906 128.5,180.8906 Q127.7344,180.8906 127.0938,181.2188 Q126.4688,181.5469 125.9688,182.2969 Q125.4844,183.0469 125.4844,184.0781 L125.4844,185.1719 Q125.4844,186.4063 126.375,187.2344 Q127.2656,188.0469 128.8594,188.0469 Q129.7969,188.0469 130.4531,187.7969 Q130.8438,187.6406 131.2656,187.2031 Q131.5313,186.9375 131.6719,186.8594 Q131.8281,186.7813 132.0313,186.7813 Q132.3594,186.7813 132.6094,187.0469 Q132.875,187.2969 132.875,187.6406 Q132.875,187.9844 132.5313,188.3906 Q132.0313,188.9688 131.2344,189.2969 Q130.1563,189.75 128.8594,189.75 Q127.3438,189.75 126.1406,189.125 Q125.1563,188.625 124.4688,187.5625 Q123.7813,186.4844 123.7813,185.2031 L123.7813,184.0469 Q123.7813,182.7188 124.3906,181.5781 Q125.0156,180.4219 126.1094,179.8125 Q127.2031,179.1875 128.4375,179.1875 Q129.1719,179.1875 129.8125,179.3594 Q130.4688,179.5156 131.0156,179.875 Z " fill="#000000"/><text fill="#000000" font-family="sans-serif" font-size="14" lengthAdjust="spacing" textLength="125" x="148.75" y="189.7285">DrehstrommotorGUI</text><line style="stroke:#181818;stroke-width:0.5;" x1="8" x2="382" y1="200" y2="200"/><rect fill="none" height="6" style="stroke:#C82930;stroke-width:1.0;" width="6" x="15" y="211.3047"/><text fill="#000000" font-family="sans-serif" font-size="14" lengthAdjust="spacing" text-decoration="underline" textLength="350" x="27" y="218.5332">final long serialVersionUID = -6761992379885266899L;</text><rect fill="none" height="6" style="stroke:#C82930;stroke-width:1.0;" width="6" x="15" y="228.9141"/><text fill="#000000" font-family="sans-serif" font-size="14" lengthAdjust="spacing" textLength="134" x="27" y="236.1426">contentPane : JPanel</text><rect fill="none" height="6" style="stroke:#C82930;stroke-width:1.0;" width="6" x="15" y="246.5234"/><text fill="#000000" font-family="sans-serif" font-size="14" lengthAdjust="spacing" textLength="139" x="27" y="253.752">txtAbgabe : JTextField</text><rect fill="none" height="6" style="stroke:#C82930;stroke-width:1.0;" width="6" x="15" y="264.1328"/><text fill="#000000" font-family="sans-serif" font-size="14" lengthAdjust="spacing" textLength="154" x="27" y="271.3613">txtAufnahme : JTextField</text><rect fill="none" height="6" style="stroke:#C82930;stroke-width:1.0;" width="6" x="15" y="281.7422"/><text fill="#000000" font-family="sans-serif" font-size="14" lengthAdjust="spacing" textLength="134" x="27" y="288.9707">txtVerlust : JTextField</text><rect fill="none" height="6" style="stroke:#C82930;stroke-width:1.0;" width="6" x="15" y="299.3516"/><text fill="#000000" font-family="sans-serif" font-size="14" lengthAdjust="spacing" textLength="178" x="27" y="306.5801">txtWirkungsgrad : JTextField</text><rect fill="none" height="6" style="stroke:#C82930;stroke-width:1.0;" width="6" x="15" y="316.9609"/><text fill="#000000" font-family="sans-serif" font-size="14" lengthAdjust="spacing" textLength="149" x="27" y="324.1895">txtNennwert : JTextField</text><rect fill="none" height="6" style="stroke:#C82930;stroke-width:1.0;" width="6" x="15" y="334.5703"/><text fill="#000000" font-family="sans-serif" font-size="14" lengthAdjust="spacing" textLength="187" x="27" y="341.7988">txtStromInAmpere : JTextField</text><rect fill="none" height="6" style="stroke:#C82930;stroke-width:1.0;" width="6" x="15" y="352.1797"/><text fill="#000000" font-family="sans-serif" font-size="14" lengthAdjust="spacing" textLength="146" x="27" y="359.4082">txtDrehzahl : JTextField</text><rect fill="none" height="6" style="stroke:#C82930;stroke-width:1.0;" width="6" x="15" y="369.7891"/><text fill="#000000" font-family="sans-serif" font-size="14" lengthAdjust="spacing" textLength="144" x="27" y="377.0176">inputStrom : JTextField</text><rect fill="none" height="6" style="stroke:#C82930;stroke-width:1.0;" width="6" x="15" y="387.3984"/><text fill="#000000" font-family="sans-serif" font-size="14" lengthAdjust="spacing" textLength="172" x="27" y="394.627">inputSpannung : JTextField</text><rect fill="none" height="6" style="stroke:#C82930;stroke-width:1.0;" width="6" x="15" y="405.0078"/><text fill="#000000" font-family="sans-serif" font-size="14" lengthAdjust="spacing" textLength="163" x="27" y="412.2363">inputDrehzahl : JTextField</text><rect fill="none" height="6" style="stroke:#C82930;stroke-width:1.0;" width="6" x="15" y="422.6172"/><text fill="#000000" font-family="sans-serif" font-size="14" lengthAdjust="spacing" textLength="188" x="27" y="429.8457">inputDrehmoment : JTextField</text><rect fill="none" height="6" style="stroke:#C82930;stroke-width:1.0;" width="6" x="15" y="440.2266"/><text fill="#000000" font-family="sans-serif" font-size="14" lengthAdjust="spacing" textLength="132" x="27" y="447.4551">inputCos : JTextField</text><rect fill="none" height="6" style="stroke:#C82930;stroke-width:1.0;" width="6" x="15" y="457.8359"/><text fill="#000000" font-family="sans-serif" font-size="14" lengthAdjust="spacing" textLength="162" x="27" y="465.0645">inputGetriebe : JTextField</text><line style="stroke:#181818;stroke-width:1.0;" x1="8" x2="382" y1="472.1406" y2="472.1406"/><text fill="#000000" font-family="sans-serif" font-size="14" lengthAdjust="spacing" textLength="135" x="13" y="490.6738">DrehstrommotorGUI()</text></g><!--MD5=[a520837ef4416b7ac44f8bb1541877a6]
class JFrame--><g id="elem_JFrame"><rect codeLine="67" fill="#F1F1F1" height="48" id="JFrame" rx="2.5" ry="2.5" style="stroke:#181818;stroke-width:0.5;" width="79" x="155.5" y="7"/><ellipse cx="170.5" cy="23" fill="#ADD1B2" rx="11" ry="11" style="stroke:#181818;stroke-width:1.0;"/><path d="M173.2656,18.875 Q173.4219,18.6563 173.6094,18.5469 Q173.7969,18.4375 174.0156,18.4375 Q174.3906,18.4375 174.625,18.7031 Q174.8594,18.9531 174.8594,19.5625 L174.8594,21.0156 Q174.8594,21.625 174.625,21.8906 Q174.3906,22.1563 174.0156,22.1563 Q173.6719,22.1563 173.4688,21.9531 Q173.2656,21.7656 173.1563,21.25 Q173.1094,20.8906 172.9219,20.7031 Q172.5938,20.3281 171.9844,20.1094 Q171.375,19.8906 170.75,19.8906 Q169.9844,19.8906 169.3438,20.2188 Q168.7188,20.5469 168.2188,21.2969 Q167.7344,22.0469 167.7344,23.0781 L167.7344,24.1719 Q167.7344,25.4063 168.625,26.2344 Q169.5156,27.0469 171.1094,27.0469 Q172.0469,27.0469 172.7031,26.7969 Q173.0938,26.6406 173.5156,26.2031 Q173.7813,25.9375 173.9219,25.8594 Q174.0781,25.7813 174.2813,25.7813 Q174.6094,25.7813 174.8594,26.0469 Q175.125,26.2969 175.125,26.6406 Q175.125,26.9844 174.7813,27.3906 Q174.2813,27.9688 173.4844,28.2969 Q172.4063,28.75 171.1094,28.75 Q169.5938,28.75 168.3906,28.125 Q167.4063,27.625 166.7188,26.5625 Q166.0313,25.4844 166.0313,24.2031 L166.0313,23.0469 Q166.0313,21.7188 166.6406,20.5781 Q167.2656,19.4219 168.3594,18.8125 Q169.4531,18.1875 170.6875,18.1875 Q171.4219,18.1875 172.0625,18.3594 Q172.7188,18.5156 173.2656,18.875 Z " fill="#000000"/><text fill="#000000" font-family="sans-serif" font-size="14" lengthAdjust="spacing" textLength="47" x="184.5" y="28.7285">JFrame</text><line style="stroke:#181818;stroke-width:0.5;" x1="156.5" x2="233.5" y1="39" y2="39"/><line style="stroke:#181818;stroke-width:0.5;" x1="156.5" x2="233.5" y1="47" y2="47"/></g><!--MD5=[c52eb83ed1a1c3f330864c20877b6fa8]
reverse link JFrame to DrehstrommotorGUI--><g id="link_JFrame_DrehstrommotorGUI"><path codeLine="68" d="M195,60.3 C195,85.99 195,126.12 195,167.72 " fill="none" id="JFrame-backto-DrehstrommotorGUI" style="stroke:#181818;stroke-width:1.0;"/><polygon fill="#181818" points="195,55.04,191,64.04,195,60.04,199,64.04,195,55.04" style="stroke:#181818;stroke-width:1.0;"/><text fill="#000000" font-family="sans-serif" font-size="13" lengthAdjust="spacing" textLength="60" x="196" y="99.4951">«extends»</text></g><!--MD5=[d8e69cfca3719b4d38209b264cce833e]
reverse link SewMotor to Formeln--><g id="link_SewMotor_Formeln"><path codeLine="69" d="M695.75,537.56 C682.59,556.27 669.26,575.21 656.12,593.88 " fill="none" id="SewMotor-backto-Formeln" style="stroke:#181818;stroke-width:1.0;"/><polygon fill="#181818" points="698.74,533.32,690.2806,538.3637,695.8555,537.404,696.8151,542.9789,698.74,533.32" style="stroke:#181818;stroke-width:1.0;"/></g><!--MD5=[56bd5ed11ae77691ec3156065b5302dc]
link DrehstrommotorGUI to Formeln--><g id="link_DrehstrommotorGUI_Formeln"><path codeLine="70" d="M309.76,498.09 C330.51,527.77 352.38,559.04 373.81,589.68 " fill="none" id="DrehstrommotorGUI-to-Formeln" style="stroke:#181818;stroke-width:1.0;"/><polygon fill="#181818" points="376.69,593.8,374.8035,584.1335,373.8217,589.7045,368.2507,588.7227,376.69,593.8" style="stroke:#181818;stroke-width:1.0;"/></g><!--MD5=[d7e7649620d5a1a4bc18e6509b676bcf]
link DrehstrommotorGUI to SewMotor--><g id="link_DrehstrommotorGUI_SewMotor"><path codeLine="71" d="M383.04,333 C392.9,333 402.76,333 412.62,333 " fill="none" id="DrehstrommotorGUI-to-SewMotor" style="stroke:#181818;stroke-width:1.0;"/><polygon fill="#181818" points="417.77,333,408.77,329,412.77,333,408.77,337,417.77,333" style="stroke:#181818;stroke-width:1.0;"/></g><!--MD5=[fff10bff0bee81f037628b5345196e6d]
@startuml
class SewMotor{
    - drehzahl:double 
    - drehmoment:double
    - spannung:double
    - strom:double
    - cos:double
    - uebersetzungDesGetriebes:double
    - -
    + SewMotor(double drehzahl, double drehmoment, double spannung, double strom, double cos,double uebersetzungDesGetriebes)
    + SewMotor()
    + getDrehmoment() : double
    + getCos() : double
    + getDrehzahl(double drehzahl) : double
    + getSpannung(double spannung) : double
    + getStrom(double strom) : double
    + uebersetzungDesGetriebes : double
    + setCos(double cos)
    + setDrehmoment(double Drehmoment)
    + setDrehzahl(double Drehzahl)
    + setSpannung(double Spannung)
    + setStrom(double Strom)
    + setUebersetzungDesGetriebes(double UebersetzungDesGetriebes)
}

class Formeln{
    - leistungsaufnahme:double 0.0
    - leistungsabgabe:double 0.0
    - verlustleistung:double 0.0
    - wirkungsgrad:double 0.0
    - -
    + berechneLeistungsaufnahme(double spannung, double strom): double
    + berechneLeistungsabgabe(double drehmoment, double drehzahl, double uebersetzungGetriebe) : double
    + berechneVerlustleistung() : double
    + berechneWirkungsgradInProzent() : double
    + berechneStromNeu(double drehmoment, double spannung, double cos) : String
    + berechneDrehzahlNeu(double drehmoment, double spannung, double cos) : String
    + getLeistungsaufnahme() : double
    + setLeistungsaufnahme(double leistungsaufnahme) : void
    + getLeistungsabgabe() : double
    + setLeistungsabgabe(double leistungsabgabe) : void
    + getVerlustleistung() : double
    + setVerlustleistung(double verlustleistung) : verlustleistung
    + getWirkungsgrad() : double
    + setWirkungsgrad(double wirkungsgrad)
    + getUebersetzungGetriebe() : double
    + setUebersetzungGetriebe(double uebersetzungGetriebe) : double
}
 class DrehstrommotorGUI {
    - {static} final long serialVersionUID = -6761992379885266899L;
    - contentPane : JPanel 
    - txtAbgabe : JTextField
    - txtAufnahme : JTextField
    - txtVerlust : JTextField
    - txtWirkungsgrad : JTextField
    - txtNennwert : JTextField
    - txtStromInAmpere : JTextField
    - txtDrehzahl : JTextField
    - inputStrom : JTextField
    - inputSpannung : JTextField
    - inputDrehzahl : JTextField
    - inputDrehmoment : JTextField
    - inputCos : JTextField
    - inputGetriebe : JTextField
    - -
    DrehstrommotorGUI() 
 }
 class JFrame {}
 JFrame <- - DrehstrommotorGUI : <<extends>>
 SewMotor  <- - Formeln 
 DrehstrommotorGUI -> Formeln
 DrehstrommotorGUI -> SewMotor

@enduml

PlantUML version 1.2022.7(Mon Aug 22 19:01:30 CEST 2022)
(GPL source distribution)
Java Runtime: OpenJDK Runtime Environment
JVM: OpenJDK 64-Bit Server VM
Default Encoding: UTF-8
Language: de
Country: DE
--></g></svg>