<?xml version="1.0" encoding="us-ascii" standalone="no"?><svg xmlns="http://www.w3.org/2000/svg" xmlns:xlink="http://www.w3.org/1999/xlink" contentStyleType="text/css" height="880px" preserveAspectRatio="none" style="width:1254px;height:880px;background:#FFFFFF;" version="1.1" viewBox="0 0 1254 880" width="1254px" zoomAndPan="magnify"><defs/><g><!--cluster booking_types--><g id="cluster_booking_types"><path d="M8.5,112.97 L114.5,112.97 A3.75,3.75 0 0 1 117,115.47 L124,135.4583 L1244.5,135.4583 A2.5,2.5 0 0 1 1247,137.9583 L1247,871.41 A2.5,2.5 0 0 1 1244.5,873.91 L8.5,873.91 A2.5,2.5 0 0 1 6,871.41 L6,115.47 A2.5,2.5 0 0 1 8.5,112.97 " fill="none" style="stroke:#000000;stroke-width:1.5;"/><line style="stroke:#000000;stroke-width:1.5;" x1="6" x2="124" y1="135.4583" y2="135.4583"/><text fill="#000000" font-family="sans-serif" font-size="14" font-weight="bold" lengthAdjust="spacing" textLength="105" x="10" y="128.5052">booking_types</text></g><!--class EntryRelatedData--><g id="elem_EntryRelatedData"><rect codeLine="6" fill="#F1F1F1" height="106.0859" id="EntryRelatedData" rx="2.5" ry="2.5" style="stroke:#181818;stroke-width:0.5;" width="253" x="50.5" y="569.25"/><ellipse cx="114.25" cy="589.5605" fill="#FF7700" rx="11" ry="11" style="stroke:#181818;stroke-width:1.0;"/><path d="M113.9834,590.6235 Q112.1323,589.918 111.4766,589.1418 Q110.8208,588.3657 110.8208,587.0542 Q110.8208,585.3691 111.8999,584.4062 Q112.979,583.4434 114.8633,583.4434 Q115.7183,583.4434 116.5732,583.6384 Q117.4282,583.8335 118.2666,584.2153 L118.2666,586.606 Q117.478,586.0498 116.6646,585.7593 Q115.8511,585.4687 115.0542,585.4687 Q114.166,585.4687 113.6929,585.8257 Q113.2197,586.1826 113.2197,586.8467 Q113.2197,587.3613 113.5642,587.6975 Q113.9087,588.0337 115.0044,588.4404 L116.0586,588.8389 Q117.5527,589.3867 118.2583,590.2915 Q118.9639,591.1963 118.9639,592.5742 Q118.9639,594.4502 117.8557,595.3757 Q116.7476,596.3013 114.5063,596.3013 Q113.585,596.3013 112.6594,596.0813 Q111.7339,595.8613 110.8706,595.4297 L110.8706,592.8979 Q111.8501,593.5952 112.7673,593.9355 Q113.6846,594.2759 114.5811,594.2759 Q115.4858,594.2759 115.9839,593.865 Q116.4819,593.4541 116.4819,592.7153 Q116.4819,592.1592 116.1499,591.74 Q115.8179,591.3208 115.187,591.0801 Z " fill="#000000"/><text fill="#000000" font-family="sans-serif" font-size="12" font-style="italic" lengthAdjust="spacing" textLength="44" x="171.25" y="585.8516">&#171;Struct&#187;</text><text fill="#000000" font-family="sans-serif" font-size="14" lengthAdjust="spacing" textLength="117" x="134.75" y="601.918">EntryRelatedData</text><line style="stroke:#181818;stroke-width:0.5;" x1="51.5" x2="302.5" y1="609.8711" y2="609.8711"/><ellipse cx="61.5" cy="623.6152" fill="none" rx="3" ry="3" style="stroke:#038048;stroke-width:1.0;"/><text fill="#000000" font-family="sans-serif" font-size="14" lengthAdjust="spacing" textLength="43" x="70.5" y="627.4062">id: i32</text><ellipse cx="61.5" cy="640.1035" fill="none" rx="3" ry="3" style="stroke:#038048;stroke-width:1.0;"/><text fill="#000000" font-family="sans-serif" font-size="14" lengthAdjust="spacing" textLength="124" x="70.5" y="643.8945">area_name: String</text><ellipse cx="61.5" cy="656.5918" fill="none" rx="3" ry="3" style="stroke:#038048;stroke-width:1.0;"/><text fill="#000000" font-family="sans-serif" font-size="14" lengthAdjust="spacing" textLength="227" x="70.5" y="660.3828">rooms: Vec&lt;RoomsRelatedData&gt;</text><line style="stroke:#181818;stroke-width:0.5;" x1="51.5" x2="302.5" y1="667.3359" y2="667.3359"/></g><!--class RoomsRelatedData--><g id="elem_RoomsRelatedData"><rect codeLine="11" fill="#F1F1F1" height="172.0391" id="RoomsRelatedData" rx="2.5" ry="2.5" style="stroke:#181818;stroke-width:0.5;" width="264" x="339" y="536.27"/><ellipse cx="402.25" cy="556.5805" fill="#FF7700" rx="11" ry="11" style="stroke:#181818;stroke-width:1.0;"/><path d="M401.9834,557.6435 Q400.1323,556.938 399.4766,556.1618 Q398.8208,555.3857 398.8208,554.0742 Q398.8208,552.3891 399.8999,551.4263 Q400.979,550.4634 402.8633,550.4634 Q403.7183,550.4634 404.5732,550.6584 Q405.4282,550.8535 406.2666,551.2353 L406.2666,553.626 Q405.478,553.0698 404.6646,552.7793 Q403.8511,552.4888 403.0542,552.4888 Q402.166,552.4888 401.6929,552.8457 Q401.2197,553.2026 401.2197,553.8667 Q401.2197,554.3813 401.5642,554.7175 Q401.9087,555.0537 403.0044,555.4604 L404.0586,555.8589 Q405.5527,556.4067 406.2583,557.3115 Q406.9639,558.2163 406.9639,559.5942 Q406.9639,561.4702 405.8557,562.3957 Q404.7476,563.3213 402.5063,563.3213 Q401.585,563.3213 400.6594,563.1013 Q399.7339,562.8813 398.8706,562.4497 L398.8706,559.9179 Q399.8501,560.6152 400.7673,560.9555 Q401.6846,561.2959 402.5811,561.2959 Q403.4858,561.2959 403.9839,560.885 Q404.4819,560.4741 404.4819,559.7353 Q404.4819,559.1792 404.1499,558.76 Q403.8179,558.3408 403.187,558.1001 Z " fill="#000000"/><text fill="#000000" font-family="sans-serif" font-size="12" font-style="italic" lengthAdjust="spacing" textLength="44" x="465.25" y="552.8716">&#171;Struct&#187;</text><text fill="#000000" font-family="sans-serif" font-size="14" lengthAdjust="spacing" textLength="129" x="422.75" y="568.938">RoomsRelatedData</text><line style="stroke:#181818;stroke-width:0.5;" x1="340" x2="602" y1="576.8911" y2="576.8911"/><ellipse cx="350" cy="590.6352" fill="none" rx="3" ry="3" style="stroke:#038048;stroke-width:1.0;"/><text fill="#000000" font-family="sans-serif" font-size="14" lengthAdjust="spacing" textLength="43" x="359" y="594.4263">id: i32</text><ellipse cx="350" cy="607.1235" fill="none" rx="3" ry="3" style="stroke:#038048;stroke-width:1.0;"/><text fill="#000000" font-family="sans-serif" font-size="14" lengthAdjust="spacing" textLength="131" x="359" y="610.9145">room_name: String</text><ellipse cx="350" cy="623.6118" fill="none" rx="3" ry="3" style="stroke:#038048;stroke-width:1.0;"/><text fill="#000000" font-family="sans-serif" font-size="14" lengthAdjust="spacing" textLength="126" x="359" y="627.4028">description: String</text><ellipse cx="350" cy="640.1001" fill="none" rx="3" ry="3" style="stroke:#038048;stroke-width:1.0;"/><text fill="#000000" font-family="sans-serif" font-size="14" lengthAdjust="spacing" textLength="85" x="359" y="643.8911">capacity: i32</text><ellipse cx="350" cy="656.5884" fill="none" rx="3" ry="3" style="stroke:#038048;stroke-width:1.0;"/><text fill="#000000" font-family="sans-serif" font-size="14" lengthAdjust="spacing" textLength="85" x="359" y="660.3794">entry_id: i32</text><ellipse cx="350" cy="673.0766" fill="none" rx="3" ry="3" style="stroke:#038048;stroke-width:1.0;"/><text fill="#000000" font-family="sans-serif" font-size="14" lengthAdjust="spacing" textLength="147" x="359" y="676.8677">registration_limit: i32</text><ellipse cx="350" cy="689.5649" fill="none" rx="3" ry="3" style="stroke:#038048;stroke-width:1.0;"/><text fill="#000000" font-family="sans-serif" font-size="14" lengthAdjust="spacing" textLength="238" x="359" y="693.3559">participants: Vec&lt;ParticipantsList&gt;</text><line style="stroke:#181818;stroke-width:0.5;" x1="340" x2="602" y1="700.3091" y2="700.3091"/></g><!--class ParticipantsList--><g id="elem_ParticipantsList"><rect codeLine="20" fill="#F1F1F1" height="89.5977" id="ParticipantsList" rx="2.5" ry="2.5" style="stroke:#181818;stroke-width:0.5;" width="143" x="399.5" y="768.31"/><ellipse cx="418.1" cy="788.6205" fill="#FF7700" rx="11" ry="11" style="stroke:#181818;stroke-width:1.0;"/><path d="M417.8334,789.6835 Q415.9823,788.978 415.3266,788.2018 Q414.6708,787.4257 414.6708,786.1142 Q414.6708,784.4291 415.7499,783.4663 Q416.829,782.5034 418.7133,782.5034 Q419.5683,782.5034 420.4232,782.6984 Q421.2782,782.8935 422.1166,783.2753 L422.1166,785.666 Q421.328,785.1098 420.5146,784.8193 Q419.7011,784.5288 418.9042,784.5288 Q418.016,784.5288 417.5429,784.8857 Q417.0697,785.2426 417.0697,785.9067 Q417.0697,786.4213 417.4142,786.7575 Q417.7587,787.0937 418.8544,787.5004 L419.9086,787.8989 Q421.4027,788.4467 422.1083,789.3515 Q422.8139,790.2563 422.8139,791.6342 Q422.8139,793.5102 421.7057,794.4357 Q420.5976,795.3613 418.3563,795.3613 Q417.435,795.3613 416.5094,795.1413 Q415.5839,794.9213 414.7206,794.4897 L414.7206,791.9579 Q415.7001,792.6552 416.6173,792.9955 Q417.5346,793.3359 418.4311,793.3359 Q419.3358,793.3359 419.8339,792.925 Q420.3319,792.5141 420.3319,791.7753 Q420.3319,791.2192 419.9999,790.8 Q419.6679,790.3808 419.037,790.1401 Z " fill="#000000"/><text fill="#000000" font-family="sans-serif" font-size="12" font-style="italic" lengthAdjust="spacing" textLength="44" x="462.4" y="784.9116">&#171;Struct&#187;</text><text fill="#000000" font-family="sans-serif" font-size="14" lengthAdjust="spacing" textLength="103" x="432.9" y="800.978">ParticipantsList</text><line style="stroke:#181818;stroke-width:0.5;" x1="400.5" x2="541.5" y1="808.9311" y2="808.9311"/><ellipse cx="410.5" cy="822.6752" fill="none" rx="3" ry="3" style="stroke:#038048;stroke-width:1.0;"/><text fill="#000000" font-family="sans-serif" font-size="14" lengthAdjust="spacing" textLength="43" x="419.5" y="826.4663">id: i32</text><ellipse cx="410.5" cy="839.1635" fill="none" rx="3" ry="3" style="stroke:#038048;stroke-width:1.0;"/><text fill="#000000" font-family="sans-serif" font-size="14" lengthAdjust="spacing" textLength="117" x="419.5" y="842.9545">username: String</text><line style="stroke:#181818;stroke-width:0.5;" x1="400.5" x2="541.5" y1="849.9077" y2="849.9077"/></g><!--class GetTimestamp--><g id="elem_GetTimestamp"><rect codeLine="24" fill="#F1F1F1" height="73.1094" id="GetTimestamp" rx="2.5" ry="2.5" style="stroke:#181818;stroke-width:0.5;" width="168" x="425" y="275.57"/><ellipse cx="456.65" cy="295.8805" fill="#FF7700" rx="11" ry="11" style="stroke:#181818;stroke-width:1.0;"/><path d="M456.3834,296.9435 Q454.5323,296.238 453.8766,295.4618 Q453.2208,294.6857 453.2208,293.3742 Q453.2208,291.6891 454.2999,290.7262 Q455.379,289.7634 457.2633,289.7634 Q458.1183,289.7634 458.9732,289.9584 Q459.8282,290.1535 460.6666,290.5353 L460.6666,292.926 Q459.878,292.3698 459.0646,292.0793 Q458.2511,291.7887 457.4542,291.7887 Q456.566,291.7887 456.0929,292.1457 Q455.6197,292.5026 455.6197,293.1667 Q455.6197,293.6813 455.9642,294.0175 Q456.3087,294.3537 457.4044,294.7604 L458.4586,295.1589 Q459.9527,295.7067 460.6583,296.6115 Q461.3639,297.5163 461.3639,298.8942 Q461.3639,300.7702 460.2557,301.6957 Q459.1476,302.6213 456.9063,302.6213 Q455.985,302.6213 455.0594,302.4013 Q454.1339,302.1813 453.2706,301.7497 L453.2706,299.2179 Q454.2501,299.9152 455.1673,300.2555 Q456.0846,300.5959 456.9811,300.5959 Q457.8858,300.5959 458.3839,300.185 Q458.8819,299.7741 458.8819,299.0353 Q458.8819,298.4792 458.5499,298.06 Q458.2179,297.6408 457.587,297.4001 Z " fill="#000000"/><text fill="#000000" font-family="sans-serif" font-size="12" font-style="italic" lengthAdjust="spacing" textLength="44" x="501.85" y="292.1716">&#171;Struct&#187;</text><text fill="#000000" font-family="sans-serif" font-size="14" lengthAdjust="spacing" textLength="99" x="474.35" y="308.238">GetTimestamp</text><line style="stroke:#181818;stroke-width:0.5;" x1="426" x2="592" y1="316.1911" y2="316.1911"/><ellipse cx="436" cy="329.9352" fill="none" rx="3" ry="3" style="stroke:#038048;stroke-width:1.0;"/><text fill="#000000" font-family="sans-serif" font-size="14" lengthAdjust="spacing" textLength="142" x="445" y="333.7262">day: Option&lt;String&gt;</text><line style="stroke:#181818;stroke-width:0.5;" x1="426" x2="592" y1="340.6794" y2="340.6794"/></g><!--class BookingParams--><g id="elem_BookingParams"><rect codeLine="27" fill="#F1F1F1" height="139.0625" id="BookingParams" rx="2.5" ry="2.5" style="stroke:#181818;stroke-width:0.5;" width="221" x="627.5" y="242.59"/><ellipse cx="680.75" cy="262.9005" fill="#FF7700" rx="11" ry="11" style="stroke:#181818;stroke-width:1.0;"/><path d="M680.4834,263.9635 Q678.6323,263.258 677.9766,262.4818 Q677.3208,261.7057 677.3208,260.3942 Q677.3208,258.7091 678.3999,257.7462 Q679.479,256.7834 681.3633,256.7834 Q682.2183,256.7834 683.0732,256.9784 Q683.9282,257.1735 684.7666,257.5553 L684.7666,259.946 Q683.978,259.3898 683.1646,259.0993 Q682.3511,258.8087 681.5542,258.8087 Q680.666,258.8087 680.1929,259.1657 Q679.7197,259.5226 679.7197,260.1867 Q679.7197,260.7013 680.0642,261.0375 Q680.4087,261.3737 681.5044,261.7804 L682.5586,262.1789 Q684.0527,262.7267 684.7583,263.6315 Q685.4639,264.5363 685.4639,265.9142 Q685.4639,267.7902 684.3557,268.7157 Q683.2476,269.6413 681.0063,269.6413 Q680.085,269.6413 679.1594,269.4213 Q678.2339,269.2013 677.3706,268.7697 L677.3706,266.2379 Q678.3501,266.9352 679.2673,267.2755 Q680.1846,267.6159 681.0811,267.6159 Q681.9858,267.6159 682.4839,267.205 Q682.9819,266.7941 682.9819,266.0553 Q682.9819,265.4992 682.6499,265.08 Q682.3179,264.6608 681.687,264.4201 Z " fill="#000000"/><text fill="#000000" font-family="sans-serif" font-size="12" font-style="italic" lengthAdjust="spacing" textLength="44" x="732.25" y="259.1916">&#171;Struct&#187;</text><text fill="#000000" font-family="sans-serif" font-size="14" lengthAdjust="spacing" textLength="106" x="701.25" y="275.258">BookingParams</text><line style="stroke:#181818;stroke-width:0.5;" x1="628.5" x2="847.5" y1="283.2111" y2="283.2111"/><ellipse cx="638.5" cy="296.9552" fill="none" rx="3" ry="3" style="stroke:#038048;stroke-width:1.0;"/><text fill="#000000" font-family="sans-serif" font-size="14" lengthAdjust="spacing" textLength="139" x="647.5" y="300.7462">endpoint: Endpoints</text><ellipse cx="638.5" cy="313.4435" fill="none" rx="3" ry="3" style="stroke:#038048;stroke-width:1.0;"/><text fill="#000000" font-family="sans-serif" font-size="14" lengthAdjust="spacing" textLength="112" x="647.5" y="317.2345">id: Option&lt;i32&gt;</text><ellipse cx="638.5" cy="329.9318" fill="none" rx="3" ry="3" style="stroke:#038048;stroke-width:1.0;"/><text fill="#000000" font-family="sans-serif" font-size="14" lengthAdjust="spacing" textLength="192" x="647.5" y="333.7228">customday: Option&lt;String&gt;</text><ellipse cx="638.5" cy="346.4201" fill="none" rx="3" ry="3" style="stroke:#038048;stroke-width:1.0;"/><text fill="#000000" font-family="sans-serif" font-size="14" lengthAdjust="spacing" textLength="195" x="647.5" y="350.2111">days: Option&lt;Vec&lt;String&gt;&gt;</text><line style="stroke:#181818;stroke-width:1.0;" x1="628.5" x2="847.5" y1="357.1642" y2="357.1642"/><ellipse cx="638.5" cy="370.9084" fill="#84BE84" rx="3" ry="3" style="stroke:#038048;stroke-width:1.0;"/><text fill="#000000" font-family="sans-serif" font-size="14" lengthAdjust="spacing" textLength="38" x="647.5" y="374.6994">new()</text></g><!--class Endpoints--><g id="elem_Endpoints"><rect codeLine="35" fill="#F1F1F1" height="130.4414" id="Endpoints" rx="2.5" ry="2.5" style="stroke:#181818;stroke-width:0.5;" width="101" x="1129.5" y="246.9"/><ellipse cx="1144.5" cy="262.9" fill="#EB937F" rx="11" ry="11" style="stroke:#181818;stroke-width:1.0;"/><path d="M1148.1143,269.4 L1140.3945,269.4 L1140.3945,257.0069 L1148.1143,257.0069 L1148.1143,259.1651 L1142.8433,259.1651 L1142.8433,261.838 L1147.6162,261.838 L1147.6162,263.9962 L1142.8433,263.9962 L1142.8433,267.2418 L1148.1143,267.2418 Z " fill="#000000"/><text fill="#000000" font-family="sans-serif" font-size="14" lengthAdjust="spacing" textLength="69" x="1158.5" y="268.191">Endpoints</text><line style="stroke:#181818;stroke-width:0.5;" x1="1130.5" x2="1229.5" y1="278.9" y2="278.9"/><text fill="#000000" font-family="sans-serif" font-size="14" lengthAdjust="spacing" textLength="86" x="1135.5" y="296.4352">Overviewday</text><text fill="#000000" font-family="sans-serif" font-size="14" lengthAdjust="spacing" textLength="63" x="1135.5" y="312.9234">Joinroom</text><text fill="#000000" font-family="sans-serif" font-size="14" lengthAdjust="spacing" textLength="70" x="1135.5" y="329.4117">Joinrooms</text><text fill="#000000" font-family="sans-serif" font-size="14" lengthAdjust="spacing" textLength="69" x="1135.5" y="345.9">Deletejoin</text><text fill="#000000" font-family="sans-serif" font-size="14" lengthAdjust="spacing" textLength="40" x="1135.5" y="362.3883">Room</text><line style="stroke:#181818;stroke-width:0.5;" x1="1130.5" x2="1229.5" y1="369.3414" y2="369.3414"/></g><!--class ResponseType--><g id="elem_ResponseType"><rect codeLine="42" fill="#F1F1F1" height="113.9531" id="ResponseType" rx="2.5" ry="2.5" style="stroke:#181818;stroke-width:0.5;" width="368" x="22" y="255.15"/><ellipse cx="152.25" cy="271.15" fill="#EB937F" rx="11" ry="11" style="stroke:#181818;stroke-width:1.0;"/><path d="M155.8643,277.65 L148.1445,277.65 L148.1445,265.2569 L155.8643,265.2569 L155.8643,267.4151 L150.5933,267.4151 L150.5933,270.088 L155.3662,270.088 L155.3662,272.2462 L150.5933,272.2462 L150.5933,275.4918 L155.8643,275.4918 Z " fill="#000000"/><text fill="#000000" font-family="sans-serif" font-size="14" lengthAdjust="spacing" textLength="99" x="172.75" y="276.441">ResponseType</text><line style="stroke:#181818;stroke-width:0.5;" x1="23" x2="389" y1="287.15" y2="287.15"/><text fill="#000000" font-family="sans-serif" font-size="14" lengthAdjust="spacing" textLength="114" x="28" y="304.6852">SuccessfulJoined</text><text fill="#000000" font-family="sans-serif" font-size="14" lengthAdjust="spacing" textLength="114" x="28" y="321.1734">SuccessfulDelete</text><text fill="#000000" font-family="sans-serif" font-size="14" lengthAdjust="spacing" textLength="356" x="28" y="337.6617">ResultOverviewday{ result: Vec&lt;EntryRelatedData&gt; }</text><text fill="#000000" font-family="sans-serif" font-size="14" lengthAdjust="spacing" textLength="276" x="28" y="354.15">ResultRoom{ result: RoomsRelatedData }</text><line style="stroke:#181818;stroke-width:0.5;" x1="23" x2="389" y1="361.1031" y2="361.1031"/></g><!--class ErrorType--><g id="elem_ErrorType"><rect codeLine="48" fill="#F1F1F1" height="328.3008" id="ErrorType" rx="2.5" ry="2.5" style="stroke:#181818;stroke-width:0.5;" width="211" x="883.5" y="147.97"/><ellipse cx="950.75" cy="163.97" fill="#EB937F" rx="11" ry="11" style="stroke:#181818;stroke-width:1.0;"/><path d="M954.3643,170.47 L946.6445,170.47 L946.6445,158.0769 L954.3643,158.0769 L954.3643,160.2351 L949.0933,160.2351 L949.0933,162.908 L953.8662,162.908 L953.8662,165.0662 L949.0933,165.0662 L949.0933,168.3118 L954.3643,168.3118 Z " fill="#000000"/><text fill="#000000" font-family="sans-serif" font-size="14" lengthAdjust="spacing" textLength="68" x="971.25" y="169.261">ErrorType</text><line style="stroke:#181818;stroke-width:0.5;" x1="884.5" x2="1093.5" y1="179.97" y2="179.97"/><text fill="#000000" font-family="sans-serif" font-size="14" lengthAdjust="spacing" textLength="84" x="889.5" y="197.5052">FailedDelete</text><text fill="#000000" font-family="sans-serif" font-size="14" lengthAdjust="spacing" textLength="53" x="889.5" y="213.9934">DBError</text><text fill="#000000" font-family="sans-serif" font-size="14" lengthAdjust="spacing" textLength="76" x="889.5" y="230.4817">RoomIsFull</text><text fill="#000000" font-family="sans-serif" font-size="14" lengthAdjust="spacing" textLength="152" x="889.5" y="246.97">NoRoomLimitProvided</text><text fill="#000000" font-family="sans-serif" font-size="14" lengthAdjust="spacing" textLength="132" x="889.5" y="263.4583">NoRoomWithThisID</text><text fill="#000000" font-family="sans-serif" font-size="14" lengthAdjust="spacing" textLength="170" x="889.5" y="279.9466">GivenTimeIsNotRCF3339</text><text fill="#000000" font-family="sans-serif" font-size="14" lengthAdjust="spacing" textLength="146" x="889.5" y="296.4348">NoEntryForThisRoom</text><text fill="#000000" font-family="sans-serif" font-size="14" lengthAdjust="spacing" textLength="112" x="889.5" y="312.9231">NoEntryIDFound</text><text fill="#000000" font-family="sans-serif" font-size="14" lengthAdjust="spacing" textLength="117" x="889.5" y="329.4114">NoRoomIDFound</text><text fill="#000000" font-family="sans-serif" font-size="14" lengthAdjust="spacing" textLength="94" x="889.5" y="345.8997">NoDateFound</text><text fill="#000000" font-family="sans-serif" font-size="14" lengthAdjust="spacing" textLength="177" x="889.5" y="362.388">NoEntry{ message: String}</text><text fill="#000000" font-family="sans-serif" font-size="14" lengthAdjust="spacing" textLength="180" x="889.5" y="378.8762">FailedJoinOn{ date: String}</text><text fill="#000000" font-family="sans-serif" font-size="14" lengthAdjust="spacing" textLength="98" x="889.5" y="395.3645">NoBeamResult</text><text fill="#000000" font-family="sans-serif" font-size="14" lengthAdjust="spacing" textLength="199" x="889.5" y="411.8528">BeamNoTaskCouldBeCreated</text><text fill="#000000" font-family="sans-serif" font-size="14" lengthAdjust="spacing" textLength="122" x="889.5" y="428.3411">NoBeamResponse</text><text fill="#000000" font-family="sans-serif" font-size="14" lengthAdjust="spacing" textLength="131" x="889.5" y="444.8294">BeamNotReachable</text><text fill="#000000" font-family="sans-serif" font-size="14" lengthAdjust="spacing" textLength="72" x="889.5" y="461.3177">BeamError</text><line style="stroke:#181818;stroke-width:0.5;" x1="884.5" x2="1093.5" y1="468.2708" y2="468.2708"/></g><!--class Result--><g id="elem_Result"><rect codeLine="1" fill="#F1F1F1" height="80.9766" id="Result" rx="2.5" ry="2.5" style="stroke:#181818;stroke-width:0.5;" width="128" x="534" y="7"/><ellipse cx="573.3" cy="23" fill="#EB937F" rx="11" ry="11" style="stroke:#181818;stroke-width:1.0;"/><path d="M576.9143,29.5 L569.1945,29.5 L569.1945,17.1069 L576.9143,17.1069 L576.9143,19.2651 L571.6433,19.2651 L571.6433,21.938 L576.4162,21.938 L576.4162,24.0962 L571.6433,24.0962 L571.6433,27.3418 L576.9143,27.3418 Z " fill="#000000"/><text fill="#000000" font-family="sans-serif" font-size="14" lengthAdjust="spacing" textLength="42" x="592.7" y="28.291">Result</text><line style="stroke:#181818;stroke-width:0.5;" x1="535" x2="661" y1="39" y2="39"/><text fill="#000000" font-family="sans-serif" font-size="14" lengthAdjust="spacing" textLength="116" x="540" y="56.5352">T: ResponseType</text><text fill="#000000" font-family="sans-serif" font-size="14" lengthAdjust="spacing" textLength="84" x="540" y="73.0234">E: ErrorType</text><line style="stroke:#181818;stroke-width:0.5;" x1="535" x2="661" y1="79.9766" y2="79.9766"/></g><!--class PlannerParams--><g id="elem_PlannerParams"><rect fill="#F1F1F1" height="48" id="PlannerParams" rx="2.5" ry="2.5" style="stroke:#181818;stroke-width:0.5;" width="134" x="1113" y="23.48"/><ellipse cx="1128" cy="39.48" fill="#ADD1B2" rx="11" ry="11" style="stroke:#181818;stroke-width:1.0;"/><path d="M1130.4731,45.6231 Q1129.8921,45.9219 1129.2529,46.0713 Q1128.6138,46.2207 1127.9082,46.2207 Q1125.4014,46.2207 1124.0815,44.5689 Q1122.7617,42.917 1122.7617,39.7959 Q1122.7617,36.6665 1124.0815,35.0147 Q1125.4014,33.3628 1127.9082,33.3628 Q1128.6138,33.3628 1129.2612,33.5122 Q1129.9087,33.6616 1130.4731,33.9605 L1130.4731,36.6831 Q1129.8423,36.1021 1129.2488,35.8323 Q1128.6553,35.5625 1128.0244,35.5625 Q1126.6797,35.5625 1125.9949,36.6292 Q1125.3101,37.6958 1125.3101,39.7959 Q1125.3101,41.8877 1125.9949,42.9544 Q1126.6797,44.021 1128.0244,44.021 Q1128.6553,44.021 1129.2488,43.7512 Q1129.8423,43.4815 1130.4731,42.9004 Z " fill="#000000"/><text fill="#000000" font-family="sans-serif" font-size="14" lengthAdjust="spacing" textLength="102" x="1142" y="44.771">PlannerParams</text><line style="stroke:#181818;stroke-width:0.5;" x1="1114" x2="1246" y1="55.48" y2="55.48"/><line style="stroke:#181818;stroke-width:0.5;" x1="1114" x2="1246" y1="63.48" y2="63.48"/></g><!--reverse link ResponseType to EntryRelatedData--><g id="link_ResponseType_EntryRelatedData"><path codeLine="69" d="M199.5857,381.2372 C194.2357,438.0872 187.16,513.37 181.93,568.85 " fill="none" id="ResponseType-backto-EntryRelatedData" style="stroke:#181818;stroke-width:1.0;"/><polygon fill="#181818" points="200.71,369.29,196.1654,374.8888,199.5857,381.2372,204.1302,375.6384,200.71,369.29" style="stroke:#181818;stroke-width:1.0;"/></g><!--reverse link EntryRelatedData to RoomsRelatedData--><g id="link_EntryRelatedData_RoomsRelatedData"><path codeLine="70" d="M315.9,622.29 C327.54,622.29 327.18,622.29 338.82,622.29 " fill="none" id="EntryRelatedData-backto-RoomsRelatedData" style="stroke:#181818;stroke-width:1.0;"/><polygon fill="#181818" points="303.9,622.29,309.9,626.29,315.9,622.29,309.9,618.29,303.9,622.29" style="stroke:#181818;stroke-width:1.0;"/></g><!--reverse link RoomsRelatedData to ParticipantsList--><g id="link_RoomsRelatedData_ParticipantsList"><path codeLine="71" d="M471,720.59 C471,741.11 471,750.21 471,767.97 " fill="none" id="RoomsRelatedData-backto-ParticipantsList" style="stroke:#181818;stroke-width:1.0;"/><polygon fill="#181818" points="471,708.59,467,714.59,471,720.59,475,714.59,471,708.59" style="stroke:#181818;stroke-width:1.0;"/></g><!--reverse link ResponseType to RoomsRelatedData--><g id="link_ResponseType_RoomsRelatedData"><path codeLine="72" d="M262.1248,378.388 C302.1348,424.908 351.8,482.68 397.52,535.84 " fill="none" id="ResponseType-backto-RoomsRelatedData" style="stroke:#181818;stroke-width:1.0;"/><polygon fill="#181818" points="254.3,369.29,255.1797,376.4472,262.1248,378.388,261.245,371.2307,254.3,369.29" style="stroke:#181818;stroke-width:1.0;"/></g><!--reverse link PlannerParams to Endpoints--><g id="link_PlannerParams_Endpoints"><path codeLine="73" d="M1180,83.79 C1180,122.65 1180,189.98 1180,246.66 " fill="none" id="PlannerParams-backto-Endpoints" style="stroke:#181818;stroke-width:1.0;"/><polygon fill="#181818" points="1180,71.79,1176,77.79,1180,83.79,1184,77.79,1180,71.79" style="stroke:#181818;stroke-width:1.0;"/></g><!--link Result to ErrorType--><g id="link_Result_ErrorType"><path codeLine="74" d="M662.48,56.06 C731.04,65.14 833.93,82.07 866,104.97 C882.45,116.72 897.08,131.42 909.99,147.52 " fill="none" id="Result-ErrorType" style="stroke:#181818;stroke-width:1.0;"/></g><!--link Result to ResponseType--><g id="link_Result_ResponseType"><path codeLine="75" d="M533.52,59.19 C495.09,67.57 446.47,81.8 408,104.97 C343.41,143.89 284.95,208.3 247.73,254.78 " fill="none" id="Result-ResponseType" style="stroke:#181818;stroke-width:1.0;"/></g><!--SRC=[dLLDR-8m4BtpAopjfUqkKhKSgaM80n-fM5M00keUaPlCWXV7Zkm95KByzxMJa1YRIbKvXJTVRvx7On15HcBG1STJXvZVkc__vb9eM1zpAB5fdqoLage4pfsS9dkw1V8cvPw9xGODhAleX5EjoLIWEiR0AK8weKZ9O43kLZ_8joXwUdfyl2ShL4M2mo6fekplEs5fdx3UJmUX2kX6q0pwDiAKScnAoaptoIiaWzX-EkM6fTlP8UHxV9MGBVeHeHHqebYEJ8eRreGQrHWU_OnWfThSg0HRfb5Hcsx3MSRGzyYfGfQmd0giTLWwo8k93dNmFRwgGw511JAuXPu1rom3ZJJBFrSafKQRHIdVe4eQqXzL0sUwe9d-N5eGQIwPCEfDwo_jTLRND0qEtVCgDChi8r8DPTsOxG7KBgrFj-ku2tY_ktTw0dlr6bOjwSK1r871kqdVOB-DZns-06YxcG07X7y6Rw3u4k4KT2ztMtDL90be_RVWDZ6aDmnL_ZPtkJCShYSpinQgPj5V0SEQGnjgoRKnmGqz1qfTDf1plX5btFXVCvkCIjSh5MOwAZXleBcqu8kzLaib3onrEgviVnZkrZkcPvF6yCmE8EnKp_HSOZoEUhtUBoUiR3ao74rOx9vLRPfD8ba8lr28clR1nye49s9kb3QRztBjpfuGzkmMucG64s_upEK8Q5Q9tu0MciirrVknB7WwWh7PkNWbHnrLJeqNXp7GP4VV-BMXrV_SCU-5EtBaeTiDteTEy60yT8E9w0GZObFv6yql5gPPSYe4g7g9L7Gkcw4IXrYiUUzQp4tz7m00]--></g></svg>