<?xml version="1.0" encoding="us-ascii" standalone="no"?><svg xmlns="http://www.w3.org/2000/svg" xmlns:xlink="http://www.w3.org/1999/xlink" contentStyleType="text/css" height="479px" preserveAspectRatio="none" style="width:477px;height:479px;background:#FFFFFF;" version="1.1" viewBox="0 0 477 479" width="477px" zoomAndPan="magnify"><defs/><g><!--cluster mobile App--><g id="cluster_mobile App"><rect fill="none" height="203.97" rx="2.5" ry="2.5" style="stroke:#181818;stroke-width:1.0;" width="116" x="106" y="11"/><path d="M199,11 L199,20.4883 L189,30.4883 L106,30.4883 " fill="none" style="stroke:#181818;stroke-width:1.0;"/><text fill="#000000" font-family="sans-serif" font-size="14" font-weight="bold" lengthAdjust="spacing" textLength="83" x="109" y="25.5352">mobile App</text></g><!--cluster central Service--><g id="cluster_central Service"><polygon fill="none" points="246,16,256,6,460,6,460,204.97,450,214.97,246,214.97,246,16" style="stroke:#181818;stroke-width:1.0;"/><line style="stroke:#181818;stroke-width:1.0;" x1="450" x2="460" y1="16" y2="6"/><line style="stroke:#181818;stroke-width:1.0;" x1="246" x2="450" y1="16" y2="16"/><line style="stroke:#181818;stroke-width:1.0;" x1="450" x2="450" y1="16" y2="214.97"/><text fill="#000000" font-family="sans-serif" font-size="14" font-weight="bold" lengthAdjust="spacing" textLength="104" x="297" y="32.5352">central Service</text></g><!--cluster central Server--><g id="cluster_central Server"><path d="M8.5,238.97 L107.5,238.97 A3.75,3.75 0 0 1 110,241.47 L117,261.4583 L467.5,261.4583 A2.5,2.5 0 0 1 470,263.9583 L470,470.45 A2.5,2.5 0 0 1 467.5,472.95 L8.5,472.95 A2.5,2.5 0 0 1 6,470.45 L6,241.47 A2.5,2.5 0 0 1 8.5,238.97 " fill="none" style="stroke:#000000;stroke-width:1.5;"/><line style="stroke:#000000;stroke-width:1.5;" x1="6" x2="117" y1="261.4583" y2="261.4583"/><text fill="#000000" font-family="sans-serif" font-size="14" font-weight="bold" lengthAdjust="spacing" textLength="98" x="10" y="254.5052">central Server</text></g><g id="cluster_##10"><path d="M268.257,378.9584 C272.2302,372.5949 277.7991,372.8024 280.9193,379.7686 C284.6326,373.8876 288.7758,371.4817 294.1246,378.0311 C296.3073,372.1336 301.8954,371.2422 305.6885,376.3369 C308.7136,370.1606 314.317,370.4144 318.2282,375.3356 C321.2102,370.5521 327.0827,369.5094 329.9504,375.4604 C332.3352,369.2998 338.4055,369.4917 341.9969,374.112 C344.9176,366.7004 350.2163,366.3061 354.8243,372.524 C358.8498,367.1741 364.4498,366.5571 367.2907,373.7055 C370.8438,368.9448 375.8205,370.5607 377.6421,375.5449 C382.0277,369.0731 387.6413,370.0899 390.4099,377.0788 C393.8936,370.0737 399.1445,370.0647 403.5931,376.1036 C407.3119,372.3393 411.7423,371.8392 413.7656,377.8653 C418.2525,370.1089 424.094,371.2405 428.1118,378.3189 C433.3422,373.2648 436.7162,374.3453 439.5377,380.726 C446.8599,384.3095 445.9561,391.4213 440.0233,395.4422 C447.7833,399.9074 447.2508,406.5628 440.8911,411.7781 C447.7192,416.9915 447.242,421.9707 439.9565,426.2742 C447.7699,430.9764 446.2568,436.9486 440.0133,441.7025 C436.7339,448.0388 431.7645,448.3707 426.9225,443.5332 C422.7846,450.3677 418.8299,449.7525 413.9335,444.3375 C410.5147,449.4056 405.926,449.6204 402.2064,444.6903 C399.5066,449.3324 394.6217,449.6874 391.6162,445.0389 C388.8427,451.4904 382.8826,453.0287 377.886,447.6104 C373.6514,452.9147 370.1319,453.1679 366.4052,447.0977 C362.7126,453.1602 358.67,454.6044 353.7625,448.3441 C349.7831,452.7464 345.0893,453.0631 342.2061,447.1195 C338.7342,452.6863 333.0803,453.0594 330.3875,446.3683 C326.3212,453.2633 322.2457,454 317.2619,447.2509 C312.6604,452.5033 308.6735,451.5768 305.8367,445.4751 C300.7364,450.2551 295.8987,449.5366 293.0091,442.9748 C289.8932,448.4335 285.0332,448.5487 281.2136,443.787 C275.6556,449.9067 271.2452,447.2826 268.4255,440.9703 C261.5296,436.8094 260.6768,430.6087 268.552,426.5777 C260.4708,423.6501 259.274,417.6572 265.7978,411.975 C259.8562,405.8583 260.6306,400.2155 268.3916,396.3774 C260.3636,391.7811 258.8719,383.6893 268.257,378.9584 " fill="none" style="stroke:#181818;stroke-width:1.0;"/></g><!--cluster Mrbs--><g id="cluster_Mrbs"><path d="M30,346.46 C30,336.46 133,336.46 133,336.46 C133,336.46 236,336.46 236,346.46 L236,438.95 C236,448.95 133,448.95 133,448.95 C133,448.95 30,448.95 30,438.95 L30,346.46 " fill="none" style="stroke:#181818;stroke-width:1.0;"/><path d="M30,346.46 C30,356.46 133,356.46 133,356.46 C133,356.46 236,356.46 236,346.46 " fill="none" style="stroke:#181818;stroke-width:1.0;"/><text fill="#000000" font-family="sans-serif" font-size="14" font-weight="bold" lengthAdjust="spacing" textLength="36" x="115" y="371.9952">Mrbs</text></g><!--entity User--><g id="elem_User"><rect fill="#F1F1F1" height="46.4883" rx="2.5" ry="2.5" style="stroke:#181818;stroke-width:0.5;" width="71" x="131.5" y="46"/><rect fill="#F1F1F1" height="10" style="stroke:#181818;stroke-width:0.5;" width="15" x="182.5" y="51"/><rect fill="#F1F1F1" height="2" style="stroke:#181818;stroke-width:0.5;" width="4" x="180.5" y="53"/><rect fill="#F1F1F1" height="2" style="stroke:#181818;stroke-width:0.5;" width="4" x="180.5" y="57"/><text fill="#000000" font-family="sans-serif" font-size="14" lengthAdjust="spacing" textLength="31" x="146.5" y="79.5352">User</text></g><!--entity OAuth--><g id="elem_OAuth"><rect fill="#F1F1F1" height="46.4883" rx="2.5" ry="2.5" style="stroke:#181818;stroke-width:0.5;" width="84" x="122" y="152.49"/><rect fill="#F1F1F1" height="10" style="stroke:#181818;stroke-width:0.5;" width="15" x="186" y="157.49"/><rect fill="#F1F1F1" height="2" style="stroke:#181818;stroke-width:0.5;" width="4" x="184" y="159.49"/><rect fill="#F1F1F1" height="2" style="stroke:#181818;stroke-width:0.5;" width="4" x="184" y="163.49"/><text fill="#000000" font-family="sans-serif" font-size="14" lengthAdjust="spacing" textLength="44" x="137" y="186.0252">OAuth</text></g><!--entity Samply_Proxy_Client--><g id="elem_Samply_Proxy_Client"><rect fill="#F1F1F1" height="46.4883" rx="2.5" ry="2.5" style="stroke:#181818;stroke-width:0.5;" width="182" x="262" y="46"/><rect fill="#F1F1F1" height="10" style="stroke:#181818;stroke-width:0.5;" width="15" x="424" y="51"/><rect fill="#F1F1F1" height="2" style="stroke:#181818;stroke-width:0.5;" width="4" x="422" y="53"/><rect fill="#F1F1F1" height="2" style="stroke:#181818;stroke-width:0.5;" width="4" x="422" y="57"/><text fill="#000000" font-family="sans-serif" font-size="14" lengthAdjust="spacing" textLength="142" x="277" y="79.5352">Samply_Proxy_Client</text></g><!--entity Broker--><g id="elem_Broker"><rect fill="#F1F1F1" height="46.4883" rx="2.5" ry="2.5" style="stroke:#181818;stroke-width:0.5;" width="85" x="310.5" y="152.49"/><rect fill="#F1F1F1" height="10" style="stroke:#181818;stroke-width:0.5;" width="15" x="375.5" y="157.49"/><rect fill="#F1F1F1" height="2" style="stroke:#181818;stroke-width:0.5;" width="4" x="373.5" y="159.49"/><rect fill="#F1F1F1" height="2" style="stroke:#181818;stroke-width:0.5;" width="4" x="373.5" y="163.49"/><text fill="#000000" font-family="sans-serif" font-size="14" lengthAdjust="spacing" textLength="45" x="325.5" y="186.0252">Broker</text></g><!--entity Samply_Proxy_Server--><g id="elem_Samply_Proxy_Server"><rect fill="#F1F1F1" height="46.4883" rx="2.5" ry="2.5" style="stroke:#181818;stroke-width:0.5;" width="185" x="260.5" y="273.97"/><rect fill="#F1F1F1" height="10" style="stroke:#181818;stroke-width:0.5;" width="15" x="425.5" y="278.97"/><rect fill="#F1F1F1" height="2" style="stroke:#181818;stroke-width:0.5;" width="4" x="423.5" y="280.97"/><rect fill="#F1F1F1" height="2" style="stroke:#181818;stroke-width:0.5;" width="4" x="423.5" y="284.97"/><text fill="#000000" font-family="sans-serif" font-size="14" lengthAdjust="spacing" textLength="145" x="275.5" y="307.5052">Samply_Proxy_Server</text></g><!--entity Server_REST_API--><g id="elem_Server_REST_API"><rect fill="#F1F1F1" height="46.4883" rx="2.5" ry="2.5" style="stroke:#181818;stroke-width:0.5;" width="153" x="276.5" y="386.46"/><rect fill="#F1F1F1" height="10" style="stroke:#181818;stroke-width:0.5;" width="15" x="409.5" y="391.46"/><rect fill="#F1F1F1" height="2" style="stroke:#181818;stroke-width:0.5;" width="4" x="407.5" y="393.46"/><rect fill="#F1F1F1" height="2" style="stroke:#181818;stroke-width:0.5;" width="4" x="407.5" y="397.46"/><text fill="#000000" font-family="sans-serif" font-size="14" lengthAdjust="spacing" textLength="113" x="291.5" y="419.9952">Server_REST_API</text></g><!--entity Verbis_Raumplaner--><g id="elem_Verbis_Raumplaner"><rect fill="#F1F1F1" height="46.4883" rx="2.5" ry="2.5" style="stroke:#181818;stroke-width:0.5;" width="173" x="46.5" y="386.46"/><rect fill="#F1F1F1" height="10" style="stroke:#181818;stroke-width:0.5;" width="15" x="199.5" y="391.46"/><rect fill="#F1F1F1" height="2" style="stroke:#181818;stroke-width:0.5;" width="4" x="197.5" y="393.46"/><rect fill="#F1F1F1" height="2" style="stroke:#181818;stroke-width:0.5;" width="4" x="197.5" y="397.46"/><text fill="#000000" font-family="sans-serif" font-size="14" lengthAdjust="spacing" textLength="133" x="61.5" y="419.9952">Verbis_Raumplaner</text></g><!--link User to OAuth--><g id="link_User_OAuth"><path d="M166.35,92.91 C165.85,110.44 165.15,134.59 164.65,152.1 " fill="none" id="User-OAuth" style="stroke:#181818;stroke-width:1.0;stroke-dasharray:7.0,7.0;"/></g><!--link User to Samply_Proxy_Client--><g id="link_User_Samply_Proxy_Client"><path d="M202.96,69.24 C222.5,69.24 242.04,69.24 261.57,69.24 " fill="none" id="User-Samply_Proxy_Client" style="stroke:#181818;stroke-width:1.0;"/></g><!--link Samply_Proxy_Client to Broker--><g id="link_Samply_Proxy_Client_Broker"><path d="M353,92.91 C353,110.44 353,134.59 353,152.1 " fill="none" id="Samply_Proxy_Client-Broker" style="stroke:#181818;stroke-width:1.0;"/></g><!--link Broker to Samply_Proxy_Server--><g id="link_Broker_Samply_Proxy_Server"><path d="M353,199.2 C353,220.57 353,252.51 353,273.84 " fill="none" id="Broker-Samply_Proxy_Server" style="stroke:#181818;stroke-width:1.0;"/></g><!--link Samply_Proxy_Server to Server_REST_API--><g id="link_Samply_Proxy_Server_Server_REST_API"><path d="M353,320.84 C353,339.91 353,367.05 353,386.11 " fill="none" id="Samply_Proxy_Server-Server_REST_API" style="stroke:#181818;stroke-width:1.0;"/></g><!--link Server_REST_API to Verbis_Raumplaner--><g id="link_Server_REST_API_Verbis_Raumplaner"><path d="M276.25,409.71 C257.43,409.71 238.62,409.71 219.8,409.71 " fill="none" id="Server_REST_API-Verbis_Raumplaner" style="stroke:#181818;stroke-width:1.0;"/></g><!--SRC=[TL3B3e8m4BptAnekdF0Vq7ZmO2IYNenf5bYLK5goWD4O_jr2yH707fhDpEpipfu9SkHEhgDK8lUBmdaoRjvnNoATRBdnw-fwOWrZIYT67AEg22GFaMvfZ0xlMqB82_aG0UdxGonaQcIzmvnqrjeP2rP0dC5bO8CqxM8vwn9BNIUzoYexKcoNuKxumSggckvFe888IZDbJL7f_7OTaAAq55kepHnGR_UcNSvrUKUhf5ONLCnUWSzcdoFqYFSdxIJAFUzxWdVHWPDP9r4h7mOU8UrYuu0l]--></g></svg>