<?xml version="1.0" encoding="us-ascii" standalone="no"?><svg xmlns="http://www.w3.org/2000/svg" xmlns:xlink="http://www.w3.org/1999/xlink" contentStyleType="text/css" height="165px" preserveAspectRatio="none" style="width:1092px;height:165px;background:#FFFFFF;" version="1.1" viewBox="0 0 1092 165" width="1092px" zoomAndPan="magnify"><defs/><g><rect fill="#F1F1F1" height="143.418" rx="5" ry="5" style="stroke:#F1F1F1;stroke-width:1.5;" width="666" x="10" y="10"/><text fill="#000000" font-family="sans-serif" font-size="14" font-weight="bold" lengthAdjust="spacing" textLength="14" x="15" y="25.5352">id</text><text fill="#000000" font-family="sans-serif" font-size="14" lengthAdjust="spacing" textLength="296" x="138" y="25.5352">70c0aa90-bfcf-4312-a6af-42cbd57dc0b8</text><line style="stroke:#000000;stroke-width:1.0;" x1="133" x2="133" y1="10" y2="30.4883"/><line style="stroke:#000000;stroke-width:1.0;" x1="10" x2="676" y1="30.4883" y2="30.4883"/><text fill="#000000" font-family="sans-serif" font-size="14" font-weight="bold" lengthAdjust="spacing" textLength="35" x="15" y="46.0234">from</text><text fill="#000000" font-family="sans-serif" font-size="14" lengthAdjust="spacing" textLength="138" x="138" y="46.0234">app1.proxy1.broker</text><line style="stroke:#000000;stroke-width:1.0;" x1="133" x2="133" y1="30.4883" y2="50.9766"/><line style="stroke:#000000;stroke-width:1.0;" x1="10" x2="676" y1="50.9766" y2="50.9766"/><text fill="#000000" font-family="sans-serif" font-size="14" font-weight="bold" lengthAdjust="spacing" textLength="15" x="15" y="66.5117">to</text><text fill="#000000" font-family="sans-serif" font-size="14" lengthAdjust="spacing" textLength="12" x="138" y="66.5117">&#160;&#160;&#160;</text><line style="stroke:#000000;stroke-width:1.0;" x1="133" x2="133" y1="50.9766" y2="71.4648"/><line style="stroke:#000000;stroke-width:1.0;" x1="10" x2="676" y1="71.4648" y2="71.4648"/><text fill="#000000" font-family="sans-serif" font-size="14" font-weight="bold" lengthAdjust="spacing" textLength="35" x="15" y="87">body</text><text fill="#000000" font-family="sans-serif" font-size="14" lengthAdjust="spacing" textLength="115" x="138" y="87">Much work to do</text><line style="stroke:#000000;stroke-width:1.0;" x1="133" x2="133" y1="71.4648" y2="91.9531"/><line style="stroke:#000000;stroke-width:1.0;" x1="10" x2="676" y1="91.9531" y2="91.9531"/><text fill="#000000" font-family="sans-serif" font-size="14" font-weight="bold" lengthAdjust="spacing" textLength="113" x="15" y="107.4883">failure_strategy</text><text fill="#000000" font-family="sans-serif" font-size="14" lengthAdjust="spacing" textLength="12" x="138" y="107.4883">&#160;&#160;&#160;</text><line style="stroke:#000000;stroke-width:1.0;" x1="133" x2="133" y1="91.9531" y2="112.4414"/><line style="stroke:#000000;stroke-width:1.0;" x1="10" x2="676" y1="112.4414" y2="112.4414"/><text fill="#000000" font-family="sans-serif" font-size="14" font-weight="bold" lengthAdjust="spacing" textLength="17" x="15" y="127.9766">ttl</text><text fill="#000000" font-family="sans-serif" font-size="14" lengthAdjust="spacing" textLength="25" x="138" y="127.9766">30s</text><line style="stroke:#000000;stroke-width:1.0;" x1="133" x2="133" y1="112.4414" y2="132.9297"/><line style="stroke:#000000;stroke-width:1.0;" x1="10" x2="676" y1="132.9297" y2="132.9297"/><text fill="#000000" font-family="sans-serif" font-size="14" font-weight="bold" lengthAdjust="spacing" textLength="67" x="15" y="148.4648">metadata</text><text fill="#000000" font-family="sans-serif" font-size="14" lengthAdjust="spacing" textLength="533" x="138" y="148.4648">The broker can read and use this field e.g., to apply filters on behalf of an app</text><line style="stroke:#000000;stroke-width:1.0;" x1="133" x2="133" y1="132.9297" y2="153.418"/><rect fill="none" height="143.418" rx="5" ry="5" style="stroke:#000000;stroke-width:1.5;" width="666" x="10" y="10"/><rect fill="#F1F1F1" height="20.4883" rx="5" ry="5" style="stroke:#F1F1F1;stroke-width:1.5;" width="148" x="713" y="51.4648"/><text fill="#000000" font-family="sans-serif" font-size="14" lengthAdjust="spacing" textLength="138" x="718" y="67">app2.proxy2.broker</text><rect fill="none" height="20.4883" rx="5" ry="5" style="stroke:#000000;stroke-width:1.5;" width="148" x="713" y="51.4648"/><rect fill="#F1F1F1" height="20.4883" rx="5" ry="5" style="stroke:#F1F1F1;stroke-width:1.5;" width="66" x="754" y="91.4648"/><text fill="#000000" font-family="sans-serif" font-size="14" font-weight="bold" lengthAdjust="spacing" textLength="34" x="759" y="107">retry</text><text fill="#000000" font-family="sans-serif" font-size="14" lengthAdjust="spacing" textLength="12" x="803" y="107">&#160;&#160;&#160;</text><line style="stroke:#000000;stroke-width:1.0;" x1="798" x2="798" y1="91.4648" y2="111.9531"/><rect fill="none" height="20.4883" rx="5" ry="5" style="stroke:#000000;stroke-width:1.5;" width="66" x="754" y="91.4648"/><rect fill="#F1F1F1" height="40.9766" rx="5" ry="5" style="stroke:#F1F1F1;stroke-width:1.5;" width="182" x="898" y="81.209"/><text fill="#000000" font-family="sans-serif" font-size="14" font-weight="bold" lengthAdjust="spacing" textLength="126" x="903" y="96.7441">backoff_millisecs</text><text fill="#000000" font-family="sans-serif" font-size="14" lengthAdjust="spacing" textLength="36" x="1039" y="96.7441">1000</text><line style="stroke:#000000;stroke-width:1.0;" x1="1034" x2="1034" y1="81.209" y2="101.6973"/><line style="stroke:#000000;stroke-width:1.0;" x1="898" x2="1080" y1="101.6973" y2="101.6973"/><text fill="#000000" font-family="sans-serif" font-size="14" font-weight="bold" lengthAdjust="spacing" textLength="70" x="903" y="117.2324">max_tries</text><text fill="#000000" font-family="sans-serif" font-size="14" lengthAdjust="spacing" textLength="9" x="1039" y="117.2324">5</text><line style="stroke:#000000;stroke-width:1.0;" x1="1034" x2="1034" y1="101.6973" y2="122.1855"/><rect fill="none" height="40.9766" rx="5" ry="5" style="stroke:#000000;stroke-width:1.5;" width="182" x="898" y="81.209"/><path d="M664,61.709 L677,61.709 C686.3003,61.709 696.0448,61.709 705.7243,61.709 " fill="none" style="stroke:#000000;stroke-width:1.0;stroke-dasharray:3.0,3.0;"/><path d="M705.7243,64.8046 L708.046,61.709 L705.7243,58.6134 L713.4633,61.709 L705.7243,64.8046 " fill="#000000" style="stroke:#000000;stroke-width:1.0;"/><ellipse cx="664" cy="61.709" fill="#000000" rx="3" ry="3" style="stroke:#000000;stroke-width:1.0;"/><path d="M808.5,101.709 L821.5,101.709 C843.9017,101.709 867.9936,101.709 890.7149,101.709 " fill="none" style="stroke:#000000;stroke-width:1.0;stroke-dasharray:3.0,3.0;"/><path d="M890.7149,104.7684 L893.0095,101.709 L890.7149,98.6496 L898.3634,101.709 L890.7149,104.7684 " fill="#000000" style="stroke:#000000;stroke-width:1.0;"/><ellipse cx="808.5" cy="101.709" fill="#000000" rx="3" ry="3" style="stroke:#000000;stroke-width:1.0;"/><path d="M664,101.709 L677,101.709 C700.0939,101.709 725.9276,101.709 746.7005,101.709 " fill="none" style="stroke:#000000;stroke-width:1.0;stroke-dasharray:3.0,3.0;"/><path d="M746.7005,104.7879 L749.0097,101.709 L746.7005,98.63 L754.3978,101.709 L746.7005,104.7879 " fill="#000000" style="stroke:#000000;stroke-width:1.0;"/><ellipse cx="664" cy="101.709" fill="#000000" rx="3" ry="3" style="stroke:#000000;stroke-width:1.0;"/><!--SRC=[HP51R-CW48Nl_8gHJwsKMDX9sgvFrJRfIjb4M-sclLHLD8QnpGP3X76sKPN_lX0tAWS4yxvvFE2-y-ZytyuQnZuOGA9aKa1oomL7_CR7PIMgyNIIvMEymR3AHIbdjrBmyYuPHRvojeqTkDzdwTxPzsEMbixko0swjq5z3Qiu8fKFL7wXFgMtCrrQUOnkwruqyC-w7NWBqduUXKhtZhQTT-YfZk37kJjnvDtNDlgWsDcgshPAQzMHw8AOSSv75w35zwrtYg8mEnTFOJuDaRsE6IQy6yvjoQD4Zx6uQGY6u23GW2EKW4P2tn7uHdLGAT8IAAtJKSmUBgoFeQWzkGwiWP8Qr1NOAhH5DM4dnkx9oE4FdZGQ_xnUmI7mAl1PclDycawkDaqFZrH2DeES5rDUy1ayB3OGvMjszUDfTSYXixqJ15A5Dr9bxuF3DLlY0U5tRxnggO1VUpBB-SzB0HRce9mrBHdFbY_hB-1cElwkFFmX5xB0ovhDgS9U-z0Xh5IcBk1vypY-OoiqTOzry9R47cpmTSS2vel_]--></g></svg>