<?xml version="1.0" encoding="us-ascii" standalone="no"?><svg xmlns="http://www.w3.org/2000/svg" xmlns:xlink="http://www.w3.org/1999/xlink" contentStyleType="text/css" height="165px" preserveAspectRatio="none" style="width:855px;height:165px;background:#FFFFFF;" version="1.1" viewBox="0 0 855 165" width="855px" zoomAndPan="magnify"><defs/><g><rect fill="#F1F1F1" height="143.418" rx="5" ry="5" style="stroke:#F1F1F1;stroke-width:1.5;" width="429" x="10" y="10"/><text fill="#000000" font-family="sans-serif" font-size="14" font-weight="bold" lengthAdjust="spacing" textLength="14" x="15" y="25.5352">id</text><text fill="#000000" font-family="sans-serif" font-size="14" lengthAdjust="spacing" textLength="296" x="138" y="25.5352">70c0aa90-bfcf-4312-a6af-42cbd57dc0b8</text><line style="stroke:#000000;stroke-width:1.0;" x1="133" x2="133" y1="10" y2="30.4883"/><line style="stroke:#000000;stroke-width:1.0;" x1="10" x2="439" y1="30.4883" y2="30.4883"/><text fill="#000000" font-family="sans-serif" font-size="14" font-weight="bold" lengthAdjust="spacing" textLength="35" x="15" y="46.0234">from</text><text fill="#000000" font-family="sans-serif" font-size="14" lengthAdjust="spacing" textLength="138" x="138" y="46.0234">app1.proxy1.broker</text><line style="stroke:#000000;stroke-width:1.0;" x1="133" x2="133" y1="30.4883" y2="50.9766"/><line style="stroke:#000000;stroke-width:1.0;" x1="10" x2="439" y1="50.9766" y2="50.9766"/><text fill="#000000" font-family="sans-serif" font-size="14" font-weight="bold" lengthAdjust="spacing" textLength="15" x="15" y="66.5117">to</text><text fill="#000000" font-family="sans-serif" font-size="14" lengthAdjust="spacing" textLength="12" x="138" y="66.5117">&#160;&#160;&#160;</text><line style="stroke:#000000;stroke-width:1.0;" x1="133" x2="133" y1="50.9766" y2="71.4648"/><line style="stroke:#000000;stroke-width:1.0;" x1="10" x2="439" y1="71.4648" y2="71.4648"/><text fill="#000000" font-family="sans-serif" font-size="14" font-weight="bold" lengthAdjust="spacing" textLength="35" x="15" y="87">body</text><text fill="#000000" font-family="sans-serif" font-size="14" lengthAdjust="spacing" textLength="115" x="138" y="87">Much work to do</text><line style="stroke:#000000;stroke-width:1.0;" x1="133" x2="133" y1="71.4648" y2="91.9531"/><line style="stroke:#000000;stroke-width:1.0;" x1="10" x2="439" y1="91.9531" y2="91.9531"/><text fill="#000000" font-family="sans-serif" font-size="14" font-weight="bold" lengthAdjust="spacing" textLength="113" x="15" y="107.4883">failure_strategy</text><text fill="#000000" font-family="sans-serif" font-size="14" lengthAdjust="spacing" textLength="12" x="138" y="107.4883">&#160;&#160;&#160;</text><line style="stroke:#000000;stroke-width:1.0;" x1="133" x2="133" y1="91.9531" y2="112.4414"/><line style="stroke:#000000;stroke-width:1.0;" x1="10" x2="439" y1="112.4414" y2="112.4414"/><text fill="#000000" font-family="sans-serif" font-size="14" font-weight="bold" lengthAdjust="spacing" textLength="17" x="15" y="127.9766">ttl</text><text fill="#000000" font-family="sans-serif" font-size="14" lengthAdjust="spacing" textLength="25" x="138" y="127.9766">30s</text><line style="stroke:#000000;stroke-width:1.0;" x1="133" x2="133" y1="112.4414" y2="132.9297"/><line style="stroke:#000000;stroke-width:1.0;" x1="10" x2="439" y1="132.9297" y2="132.9297"/><text fill="#000000" font-family="sans-serif" font-size="14" font-weight="bold" lengthAdjust="spacing" textLength="67" x="15" y="148.4648">metadata</text><text fill="#000000" font-family="sans-serif" font-size="14" lengthAdjust="spacing" textLength="4" x="138" y="148.4648">&#160;</text><line style="stroke:#000000;stroke-width:1.0;" x1="133" x2="133" y1="132.9297" y2="153.418"/><rect fill="none" height="143.418" rx="5" ry="5" style="stroke:#000000;stroke-width:1.5;" width="429" x="10" y="10"/><rect fill="#F1F1F1" height="20.4883" rx="5" ry="5" style="stroke:#F1F1F1;stroke-width:1.5;" width="148" x="476" y="51.4648"/><text fill="#000000" font-family="sans-serif" font-size="14" lengthAdjust="spacing" textLength="138" x="481" y="67">app2.proxy2.broker</text><rect fill="none" height="20.4883" rx="5" ry="5" style="stroke:#000000;stroke-width:1.5;" width="148" x="476" y="51.4648"/><rect fill="#F1F1F1" height="20.4883" rx="5" ry="5" style="stroke:#F1F1F1;stroke-width:1.5;" width="66" x="517" y="91.4648"/><text fill="#000000" font-family="sans-serif" font-size="14" font-weight="bold" lengthAdjust="spacing" textLength="34" x="522" y="107">retry</text><text fill="#000000" font-family="sans-serif" font-size="14" lengthAdjust="spacing" textLength="12" x="566" y="107">&#160;&#160;&#160;</text><line style="stroke:#000000;stroke-width:1.0;" x1="561" x2="561" y1="91.4648" y2="111.9531"/><rect fill="none" height="20.4883" rx="5" ry="5" style="stroke:#000000;stroke-width:1.5;" width="66" x="517" y="91.4648"/><rect fill="#F1F1F1" height="40.9766" rx="5" ry="5" style="stroke:#F1F1F1;stroke-width:1.5;" width="182" x="661" y="81.209"/><text fill="#000000" font-family="sans-serif" font-size="14" font-weight="bold" lengthAdjust="spacing" textLength="126" x="666" y="96.7441">backoff_millisecs</text><text fill="#000000" font-family="sans-serif" font-size="14" lengthAdjust="spacing" textLength="36" x="802" y="96.7441">1000</text><line style="stroke:#000000;stroke-width:1.0;" x1="797" x2="797" y1="81.209" y2="101.6973"/><line style="stroke:#000000;stroke-width:1.0;" x1="661" x2="843" y1="101.6973" y2="101.6973"/><text fill="#000000" font-family="sans-serif" font-size="14" font-weight="bold" lengthAdjust="spacing" textLength="70" x="666" y="117.2324">max_tries</text><text fill="#000000" font-family="sans-serif" font-size="14" lengthAdjust="spacing" textLength="9" x="802" y="117.2324">5</text><line style="stroke:#000000;stroke-width:1.0;" x1="797" x2="797" y1="101.6973" y2="122.1855"/><rect fill="none" height="40.9766" rx="5" ry="5" style="stroke:#000000;stroke-width:1.5;" width="182" x="661" y="81.209"/><path d="M427,61.709 L440,61.709 C449.3003,61.709 459.0448,61.709 468.7243,61.709 " fill="none" style="stroke:#000000;stroke-width:1.0;stroke-dasharray:3.0,3.0;"/><path d="M468.7243,64.8046 L471.046,61.709 L468.7243,58.6134 L476.4633,61.709 L468.7243,64.8046 " fill="#000000" style="stroke:#000000;stroke-width:1.0;"/><ellipse cx="427" cy="61.709" fill="#000000" rx="3" ry="3" style="stroke:#000000;stroke-width:1.0;"/><path d="M571.5,101.709 L584.5,101.709 C606.9017,101.709 630.9936,101.709 653.7149,101.709 " fill="none" style="stroke:#000000;stroke-width:1.0;stroke-dasharray:3.0,3.0;"/><path d="M653.7149,104.7684 L656.0095,101.709 L653.7149,98.6496 L661.3634,101.709 L653.7149,104.7684 " fill="#000000" style="stroke:#000000;stroke-width:1.0;"/><ellipse cx="571.5" cy="101.709" fill="#000000" rx="3" ry="3" style="stroke:#000000;stroke-width:1.0;"/><path d="M427,101.709 L440,101.709 C463.0939,101.709 488.9276,101.709 509.7005,101.709 " fill="none" style="stroke:#000000;stroke-width:1.0;stroke-dasharray:3.0,3.0;"/><path d="M509.7005,104.7879 L512.0097,101.709 L509.7005,98.63 L517.3978,101.709 L509.7005,104.7879 " fill="#000000" style="stroke:#000000;stroke-width:1.0;"/><ellipse cx="427" cy="101.709" fill="#000000" rx="3" ry="3" style="stroke:#000000;stroke-width:1.0;"/><!--SRC=[HP31JkCm48RlVefHJY2HoabRO7D2ImjIQGNQBLmGgYRsf7YRs9KpALIexxvsGuKFripyt_mpzatBwFbVwwmGNm8WCJef8BcIIYB-acbPgIeT3RCynKiCKQvAFRxIIfRNoKNaA- -Qs87RRJROUlUvpmQbTnlolSukgAyXYYTIUK_b9-fRUZlIfTFxwBRer3jyEBy1Tg3TzoWqTUTfrR97fdK4luxTYIVsFsdqGRLnLRLgJ5sRbbGRn4nAUN426lnSiJSKXV6nU0ZteL-PwxZ3KBRzt8OODJB6OY8EGjoGrVsNFTLe-NanXntvrZWBsI2N-MWmF5k-Tt179MHZo6KnaeKSm-rq2L4-5sVtJ_DT3gthl2BG9Zp9b1q7XtCnmnt2dywoQQY0notPsUJXL82ftHdlR4EMnUnbyGDSZjBVXk4l-R0Bl2p4X2hiQWuTocbZrmKyB-_IQp57k-vm7RmrYLiNVFs-WCdqFm00]--></g></svg>