<?xml version="1.0" encoding="UTF-8" standalone="no"?><svg xmlns="http://www.w3.org/2000/svg" xmlns:xlink="http://www.w3.org/1999/xlink" contentStyleType="text/css" height="1001px" preserveAspectRatio="none" style="width:1105px;height:1001px;background:#FFFFFF;" version="1.1" viewBox="0 0 1105 1001" width="1105px" zoomAndPan="magnify"><defs/><g><!--MD5=[45f9ad77edf46c81c946c0e83e3b2b53]
class SewMotor--><g id="elem_SewMotor"><rect codeLine="1" fill="#F1F1F1" height="400.1875" id="SewMotor" rx="2.5" ry="2.5" style="stroke:#181818;stroke-width:0.5;" width="842" x="256" y="133"/><ellipse cx="641.75" cy="149" fill="#ADD1B2" rx="11" ry="11" style="stroke:#181818;stroke-width:1.0;"/><path d="M644.5156,144.875 Q644.6719,144.6563 644.8594,144.5469 Q645.0469,144.4375 645.2656,144.4375 Q645.6406,144.4375 645.875,144.7031 Q646.1094,144.9531 646.1094,145.5625 L646.1094,147.0156 Q646.1094,147.625 645.875,147.8906 Q645.6406,148.1563 645.2656,148.1563 Q644.9219,148.1563 644.7188,147.9531 Q644.5156,147.7656 644.4063,147.25 Q644.3594,146.8906 644.1719,146.7031 Q643.8438,146.3281 643.2344,146.1094 Q642.625,145.8906 642,145.8906 Q641.2344,145.8906 640.5938,146.2188 Q639.9688,146.5469 639.4688,147.2969 Q638.9844,148.0469 638.9844,149.0781 L638.9844,150.1719 Q638.9844,151.4063 639.875,152.2344 Q640.7656,153.0469 642.3594,153.0469 Q643.2969,153.0469 643.9531,152.7969 Q644.3438,152.6406 644.7656,152.2031 Q645.0313,151.9375 645.1719,151.8594 Q645.3281,151.7813 645.5313,151.7813 Q645.8594,151.7813 646.1094,152.0469 Q646.375,152.2969 646.375,152.6406 Q646.375,152.9844 646.0313,153.3906 Q645.5313,153.9688 644.7344,154.2969 Q643.6563,154.75 642.3594,154.75 Q640.8438,154.75 639.6406,154.125 Q638.6563,153.625 637.9688,152.5625 Q637.2813,151.4844 637.2813,150.2031 L637.2813,149.0469 Q637.2813,147.7188 637.8906,146.5781 Q638.5156,145.4219 639.6094,144.8125 Q640.7031,144.1875 641.9375,144.1875 Q642.6719,144.1875 643.3125,144.3594 Q643.9688,144.5156 644.5156,144.875 Z " fill="#000000"/><text fill="#000000" font-family="sans-serif" font-size="14" lengthAdjust="spacing" textLength="62" x="662.25" y="154.7285">SewMotor</text><line style="stroke:#181818;stroke-width:0.5;" x1="257" x2="1097" y1="165" y2="165"/><rect fill="none" height="6" style="stroke:#C82930;stroke-width:1.0;" width="6" x="264" y="176.3047"/><text fill="#000000" font-family="sans-serif" font-size="14" lengthAdjust="spacing" textLength="101" x="276" y="183.5332">drehzahl:double</text><rect fill="none" height="6" style="stroke:#C82930;stroke-width:1.0;" width="6" x="264" y="193.9141"/><text fill="#000000" font-family="sans-serif" font-size="14" lengthAdjust="spacing" textLength="126" x="276" y="201.1426">drehmoment:double</text><rect fill="none" height="6" style="stroke:#C82930;stroke-width:1.0;" width="6" x="264" y="211.5234"/><text fill="#000000" font-family="sans-serif" font-size="14" lengthAdjust="spacing" textLength="110" x="276" y="218.752">spannung:double</text><rect fill="none" height="6" style="stroke:#C82930;stroke-width:1.0;" width="6" x="264" y="229.1328"/><text fill="#000000" font-family="sans-serif" font-size="14" lengthAdjust="spacing" textLength="82" x="276" y="236.3613">strom:double</text><rect fill="none" height="6" style="stroke:#C82930;stroke-width:1.0;" width="6" x="264" y="246.7422"/><text fill="#000000" font-family="sans-serif" font-size="14" lengthAdjust="spacing" textLength="69" x="276" y="253.9707">cos:double</text><rect fill="none" height="6" style="stroke:#C82930;stroke-width:1.0;" width="6" x="264" y="264.3516"/><text fill="#000000" font-family="sans-serif" font-size="14" lengthAdjust="spacing" textLength="220" x="276" y="271.5801">uebersetzungDesGetriebes:double</text><line style="stroke:#181818;stroke-width:1.0;" x1="257" x2="1097" y1="278.6563" y2="278.6563"/><ellipse cx="267" cy="292.9609" fill="#84BE84" rx="3" ry="3" style="stroke:#038048;stroke-width:1.0;"/><text fill="#000000" font-family="sans-serif" font-size="14" lengthAdjust="spacing" textLength="816" x="276" y="297.1895">SewMotor(double drehzahl, double drehmoment, double spannung, double strom, double cos,double uebersetzungDesGetriebes)</text><ellipse cx="267" cy="310.5703" fill="#84BE84" rx="3" ry="3" style="stroke:#038048;stroke-width:1.0;"/><text fill="#000000" font-family="sans-serif" font-size="14" lengthAdjust="spacing" textLength="72" x="276" y="314.7988">SewMotor()</text><ellipse cx="267" cy="328.1797" fill="#84BE84" rx="3" ry="3" style="stroke:#038048;stroke-width:1.0;"/><text fill="#000000" font-family="sans-serif" font-size="14" lengthAdjust="spacing" textLength="166" x="276" y="332.4082">getDrehmoment() : double</text><ellipse cx="267" cy="345.7891" fill="#84BE84" rx="3" ry="3" style="stroke:#038048;stroke-width:1.0;"/><text fill="#000000" font-family="sans-serif" font-size="14" lengthAdjust="spacing" textLength="110" x="276" y="350.0176">getCos() : double</text><ellipse cx="267" cy="363.3984" fill="#84BE84" rx="3" ry="3" style="stroke:#038048;stroke-width:1.0;"/><text fill="#000000" font-family="sans-serif" font-size="14" lengthAdjust="spacing" textLength="242" x="276" y="367.627">getDrehzahl(double drehzahl) : double</text><ellipse cx="267" cy="381.0078" fill="#84BE84" rx="3" ry="3" style="stroke:#038048;stroke-width:1.0;"/><text fill="#000000" font-family="sans-serif" font-size="14" lengthAdjust="spacing" textLength="260" x="276" y="385.2363">getSpannung(double spannung) : double</text><ellipse cx="267" cy="398.6172" fill="#84BE84" rx="3" ry="3" style="stroke:#038048;stroke-width:1.0;"/><text fill="#000000" font-family="sans-serif" font-size="14" lengthAdjust="spacing" textLength="204" x="276" y="402.8457">getStrom(double strom) : double</text><ellipse cx="267" cy="416.2266" fill="#84BE84" rx="3" ry="3" style="stroke:#038048;stroke-width:1.0;"/><text fill="#000000" font-family="sans-serif" font-size="14" lengthAdjust="spacing" textLength="238" x="276" y="420.4551">uebersetzungDesGetriebes() : double</text><ellipse cx="267" cy="433.8359" fill="#84BE84" rx="3" ry="3" style="stroke:#038048;stroke-width:1.0;"/><text fill="#000000" font-family="sans-serif" font-size="14" lengthAdjust="spacing" textLength="123" x="276" y="438.0645">setCos(double cos)</text><ellipse cx="267" cy="451.4453" fill="#84BE84" rx="3" ry="3" style="stroke:#038048;stroke-width:1.0;"/><text fill="#000000" font-family="sans-serif" font-size="14" lengthAdjust="spacing" textLength="238" x="276" y="455.6738">setDrehmoment(double Drehmoment)</text><ellipse cx="267" cy="469.0547" fill="#84BE84" rx="3" ry="3" style="stroke:#038048;stroke-width:1.0;"/><text fill="#000000" font-family="sans-serif" font-size="14" lengthAdjust="spacing" textLength="188" x="276" y="473.2832">setDrehzahl(double Drehzahl)</text><ellipse cx="267" cy="486.6641" fill="#84BE84" rx="3" ry="3" style="stroke:#038048;stroke-width:1.0;"/><text fill="#000000" font-family="sans-serif" font-size="14" lengthAdjust="spacing" textLength="206" x="276" y="490.8926">setSpannung(double Spannung)</text><ellipse cx="267" cy="504.2734" fill="#84BE84" rx="3" ry="3" style="stroke:#038048;stroke-width:1.0;"/><text fill="#000000" font-family="sans-serif" font-size="14" lengthAdjust="spacing" textLength="150" x="276" y="508.502">setStrom(double Strom)</text><ellipse cx="267" cy="521.8828" fill="#84BE84" rx="3" ry="3" style="stroke:#038048;stroke-width:1.0;"/><text fill="#000000" font-family="sans-serif" font-size="14" lengthAdjust="spacing" textLength="424" x="276" y="526.1113">setUebersetzungDesGetriebes(double UebersetzungDesGetriebes)</text></g><!--MD5=[7a6f890cfc9c01de7024a66729eb2ff9]
class Formeln--><g id="elem_Formeln"><rect codeLine="25" fill="#F1F1F1" height="400.1875" id="Formeln" rx="2.5" ry="2.5" style="stroke:#181818;stroke-width:0.5;" width="691" x="49.5" y="594"/><ellipse cx="364.75" cy="610" fill="#ADD1B2" rx="11" ry="11" style="stroke:#181818;stroke-width:1.0;"/><path d="M367.5156,605.875 Q367.6719,605.6563 367.8594,605.5469 Q368.0469,605.4375 368.2656,605.4375 Q368.6406,605.4375 368.875,605.7031 Q369.1094,605.9531 369.1094,606.5625 L369.1094,608.0156 Q369.1094,608.625 368.875,608.8906 Q368.6406,609.1563 368.2656,609.1563 Q367.9219,609.1563 367.7188,608.9531 Q367.5156,608.7656 367.4063,608.25 Q367.3594,607.8906 367.1719,607.7031 Q366.8438,607.3281 366.2344,607.1094 Q365.625,606.8906 365,606.8906 Q364.2344,606.8906 363.5938,607.2188 Q362.9688,607.5469 362.4688,608.2969 Q361.9844,609.0469 361.9844,610.0781 L361.9844,611.1719 Q361.9844,612.4063 362.875,613.2344 Q363.7656,614.0469 365.3594,614.0469 Q366.2969,614.0469 366.9531,613.7969 Q367.3438,613.6406 367.7656,613.2031 Q368.0313,612.9375 368.1719,612.8594 Q368.3281,612.7813 368.5313,612.7813 Q368.8594,612.7813 369.1094,613.0469 Q369.375,613.2969 369.375,613.6406 Q369.375,613.9844 369.0313,614.3906 Q368.5313,614.9688 367.7344,615.2969 Q366.6563,615.75 365.3594,615.75 Q363.8438,615.75 362.6406,615.125 Q361.6563,614.625 360.9688,613.5625 Q360.2813,612.4844 360.2813,611.2031 L360.2813,610.0469 Q360.2813,608.7188 360.8906,607.5781 Q361.5156,606.4219 362.6094,605.8125 Q363.7031,605.1875 364.9375,605.1875 Q365.6719,605.1875 366.3125,605.3594 Q366.9688,605.5156 367.5156,605.875 Z " fill="#000000"/><text fill="#000000" font-family="sans-serif" font-size="14" lengthAdjust="spacing" textLength="52" x="385.25" y="615.7285">Formeln</text><line style="stroke:#181818;stroke-width:0.5;" x1="50.5" x2="739.5" y1="626" y2="626"/><rect fill="none" height="6" style="stroke:#C82930;stroke-width:1.0;" width="6" x="57.5" y="637.3047"/><text fill="#000000" font-family="sans-serif" font-size="14" lengthAdjust="spacing" textLength="190" x="69.5" y="644.5332">leistungsaufnahme:double 0.0</text><rect fill="none" height="6" style="stroke:#C82930;stroke-width:1.0;" width="6" x="57.5" y="654.9141"/><text fill="#000000" font-family="sans-serif" font-size="14" lengthAdjust="spacing" textLength="175" x="69.5" y="662.1426">leistungsabgabe:double 0.0</text><rect fill="none" height="6" style="stroke:#C82930;stroke-width:1.0;" width="6" x="57.5" y="672.5234"/><text fill="#000000" font-family="sans-serif" font-size="14" lengthAdjust="spacing" textLength="162" x="69.5" y="679.752">verlustleistung:double 0.0</text><rect fill="none" height="6" style="stroke:#C82930;stroke-width:1.0;" width="6" x="57.5" y="690.1328"/><text fill="#000000" font-family="sans-serif" font-size="14" lengthAdjust="spacing" textLength="155" x="69.5" y="697.3613">wirkungsgrad:double 0.0</text><line style="stroke:#181818;stroke-width:1.0;" x1="50.5" x2="739.5" y1="704.4375" y2="704.4375"/><ellipse cx="60.5" cy="718.7422" fill="#84BE84" rx="3" ry="3" style="stroke:#038048;stroke-width:1.0;"/><text fill="#000000" font-family="sans-serif" font-size="14" lengthAdjust="spacing" textLength="445" x="69.5" y="722.9707">berechneLeistungsaufnahme(double spannung, double strom): double</text><ellipse cx="60.5" cy="736.3516" fill="#84BE84" rx="3" ry="3" style="stroke:#038048;stroke-width:1.0;"/><text fill="#000000" font-family="sans-serif" font-size="14" lengthAdjust="spacing" textLength="665" x="69.5" y="740.5801">berechneLeistungsabgabe(double drehmoment, double drehzahl, double uebersetzungGetriebe) : double</text><ellipse cx="60.5" cy="753.9609" fill="#84BE84" rx="3" ry="3" style="stroke:#038048;stroke-width:1.0;"/><text fill="#000000" font-family="sans-serif" font-size="14" lengthAdjust="spacing" textLength="218" x="69.5" y="758.1895">berechneVerlustleistung() : double</text><ellipse cx="60.5" cy="771.5703" fill="#84BE84" rx="3" ry="3" style="stroke:#038048;stroke-width:1.0;"/><text fill="#000000" font-family="sans-serif" font-size="14" lengthAdjust="spacing" textLength="272" x="69.5" y="775.7988">berechneWirkungsgradInProzent() : double</text><ellipse cx="60.5" cy="789.1797" fill="#84BE84" rx="3" ry="3" style="stroke:#038048;stroke-width:1.0;"/><text fill="#000000" font-family="sans-serif" font-size="14" lengthAdjust="spacing" textLength="502" x="69.5" y="793.4082">berechneStromNeu(double drehmoment, double spannung, double cos) : String</text><ellipse cx="60.5" cy="806.7891" fill="#84BE84" rx="3" ry="3" style="stroke:#038048;stroke-width:1.0;"/><text fill="#000000" font-family="sans-serif" font-size="14" lengthAdjust="spacing" textLength="521" x="69.5" y="811.0176">berechneDrehzahlNeu(double drehmoment, double spannung, double cos) : String</text><ellipse cx="60.5" cy="824.3984" fill="#84BE84" rx="3" ry="3" style="stroke:#038048;stroke-width:1.0;"/><text fill="#000000" font-family="sans-serif" font-size="14" lengthAdjust="spacing" textLength="209" x="69.5" y="828.627">getLeistungsaufnahme() : double</text><ellipse cx="60.5" cy="842.0078" fill="#84BE84" rx="3" ry="3" style="stroke:#038048;stroke-width:1.0;"/><text fill="#000000" font-family="sans-serif" font-size="14" lengthAdjust="spacing" textLength="357" x="69.5" y="846.2363">setLeistungsaufnahme(double leistungsaufnahme) : void</text><ellipse cx="60.5" cy="859.6172" fill="#84BE84" rx="3" ry="3" style="stroke:#038048;stroke-width:1.0;"/><text fill="#000000" font-family="sans-serif" font-size="14" lengthAdjust="spacing" textLength="194" x="69.5" y="863.8457">getLeistungsabgabe() : double</text><ellipse cx="60.5" cy="877.2266" fill="#84BE84" rx="3" ry="3" style="stroke:#038048;stroke-width:1.0;"/><text fill="#000000" font-family="sans-serif" font-size="14" lengthAdjust="spacing" textLength="327" x="69.5" y="881.4551">setLeistungsabgabe(double leistungsabgabe) : void</text><ellipse cx="60.5" cy="894.8359" fill="#84BE84" rx="3" ry="3" style="stroke:#038048;stroke-width:1.0;"/><text fill="#000000" font-family="sans-serif" font-size="14" lengthAdjust="spacing" textLength="178" x="69.5" y="899.0645">getVerlustleistung() : double</text><ellipse cx="60.5" cy="912.4453" fill="#84BE84" rx="3" ry="3" style="stroke:#038048;stroke-width:1.0;"/><text fill="#000000" font-family="sans-serif" font-size="14" lengthAdjust="spacing" textLength="363" x="69.5" y="916.6738">setVerlustleistung(double verlustleistung) : verlustleistung</text><ellipse cx="60.5" cy="930.0547" fill="#84BE84" rx="3" ry="3" style="stroke:#038048;stroke-width:1.0;"/><text fill="#000000" font-family="sans-serif" font-size="14" lengthAdjust="spacing" textLength="173" x="69.5" y="934.2832">getWirkungsgrad() : double</text><ellipse cx="60.5" cy="947.6641" fill="#84BE84" rx="3" ry="3" style="stroke:#038048;stroke-width:1.0;"/><text fill="#000000" font-family="sans-serif" font-size="14" lengthAdjust="spacing" textLength="248" x="69.5" y="951.8926">setWirkungsgrad(double wirkungsgrad)</text><ellipse cx="60.5" cy="965.2734" fill="#84BE84" rx="3" ry="3" style="stroke:#038048;stroke-width:1.0;"/><text fill="#000000" font-family="sans-serif" font-size="14" lengthAdjust="spacing" textLength="227" x="69.5" y="969.502">getUebersetzungGetriebe() : double</text><ellipse cx="60.5" cy="982.8828" fill="#84BE84" rx="3" ry="3" style="stroke:#038048;stroke-width:1.0;"/><text fill="#000000" font-family="sans-serif" font-size="14" lengthAdjust="spacing" textLength="414" x="69.5" y="987.1113">setUebersetzungGetriebe(double uebersetzungGetriebe) : double</text></g><!--MD5=[19ad7998796bffc86dd501cbb7371740]
class DrehstrommotorGUI--><g id="elem_DrehstrommotorGUI"><rect codeLine="48" fill="#F1F1F1" height="329.75" id="DrehstrommotorGUI" rx="2.5" ry="2.5" style="stroke:#181818;stroke-width:0.5;" width="214" x="7" y="168"/><ellipse cx="47.65" cy="184" fill="#ADD1B2" rx="11" ry="11" style="stroke:#181818;stroke-width:1.0;"/><path d="M50.4156,179.875 Q50.5719,179.6563 50.7594,179.5469 Q50.9469,179.4375 51.1656,179.4375 Q51.5406,179.4375 51.775,179.7031 Q52.0094,179.9531 52.0094,180.5625 L52.0094,182.0156 Q52.0094,182.625 51.775,182.8906 Q51.5406,183.1563 51.1656,183.1563 Q50.8219,183.1563 50.6188,182.9531 Q50.4156,182.7656 50.3063,182.25 Q50.2594,181.8906 50.0719,181.7031 Q49.7438,181.3281 49.1344,181.1094 Q48.525,180.8906 47.9,180.8906 Q47.1344,180.8906 46.4938,181.2188 Q45.8688,181.5469 45.3688,182.2969 Q44.8844,183.0469 44.8844,184.0781 L44.8844,185.1719 Q44.8844,186.4063 45.775,187.2344 Q46.6656,188.0469 48.2594,188.0469 Q49.1969,188.0469 49.8531,187.7969 Q50.2438,187.6406 50.6656,187.2031 Q50.9313,186.9375 51.0719,186.8594 Q51.2281,186.7813 51.4313,186.7813 Q51.7594,186.7813 52.0094,187.0469 Q52.275,187.2969 52.275,187.6406 Q52.275,187.9844 51.9313,188.3906 Q51.4313,188.9688 50.6344,189.2969 Q49.5563,189.75 48.2594,189.75 Q46.7438,189.75 45.5406,189.125 Q44.5563,188.625 43.8688,187.5625 Q43.1813,186.4844 43.1813,185.2031 L43.1813,184.0469 Q43.1813,182.7188 43.7906,181.5781 Q44.4156,180.4219 45.5094,179.8125 Q46.6031,179.1875 47.8375,179.1875 Q48.5719,179.1875 49.2125,179.3594 Q49.8688,179.5156 50.4156,179.875 Z " fill="#000000"/><text fill="#000000" font-family="sans-serif" font-size="14" lengthAdjust="spacing" textLength="125" x="67.35" y="189.7285">DrehstrommotorGUI</text><line style="stroke:#181818;stroke-width:0.5;" x1="8" x2="220" y1="200" y2="200"/><rect fill="none" height="6" style="stroke:#C82930;stroke-width:1.0;" width="6" x="15" y="211.3047"/><text fill="#000000" font-family="sans-serif" font-size="14" lengthAdjust="spacing" text-decoration="underline" textLength="143" x="27" y="218.5332">serialVersionUID : long</text><rect fill="none" height="6" style="stroke:#C82930;stroke-width:1.0;" width="6" x="15" y="228.9141"/><text fill="#000000" font-family="sans-serif" font-size="14" lengthAdjust="spacing" textLength="134" x="27" y="236.1426">contentPane : JPanel</text><rect fill="none" height="6" style="stroke:#C82930;stroke-width:1.0;" width="6" x="15" y="246.5234"/><text fill="#000000" font-family="sans-serif" font-size="14" lengthAdjust="spacing" textLength="139" x="27" y="253.752">txtAbgabe : JTextField</text><rect fill="none" height="6" style="stroke:#C82930;stroke-width:1.0;" width="6" x="15" y="264.1328"/><text fill="#000000" font-family="sans-serif" font-size="14" lengthAdjust="spacing" textLength="154" x="27" y="271.3613">txtAufnahme : JTextField</text><rect fill="none" height="6" style="stroke:#C82930;stroke-width:1.0;" width="6" x="15" y="281.7422"/><text fill="#000000" font-family="sans-serif" font-size="14" lengthAdjust="spacing" textLength="134" x="27" y="288.9707">txtVerlust : JTextField</text><rect fill="none" height="6" style="stroke:#C82930;stroke-width:1.0;" width="6" x="15" y="299.3516"/><text fill="#000000" font-family="sans-serif" font-size="14" lengthAdjust="spacing" textLength="178" x="27" y="306.5801">txtWirkungsgrad : JTextField</text><rect fill="none" height="6" style="stroke:#C82930;stroke-width:1.0;" width="6" x="15" y="316.9609"/><text fill="#000000" font-family="sans-serif" font-size="14" lengthAdjust="spacing" textLength="149" x="27" y="324.1895">txtNennwert : JTextField</text><rect fill="none" height="6" style="stroke:#C82930;stroke-width:1.0;" width="6" x="15" y="334.5703"/><text fill="#000000" font-family="sans-serif" font-size="14" lengthAdjust="spacing" textLength="187" x="27" y="341.7988">txtStromInAmpere : JTextField</text><rect fill="none" height="6" style="stroke:#C82930;stroke-width:1.0;" width="6" x="15" y="352.1797"/><text fill="#000000" font-family="sans-serif" font-size="14" lengthAdjust="spacing" textLength="146" x="27" y="359.4082">txtDrehzahl : JTextField</text><rect fill="none" height="6" style="stroke:#C82930;stroke-width:1.0;" width="6" x="15" y="369.7891"/><text fill="#000000" font-family="sans-serif" font-size="14" lengthAdjust="spacing" textLength="144" x="27" y="377.0176">inputStrom : JTextField</text><rect fill="none" height="6" style="stroke:#C82930;stroke-width:1.0;" width="6" x="15" y="387.3984"/><text fill="#000000" font-family="sans-serif" font-size="14" lengthAdjust="spacing" textLength="172" x="27" y="394.627">inputSpannung : JTextField</text><rect fill="none" height="6" style="stroke:#C82930;stroke-width:1.0;" width="6" x="15" y="405.0078"/><text fill="#000000" font-family="sans-serif" font-size="14" lengthAdjust="spacing" textLength="163" x="27" y="412.2363">inputDrehzahl : JTextField</text><rect fill="none" height="6" style="stroke:#C82930;stroke-width:1.0;" width="6" x="15" y="422.6172"/><text fill="#000000" font-family="sans-serif" font-size="14" lengthAdjust="spacing" textLength="188" x="27" y="429.8457">inputDrehmoment : JTextField</text><rect fill="none" height="6" style="stroke:#C82930;stroke-width:1.0;" width="6" x="15" y="440.2266"/><text fill="#000000" font-family="sans-serif" font-size="14" lengthAdjust="spacing" textLength="132" x="27" y="447.4551">inputCos : JTextField</text><rect fill="none" height="6" style="stroke:#C82930;stroke-width:1.0;" width="6" x="15" y="457.8359"/><text fill="#000000" font-family="sans-serif" font-size="14" lengthAdjust="spacing" textLength="162" x="27" y="465.0645">inputGetriebe : JTextField</text><line style="stroke:#181818;stroke-width:1.0;" x1="8" x2="220" y1="472.1406" y2="472.1406"/><text fill="#000000" font-family="sans-serif" font-size="14" lengthAdjust="spacing" textLength="135" x="13" y="490.6738">DrehstrommotorGUI()</text></g><!--MD5=[a520837ef4416b7ac44f8bb1541877a6]
class JFrame--><g id="elem_JFrame"><rect codeLine="67" fill="#F1F1F1" height="48" id="JFrame" rx="2.5" ry="2.5" style="stroke:#181818;stroke-width:0.5;" width="79" x="74.5" y="7"/><ellipse cx="89.5" cy="23" fill="#ADD1B2" rx="11" ry="11" style="stroke:#181818;stroke-width:1.0;"/><path d="M92.2656,18.875 Q92.4219,18.6563 92.6094,18.5469 Q92.7969,18.4375 93.0156,18.4375 Q93.3906,18.4375 93.625,18.7031 Q93.8594,18.9531 93.8594,19.5625 L93.8594,21.0156 Q93.8594,21.625 93.625,21.8906 Q93.3906,22.1563 93.0156,22.1563 Q92.6719,22.1563 92.4688,21.9531 Q92.2656,21.7656 92.1563,21.25 Q92.1094,20.8906 91.9219,20.7031 Q91.5938,20.3281 90.9844,20.1094 Q90.375,19.8906 89.75,19.8906 Q88.9844,19.8906 88.3438,20.2188 Q87.7188,20.5469 87.2188,21.2969 Q86.7344,22.0469 86.7344,23.0781 L86.7344,24.1719 Q86.7344,25.4063 87.625,26.2344 Q88.5156,27.0469 90.1094,27.0469 Q91.0469,27.0469 91.7031,26.7969 Q92.0938,26.6406 92.5156,26.2031 Q92.7813,25.9375 92.9219,25.8594 Q93.0781,25.7813 93.2813,25.7813 Q93.6094,25.7813 93.8594,26.0469 Q94.125,26.2969 94.125,26.6406 Q94.125,26.9844 93.7813,27.3906 Q93.2813,27.9688 92.4844,28.2969 Q91.4063,28.75 90.1094,28.75 Q88.5938,28.75 87.3906,28.125 Q86.4063,27.625 85.7188,26.5625 Q85.0313,25.4844 85.0313,24.2031 L85.0313,23.0469 Q85.0313,21.7188 85.6406,20.5781 Q86.2656,19.4219 87.3594,18.8125 Q88.4531,18.1875 89.6875,18.1875 Q90.4219,18.1875 91.0625,18.3594 Q91.7188,18.5156 92.2656,18.875 Z " fill="#000000"/><text fill="#000000" font-family="sans-serif" font-size="14" lengthAdjust="spacing" textLength="47" x="103.5" y="28.7285">JFrame</text><line style="stroke:#181818;stroke-width:0.5;" x1="75.5" x2="152.5" y1="39" y2="39"/><line style="stroke:#181818;stroke-width:0.5;" x1="75.5" x2="152.5" y1="47" y2="47"/></g><!--MD5=[c52eb83ed1a1c3f330864c20877b6fa8]
reverse link JFrame to DrehstrommotorGUI--><g id="link_JFrame_DrehstrommotorGUI"><path codeLine="68" d="M114,60.3 C114,85.99 114,126.12 114,167.72 " fill="none" id="JFrame-backto-DrehstrommotorGUI" style="stroke:#181818;stroke-width:1.0;"/><polygon fill="#181818" points="114,55.04,110,64.04,114,60.04,118,64.04,114,55.04" style="stroke:#181818;stroke-width:1.0;"/><text fill="#000000" font-family="sans-serif" font-size="13" lengthAdjust="spacing" textLength="60" x="115" y="99.4951">«extends»</text></g><!--MD5=[d8e69cfca3719b4d38209b264cce833e]
reverse link SewMotor to Formeln--><g id="link_SewMotor_Formeln"><path codeLine="69" d="M551.65,538.03 C540.25,556.59 528.71,575.37 517.34,593.88 " fill="none" id="SewMotor-backto-Formeln" style="stroke:#181818;stroke-width:1.0;"/><polygon fill="#181818" points="554.54,533.32,546.4217,538.8961,551.9235,537.5807,553.2389,543.0825,554.54,533.32" style="stroke:#181818;stroke-width:1.0;"/></g><!--MD5=[56bd5ed11ae77691ec3156065b5302dc]
link DrehstrommotorGUI to Formeln--><g id="link_DrehstrommotorGUI_Formeln"><path codeLine="70" d="M214.46,498.09 C232.55,527.65 251.61,558.78 270.3,589.3 " fill="none" id="DrehstrommotorGUI-to-Formeln" style="stroke:#181818;stroke-width:1.0;"/><polygon fill="#181818" points="273.05,593.8,271.7489,584.0375,270.4335,589.5393,264.9317,588.2239,273.05,593.8" style="stroke:#181818;stroke-width:1.0;"/></g><!--MD5=[d7e7649620d5a1a4bc18e6509b676bcf]
link DrehstrommotorGUI to SewMotor--><g id="link_DrehstrommotorGUI_SewMotor"><path codeLine="71" d="M221.21,333 C231.07,333 240.92,333 250.78,333 " fill="none" id="DrehstrommotorGUI-to-SewMotor" style="stroke:#181818;stroke-width:1.0;"/><polygon fill="#181818" points="255.93,333,246.93,329,250.93,333,246.93,337,255.93,333" style="stroke:#181818;stroke-width:1.0;"/></g><!--MD5=[427100add6f97e998c585bebcb52b3f2]
@startuml Drehmoment
class SewMotor{
    - drehzahl:double 
    - drehmoment:double
    - spannung:double
    - strom:double
    - cos:double
    - uebersetzungDesGetriebes:double
    - -
    + SewMotor(double drehzahl, double drehmoment, double spannung, double strom, double cos,double uebersetzungDesGetriebes)
    + SewMotor()
    + getDrehmoment() : double
    + getCos() : double
    + getDrehzahl(double drehzahl) : double
    + getSpannung(double spannung) : double
    + getStrom(double strom) : double
    + uebersetzungDesGetriebes() : double
    + setCos(double cos)
    + setDrehmoment(double Drehmoment)
    + setDrehzahl(double Drehzahl)
    + setSpannung(double Spannung)
    + setStrom(double Strom)
    + setUebersetzungDesGetriebes(double UebersetzungDesGetriebes)
}

class Formeln{
    - leistungsaufnahme:double 0.0
    - leistungsabgabe:double 0.0
    - verlustleistung:double 0.0
    - wirkungsgrad:double 0.0
    - -
    + berechneLeistungsaufnahme(double spannung, double strom): double
    + berechneLeistungsabgabe(double drehmoment, double drehzahl, double uebersetzungGetriebe) : double
    + berechneVerlustleistung() : double
    + berechneWirkungsgradInProzent() : double
    + berechneStromNeu(double drehmoment, double spannung, double cos) : String
    + berechneDrehzahlNeu(double drehmoment, double spannung, double cos) : String
    + getLeistungsaufnahme() : double
    + setLeistungsaufnahme(double leistungsaufnahme) : void
    + getLeistungsabgabe() : double
    + setLeistungsabgabe(double leistungsabgabe) : void
    + getVerlustleistung() : double
    + setVerlustleistung(double verlustleistung) : verlustleistung
    + getWirkungsgrad() : double
    + setWirkungsgrad(double wirkungsgrad)
    + getUebersetzungGetriebe() : double
    + setUebersetzungGetriebe(double uebersetzungGetriebe) : double
}
 class DrehstrommotorGUI {
    - {static} serialVersionUID : long
    - contentPane : JPanel 
    - txtAbgabe : JTextField
    - txtAufnahme : JTextField
    - txtVerlust : JTextField
    - txtWirkungsgrad : JTextField
    - txtNennwert : JTextField
    - txtStromInAmpere : JTextField
    - txtDrehzahl : JTextField
    - inputStrom : JTextField
    - inputSpannung : JTextField
    - inputDrehzahl : JTextField
    - inputDrehmoment : JTextField
    - inputCos : JTextField
    - inputGetriebe : JTextField
    - -
    DrehstrommotorGUI() 
 }
 class JFrame {}
 JFrame <- - DrehstrommotorGUI : <<extends>>
 SewMotor  <- - Formeln 
 DrehstrommotorGUI -> Formeln
 DrehstrommotorGUI -> SewMotor

@enduml

PlantUML version 1.2022.7(Mon Aug 22 19:01:30 CEST 2022)
(GPL source distribution)
Java Runtime: OpenJDK Runtime Environment
JVM: OpenJDK 64-Bit Server VM
Default Encoding: UTF-8
Language: de
Country: DE
--></g></svg>