<?xml version="1.0" encoding="UTF-8" standalone="no"?><svg xmlns="http://www.w3.org/2000/svg" xmlns:xlink="http://www.w3.org/1999/xlink" contentStyleType="text/css" height="524px" preserveAspectRatio="none" style="width:979px;height:524px;background:#FFFFFF;" version="1.1" viewBox="0 0 979 524" width="979px" zoomAndPan="magnify"><defs/><g><!--MD5=[b5890b0a3fc5551b3f7192cff8e3139b]
class SozialesNetzwerk--><g id="elem_SozialesNetzwerk"><rect codeLine="2" fill="#F1F1F1" height="118.4375" id="SozialesNetzwerk" rx="2.5" ry="2.5" style="stroke:#181818;stroke-width:0.5;" width="289" x="344" y="7"/><ellipse cx="430.25" cy="23" fill="#ADD1B2" rx="11" ry="11" style="stroke:#181818;stroke-width:1.0;"/><path d="M433.0156,18.875 Q433.1719,18.6563 433.3594,18.5469 Q433.5469,18.4375 433.7656,18.4375 Q434.1406,18.4375 434.375,18.7031 Q434.6094,18.9531 434.6094,19.5625 L434.6094,21.0156 Q434.6094,21.625 434.375,21.8906 Q434.1406,22.1563 433.7656,22.1563 Q433.4219,22.1563 433.2188,21.9531 Q433.0156,21.7656 432.9063,21.25 Q432.8594,20.8906 432.6719,20.7031 Q432.3438,20.3281 431.7344,20.1094 Q431.125,19.8906 430.5,19.8906 Q429.7344,19.8906 429.0938,20.2188 Q428.4688,20.5469 427.9688,21.2969 Q427.4844,22.0469 427.4844,23.0781 L427.4844,24.1719 Q427.4844,25.4063 428.375,26.2344 Q429.2656,27.0469 430.8594,27.0469 Q431.7969,27.0469 432.4531,26.7969 Q432.8438,26.6406 433.2656,26.2031 Q433.5313,25.9375 433.6719,25.8594 Q433.8281,25.7813 434.0313,25.7813 Q434.3594,25.7813 434.6094,26.0469 Q434.875,26.2969 434.875,26.6406 Q434.875,26.9844 434.5313,27.3906 Q434.0313,27.9688 433.2344,28.2969 Q432.1563,28.75 430.8594,28.75 Q429.3438,28.75 428.1406,28.125 Q427.1563,27.625 426.4688,26.5625 Q425.7813,25.4844 425.7813,24.2031 L425.7813,23.0469 Q425.7813,21.7188 426.3906,20.5781 Q427.0156,19.4219 428.1094,18.8125 Q429.2031,18.1875 430.4375,18.1875 Q431.1719,18.1875 431.8125,18.3594 Q432.4688,18.5156 433.0156,18.875 Z " fill="#000000"/><text fill="#000000" font-family="sans-serif" font-size="14" lengthAdjust="spacing" textLength="108" x="450.75" y="28.7285">SozialesNetzwerk</text><line style="stroke:#181818;stroke-width:0.5;" x1="345" x2="632" y1="39" y2="39"/><text fill="#000000" font-family="sans-serif" font-size="14" lengthAdjust="spacing" textLength="10" x="350" y="57.5332">--</text><line style="stroke:#181818;stroke-width:0.5;" x1="345" x2="632" y1="64.6094" y2="64.6094"/><ellipse cx="355" cy="78.9141" fill="#84BE84" rx="3" ry="3" style="stroke:#038048;stroke-width:1.0;"/><text fill="#000000" font-family="sans-serif" font-size="14" lengthAdjust="spacing" textLength="232" x="364" y="83.1426">hinzufuegenMitglied(person: Person)</text><ellipse cx="355" cy="96.5234" fill="#84BE84" rx="3" ry="3" style="stroke:#038048;stroke-width:1.0;"/><text fill="#000000" font-family="sans-serif" font-size="14" lengthAdjust="spacing" textLength="263" x="364" y="100.752">hinzufuegenNachrict(nachricht: Nachricht)</text><ellipse cx="355" cy="114.1328" fill="#84BE84" rx="3" ry="3" style="stroke:#038048;stroke-width:1.0;"/><text fill="#000000" font-family="sans-serif" font-size="14" lengthAdjust="spacing" textLength="167" x="364" y="118.3613">getAllNachrichten() : string</text></g><!--MD5=[daaef5bbea0dcc8788823256e0b44269]
class Nachricht--><g id="elem_Nachricht"><rect codeLine="10" fill="#F1F1F1" height="136.0469" id="Nachricht" rx="2.5" ry="2.5" style="stroke:#181818;stroke-width:0.5;" width="208" x="385.5" y="381"/><ellipse cx="455.25" cy="397" fill="#A9DCDF" rx="11" ry="11" style="stroke:#181818;stroke-width:1.0;"/><path d="M457.4375,398.7656 L453.2969,398.7656 L452.875,399.7969 L453.2969,399.7969 Q453.9063,399.7969 454.1719,400.0313 Q454.4375,400.2656 454.4375,400.6563 Q454.4375,401.0313 454.1719,401.2656 Q453.9063,401.5 453.2969,401.5 L451,401.5 Q450.3906,401.5 450.1406,401.2656 Q449.875,401.0313 449.875,400.6406 Q449.875,400.2656 450.1563,400.0313 Q450.4219,399.7813 451.0469,399.7969 L453.7188,393.1406 L452.6094,393.1406 Q452,393.1406 451.7344,392.9063 Q451.4688,392.6719 451.4688,392.2813 Q451.4688,391.9063 451.7344,391.6719 Q452,391.4375 452.6094,391.4375 L456.2813,391.4375 L459.6719,399.7969 Q460.2656,399.7969 460.4531,399.9375 Q460.8438,400.2031 460.8438,400.6563 Q460.8438,401.0313 460.5781,401.2656 Q460.3281,401.5 459.7188,401.5 L457.4219,401.5 Q456.8125,401.5 456.5469,401.2656 Q456.2813,401.0313 456.2813,400.6406 Q456.2813,400.2656 456.5469,400.0313 Q456.8125,399.7969 457.4219,399.7969 L457.8438,399.7969 L457.4375,398.7656 Z M456.7188,397.0625 L455.3594,393.6875 L453.9844,397.0625 L456.7188,397.0625 Z " fill="#000000"/><text fill="#000000" font-family="sans-serif" font-size="14" font-style="italic" lengthAdjust="spacing" textLength="60" x="475.75" y="402.7285">Nachricht</text><line style="stroke:#181818;stroke-width:0.5;" x1="386.5" x2="592.5" y1="413" y2="413"/><polygon fill="none" points="396.5,422.3047,400.5,426.3047,396.5,430.3047,392.5,426.3047" style="stroke:#B38D22;stroke-width:1.0;"/><text fill="#000000" font-family="sans-serif" font-size="14" lengthAdjust="spacing" textLength="51" x="405.5" y="431.5332">likes: int</text><line style="stroke:#181818;stroke-width:1.0;" x1="386.5" x2="592.5" y1="438.6094" y2="438.6094"/><ellipse cx="396.5" cy="452.9141" fill="#84BE84" rx="3" ry="3" style="stroke:#038048;stroke-width:1.0;"/><text fill="#000000" font-family="sans-serif" font-size="14" lengthAdjust="spacing" textLength="69" x="405.5" y="457.1426">Nachricht()</text><ellipse cx="396.5" cy="470.5234" fill="#84BE84" rx="3" ry="3" style="stroke:#038048;stroke-width:1.0;"/><text fill="#000000" font-family="sans-serif" font-size="14" lengthAdjust="spacing" textLength="182" x="405.5" y="474.752">Nachricht(absender: Person)</text><ellipse cx="396.5" cy="488.1328" fill="#84BE84" rx="3" ry="3" style="stroke:#038048;stroke-width:1.0;"/><text fill="#000000" font-family="sans-serif" font-size="14" lengthAdjust="spacing" textLength="113" x="405.5" y="492.3613">hinzufuegenLike()</text><ellipse cx="396.5" cy="505.7422" fill="#84BE84" rx="3" ry="3" style="stroke:#038048;stroke-width:1.0;"/><text fill="#000000" font-family="sans-serif" font-size="14" font-style="italic" lengthAdjust="spacing" textLength="133" x="405.5" y="509.9707">getNachricht(): string</text></g><!--MD5=[09ce52be0ee7de43c61b6e2d59bf108b]
class Person--><g id="elem_Person"><rect codeLine="19" fill="#F1F1F1" height="136.0469" id="Person" rx="2.5" ry="2.5" style="stroke:#181818;stroke-width:0.5;" width="296" x="441.5" y="185"/><ellipse cx="562.75" cy="201" fill="#ADD1B2" rx="11" ry="11" style="stroke:#181818;stroke-width:1.0;"/><path d="M565.5156,196.875 Q565.6719,196.6563 565.8594,196.5469 Q566.0469,196.4375 566.2656,196.4375 Q566.6406,196.4375 566.875,196.7031 Q567.1094,196.9531 567.1094,197.5625 L567.1094,199.0156 Q567.1094,199.625 566.875,199.8906 Q566.6406,200.1563 566.2656,200.1563 Q565.9219,200.1563 565.7188,199.9531 Q565.5156,199.7656 565.4063,199.25 Q565.3594,198.8906 565.1719,198.7031 Q564.8438,198.3281 564.2344,198.1094 Q563.625,197.8906 563,197.8906 Q562.2344,197.8906 561.5938,198.2188 Q560.9688,198.5469 560.4688,199.2969 Q559.9844,200.0469 559.9844,201.0781 L559.9844,202.1719 Q559.9844,203.4063 560.875,204.2344 Q561.7656,205.0469 563.3594,205.0469 Q564.2969,205.0469 564.9531,204.7969 Q565.3438,204.6406 565.7656,204.2031 Q566.0313,203.9375 566.1719,203.8594 Q566.3281,203.7813 566.5313,203.7813 Q566.8594,203.7813 567.1094,204.0469 Q567.375,204.2969 567.375,204.6406 Q567.375,204.9844 567.0313,205.3906 Q566.5313,205.9688 565.7344,206.2969 Q564.6563,206.75 563.3594,206.75 Q561.8438,206.75 560.6406,206.125 Q559.6563,205.625 558.9688,204.5625 Q558.2813,203.4844 558.2813,202.2031 L558.2813,201.0469 Q558.2813,199.7188 558.8906,198.5781 Q559.5156,197.4219 560.6094,196.8125 Q561.7031,196.1875 562.9375,196.1875 Q563.6719,196.1875 564.3125,196.3594 Q564.9688,196.5156 565.5156,196.875 Z " fill="#000000"/><text fill="#000000" font-family="sans-serif" font-size="14" lengthAdjust="spacing" textLength="45" x="583.25" y="206.7285">Person</text><line style="stroke:#181818;stroke-width:0.5;" x1="442.5" x2="736.5" y1="217" y2="217"/><rect fill="none" height="6" style="stroke:#C82930;stroke-width:1.0;" width="6" x="449.5" y="228.3047"/><text fill="#000000" font-family="sans-serif" font-size="14" lengthAdjust="spacing" textLength="109" x="461.5" y="235.5332">nachname: string</text><rect fill="none" height="6" style="stroke:#C82930;stroke-width:1.0;" width="6" x="449.5" y="245.9141"/><text fill="#000000" font-family="sans-serif" font-size="14" lengthAdjust="spacing" textLength="98" x="461.5" y="253.1426">vorname: string</text><line style="stroke:#181818;stroke-width:1.0;" x1="442.5" x2="736.5" y1="260.2188" y2="260.2188"/><ellipse cx="452.5" cy="274.5234" fill="#84BE84" rx="3" ry="3" style="stroke:#038048;stroke-width:1.0;"/><text fill="#000000" font-family="sans-serif" font-size="14" lengthAdjust="spacing" textLength="55" x="461.5" y="278.752">Person()</text><ellipse cx="452.5" cy="292.1328" fill="#84BE84" rx="3" ry="3" style="stroke:#038048;stroke-width:1.0;"/><text fill="#000000" font-family="sans-serif" font-size="14" lengthAdjust="spacing" textLength="184" x="461.5" y="296.3613">Person(nn: string , vn: string)</text><ellipse cx="452.5" cy="309.7422" fill="#84BE84" rx="3" ry="3" style="stroke:#038048;stroke-width:1.0;"/><text fill="#000000" font-family="sans-serif" font-size="14" lengthAdjust="spacing" textLength="270" x="461.5" y="313.9707">getNachname(): stringgetVorname(): string</text></g><!--MD5=[10e19ac892d12d25fbf61c17f2ab32e1]
class Textnachricht--><g id="elem_Textnachricht"><rect codeLine="28" fill="#F1F1F1" height="118.4375" id="Textnachricht" rx="2.5" ry="2.5" style="stroke:#181818;stroke-width:0.5;" width="343" x="629" y="390"/><ellipse cx="753.75" cy="406" fill="#ADD1B2" rx="11" ry="11" style="stroke:#181818;stroke-width:1.0;"/><path d="M756.5156,401.875 Q756.6719,401.6563 756.8594,401.5469 Q757.0469,401.4375 757.2656,401.4375 Q757.6406,401.4375 757.875,401.7031 Q758.1094,401.9531 758.1094,402.5625 L758.1094,404.0156 Q758.1094,404.625 757.875,404.8906 Q757.6406,405.1563 757.2656,405.1563 Q756.9219,405.1563 756.7188,404.9531 Q756.5156,404.7656 756.4063,404.25 Q756.3594,403.8906 756.1719,403.7031 Q755.8438,403.3281 755.2344,403.1094 Q754.625,402.8906 754,402.8906 Q753.2344,402.8906 752.5938,403.2188 Q751.9688,403.5469 751.4688,404.2969 Q750.9844,405.0469 750.9844,406.0781 L750.9844,407.1719 Q750.9844,408.4063 751.875,409.2344 Q752.7656,410.0469 754.3594,410.0469 Q755.2969,410.0469 755.9531,409.7969 Q756.3438,409.6406 756.7656,409.2031 Q757.0313,408.9375 757.1719,408.8594 Q757.3281,408.7813 757.5313,408.7813 Q757.8594,408.7813 758.1094,409.0469 Q758.375,409.2969 758.375,409.6406 Q758.375,409.9844 758.0313,410.3906 Q757.5313,410.9688 756.7344,411.2969 Q755.6563,411.75 754.3594,411.75 Q752.8438,411.75 751.6406,411.125 Q750.6563,410.625 749.9688,409.5625 Q749.2813,408.4844 749.2813,407.2031 L749.2813,406.0469 Q749.2813,404.7188 749.8906,403.5781 Q750.5156,402.4219 751.6094,401.8125 Q752.7031,401.1875 753.9375,401.1875 Q754.6719,401.1875 755.3125,401.3594 Q755.9688,401.5156 756.5156,401.875 Z " fill="#000000"/><text fill="#000000" font-family="sans-serif" font-size="14" lengthAdjust="spacing" textLength="85" x="774.25" y="411.7285">Textnachricht</text><line style="stroke:#181818;stroke-width:0.5;" x1="630" x2="971" y1="422" y2="422"/><rect fill="none" height="6" style="stroke:#C82930;stroke-width:1.0;" width="6" x="637" y="433.3047"/><text fill="#000000" font-family="sans-serif" font-size="14" lengthAdjust="spacing" textLength="101" x="649" y="440.5332">nachricht: string</text><line style="stroke:#181818;stroke-width:1.0;" x1="630" x2="971" y1="447.6094" y2="447.6094"/><ellipse cx="640" cy="461.9141" fill="#84BE84" rx="3" ry="3" style="stroke:#038048;stroke-width:1.0;"/><text fill="#000000" font-family="sans-serif" font-size="14" lengthAdjust="spacing" textLength="95" x="649" y="466.1426">Textnachricht()</text><ellipse cx="640" cy="479.5234" fill="#84BE84" rx="3" ry="3" style="stroke:#038048;stroke-width:1.0;"/><text fill="#000000" font-family="sans-serif" font-size="14" lengthAdjust="spacing" textLength="317" x="649" y="483.752">Textnachricht(nachricht: string, absender: Person)</text><ellipse cx="640" cy="497.1328" fill="#84BE84" rx="3" ry="3" style="stroke:#038048;stroke-width:1.0;"/><text fill="#000000" font-family="sans-serif" font-size="14" lengthAdjust="spacing" textLength="132" x="649" y="501.3613">getNachricht(): string</text></g><!--MD5=[7f7fd10f8ac5ef920cac60ae6580bb23]
class Bildnachricht--><g id="elem_Bildnachricht"><rect codeLine="36" fill="#F1F1F1" height="118.4375" id="Bildnachricht" rx="2.5" ry="2.5" style="stroke:#181818;stroke-width:0.5;" width="343" x="7" y="390"/><ellipse cx="133.75" cy="406" fill="#ADD1B2" rx="11" ry="11" style="stroke:#181818;stroke-width:1.0;"/><path d="M136.5156,401.875 Q136.6719,401.6563 136.8594,401.5469 Q137.0469,401.4375 137.2656,401.4375 Q137.6406,401.4375 137.875,401.7031 Q138.1094,401.9531 138.1094,402.5625 L138.1094,404.0156 Q138.1094,404.625 137.875,404.8906 Q137.6406,405.1563 137.2656,405.1563 Q136.9219,405.1563 136.7188,404.9531 Q136.5156,404.7656 136.4063,404.25 Q136.3594,403.8906 136.1719,403.7031 Q135.8438,403.3281 135.2344,403.1094 Q134.625,402.8906 134,402.8906 Q133.2344,402.8906 132.5938,403.2188 Q131.9688,403.5469 131.4688,404.2969 Q130.9844,405.0469 130.9844,406.0781 L130.9844,407.1719 Q130.9844,408.4063 131.875,409.2344 Q132.7656,410.0469 134.3594,410.0469 Q135.2969,410.0469 135.9531,409.7969 Q136.3438,409.6406 136.7656,409.2031 Q137.0313,408.9375 137.1719,408.8594 Q137.3281,408.7813 137.5313,408.7813 Q137.8594,408.7813 138.1094,409.0469 Q138.375,409.2969 138.375,409.6406 Q138.375,409.9844 138.0313,410.3906 Q137.5313,410.9688 136.7344,411.2969 Q135.6563,411.75 134.3594,411.75 Q132.8438,411.75 131.6406,411.125 Q130.6563,410.625 129.9688,409.5625 Q129.2813,408.4844 129.2813,407.2031 L129.2813,406.0469 Q129.2813,404.7188 129.8906,403.5781 Q130.5156,402.4219 131.6094,401.8125 Q132.7031,401.1875 133.9375,401.1875 Q134.6719,401.1875 135.3125,401.3594 Q135.9688,401.5156 136.5156,401.875 Z " fill="#000000"/><text fill="#000000" font-family="sans-serif" font-size="14" lengthAdjust="spacing" textLength="81" x="154.25" y="411.7285">Bildnachricht</text><line style="stroke:#181818;stroke-width:0.5;" x1="8" x2="349" y1="422" y2="422"/><rect fill="none" height="6" style="stroke:#C82930;stroke-width:1.0;" width="6" x="15" y="433.3047"/><text fill="#000000" font-family="sans-serif" font-size="14" lengthAdjust="spacing" textLength="109" x="27" y="440.5332">dateiname: string</text><line style="stroke:#181818;stroke-width:1.0;" x1="8" x2="349" y1="447.6094" y2="447.6094"/><ellipse cx="18" cy="461.9141" fill="#84BE84" rx="3" ry="3" style="stroke:#038048;stroke-width:1.0;"/><text fill="#000000" font-family="sans-serif" font-size="14" lengthAdjust="spacing" textLength="91" x="27" y="466.1426">Bildnachricht()</text><ellipse cx="18" cy="479.5234" fill="#84BE84" rx="3" ry="3" style="stroke:#038048;stroke-width:1.0;"/><text fill="#000000" font-family="sans-serif" font-size="14" lengthAdjust="spacing" textLength="317" x="27" y="483.752">Bildnachricht(dateiname:string, absender: Person)</text><ellipse cx="18" cy="497.1328" fill="#84BE84" rx="3" ry="3" style="stroke:#038048;stroke-width:1.0;"/><text fill="#000000" font-family="sans-serif" font-size="14" lengthAdjust="spacing" textLength="132" x="27" y="501.3613">getNachricht(): string</text></g><!--MD5=[d4957aa674b570c3d036a370d94ca77d]
reverse link SozialesNetzwerk to Person--><g id="link_SozialesNetzwerk_Person"><path codeLine="44" d="M526.62,136.83 C535.21,152.55 544.29,169.2 552.82,184.81 " fill="none" id="SozialesNetzwerk-backto-Person" style="stroke:#181818;stroke-width:1.0;"/><polygon fill="none" points="520.18,125.03,519.5466,132.2132,525.9336,135.5607,526.567,128.3775,520.18,125.03" style="stroke:#181818;stroke-width:1.0;"/><text fill="#000000" font-family="sans-serif" font-size="13" lengthAdjust="spacing" textLength="72" x="447.6265" y="147.1078">- mitglieder[]</text><text fill="#000000" font-family="sans-serif" font-size="13" lengthAdjust="spacing" textLength="20" x="527.7144" y="173.9885">0..*</text></g><!--MD5=[b27b95fa25cd27afe687b7a5c71dc2b0]
reverse link SozialesNetzwerk to Nachricht--><g id="link_SozialesNetzwerk_Nachricht"><path codeLine="45" d="M443.17,137.17 C435.46,152.38 428.62,168.78 424.5,185 C409.63,243.59 410.34,262.24 424.5,321 C429.4,341.35 438.15,362.1 447.67,380.77 " fill="none" id="SozialesNetzwerk-backto-Nachricht" style="stroke:#181818;stroke-width:1.0;"/><polygon fill="none" points="449.51,125.25,443.1613,128.6696,443.876,135.8452,450.2247,132.4256,449.51,125.25" style="stroke:#181818;stroke-width:1.0;"/><text fill="#000000" font-family="sans-serif" font-size="13" lengthAdjust="spacing" textLength="100" x="337.6261" y="369.9441">- nachrichtenlist[]</text></g><!--MD5=[caa85c170e39c20dd264ae6e9e0bc7c0]
reverse link Person to Nachricht--><g id="link_Person_Nachricht"><path codeLine="46" d="M552.59,325.61 C543.25,343.72 533.27,363.09 524.06,380.96 " fill="none" id="Person-backto-Nachricht" style="stroke:#181818;stroke-width:1.0;"/><polygon fill="#181818" points="554.95,321.04,547.2758,327.2131,552.6626,325.4861,554.3896,330.8729,554.95,321.04" style="stroke:#181818;stroke-width:1.0;"/><text fill="#000000" font-family="sans-serif" font-size="13" lengthAdjust="spacing" textLength="57" x="491.448" y="342.3925">-absender</text></g><!--MD5=[8b73cfcd0f27123b17edb562a9118af2]
reverse link Nachricht to Textnachricht--><g id="link_Nachricht_Textnachricht"><path codeLine="47" d="M613.72,449 C618.75,449 623.78,449 628.82,449 " fill="none" id="Nachricht-backto-Textnachricht" style="stroke:#181818;stroke-width:1.0;"/><polygon fill="none" points="613.67,456,593.67,449,613.67,442,613.67,456" style="stroke:#181818;stroke-width:1.0;"/></g><!--MD5=[77b6fbc52fb1e870172517ed32d63295]
link Bildnachricht to Nachricht--><g id="link_Bildnachricht_Nachricht"><path codeLine="48" d="M350.1,449 C355.17,449 360.24,449 365.31,449 " fill="none" id="Bildnachricht-to-Nachricht" style="stroke:#181818;stroke-width:1.0;"/><polygon fill="none" points="365.49,442,385.49,449,365.49,456,365.49,442" style="stroke:#181818;stroke-width:1.0;"/></g><!--MD5=[5f5fdef0de55a637971f20be25078ee7]
@startuml

class SozialesNetzwerk {

    - -
    + hinzufuegenMitglied(person: Person)
    + hinzufuegenNachrict(nachricht: Nachricht)
    + getAllNachrichten() : string
}

abstract class Nachricht{
    # likes: int
    - -
    + Nachricht()
    + Nachricht(absender: Person)
    + hinzufuegenLike()
    + {abstract} getNachricht(): string  
}

class Person {
    - nachname: string
    - vorname: string
    - -
    + Person()
    + Person(nn: string , vn: string)
    + getNachname(): stringgetVorname(): string
}

class Textnachricht{
    - nachricht: string 
    - -
    + Textnachricht()
    + Textnachricht(nachricht: string, absender: Person) 
    + getNachricht(): string 
}

class Bildnachricht {
    - dateiname: string
    - -
    + Bildnachricht()
    + Bildnachricht(dateiname:string, absender: Person)
    + getNachricht(): string
}
' Beziehung 
SozialesNetzwerk "- mitglieder[]" o- - "0..*" Person
SozialesNetzwerk o- - "- nachrichtenlist[]" Nachricht
Person "-absender" <- - Nachricht
Nachricht <|- Textnachricht
Bildnachricht -|> Nachricht 

@enduml

@startuml

class SozialesNetzwerk {

    - -
    + hinzufuegenMitglied(person: Person)
    + hinzufuegenNachrict(nachricht: Nachricht)
    + getAllNachrichten() : string
}

abstract class Nachricht{
    # likes: int
    - -
    + Nachricht()
    + Nachricht(absender: Person)
    + hinzufuegenLike()
    + {abstract} getNachricht(): string  
}

class Person {
    - nachname: string
    - vorname: string
    - -
    + Person()
    + Person(nn: string , vn: string)
    + getNachname(): stringgetVorname(): string
}

class Textnachricht{
    - nachricht: string 
    - -
    + Textnachricht()
    + Textnachricht(nachricht: string, absender: Person) 
    + getNachricht(): string 
}

class Bildnachricht {
    - dateiname: string
    - -
    + Bildnachricht()
    + Bildnachricht(dateiname:string, absender: Person)
    + getNachricht(): string
}
SozialesNetzwerk "- mitglieder[]" o- - "0..*" Person
SozialesNetzwerk o- - "- nachrichtenlist[]" Nachricht
Person "-absender" <- - Nachricht
Nachricht <|- Textnachricht
Bildnachricht -|> Nachricht 

@enduml

PlantUML version 1.2022.7(Mon Aug 22 19:01:30 CEST 2022)
(GPL source distribution)
Java Runtime: OpenJDK Runtime Environment
JVM: OpenJDK 64-Bit Server VM
Default Encoding: UTF-8
Language: de
Country: DE
--></g></svg>