<?xml version="1.0" encoding="UTF-8" standalone="no"?><svg xmlns="http://www.w3.org/2000/svg" xmlns:xlink="http://www.w3.org/1999/xlink" contentStyleType="text/css" height="292px" preserveAspectRatio="none" style="width:214px;height:292px;background:#FFFFFF;" version="1.1" viewBox="0 0 214 292" width="214px" zoomAndPan="magnify"><defs/><g><g id="cluster_##3"><path d="M90.6248,16.6111 C93.8311,9.0523 99.6908,10.2091 103.9555,15.5142 C106.6723,9.4537 110.9236,9.3184 115.4029,13.5548 C119.8763,6 125.5163,6.8227 129.8364,13.7081 C133.7773,7.4394 138.6448,7.5347 143.4063,12.7373 C147.3031,7.3203 152.0409,7.5288 155.6671,13.0409 C161.6866,6.6849 166.1579,7.8282 169.4628,15.6774 C172.6122,9.2402 176.17,10.1226 180.6797,14.2305 C186.2323,8.4561 191.0351,7.788 195.1801,15.7197 C203.6332,18.4198 204.9189,25.6832 197.8467,31.0787 C205.7198,34.721 207.0093,42.893 199.617,48.1211 C206.5151,55.1606 204.5236,60.5657 195.8729,63.9204 C203.5245,68.7983 202.0548,75.5806 194.5911,79.1896 C191.561,86.485 185.4894,87.6806 180.5592,81.1128 C178.1874,87.0418 172.3627,87.4978 168.5193,82.7764 C165.0782,89.6371 159.9331,90.9979 154.9267,84.3517 C152.4812,90.5965 146.4621,91.0663 142.4326,86.1201 C138.5905,90.7823 132.1101,91.2298 129.7495,84.4743 C126.148,89.6321 119.8574,89.4418 117.1922,83.4225 C111.8998,90.1416 106.8008,89.0309 103.0443,81.8583 C98.1831,87.9449 92.5848,86.6603 89.4366,80.0258 C79.9151,77.1787 78.695,70.355 86.4287,64.2234 C77.7735,60.7668 76.958,54.7003 83.6171,48.5044 C77.4188,41.7911 79.6875,34.56 88.3183,32.0952 C81.6529,25.5899 83.5867,21.0751 90.6248,16.6111 " fill="none" style="stroke:#181818;stroke-width:1.0;"/></g><!--MD5=[9eb86c2b3d925a16ba1bdada40016c70]
entity Internet--><g id="elem_Internet"><rect fill="#F1F1F1" height="47.6094" rx="2.5" ry="2.5" style="stroke:#181818;stroke-width:0.5;" width="88" x="97.375" y="22.54"/><rect fill="#F1F1F1" height="10" style="stroke:#181818;stroke-width:0.5;" width="15" x="165.375" y="27.54"/><rect fill="#F1F1F1" height="2" style="stroke:#181818;stroke-width:0.5;" width="4" x="163.375" y="29.54"/><rect fill="#F1F1F1" height="2" style="stroke:#181818;stroke-width:0.5;" width="4" x="163.375" y="33.54"/><text fill="#000000" font-family="sans-serif" font-size="14" lengthAdjust="spacing" textLength="48" x="112.375" y="57.0732">Internet</text></g><!--MD5=[63fee9fed8ddbf662b86d969ddd0e4d9]
entity Router1--><g id="elem_Router1"><rect fill="#F1F1F1" height="47.6094" rx="2.5" ry="2.5" style="stroke:#181818;stroke-width:0.5;" width="91" x="95.875" y="130.54"/><rect fill="#F1F1F1" height="10" style="stroke:#181818;stroke-width:0.5;" width="15" x="166.875" y="135.54"/><rect fill="#F1F1F1" height="2" style="stroke:#181818;stroke-width:0.5;" width="4" x="164.875" y="137.54"/><rect fill="#F1F1F1" height="2" style="stroke:#181818;stroke-width:0.5;" width="4" x="164.875" y="141.54"/><text fill="#000000" font-family="sans-serif" font-size="14" lengthAdjust="spacing" textLength="51" x="110.875" y="165.0732">Router1</text></g><!--MD5=[eebcdcd7f006b51a4662a721abb55877]
entity Router2--><g id="elem_Router2"><rect fill="#F1F1F1" height="47.6094" rx="2.5" ry="2.5" style="stroke:#181818;stroke-width:0.5;" width="91" x="95.875" y="238.54"/><rect fill="#F1F1F1" height="10" style="stroke:#181818;stroke-width:0.5;" width="15" x="166.875" y="243.54"/><rect fill="#F1F1F1" height="2" style="stroke:#181818;stroke-width:0.5;" width="4" x="164.875" y="245.54"/><rect fill="#F1F1F1" height="2" style="stroke:#181818;stroke-width:0.5;" width="4" x="164.875" y="249.54"/><text fill="#000000" font-family="sans-serif" font-size="14" lengthAdjust="spacing" textLength="51" x="110.875" y="273.0732">Router2</text></g><!--MD5=[b616616803e5281ec582f1fff77ee6fb]
link Internet to Router1--><g id="link_Internet_Router1"><path d="M141.375,70.54 C141.375,88.2 141.375,112.48 141.375,130.22 " fill="none" id="Internet-Router1" style="stroke:#181818;stroke-width:1.0;"/><text fill="#000000" font-family="sans-serif" font-size="13" lengthAdjust="spacing" textLength="116" x="11.9625" y="91.5209">IP 141.51.252.65/28</text><text fill="#000000" font-family="sans-serif" font-size="13" lengthAdjust="spacing" textLength="116" x="10.5125" y="119.5282">IP 141.51.252.66/28</text></g><!--MD5=[8caafb378fe3ebc7a04e73bda5d2c315]
link Router1 to Router2--><g id="link_Router1_Router2"><path d="M141.375,178.54 C141.375,196.2 141.375,220.48 141.375,238.22 " fill="none" id="Router1-Router2" style="stroke:#181818;stroke-width:1.0;"/><text fill="#000000" font-family="sans-serif" font-size="13" lengthAdjust="spacing" textLength="116" x="11.9625" y="199.5209">IP 192.168.100.2/30</text><text fill="#000000" font-family="sans-serif" font-size="13" lengthAdjust="spacing" textLength="116" x="6" y="227.5282">IP 192.168.100.1/30</text></g><!--MD5=[6fe8bff09faf33ac7fc9edea263bded5]
@startuml
[Router1]
cloud {
    [Internet]
}
[Router2]

[Internet] "IP 141.51.252.65/28" - - "IP 141.51.252.66/28" [Router1]
[Router1] "IP 192.168.100.2/30" - - "IP 192.168.100.1/30 " [Router2]

@enduml

PlantUML version 1.2022.7(Mon Aug 22 19:01:30 CEST 2022)
(GPL source distribution)
Java Runtime: OpenJDK Runtime Environment
JVM: OpenJDK 64-Bit Server VM
Default Encoding: UTF-8
Language: de
Country: DE
--></g></svg>