<?xml version="1.0" encoding="UTF-8" standalone="no"?><svg xmlns="http://www.w3.org/2000/svg" xmlns:xlink="http://www.w3.org/1999/xlink" contentStyleType="text/css" height="292px" preserveAspectRatio="none" style="width:611px;height:292px;background:#FFFFFF;" version="1.1" viewBox="0 0 611 292" width="611px" zoomAndPan="magnify"><defs/><g><g id="cluster_##3"><path d="M86.1123,16.6111 C89.3186,9.0523 95.1783,10.2091 99.443,15.5142 C102.1598,9.4537 106.4111,9.3184 110.8904,13.5548 C115.3638,6 121.0038,6.8227 125.3239,13.7081 C129.2648,7.4394 134.1323,7.5347 138.8938,12.7373 C142.7906,7.3203 147.5284,7.5288 151.1546,13.0409 C157.1741,6.6849 161.6454,7.8282 164.9503,15.6774 C168.0997,9.2402 171.6575,10.1226 176.1672,14.2305 C181.7198,8.4561 186.5226,7.788 190.6676,15.7197 C199.1207,18.4198 200.4064,25.6832 193.3342,31.0787 C201.2073,34.721 202.4968,42.893 195.1045,48.1211 C202.0026,55.1606 200.0111,60.5657 191.3604,63.9204 C199.012,68.7983 197.5423,75.5806 190.0786,79.1896 C187.0485,86.485 180.9769,87.6806 176.0467,81.1128 C173.6749,87.0418 167.8502,87.4978 164.0068,82.7764 C160.5657,89.6371 155.4206,90.9979 150.4142,84.3517 C147.9687,90.5965 141.9496,91.0663 137.9201,86.1201 C134.078,90.7823 127.5976,91.2298 125.237,84.4743 C121.6355,89.6321 115.3449,89.4418 112.6797,83.4225 C107.3873,90.1416 102.2883,89.0309 98.5318,81.8583 C93.6706,87.9449 88.0723,86.6603 84.9241,80.0258 C75.4026,77.1787 74.1825,70.355 81.9162,64.2234 C73.261,60.7668 72.4455,54.7003 79.1046,48.5044 C72.9063,41.7911 75.175,34.56 83.8058,32.0952 C77.1404,25.5899 79.0742,21.0751 86.1123,16.6111 " fill="none" style="stroke:#181818;stroke-width:1.0;"/></g><!--MD5=[9eb86c2b3d925a16ba1bdada40016c70]
entity Internet--><g id="elem_Internet"><rect fill="#F1F1F1" height="47.6094" rx="2.5" ry="2.5" style="stroke:#181818;stroke-width:0.5;" width="88" x="92.8625" y="22.54"/><rect fill="#F1F1F1" height="10" style="stroke:#181818;stroke-width:0.5;" width="15" x="160.8625" y="27.54"/><rect fill="#F1F1F1" height="2" style="stroke:#181818;stroke-width:0.5;" width="4" x="158.8625" y="29.54"/><rect fill="#F1F1F1" height="2" style="stroke:#181818;stroke-width:0.5;" width="4" x="158.8625" y="33.54"/><text fill="#000000" font-family="sans-serif" font-size="14" lengthAdjust="spacing" textLength="48" x="107.8625" y="57.0732">Internet</text></g><!--MD5=[63fee9fed8ddbf662b86d969ddd0e4d9]
entity Router1--><g id="elem_Router1"><rect fill="#F1F1F1" height="47.6094" rx="2.5" ry="2.5" style="stroke:#181818;stroke-width:0.5;" width="91" x="91.3625" y="130.54"/><rect fill="#F1F1F1" height="10" style="stroke:#181818;stroke-width:0.5;" width="15" x="162.3625" y="135.54"/><rect fill="#F1F1F1" height="2" style="stroke:#181818;stroke-width:0.5;" width="4" x="160.3625" y="137.54"/><rect fill="#F1F1F1" height="2" style="stroke:#181818;stroke-width:0.5;" width="4" x="160.3625" y="141.54"/><text fill="#000000" font-family="sans-serif" font-size="14" lengthAdjust="spacing" textLength="51" x="106.3625" y="165.0732">Router1</text></g><!--MD5=[7905c76d7135e4f0b085402fe110319d]
entity Switch1--><g id="elem_Switch1"><rect fill="#F1F1F1" height="47.6094" rx="2.5" ry="2.5" style="stroke:#181818;stroke-width:0.5;" width="88" x="217.8625" y="130.54"/><rect fill="#F1F1F1" height="10" style="stroke:#181818;stroke-width:0.5;" width="15" x="285.8625" y="135.54"/><rect fill="#F1F1F1" height="2" style="stroke:#181818;stroke-width:0.5;" width="4" x="283.8625" y="137.54"/><rect fill="#F1F1F1" height="2" style="stroke:#181818;stroke-width:0.5;" width="4" x="283.8625" y="141.54"/><text fill="#000000" font-family="sans-serif" font-size="14" lengthAdjust="spacing" textLength="48" x="232.8625" y="165.0732">Switch1</text></g><!--MD5=[4dba27ea8ec3be9aad7d456bc4d6263d]
entity SwitchMulti--><g id="elem_SwitchMulti"><rect fill="#F1F1F1" height="47.6094" rx="2.5" ry="2.5" style="stroke:#181818;stroke-width:0.5;" width="109" x="82.3625" y="238.54"/><rect fill="#F1F1F1" height="10" style="stroke:#181818;stroke-width:0.5;" width="15" x="171.3625" y="243.54"/><rect fill="#F1F1F1" height="2" style="stroke:#181818;stroke-width:0.5;" width="4" x="169.3625" y="245.54"/><rect fill="#F1F1F1" height="2" style="stroke:#181818;stroke-width:0.5;" width="4" x="169.3625" y="249.54"/><text fill="#000000" font-family="sans-serif" font-size="14" lengthAdjust="spacing" textLength="69" x="97.3625" y="273.0732">SwitchMulti</text></g><!--MD5=[6f88fb5c0892e71878d881549f1465f9]
entity PC1--><g id="elem_PC1"><rect fill="#F1F1F1" height="47.6094" rx="2.5" ry="2.5" style="stroke:#181818;stroke-width:0.5;" width="67" x="222.3625" y="22.54"/><rect fill="#F1F1F1" height="10" style="stroke:#181818;stroke-width:0.5;" width="15" x="269.3625" y="27.54"/><rect fill="#F1F1F1" height="2" style="stroke:#181818;stroke-width:0.5;" width="4" x="267.3625" y="29.54"/><rect fill="#F1F1F1" height="2" style="stroke:#181818;stroke-width:0.5;" width="4" x="267.3625" y="33.54"/><text fill="#000000" font-family="sans-serif" font-size="14" lengthAdjust="spacing" textLength="27" x="237.3625" y="57.0732">PC1</text></g><!--MD5=[3b8248b766745ce9464f8ebde34451aa]
entity PC2--><g id="elem_PC2"><rect fill="#F1F1F1" height="47.6094" rx="2.5" ry="2.5" style="stroke:#181818;stroke-width:0.5;" width="67" x="324.3625" y="22.54"/><rect fill="#F1F1F1" height="10" style="stroke:#181818;stroke-width:0.5;" width="15" x="371.3625" y="27.54"/><rect fill="#F1F1F1" height="2" style="stroke:#181818;stroke-width:0.5;" width="4" x="369.3625" y="29.54"/><rect fill="#F1F1F1" height="2" style="stroke:#181818;stroke-width:0.5;" width="4" x="369.3625" y="33.54"/><text fill="#000000" font-family="sans-serif" font-size="14" lengthAdjust="spacing" textLength="27" x="339.3625" y="57.0732">PC2</text></g><!--MD5=[d762370d8daa91fcc6516abc6c7ff001]
entity PCVlan32--><g id="elem_PCVlan32"><rect fill="#F1F1F1" height="47.6094" rx="2.5" ry="2.5" style="stroke:#181818;stroke-width:0.5;" width="103" x="502.3625" y="238.54"/><rect fill="#F1F1F1" height="10" style="stroke:#181818;stroke-width:0.5;" width="15" x="585.3625" y="243.54"/><rect fill="#F1F1F1" height="2" style="stroke:#181818;stroke-width:0.5;" width="4" x="583.3625" y="245.54"/><rect fill="#F1F1F1" height="2" style="stroke:#181818;stroke-width:0.5;" width="4" x="583.3625" y="249.54"/><text fill="#000000" font-family="sans-serif" font-size="14" lengthAdjust="spacing" textLength="63" x="517.3625" y="273.0732">PCVlan32</text></g><!--MD5=[ea301de7377bf21d8f5ffae87af2bb68]
entity PCVlan64--><g id="elem_PCVlan64"><rect fill="#F1F1F1" height="47.6094" rx="2.5" ry="2.5" style="stroke:#181818;stroke-width:0.5;" width="103" x="364.3625" y="238.54"/><rect fill="#F1F1F1" height="10" style="stroke:#181818;stroke-width:0.5;" width="15" x="447.3625" y="243.54"/><rect fill="#F1F1F1" height="2" style="stroke:#181818;stroke-width:0.5;" width="4" x="445.3625" y="245.54"/><rect fill="#F1F1F1" height="2" style="stroke:#181818;stroke-width:0.5;" width="4" x="445.3625" y="249.54"/><text fill="#000000" font-family="sans-serif" font-size="14" lengthAdjust="spacing" textLength="63" x="379.3625" y="273.0732">PCVlan64</text></g><!--MD5=[970587f6b6ca3b553ff2854377943685]
entity PCVlan96--><g id="elem_PCVlan96"><rect fill="#F1F1F1" height="47.6094" rx="2.5" ry="2.5" style="stroke:#181818;stroke-width:0.5;" width="103" x="226.3625" y="238.54"/><rect fill="#F1F1F1" height="10" style="stroke:#181818;stroke-width:0.5;" width="15" x="309.3625" y="243.54"/><rect fill="#F1F1F1" height="2" style="stroke:#181818;stroke-width:0.5;" width="4" x="307.3625" y="245.54"/><rect fill="#F1F1F1" height="2" style="stroke:#181818;stroke-width:0.5;" width="4" x="307.3625" y="249.54"/><text fill="#000000" font-family="sans-serif" font-size="14" lengthAdjust="spacing" textLength="63" x="241.3625" y="273.0732">PCVlan96</text></g><!--MD5=[b616616803e5281ec582f1fff77ee6fb]
link Internet to Router1--><g id="link_Internet_Router1"><path d="M136.8625,70.54 C136.8625,88.2 136.8625,112.48 136.8625,130.22 " fill="none" id="Internet-Router1" style="stroke:#181818;stroke-width:1.0;"/><text fill="#000000" font-family="sans-serif" font-size="13" lengthAdjust="spacing" textLength="116" x="7.45" y="91.5209">IP 141.51.252.65/28</text><text fill="#000000" font-family="sans-serif" font-size="13" lengthAdjust="spacing" textLength="116" x="6" y="119.5282">IP 141.51.252.66/28</text></g><!--MD5=[146c440768f9be35ddad86bcd04adbc5]
link Router1 to SwitchMulti--><g id="link_Router1_SwitchMulti"><path d="M136.8625,178.54 C136.8625,196.2 136.8625,220.48 136.8625,238.22 " fill="none" id="Router1-SwitchMulti" style="stroke:#181818;stroke-width:1.0;"/><text fill="#000000" font-family="sans-serif" font-size="13" lengthAdjust="spacing" textLength="100" x="25.3" y="199.5209">192.168.100.2/30</text><text fill="#000000" font-family="sans-serif" font-size="13" lengthAdjust="spacing" textLength="100" x="24.05" y="227.5282">192.168.100.1/30</text></g><!--MD5=[f9c4749fa916855c5a606d529e95dbb2]
link SwitchMulti to PCVlan32--><g id="link_SwitchMulti_PCVlan32"><path d="M167.2225,238.52 C183.7025,227.02 205.0325,214.48 226.3625,208.54 C329.5525,179.82 364.3925,179.04 467.3625,208.54 C488.1225,214.49 508.7425,227.03 524.6425,238.53 " fill="none" id="SwitchMulti-PCVlan32" style="stroke:#181818;stroke-width:1.0;"/></g><!--MD5=[62c01231173cccbc7db8791f46fa2930]
link SwitchMulti to PCVlan64--><g id="link_SwitchMulti_PCVlan64"><path d="M167.2225,238.52 C183.7025,227.02 205.0325,214.48 226.3625,208.54 C270.4625,196.27 285.3525,195.93 329.3625,208.54 C350.1225,214.49 370.7425,227.03 386.6425,238.53 " fill="none" id="SwitchMulti-PCVlan64" style="stroke:#181818;stroke-width:1.0;"/></g><!--MD5=[9bdd55b37d3f60890b7831e1d7176c84]
link SwitchMulti to PCVlan96--><g id="link_SwitchMulti_PCVlan96"><path d="M191.3925,262.54 C202.9825,262.54 214.5825,262.54 226.1825,262.54 " fill="none" id="SwitchMulti-PCVlan96" style="stroke:#181818;stroke-width:1.0;"/></g><!--MD5=[4e5ad93d4b48c9fc28ac049e306e115b]
link Router1 to Switch1--><g id="link_Router1_Switch1"><path d="M182.7625,154.54 C194.4025,154.54 206.0425,154.54 217.6725,154.54 " fill="none" id="Router1-Switch1" style="stroke:#181818;stroke-width:1.0;"/><text fill="#000000" font-family="sans-serif" font-size="13" lengthAdjust="spacing" textLength="114" x="133.6004" y="119.5371">192.168.200.254/24</text></g><!--MD5=[d8ab60e803dd5180c470fa5fbda2acfe]
link PC1 to Switch1--><g id="link_PC1_Switch1"><path d="M257.1625,70.54 C258.1625,88.2 259.5425,112.48 260.5425,130.22 " fill="none" id="PC1-Switch1" style="stroke:#181818;stroke-width:1.0;"/></g><!--MD5=[44fd3e940334e71a30ff44989bbb8147]
link PC2 to Switch1--><g id="link_PC2_Switch1"><path d="M337.0325,70.54 C321.0425,88.2 299.0525,112.48 282.9825,130.22 " fill="none" id="PC2-Switch1" style="stroke:#181818;stroke-width:1.0;"/></g><!--MD5=[5fd52349ab55a83ebcdde3781c7f0d68]
@startuml
[Router1]
cloud {
    [Internet]
}
[Switch1]
[SwitchMulti]
[PC1]
[PC2]
[PCVlan32]
[PCVlan64]
[PCVlan96]


[Internet] "IP 141.51.252.65/28" - - "IP 141.51.252.66/28" [Router1]
[Router1] "192.168.100.2/30" - - "192.168.100.1/30" [SwitchMulti]
[SwitchMulti] - [PCVlan32]
[SwitchMulti] - [PCVlan64]
[SwitchMulti] - [PCVlan96]


[Router1] "192.168.200.254/24" - [Switch1]
[PC1] - - [Switch1]
[PC2] - - [Switch1]

@enduml

PlantUML version 1.2022.7(Mon Aug 22 19:01:30 CEST 2022)
(GPL source distribution)
Java Runtime: OpenJDK Runtime Environment
JVM: OpenJDK 64-Bit Server VM
Default Encoding: UTF-8
Language: de
Country: DE
--></g></svg>