<?xml version="1.0" encoding="UTF-8" standalone="no"?><svg xmlns="http://www.w3.org/2000/svg" xmlns:xlink="http://www.w3.org/1999/xlink" contentStyleType="text/css" height="315px" preserveAspectRatio="none" style="width:228px;height:315px;background:#FFFFFF;" version="1.1" viewBox="0 0 228 315" width="228px" zoomAndPan="magnify"><defs/><g><!--MD5=[8f7163d0e4f62c6856edf487588c0707]
class Drehmotor--><g id="elem_Drehmotor"><rect codeLine="1" fill="#F1F1F1" height="294.5313" id="Drehmotor" rx="2.5" ry="2.5" style="stroke:#181818;stroke-width:0.5;" width="207" x="7" y="7"/><ellipse cx="72.75" cy="23" fill="#ADD1B2" rx="11" ry="11" style="stroke:#181818;stroke-width:1.0;"/><path d="M75.5156,18.875 Q75.6719,18.6563 75.8594,18.5469 Q76.0469,18.4375 76.2656,18.4375 Q76.6406,18.4375 76.875,18.7031 Q77.1094,18.9531 77.1094,19.5625 L77.1094,21.0156 Q77.1094,21.625 76.875,21.8906 Q76.6406,22.1563 76.2656,22.1563 Q75.9219,22.1563 75.7188,21.9531 Q75.5156,21.7656 75.4063,21.25 Q75.3594,20.8906 75.1719,20.7031 Q74.8438,20.3281 74.2344,20.1094 Q73.625,19.8906 73,19.8906 Q72.2344,19.8906 71.5938,20.2188 Q70.9688,20.5469 70.4688,21.2969 Q69.9844,22.0469 69.9844,23.0781 L69.9844,24.1719 Q69.9844,25.4063 70.875,26.2344 Q71.7656,27.0469 73.3594,27.0469 Q74.2969,27.0469 74.9531,26.7969 Q75.3438,26.6406 75.7656,26.2031 Q76.0313,25.9375 76.1719,25.8594 Q76.3281,25.7813 76.5313,25.7813 Q76.8594,25.7813 77.1094,26.0469 Q77.375,26.2969 77.375,26.6406 Q77.375,26.9844 77.0313,27.3906 Q76.5313,27.9688 75.7344,28.2969 Q74.6563,28.75 73.3594,28.75 Q71.8438,28.75 70.6406,28.125 Q69.6563,27.625 68.9688,26.5625 Q68.2813,25.4844 68.2813,24.2031 L68.2813,23.0469 Q68.2813,21.7188 68.8906,20.5781 Q69.5156,19.4219 70.6094,18.8125 Q71.7031,18.1875 72.9375,18.1875 Q73.6719,18.1875 74.3125,18.3594 Q74.9688,18.5156 75.5156,18.875 Z " fill="#000000"/><text fill="#000000" font-family="sans-serif" font-size="14" lengthAdjust="spacing" textLength="67" x="93.25" y="28.7285">Drehmotor</text><line style="stroke:#181818;stroke-width:0.5;" x1="8" x2="213" y1="39" y2="39"/><rect fill="none" height="6" style="stroke:#C82930;stroke-width:1.0;" width="6" x="15" y="50.3047"/><text fill="#000000" font-family="sans-serif" font-size="14" lengthAdjust="spacing" textLength="123" x="27" y="57.5332">Stromstärke:double</text><rect fill="none" height="6" style="stroke:#C82930;stroke-width:1.0;" width="6" x="15" y="67.9141"/><text fill="#000000" font-family="sans-serif" font-size="14" lengthAdjust="spacing" textLength="112" x="27" y="75.1426">Spannung:double</text><rect fill="none" height="6" style="stroke:#C82930;stroke-width:1.0;" width="6" x="15" y="85.5234"/><text fill="#000000" font-family="sans-serif" font-size="14" lengthAdjust="spacing" textLength="103" x="27" y="92.752">Drehzahl:double</text><rect fill="none" height="6" style="stroke:#C82930;stroke-width:1.0;" width="6" x="15" y="103.1328"/><text fill="#000000" font-family="sans-serif" font-size="14" lengthAdjust="spacing" textLength="128" x="27" y="110.3613">Drehmoment:double</text><rect fill="none" height="6" style="stroke:#C82930;stroke-width:1.0;" width="6" x="15" y="120.7422"/><text fill="#000000" font-family="sans-serif" font-size="14" lengthAdjust="spacing" textLength="96" x="27" y="127.9707">cos_phi:double</text><rect fill="none" height="6" style="stroke:#C82930;stroke-width:1.0;" width="6" x="15" y="138.3516"/><text fill="#000000" font-family="sans-serif" font-size="14" lengthAdjust="spacing" textLength="75" x="27" y="145.5801">n_et:double</text><line style="stroke:#181818;stroke-width:1.0;" x1="8" x2="213" y1="152.6563" y2="152.6563"/><ellipse cx="18" cy="166.9609" fill="#84BE84" rx="3" ry="3" style="stroke:#038048;stroke-width:1.0;"/><text fill="#000000" font-family="sans-serif" font-size="14" lengthAdjust="spacing" textLength="77" x="27" y="171.1895">Drehmotor()</text><ellipse cx="18" cy="184.5703" fill="none" rx="3" ry="3" style="stroke:#038048;stroke-width:1.0;"/><text fill="#000000" font-family="sans-serif" font-size="14" lengthAdjust="spacing" textLength="71" x="27" y="188.7988">get und set</text><ellipse cx="18" cy="202.1797" fill="#84BE84" rx="3" ry="3" style="stroke:#038048;stroke-width:1.0;"/><text fill="#000000" font-family="sans-serif" font-size="14" lengthAdjust="spacing" textLength="145" x="27" y="206.4082">Wirkungsgrad():double</text><ellipse cx="18" cy="219.7891" fill="#84BE84" rx="3" ry="3" style="stroke:#038048;stroke-width:1.0;"/><text fill="#000000" font-family="sans-serif" font-size="14" lengthAdjust="spacing" textLength="166" x="27" y="224.0176">Leistungsabgabe():double</text><ellipse cx="18" cy="237.3984" fill="#84BE84" rx="3" ry="3" style="stroke:#038048;stroke-width:1.0;"/><text fill="#000000" font-family="sans-serif" font-size="14" lengthAdjust="spacing" textLength="181" x="27" y="241.627">Leistungsaufnahme():double</text><ellipse cx="18" cy="255.0078" fill="#84BE84" rx="3" ry="3" style="stroke:#038048;stroke-width:1.0;"/><text fill="#000000" font-family="sans-serif" font-size="14" lengthAdjust="spacing" textLength="181" x="27" y="259.2363">Leistungsaufnahme():double</text><ellipse cx="18" cy="272.6172" fill="#84BE84" rx="3" ry="3" style="stroke:#038048;stroke-width:1.0;"/><text fill="#000000" font-family="sans-serif" font-size="14" lengthAdjust="spacing" textLength="102" x="27" y="276.8457">showData():void</text><text fill="#000000" font-family="sans-serif" font-size="14" lengthAdjust="spacing" textLength="4" x="27" y="294.4551"> </text></g><!--MD5=[84b68a1f012e9c647b2fcc14454b6b88]
@startuml
class Drehmotor {
    - Stromstärke:double 
    - Spannung:double
    - Drehzahl:double
    - Drehmoment:double
    - cos_phi:double
    - n_et:double
    - -
    + Drehmotor()
    + get und set
    + Wirkungsgrad():double
    + Leistungsabgabe():double
    + Leistungsaufnahme():double
    + Leistungsaufnahme():double
    + showData():void

}
@enduml

PlantUML version 1.2022.7(Mon Aug 22 19:01:30 CEST 2022)
(GPL source distribution)
Java Runtime: OpenJDK Runtime Environment
JVM: OpenJDK 64-Bit Server VM
Default Encoding: UTF-8
Language: de
Country: DE
--></g></svg>