<?xml version="1.0" encoding="us-ascii" standalone="no"?><svg xmlns="http://www.w3.org/2000/svg" xmlns:xlink="http://www.w3.org/1999/xlink" contentStyleType="text/css" height="467px" preserveAspectRatio="none" style="width:599px;height:467px;background:#FFFFFF;" version="1.1" viewBox="0 0 599 467" width="599px" zoomAndPan="magnify"><defs/><g><!--class Result--><g id="elem_Result"><rect codeLine="1" fill="#F1F1F1" height="80.9766" id="Result" rx="2.5" ry="2.5" style="stroke:#181818;stroke-width:0.5;" width="128" x="282" y="7"/><ellipse cx="321.3" cy="23" fill="#EB937F" rx="11" ry="11" style="stroke:#181818;stroke-width:1.0;"/><path d="M324.9143,29.5 L317.1945,29.5 L317.1945,17.1069 L324.9143,17.1069 L324.9143,19.2651 L319.6433,19.2651 L319.6433,21.938 L324.4162,21.938 L324.4162,24.0962 L319.6433,24.0962 L319.6433,27.3418 L324.9143,27.3418 Z " fill="#000000"/><text fill="#000000" font-family="sans-serif" font-size="14" lengthAdjust="spacing" textLength="42" x="340.7" y="28.291">Result</text><line style="stroke:#181818;stroke-width:0.5;" x1="283" x2="409" y1="39" y2="39"/><text fill="#000000" font-family="sans-serif" font-size="14" lengthAdjust="spacing" textLength="116" x="288" y="56.5352">T: ResponseType</text><text fill="#000000" font-family="sans-serif" font-size="14" lengthAdjust="spacing" textLength="84" x="288" y="73.0234">E: ErrorType</text><line style="stroke:#181818;stroke-width:0.5;" x1="283" x2="409" y1="79.9766" y2="79.9766"/></g><!--class ResponseType--><g id="elem_ResponseType"><rect codeLine="5" fill="#F1F1F1" height="97.4648" id="ResponseType" rx="2.5" ry="2.5" style="stroke:#181818;stroke-width:0.5;" width="368" x="7" y="172.71"/><ellipse cx="137.25" cy="188.71" fill="#EB937F" rx="11" ry="11" style="stroke:#181818;stroke-width:1.0;"/><path d="M140.8643,195.21 L133.1445,195.21 L133.1445,182.8169 L140.8643,182.8169 L140.8643,184.9751 L135.5933,184.9751 L135.5933,187.648 L140.3662,187.648 L140.3662,189.8062 L135.5933,189.8062 L135.5933,193.0518 L140.8643,193.0518 Z " fill="#000000"/><text fill="#000000" font-family="sans-serif" font-size="14" lengthAdjust="spacing" textLength="99" x="157.75" y="194.001">ResponseType</text><line style="stroke:#181818;stroke-width:0.5;" x1="8" x2="374" y1="204.71" y2="204.71"/><text fill="#000000" font-family="sans-serif" font-size="14" lengthAdjust="spacing" textLength="114" x="13" y="222.2452">SuccessfulJoined</text><text fill="#000000" font-family="sans-serif" font-size="14" lengthAdjust="spacing" textLength="114" x="13" y="238.7334">SuccessfulDelete</text><text fill="#000000" font-family="sans-serif" font-size="14" lengthAdjust="spacing" textLength="356" x="13" y="255.2217">ResultOverviewday{ result: Vec&lt;EntryRelatedData&gt; }</text><line style="stroke:#181818;stroke-width:0.5;" x1="8" x2="374" y1="262.1748" y2="262.1748"/></g><!--class ErrorType--><g id="elem_ErrorType"><rect codeLine="10" fill="#F1F1F1" height="146.9297" id="ErrorType" rx="2.5" ry="2.5" style="stroke:#181818;stroke-width:0.5;" width="182" x="410" y="147.97"/><ellipse cx="462.75" cy="163.97" fill="#EB937F" rx="11" ry="11" style="stroke:#181818;stroke-width:1.0;"/><path d="M466.3643,170.47 L458.6445,170.47 L458.6445,158.0769 L466.3643,158.0769 L466.3643,160.2351 L461.0933,160.2351 L461.0933,162.908 L465.8662,162.908 L465.8662,165.0662 L461.0933,165.0662 L461.0933,168.3118 L466.3643,168.3118 Z " fill="#000000"/><text fill="#000000" font-family="sans-serif" font-size="14" lengthAdjust="spacing" textLength="68" x="483.25" y="169.261">ErrorType</text><line style="stroke:#181818;stroke-width:0.5;" x1="411" x2="591" y1="179.97" y2="179.97"/><text fill="#000000" font-family="sans-serif" font-size="14" lengthAdjust="spacing" textLength="84" x="416" y="197.5052">FailedDelete</text><text fill="#000000" font-family="sans-serif" font-size="14" lengthAdjust="spacing" textLength="53" x="416" y="213.9934">DBError</text><text fill="#000000" font-family="sans-serif" font-size="14" lengthAdjust="spacing" textLength="76" x="416" y="230.4817">RoomIsFull</text><text fill="#000000" font-family="sans-serif" font-size="14" lengthAdjust="spacing" textLength="152" x="416" y="246.97">NoRoomLimitProvided</text><text fill="#000000" font-family="sans-serif" font-size="14" lengthAdjust="spacing" textLength="132" x="416" y="263.4583">NoRoomWithThisID</text><text fill="#000000" font-family="sans-serif" font-size="14" lengthAdjust="spacing" textLength="170" x="416" y="279.9466">GivenTimeIsNotRCF3339</text><line style="stroke:#181818;stroke-width:0.5;" x1="411" x2="591" y1="286.8997" y2="286.8997"/></g><!--class EntryRelatedData--><g id="elem_EntryRelatedData"><rect codeLine="18" fill="#F1F1F1" height="106.0859" id="EntryRelatedData" rx="2.5" ry="2.5" style="stroke:#181818;stroke-width:0.5;" width="253" x="64.5" y="354.9"/><ellipse cx="128.25" cy="375.2105" fill="#FF7700" rx="11" ry="11" style="stroke:#181818;stroke-width:1.0;"/><path d="M127.9834,376.2735 Q126.1323,375.568 125.4766,374.7918 Q124.8208,374.0157 124.8208,372.7042 Q124.8208,371.0191 125.8999,370.0563 Q126.979,369.0934 128.8633,369.0934 Q129.7183,369.0934 130.5732,369.2884 Q131.4282,369.4835 132.2666,369.8653 L132.2666,372.256 Q131.478,371.6998 130.6646,371.4093 Q129.8511,371.1188 129.0542,371.1188 Q128.166,371.1188 127.6929,371.4757 Q127.2197,371.8326 127.2197,372.4967 Q127.2197,373.0113 127.5642,373.3475 Q127.9087,373.6837 129.0044,374.0904 L130.0586,374.4889 Q131.5527,375.0367 132.2583,375.9415 Q132.9639,376.8463 132.9639,378.2242 Q132.9639,380.1002 131.8557,381.0257 Q130.7476,381.9513 128.5063,381.9513 Q127.585,381.9513 126.6594,381.7313 Q125.7339,381.5113 124.8706,381.0797 L124.8706,378.5479 Q125.8501,379.2452 126.7673,379.5855 Q127.6846,379.9259 128.5811,379.9259 Q129.4858,379.9259 129.9839,379.515 Q130.4819,379.1041 130.4819,378.3653 Q130.4819,377.8092 130.1499,377.39 Q129.8179,376.9708 129.187,376.7301 Z " fill="#000000"/><text fill="#000000" font-family="sans-serif" font-size="12" font-style="italic" lengthAdjust="spacing" textLength="44" x="185.25" y="371.5016">&#171;Struct&#187;</text><text fill="#000000" font-family="sans-serif" font-size="14" lengthAdjust="spacing" textLength="117" x="148.75" y="387.568">EntryRelatedData</text><line style="stroke:#181818;stroke-width:0.5;" x1="65.5" x2="316.5" y1="395.5211" y2="395.5211"/><ellipse cx="75.5" cy="409.2652" fill="none" rx="3" ry="3" style="stroke:#038048;stroke-width:1.0;"/><text fill="#000000" font-family="sans-serif" font-size="14" lengthAdjust="spacing" textLength="43" x="84.5" y="413.0563">id: i32</text><ellipse cx="75.5" cy="425.7535" fill="none" rx="3" ry="3" style="stroke:#038048;stroke-width:1.0;"/><text fill="#000000" font-family="sans-serif" font-size="14" lengthAdjust="spacing" textLength="124" x="84.5" y="429.5445">area_name: String</text><ellipse cx="75.5" cy="442.2418" fill="none" rx="3" ry="3" style="stroke:#038048;stroke-width:1.0;"/><text fill="#000000" font-family="sans-serif" font-size="14" lengthAdjust="spacing" textLength="227" x="84.5" y="446.0328">rooms: Vec&lt;RoomsRelatedData&gt;</text><line style="stroke:#181818;stroke-width:0.5;" x1="65.5" x2="316.5" y1="452.9859" y2="452.9859"/></g><!--link Result to ErrorType--><g id="link_Result_ErrorType"><path codeLine="24" d="M381.95,88.37 C397.87,106.03 417.11,127.37 435.43,147.7 " fill="none" id="Result-ErrorType" style="stroke:#181818;stroke-width:1.0;"/></g><!--link Result to ResponseType--><g id="link_Result_ResponseType"><path codeLine="25" d="M310.05,88.37 C287.42,113.47 258.09,146.01 234.2,172.51 " fill="none" id="Result-ResponseType" style="stroke:#181818;stroke-width:1.0;"/></g><!--link ResponseType to EntryRelatedData--><g id="link_ResponseType_EntryRelatedData"><path codeLine="26" d="M191,270.43 C191,296.27 191,328.18 191,354.65 " fill="none" id="ResponseType-EntryRelatedData" style="stroke:#181818;stroke-width:1.0;"/></g><!--SRC=[RLB1QeGm4Btx5GEzjBGBIpqi5V7GgiLIjaLbUon1fzs1c2n9jCZIVw_HHRDBvpRlpMFUcmH5sq2EkkNcwC5GPM3RWnGQo_w08vO4a2WbrGZyZX2UTFFWfBPLj5M5Md-r_4MImFeV8aQE1cTYsl_MeUe8VshM7q6DK00xhC946DNdo9d1EcQ6HJ1vS9pCzc3naJBYW-1yLVmuZYwhfMmodRQSpz1MMl2L6ZBlIdPKEn4cxeFCljoJpkAPUAOEHKaDPdehJVwK-hx_uBYqLN6cDLocWJ24w-8Ehj9qirclRw0mggrC53bHRe7g0CY_Tn2ca7qArc1W5II-7KuD9lLqFEjNkySxcVAceyDgvRpjWftz0RSP1HSHl3y0]--></g></svg>