<?xml version="1.0" encoding="us-ascii" standalone="no"?><svg xmlns="http://www.w3.org/2000/svg" xmlns:xlink="http://www.w3.org/1999/xlink" contentStyleType="text/css" height="374px" preserveAspectRatio="none" style="width:745px;height:374px;background:#FFFFFF;" version="1.1" viewBox="0 0 745 374" width="745px" zoomAndPan="magnify"><defs/><g><ellipse cx="370.5" cy="20" fill="#222222" rx="10" ry="10" style="stroke:#222222;stroke-width:1.0;"/><rect fill="#F1F1F1" height="34.1328" rx="12.5" ry="12.5" style="stroke:#181818;stroke-width:0.5;" width="139" x="301" y="50"/><text fill="#000000" font-family="sans-serif" font-size="12" lengthAdjust="spacing" textLength="115" x="315" y="71.6016">Ticketpreis einlesen</text><rect fill="#F1F1F1" height="34.1328" rx="12.5" ry="12.5" style="stroke:#181818;stroke-width:0.5;" width="132" x="304.5" y="104.1328"/><text fill="#000000" font-family="sans-serif" font-size="12" lengthAdjust="spacing" textLength="108" x="318.5" y="125.7344">Rabatt deklarieren</text><polygon fill="#F1F1F1" points="53.5,158.2656,153.5,158.2656,165.5,170.2656,153.5,182.2656,53.5,182.2656,41.5,170.2656,53.5,158.2656" style="stroke:#181818;stroke-width:0.5;"/><text fill="#000000" font-family="sans-serif" font-size="11" lengthAdjust="spacing" textLength="18" x="107.5" y="192.9004">yes</text><text fill="#000000" font-family="sans-serif" font-size="11" lengthAdjust="spacing" textLength="100" x="53.5" y="174.4229">Schwerbehinderun</text><rect fill="#F1F1F1" height="34.1328" rx="12.5" ry="12.5" style="stroke:#181818;stroke-width:0.5;" width="185" x="11" y="215.2207"/><text fill="#000000" font-family="sans-serif" font-size="12" lengthAdjust="spacing" textLength="161" x="25" y="236.8223">Rabatt = Behinderungsgrad</text><polygon fill="#F1F1F1" points="230,158.2656,278,158.2656,290,170.2656,278,182.2656,230,182.2656,218,170.2656,230,158.2656" style="stroke:#181818;stroke-width:0.5;"/><text fill="#000000" font-family="sans-serif" font-size="11" lengthAdjust="spacing" textLength="18" x="258" y="192.9004">yes</text><text fill="#000000" font-family="sans-serif" font-size="11" lengthAdjust="spacing" textLength="48" x="230" y="174.4229">age &lt; 18</text><rect fill="#F1F1F1" height="34.1328" rx="12.5" ry="12.5" style="stroke:#181818;stroke-width:0.5;" width="96" x="206" y="215.2207"/><text fill="#000000" font-family="sans-serif" font-size="12" lengthAdjust="spacing" textLength="72" x="220" y="236.8223">Rabatt = 35</text><polygon fill="#F1F1F1" points="334,158.2656,465,158.2656,477,170.2656,465,182.2656,334,182.2656,322,170.2656,334,158.2656" style="stroke:#181818;stroke-width:0.5;"/><text fill="#000000" font-family="sans-serif" font-size="11" lengthAdjust="spacing" textLength="18" x="403.5" y="192.9004">yes</text><text fill="#000000" font-family="sans-serif" font-size="11" lengthAdjust="spacing" textLength="131" x="334" y="174.4229">Student-Freiwillig-Sozial</text><rect fill="#F1F1F1" height="34.1328" rx="12.5" ry="12.5" style="stroke:#181818;stroke-width:0.5;" width="96" x="351.5" y="215.2207"/><text fill="#000000" font-family="sans-serif" font-size="12" lengthAdjust="spacing" textLength="72" x="365.5" y="236.8223">Rabatt = 25</text><polygon fill="#F1F1F1" points="518,158.2656,560,158.2656,572,170.2656,560,182.2656,518,182.2656,506,170.2656,518,158.2656" style="stroke:#181818;stroke-width:0.5;"/><text fill="#000000" font-family="sans-serif" font-size="11" lengthAdjust="spacing" textLength="18" x="543" y="192.9004">yes</text><text fill="#000000" font-family="sans-serif" font-size="11" lengthAdjust="spacing" textLength="42" x="518" y="174.4229">Rentner</text><text fill="#000000" font-family="sans-serif" font-size="11" lengthAdjust="spacing" textLength="42" x="572" y="167.9453">nothing</text><rect fill="#F1F1F1" height="34.1328" rx="12.5" ry="12.5" style="stroke:#181818;stroke-width:0.5;" width="96" x="491" y="215.2207"/><text fill="#000000" font-family="sans-serif" font-size="12" lengthAdjust="spacing" textLength="72" x="505" y="236.8223">Rabatt = 15</text><rect fill="#F1F1F1" height="34.1328" rx="12.5" ry="12.5" style="stroke:#181818;stroke-width:0.5;" width="127" x="607" y="211.7432"/><text fill="#000000" font-family="sans-serif" font-size="12" lengthAdjust="spacing" textLength="103" x="621" y="233.3447">return Ticketpreis</text><rect fill="#F1F1F1" height="34.1328" rx="12.5" ry="12.5" style="stroke:#181818;stroke-width:0.5;" width="221" x="260" y="289.3535"/><text fill="#000000" font-family="sans-serif" font-size="12" lengthAdjust="spacing" textLength="197" x="274" y="310.9551">return (Ticketpreis /100) * Rabatt</text><ellipse cx="370.5" cy="353.4863" fill="none" rx="10" ry="10" style="stroke:#222222;stroke-width:1.5;"/><line style="stroke:#222222;stroke-width:2.5;" x1="364.3128" x2="376.6872" y1="347.2991" y2="359.6735"/><line style="stroke:#222222;stroke-width:2.5;" x1="376.6872" x2="364.3128" y1="347.2991" y2="359.6735"/><line style="stroke:#181818;stroke-width:1.0;" x1="370.5" x2="370.5" y1="30" y2="50"/><polygon fill="#181818" points="366.5,40,370.5,50,374.5,40,370.5,44" style="stroke:#181818;stroke-width:1.0;"/><line style="stroke:#181818;stroke-width:1.0;" x1="370.5" x2="370.5" y1="84.1328" y2="104.1328"/><polygon fill="#181818" points="366.5,94.1328,370.5,104.1328,374.5,94.1328,370.5,98.1328" style="stroke:#181818;stroke-width:1.0;"/><line style="stroke:#181818;stroke-width:1.0;" x1="103.5" x2="103.5" y1="182.2656" y2="215.2207"/><polygon fill="#181818" points="99.5,205.2207,103.5,215.2207,107.5,205.2207,103.5,209.2207" style="stroke:#181818;stroke-width:1.0;"/><line style="stroke:#181818;stroke-width:1.0;" x1="103.5" x2="103.5" y1="249.3535" y2="269.3535"/><polygon fill="#181818" points="99.5,259.3535,103.5,269.3535,107.5,259.3535,103.5,263.3535" style="stroke:#181818;stroke-width:1.0;"/><line style="stroke:#181818;stroke-width:1.0;" x1="254" x2="254" y1="182.2656" y2="215.2207"/><polygon fill="#181818" points="250,205.2207,254,215.2207,258,205.2207,254,209.2207" style="stroke:#181818;stroke-width:1.0;"/><line style="stroke:#181818;stroke-width:1.0;" x1="254" x2="254" y1="249.3535" y2="269.3535"/><polygon fill="#181818" points="250,259.3535,254,269.3535,258,259.3535,254,263.3535" style="stroke:#181818;stroke-width:1.0;"/><line style="stroke:#181818;stroke-width:1.0;" x1="399.5" x2="399.5" y1="182.2656" y2="215.2207"/><polygon fill="#181818" points="395.5,205.2207,399.5,215.2207,403.5,205.2207,399.5,209.2207" style="stroke:#181818;stroke-width:1.0;"/><line style="stroke:#181818;stroke-width:1.0;" x1="399.5" x2="399.5" y1="249.3535" y2="269.3535"/><polygon fill="#181818" points="395.5,259.3535,399.5,269.3535,403.5,259.3535,399.5,263.3535" style="stroke:#181818;stroke-width:1.0;"/><line style="stroke:#181818;stroke-width:1.0;" x1="539" x2="539" y1="182.2656" y2="215.2207"/><polygon fill="#181818" points="535,205.2207,539,215.2207,543,205.2207,539,209.2207" style="stroke:#181818;stroke-width:1.0;"/><line style="stroke:#181818;stroke-width:1.0;" x1="539" x2="539" y1="249.3535" y2="269.3535"/><polygon fill="#181818" points="535,259.3535,539,269.3535,543,259.3535,539,263.3535" style="stroke:#181818;stroke-width:1.0;"/><line style="stroke:#181818;stroke-width:1.0;" x1="165.5" x2="218" y1="170.2656" y2="170.2656"/><polygon fill="#181818" points="208,166.2656,218,170.2656,208,174.2656,212,170.2656" style="stroke:#181818;stroke-width:1.0;"/><line style="stroke:#181818;stroke-width:1.0;" x1="290" x2="322" y1="170.2656" y2="170.2656"/><polygon fill="#181818" points="312,166.2656,322,170.2656,312,174.2656,316,170.2656" style="stroke:#181818;stroke-width:1.0;"/><line style="stroke:#181818;stroke-width:1.0;" x1="477" x2="506" y1="170.2656" y2="170.2656"/><polygon fill="#181818" points="496,166.2656,506,170.2656,496,174.2656,500,170.2656" style="stroke:#181818;stroke-width:1.0;"/><line style="stroke:#181818;stroke-width:1.0;" x1="370.5" x2="370.5" y1="138.2656" y2="143.2656"/><line style="stroke:#181818;stroke-width:1.0;" x1="370.5" x2="103.5" y1="143.2656" y2="143.2656"/><line style="stroke:#181818;stroke-width:1.0;" x1="103.5" x2="103.5" y1="143.2656" y2="158.2656"/><polygon fill="#181818" points="99.5,148.2656,103.5,158.2656,107.5,148.2656,103.5,152.2656" style="stroke:#181818;stroke-width:1.0;"/><line style="stroke:#181818;stroke-width:1.0;" x1="572" x2="670.5" y1="170.2656" y2="170.2656"/><line style="stroke:#181818;stroke-width:1.0;" x1="670.5" x2="670.5" y1="170.2656" y2="211.7432"/><polygon fill="#181818" points="666.5,201.7432,670.5,211.7432,674.5,201.7432,670.5,205.7432" style="stroke:#181818;stroke-width:1.0;"/><line style="stroke:#181818;stroke-width:1.0;" x1="670.5" x2="670.5" y1="245.876" y2="269.3535"/><polygon fill="#181818" points="666.5,259.3535,670.5,269.3535,674.5,259.3535,670.5,263.3535" style="stroke:#181818;stroke-width:1.0;"/><line style="stroke:#181818;stroke-width:1.0;" x1="103.5" x2="670.5" y1="269.3535" y2="269.3535"/><line style="stroke:#181818;stroke-width:1.0;" x1="370.5" x2="370.5" y1="269.3535" y2="289.3535"/><polygon fill="#181818" points="366.5,279.3535,370.5,289.3535,374.5,279.3535,370.5,283.3535" style="stroke:#181818;stroke-width:1.0;"/><line style="stroke:#181818;stroke-width:1.0;" x1="370.5" x2="370.5" y1="323.4863" y2="343.4863"/><polygon fill="#181818" points="366.5,333.4863,370.5,343.4863,374.5,333.4863,370.5,337.4863" style="stroke:#181818;stroke-width:1.0;"/><!--SRC=[VP31Yi9044Jl-Oe-9eAiKGHPzRA7_G3Z3unEEMaSMkdf8BjVxoWQSqeVgryLHILpQiKtxVbuXbqLd0Wi4GcoplhE7PmPUPoZKuO-L3vHsHpR6_I0biL3Ewd8MWYLVqXLGVbwwvP-UYgaeCwl2yI4HueBe0tLgp7tOldX6-iynAQ_kUUDO-GmRIx_xE9Om7mGiCjkWOxXzGkdKYwMYuSteR1EPRXK1iNpgUX_vN36htesgsZoIdwoTm00]--></g></svg>