<?xml version="1.0" encoding="us-ascii" standalone="no"?><svg xmlns="http://www.w3.org/2000/svg" xmlns:xlink="http://www.w3.org/1999/xlink" contentStyleType="text/css" height="490px" preserveAspectRatio="none" style="width:251px;height:490px;background:#FFFFFF;" version="1.1" viewBox="0 0 251 490" width="251px" zoomAndPan="magnify"><defs/><g><!--class Verlag--><g id="elem_Verlag"><rect codeLine="5" fill="#F1F1F1" height="100.8281" id="Verlag" rx="2.5" ry="2.5" style="stroke:#181818;stroke-width:0.5;" width="187" x="7" y="7"/><ellipse cx="75.75" cy="23" fill="#ADD1B2" rx="11" ry="11" style="stroke:#181818;stroke-width:1.0;"/><path d="M74.6094,23.7969 L74.6094,26.2969 L78.9375,26.2969 L78.9375,25.375 Q78.9375,24.7656 79.1719,24.5 Q79.4219,24.2344 79.7969,24.2344 Q80.1719,24.2344 80.4063,24.5 Q80.6406,24.7656 80.6406,25.375 L80.6406,28 L72.6406,28 Q72.0156,28 71.75,27.7656 Q71.5,27.5313 71.5,27.1406 Q71.5,26.7656 71.7656,26.5313 Q72.0313,26.2969 72.6406,26.2969 L72.9063,26.2969 L72.9063,19.6406 L72.6406,19.6406 Q72.0156,19.6406 71.75,19.4063 Q71.5,19.1719 71.5,18.7813 Q71.5,18.4063 71.75,18.1719 Q72.0156,17.9375 72.6406,17.9375 L80.2656,17.9375 L80.2656,20.5313 Q80.2656,21.1406 80.0313,21.4063 Q79.8125,21.6563 79.4219,21.6563 Q79.0469,21.6563 78.8125,21.4063 Q78.5781,21.1406 78.5781,20.5313 L78.5781,19.6406 L74.6094,19.6406 L74.6094,22.0938 L76.0938,22.0938 Q76.0938,21.4375 76.2188,21.25 Q76.4844,20.8438 76.9531,20.8438 Q77.3281,20.8438 77.5625,21.1094 Q77.7969,21.3594 77.7969,21.9688 L77.7969,23.9375 Q77.7969,24.4844 77.6719,24.6719 Q77.4063,25.0625 76.9531,25.0625 Q76.4844,25.0625 76.2188,24.6563 Q76.0938,24.4688 76.0938,23.7969 L74.6094,23.7969 Z " fill="#000000"/><text fill="#000000" font-family="sans-serif" font-size="14" lengthAdjust="spacing" textLength="41" x="96.25" y="28.7285">Verlag</text><line style="stroke:#181818;stroke-width:0.5;" x1="8" x2="193" y1="39" y2="39"/><ellipse cx="18" cy="53.3047" fill="#000000" rx="3" ry="3" style="stroke:#000000;stroke-width:1.0;"/><text fill="#000000" font-family="sans-serif" font-size="14" lengthAdjust="spacing" textLength="161" x="27" y="57.5332">VerlagsName primary key</text><ellipse cx="18" cy="70.9141" fill="#000000" rx="3" ry="3" style="stroke:#000000;stroke-width:1.0;"/><text fill="#000000" font-family="sans-serif" font-size="14" lengthAdjust="spacing" textLength="85" x="27" y="75.1426">Vertragsleiter</text><ellipse cx="18" cy="88.5234" fill="#000000" rx="3" ry="3" style="stroke:#000000;stroke-width:1.0;"/><text fill="#000000" font-family="sans-serif" font-size="14" lengthAdjust="spacing" textLength="107" x="27" y="92.752">Verlagsaddresse</text><line style="stroke:#181818;stroke-width:0.5;" x1="8" x2="193" y1="99.8281" y2="99.8281"/></g><!--class Zeitschrift--><g id="elem_Zeitschrift"><rect codeLine="11" fill="#F1F1F1" height="100.8281" id="Zeitschrift" rx="2.5" ry="2.5" style="stroke:#181818;stroke-width:0.5;" width="130" x="35.5" y="186"/><ellipse cx="67.15" cy="202" fill="#ADD1B2" rx="11" ry="11" style="stroke:#181818;stroke-width:1.0;"/><path d="M66.0094,202.7969 L66.0094,205.2969 L70.3375,205.2969 L70.3375,204.375 Q70.3375,203.7656 70.5719,203.5 Q70.8219,203.2344 71.1969,203.2344 Q71.5719,203.2344 71.8063,203.5 Q72.0406,203.7656 72.0406,204.375 L72.0406,207 L64.0406,207 Q63.4156,207 63.15,206.7656 Q62.9,206.5313 62.9,206.1406 Q62.9,205.7656 63.1656,205.5313 Q63.4313,205.2969 64.0406,205.2969 L64.3063,205.2969 L64.3063,198.6406 L64.0406,198.6406 Q63.4156,198.6406 63.15,198.4063 Q62.9,198.1719 62.9,197.7813 Q62.9,197.4063 63.15,197.1719 Q63.4156,196.9375 64.0406,196.9375 L71.6656,196.9375 L71.6656,199.5313 Q71.6656,200.1406 71.4313,200.4063 Q71.2125,200.6563 70.8219,200.6563 Q70.4469,200.6563 70.2125,200.4063 Q69.9781,200.1406 69.9781,199.5313 L69.9781,198.6406 L66.0094,198.6406 L66.0094,201.0938 L67.4938,201.0938 Q67.4938,200.4375 67.6188,200.25 Q67.8844,199.8438 68.3531,199.8438 Q68.7281,199.8438 68.9625,200.1094 Q69.1969,200.3594 69.1969,200.9688 L69.1969,202.9375 Q69.1969,203.4844 69.0719,203.6719 Q68.8063,204.0625 68.3531,204.0625 Q67.8844,204.0625 67.6188,203.6563 Q67.4938,203.4688 67.4938,202.7969 L66.0094,202.7969 Z " fill="#000000"/><text fill="#000000" font-family="sans-serif" font-size="14" lengthAdjust="spacing" textLength="61" x="84.85" y="207.7285">Zeitschrift</text><line style="stroke:#181818;stroke-width:0.5;" x1="36.5" x2="164.5" y1="218" y2="218"/><ellipse cx="46.5" cy="232.3047" fill="#000000" rx="3" ry="3" style="stroke:#000000;stroke-width:1.0;"/><text fill="#000000" font-family="sans-serif" font-size="14" lengthAdjust="spacing" textLength="104" x="55.5" y="236.5332">Titel primary key</text><ellipse cx="46.5" cy="249.9141" fill="#000000" rx="3" ry="3" style="stroke:#000000;stroke-width:1.0;"/><text fill="#000000" font-family="sans-serif" font-size="14" lengthAdjust="spacing" textLength="56" x="55.5" y="254.1426">Ausgabe</text><ellipse cx="46.5" cy="267.5234" fill="#000000" rx="3" ry="3" style="stroke:#000000;stroke-width:1.0;"/><text fill="#000000" font-family="sans-serif" font-size="14" lengthAdjust="spacing" textLength="32" x="55.5" y="271.752">Preis</text><line style="stroke:#181818;stroke-width:0.5;" x1="36.5" x2="164.5" y1="278.8281" y2="278.8281"/></g><!--class Abonent--><g id="elem_Abonent"><rect codeLine="16" fill="#F1F1F1" height="118.4375" id="Abonent" rx="2.5" ry="2.5" style="stroke:#181818;stroke-width:0.5;" width="155" x="23" y="365"/><ellipse cx="69.75" cy="381" fill="#ADD1B2" rx="11" ry="11" style="stroke:#181818;stroke-width:1.0;"/><path d="M68.6094,381.7969 L68.6094,384.2969 L72.9375,384.2969 L72.9375,383.375 Q72.9375,382.7656 73.1719,382.5 Q73.4219,382.2344 73.7969,382.2344 Q74.1719,382.2344 74.4063,382.5 Q74.6406,382.7656 74.6406,383.375 L74.6406,386 L66.6406,386 Q66.0156,386 65.75,385.7656 Q65.5,385.5313 65.5,385.1406 Q65.5,384.7656 65.7656,384.5313 Q66.0313,384.2969 66.6406,384.2969 L66.9063,384.2969 L66.9063,377.6406 L66.6406,377.6406 Q66.0156,377.6406 65.75,377.4063 Q65.5,377.1719 65.5,376.7813 Q65.5,376.4063 65.75,376.1719 Q66.0156,375.9375 66.6406,375.9375 L74.2656,375.9375 L74.2656,378.5313 Q74.2656,379.1406 74.0313,379.4063 Q73.8125,379.6563 73.4219,379.6563 Q73.0469,379.6563 72.8125,379.4063 Q72.5781,379.1406 72.5781,378.5313 L72.5781,377.6406 L68.6094,377.6406 L68.6094,380.0938 L70.0938,380.0938 Q70.0938,379.4375 70.2188,379.25 Q70.4844,378.8438 70.9531,378.8438 Q71.3281,378.8438 71.5625,379.1094 Q71.7969,379.3594 71.7969,379.9688 L71.7969,381.9375 Q71.7969,382.4844 71.6719,382.6719 Q71.4063,383.0625 70.9531,383.0625 Q70.4844,383.0625 70.2188,382.6563 Q70.0938,382.4688 70.0938,381.7969 L68.6094,381.7969 Z " fill="#000000"/><text fill="#000000" font-family="sans-serif" font-size="14" lengthAdjust="spacing" textLength="53" x="90.25" y="386.7285">Abonent</text><line style="stroke:#181818;stroke-width:0.5;" x1="24" x2="177" y1="397" y2="397"/><ellipse cx="34" cy="411.3047" fill="#000000" rx="3" ry="3" style="stroke:#000000;stroke-width:1.0;"/><text fill="#000000" font-family="sans-serif" font-size="14" lengthAdjust="spacing" textLength="129" x="43" y="415.5332">Nummer primary key</text><line style="stroke:#181818;stroke-width:1.0;" x1="24" x2="177" y1="422.6094" y2="422.6094"/><ellipse cx="34" cy="436.9141" fill="#000000" rx="3" ry="3" style="stroke:#000000;stroke-width:1.0;"/><text fill="#000000" font-family="sans-serif" font-size="14" lengthAdjust="spacing" textLength="36" x="43" y="441.1426">Name</text><ellipse cx="34" cy="454.5234" fill="#000000" rx="3" ry="3" style="stroke:#000000;stroke-width:1.0;"/><text fill="#000000" font-family="sans-serif" font-size="14" lengthAdjust="spacing" textLength="60" x="43" y="458.752">Addresse</text><text fill="#000000" font-family="sans-serif" font-size="14" lengthAdjust="spacing" textLength="4" x="43" y="476.3613">&#160;</text></g><!--link Verlag to Zeitschrift--><g id="link_Verlag_Zeitschrift"><path codeLine="24" d="M100.5,108.28 C100.5,132.51 100.5,161.57 100.5,185.79 " fill="none" id="Verlag-Zeitschrift" style="stroke:#181818;stroke-width:1.0;"/><text fill="#000000" font-family="sans-serif" font-size="13" lengthAdjust="spacing" textLength="37" x="101.5" y="152.4951">verlegt</text><text fill="#000000" font-family="sans-serif" font-size="13" lengthAdjust="spacing" textLength="7" x="93.0516" y="129.3398">1</text><text fill="#000000" font-family="sans-serif" font-size="13" lengthAdjust="spacing" textLength="7" x="93.0078" y="175.0658">n</text></g><!--link Zeitschrift to Abonent--><g id="link_Zeitschrift_Abonent"><path codeLine="26" d="M100.5,287.21 C100.5,311.14 100.5,339.99 100.5,364.92 " fill="none" id="Zeitschrift-Abonent" style="stroke:#181818;stroke-width:1.0;"/><text fill="#000000" font-family="sans-serif" font-size="13" lengthAdjust="spacing" textLength="142" x="101.5" y="331.4951">bezieht | Dauer  | Beginn</text><text fill="#000000" font-family="sans-serif" font-size="13" lengthAdjust="spacing" textLength="7" x="93.0516" y="308.2609">n</text><text fill="#000000" font-family="sans-serif" font-size="13" lengthAdjust="spacing" textLength="11" x="88.8297" y="354.2345">m</text></g><!--SRC=[xP9DRjim48NtFCM3DaaAE70SesYqgXEx1LmxDLh7Y-ueQq8D8b41VmouRQxL2_HY7TbIx1JPTLkkIBsPxprgI3Pms695hjJcXuAiD-t9t-gAyEYuqcwB1zeUrE14Bea3kPSjEiyTUK_gIIdQexz9cLyNZky3EeEbT9Qle4VH6vrHUreuOY-a5ZJAQYlRPyXjh2fonnJib5wlAv3y7RZD1TKasuT5Sf58CHARl0YPOYCwcQ1EJZ3nXWE8nRcz8wBDaJDvyIvqm8gff6E0L7A5aJMKrK4Tankdnh1AkikaoEWxKn7m4sCT1IcRQp9iBVRsC9m5R7OcRPCOxFpnyFkNROBjrIYA4okclEHryNUclH5PzPviJh4gdoVqV_Yl3VyV1dVumujIst0tdpLKpxN5nVcWFxWy7vukYuYvTkXVOT1F-vVfy0etaoKQ-KoTVbpCuElerYIpzi5n5eFqdwcftcXyaLbpHIa-FvATZZzr7p2n6tQrhIIXcgxcXuAtmzwrFEIlv2G9LdCrfdiToo0TwpfdQrBSBJ_qtgcPjYPg8-oSr4qjNBTDCPxy0G00]--></g></svg>