<?xml version="1.0" encoding="UTF-8" standalone="no"?><svg xmlns="http://www.w3.org/2000/svg" xmlns:xlink="http://www.w3.org/1999/xlink" contentStyleType="text/css" height="224px" preserveAspectRatio="none" style="width:3125px;height:224px;background:#FFFFFF;" version="1.1" viewBox="0 0 3125 224" width="3125px" zoomAndPan="magnify"><defs/><g><!--MD5=[07074073229a58b98d86dbf75a12e332]
cluster Internet--><g id="cluster_Internet"><path d="M26.6699,20.2805 C30.0096,12.9057 35.5406,13.7955 40.0373,19.0566 C44.8996,12.1615 52.0872,10.5428 56.7525,19.2674 C60.2432,11.835 66.0711,10.9866 71.5407,17.1083 C75.5428,10.3781 82.1595,10.6324 86.5264,16.6806 C90.9294,8.5246 97.2314,7.0944 103.5659,14.5759 C107.7659,7.4241 113.843,6.6494 118.141,14.4806 C122.9162,7.0337 127.488,8.6476 132.2482,14.4966 C136.7672,6 144.3502,7.1918 149.104,14.242 C153.5157,8.2614 159.0537,7.6255 163.2254,14.5055 C169.142,7.7974 175.8977,7.0955 179.6845,16.6596 C183.6403,8.849 189.5159,10.0011 194.098,16.0062 C199.9667,9.6576 207.2759,11.4267 210.4916,19.1064 C215.53,10.914 220.4864,10.2367 226.1905,18.4703 C231.5801,11.9737 236.6053,11.279 240.8357,19.6148 C251.447,25.6342 251.544,33.3355 241.7739,40.2802 C251.3752,45.6709 254.7629,54.4884 243.8227,61.8318 C253.5091,70.0666 251.4497,76.9879 241.425,82.9889 C253.4648,89.8756 251.5021,97.0188 242.7309,105.1327 C237.5624,114.6883 231.9213,113.339 225.2565,106.7526 C220.8286,114.3482 216.395,115.7918 210.1963,108.55 C206.3569,114.7074 200.3493,115.2785 196.7022,108.3518 C193.5367,118.7236 185.3044,120.2369 178.7047,111.6041 C174.6497,118.1106 167.9477,118.8017 163.9658,111.526 C161.3873,118.6742 155.7075,121.5118 149.5599,115.4052 C144.6859,123.8754 139.4261,122.981 133.7125,116.2824 C127.6473,123.5334 120.9665,121.5217 117.0932,113.8427 C112.9672,121.1344 108.172,120.3936 103.8757,114.0073 C97.3512,121.9697 90.3903,120.6367 86.1075,111.6563 C80.5697,116.9682 74.0535,117.6717 71.1058,108.8978 C65.0536,115.9546 59.6307,113.3995 56.0702,106.259 C50.2798,112.6038 45.2638,113.0226 41.0514,104.6488 C35.6418,111.7358 30.8834,111.2315 25.7246,104.3732 C16.5142,101.4953 15.8306,96.7828 21.8327,89.833 C13.8852,88.1657 11.4626,81.7444 16.3255,75.242 C8.2135,73.1971 6,67.798 12.1067,61.4149 C7.6309,55.2181 8.9094,50.9442 16.6409,49.3259 C10.7857,41.8745 12.4096,36.9324 21.2847,33.9214 C15.2333,27.3307 19.0615,21.4787 26.6699,20.2805 " fill="none" style="stroke:#181818;stroke-width:1.0;"/><text fill="#000000" font-family="sans-serif" font-size="14" font-weight="bold" lengthAdjust="spacing" textLength="56" x="104.1337" y="38.0795">Internet</text></g><!--MD5=[d48d41ff5a006644a46e1c96517bc53c]
cluster IPv6_Netzwerkprefix--><g id="cluster_IPv6_Netzwerkprefix"><rect fill="none" height="208" rx="2.5" ry="2.5" style="stroke:#181818;stroke-width:1.0;" width="2605" x="514.1337" y="10.5463"/><text fill="#000000" font-family="sans-serif" font-size="14" font-weight="bold" lengthAdjust="spacing" textLength="144" x="1744.6337" y="27.0795">IPv6_Netzwerkprefix</text></g><!--MD5=[e020562a57c160270570e4a36e3cf97d]
entity Internet Service Provider --><g id="elem_Internet Service Provider "><rect fill="#F1F1F1" height="47.6094" rx="2.5" ry="2.5" style="stroke:#181818;stroke-width:0.5;" width="200" x="32.1337" y="46.5463"/><rect fill="#F1F1F1" height="10" style="stroke:#181818;stroke-width:0.5;" width="15" x="212.1337" y="51.5463"/><rect fill="#F1F1F1" height="2" style="stroke:#181818;stroke-width:0.5;" width="4" x="210.1337" y="53.5463"/><rect fill="#F1F1F1" height="2" style="stroke:#181818;stroke-width:0.5;" width="4" x="210.1337" y="57.5463"/><text fill="#000000" font-family="sans-serif" font-size="14" lengthAdjust="spacing" textLength="156" x="47.1337" y="81.0795">Internet Service Provider</text></g><!--MD5=[5b4532dfb6a92ae8d8321f1a44d950f0]
entity Router fe80::1/64--><g id="elem_Router fe80::1/64"><rect fill="#F1F1F1" height="47.6094" rx="2.5" ry="2.5" style="stroke:#181818;stroke-width:0.5;" width="151" x="550.6337" y="46.5463"/><rect fill="#F1F1F1" height="10" style="stroke:#181818;stroke-width:0.5;" width="15" x="681.6337" y="51.5463"/><rect fill="#F1F1F1" height="2" style="stroke:#181818;stroke-width:0.5;" width="4" x="679.6337" y="53.5463"/><rect fill="#F1F1F1" height="2" style="stroke:#181818;stroke-width:0.5;" width="4" x="679.6337" y="57.5463"/><text fill="#000000" font-family="sans-serif" font-size="14" lengthAdjust="spacing" textLength="111" x="565.6337" y="81.0795">Router fe80::1/64</text></g><!--MD5=[cf864069379ab1155c99d11276f939b3]
entity Switch 1--><g id="elem_Switch 1"><rect fill="#F1F1F1" height="47.6094" rx="2.5" ry="2.5" style="stroke:#181818;stroke-width:0.5;" width="92" x="753.1337" y="46.5463"/><rect fill="#F1F1F1" height="10" style="stroke:#181818;stroke-width:0.5;" width="15" x="825.1337" y="51.5463"/><rect fill="#F1F1F1" height="2" style="stroke:#181818;stroke-width:0.5;" width="4" x="823.1337" y="53.5463"/><rect fill="#F1F1F1" height="2" style="stroke:#181818;stroke-width:0.5;" width="4" x="823.1337" y="57.5463"/><text fill="#000000" font-family="sans-serif" font-size="14" lengthAdjust="spacing" textLength="52" x="768.1337" y="81.0795">Switch 1</text></g><!--MD5=[b024ba981770351cf8b03da9258e63d3]
entity DHCPv6-Server--><g id="elem_DHCPv6-Server"><rect fill="#F1F1F1" height="47.6094" rx="2.5" ry="2.5" style="stroke:#181818;stroke-width:0.5;" width="140" x="530.1337" y="154.5463"/><rect fill="#F1F1F1" height="10" style="stroke:#181818;stroke-width:0.5;" width="15" x="650.1337" y="159.5463"/><rect fill="#F1F1F1" height="2" style="stroke:#181818;stroke-width:0.5;" width="4" x="648.1337" y="161.5463"/><rect fill="#F1F1F1" height="2" style="stroke:#181818;stroke-width:0.5;" width="4" x="648.1337" y="165.5463"/><text fill="#000000" font-family="sans-serif" font-size="14" lengthAdjust="spacing" textLength="100" x="545.1337" y="189.0795">DHCPv6-Server</text></g><!--MD5=[893383d02cea0adc97c23736aed82e34]
entity DNS-Server fe80::5 /64--><g id="elem_DNS-Server fe80::5 /64"><rect fill="#F1F1F1" height="47.6094" rx="2.5" ry="2.5" style="stroke:#181818;stroke-width:0.5;" width="187" x="705.6337" y="154.5463"/><rect fill="#F1F1F1" height="10" style="stroke:#181818;stroke-width:0.5;" width="15" x="872.6337" y="159.5463"/><rect fill="#F1F1F1" height="2" style="stroke:#181818;stroke-width:0.5;" width="4" x="870.6337" y="161.5463"/><rect fill="#F1F1F1" height="2" style="stroke:#181818;stroke-width:0.5;" width="4" x="870.6337" y="165.5463"/><text fill="#000000" font-family="sans-serif" font-size="14" lengthAdjust="spacing" textLength="147" x="720.6337" y="189.0795">DNS-Server fe80::5 /64</text></g><!--MD5=[c9fefd115a09b7b39d077b8e0bd089e8]
entity Datei-Server fe80::6--><g id="elem_Datei-Server fe80::6"><rect fill="#F1F1F1" height="47.6094" rx="2.5" ry="2.5" style="stroke:#181818;stroke-width:0.5;" width="168" x="928.1337" y="154.5463"/><rect fill="#F1F1F1" height="10" style="stroke:#181818;stroke-width:0.5;" width="15" x="1076.1337" y="159.5463"/><rect fill="#F1F1F1" height="2" style="stroke:#181818;stroke-width:0.5;" width="4" x="1074.1337" y="161.5463"/><rect fill="#F1F1F1" height="2" style="stroke:#181818;stroke-width:0.5;" width="4" x="1074.1337" y="165.5463"/><text fill="#000000" font-family="sans-serif" font-size="14" lengthAdjust="spacing" textLength="128" x="943.1337" y="189.0795">Datei-Server fe80::6</text></g><!--MD5=[41d81b2aba5aa3f397b09a58e355969b]
entity Switch 2--><g id="elem_Switch 2"><rect fill="#F1F1F1" height="47.6094" rx="2.5" ry="2.5" style="stroke:#181818;stroke-width:0.5;" width="92" x="1956.1337" y="46.5463"/><rect fill="#F1F1F1" height="10" style="stroke:#181818;stroke-width:0.5;" width="15" x="2028.1337" y="51.5463"/><rect fill="#F1F1F1" height="2" style="stroke:#181818;stroke-width:0.5;" width="4" x="2026.1337" y="53.5463"/><rect fill="#F1F1F1" height="2" style="stroke:#181818;stroke-width:0.5;" width="4" x="2026.1337" y="57.5463"/><text fill="#000000" font-family="sans-serif" font-size="14" lengthAdjust="spacing" textLength="52" x="1971.1337" y="81.0795">Switch 2</text></g><!--MD5=[a728c4594fefe28af0b1f8c44a127c69]
entity Computer 1--><g id="elem_Computer 1"><rect fill="#F1F1F1" height="47.6094" rx="2.5" ry="2.5" style="stroke:#181818;stroke-width:0.5;" width="114" x="2620.1337" y="154.5463"/><rect fill="#F1F1F1" height="10" style="stroke:#181818;stroke-width:0.5;" width="15" x="2714.1337" y="159.5463"/><rect fill="#F1F1F1" height="2" style="stroke:#181818;stroke-width:0.5;" width="4" x="2712.1337" y="161.5463"/><rect fill="#F1F1F1" height="2" style="stroke:#181818;stroke-width:0.5;" width="4" x="2712.1337" y="165.5463"/><text fill="#000000" font-family="sans-serif" font-size="14" lengthAdjust="spacing" textLength="74" x="2635.1337" y="189.0795">Computer 1</text></g><!--MD5=[baae3ef9a6fa67df2f014f650cf716bf]
entity Netzwerdrucker 1--><g id="elem_Netzwerdrucker 1"><rect fill="#F1F1F1" height="47.6094" rx="2.5" ry="2.5" style="stroke:#181818;stroke-width:0.5;" width="149" x="2769.6337" y="154.5463"/><rect fill="#F1F1F1" height="10" style="stroke:#181818;stroke-width:0.5;" width="15" x="2898.6337" y="159.5463"/><rect fill="#F1F1F1" height="2" style="stroke:#181818;stroke-width:0.5;" width="4" x="2896.6337" y="161.5463"/><rect fill="#F1F1F1" height="2" style="stroke:#181818;stroke-width:0.5;" width="4" x="2896.6337" y="165.5463"/><text fill="#000000" font-family="sans-serif" font-size="14" lengthAdjust="spacing" textLength="109" x="2784.6337" y="189.0795">Netzwerdrucker 1</text></g><!--MD5=[e5d866918ab9c941de8d382aadb39ef7]
entity Netzwerdrucker 2--><g id="elem_Netzwerdrucker 2"><rect fill="#F1F1F1" height="47.6094" rx="2.5" ry="2.5" style="stroke:#181818;stroke-width:0.5;" width="149" x="2953.6337" y="154.5463"/><rect fill="#F1F1F1" height="10" style="stroke:#181818;stroke-width:0.5;" width="15" x="3082.6337" y="159.5463"/><rect fill="#F1F1F1" height="2" style="stroke:#181818;stroke-width:0.5;" width="4" x="3080.6337" y="161.5463"/><rect fill="#F1F1F1" height="2" style="stroke:#181818;stroke-width:0.5;" width="4" x="3080.6337" y="165.5463"/><text fill="#000000" font-family="sans-serif" font-size="14" lengthAdjust="spacing" textLength="109" x="2968.6337" y="189.0795">Netzwerdrucker 2</text></g><!--MD5=[ada6115da01482e4ec5b229b98651acb]
entity WLAN AP 1--><g id="elem_WLAN AP 1"><rect fill="#F1F1F1" height="47.6094" rx="2.5" ry="2.5" style="stroke:#181818;stroke-width:0.5;" width="113" x="1131.6337" y="154.5463"/><rect fill="#F1F1F1" height="10" style="stroke:#181818;stroke-width:0.5;" width="15" x="1224.6337" y="159.5463"/><rect fill="#F1F1F1" height="2" style="stroke:#181818;stroke-width:0.5;" width="4" x="1222.6337" y="161.5463"/><rect fill="#F1F1F1" height="2" style="stroke:#181818;stroke-width:0.5;" width="4" x="1222.6337" y="165.5463"/><text fill="#000000" font-family="sans-serif" font-size="14" lengthAdjust="spacing" textLength="73" x="1146.6337" y="189.0795">WLAN AP 1</text></g><!--MD5=[d7695b127e3b7a77bf53ce3c5ea93692]
entity WLAN AP 2--><g id="elem_WLAN AP 2"><rect fill="#F1F1F1" height="47.6094" rx="2.5" ry="2.5" style="stroke:#181818;stroke-width:0.5;" width="113" x="1279.6337" y="154.5463"/><rect fill="#F1F1F1" height="10" style="stroke:#181818;stroke-width:0.5;" width="15" x="1372.6337" y="159.5463"/><rect fill="#F1F1F1" height="2" style="stroke:#181818;stroke-width:0.5;" width="4" x="1370.6337" y="161.5463"/><rect fill="#F1F1F1" height="2" style="stroke:#181818;stroke-width:0.5;" width="4" x="1370.6337" y="165.5463"/><text fill="#000000" font-family="sans-serif" font-size="14" lengthAdjust="spacing" textLength="73" x="1294.6337" y="189.0795">WLAN AP 2</text></g><!--MD5=[6da7c8abcee8a2ffad0faf05f399be1d]
entity WLAN AP 3--><g id="elem_WLAN AP 3"><rect fill="#F1F1F1" height="47.6094" rx="2.5" ry="2.5" style="stroke:#181818;stroke-width:0.5;" width="113" x="1427.6337" y="154.5463"/><rect fill="#F1F1F1" height="10" style="stroke:#181818;stroke-width:0.5;" width="15" x="1520.6337" y="159.5463"/><rect fill="#F1F1F1" height="2" style="stroke:#181818;stroke-width:0.5;" width="4" x="1518.6337" y="161.5463"/><rect fill="#F1F1F1" height="2" style="stroke:#181818;stroke-width:0.5;" width="4" x="1518.6337" y="165.5463"/><text fill="#000000" font-family="sans-serif" font-size="14" lengthAdjust="spacing" textLength="73" x="1442.6337" y="189.0795">WLAN AP 3</text></g><!--MD5=[b75d6cf5634c898dc88c39df5a681d2d]
entity WLAN AP 4--><g id="elem_WLAN AP 4"><rect fill="#F1F1F1" height="47.6094" rx="2.5" ry="2.5" style="stroke:#181818;stroke-width:0.5;" width="113" x="1575.6337" y="154.5463"/><rect fill="#F1F1F1" height="10" style="stroke:#181818;stroke-width:0.5;" width="15" x="1668.6337" y="159.5463"/><rect fill="#F1F1F1" height="2" style="stroke:#181818;stroke-width:0.5;" width="4" x="1666.6337" y="161.5463"/><rect fill="#F1F1F1" height="2" style="stroke:#181818;stroke-width:0.5;" width="4" x="1666.6337" y="165.5463"/><text fill="#000000" font-family="sans-serif" font-size="14" lengthAdjust="spacing" textLength="73" x="1590.6337" y="189.0795">WLAN AP 4</text></g><!--MD5=[cc885faa9957c474335a725ec2246978]
entity WLAN AP 5--><g id="elem_WLAN AP 5"><rect fill="#F1F1F1" height="47.6094" rx="2.5" ry="2.5" style="stroke:#181818;stroke-width:0.5;" width="113" x="1723.6337" y="154.5463"/><rect fill="#F1F1F1" height="10" style="stroke:#181818;stroke-width:0.5;" width="15" x="1816.6337" y="159.5463"/><rect fill="#F1F1F1" height="2" style="stroke:#181818;stroke-width:0.5;" width="4" x="1814.6337" y="161.5463"/><rect fill="#F1F1F1" height="2" style="stroke:#181818;stroke-width:0.5;" width="4" x="1814.6337" y="165.5463"/><text fill="#000000" font-family="sans-serif" font-size="14" lengthAdjust="spacing" textLength="73" x="1738.6337" y="189.0795">WLAN AP 5</text></g><!--MD5=[48e61b0a6b1c8464a8c783ebd8c2f0c6]
entity WLAN AP 6--><g id="elem_WLAN AP 6"><rect fill="#F1F1F1" height="47.6094" rx="2.5" ry="2.5" style="stroke:#181818;stroke-width:0.5;" width="113" x="1871.6337" y="154.5463"/><rect fill="#F1F1F1" height="10" style="stroke:#181818;stroke-width:0.5;" width="15" x="1964.6337" y="159.5463"/><rect fill="#F1F1F1" height="2" style="stroke:#181818;stroke-width:0.5;" width="4" x="1962.6337" y="161.5463"/><rect fill="#F1F1F1" height="2" style="stroke:#181818;stroke-width:0.5;" width="4" x="1962.6337" y="165.5463"/><text fill="#000000" font-family="sans-serif" font-size="14" lengthAdjust="spacing" textLength="73" x="1886.6337" y="189.0795">WLAN AP 6</text></g><!--MD5=[ea6de3d9ca23caff07619003627efb7d]
entity WLAN AP 7--><g id="elem_WLAN AP 7"><rect fill="#F1F1F1" height="47.6094" rx="2.5" ry="2.5" style="stroke:#181818;stroke-width:0.5;" width="113" x="2019.6337" y="154.5463"/><rect fill="#F1F1F1" height="10" style="stroke:#181818;stroke-width:0.5;" width="15" x="2112.6337" y="159.5463"/><rect fill="#F1F1F1" height="2" style="stroke:#181818;stroke-width:0.5;" width="4" x="2110.6337" y="161.5463"/><rect fill="#F1F1F1" height="2" style="stroke:#181818;stroke-width:0.5;" width="4" x="2110.6337" y="165.5463"/><text fill="#000000" font-family="sans-serif" font-size="14" lengthAdjust="spacing" textLength="73" x="2034.6337" y="189.0795">WLAN AP 7</text></g><!--MD5=[ddb0c4cb28130cc6aee929de1d624392]
entity WLAN AP 8--><g id="elem_WLAN AP 8"><rect fill="#F1F1F1" height="47.6094" rx="2.5" ry="2.5" style="stroke:#181818;stroke-width:0.5;" width="113" x="2167.6337" y="154.5463"/><rect fill="#F1F1F1" height="10" style="stroke:#181818;stroke-width:0.5;" width="15" x="2260.6337" y="159.5463"/><rect fill="#F1F1F1" height="2" style="stroke:#181818;stroke-width:0.5;" width="4" x="2258.6337" y="161.5463"/><rect fill="#F1F1F1" height="2" style="stroke:#181818;stroke-width:0.5;" width="4" x="2258.6337" y="165.5463"/><text fill="#000000" font-family="sans-serif" font-size="14" lengthAdjust="spacing" textLength="73" x="2182.6337" y="189.0795">WLAN AP 8</text></g><!--MD5=[287a9c0aeb2206c6b59f34efd395d4c1]
entity WLAN AP 9--><g id="elem_WLAN AP 9"><rect fill="#F1F1F1" height="47.6094" rx="2.5" ry="2.5" style="stroke:#181818;stroke-width:0.5;" width="113" x="2315.6337" y="154.5463"/><rect fill="#F1F1F1" height="10" style="stroke:#181818;stroke-width:0.5;" width="15" x="2408.6337" y="159.5463"/><rect fill="#F1F1F1" height="2" style="stroke:#181818;stroke-width:0.5;" width="4" x="2406.6337" y="161.5463"/><rect fill="#F1F1F1" height="2" style="stroke:#181818;stroke-width:0.5;" width="4" x="2406.6337" y="165.5463"/><text fill="#000000" font-family="sans-serif" font-size="14" lengthAdjust="spacing" textLength="73" x="2330.6337" y="189.0795">WLAN AP 9</text></g><!--MD5=[9b39a51bac7d0e4f5889748ec27d61c7]
entity WLAN AP 10--><g id="elem_WLAN AP 10"><rect fill="#F1F1F1" height="47.6094" rx="2.5" ry="2.5" style="stroke:#181818;stroke-width:0.5;" width="121" x="2463.6337" y="154.5463"/><rect fill="#F1F1F1" height="10" style="stroke:#181818;stroke-width:0.5;" width="15" x="2564.6337" y="159.5463"/><rect fill="#F1F1F1" height="2" style="stroke:#181818;stroke-width:0.5;" width="4" x="2562.6337" y="161.5463"/><rect fill="#F1F1F1" height="2" style="stroke:#181818;stroke-width:0.5;" width="4" x="2562.6337" y="165.5463"/><text fill="#000000" font-family="sans-serif" font-size="14" lengthAdjust="spacing" textLength="81" x="2478.6337" y="189.0795">WLAN AP 10</text></g><!--MD5=[ef314d55f56ef1f36683ef4e5094c904]
entity Router ISP--><g id="elem_Router ISP"><rect fill="#F1F1F1" height="47.6094" rx="2.5" ry="2.5" style="stroke:#181818;stroke-width:0.5;" width="108" x="267.1337" y="46.5463"/><rect fill="#F1F1F1" height="10" style="stroke:#181818;stroke-width:0.5;" width="15" x="355.1337" y="51.5463"/><rect fill="#F1F1F1" height="2" style="stroke:#181818;stroke-width:0.5;" width="4" x="353.1337" y="53.5463"/><rect fill="#F1F1F1" height="2" style="stroke:#181818;stroke-width:0.5;" width="4" x="353.1337" y="57.5463"/><text fill="#000000" font-family="sans-serif" font-size="14" lengthAdjust="spacing" textLength="68" x="282.1337" y="81.0795">Router ISP</text></g><!--MD5=[7ac472af81b10326706c68d963fcc47c]
entity Firewall--><g id="elem_Firewall"><rect fill="#F1F1F1" height="47.6094" rx="2.5" ry="2.5" style="stroke:#181818;stroke-width:0.5;" width="88" x="410.1337" y="46.5463"/><rect fill="#F1F1F1" height="10" style="stroke:#181818;stroke-width:0.5;" width="15" x="478.1337" y="51.5463"/><rect fill="#F1F1F1" height="2" style="stroke:#181818;stroke-width:0.5;" width="4" x="476.1337" y="53.5463"/><rect fill="#F1F1F1" height="2" style="stroke:#181818;stroke-width:0.5;" width="4" x="476.1337" y="57.5463"/><text fill="#000000" font-family="sans-serif" font-size="14" lengthAdjust="spacing" textLength="48" x="425.1337" y="81.0795">Firewall</text></g><!--MD5=[a52a121be2554ca3d94759dc20a26372]
link Internet Service Provider  to Router ISP--><g id="link_Internet Service Provider _Router ISP"><path d="M232.1737,70.5463 C243.7537,70.5463 255.3337,70.5463 266.9237,70.5463 " fill="none" id="Internet Service Provider -Router ISP" style="stroke:#181818;stroke-width:1.0;"/></g><!--MD5=[d26ae83d0f2a3f4944c5205c5d6cfc8d]
link Router ISP to Firewall--><g id="link_Router ISP_Firewall"><path d="M375.1637,70.5463 C386.7837,70.5463 398.4037,70.5463 410.0237,70.5463 " fill="none" id="Router ISP-Firewall" style="stroke:#181818;stroke-width:1.0;"/></g><!--MD5=[388d9e1e6c4c1adb2dec8c15a7b4bc27]
link Firewall to Router fe80::1/64--><g id="link_Firewall_Router fe80::1/64"><path d="M498.1437,70.5463 C515.4737,70.5463 532.8037,70.5463 550.1337,70.5463 " fill="none" id="Firewall-Router fe80::1/64" style="stroke:#181818;stroke-width:1.0;"/></g><!--MD5=[88e762a821fc300986d5e7a25972e9ae]
link Router fe80::1/64 to Switch 1--><g id="link_Router fe80::1/64_Switch 1"><path d="M701.8237,70.5463 C718.8037,70.5463 735.7837,70.5463 752.7537,70.5463 " fill="none" id="Router fe80::1/64-Switch 1" style="stroke:#181818;stroke-width:1.0;"/></g><!--MD5=[1b96a86902b7919258cda22692cda069]
link Switch 1 to DHCPv6-Server--><g id="link_Switch 1_DHCPv6-Server"><path d="M761.1937,94.5763 C747.9937,102.3863 733.0237,111.0363 719.1337,118.5463 C696.2137,130.9363 670.3437,143.8863 648.5937,154.4863 " fill="none" id="Switch 1-DHCPv6-Server" style="stroke:#181818;stroke-width:1.0;"/></g><!--MD5=[bdfaa9cc8dfd35ffb5a5f9302848c1e9]
link Switch 1 to DNS-Server fe80::5 /64--><g id="link_Switch 1_DNS-Server fe80::5 /64"><path d="M799.1337,94.5463 C799.1337,112.2063 799.1337,136.4863 799.1337,154.2263 " fill="none" id="Switch 1-DNS-Server fe80::5 /64" style="stroke:#181818;stroke-width:1.0;"/></g><!--MD5=[6c9450305617b1ef0ff01e2aa16d74c6]
link Switch 1 to Datei-Server fe80::6--><g id="link_Switch 1_Datei-Server fe80::6"><path d="M845.3537,94.5463 C880.9537,112.2663 929.9637,136.6563 965.6437,154.4063 " fill="none" id="Switch 1-Datei-Server fe80::6" style="stroke:#181818;stroke-width:1.0;"/></g><!--MD5=[98c969e632f3f989bc07a091a2451b9c]
link Switch 1 to Switch 2--><g id="link_Switch 1_Switch 2"><path d="M845.2437,70.5463 C1215.5237,70.5463 1585.8137,70.5463 1956.0937,70.5463 " fill="none" id="Switch 1-Switch 2" style="stroke:#181818;stroke-width:1.0;"/></g><!--MD5=[387499c69fdb3b60629c184f6a512312]
link Switch 2 to Computer 1--><g id="link_Switch 2_Computer 1"><path d="M2048.4937,75.4063 C2149.8337,84.4063 2398.3137,109.4963 2602.1337,154.5463 C2607.9837,155.8363 2614.0437,157.3663 2620.0537,159.0163 " fill="none" id="Switch 2-Computer 1" style="stroke:#181818;stroke-width:1.0;"/></g><!--MD5=[18c9fdbddaaa73252ba0017088bc4974]
link Switch 2 to Netzwerdrucker 1--><g id="link_Switch 2_Netzwerdrucker 1"><path d="M2048.5337,74.4963 C2166.6637,82.4763 2488.1237,107.1563 2752.1337,154.5463 C2757.8037,155.5663 2763.6437,156.7363 2769.5037,157.9963 " fill="none" id="Switch 2-Netzwerdrucker 1" style="stroke:#181818;stroke-width:1.0;"/></g><!--MD5=[a8b360a439478105822fbf0436c82dfc]
link Switch 2 to Netzwerdrucker 2--><g id="link_Switch 2_Netzwerdrucker 2"><path d="M2048.1337,73.0863 C2184.5137,78.2063 2598.2137,97.6463 2936.1337,154.5463 C2941.8137,155.5063 2947.6637,156.6263 2953.5237,157.8563 " fill="none" id="Switch 2-Netzwerdrucker 2" style="stroke:#181818;stroke-width:1.0;"/></g><!--MD5=[a1b3829a6f018a236c1881e5ca5711c8]
link Switch 2 to WLAN AP 1--><g id="link_Switch 2_WLAN AP 1"><path d="M1955.7537,73.6863 C1838.4537,79.7663 1520.8937,100.3363 1262.1337,154.5463 C1256.4737,155.7363 1250.6237,157.1663 1244.8137,158.7363 " fill="none" id="Switch 2-WLAN AP 1" style="stroke:#181818;stroke-width:1.0;"/></g><!--MD5=[cc832d7d2a1eb1f276431a93a93e4640]
link Switch 2 to WLAN AP 2--><g id="link_Switch 2_WLAN AP 2"><path d="M1956.0037,75.4463 C1855.7537,84.4863 1610.9137,109.5863 1410.1337,154.5463 C1404.4837,155.8063 1398.6537,157.2963 1392.8437,158.8963 " fill="none" id="Switch 2-WLAN AP 2" style="stroke:#181818;stroke-width:1.0;"/></g><!--MD5=[0472a6ae5fe03b3a04cc635cb3f6adda]
link Switch 2 to WLAN AP 3--><g id="link_Switch 2_WLAN AP 3"><path d="M1956.0537,78.3463 C1874.9837,90.7063 1701.7937,118.9163 1558.1337,154.5463 C1552.5237,155.9363 1546.7037,157.5163 1540.9137,159.1663 " fill="none" id="Switch 2-WLAN AP 3" style="stroke:#181818;stroke-width:1.0;"/></g><!--MD5=[e80621ba299eadf5c0dbe7e7dfbbc66f]
link Switch 2 to WLAN AP 4--><g id="link_Switch 2_WLAN AP 4"><path d="M1956.1337,84.0163 C1897.8237,99.9263 1794.2937,128.4863 1706.1337,154.5463 C1700.4537,156.2263 1694.5437,158.0063 1688.6437,159.8063 " fill="none" id="Switch 2-WLAN AP 4" style="stroke:#181818;stroke-width:1.0;"/></g><!--MD5=[4e21cf69176aed69b7be2279e5acde72]
link Switch 2 to WLAN AP 5--><g id="link_Switch 2_WLAN AP 5"><path d="M1955.8637,93.6363 C1918.6337,111.4163 1866.4637,136.3263 1828.6437,154.3863 " fill="none" id="Switch 2-WLAN AP 5" style="stroke:#181818;stroke-width:1.0;"/></g><!--MD5=[b7cd2c7903b0eae99ff1e6d8d10b1bff]
link Switch 2 to WLAN AP 6--><g id="link_Switch 2_WLAN AP 6"><path d="M1986.0737,94.5463 C1973.7537,112.2063 1956.7937,136.4863 1944.4137,154.2263 " fill="none" id="Switch 2-WLAN AP 6" style="stroke:#181818;stroke-width:1.0;"/></g><!--MD5=[8f8c966ac8b5955177c4512f83dcf694]
link Switch 2 to WLAN AP 7--><g id="link_Switch 2_WLAN AP 7"><path d="M2018.1937,94.5463 C2030.5137,112.2063 2047.4737,136.4863 2059.8537,154.2263 " fill="none" id="Switch 2-WLAN AP 7" style="stroke:#181818;stroke-width:1.0;"/></g><!--MD5=[582494713564dd9f00ec1cf6f97c59fb]
link Switch 2 to WLAN AP 8--><g id="link_Switch 2_WLAN AP 8"><path d="M2048.4037,93.6363 C2085.6337,111.4163 2137.8037,136.3263 2175.6237,154.3863 " fill="none" id="Switch 2-WLAN AP 8" style="stroke:#181818;stroke-width:1.0;"/></g><!--MD5=[c3c555c5b030c7c75ee75f65f1fd0a1a]
link Switch 2 to WLAN AP 9--><g id="link_Switch 2_WLAN AP 9"><path d="M2048.1337,84.0163 C2106.4437,99.9263 2209.9737,128.4863 2298.1337,154.5463 C2303.8137,156.2263 2309.7237,158.0063 2315.6237,159.8063 " fill="none" id="Switch 2-WLAN AP 9" style="stroke:#181818;stroke-width:1.0;"/></g><!--MD5=[a9442ceede0166052d354674ce98dd14]
link Switch 2 to WLAN AP 10--><g id="link_Switch 2_WLAN AP 10"><path d="M2048.1637,78.5663 C2129.1537,91.2563 2302.2137,119.9663 2446.1337,154.5463 C2451.7637,155.8963 2457.5837,157.4063 2463.4037,158.9863 " fill="none" id="Switch 2-WLAN AP 10" style="stroke:#181818;stroke-width:1.0;"/></g><!--MD5=[24471477648ddbef209a89d3c4a91f54]
@startuml name Netzplan
cloud Internet {
    [Internet Service Provider ]
}
[Internet Service Provider ]- [Router ISP]
[Router ISP] - [Firewall]
rectangle IPv6_Netzwerkprefix{
    Firewall - [Router fe80::1/64]
    [Router fe80::1/64] - [Switch 1]
    [Switch 1] - - [DHCPv6-Server]
    [Switch 1] - - [DNS-Server fe80::5 /64]
    [Switch 1] - - [Datei-Server fe80::6]
    [Switch 1] - [Switch 2]
    [Switch 2] - - [Computer 1]
    [Switch 2] - - [Netzwerdrucker 1]
    [Switch 2] - - [Netzwerdrucker 2]
    [Switch 2] - - [WLAN AP 1]
    [Switch 2] - - [WLAN AP 2]
    [Switch 2] - - [WLAN AP 3]
    [Switch 2] - - [WLAN AP 4]
    [Switch 2] - - [WLAN AP 5]
    [Switch 2] - - [WLAN AP 6]
    [Switch 2] - - [WLAN AP 7]
    [Switch 2] - - [WLAN AP 8]
    [Switch 2] - - [WLAN AP 9]
    [Switch 2] - - [WLAN AP 10]

}

@enduml

PlantUML version 1.2022.7(Mon Aug 22 19:01:30 CEST 2022)
(GPL source distribution)
Java Runtime: OpenJDK Runtime Environment
JVM: OpenJDK 64-Bit Server VM
Default Encoding: Cp1252
Language: de
Country: DE
--></g></svg>