<?xml version="1.0" encoding="us-ascii" standalone="no"?><svg xmlns="http://www.w3.org/2000/svg" xmlns:xlink="http://www.w3.org/1999/xlink" contentStyleType="text/css" height="457px" preserveAspectRatio="none" style="width:793px;height:457px;background:#FFFFFF;" version="1.1" viewBox="0 0 793 457" width="793px" zoomAndPan="magnify"><defs/><g><!--class Client--><g id="elem_Client"><rect codeLine="5" fill="#F1F1F1" height="48" id="Client" rx="2.5" ry="2.5" style="stroke:#181818;stroke-width:0.5;" width="72" x="33.5" y="7"/><ellipse cx="48.5" cy="23" fill="#ADD1B2" rx="11" ry="11" style="stroke:#181818;stroke-width:1.0;"/><path d="M50.9731,29.1431 Q50.3921,29.4419 49.7529,29.5913 Q49.1138,29.7407 48.4082,29.7407 Q45.9014,29.7407 44.5815,28.0889 Q43.2617,26.437 43.2617,23.3159 Q43.2617,20.1865 44.5815,18.5347 Q45.9014,16.8828 48.4082,16.8828 Q49.1138,16.8828 49.7612,17.0322 Q50.4087,17.1816 50.9731,17.4805 L50.9731,20.2031 Q50.3423,19.6221 49.7488,19.3523 Q49.1553,19.0825 48.5244,19.0825 Q47.1797,19.0825 46.4949,20.1492 Q45.8101,21.2158 45.8101,23.3159 Q45.8101,25.4077 46.4949,26.4744 Q47.1797,27.541 48.5244,27.541 Q49.1553,27.541 49.7488,27.2712 Q50.3423,27.0015 50.9731,26.4204 Z " fill="#000000"/><text fill="#000000" font-family="sans-serif" font-size="14" lengthAdjust="spacing" textLength="40" x="62.5" y="28.291">Client</text><line style="stroke:#181818;stroke-width:0.5;" x1="34.5" x2="104.5" y1="39" y2="39"/><line style="stroke:#181818;stroke-width:0.5;" x1="34.5" x2="104.5" y1="47" y2="47"/></g><!--class Client_Proxy--><g id="elem_Client_Proxy"><rect codeLine="7" fill="#F1F1F1" height="64.4883" id="Client_Proxy" rx="2.5" ry="2.5" style="stroke:#181818;stroke-width:0.5;" width="125" x="7" y="188.49"/><ellipse cx="25.15" cy="204.49" fill="#ADD1B2" rx="11" ry="11" style="stroke:#181818;stroke-width:1.0;"/><path d="M27.6231,210.6331 Q27.0421,210.9319 26.4029,211.0813 Q25.7638,211.2307 25.0582,211.2307 Q22.5514,211.2307 21.2315,209.5789 Q19.9117,207.927 19.9117,204.8059 Q19.9117,201.6765 21.2315,200.0247 Q22.5514,198.3728 25.0582,198.3728 Q25.7638,198.3728 26.4112,198.5222 Q27.0587,198.6716 27.6231,198.9705 L27.6231,201.6931 Q26.9923,201.1121 26.3988,200.8423 Q25.8053,200.5725 25.1744,200.5725 Q23.8297,200.5725 23.1449,201.6392 Q22.4601,202.7058 22.4601,204.8059 Q22.4601,206.8977 23.1449,207.9644 Q23.8297,209.031 25.1744,209.031 Q25.8053,209.031 26.3988,208.7612 Q26.9923,208.4915 27.6231,207.9104 Z " fill="#000000"/><text fill="#000000" font-family="sans-serif" font-size="14" lengthAdjust="spacing" textLength="86" x="39.85" y="209.781">Client_Proxy</text><line style="stroke:#181818;stroke-width:0.5;" x1="8" x2="131" y1="220.49" y2="220.49"/><line style="stroke:#181818;stroke-width:0.5;" x1="8" x2="131" y1="228.49" y2="228.49"/><ellipse cx="18" cy="242.2341" fill="#84BE84" rx="3" ry="3" style="stroke:#038048;stroke-width:1.0;"/><text fill="#000000" font-family="sans-serif" font-size="14" lengthAdjust="spacing" textLength="99" x="27" y="246.0252">SendRequest()</text></g><!--class Broker--><g id="elem_Broker"><rect codeLine="11" fill="#F1F1F1" height="97.4648" id="Broker" rx="2.5" ry="2.5" style="stroke:#181818;stroke-width:0.5;" width="159" x="446" y="172"/><ellipse cx="498.75" cy="188" fill="#ADD1B2" rx="11" ry="11" style="stroke:#181818;stroke-width:1.0;"/><path d="M501.2231,194.1431 Q500.6421,194.4419 500.0029,194.5913 Q499.3638,194.7407 498.6582,194.7407 Q496.1514,194.7407 494.8315,193.0889 Q493.5117,191.437 493.5117,188.3159 Q493.5117,185.1865 494.8315,183.5347 Q496.1514,181.8828 498.6582,181.8828 Q499.3638,181.8828 500.0112,182.0322 Q500.6587,182.1816 501.2231,182.4805 L501.2231,185.2031 Q500.5923,184.6221 499.9988,184.3523 Q499.4053,184.0825 498.7744,184.0825 Q497.4297,184.0825 496.7449,185.1492 Q496.0601,186.2158 496.0601,188.3159 Q496.0601,190.4077 496.7449,191.4744 Q497.4297,192.541 498.7744,192.541 Q499.4053,192.541 499.9988,192.2712 Q500.5923,192.0015 501.2231,191.4204 Z " fill="#000000"/><text fill="#000000" font-family="sans-serif" font-size="14" lengthAdjust="spacing" textLength="45" x="519.25" y="193.291">Broker</text><line style="stroke:#181818;stroke-width:0.5;" x1="447" x2="604" y1="204" y2="204"/><line style="stroke:#181818;stroke-width:0.5;" x1="447" x2="604" y1="212" y2="212"/><ellipse cx="457" cy="225.7441" fill="#84BE84" rx="3" ry="3" style="stroke:#038048;stroke-width:1.0;"/><text fill="#000000" font-family="sans-serif" font-size="14" lengthAdjust="spacing" textLength="122" x="466" y="229.5352">ForwardRequest()</text><ellipse cx="457" cy="242.2324" fill="#84BE84" rx="3" ry="3" style="stroke:#038048;stroke-width:1.0;"/><text fill="#000000" font-family="sans-serif" font-size="14" lengthAdjust="spacing" textLength="133" x="466" y="246.0234">ForwardResponse()</text><ellipse cx="457" cy="258.7207" fill="#84BE84" rx="3" ry="3" style="stroke:#038048;stroke-width:1.0;"/><text fill="#000000" font-family="sans-serif" font-size="14" lengthAdjust="spacing" textLength="114" x="466" y="262.5117">RegisterService()</text></g><!--class Server_Proxy--><g id="elem_Server_Proxy"><rect codeLine="17" fill="#F1F1F1" height="80.9766" id="Server_Proxy" rx="2.5" ry="2.5" style="stroke:#181818;stroke-width:0.5;" width="136" x="326.5" y="369.46"/><ellipse cx="348.25" cy="385.46" fill="#ADD1B2" rx="11" ry="11" style="stroke:#181818;stroke-width:1.0;"/><path d="M350.7231,391.6031 Q350.1421,391.9019 349.5029,392.0513 Q348.8638,392.2007 348.1582,392.2007 Q345.6514,392.2007 344.3315,390.5489 Q343.0117,388.897 343.0117,385.7759 Q343.0117,382.6465 344.3315,380.9947 Q345.6514,379.3428 348.1582,379.3428 Q348.8638,379.3428 349.5112,379.4922 Q350.1587,379.6416 350.7231,379.9405 L350.7231,382.6631 Q350.0923,382.0821 349.4988,381.8123 Q348.9053,381.5425 348.2744,381.5425 Q346.9297,381.5425 346.2449,382.6092 Q345.5601,383.6758 345.5601,385.7759 Q345.5601,387.8677 346.2449,388.9344 Q346.9297,390.001 348.2744,390.001 Q348.9053,390.001 349.4988,389.7312 Q350.0923,389.4615 350.7231,388.8804 Z " fill="#000000"/><text fill="#000000" font-family="sans-serif" font-size="14" lengthAdjust="spacing" textLength="89" x="363.75" y="390.751">Server_Proxy</text><line style="stroke:#181818;stroke-width:0.5;" x1="327.5" x2="461.5" y1="401.46" y2="401.46"/><line style="stroke:#181818;stroke-width:0.5;" x1="327.5" x2="461.5" y1="409.46" y2="409.46"/><ellipse cx="337.5" cy="423.2041" fill="#84BE84" rx="3" ry="3" style="stroke:#038048;stroke-width:1.0;"/><text fill="#000000" font-family="sans-serif" font-size="14" lengthAdjust="spacing" textLength="84" x="346.5" y="426.9952">CallService()</text><ellipse cx="337.5" cy="439.6924" fill="#84BE84" rx="3" ry="3" style="stroke:#038048;stroke-width:1.0;"/><text fill="#000000" font-family="sans-serif" font-size="14" lengthAdjust="spacing" textLength="110" x="346.5" y="443.4834">SendResponse()</text></g><!--class Server--><g id="elem_Server"><rect codeLine="22" fill="#F1F1F1" height="64.4883" id="Server" rx="2.5" ry="2.5" style="stroke:#181818;stroke-width:0.5;" width="111" x="675" y="377.71"/><ellipse cx="706.2" cy="393.71" fill="#ADD1B2" rx="11" ry="11" style="stroke:#181818;stroke-width:1.0;"/><path d="M708.6731,399.8531 Q708.0921,400.1519 707.4529,400.3013 Q706.8138,400.4507 706.1082,400.4507 Q703.6014,400.4507 702.2815,398.7989 Q700.9617,397.147 700.9617,394.0259 Q700.9617,390.8965 702.2815,389.2447 Q703.6014,387.5928 706.1082,387.5928 Q706.8138,387.5928 707.4612,387.7422 Q708.1087,387.8916 708.6731,388.1905 L708.6731,390.9131 Q708.0423,390.3321 707.4488,390.0623 Q706.8553,389.7925 706.2244,389.7925 Q704.8797,389.7925 704.1949,390.8592 Q703.5101,391.9258 703.5101,394.0259 Q703.5101,396.1177 704.1949,397.1844 Q704.8797,398.251 706.2244,398.251 Q706.8553,398.251 707.4488,397.9812 Q708.0423,397.7115 708.6731,397.1304 Z " fill="#000000"/><text fill="#000000" font-family="sans-serif" font-size="14" lengthAdjust="spacing" textLength="43" x="723.8" y="399.001">Server</text><line style="stroke:#181818;stroke-width:0.5;" x1="676" x2="785" y1="409.71" y2="409.71"/><line style="stroke:#181818;stroke-width:0.5;" x1="676" x2="785" y1="417.71" y2="417.71"/><ellipse cx="686" cy="431.4541" fill="#84BE84" rx="3" ry="3" style="stroke:#038048;stroke-width:1.0;"/><text fill="#000000" font-family="sans-serif" font-size="14" lengthAdjust="spacing" textLength="85" x="695" y="435.2452">RunService()</text></g><!--link Client to Client_Proxy--><g id="link_Client_Client_Proxy"><path codeLine="26" d="M69.5,55.4 C69.5,88.91 69.5,150.68 69.5,188.2 " fill="none" id="Client-Client_Proxy" style="stroke:#181818;stroke-width:1.0;"/><polygon fill="#000000" points="74.5,118.6553,77.4389,109.6102,71.5611,109.6102,74.5,118.6553" style="stroke:#000000;stroke-width:1.0;"/><text fill="#000000" font-family="sans-serif" font-size="13" lengthAdjust="spacing" textLength="96" x="83.5" y="118.5684">1 send Request</text></g><!--link Client_Proxy to Broker--><g id="link_Client_Proxy_Broker"><path codeLine="27" d="M132.43,220.73 C214.03,220.73 350.44,220.73 439.6,220.73 " fill="none" id="Client_Proxy-to-Broker" style="stroke:#181818;stroke-width:1.0;stroke-dasharray:7.0,7.0;"/><polygon fill="#181818" points="445.6,220.73,436.6,216.73,440.6,220.73,436.6,224.73,445.6,220.73" style="stroke:#181818;stroke-width:1.0;"/><polygon fill="#000000" points="241.5,209.3853,232.4549,206.4463,232.4549,212.3242,241.5,209.3853" style="stroke:#000000;stroke-width:1.0;"/><text fill="#000000" font-family="sans-serif" font-size="13" lengthAdjust="spacing" textLength="100" x="245.5" y="214.2984">2 send Message</text></g><!--link Broker to Client_Proxy--><g id="link_Broker_Client_Proxy"><path codeLine="28" d="M445.7,231.39 C413.82,235.14 376.74,238.89 343,240.73 C295.07,243.35 282.91,243.62 235,240.73 C200.91,238.68 169.0263,235.0713 138.1563,230.9113 " fill="none" id="Broker-to-Client_Proxy" style="stroke:#181818;stroke-width:1.0;stroke-dasharray:7.0,7.0;"/><polygon fill="#181818" points="132.21,230.11,140.5952,235.2761,137.1652,230.7778,141.6636,227.3478,132.21,230.11" style="stroke:#181818;stroke-width:1.0;"/><polygon fill="#000000" points="235,232.3775,244.0405,235.3305,244.0497,229.4526,235,232.3775" style="stroke:#000000;stroke-width:1.0;"/><text fill="#000000" font-family="sans-serif" font-size="13" lengthAdjust="spacing" textLength="93" x="249" y="237.2984">7 return Result</text></g><!--link Broker to Server_Proxy--><g id="link_Broker_Server_Proxy"><path codeLine="29" d="M491.76,269.95 C470.23,300.71 446.0993,335.2036 425.8193,364.1936 " fill="none" id="Broker-to-Server_Proxy" style="stroke:#181818;stroke-width:1.0;stroke-dasharray:7.0,7.0;"/><polygon fill="#181818" points="422.38,369.11,430.8166,364.0282,425.2461,365.013,424.2613,359.4425,422.38,369.11" style="stroke:#181818;stroke-width:1.0;"/><text fill="#000000" font-family="sans-serif" font-size="13" lengthAdjust="spacing" textLength="114" x="303.557" y="358.698">3 forward Request</text></g><!--link Server_Proxy to Broker--><g id="link_Server_Proxy_Broker"><path codeLine="30" d="M422.38,369.11 C442.66,340.12 466.7894,305.6255 488.3194,274.8655 " fill="none" id="Server_Proxy-to-Broker" style="stroke:#181818;stroke-width:1.0;stroke-dasharray:7.0,7.0;"/><polygon fill="#181818" points="491.76,269.95,483.3221,275.0296,488.8929,274.0463,489.8762,279.617,491.76,269.95" style="stroke:#181818;stroke-width:1.0;"/><text fill="#000000" font-family="sans-serif" font-size="13" lengthAdjust="spacing" textLength="124" x="437.2664" y="358.698">6 handover Request</text></g><!--link Server_Proxy to Server--><g id="link_Server_Proxy_Server"><path codeLine="31" d="M462.9,409.95 C525.36,409.95 610.56,409.95 668.71,409.95 " fill="none" id="Server_Proxy-to-Server" style="stroke:#181818;stroke-width:1.0;"/><polygon fill="#181818" points="674.71,409.95,665.71,405.95,669.71,409.95,665.71,413.95,674.71,409.95" style="stroke:#181818;stroke-width:1.0;"/><polygon fill="#000000" points="572.25,400.45,563.2049,397.5111,563.2049,403.3889,572.25,400.45" style="stroke:#000000;stroke-width:1.0;"/><text fill="#000000" font-family="sans-serif" font-size="13" lengthAdjust="spacing" textLength="82" x="470.5922" y="407.0021">4 call Service</text></g><!--link Server to Server_Proxy--><g id="link_Server_Server_Proxy"><path codeLine="32" d="M674.56,417.12 C645.07,420.54 608.26,424.26 575.25,425.95 C537.97,427.87 502.4268,425.2986 468.6068,421.2186 " fill="none" id="Server-to-Server_Proxy" style="stroke:#181818;stroke-width:1.0;"/><polygon fill="#181818" points="462.65,420.5,471.1061,425.5491,467.614,421.0989,472.0643,417.6067,462.65,420.5" style="stroke:#181818;stroke-width:1.0;"/><polygon fill="#000000" points="562.251,419.5495,571.3528,422.3079,571.2358,416.4312,562.251,419.5495" style="stroke:#000000;stroke-width:1.0;"/><text fill="#000000" font-family="sans-serif" font-size="13" lengthAdjust="spacing" textLength="85" x="582.0232" y="414.6747">5 send Result</text></g><!--reverse link Broker to Server--><g id="link_Broker_Server"><path codeLine="33" d="M582.721,273.9956 C619.741,307.7956 663.73,347.97 695.91,377.36 " fill="none" id="Broker-backto-Server" style="stroke:#181818;stroke-width:1.0;stroke-dasharray:7.0,7.0;"/><polygon fill="#181818" points="578.29,269.95,582.2394,278.9723,581.9825,273.3213,587.6335,273.0644,578.29,269.95" style="stroke:#181818;stroke-width:1.0;"/><text fill="#000000" font-family="sans-serif" font-size="13" lengthAdjust="spacing" textLength="108" x="570.4688" y="367.0654">0 register Service</text></g><!--SRC=[NL7BQiCm4BphAnPTqb9idFG5flXGGs-5udn04SusDNObTrVkWz1_humLsR9k6itEpeouRNIlI7s0DWTax66NPO83Iagt8xfrgAWxnGnbrw2sfx_u_lf2vkSNJWBSkO8zwaE5dmEolRWKWVj8faKAh2T3tueMn1NClT6C0Q_msB15sYDzDJKkXKS8QMMYL5qtSvV6Wl1A88nMWrvksMoWD5fZRHit26BA34aIfyzX2-mMW4y4XOZUqy8taCDk8ZuZipgY8_fg76KvaiCz4Dg1jDFaeRCGKUKrl4rbdLTAYBiGqKtUmRlI1pD63GF1LSnD2g-KWxo1sdK9lXBfFFY-0idRbRVd0aQpSZRxaAOWCvTb-i9PoiyByGy0]--></g></svg>