<?xml version="1.0" encoding="us-ascii" standalone="no"?><svg xmlns="http://www.w3.org/2000/svg" xmlns:xlink="http://www.w3.org/1999/xlink" contentStyleType="text/css" height="693px" preserveAspectRatio="none" style="width:1006px;height:693px;background:#FFFFFF;" version="1.1" viewBox="0 0 1006 693" width="1006px" zoomAndPan="magnify"><defs/><g><!--class Client--><g id="elem_Client"><rect codeLine="5" fill="#F1F1F1" height="48" id="Client" rx="2.5" ry="2.5" style="stroke:#181818;stroke-width:0.5;" width="72" x="7" y="31.73"/><ellipse cx="22" cy="47.73" fill="#ADD1B2" rx="11" ry="11" style="stroke:#181818;stroke-width:1.0;"/><path d="M24.4731,53.8731 Q23.8921,54.1719 23.2529,54.3213 Q22.6138,54.4707 21.9082,54.4707 Q19.4014,54.4707 18.0815,52.8189 Q16.7617,51.167 16.7617,48.0459 Q16.7617,44.9165 18.0815,43.2647 Q19.4014,41.6128 21.9082,41.6128 Q22.6138,41.6128 23.2612,41.7622 Q23.9087,41.9116 24.4731,42.2105 L24.4731,44.9331 Q23.8423,44.3521 23.2488,44.0823 Q22.6553,43.8125 22.0244,43.8125 Q20.6797,43.8125 19.9949,44.8792 Q19.3101,45.9458 19.3101,48.0459 Q19.3101,50.1377 19.9949,51.2044 Q20.6797,52.271 22.0244,52.271 Q22.6553,52.271 23.2488,52.0012 Q23.8423,51.7315 24.4731,51.1504 Z " fill="#000000"/><text fill="#000000" font-family="sans-serif" font-size="14" lengthAdjust="spacing" textLength="40" x="36" y="53.021">Client</text><line style="stroke:#181818;stroke-width:0.5;" x1="8" x2="78" y1="63.73" y2="63.73"/><line style="stroke:#181818;stroke-width:0.5;" x1="8" x2="78" y1="71.73" y2="71.73"/></g><!--class Client_Proxy--><g id="elem_Client_Proxy"><rect codeLine="7" fill="#F1F1F1" height="64.4883" id="Client_Proxy" rx="2.5" ry="2.5" style="stroke:#181818;stroke-width:0.5;" width="125" x="289.5" y="23.49"/><ellipse cx="307.65" cy="39.49" fill="#ADD1B2" rx="11" ry="11" style="stroke:#181818;stroke-width:1.0;"/><path d="M310.1231,45.6331 Q309.5421,45.9319 308.9029,46.0813 Q308.2638,46.2307 307.5582,46.2307 Q305.0514,46.2307 303.7315,44.5789 Q302.4117,42.927 302.4117,39.8059 Q302.4117,36.6765 303.7315,35.0247 Q305.0514,33.3728 307.5582,33.3728 Q308.2638,33.3728 308.9112,33.5222 Q309.5587,33.6716 310.1231,33.9705 L310.1231,36.6931 Q309.4923,36.1121 308.8988,35.8423 Q308.3053,35.5725 307.6744,35.5725 Q306.3297,35.5725 305.6449,36.6392 Q304.9601,37.7058 304.9601,39.8059 Q304.9601,41.8977 305.6449,42.9644 Q306.3297,44.031 307.6744,44.031 Q308.3053,44.031 308.8988,43.7612 Q309.4923,43.4915 310.1231,42.9104 Z " fill="#000000"/><text fill="#000000" font-family="sans-serif" font-size="14" lengthAdjust="spacing" textLength="86" x="322.35" y="44.781">Client_Proxy</text><line style="stroke:#181818;stroke-width:0.5;" x1="290.5" x2="413.5" y1="55.49" y2="55.49"/><line style="stroke:#181818;stroke-width:0.5;" x1="290.5" x2="413.5" y1="63.49" y2="63.49"/><ellipse cx="300.5" cy="77.2341" fill="#84BE84" rx="3" ry="3" style="stroke:#038048;stroke-width:1.0;"/><text fill="#000000" font-family="sans-serif" font-size="14" lengthAdjust="spacing" textLength="99" x="309.5" y="81.0252">SendRequest()</text></g><!--class Broker--><g id="elem_Broker"><rect codeLine="11" fill="#F1F1F1" height="97.4648" id="Broker" rx="2.5" ry="2.5" style="stroke:#181818;stroke-width:0.5;" width="159" x="628.5" y="7"/><ellipse cx="681.25" cy="23" fill="#ADD1B2" rx="11" ry="11" style="stroke:#181818;stroke-width:1.0;"/><path d="M683.7231,29.1431 Q683.1421,29.4419 682.5029,29.5913 Q681.8638,29.7407 681.1582,29.7407 Q678.6514,29.7407 677.3315,28.0889 Q676.0117,26.437 676.0117,23.3159 Q676.0117,20.1865 677.3315,18.5347 Q678.6514,16.8828 681.1582,16.8828 Q681.8638,16.8828 682.5112,17.0322 Q683.1587,17.1816 683.7231,17.4805 L683.7231,20.2031 Q683.0923,19.6221 682.4988,19.3523 Q681.9053,19.0825 681.2744,19.0825 Q679.9297,19.0825 679.2449,20.1492 Q678.5601,21.2158 678.5601,23.3159 Q678.5601,25.4077 679.2449,26.4744 Q679.9297,27.541 681.2744,27.541 Q681.9053,27.541 682.4988,27.2712 Q683.0923,27.0015 683.7231,26.4204 Z " fill="#000000"/><text fill="#000000" font-family="sans-serif" font-size="14" lengthAdjust="spacing" textLength="45" x="701.75" y="28.291">Broker</text><line style="stroke:#181818;stroke-width:0.5;" x1="629.5" x2="786.5" y1="39" y2="39"/><line style="stroke:#181818;stroke-width:0.5;" x1="629.5" x2="786.5" y1="47" y2="47"/><ellipse cx="639.5" cy="60.7441" fill="#84BE84" rx="3" ry="3" style="stroke:#038048;stroke-width:1.0;"/><text fill="#000000" font-family="sans-serif" font-size="14" lengthAdjust="spacing" textLength="122" x="648.5" y="64.5352">ForwardRequest()</text><ellipse cx="639.5" cy="77.2324" fill="#84BE84" rx="3" ry="3" style="stroke:#038048;stroke-width:1.0;"/><text fill="#000000" font-family="sans-serif" font-size="14" lengthAdjust="spacing" textLength="133" x="648.5" y="81.0234">ForwardResponse()</text><ellipse cx="639.5" cy="93.7207" fill="#84BE84" rx="3" ry="3" style="stroke:#038048;stroke-width:1.0;"/><text fill="#000000" font-family="sans-serif" font-size="14" lengthAdjust="spacing" textLength="114" x="648.5" y="97.5117">RegisterService()</text></g><!--class Server_Proxy--><g id="elem_Server_Proxy"><rect codeLine="17" fill="#F1F1F1" height="80.9766" id="Server_Proxy" rx="2.5" ry="2.5" style="stroke:#181818;stroke-width:0.5;" width="136" x="640" y="605.46"/><ellipse cx="661.75" cy="621.46" fill="#ADD1B2" rx="11" ry="11" style="stroke:#181818;stroke-width:1.0;"/><path d="M664.2231,627.6031 Q663.6421,627.9019 663.0029,628.0513 Q662.3638,628.2007 661.6582,628.2007 Q659.1514,628.2007 657.8315,626.5489 Q656.5117,624.897 656.5117,621.7759 Q656.5117,618.6465 657.8315,616.9947 Q659.1514,615.3428 661.6582,615.3428 Q662.3638,615.3428 663.0112,615.4922 Q663.6587,615.6416 664.2231,615.9405 L664.2231,618.6631 Q663.5923,618.0821 662.9988,617.8123 Q662.4053,617.5425 661.7744,617.5425 Q660.4297,617.5425 659.7449,618.6092 Q659.0601,619.6758 659.0601,621.7759 Q659.0601,623.8677 659.7449,624.9344 Q660.4297,626.001 661.7744,626.001 Q662.4053,626.001 662.9988,625.7312 Q663.5923,625.4615 664.2231,624.8804 Z " fill="#000000"/><text fill="#000000" font-family="sans-serif" font-size="14" lengthAdjust="spacing" textLength="89" x="677.25" y="626.751">Server_Proxy</text><line style="stroke:#181818;stroke-width:0.5;" x1="641" x2="775" y1="637.46" y2="637.46"/><line style="stroke:#181818;stroke-width:0.5;" x1="641" x2="775" y1="645.46" y2="645.46"/><ellipse cx="651" cy="659.2041" fill="#84BE84" rx="3" ry="3" style="stroke:#038048;stroke-width:1.0;"/><text fill="#000000" font-family="sans-serif" font-size="14" lengthAdjust="spacing" textLength="84" x="660" y="662.9952">CallService()</text><ellipse cx="651" cy="675.6924" fill="#84BE84" rx="3" ry="3" style="stroke:#038048;stroke-width:1.0;"/><text fill="#000000" font-family="sans-serif" font-size="14" lengthAdjust="spacing" textLength="110" x="660" y="679.4834">SendResponse()</text></g><!--class Server--><g id="elem_Server"><rect codeLine="22" fill="#F1F1F1" height="64.4883" id="Server" rx="2.5" ry="2.5" style="stroke:#181818;stroke-width:0.5;" width="111" x="888.5" y="613.71"/><ellipse cx="919.7" cy="629.71" fill="#ADD1B2" rx="11" ry="11" style="stroke:#181818;stroke-width:1.0;"/><path d="M922.1731,635.8531 Q921.5921,636.1519 920.9529,636.3013 Q920.3138,636.4507 919.6082,636.4507 Q917.1014,636.4507 915.7815,634.7989 Q914.4617,633.147 914.4617,630.0259 Q914.4617,626.8965 915.7815,625.2447 Q917.1014,623.5928 919.6082,623.5928 Q920.3138,623.5928 920.9612,623.7422 Q921.6087,623.8916 922.1731,624.1905 L922.1731,626.9131 Q921.5423,626.3321 920.9488,626.0623 Q920.3553,625.7925 919.7244,625.7925 Q918.3797,625.7925 917.6949,626.8592 Q917.0101,627.9258 917.0101,630.0259 Q917.0101,632.1177 917.6949,633.1844 Q918.3797,634.251 919.7244,634.251 Q920.3553,634.251 920.9488,633.9812 Q921.5423,633.7115 922.1731,633.1304 Z " fill="#000000"/><text fill="#000000" font-family="sans-serif" font-size="14" lengthAdjust="spacing" textLength="43" x="937.3" y="635.001">Server</text><line style="stroke:#181818;stroke-width:0.5;" x1="889.5" x2="998.5" y1="645.71" y2="645.71"/><line style="stroke:#181818;stroke-width:0.5;" x1="889.5" x2="998.5" y1="653.71" y2="653.71"/><ellipse cx="899.5" cy="667.4541" fill="#84BE84" rx="3" ry="3" style="stroke:#038048;stroke-width:1.0;"/><text fill="#000000" font-family="sans-serif" font-size="14" lengthAdjust="spacing" textLength="85" x="908.5" y="671.2452">RunService()</text></g><!--link Client to Client_Proxy--><g id="link_Client_Client_Proxy"><path codeLine="26" d="M79.35,55.73 C130.88,55.73 225.91,55.73 289.04,55.73 " fill="none" id="Client-Client_Proxy" style="stroke:#181818;stroke-width:1.0;"/><polygon fill="#000000" points="138.75,44.3853,129.7049,41.4463,129.7049,47.3242,138.75,44.3853" style="stroke:#000000;stroke-width:1.0;"/><text fill="#000000" font-family="sans-serif" font-size="13" lengthAdjust="spacing" textLength="96" x="142.75" y="49.2984">1 send Request</text></g><!--link Client_Proxy to Broker--><g id="link_Client_Proxy_Broker"><path codeLine="27" d="M414.83,55.73 C474.21,55.73 557.57,55.73 622.01,55.73 " fill="none" id="Client_Proxy-to-Broker" style="stroke:#181818;stroke-width:1.0;stroke-dasharray:7.0,7.0;"/><polygon fill="#181818" points="628.01,55.73,619.01,51.73,623.01,55.73,619.01,59.73,628.01,55.73" style="stroke:#181818;stroke-width:1.0;"/><polygon fill="#000000" points="474,44.3853,464.9549,41.4463,464.9549,47.3242,474,44.3853" style="stroke:#000000;stroke-width:1.0;"/><text fill="#000000" font-family="sans-serif" font-size="13" lengthAdjust="spacing" textLength="100" x="478" y="49.2984">2 send Message</text></g><!--link Broker to Client_Proxy--><g id="link_Broker_Client_Proxy"><path codeLine="28" d="M628.34,69.73 C610.98,72.23 592.67,74.44 575.5,75.73 C527.63,79.32 515.32,79.84 467.5,75.73 C450.37,74.26 437.8725,72.6008 420.9025,69.6708 " fill="none" id="Broker-to-Client_Proxy" style="stroke:#181818;stroke-width:1.0;stroke-dasharray:7.0,7.0;"/><polygon fill="#181818" points="414.99,68.65,423.1782,74.1229,419.9171,69.5007,424.5393,66.2396,414.99,68.65" style="stroke:#181818;stroke-width:1.0;"/><polygon fill="#000000" points="467.5,67.3838,476.5442,70.3254,476.5459,64.4475,467.5,67.3838" style="stroke:#000000;stroke-width:1.0;"/><text fill="#000000" font-family="sans-serif" font-size="13" lengthAdjust="spacing" textLength="93" x="481.5" y="72.2984">7 return Result</text></g><!--link Broker to Server_Proxy--><g id="link_Broker_Server_Proxy"><path codeLine="29" d="M686.27,104.87 C664.69,218.33 663.9845,494.9271 686.7145,599.4071 " fill="none" id="Broker-to-Server_Proxy" style="stroke:#181818;stroke-width:1.0;stroke-dasharray:7.0,7.0;"/><polygon fill="#181818" points="687.99,605.27,689.9853,595.6254,686.9271,600.3843,682.1682,597.326,687.99,605.27" style="stroke:#181818;stroke-width:1.0;"/><text fill="#000000" font-family="sans-serif" font-size="13" lengthAdjust="spacing" textLength="114" x="560.7539" y="594.5844">3 forward Request</text></g><!--link Server_Proxy to Broker--><g id="link_Server_Proxy_Broker"><path codeLine="30" d="M728.01,605.27 C750.74,500.79 752.4311,224.2243 730.8511,110.7643 " fill="none" id="Server_Proxy-to-Broker" style="stroke:#181818;stroke-width:1.0;stroke-dasharray:7.0,7.0;"/><polygon fill="#181818" points="729.73,104.87,727.4821,114.4589,730.6642,109.7819,735.3412,112.9641,729.73,104.87" style="stroke:#181818;stroke-width:1.0;"/><text fill="#000000" font-family="sans-serif" font-size="13" lengthAdjust="spacing" textLength="131" x="742.707" y="594.5844">6 hand offer Request</text></g><!--link Server_Proxy to Server--><g id="link_Server_Proxy_Server"><path codeLine="31" d="M776.26,645.95 C811.79,645.95 848.69,645.95 882.2,645.95 " fill="none" id="Server_Proxy-to-Server" style="stroke:#181818;stroke-width:1.0;"/><polygon fill="#181818" points="888.2,645.95,879.2,641.95,883.2,645.95,879.2,649.95,888.2,645.95" style="stroke:#181818;stroke-width:1.0;"/><polygon fill="#000000" points="835.75,636.45,826.7049,633.5111,826.7049,639.3889,835.75,636.45" style="stroke:#000000;stroke-width:1.0;"/><text fill="#000000" font-family="sans-serif" font-size="13" lengthAdjust="spacing" textLength="82" x="783.9423" y="643.0021">4 call Service</text></g><!--link Server to Server_Proxy--><g id="link_Server_Server_Proxy"><path codeLine="32" d="M888.19,656.04 C872.27,658.48 854.88,660.73 838.75,661.95 C818.45,663.49 802.4213,662.7828 782.3713,660.2128 " fill="none" id="Server-to-Server_Proxy" style="stroke:#181818;stroke-width:1.0;"/><polygon fill="#181818" points="776.42,659.45,784.8384,664.5618,781.3794,660.0857,785.8555,656.6267,776.42,659.45" style="stroke:#181818;stroke-width:1.0;"/><polygon fill="#000000" points="825.7539,655.647,834.9077,658.2273,834.6761,652.354,825.7539,655.647" style="stroke:#000000;stroke-width:1.0;"/><text fill="#000000" font-family="sans-serif" font-size="13" lengthAdjust="spacing" textLength="85" x="795.3559" y="670.0221">5 send Result</text></g><!--reverse link Broker to Server--><g id="link_Broker_Server"><path codeLine="33" d="M731.3708,110.2131 C756.8508,168.8631 798.45,265.76 834,354.46 C871.51,448.07 912.92,559.92 932.51,613.42 " fill="none" id="Broker-backto-Server" style="stroke:#181818;stroke-width:1.0;stroke-dasharray:7.0,7.0;"/><polygon fill="#181818" points="728.98,104.71,728.8974,114.5585,730.9723,109.2959,736.2349,111.3708,728.98,104.71" style="stroke:#181818;stroke-width:1.0;"/><text fill="#000000" font-family="sans-serif" font-size="13" lengthAdjust="spacing" textLength="108" x="811.0027" y="602.7633">0 register Service</text></g><!--SRC=[NL7BQiCm4BphAnPTqb9YdBP9mHGVQkYjK9mFAC9PfyQkv6hbFWZzzwwneiZMJQEPsTaHjOtkbLKVeCq12NlOfAcWW5gbsn7TCYggJX51qJMetUblVdzxjURd5qu2-Dp07lMXnCy1oLrTYy1zigP56rZFnduh6n4NCFL64mQyn6D33kqUxLTJOMmyGcWN8GhLTHTk72mOBmo2j1nqF6MrWi9eZPLhM0XYsXdMy-Kps02nF_Y581UpzoJt1MHmEn5Va4WTaOc-6QR4aWmUmA8Rh6PF6Ze7CLNUGJrLTPueOTw4cDta3juLJpLrpVeW2R7cx7NklJAGzr1nb-0haHp2znL8Fg_SdXiOqyfBsiSa0PdoCjCNNgoyNeX_]--></g></svg>