<?xml version="1.0" encoding="UTF-8" standalone="no"?><svg xmlns="http://www.w3.org/2000/svg" xmlns:xlink="http://www.w3.org/1999/xlink" contentStyleType="text/css" height="699px" preserveAspectRatio="none" style="width:985px;height:699px;background:#FFFFFF;" version="1.1" viewBox="0 0 985 699" width="985px" zoomAndPan="magnify"><defs/><g><!--MD5=[ed6624c6556d5e7b1bd23032162d20b7]
class Client--><g id="elem_Client"><rect codeLine="5" fill="#F1F1F1" height="48" id="Client" rx="2.5" ry="2.5" style="stroke:#181818;stroke-width:0.5;" width="68" x="7" y="33.5"/><ellipse cx="22" cy="49.5" fill="#ADD1B2" rx="11" ry="11" style="stroke:#181818;stroke-width:1.0;"/><path d="M24.7656,45.375 Q24.9219,45.1563 25.1094,45.0469 Q25.2969,44.9375 25.5156,44.9375 Q25.8906,44.9375 26.125,45.2031 Q26.3594,45.4531 26.3594,46.0625 L26.3594,47.5156 Q26.3594,48.125 26.125,48.3906 Q25.8906,48.6563 25.5156,48.6563 Q25.1719,48.6563 24.9688,48.4531 Q24.7656,48.2656 24.6563,47.75 Q24.6094,47.3906 24.4219,47.2031 Q24.0938,46.8281 23.4844,46.6094 Q22.875,46.3906 22.25,46.3906 Q21.4844,46.3906 20.8438,46.7188 Q20.2188,47.0469 19.7188,47.7969 Q19.2344,48.5469 19.2344,49.5781 L19.2344,50.6719 Q19.2344,51.9063 20.125,52.7344 Q21.0156,53.5469 22.6094,53.5469 Q23.5469,53.5469 24.2031,53.2969 Q24.5938,53.1406 25.0156,52.7031 Q25.2813,52.4375 25.4219,52.3594 Q25.5781,52.2813 25.7813,52.2813 Q26.1094,52.2813 26.3594,52.5469 Q26.625,52.7969 26.625,53.1406 Q26.625,53.4844 26.2813,53.8906 Q25.7813,54.4688 24.9844,54.7969 Q23.9063,55.25 22.6094,55.25 Q21.0938,55.25 19.8906,54.625 Q18.9063,54.125 18.2188,53.0625 Q17.5313,51.9844 17.5313,50.7031 L17.5313,49.5469 Q17.5313,48.2188 18.1406,47.0781 Q18.7656,45.9219 19.8594,45.3125 Q20.9531,44.6875 22.1875,44.6875 Q22.9219,44.6875 23.5625,44.8594 Q24.2188,45.0156 24.7656,45.375 Z " fill="#000000"/><text fill="#000000" font-family="sans-serif" font-size="14" lengthAdjust="spacing" textLength="36" x="36" y="55.2285">Client</text><line style="stroke:#181818;stroke-width:0.5;" x1="8" x2="74" y1="65.5" y2="65.5"/><line style="stroke:#181818;stroke-width:0.5;" x1="8" x2="74" y1="73.5" y2="73.5"/></g><!--MD5=[4716375204f70ed3d7c38d29a6f7fbcd]
class Client_Proxy--><g id="elem_Client_Proxy"><rect codeLine="7" fill="#F1F1F1" height="65.6094" id="Client_Proxy" rx="2.5" ry="2.5" style="stroke:#181818;stroke-width:0.5;" width="122" x="281" y="24.5"/><ellipse cx="300.95" cy="40.5" fill="#ADD1B2" rx="11" ry="11" style="stroke:#181818;stroke-width:1.0;"/><path d="M303.7156,36.375 Q303.8719,36.1563 304.0594,36.0469 Q304.2469,35.9375 304.4656,35.9375 Q304.8406,35.9375 305.075,36.2031 Q305.3094,36.4531 305.3094,37.0625 L305.3094,38.5156 Q305.3094,39.125 305.075,39.3906 Q304.8406,39.6563 304.4656,39.6563 Q304.1219,39.6563 303.9188,39.4531 Q303.7156,39.2656 303.6063,38.75 Q303.5594,38.3906 303.3719,38.2031 Q303.0438,37.8281 302.4344,37.6094 Q301.825,37.3906 301.2,37.3906 Q300.4344,37.3906 299.7938,37.7188 Q299.1688,38.0469 298.6688,38.7969 Q298.1844,39.5469 298.1844,40.5781 L298.1844,41.6719 Q298.1844,42.9063 299.075,43.7344 Q299.9656,44.5469 301.5594,44.5469 Q302.4969,44.5469 303.1531,44.2969 Q303.5438,44.1406 303.9656,43.7031 Q304.2313,43.4375 304.3719,43.3594 Q304.5281,43.2813 304.7313,43.2813 Q305.0594,43.2813 305.3094,43.5469 Q305.575,43.7969 305.575,44.1406 Q305.575,44.4844 305.2313,44.8906 Q304.7313,45.4688 303.9344,45.7969 Q302.8563,46.25 301.5594,46.25 Q300.0438,46.25 298.8406,45.625 Q297.8563,45.125 297.1688,44.0625 Q296.4813,42.9844 296.4813,41.7031 L296.4813,40.5469 Q296.4813,39.2188 297.0906,38.0781 Q297.7156,36.9219 298.8094,36.3125 Q299.9031,35.6875 301.1375,35.6875 Q301.8719,35.6875 302.5125,35.8594 Q303.1688,36.0156 303.7156,36.375 Z " fill="#000000"/><text fill="#000000" font-family="sans-serif" font-size="14" lengthAdjust="spacing" textLength="79" x="316.05" y="46.2285">Client_Proxy</text><line style="stroke:#181818;stroke-width:0.5;" x1="282" x2="402" y1="56.5" y2="56.5"/><line style="stroke:#181818;stroke-width:0.5;" x1="282" x2="402" y1="64.5" y2="64.5"/><ellipse cx="292" cy="78.8047" fill="#84BE84" rx="3" ry="3" style="stroke:#038048;stroke-width:1.0;"/><text fill="#000000" font-family="sans-serif" font-size="14" lengthAdjust="spacing" textLength="96" x="301" y="83.0332">SendRequest()</text></g><!--MD5=[bc5cfb6f659265949d29b23f39cdf5e7]
class Broker--><g id="elem_Broker"><rect codeLine="11" fill="#F1F1F1" height="100.8281" id="Broker" rx="2.5" ry="2.5" style="stroke:#181818;stroke-width:0.5;" width="152" x="614" y="7"/><ellipse cx="664.75" cy="23" fill="#ADD1B2" rx="11" ry="11" style="stroke:#181818;stroke-width:1.0;"/><path d="M667.5156,18.875 Q667.6719,18.6563 667.8594,18.5469 Q668.0469,18.4375 668.2656,18.4375 Q668.6406,18.4375 668.875,18.7031 Q669.1094,18.9531 669.1094,19.5625 L669.1094,21.0156 Q669.1094,21.625 668.875,21.8906 Q668.6406,22.1563 668.2656,22.1563 Q667.9219,22.1563 667.7188,21.9531 Q667.5156,21.7656 667.4063,21.25 Q667.3594,20.8906 667.1719,20.7031 Q666.8438,20.3281 666.2344,20.1094 Q665.625,19.8906 665,19.8906 Q664.2344,19.8906 663.5938,20.2188 Q662.9688,20.5469 662.4688,21.2969 Q661.9844,22.0469 661.9844,23.0781 L661.9844,24.1719 Q661.9844,25.4063 662.875,26.2344 Q663.7656,27.0469 665.3594,27.0469 Q666.2969,27.0469 666.9531,26.7969 Q667.3438,26.6406 667.7656,26.2031 Q668.0313,25.9375 668.1719,25.8594 Q668.3281,25.7813 668.5313,25.7813 Q668.8594,25.7813 669.1094,26.0469 Q669.375,26.2969 669.375,26.6406 Q669.375,26.9844 669.0313,27.3906 Q668.5313,27.9688 667.7344,28.2969 Q666.6563,28.75 665.3594,28.75 Q663.8438,28.75 662.6406,28.125 Q661.6563,27.625 660.9688,26.5625 Q660.2813,25.4844 660.2813,24.2031 L660.2813,23.0469 Q660.2813,21.7188 660.8906,20.5781 Q661.5156,19.4219 662.6094,18.8125 Q663.7031,18.1875 664.9375,18.1875 Q665.6719,18.1875 666.3125,18.3594 Q666.9688,18.5156 667.5156,18.875 Z " fill="#000000"/><text fill="#000000" font-family="sans-serif" font-size="14" lengthAdjust="spacing" textLength="42" x="685.25" y="28.7285">Broker</text><line style="stroke:#181818;stroke-width:0.5;" x1="615" x2="765" y1="39" y2="39"/><line style="stroke:#181818;stroke-width:0.5;" x1="615" x2="765" y1="47" y2="47"/><ellipse cx="625" cy="61.3047" fill="#84BE84" rx="3" ry="3" style="stroke:#038048;stroke-width:1.0;"/><text fill="#000000" font-family="sans-serif" font-size="14" lengthAdjust="spacing" textLength="115" x="634" y="65.5332">ForwardRequest()</text><ellipse cx="625" cy="78.9141" fill="#84BE84" rx="3" ry="3" style="stroke:#038048;stroke-width:1.0;"/><text fill="#000000" font-family="sans-serif" font-size="14" lengthAdjust="spacing" textLength="126" x="634" y="83.1426">ForwardResponse()</text><ellipse cx="625" cy="96.5234" fill="#84BE84" rx="3" ry="3" style="stroke:#038048;stroke-width:1.0;"/><text fill="#000000" font-family="sans-serif" font-size="14" lengthAdjust="spacing" textLength="110" x="634" y="100.752">RegisterService()</text></g><!--MD5=[bc1d0ad0ca0ada5984b848959e975dd5]
class Server_Proxy--><g id="elem_Server_Proxy"><rect codeLine="17" fill="#F1F1F1" height="83.2188" id="Server_Proxy" rx="2.5" ry="2.5" style="stroke:#181818;stroke-width:0.5;" width="133" x="623.5" y="609"/><ellipse cx="645.7" cy="625" fill="#ADD1B2" rx="11" ry="11" style="stroke:#181818;stroke-width:1.0;"/><path d="M648.4656,620.875 Q648.6219,620.6563 648.8094,620.5469 Q648.9969,620.4375 649.2156,620.4375 Q649.5906,620.4375 649.825,620.7031 Q650.0594,620.9531 650.0594,621.5625 L650.0594,623.0156 Q650.0594,623.625 649.825,623.8906 Q649.5906,624.1563 649.2156,624.1563 Q648.8719,624.1563 648.6688,623.9531 Q648.4656,623.7656 648.3563,623.25 Q648.3094,622.8906 648.1219,622.7031 Q647.7938,622.3281 647.1844,622.1094 Q646.575,621.8906 645.95,621.8906 Q645.1844,621.8906 644.5438,622.2188 Q643.9188,622.5469 643.4188,623.2969 Q642.9344,624.0469 642.9344,625.0781 L642.9344,626.1719 Q642.9344,627.4063 643.825,628.2344 Q644.7156,629.0469 646.3094,629.0469 Q647.2469,629.0469 647.9031,628.7969 Q648.2938,628.6406 648.7156,628.2031 Q648.9813,627.9375 649.1219,627.8594 Q649.2781,627.7813 649.4813,627.7813 Q649.8094,627.7813 650.0594,628.0469 Q650.325,628.2969 650.325,628.6406 Q650.325,628.9844 649.9813,629.3906 Q649.4813,629.9688 648.6844,630.2969 Q647.6063,630.75 646.3094,630.75 Q644.7938,630.75 643.5906,630.125 Q642.6063,629.625 641.9188,628.5625 Q641.2313,627.4844 641.2313,626.2031 L641.2313,625.0469 Q641.2313,623.7188 641.8406,622.5781 Q642.4656,621.4219 643.5594,620.8125 Q644.6531,620.1875 645.8875,620.1875 Q646.6219,620.1875 647.2625,620.3594 Q647.9188,620.5156 648.4656,620.875 Z " fill="#000000"/><text fill="#000000" font-family="sans-serif" font-size="14" lengthAdjust="spacing" textLength="85" x="661.3" y="630.7285">Server_Proxy</text><line style="stroke:#181818;stroke-width:0.5;" x1="624.5" x2="755.5" y1="641" y2="641"/><line style="stroke:#181818;stroke-width:0.5;" x1="624.5" x2="755.5" y1="649" y2="649"/><ellipse cx="634.5" cy="663.3047" fill="#84BE84" rx="3" ry="3" style="stroke:#038048;stroke-width:1.0;"/><text fill="#000000" font-family="sans-serif" font-size="14" lengthAdjust="spacing" textLength="81" x="643.5" y="667.5332">CallService()</text><ellipse cx="634.5" cy="680.9141" fill="#84BE84" rx="3" ry="3" style="stroke:#038048;stroke-width:1.0;"/><text fill="#000000" font-family="sans-serif" font-size="14" lengthAdjust="spacing" textLength="107" x="643.5" y="685.1426">SendResponse()</text></g><!--MD5=[c60af77fe5573b84a4aa4bce89659574]
class Server--><g id="elem_Server"><rect codeLine="22" fill="#F1F1F1" height="65.6094" id="Server" rx="2.5" ry="2.5" style="stroke:#181818;stroke-width:0.5;" width="109" x="869.5" y="617.5"/><ellipse cx="900.25" cy="633.5" fill="#ADD1B2" rx="11" ry="11" style="stroke:#181818;stroke-width:1.0;"/><path d="M903.0156,629.375 Q903.1719,629.1563 903.3594,629.0469 Q903.5469,628.9375 903.7656,628.9375 Q904.1406,628.9375 904.375,629.2031 Q904.6094,629.4531 904.6094,630.0625 L904.6094,631.5156 Q904.6094,632.125 904.375,632.3906 Q904.1406,632.6563 903.7656,632.6563 Q903.4219,632.6563 903.2188,632.4531 Q903.0156,632.2656 902.9063,631.75 Q902.8594,631.3906 902.6719,631.2031 Q902.3438,630.8281 901.7344,630.6094 Q901.125,630.3906 900.5,630.3906 Q899.7344,630.3906 899.0938,630.7188 Q898.4688,631.0469 897.9688,631.7969 Q897.4844,632.5469 897.4844,633.5781 L897.4844,634.6719 Q897.4844,635.9063 898.375,636.7344 Q899.2656,637.5469 900.8594,637.5469 Q901.7969,637.5469 902.4531,637.2969 Q902.8438,637.1406 903.2656,636.7031 Q903.5313,636.4375 903.6719,636.3594 Q903.8281,636.2813 904.0313,636.2813 Q904.3594,636.2813 904.6094,636.5469 Q904.875,636.7969 904.875,637.1406 Q904.875,637.4844 904.5313,637.8906 Q904.0313,638.4688 903.2344,638.7969 Q902.1563,639.25 900.8594,639.25 Q899.3438,639.25 898.1406,638.625 Q897.1563,638.125 896.4688,637.0625 Q895.7813,635.9844 895.7813,634.7031 L895.7813,633.5469 Q895.7813,632.2188 896.3906,631.0781 Q897.0156,629.9219 898.1094,629.3125 Q899.2031,628.6875 900.4375,628.6875 Q901.1719,628.6875 901.8125,628.8594 Q902.4688,629.0156 903.0156,629.375 Z " fill="#000000"/><text fill="#000000" font-family="sans-serif" font-size="14" lengthAdjust="spacing" textLength="42" x="917.75" y="639.2285">Server</text><line style="stroke:#181818;stroke-width:0.5;" x1="870.5" x2="977.5" y1="649.5" y2="649.5"/><line style="stroke:#181818;stroke-width:0.5;" x1="870.5" x2="977.5" y1="657.5" y2="657.5"/><ellipse cx="880.5" cy="671.8047" fill="#84BE84" rx="3" ry="3" style="stroke:#038048;stroke-width:1.0;"/><text fill="#000000" font-family="sans-serif" font-size="14" lengthAdjust="spacing" textLength="83" x="889.5" y="676.0332">RunService()</text></g><!--MD5=[a2ae7763283a4df965900fbd81160403]
link Client to Client_Proxy--><g id="link_Client_Client_Proxy"><path codeLine="26" d="M75.24,57.5 C120.06,57.5 200.07,57.5 260.81,57.5 " fill="none" id="Client-to-Client_Proxy" style="stroke:#181818;stroke-width:1.0;"/><polygon fill="none" points="260.99,50.5,280.99,57.5,260.99,64.5,260.99,50.5" style="stroke:#181818;stroke-width:1.0;"/><polygon fill="#000000" points="135,45.6758,125.9549,42.7369,125.9549,48.6147,135,45.6758" style="stroke:#000000;stroke-width:1.0;"/><text fill="#000000" font-family="sans-serif" font-size="13" lengthAdjust="spacing" textLength="91" x="139" y="50.9951">1 send Request</text></g><!--MD5=[83c3b5a942960544bab78960fd33626d]
link Client_Proxy to Broker--><g id="link_Client_Proxy_Broker"><path codeLine="27" d="M403.02,57.5 C460.09,57.5 545.72,57.5 608.6,57.5 " fill="none" id="Client_Proxy-to-Broker" style="stroke:#181818;stroke-width:1.0;stroke-dasharray:7.0,7.0;"/><polygon fill="#181818" points="613.85,57.5,604.85,53.5,608.85,57.5,604.85,61.5,613.85,57.5" style="stroke:#181818;stroke-width:1.0;"/><polygon fill="#000000" points="463,45.6758,453.9549,42.7369,453.9549,48.6147,463,45.6758" style="stroke:#000000;stroke-width:1.0;"/><text fill="#000000" font-family="sans-serif" font-size="13" lengthAdjust="spacing" textLength="96" x="467" y="50.9951">2 send Message</text></g><!--MD5=[491e08f92fbee5997ce814cb403b434c]
link Broker to Client_Proxy--><g id="link_Broker_Client_Proxy"><path codeLine="28" d="M613.76,71.77 C595.71,74.57 576.48,77.07 558.5,78.5 C514.19,82.02 502.77,82.46 458.5,78.5 C442.08,77.03 424.52,74.42 408.13,71.53 " fill="none" id="Broker-to-Client_Proxy" style="stroke:#181818;stroke-width:1.0;stroke-dasharray:7.0,7.0;"/><polygon fill="#181818" points="403.09,70.63,411.2378,76.1629,408.0107,71.5169,412.6568,68.2898,403.09,70.63" style="stroke:#181818;stroke-width:1.0;"/><polygon fill="#000000" points="458.5,69.6699,467.5417,72.6194,467.5485,66.7416,458.5,69.6699" style="stroke:#000000;stroke-width:1.0;"/><text fill="#000000" font-family="sans-serif" font-size="13" lengthAdjust="spacing" textLength="85" x="472.5" y="74.9951">7 return Result</text></g><!--MD5=[bcffd5db6abb9b46ba9bc82099f4c138]
link Broker to Server_Proxy--><g id="link_Broker_Server_Proxy"><path codeLine="29" d="M668.03,108.13 C647.09,220.81 647.33,494.66 668.75,603.65 " fill="none" id="Broker-to-Server_Proxy" style="stroke:#181818;stroke-width:1.0;stroke-dasharray:7.0,7.0;"/><polygon fill="#181818" points="669.79,608.71,671.9096,599.0919,668.7902,603.811,664.0711,600.6916,669.79,608.71" style="stroke:#181818;stroke-width:1.0;"/><text fill="#000000" font-family="sans-serif" font-size="13" lengthAdjust="spacing" textLength="104" x="554.2815" y="598.2804">3 forward Request</text></g><!--MD5=[aad635de97b50f2f1c1ef6cdb020b9c5]
link Server_Proxy to Broker--><g id="link_Server_Proxy_Broker"><path codeLine="30" d="M710.21,608.71 C732.33,504.94 733.23,230.79 712.89,113.26 " fill="none" id="Server_Proxy-to-Broker" style="stroke:#181818;stroke-width:1.0;stroke-dasharray:7.0,7.0;"/><polygon fill="#181818" points="711.97,108.13,709.6298,117.6968,712.8569,113.0507,717.5029,116.2778,711.97,108.13" style="stroke:#181818;stroke-width:1.0;"/><text fill="#000000" font-family="sans-serif" font-size="13" lengthAdjust="spacing" textLength="119" x="722.9138" y="598.2804">6 hand offer Request</text></g><!--MD5=[ae079930bdee723e3f9081c08f71ecb2]
link Server_Proxy to Server--><g id="link_Server_Proxy_Server"><path codeLine="31" d="M756.76,663.87 C776.88,666.51 799.06,668.06 819.5,666.5 C834.01,665.4 849.55,663.44 864.09,661.27 " fill="none" id="Server_Proxy-to-Server" style="stroke:#181818;stroke-width:1.0;"/><polygon fill="#181818" points="869.4,660.46,859.9055,657.842,864.4555,661.2031,861.0944,665.7532,869.4,660.46" style="stroke:#181818;stroke-width:1.0;"/><polygon fill="#000000" points="816.4985,659.8789,807.3849,657.1599,807.5273,663.036,816.4985,659.8789" style="stroke:#000000;stroke-width:1.0;"/><text fill="#000000" font-family="sans-serif" font-size="13" lengthAdjust="spacing" textLength="77" x="764.49" y="678.9394">4 call Service</text></g><!--MD5=[841b8b5a04d0c9a77eace1770c7bfe86]
link Server to Server_Proxy--><g id="link_Server_Server_Proxy"><path codeLine="32" d="M869.39,650.5 C837.34,650.5 796.45,650.5 761.81,650.5 " fill="none" id="Server-to-Server_Proxy" style="stroke:#181818;stroke-width:1.0;"/><polygon fill="#181818" points="756.74,650.5,765.74,654.5,761.74,650.5,765.74,646.5,756.74,650.5" style="stroke:#181818;stroke-width:1.0;"/><polygon fill="#000000" points="806.5,641,815.5451,643.9389,815.5451,638.0611,806.5,641" style="stroke:#000000;stroke-width:1.0;"/><text fill="#000000" font-family="sans-serif" font-size="13" lengthAdjust="spacing" textLength="80" x="781.5551" y="647.3633">5 send Result</text></g><!--MD5=[d063e42d4d12a3c8a0c08f1b8de9b966]
reverse link Broker to Server--><g id="link_Broker_Server"><path codeLine="33" d="M713.61,112.63 C739.48,172.4 781.84,271.6 816,358 C853.01,451.6 893.41,563.53 912.63,617.41 " fill="none" id="Broker-backto-Server" style="stroke:#181818;stroke-width:1.0;stroke-dasharray:7.0,7.0;"/><polygon fill="#181818" points="711.62,108.04,711.5257,117.8884,713.6068,112.6283,718.8669,114.7095,711.62,108.04" style="stroke:#181818;stroke-width:1.0;"/><text fill="#000000" font-family="sans-serif" font-size="13" lengthAdjust="spacing" textLength="100" x="799.9724" y="606.5068">0 register Service</text></g><!--MD5=[f8b8f53805248a7e241b722213c25450]
@startuml

skinparam nodesep 100
skinparam ranksep 500

class Client{}

class Client_Proxy {
    + SendRequest()
}

class Broker {
    + ForwardRequest()
    + ForwardResponse()
    + RegisterService()
}

class Server_Proxy {
    + CallService()
    + SendResponse()
}

class Server {
    + RunService()
}
'' Connections 
Client -|> Client_Proxy : 1 send Request >
Client_Proxy .> Broker: 2 send Message >
Broker .> Client_Proxy: 7 return Result  >
Broker .>"3 forward Request"  Server_Proxy 
Server_Proxy "6 hand offer Request" .> Broker
Server_Proxy -> Server: "4 call Service" >
Server -> Server_Proxy:"5 send Result" >
Broker <.. "0 register Service"  Server


@enduml

@startuml

skinparam nodesep 100
skinparam ranksep 500

class Client{}

class Client_Proxy {
    + SendRequest()
}

class Broker {
    + ForwardRequest()
    + ForwardResponse()
    + RegisterService()
}

class Server_Proxy {
    + CallService()
    + SendResponse()
}

class Server {
    + RunService()
}
Client -|> Client_Proxy : 1 send Request >
Client_Proxy .> Broker: 2 send Message >
Broker .> Client_Proxy: 7 return Result  >
Broker .>"3 forward Request"  Server_Proxy 
Server_Proxy "6 hand offer Request" .> Broker
Server_Proxy -> Server: "4 call Service" >
Server -> Server_Proxy:"5 send Result" >
Broker <.. "0 register Service"  Server


@enduml

PlantUML version 1.2022.7(Mon Aug 22 19:01:30 CEST 2022)
(GPL source distribution)
Java Runtime: OpenJDK Runtime Environment
JVM: OpenJDK 64-Bit Server VM
Default Encoding: UTF-8
Language: de
Country: DE
--></g></svg>