<svg xmlns="http://www.w3.org/2000/svg" xmlns:xlink="http://www.w3.org/1999/xlink" contentStyleType="text/css" height="220px" preserveAspectRatio="none" style="width:596px;height:220px;background:#FFFFFF;" version="1.1" viewBox="0 0 596 220" width="596px" zoomAndPan="magnify"><defs/><g><!--class Person--><g id="elem_Person"><rect codeLine="1" fill="#F1F1F1" height="80.9766" id="Person" rx="2.5" ry="2.5" style="stroke:#181818;stroke-width:0.5;" width="118.2031" x="68.14" y="7"/><ellipse cx="101.3703" cy="23" fill="#ADD1B2" rx="11" ry="11" style="stroke:#181818;stroke-width:1;"/><path d="M103.8434,29.1431 Q103.2624,29.4419 102.6232,29.5913 Q101.984,29.7407 101.2785,29.7407 Q98.7716,29.7407 97.4518,28.0889 Q96.132,26.437 96.132,23.3159 Q96.132,20.1865 97.4518,18.5347 Q98.7716,16.8828 101.2785,16.8828 Q101.984,16.8828 102.6315,17.0322 Q103.279,17.1816 103.8434,17.4805 L103.8434,20.2031 Q103.2126,19.6221 102.6191,19.3523 Q102.0255,19.0825 101.3947,19.0825 Q100.05,19.0825 99.3651,20.1492 Q98.6803,21.2158 98.6803,23.3159 Q98.6803,25.4077 99.3651,26.4744 Q100.05,27.541 101.3947,27.541 Q102.0255,27.541 102.6191,27.2712 Q103.2126,27.0015 103.8434,26.4204 Z " fill="#000000"/><text fill="#000000" font-family="sans-serif" font-size="14" lengthAdjust="spacing" textLength="45.6914" x="119.4214" y="28.291">Person</text><line style="stroke:#181818;stroke-width:0.5;" x1="69.14" x2="185.3431" y1="39" y2="39"/><ellipse cx="79.14" cy="52.7441" fill="none" rx="3" ry="3" style="stroke:#038048;stroke-width:1;"/><text fill="#000000" font-family="sans-serif" font-size="14" lengthAdjust="spacing" textLength="92.2031" x="88.14" y="56.5352">Name : String</text><line style="stroke:#181818;stroke-width:0.5;" x1="69.14" x2="185.3431" y1="63.4883" y2="63.4883"/><ellipse cx="79.14" cy="77.2324" fill="#84BE84" rx="3" ry="3" style="stroke:#038048;stroke-width:1;"/><text fill="#000000" font-family="sans-serif" font-size="14" lengthAdjust="spacing" textLength="55.3438" x="88.14" y="81.0234">kaufen()</text></g><!--class Privatperson--><g id="elem_Privatperson"><rect codeLine="5" fill="#F1F1F1" height="48" id="Privatperson" rx="2.5" ry="2.5" style="stroke:#181818;stroke-width:0.5;" width="116.4922" x="7" y="157.22"/><ellipse cx="22" cy="173.22" fill="#ADD1B2" rx="11" ry="11" style="stroke:#181818;stroke-width:1;"/><path d="M24.4731,179.3631 Q23.8921,179.6619 23.2529,179.8113 Q22.6138,179.9607 21.9082,179.9607 Q19.4014,179.9607 18.0815,178.3089 Q16.7617,176.657 16.7617,173.5359 Q16.7617,170.4065 18.0815,168.7547 Q19.4014,167.1028 21.9082,167.1028 Q22.6138,167.1028 23.2612,167.2522 Q23.9087,167.4016 24.4731,167.7005 L24.4731,170.4231 Q23.8423,169.8421 23.2488,169.5723 Q22.6553,169.3025 22.0244,169.3025 Q20.6797,169.3025 19.9949,170.3692 Q19.3101,171.4358 19.3101,173.5359 Q19.3101,175.6277 19.9949,176.6944 Q20.6797,177.761 22.0244,177.761 Q22.6553,177.761 23.2488,177.4912 Q23.8423,177.2215 24.4731,176.6404 Z " fill="#000000"/><text fill="#000000" font-family="sans-serif" font-size="14" lengthAdjust="spacing" textLength="84.4922" x="36" y="178.511">Privatperson</text><line style="stroke:#181818;stroke-width:0.5;" x1="8" x2="122.4922" y1="189.22" y2="189.22"/><line style="stroke:#181818;stroke-width:0.5;" x1="8" x2="122.4922" y1="197.22" y2="197.22"/></g><!--class Arzt--><g id="elem_Arzt"><rect codeLine="6" fill="#F1F1F1" height="48" id="Arzt" rx="2.5" ry="2.5" style="stroke:#181818;stroke-width:0.5;" width="60.6494" x="158.92" y="157.22"/><ellipse cx="173.92" cy="173.22" fill="#ADD1B2" rx="11" ry="11" style="stroke:#181818;stroke-width:1;"/><path d="M176.3931,179.3631 Q175.8121,179.6619 175.1729,179.8113 Q174.5338,179.9607 173.8282,179.9607 Q171.3214,179.9607 170.0015,178.3089 Q168.6817,176.657 168.6817,173.5359 Q168.6817,170.4065 170.0015,168.7547 Q171.3214,167.1028 173.8282,167.1028 Q174.5338,167.1028 175.1812,167.2522 Q175.8287,167.4016 176.3931,167.7005 L176.3931,170.4231 Q175.7623,169.8421 175.1688,169.5723 Q174.5753,169.3025 173.9444,169.3025 Q172.5997,169.3025 171.9149,170.3692 Q171.2301,171.4358 171.2301,173.5359 Q171.2301,175.6277 171.9149,176.6944 Q172.5997,177.761 173.9444,177.761 Q174.5753,177.761 175.1688,177.4912 Q175.7623,177.2215 176.3931,176.6404 Z " fill="#000000"/><text fill="#000000" font-family="sans-serif" font-size="14" lengthAdjust="spacing" textLength="28.6494" x="187.92" y="178.511">Arzt</text><line style="stroke:#181818;stroke-width:0.5;" x1="159.92" x2="218.5694" y1="189.22" y2="189.22"/><line style="stroke:#181818;stroke-width:0.5;" x1="159.92" x2="218.5694" y1="197.22" y2="197.22"/></g><!--class Arztnei--><g id="elem_Arztnei"><rect codeLine="11" fill="#F1F1F1" height="64.4883" id="Arztnei" rx="2.5" ry="2.5" style="stroke:#181818;stroke-width:0.5;" width="118.2031" x="278.14" y="15.24"/><ellipse cx="309.7983" cy="31.24" fill="#ADD1B2" rx="11" ry="11" style="stroke:#181818;stroke-width:1;"/><path d="M312.2715,37.3831 Q311.6904,37.6819 311.0513,37.8313 Q310.4121,37.9807 309.7066,37.9807 Q307.1997,37.9807 305.8799,36.3289 Q304.5601,34.677 304.5601,31.5559 Q304.5601,28.4265 305.8799,26.7747 Q307.1997,25.1228 309.7066,25.1228 Q310.4121,25.1228 311.0596,25.2722 Q311.707,25.4216 312.2715,25.7205 L312.2715,28.4431 Q311.6406,27.8621 311.0471,27.5923 Q310.4536,27.3225 309.8228,27.3225 Q308.478,27.3225 307.7932,28.3892 Q307.1084,29.4558 307.1084,31.5559 Q307.1084,33.6477 307.7932,34.7144 Q308.478,35.781 309.8228,35.781 Q310.4536,35.781 311.0471,35.5112 Q311.6406,35.2415 312.2715,34.6604 Z " fill="#000000"/><text fill="#000000" font-family="sans-serif" font-size="14" lengthAdjust="spacing" textLength="49.1846" x="327.5002" y="36.531">Arztnei</text><line style="stroke:#181818;stroke-width:0.5;" x1="279.14" x2="395.3431" y1="47.24" y2="47.24"/><ellipse cx="289.14" cy="60.9841" fill="none" rx="3" ry="3" style="stroke:#038048;stroke-width:1;"/><text fill="#000000" font-family="sans-serif" font-size="14" lengthAdjust="spacing" textLength="92.2031" x="298.14" y="64.7752">Name : String</text><line style="stroke:#181818;stroke-width:0.5;" x1="279.14" x2="395.3431" y1="71.7283" y2="71.7283"/></g><!--class Krankheit--><g id="elem_Krankheit"><rect codeLine="14" fill="#F1F1F1" height="64.4883" id="Krankheit" rx="2.5" ry="2.5" style="stroke:#181818;stroke-width:0.5;" width="118.2031" x="471.14" y="15.24"/><ellipse cx="495.5724" cy="31.24" fill="#ADD1B2" rx="11" ry="11" style="stroke:#181818;stroke-width:1;"/><path d="M498.0456,37.3831 Q497.4645,37.6819 496.8254,37.8313 Q496.1862,37.9807 495.4806,37.9807 Q492.9738,37.9807 491.654,36.3289 Q490.3341,34.677 490.3341,31.5559 Q490.3341,28.4265 491.654,26.7747 Q492.9738,25.1228 495.4806,25.1228 Q496.1862,25.1228 496.8337,25.2722 Q497.4811,25.4216 498.0456,25.7205 L498.0456,28.4431 Q497.4147,27.8621 496.8212,27.5923 Q496.2277,27.3225 495.5968,27.3225 Q494.2521,27.3225 493.5673,28.3892 Q492.8825,29.4558 492.8825,31.5559 Q492.8825,33.6477 493.5673,34.7144 Q494.2521,35.781 495.5968,35.781 Q496.2277,35.781 496.8212,35.5112 Q497.4147,35.2415 498.0456,34.6604 Z " fill="#000000"/><text fill="#000000" font-family="sans-serif" font-size="14" lengthAdjust="spacing" textLength="65.2422" x="511.6685" y="36.531">Krankheit</text><line style="stroke:#181818;stroke-width:0.5;" x1="472.14" x2="588.3431" y1="47.24" y2="47.24"/><ellipse cx="482.14" cy="60.9841" fill="none" rx="3" ry="3" style="stroke:#038048;stroke-width:1;"/><text fill="#000000" font-family="sans-serif" font-size="14" lengthAdjust="spacing" textLength="92.2031" x="491.14" y="64.7752">Name : String</text><line style="stroke:#181818;stroke-width:0.5;" x1="472.14" x2="588.3431" y1="71.7283" y2="71.7283"/></g><!--class Syntom--><g id="elem_Syntom"><rect codeLine="17" fill="#F1F1F1" height="64.4883" id="Syntom" rx="2.5" ry="2.5" style="stroke:#181818;stroke-width:0.5;" width="118.2031" x="471.14" y="148.97"/><ellipse cx="502.2293" cy="164.97" fill="#ADD1B2" rx="11" ry="11" style="stroke:#181818;stroke-width:1;"/><path d="M504.7024,171.1131 Q504.1213,171.4119 503.4822,171.5613 Q502.843,171.7107 502.1375,171.7107 Q499.6306,171.7107 498.3108,170.0589 Q496.991,168.407 496.991,165.2859 Q496.991,162.1565 498.3108,160.5047 Q499.6306,158.8528 502.1375,158.8528 Q502.843,158.8528 503.4905,159.0022 Q504.1379,159.1516 504.7024,159.4505 L504.7024,162.1731 Q504.0715,161.5921 503.478,161.3223 Q502.8845,161.0525 502.2537,161.0525 Q500.9089,161.0525 500.2241,162.1192 Q499.5393,163.1858 499.5393,165.2859 Q499.5393,167.3777 500.2241,168.4444 Q500.9089,169.511 502.2537,169.511 Q502.8845,169.511 503.478,169.2412 Q504.0715,168.9715 504.7024,168.3904 Z " fill="#000000"/><text fill="#000000" font-family="sans-serif" font-size="14" lengthAdjust="spacing" textLength="50.4492" x="519.8046" y="170.261">Syntom</text><line style="stroke:#181818;stroke-width:0.5;" x1="472.14" x2="588.3431" y1="180.97" y2="180.97"/><ellipse cx="482.14" cy="194.7141" fill="none" rx="3" ry="3" style="stroke:#038048;stroke-width:1;"/><text fill="#000000" font-family="sans-serif" font-size="14" lengthAdjust="spacing" textLength="92.2031" x="491.14" y="198.5052">Name : String</text><line style="stroke:#181818;stroke-width:0.5;" x1="472.14" x2="588.3431" y1="205.4583" y2="205.4583"/></g><!--reverse link Person to Privatperson--><g id="link_Person_Privatperson"><path codeLine="8" d="M100.816,104.6469 C90.266,127.0669 85.13,137.98 76.2,156.93 " fill="none" id="Person-backto-Privatperson" style="stroke:#181818;stroke-width:1;"/><polygon fill="none" points="108.48,88.36,95.387,102.0922,106.245,107.2016,108.48,88.36" style="stroke:#181818;stroke-width:1;"/></g><!--reverse link Person to Arzt--><g id="link_Person_Arzt"><path codeLine="9" d="M153.684,104.6469 C164.234,127.0669 169.37,137.98 178.29,156.93 " fill="none" id="Person-backto-Arzt" style="stroke:#181818;stroke-width:1;"/><polygon fill="none" points="146.02,88.36,148.255,107.2016,159.113,102.0922,146.02,88.36" style="stroke:#181818;stroke-width:1;"/></g><!--reverse link Krankheit to Syntom--><g id="link_Krankheit_Syntom"><path codeLine="21" d="M530.25,98.04 C530.25,118.89 530.25,128.12 530.25,148.92 " fill="none" id="Krankheit-backto-Syntom" style="stroke:#181818;stroke-width:1;"/><polygon fill="none" points="530.25,80.04,524.25,98.04,536.25,98.04,530.25,80.04" style="stroke:#181818;stroke-width:1;"/></g><!--link Person to Arztnei--><g id="link_Person_Arztnei"><path codeLine="22" d="M186.58,47.48 C215.08,47.48 249.16,47.48 277.69,47.48 " fill="none" id="Person-Arztnei" style="stroke:#181818;stroke-width:1;"/><polygon fill="#000000" points="213.75,36.1353,204.7049,33.1963,204.7049,39.0742,213.75,36.1353" style="stroke:#000000;stroke-width:1;"/><text fill="#000000" font-family="sans-serif" font-size="13" lengthAdjust="spacing" textLength="42.9355" x="217.75" y="41.0484">kaufen</text><text fill="#000000" font-family="sans-serif" font-size="13" lengthAdjust="spacing" textLength="8.2202" x="194.3128" y="44.1522">1</text><text fill="#000000" font-family="sans-serif" font-size="13" lengthAdjust="spacing" textLength="32.8872" x="237.4751" y="60.8852">0..50</text></g><!--link Arztnei to Krankheit--><g id="link_Arztnei_Krankheit"><path codeLine="23" d="M396.73,47.48 C420.32,47.48 447.39,47.48 470.96,47.48 " fill="none" id="Arztnei-Krankheit" style="stroke:#181818;stroke-width:1;"/><text fill="#000000" font-family="sans-serif" font-size="13" lengthAdjust="spacing" textLength="38.1367" x="414.75" y="41.0484">heilen</text><text fill="#000000" font-family="sans-serif" font-size="13" lengthAdjust="spacing" textLength="8.2202" x="404.4811" y="44.1527">1</text><text fill="#000000" font-family="sans-serif" font-size="13" lengthAdjust="spacing" textLength="24.667" x="438.3132" y="60.9808">0..1</text></g><!--SRC=[Iyv9B2vM24WjAixFKwZcqbRmIynDLR1I22ufoinB1_Ap4qlJKlCqDBbgkP8XQeioon9B2g0wOAAEHLKb81uNr2YR6brT5AKe4Y3LN4Wwyr8piLWECzkxA34lEoCrimIFck3Al9ByNAmAk13wmPP3bCBSesIefA2he6IWfsTge0HtZ1NKtmfsN30XX48W0s6abGAGoadD0m00]--></g></svg>