<?xml version="1.0" encoding="us-ascii" standalone="no"?><svg xmlns="http://www.w3.org/2000/svg" xmlns:xlink="http://www.w3.org/1999/xlink" contentStyleType="text/css" height="469px" preserveAspectRatio="none" style="width:887px;height:469px;background:#FFFFFF;" version="1.1" viewBox="0 0 887 469" width="887px" zoomAndPan="magnify"><defs/><g><!--cluster Browser--><g id="cluster_Browser"><rect fill="none" height="97.48" rx="2.5" ry="2.5" style="stroke:#181818;stroke-width:1.0;" width="102" x="7" y="54"/><path d="M75,54 L75,63.4883 L65,73.4883 L7,73.4883 " fill="none" style="stroke:#181818;stroke-width:1.0;"/><text fill="#000000" font-family="sans-serif" font-size="14" font-weight="bold" lengthAdjust="spacing" textLength="58" x="10" y="68.5352">Browser</text></g><!--cluster small Bridgehead--><g id="cluster_small Bridgehead"><polygon fill="none" points="133,16,143,6,510,6,510,165.48,500,175.48,133,175.48,133,16" style="stroke:#181818;stroke-width:1.0;"/><line style="stroke:#181818;stroke-width:1.0;" x1="500" x2="510" y1="16" y2="6"/><line style="stroke:#181818;stroke-width:1.0;" x1="133" x2="500" y1="16" y2="16"/><line style="stroke:#181818;stroke-width:1.0;" x1="500" x2="500" y1="16" y2="175.48"/><text fill="#000000" font-family="sans-serif" font-size="14" font-weight="bold" lengthAdjust="spacing" textLength="125" x="255" y="32.5352">small Bridgehead</text></g><!--cluster Docker Container--><g id="cluster_Docker Container"><rect fill="none" height="97.48" rx="2.5" ry="2.5" style="stroke:#181818;stroke-width:1.0;" width="329" x="157" y="54"/><path d="M292,54 L292,63.4883 L282,73.4883 L157,73.4883 " fill="none" style="stroke:#181818;stroke-width:1.0;"/><text fill="#000000" font-family="sans-serif" font-size="14" font-weight="bold" lengthAdjust="spacing" textLength="125" x="160" y="68.5352">Docker Container</text></g><!--cluster central Service--><g id="cluster_central Service"><polygon fill="none" points="258,209.48,268,199.48,438,199.48,438,291.97,428,301.97,258,301.97,258,209.48" style="stroke:#181818;stroke-width:1.0;"/><line style="stroke:#181818;stroke-width:1.0;" x1="428" x2="438" y1="209.48" y2="199.48"/><line style="stroke:#181818;stroke-width:1.0;" x1="258" x2="428" y1="209.48" y2="209.48"/><line style="stroke:#181818;stroke-width:1.0;" x1="428" x2="428" y1="209.48" y2="301.97"/><text fill="#000000" font-family="sans-serif" font-size="14" font-weight="bold" lengthAdjust="spacing" textLength="104" x="292" y="226.0152">central Service</text></g><!--cluster central Server--><g id="cluster_central Server"><path d="M464.5,204.48 L563.5,204.48 A3.75,3.75 0 0 1 566,206.98 L573,226.9683 L877.5,226.9683 A2.5,2.5 0 0 1 880,229.4683 L880,459.96 A2.5,2.5 0 0 1 877.5,462.46 L464.5,462.46 A2.5,2.5 0 0 1 462,459.96 L462,206.98 A2.5,2.5 0 0 1 464.5,204.48 " fill="none" style="stroke:#000000;stroke-width:1.5;"/><line style="stroke:#000000;stroke-width:1.5;" x1="462" x2="573" y1="226.9683" y2="226.9683"/><text fill="#000000" font-family="sans-serif" font-size="14" font-weight="bold" lengthAdjust="spacing" textLength="98" x="466" y="220.0152">central Server</text></g><g id="cluster_##12"><path d="M678.257,368.4684 C682.2302,362.1049 687.7991,362.3124 690.9193,369.2786 C694.6326,363.3976 698.7758,360.9917 704.1246,367.5411 C706.3073,361.6436 711.8954,360.7522 715.6885,365.8469 C718.7136,359.6706 724.317,359.9244 728.2282,364.8456 C731.2102,360.0621 737.0827,359.0194 739.9504,364.9704 C742.3352,358.8098 748.4055,359.0017 751.9969,363.622 C754.9176,356.2104 760.2163,355.8161 764.8243,362.034 C768.8498,356.6841 774.4498,356.0671 777.2907,363.2155 C780.8438,358.4548 785.8205,360.0707 787.6421,365.0549 C792.0277,358.5831 797.6413,359.5999 800.4099,366.5888 C803.8936,359.5837 809.1445,359.5747 813.5931,365.6136 C817.3119,361.8493 821.7423,361.3492 823.7656,367.3753 C828.2525,359.6189 834.094,360.7505 838.1118,367.8289 C843.3422,362.7748 846.7162,363.8553 849.5377,370.236 C856.8599,373.8195 855.9561,380.9313 850.0233,384.9522 C857.7833,389.4174 857.2508,396.0728 850.8911,401.2881 C857.7192,406.5015 857.242,411.4807 849.9565,415.7842 C857.7699,420.4864 856.2568,426.4586 850.0133,431.2125 C846.7339,437.5488 841.7645,437.8807 836.9225,433.0432 C832.7846,439.8777 828.8299,439.2625 823.9335,433.8475 C820.5147,438.9156 815.926,439.1304 812.2064,434.2003 C809.5066,438.8424 804.6217,439.1974 801.6162,434.5489 C798.8427,441.0004 792.8826,442.5387 787.886,437.1204 C783.6514,442.4247 780.1319,442.6779 776.4052,436.6077 C772.7126,442.6702 768.67,444.1144 763.7625,437.8541 C759.7831,442.2564 755.0893,442.5731 752.2061,436.6295 C748.7342,442.1963 743.0803,442.5694 740.3875,435.8783 C736.3212,442.7733 732.2457,443.51 727.2619,436.7609 C722.6604,442.0133 718.6735,441.0868 715.8367,434.9851 C710.7364,439.7651 705.8987,439.0466 703.0091,432.4848 C699.8932,437.9435 695.0332,438.0587 691.2136,433.297 C685.6556,439.4167 681.2452,436.7926 678.4255,430.4803 C671.5296,426.3194 670.6768,420.1187 678.552,416.0877 C670.4708,413.1601 669.274,407.1672 675.7978,401.485 C669.8562,395.3683 670.6306,389.7255 678.3916,385.8874 C670.3636,381.2911 668.8719,373.1993 678.257,368.4684 " fill="none" style="stroke:#181818;stroke-width:1.0;"/></g><!--cluster MRBS--><g id="cluster_MRBS"><path d="M486,335.97 C486,325.97 566,325.97 566,325.97 C566,325.97 646,325.97 646,335.97 L646,428.46 C646,438.46 566,438.46 566,438.46 C566,438.46 486,438.46 486,428.46 L486,335.97 " fill="none" style="stroke:#181818;stroke-width:1.0;"/><path d="M486,335.97 C486,345.97 566,345.97 566,345.97 C566,345.97 646,345.97 646,335.97 " fill="none" style="stroke:#181818;stroke-width:1.0;"/><text fill="#000000" font-family="sans-serif" font-size="14" font-weight="bold" lengthAdjust="spacing" textLength="40" x="546" y="361.5052">MRBS</text></g><!--entity User--><g id="elem_User"><rect fill="#F1F1F1" height="46.4883" rx="2.5" ry="2.5" style="stroke:#181818;stroke-width:0.5;" width="71" x="22.5" y="89"/><rect fill="#F1F1F1" height="10" style="stroke:#181818;stroke-width:0.5;" width="15" x="73.5" y="94"/><rect fill="#F1F1F1" height="2" style="stroke:#181818;stroke-width:0.5;" width="4" x="71.5" y="96"/><rect fill="#F1F1F1" height="2" style="stroke:#181818;stroke-width:0.5;" width="4" x="71.5" y="100"/><text fill="#000000" font-family="sans-serif" font-size="14" lengthAdjust="spacing" textLength="31" x="37.5" y="122.5352">User</text></g><!--entity Client--><g id="elem_Client"><rect fill="#F1F1F1" height="46.4883" rx="2.5" ry="2.5" style="stroke:#181818;stroke-width:0.5;" width="80" x="173" y="89"/><rect fill="#F1F1F1" height="10" style="stroke:#181818;stroke-width:0.5;" width="15" x="233" y="94"/><rect fill="#F1F1F1" height="2" style="stroke:#181818;stroke-width:0.5;" width="4" x="231" y="96"/><rect fill="#F1F1F1" height="2" style="stroke:#181818;stroke-width:0.5;" width="4" x="231" y="100"/><text fill="#000000" font-family="sans-serif" font-size="14" lengthAdjust="spacing" textLength="40" x="188" y="122.5352">Client</text></g><!--entity Samply_Proxy_Client--><g id="elem_Samply_Proxy_Client"><rect fill="#F1F1F1" height="46.4883" rx="2.5" ry="2.5" style="stroke:#181818;stroke-width:0.5;" width="182" x="288" y="89"/><rect fill="#F1F1F1" height="10" style="stroke:#181818;stroke-width:0.5;" width="15" x="450" y="94"/><rect fill="#F1F1F1" height="2" style="stroke:#181818;stroke-width:0.5;" width="4" x="448" y="96"/><rect fill="#F1F1F1" height="2" style="stroke:#181818;stroke-width:0.5;" width="4" x="448" y="100"/><text fill="#000000" font-family="sans-serif" font-size="14" lengthAdjust="spacing" textLength="142" x="303" y="122.5352">Samply_Proxy_Client</text></g><!--entity Broker--><g id="elem_Broker"><rect fill="#F1F1F1" height="46.4883" rx="2.5" ry="2.5" style="stroke:#181818;stroke-width:0.5;" width="85" x="336.5" y="239.48"/><rect fill="#F1F1F1" height="10" style="stroke:#181818;stroke-width:0.5;" width="15" x="401.5" y="244.48"/><rect fill="#F1F1F1" height="2" style="stroke:#181818;stroke-width:0.5;" width="4" x="399.5" y="246.48"/><rect fill="#F1F1F1" height="2" style="stroke:#181818;stroke-width:0.5;" width="4" x="399.5" y="250.48"/><text fill="#000000" font-family="sans-serif" font-size="14" lengthAdjust="spacing" textLength="45" x="351.5" y="273.0152">Broker</text></g><!--entity Samply_Proxy_Server--><g id="elem_Samply_Proxy_Server"><rect fill="#F1F1F1" height="46.4883" rx="2.5" ry="2.5" style="stroke:#181818;stroke-width:0.5;" width="185" x="573.5" y="239.48"/><rect fill="#F1F1F1" height="10" style="stroke:#181818;stroke-width:0.5;" width="15" x="738.5" y="244.48"/><rect fill="#F1F1F1" height="2" style="stroke:#181818;stroke-width:0.5;" width="4" x="736.5" y="246.48"/><rect fill="#F1F1F1" height="2" style="stroke:#181818;stroke-width:0.5;" width="4" x="736.5" y="250.48"/><text fill="#000000" font-family="sans-serif" font-size="14" lengthAdjust="spacing" textLength="145" x="588.5" y="273.0152">Samply_Proxy_Server</text></g><!--entity Server_REST_API--><g id="elem_Server_REST_API"><rect fill="#F1F1F1" height="46.4883" rx="2.5" ry="2.5" style="stroke:#181818;stroke-width:0.5;" width="153" x="686.5" y="375.97"/><rect fill="#F1F1F1" height="10" style="stroke:#181818;stroke-width:0.5;" width="15" x="819.5" y="380.97"/><rect fill="#F1F1F1" height="2" style="stroke:#181818;stroke-width:0.5;" width="4" x="817.5" y="382.97"/><rect fill="#F1F1F1" height="2" style="stroke:#181818;stroke-width:0.5;" width="4" x="817.5" y="386.97"/><text fill="#000000" font-family="sans-serif" font-size="14" lengthAdjust="spacing" textLength="113" x="701.5" y="409.5052">Server_REST_API</text></g><!--entity Verbis_MRBS--><g id="elem_Verbis_MRBS"><rect fill="#F1F1F1" height="46.4883" rx="2.5" ry="2.5" style="stroke:#181818;stroke-width:0.5;" width="127" x="502.5" y="375.97"/><rect fill="#F1F1F1" height="10" style="stroke:#181818;stroke-width:0.5;" width="15" x="609.5" y="380.97"/><rect fill="#F1F1F1" height="2" style="stroke:#181818;stroke-width:0.5;" width="4" x="607.5" y="382.97"/><rect fill="#F1F1F1" height="2" style="stroke:#181818;stroke-width:0.5;" width="4" x="607.5" y="386.97"/><text fill="#000000" font-family="sans-serif" font-size="14" lengthAdjust="spacing" textLength="87" x="517.5" y="409.5052">Verbis_MRBS</text></g><!--link User to Client--><g id="link_User_Client"><path d="M93.72,112.24 C120.13,112.24 146.53,112.24 172.93,112.24 " fill="none" id="User-Client" style="stroke:#181818;stroke-width:1.0;"/></g><!--link Client to Samply_Proxy_Client--><g id="link_Client_Samply_Proxy_Client"><path d="M253.2,112.24 C264.67,112.24 276.13,112.24 287.6,112.24 " fill="none" id="Client-Samply_Proxy_Client" style="stroke:#181818;stroke-width:1.0;"/></g><!--link Samply_Proxy_Client to Broker--><g id="link_Samply_Proxy_Client_Broker"><path d="M379,135.79 C379,163.86 379,211.51 379,239.45 " fill="none" id="Samply_Proxy_Client-Broker" style="stroke:#181818;stroke-width:1.0;"/></g><!--link Broker to Samply_Proxy_Server--><g id="link_Broker_Samply_Proxy_Server"><path d="M421.88,262.73 C472.26,262.73 522.64,262.73 573.03,262.73 " fill="none" id="Broker-Samply_Proxy_Server" style="stroke:#181818;stroke-width:1.0;"/></g><!--link Samply_Proxy_Server to Server_REST_API--><g id="link_Samply_Proxy_Server_Server_REST_API"><path d="M682.24,286.24 C700.14,311.06 728.78,350.78 746.71,375.63 " fill="none" id="Samply_Proxy_Server-Server_REST_API" style="stroke:#181818;stroke-width:1.0;"/></g><!--link Server_REST_API to Verbis_MRBS--><g id="link_Server_REST_API_Verbis_MRBS"><path d="M686.03,399.22 C667.31,399.22 648.59,399.22 629.87,399.22 " fill="none" id="Server_REST_API-Verbis_MRBS" style="stroke:#181818;stroke-width:1.0;"/></g><!--SRC=[RL3B3i8W4BptAuZtVeHL3nvCZ5Klnf0LLYMbnMphAyP_bnQHrfO3MMPsPsSu4kJ8HWcPUuaqOg-8sRFRsCS-UaTHOQIbonoqPWafUS8pWlHzHpSzDI93OXDJLA2A8DD8JRJ2eje788NyefzyIURnv6tstTnXgx0CWMOfqaq9_9cpPhEllGk834v_lQqSdLsESxk4DbVPjkb8lfgbQpvUpjkE95HmWD9kMQoIj1DkYtHG9QznFs5TkUzZSGZlYneRp3-8iZWEQNtHa_2n1j56efUjXzIYdImV]--></g></svg>