<?xml version="1.0" encoding="UTF-8" standalone="no"?><svg xmlns="http://www.w3.org/2000/svg" xmlns:xlink="http://www.w3.org/1999/xlink" contentStyleType="text/css" height="273px" preserveAspectRatio="none" style="width:742px;height:273px;background:#FFFFFF;" version="1.1" viewBox="0 0 742 273" width="742px" zoomAndPan="magnify"><defs/><g><!--MD5=[133428994d591e12e83f73311cc9fb75]
cluster varianten_Fahrradcomputer--><g id="cluster_varianten_Fahrradcomputer"><path d="M178.5,132 L376.5,132 A3.75,3.75 0 0 1 379,134.5 L386,155.6094 L732.5,155.6094 A2.5,2.5 0 0 1 735,158.1094 L735,263.5 A2.5,2.5 0 0 1 732.5,266 L178.5,266 A2.5,2.5 0 0 1 176,263.5 L176,134.5 A2.5,2.5 0 0 1 178.5,132 " fill="none" style="stroke:#000000;stroke-width:1.5;"/><line style="stroke:#000000;stroke-width:1.5;" x1="176" x2="386" y1="155.6094" y2="155.6094"/><text fill="#000000" font-family="sans-serif" font-size="14" font-weight="bold" lengthAdjust="spacing" textLength="197" x="180" y="148.5332">varianten_Fahrradcomputer</text></g><!--MD5=[7c0654baa9026a0d04118f0d6c3c6387]
class GPS_Computer--><g id="elem_GPS_Computer"><rect codeLine="7" fill="#F1F1F1" height="65.6094" id="GPS_Computer" rx="2.5" ry="2.5" style="stroke:#181818;stroke-width:0.5;" width="131" x="579.5" y="176"/><ellipse cx="594.5" cy="192" fill="#ADD1B2" rx="11" ry="11" style="stroke:#181818;stroke-width:1.0;"/><path d="M597.2656,187.875 Q597.4219,187.6563 597.6094,187.5469 Q597.7969,187.4375 598.0156,187.4375 Q598.3906,187.4375 598.625,187.7031 Q598.8594,187.9531 598.8594,188.5625 L598.8594,190.0156 Q598.8594,190.625 598.625,190.8906 Q598.3906,191.1563 598.0156,191.1563 Q597.6719,191.1563 597.4688,190.9531 Q597.2656,190.7656 597.1563,190.25 Q597.1094,189.8906 596.9219,189.7031 Q596.5938,189.3281 595.9844,189.1094 Q595.375,188.8906 594.75,188.8906 Q593.9844,188.8906 593.3438,189.2188 Q592.7188,189.5469 592.2188,190.2969 Q591.7344,191.0469 591.7344,192.0781 L591.7344,193.1719 Q591.7344,194.4063 592.625,195.2344 Q593.5156,196.0469 595.1094,196.0469 Q596.0469,196.0469 596.7031,195.7969 Q597.0938,195.6406 597.5156,195.2031 Q597.7813,194.9375 597.9219,194.8594 Q598.0781,194.7813 598.2813,194.7813 Q598.6094,194.7813 598.8594,195.0469 Q599.125,195.2969 599.125,195.6406 Q599.125,195.9844 598.7813,196.3906 Q598.2813,196.9688 597.4844,197.2969 Q596.4063,197.75 595.1094,197.75 Q593.5938,197.75 592.3906,197.125 Q591.4063,196.625 590.7188,195.5625 Q590.0313,194.4844 590.0313,193.2031 L590.0313,192.0469 Q590.0313,190.7188 590.6406,189.5781 Q591.2656,188.4219 592.3594,187.8125 Q593.4531,187.1875 594.6875,187.1875 Q595.4219,187.1875 596.0625,187.3594 Q596.7188,187.5156 597.2656,187.875 Z " fill="#000000"/><text fill="#000000" font-family="sans-serif" font-size="14" lengthAdjust="spacing" textLength="99" x="608.5" y="197.7285">GPS_Computer</text><line style="stroke:#181818;stroke-width:0.5;" x1="580.5" x2="709.5" y1="208" y2="208"/><line style="stroke:#181818;stroke-width:1.0;" x1="580.5" x2="709.5" y1="216" y2="216"/><ellipse cx="590.5" cy="230.3047" fill="#84BE84" rx="3" ry="3" style="stroke:#038048;stroke-width:1.0;"/><text fill="#000000" font-family="sans-serif" font-size="14" lengthAdjust="spacing" textLength="82" x="599.5" y="234.5332">info() : String</text></g><!--MD5=[7d6803a3fa2f2ac60d7adbc6efb1015c]
class Kabellos_Computer--><g id="elem_Kabellos_Computer"><rect codeLine="11" fill="#F1F1F1" height="65.6094" id="Kabellos_Computer" rx="2.5" ry="2.5" style="stroke:#181818;stroke-width:0.5;" width="156" x="388" y="176"/><ellipse cx="403" cy="192" fill="#ADD1B2" rx="11" ry="11" style="stroke:#181818;stroke-width:1.0;"/><path d="M405.7656,187.875 Q405.9219,187.6563 406.1094,187.5469 Q406.2969,187.4375 406.5156,187.4375 Q406.8906,187.4375 407.125,187.7031 Q407.3594,187.9531 407.3594,188.5625 L407.3594,190.0156 Q407.3594,190.625 407.125,190.8906 Q406.8906,191.1563 406.5156,191.1563 Q406.1719,191.1563 405.9688,190.9531 Q405.7656,190.7656 405.6563,190.25 Q405.6094,189.8906 405.4219,189.7031 Q405.0938,189.3281 404.4844,189.1094 Q403.875,188.8906 403.25,188.8906 Q402.4844,188.8906 401.8438,189.2188 Q401.2188,189.5469 400.7188,190.2969 Q400.2344,191.0469 400.2344,192.0781 L400.2344,193.1719 Q400.2344,194.4063 401.125,195.2344 Q402.0156,196.0469 403.6094,196.0469 Q404.5469,196.0469 405.2031,195.7969 Q405.5938,195.6406 406.0156,195.2031 Q406.2813,194.9375 406.4219,194.8594 Q406.5781,194.7813 406.7813,194.7813 Q407.1094,194.7813 407.3594,195.0469 Q407.625,195.2969 407.625,195.6406 Q407.625,195.9844 407.2813,196.3906 Q406.7813,196.9688 405.9844,197.2969 Q404.9063,197.75 403.6094,197.75 Q402.0938,197.75 400.8906,197.125 Q399.9063,196.625 399.2188,195.5625 Q398.5313,194.4844 398.5313,193.2031 L398.5313,192.0469 Q398.5313,190.7188 399.1406,189.5781 Q399.7656,188.4219 400.8594,187.8125 Q401.9531,187.1875 403.1875,187.1875 Q403.9219,187.1875 404.5625,187.3594 Q405.2188,187.5156 405.7656,187.875 Z " fill="#000000"/><text fill="#000000" font-family="sans-serif" font-size="14" lengthAdjust="spacing" textLength="124" x="417" y="197.7285">Kabellos_Computer</text><line style="stroke:#181818;stroke-width:0.5;" x1="389" x2="543" y1="208" y2="208"/><line style="stroke:#181818;stroke-width:1.0;" x1="389" x2="543" y1="216" y2="216"/><ellipse cx="399" cy="230.3047" fill="#84BE84" rx="3" ry="3" style="stroke:#038048;stroke-width:1.0;"/><text fill="#000000" font-family="sans-serif" font-size="14" lengthAdjust="spacing" textLength="82" x="408" y="234.5332">info() : String</text></g><!--MD5=[1a45aeab27efb83d8d686f95e46bbae0]
class Easy_Computer--><g id="elem_Easy_Computer"><rect codeLine="15" fill="#F1F1F1" height="65.6094" id="Easy_Computer" rx="2.5" ry="2.5" style="stroke:#181818;stroke-width:0.5;" width="133" x="219.5" y="176"/><ellipse cx="234.5" cy="192" fill="#ADD1B2" rx="11" ry="11" style="stroke:#181818;stroke-width:1.0;"/><path d="M237.2656,187.875 Q237.4219,187.6563 237.6094,187.5469 Q237.7969,187.4375 238.0156,187.4375 Q238.3906,187.4375 238.625,187.7031 Q238.8594,187.9531 238.8594,188.5625 L238.8594,190.0156 Q238.8594,190.625 238.625,190.8906 Q238.3906,191.1563 238.0156,191.1563 Q237.6719,191.1563 237.4688,190.9531 Q237.2656,190.7656 237.1563,190.25 Q237.1094,189.8906 236.9219,189.7031 Q236.5938,189.3281 235.9844,189.1094 Q235.375,188.8906 234.75,188.8906 Q233.9844,188.8906 233.3438,189.2188 Q232.7188,189.5469 232.2188,190.2969 Q231.7344,191.0469 231.7344,192.0781 L231.7344,193.1719 Q231.7344,194.4063 232.625,195.2344 Q233.5156,196.0469 235.1094,196.0469 Q236.0469,196.0469 236.7031,195.7969 Q237.0938,195.6406 237.5156,195.2031 Q237.7813,194.9375 237.9219,194.8594 Q238.0781,194.7813 238.2813,194.7813 Q238.6094,194.7813 238.8594,195.0469 Q239.125,195.2969 239.125,195.6406 Q239.125,195.9844 238.7813,196.3906 Q238.2813,196.9688 237.4844,197.2969 Q236.4063,197.75 235.1094,197.75 Q233.5938,197.75 232.3906,197.125 Q231.4063,196.625 230.7188,195.5625 Q230.0313,194.4844 230.0313,193.2031 L230.0313,192.0469 Q230.0313,190.7188 230.6406,189.5781 Q231.2656,188.4219 232.3594,187.8125 Q233.4531,187.1875 234.6875,187.1875 Q235.4219,187.1875 236.0625,187.3594 Q236.7188,187.5156 237.2656,187.875 Z " fill="#000000"/><text fill="#000000" font-family="sans-serif" font-size="14" lengthAdjust="spacing" textLength="101" x="248.5" y="197.7285">Easy_Computer</text><line style="stroke:#181818;stroke-width:0.5;" x1="220.5" x2="351.5" y1="208" y2="208"/><line style="stroke:#181818;stroke-width:1.0;" x1="220.5" x2="351.5" y1="216" y2="216"/><ellipse cx="230.5" cy="230.3047" fill="#84BE84" rx="3" ry="3" style="stroke:#038048;stroke-width:1.0;"/><text fill="#000000" font-family="sans-serif" font-size="14" lengthAdjust="spacing" textLength="82" x="239.5" y="234.5332">info() : String</text></g><!--MD5=[bf02152eca793422415339f459e53ee5]
class Fahrradcomputer--><g id="elem_Fahrradcomputer"><rect codeLine="2" fill="#F1F1F1" height="65.6094" id="Fahrradcomputer" rx="2.5" ry="2.5" style="stroke:#181818;stroke-width:0.5;" width="142" x="7" y="176"/><ellipse cx="22" cy="192" fill="#B4A7E5" rx="11" ry="11" style="stroke:#181818;stroke-width:1.0;"/><path d="M22.9531,188.6406 L22.9531,195.2969 L24.6719,195.2969 Q25.2813,195.2969 25.5469,195.5313 Q25.8125,195.7656 25.8125,196.1563 Q25.8125,196.5313 25.5469,196.7656 Q25.2813,197 24.6719,197 L19.5313,197 Q18.9219,197 18.6563,196.7656 Q18.3906,196.5313 18.3906,196.1406 Q18.3906,195.7656 18.6563,195.5313 Q18.9219,195.2969 19.5313,195.2969 L21.25,195.2969 L21.25,188.6406 L19.5313,188.6406 Q18.9219,188.6406 18.6563,188.4063 Q18.3906,188.1719 18.3906,187.7813 Q18.3906,187.4063 18.6563,187.1719 Q18.9219,186.9375 19.5313,186.9375 L24.6719,186.9375 Q25.2813,186.9375 25.5469,187.1719 Q25.8125,187.4063 25.8125,187.7813 Q25.8125,188.1719 25.5469,188.4063 Q25.2813,188.6406 24.6719,188.6406 L22.9531,188.6406 Z " fill="#000000"/><text fill="#000000" font-family="sans-serif" font-size="14" font-style="italic" lengthAdjust="spacing" textLength="110" x="36" y="197.7285">Fahrradcomputer</text><line style="stroke:#181818;stroke-width:0.5;" x1="8" x2="148" y1="208" y2="208"/><line style="stroke:#181818;stroke-width:1.0;" x1="8" x2="148" y1="216" y2="216"/><ellipse cx="18" cy="230.3047" fill="none" rx="3" ry="3" style="stroke:#038048;stroke-width:1.0;"/><text fill="#000000" font-family="sans-serif" font-size="14" lengthAdjust="spacing" textLength="72" x="27" y="234.5332">info : String</text></g><!--MD5=[21ac68160d714ad7405f7e218c52a318]
class Fahrradcomputerherrsteller--><g id="elem_Fahrradcomputerherrsteller"><rect codeLine="22" fill="#F1F1F1" height="83.2188" id="Fahrradcomputerherrsteller" rx="2.5" ry="2.5" style="stroke:#181818;stroke-width:0.5;" width="438" x="247" y="16"/><ellipse cx="374.75" cy="32" fill="#ADD1B2" rx="11" ry="11" style="stroke:#181818;stroke-width:1.0;"/><path d="M377.5156,27.875 Q377.6719,27.6563 377.8594,27.5469 Q378.0469,27.4375 378.2656,27.4375 Q378.6406,27.4375 378.875,27.7031 Q379.1094,27.9531 379.1094,28.5625 L379.1094,30.0156 Q379.1094,30.625 378.875,30.8906 Q378.6406,31.1563 378.2656,31.1563 Q377.9219,31.1563 377.7188,30.9531 Q377.5156,30.7656 377.4063,30.25 Q377.3594,29.8906 377.1719,29.7031 Q376.8438,29.3281 376.2344,29.1094 Q375.625,28.8906 375,28.8906 Q374.2344,28.8906 373.5938,29.2188 Q372.9688,29.5469 372.4688,30.2969 Q371.9844,31.0469 371.9844,32.0781 L371.9844,33.1719 Q371.9844,34.4063 372.875,35.2344 Q373.7656,36.0469 375.3594,36.0469 Q376.2969,36.0469 376.9531,35.7969 Q377.3438,35.6406 377.7656,35.2031 Q378.0313,34.9375 378.1719,34.8594 Q378.3281,34.7813 378.5313,34.7813 Q378.8594,34.7813 379.1094,35.0469 Q379.375,35.2969 379.375,35.6406 Q379.375,35.9844 379.0313,36.3906 Q378.5313,36.9688 377.7344,37.2969 Q376.6563,37.75 375.3594,37.75 Q373.8438,37.75 372.6406,37.125 Q371.6563,36.625 370.9688,35.5625 Q370.2813,34.4844 370.2813,33.2031 L370.2813,32.0469 Q370.2813,30.7188 370.8906,29.5781 Q371.5156,28.4219 372.6094,27.8125 Q373.7031,27.1875 374.9375,27.1875 Q375.6719,27.1875 376.3125,27.3594 Q376.9688,27.5156 377.5156,27.875 Z " fill="#000000"/><text fill="#000000" font-family="sans-serif" font-size="14" lengthAdjust="spacing" textLength="174" x="395.25" y="37.7285">Fahrradcomputerherrsteller</text><line style="stroke:#181818;stroke-width:0.5;" x1="248" x2="684" y1="48" y2="48"/><line style="stroke:#181818;stroke-width:1.0;" x1="248" x2="684" y1="56" y2="56"/><text fill="#000000" font-family="sans-serif" font-size="14" lengthAdjust="spacing" textLength="49" x="267" y="74.5332">«static»</text><ellipse cx="258" cy="87.9141" fill="#84BE84" rx="3" ry="3" style="stroke:#038048;stroke-width:1.0;"/><text fill="#000000" font-family="sans-serif" font-size="14" lengthAdjust="spacing" textLength="412" x="267" y="92.1426">produziertComputer(Eigenschaft: eigenschaft) : Fahrradcomputer</text></g><!--MD5=[fbc68a3cb6ffbb775cc58e8ae2201cde]
class Eigenschaft--><g id="elem_Eigenschaft"><rect codeLine="28" fill="#F1F1F1" height="100.8281" id="Eigenschaft" rx="2.5" ry="2.5" style="stroke:#181818;stroke-width:0.5;" width="106" x="106" y="7"/><ellipse cx="121" cy="23" fill="#EB937F" rx="11" ry="11" style="stroke:#181818;stroke-width:1.0;"/><path d="M119.8594,23.7969 L119.8594,26.2969 L124.1875,26.2969 L124.1875,25.375 Q124.1875,24.7656 124.4219,24.5 Q124.6719,24.2344 125.0469,24.2344 Q125.4219,24.2344 125.6563,24.5 Q125.8906,24.7656 125.8906,25.375 L125.8906,28 L117.8906,28 Q117.2656,28 117,27.7656 Q116.75,27.5313 116.75,27.1406 Q116.75,26.7656 117.0156,26.5313 Q117.2813,26.2969 117.8906,26.2969 L118.1563,26.2969 L118.1563,19.6406 L117.8906,19.6406 Q117.2656,19.6406 117,19.4063 Q116.75,19.1719 116.75,18.7813 Q116.75,18.4063 117,18.1719 Q117.2656,17.9375 117.8906,17.9375 L125.5156,17.9375 L125.5156,20.5313 Q125.5156,21.1406 125.2813,21.4063 Q125.0625,21.6563 124.6719,21.6563 Q124.2969,21.6563 124.0625,21.4063 Q123.8281,21.1406 123.8281,20.5313 L123.8281,19.6406 L119.8594,19.6406 L119.8594,22.0938 L121.3438,22.0938 Q121.3438,21.4375 121.4688,21.25 Q121.7344,20.8438 122.2031,20.8438 Q122.5781,20.8438 122.8125,21.1094 Q123.0469,21.3594 123.0469,21.9688 L123.0469,23.9375 Q123.0469,24.4844 122.9219,24.6719 Q122.6563,25.0625 122.2031,25.0625 Q121.7344,25.0625 121.4688,24.6563 Q121.3438,24.4688 121.3438,23.7969 L119.8594,23.7969 Z " fill="#000000"/><text fill="#000000" font-family="sans-serif" font-size="14" lengthAdjust="spacing" textLength="74" x="135" y="28.7285">Eigenschaft</text><line style="stroke:#181818;stroke-width:0.5;" x1="107" x2="211" y1="39" y2="39"/><text fill="#000000" font-family="sans-serif" font-size="14" lengthAdjust="spacing" textLength="29" x="112" y="57.5332">GPS</text><text fill="#000000" font-family="sans-serif" font-size="14" lengthAdjust="spacing" textLength="72" x="112" y="75.1426">KABELLOS</text><text fill="#000000" font-family="sans-serif" font-size="14" lengthAdjust="spacing" textLength="58" x="112" y="92.752">EINFACH</text><line style="stroke:#181818;stroke-width:0.5;" x1="107" x2="211" y1="99.8281" y2="99.8281"/></g><!--MD5=[0e974f76e99f2cd9f42e10397da8fab6]
link Fahrradcomputer to varianten_Fahrradcomputer--><g id="link_Fahrradcomputer_varianten_Fahrradcomputer"><path codeLine="35" d="M149.22,209 C154.925,209 160.63,209 166.3363,209 C169.1894,209 172.0428,209 174.8967,209 C175.2535,209 175.6102,209 175.967,209 " fill="none" id="Fahrradcomputer-varianten_Fahrradcomputer" style="stroke:#181818;stroke-width:1.0;stroke-dasharray:7.0,7.0;"/></g><!--MD5=[1164263372626375fe57a782f9294fb4]
link Eigenschaft to Fahrradcomputerherrsteller--><g id="link_Eigenschaft_Fahrradcomputerherrsteller"><path codeLine="36" d="M212.07,57.5 C223.64,57.5 235.21,57.5 246.78,57.5 " fill="none" id="Eigenschaft-Fahrradcomputerherrsteller" style="stroke:#181818;stroke-width:1.0;stroke-dasharray:7.0,7.0;"/></g><!--MD5=[06342c707f930b5a04ccbc8414f06240]
link Fahrradcomputerherrsteller to GPS_Computer--><g id="link_Fahrradcomputerherrsteller_GPS_Computer"><path codeLine="38" d="M539.13,99.13 C547.08,104.47 554.87,110.14 562,116 C583.6,133.76 604.67,157.21 620.17,175.99 " fill="none" id="Fahrradcomputerherrsteller-GPS_Computer" style="stroke:#181818;stroke-width:1.0;"/></g><!--MD5=[ecd907b4b45037d16e2ed43250b072b8]
link Fahrradcomputerherrsteller to Kabellos_Computer--><g id="link_Fahrradcomputerherrsteller_Kabellos_Computer"><path codeLine="39" d="M466,99.35 C466,123.39 466,153.35 466,175.72 " fill="none" id="Fahrradcomputerherrsteller-Kabellos_Computer" style="stroke:#181818;stroke-width:1.0;"/></g><!--MD5=[fb985df27719edd05a74d716299b940a]
link Fahrradcomputerherrsteller to Easy_Computer--><g id="link_Fahrradcomputerherrsteller_Easy_Computer"><path codeLine="40" d="M393.96,99.1 C385.99,104.47 378.17,110.15 371,116 C349.27,133.74 327.86,156.96 311.96,175.64 " fill="none" id="Fahrradcomputerherrsteller-Easy_Computer" style="stroke:#181818;stroke-width:1.0;"/></g><!--MD5=[17f11cf080fe346f69a6c4f6e2520138]
@startuml

interface Fahrradcomputer {
    - -
    + info : String 
}
package varianten_Fahrradcomputer {
    class GPS_Computer {
    - -
    + info() : String 
}
class Kabellos_Computer {
    - -
    + info() : String 
}
class Easy_Computer {
    - -
    + info() : String 
}

}

class Fahrradcomputerherrsteller {
    - -
    <<static>>
    + produziertComputer(Eigenschaft: eigenschaft) : Fahrradcomputer
}

enum Eigenschaft {
    GPS
    KABELLOS
    EINFACH
}

'' Verbindungen
Fahrradcomputer . varianten_Fahrradcomputer
Eigenschaft . Fahrradcomputerherrsteller

Fahrradcomputerherrsteller - - GPS_Computer
Fahrradcomputerherrsteller - - Kabellos_Computer
Fahrradcomputerherrsteller - - Easy_Computer


@enduml

@startuml

interface Fahrradcomputer {
    - -
    + info : String 
}
package varianten_Fahrradcomputer {
    class GPS_Computer {
    - -
    + info() : String 
}
class Kabellos_Computer {
    - -
    + info() : String 
}
class Easy_Computer {
    - -
    + info() : String 
}

}

class Fahrradcomputerherrsteller {
    - -
    <<static>>
    + produziertComputer(Eigenschaft: eigenschaft) : Fahrradcomputer
}

enum Eigenschaft {
    GPS
    KABELLOS
    EINFACH
}

Fahrradcomputer . varianten_Fahrradcomputer
Eigenschaft . Fahrradcomputerherrsteller

Fahrradcomputerherrsteller - - GPS_Computer
Fahrradcomputerherrsteller - - Kabellos_Computer
Fahrradcomputerherrsteller - - Easy_Computer


@enduml

PlantUML version 1.2022.7(Mon Aug 22 19:01:30 CEST 2022)
(GPL source distribution)
Java Runtime: OpenJDK Runtime Environment
JVM: OpenJDK 64-Bit Server VM
Default Encoding: UTF-8
Language: de
Country: DE
--></g></svg>