<?xml version="1.0" encoding="UTF-8" standalone="no"?><svg xmlns="http://www.w3.org/2000/svg" xmlns:xlink="http://www.w3.org/1999/xlink" contentStyleType="text/css" height="982px" preserveAspectRatio="none" style="width:489px;height:982px;background:#FFFFFF;" version="1.1" viewBox="0 0 489 982" width="489px" zoomAndPan="magnify"><defs/><g><line style="stroke:none;stroke-width:1.5;" x1="121.5" x2="422.5" y1="10" y2="10"/><rect fill="#F1F1F1" height="35.0938" rx="12.5" ry="12.5" style="stroke:#181818;stroke-width:0.5;" width="221" x="11" y="31.5"/><text fill="#000000" font-family="sans-serif" font-size="12" lengthAdjust="spacing" textLength="198" x="24" y="53.957">Sensor überschreitet Schwellenwert</text><rect fill="#F1F1F1" height="35.0938" rx="12.5" ry="12.5" style="stroke:#181818;stroke-width:0.5;" width="79" x="260" y="31.5"/><text fill="#000000" font-family="sans-serif" font-size="12" lengthAdjust="spacing" textLength="56" x="273" y="53.957">Datenblatt</text><rect fill="#F1F1F1" height="35.0938" rx="12.5" ry="12.5" style="stroke:#181818;stroke-width:0.5;" width="111" x="367" y="31.5"/><text fill="#000000" font-family="sans-serif" font-size="12" lengthAdjust="spacing" textLength="88" x="380" y="53.957">to_Sensordaten</text><line style="stroke:#181818;stroke-width:1.5;" x1="121.5" x2="422.5" y1="86.5938" y2="86.5938"/><rect fill="#F1F1F1" height="50.1875" rx="12.5" ry="12.5" style="stroke:#181818;stroke-width:0.5;" width="131" x="179" y="106.5938"/><text fill="#000000" font-family="sans-serif" font-size="12" lengthAdjust="spacing" textLength="53" x="192" y="129.0508">Prüfen ob</text><text fill="#000000" font-family="sans-serif" font-size="12" lengthAdjust="spacing" textLength="111" x="189" y="144.1445">Wartungsfall vorliegt</text><polygon fill="#F1F1F1" points="214,176.7813,275,176.7813,287,188.7813,275,200.7813,214,200.7813,202,188.7813,214,176.7813" style="stroke:#181818;stroke-width:0.5;"/><text fill="#000000" font-family="sans-serif" font-size="11" lengthAdjust="spacing" textLength="61" x="214" y="193.2822">Wartungsfall</text><text fill="#000000" font-family="sans-serif" font-size="11" lengthAdjust="spacing" textLength="21" x="181" y="186.3643">Nein</text><text fill="#000000" font-family="sans-serif" font-size="11" lengthAdjust="spacing" textLength="11" x="287" y="186.3643">Ja</text><polygon fill="#F1F1F1" points="125,210.7813,169,210.7813,179,228.3281,169,245.875,125,245.875" style="stroke:#181818;stroke-width:0.5;"/><text fill="#000000" font-family="sans-serif" font-size="12" lengthAdjust="spacing" textLength="21" x="138" y="233.2383">leer</text><line style="stroke:#181818;stroke-width:1.5;" x1="233.5" x2="450.5" y1="210.7813" y2="210.7813"/><polygon fill="#F1F1F1" points="213,232.2813,254,232.2813,264,249.8281,254,267.375,213,267.375" style="stroke:#181818;stroke-width:0.5;"/><text fill="#000000" font-family="sans-serif" font-size="12" lengthAdjust="spacing" textLength="21" x="223" y="254.7383">leer</text><rect fill="#F1F1F1" height="35.0938" style="stroke:#181818;stroke-width:0.5;" width="41" x="292" y="232.2813"/><line style="stroke:#181818;stroke-width:0.5;" x1="297" x2="297" y1="232.2813" y2="267.375"/><line style="stroke:#181818;stroke-width:0.5;" x1="328" x2="328" y1="232.2813" y2="267.375"/><text fill="#000000" font-family="sans-serif" font-size="12" lengthAdjust="spacing" textLength="21" x="302" y="254.7383">leer</text><rect fill="#F1F1F1" height="35.0938" style="stroke:#181818;stroke-width:0.5;" width="41" x="361" y="232.2813"/><line style="stroke:#181818;stroke-width:0.5;" x1="366" x2="366" y1="232.2813" y2="267.375"/><line style="stroke:#181818;stroke-width:0.5;" x1="397" x2="397" y1="232.2813" y2="267.375"/><text fill="#000000" font-family="sans-serif" font-size="12" lengthAdjust="spacing" textLength="21" x="371" y="254.7383">leer</text><rect fill="#F1F1F1" height="35.0938" style="stroke:#181818;stroke-width:0.5;" width="41" x="430" y="232.2813"/><line style="stroke:#181818;stroke-width:0.5;" x1="435" x2="435" y1="232.2813" y2="267.375"/><line style="stroke:#181818;stroke-width:0.5;" x1="466" x2="466" y1="232.2813" y2="267.375"/><text fill="#000000" font-family="sans-serif" font-size="12" lengthAdjust="spacing" textLength="21" x="440" y="254.7383">leer</text><line style="stroke:#181818;stroke-width:1.5;" x1="233.5" x2="450.5" y1="287.375" y2="287.375"/><rect fill="#F1F1F1" height="50.1875" rx="12.5" ry="12.5" style="stroke:#181818;stroke-width:0.5;" width="44" x="320" y="307.375"/><text fill="#000000" font-family="sans-serif" font-size="12" lengthAdjust="spacing" textLength="21" x="333" y="329.832">leer</text><text fill="#000000" font-family="sans-serif" font-size="12" lengthAdjust="spacing" textLength="3" x="330" y="344.9258"> </text><polygon fill="#F1F1F1" points="263.5,377.5625,298.5,377.5625,310.5,389.5625,298.5,401.5625,263.5,401.5625,251.5,389.5625,263.5,377.5625" style="stroke:#181818;stroke-width:0.5;"/><text fill="#000000" font-family="sans-serif" font-size="11" lengthAdjust="spacing" textLength="35" x="263.5" y="394.0635">) then (</text><rect fill="#F1F1F1" height="35.0938" rx="12.5" ry="12.5" style="stroke:#181818;stroke-width:0.5;" width="44" x="259" y="421.5625"/><text fill="#000000" font-family="sans-serif" font-size="12" lengthAdjust="spacing" textLength="21" x="272" y="444.0195">leer</text><polygon fill="#F1F1F1" points="351,377.5625,351,377.5625,363,389.5625,351,401.5625,351,401.5625,339,389.5625,351,377.5625" style="stroke:#181818;stroke-width:0.5;"/><text fill="#000000" font-family="sans-serif" font-size="11" lengthAdjust="spacing" textLength="3" x="355" y="412.9814"> </text><text fill="#000000" font-family="sans-serif" font-size="11" lengthAdjust="spacing" textLength="3" x="363" y="387.1455"> </text><rect fill="#F1F1F1" height="35.0938" rx="12.5" ry="12.5" style="stroke:#181818;stroke-width:0.5;" width="41" x="330.5" y="435.3984"/><text fill="#000000" font-family="sans-serif" font-size="12" lengthAdjust="spacing" textLength="21" x="340.5" y="457.8555">leer</text><rect fill="#F1F1F1" height="35.0938" rx="12.5" ry="12.5" style="stroke:#181818;stroke-width:0.5;" width="41" x="391.5" y="431.4805"/><text fill="#000000" font-family="sans-serif" font-size="12" lengthAdjust="spacing" textLength="21" x="401.5" y="453.9375">leer</text><line style="stroke:#181818;stroke-width:1.5;" x1="233.5" x2="450.5" y1="510.4922" y2="510.4922"/><polygon fill="#F1F1F1" points="213,530.4922,254,530.4922,264,548.0391,254,565.5859,213,565.5859" style="stroke:#181818;stroke-width:0.5;"/><text fill="#000000" font-family="sans-serif" font-size="12" lengthAdjust="spacing" textLength="21" x="223" y="552.9492">leer</text><rect fill="#F1F1F1" height="35.0938" style="stroke:#181818;stroke-width:0.5;" width="41" x="292" y="530.4922"/><line style="stroke:#181818;stroke-width:0.5;" x1="297" x2="297" y1="530.4922" y2="565.5859"/><line style="stroke:#181818;stroke-width:0.5;" x1="328" x2="328" y1="530.4922" y2="565.5859"/><text fill="#000000" font-family="sans-serif" font-size="12" lengthAdjust="spacing" textLength="21" x="302" y="552.9492">leer</text><rect fill="#F1F1F1" height="35.0938" style="stroke:#181818;stroke-width:0.5;" width="41" x="361" y="530.4922"/><line style="stroke:#181818;stroke-width:0.5;" x1="366" x2="366" y1="530.4922" y2="565.5859"/><line style="stroke:#181818;stroke-width:0.5;" x1="397" x2="397" y1="530.4922" y2="565.5859"/><text fill="#000000" font-family="sans-serif" font-size="12" lengthAdjust="spacing" textLength="21" x="371" y="552.9492">leer</text><rect fill="#F1F1F1" height="35.0938" style="stroke:#181818;stroke-width:0.5;" width="41" x="430" y="530.4922"/><line style="stroke:#181818;stroke-width:0.5;" x1="435" x2="435" y1="530.4922" y2="565.5859"/><line style="stroke:#181818;stroke-width:0.5;" x1="466" x2="466" y1="530.4922" y2="565.5859"/><text fill="#000000" font-family="sans-serif" font-size="12" lengthAdjust="spacing" textLength="21" x="440" y="552.9492">leer</text><line style="stroke:#181818;stroke-width:1.5;" x1="233.5" x2="450.5" y1="585.5859" y2="585.5859"/><rect fill="#F1F1F1" height="50.1875" rx="12.5" ry="12.5" style="stroke:#181818;stroke-width:0.5;" width="41" x="321.5" y="605.5859"/><text fill="#000000" font-family="sans-serif" font-size="12" lengthAdjust="spacing" textLength="21" x="331.5" y="628.043">leer</text><text fill="#000000" font-family="sans-serif" font-size="12" lengthAdjust="spacing" textLength="3" x="331.5" y="643.1367"> </text><polygon fill="#F1F1F1" points="330,675.7734,354,675.7734,366,687.7734,354,699.7734,330,699.7734,318,687.7734,330,675.7734" style="stroke:#181818;stroke-width:0.5;"/><text fill="#000000" font-family="sans-serif" font-size="11" lengthAdjust="spacing" textLength="18" x="333" y="692.2744">leer</text><text fill="#000000" font-family="sans-serif" font-size="11" lengthAdjust="spacing" textLength="18" x="300" y="685.3564">leer</text><rect fill="#F1F1F1" height="35.0938" rx="12.5" ry="12.5" style="stroke:#181818;stroke-width:0.5;" width="41" x="287.5" y="709.7734"/><text fill="#000000" font-family="sans-serif" font-size="12" lengthAdjust="spacing" textLength="21" x="297.5" y="732.2305">leer</text><rect fill="#F1F1F1" height="35.0938" rx="12.5" ry="12.5" style="stroke:#181818;stroke-width:0.5;" width="41" x="355.5" y="709.7734"/><text fill="#000000" font-family="sans-serif" font-size="12" lengthAdjust="spacing" textLength="21" x="365.5" y="732.2305">leer</text><polygon fill="#F1F1F1" points="342,750.8672,354,762.8672,342,774.8672,330,762.8672,342,750.8672" style="stroke:#181818;stroke-width:0.5;"/><rect fill="#F1F1F1" height="50.1875" rx="12.5" ry="12.5" style="stroke:#181818;stroke-width:0.5;" width="44" x="320" y="794.8672"/><text fill="#000000" font-family="sans-serif" font-size="12" lengthAdjust="spacing" textLength="21" x="333" y="817.3242">leer</text><text fill="#000000" font-family="sans-serif" font-size="12" lengthAdjust="spacing" textLength="3" x="330" y="832.418"> </text><polygon fill="#F1F1F1" points="244.5,851.0547,256.5,863.0547,244.5,875.0547,232.5,863.0547,244.5,851.0547" style="stroke:#181818;stroke-width:0.5;"/><line style="stroke:#181818;stroke-width:1.5;" x1="207" x2="280.5" y1="895.0547" y2="895.0547"/><rect fill="#F1F1F1" height="35.0938" rx="12.5" ry="12.5" style="stroke:#181818;stroke-width:0.5;" width="44" x="185" y="915.0547"/><text fill="#000000" font-family="sans-serif" font-size="12" lengthAdjust="spacing" textLength="21" x="198" y="937.5117">leer</text><rect fill="#F1F1F1" height="35.0938" style="stroke:#181818;stroke-width:0.5;" width="47" x="257" y="915.0547"/><line style="stroke:#181818;stroke-width:0.5;" x1="262" x2="262" y1="915.0547" y2="950.1484"/><line style="stroke:#181818;stroke-width:0.5;" x1="299" x2="299" y1="915.0547" y2="950.1484"/><text fill="#000000" font-family="sans-serif" font-size="12" lengthAdjust="spacing" textLength="21" x="270" y="937.5117">leer</text><line style="stroke:#181818;stroke-width:1.5;" x1="207" x2="280.5" y1="970.1484" y2="970.1484"/><line style="stroke:#181818;stroke-width:1.0;" x1="121.5" x2="121.5" y1="66.5938" y2="86.5938"/><polygon fill="#181818" points="117.5,76.5938,121.5,86.5938,125.5,76.5938,121.5,80.5938" style="stroke:#181818;stroke-width:1.0;"/><line style="stroke:#181818;stroke-width:1.0;" x1="299.5" x2="299.5" y1="66.5938" y2="86.5938"/><polygon fill="#181818" points="295.5,76.5938,299.5,86.5938,303.5,76.5938,299.5,80.5938" style="stroke:#181818;stroke-width:1.0;"/><line style="stroke:#181818;stroke-width:1.0;" x1="422.5" x2="422.5" y1="66.5938" y2="86.5938"/><polygon fill="#181818" points="418.5,76.5938,422.5,86.5938,426.5,76.5938,422.5,80.5938" style="stroke:#181818;stroke-width:1.0;"/><line style="stroke:#181818;stroke-width:1.0;" x1="244.5" x2="244.5" y1="88.0938" y2="106.5938"/><polygon fill="#181818" points="240.5,96.5938,244.5,106.5938,248.5,96.5938,244.5,100.5938" style="stroke:#181818;stroke-width:1.0;"/><line style="stroke:#181818;stroke-width:1.0;" x1="233.5" x2="233.5" y1="212.2813" y2="232.2813"/><polygon fill="#181818" points="229.5,222.2813,233.5,232.2813,237.5,222.2813,233.5,226.2813" style="stroke:#181818;stroke-width:1.0;"/><line style="stroke:#181818;stroke-width:1.0;" x1="233.5" x2="233.5" y1="267.375" y2="287.375"/><polygon fill="#181818" points="229.5,277.375,233.5,287.375,237.5,277.375,233.5,281.375" style="stroke:#181818;stroke-width:1.0;"/><line style="stroke:#181818;stroke-width:1.0;" x1="312.5" x2="312.5" y1="267.375" y2="287.375"/><polygon fill="#181818" points="308.5,277.375,312.5,287.375,316.5,277.375,312.5,281.375" style="stroke:#181818;stroke-width:1.0;"/><line style="stroke:#181818;stroke-width:1.0;" x1="381.5" x2="381.5" y1="267.375" y2="287.375"/><polygon fill="#181818" points="377.5,277.375,381.5,287.375,385.5,277.375,381.5,281.375" style="stroke:#181818;stroke-width:1.0;"/><line style="stroke:#181818;stroke-width:1.0;" x1="450.5" x2="450.5" y1="267.375" y2="287.375"/><polygon fill="#181818" points="446.5,277.375,450.5,287.375,454.5,277.375,450.5,281.375" style="stroke:#181818;stroke-width:1.0;"/><line style="stroke:#181818;stroke-width:1.0;" x1="342" x2="342" y1="288.875" y2="307.375"/><polygon fill="#181818" points="338,297.375,342,307.375,346,297.375,342,301.375" style="stroke:#181818;stroke-width:1.0;"/><line style="stroke:#181818;stroke-width:1.0;" x1="281" x2="281" y1="401.5625" y2="421.5625"/><polygon fill="#181818" points="277,411.5625,281,421.5625,285,411.5625,281,415.5625" style="stroke:#181818;stroke-width:1.0;"/><line style="stroke:#181818;stroke-width:1.0;" x1="281" x2="281" y1="456.6563" y2="490.4922"/><polygon fill="#181818" points="277,480.4922,281,490.4922,285,480.4922,281,484.4922" style="stroke:#181818;stroke-width:1.0;"/><line style="stroke:#181818;stroke-width:1.0;" x1="351" x2="351" y1="401.5625" y2="435.3984"/><polygon fill="#181818" points="347,425.3984,351,435.3984,355,425.3984,351,429.3984" style="stroke:#181818;stroke-width:1.0;"/><line style="stroke:#181818;stroke-width:1.0;" x1="351" x2="351" y1="470.4922" y2="490.4922"/><polygon fill="#181818" points="347,480.4922,351,490.4922,355,480.4922,351,484.4922" style="stroke:#181818;stroke-width:1.0;"/><line style="stroke:#181818;stroke-width:1.0;" x1="310.5" x2="339" y1="389.5625" y2="389.5625"/><polygon fill="#181818" points="329,385.5625,339,389.5625,329,393.5625,333,389.5625" style="stroke:#181818;stroke-width:1.0;"/><line style="stroke:#181818;stroke-width:1.0;" x1="342" x2="342" y1="357.5625" y2="362.5625"/><line style="stroke:#181818;stroke-width:1.0;" x1="342" x2="281" y1="362.5625" y2="362.5625"/><line style="stroke:#181818;stroke-width:1.0;" x1="281" x2="281" y1="362.5625" y2="377.5625"/><polygon fill="#181818" points="277,367.5625,281,377.5625,285,367.5625,281,371.5625" style="stroke:#181818;stroke-width:1.0;"/><line style="stroke:#181818;stroke-width:1.0;" x1="363" x2="412" y1="389.5625" y2="389.5625"/><line style="stroke:#181818;stroke-width:1.0;" x1="412" x2="412" y1="389.5625" y2="431.4805"/><polygon fill="#181818" points="408,421.4805,412,431.4805,416,421.4805,412,425.4805" style="stroke:#181818;stroke-width:1.0;"/><line style="stroke:#181818;stroke-width:1.0;" x1="412" x2="412" y1="466.5742" y2="490.4922"/><polygon fill="#181818" points="408,480.4922,412,490.4922,416,480.4922,412,484.4922" style="stroke:#181818;stroke-width:1.0;"/><line style="stroke:#181818;stroke-width:1.0;" x1="281" x2="412" y1="490.4922" y2="490.4922"/><line style="stroke:#181818;stroke-width:1.0;" x1="233.5" x2="233.5" y1="511.9922" y2="530.4922"/><polygon fill="#181818" points="229.5,520.4922,233.5,530.4922,237.5,520.4922,233.5,524.4922" style="stroke:#181818;stroke-width:1.0;"/><line style="stroke:#181818;stroke-width:1.0;" x1="233.5" x2="233.5" y1="565.5859" y2="585.5859"/><polygon fill="#181818" points="229.5,575.5859,233.5,585.5859,237.5,575.5859,233.5,579.5859" style="stroke:#181818;stroke-width:1.0;"/><line style="stroke:#181818;stroke-width:1.0;" x1="312.5" x2="312.5" y1="565.5859" y2="585.5859"/><polygon fill="#181818" points="308.5,575.5859,312.5,585.5859,316.5,575.5859,312.5,579.5859" style="stroke:#181818;stroke-width:1.0;"/><line style="stroke:#181818;stroke-width:1.0;" x1="381.5" x2="381.5" y1="565.5859" y2="585.5859"/><polygon fill="#181818" points="377.5,575.5859,381.5,585.5859,385.5,575.5859,381.5,579.5859" style="stroke:#181818;stroke-width:1.0;"/><line style="stroke:#181818;stroke-width:1.0;" x1="450.5" x2="450.5" y1="565.5859" y2="585.5859"/><polygon fill="#181818" points="446.5,575.5859,450.5,585.5859,454.5,575.5859,450.5,579.5859" style="stroke:#181818;stroke-width:1.0;"/><line style="stroke:#181818;stroke-width:1.0;" x1="342" x2="342" y1="490.4922" y2="510.4922"/><polygon fill="#181818" points="338,500.4922,342,510.4922,346,500.4922,342,504.4922" style="stroke:#181818;stroke-width:1.0;"/><line style="stroke:#181818;stroke-width:1.0;" x1="342" x2="342" y1="587.0859" y2="605.5859"/><polygon fill="#181818" points="338,595.5859,342,605.5859,346,595.5859,342,599.5859" style="stroke:#181818;stroke-width:1.0;"/><line style="stroke:#181818;stroke-width:1.0;" x1="318" x2="308" y1="687.7734" y2="687.7734"/><line style="stroke:#181818;stroke-width:1.0;" x1="308" x2="308" y1="687.7734" y2="709.7734"/><polygon fill="#181818" points="304,699.7734,308,709.7734,312,699.7734,308,703.7734" style="stroke:#181818;stroke-width:1.0;"/><line style="stroke:#181818;stroke-width:1.0;" x1="366" x2="376" y1="687.7734" y2="687.7734"/><line style="stroke:#181818;stroke-width:1.0;" x1="376" x2="376" y1="687.7734" y2="709.7734"/><polygon fill="#181818" points="372,699.7734,376,709.7734,380,699.7734,376,703.7734" style="stroke:#181818;stroke-width:1.0;"/><line style="stroke:#181818;stroke-width:1.0;" x1="308" x2="308" y1="744.8672" y2="762.8672"/><line style="stroke:#181818;stroke-width:1.0;" x1="308" x2="330" y1="762.8672" y2="762.8672"/><polygon fill="#181818" points="320,758.8672,330,762.8672,320,766.8672,324,762.8672" style="stroke:#181818;stroke-width:1.0;"/><line style="stroke:#181818;stroke-width:1.0;" x1="376" x2="376" y1="744.8672" y2="762.8672"/><line style="stroke:#181818;stroke-width:1.0;" x1="376" x2="354" y1="762.8672" y2="762.8672"/><polygon fill="#181818" points="364,758.8672,354,762.8672,364,766.8672,360,762.8672" style="stroke:#181818;stroke-width:1.0;"/><line style="stroke:#181818;stroke-width:1.0;" x1="342" x2="342" y1="655.7734" y2="675.7734"/><polygon fill="#181818" points="338,665.7734,342,675.7734,346,665.7734,342,669.7734" style="stroke:#181818;stroke-width:1.0;"/><line style="stroke:#181818;stroke-width:1.0;" x1="342" x2="342" y1="774.8672" y2="794.8672"/><polygon fill="#181818" points="338,784.8672,342,794.8672,346,784.8672,342,788.8672" style="stroke:#181818;stroke-width:1.0;"/><line style="stroke:#181818;stroke-width:1.0;" x1="202" x2="147" y1="188.7813" y2="188.7813"/><line style="stroke:#181818;stroke-width:1.0;" x1="147" x2="147" y1="188.7813" y2="210.7813"/><polygon fill="#181818" points="143,200.7813,147,210.7813,151,200.7813,147,204.7813" style="stroke:#181818;stroke-width:1.0;"/><line style="stroke:#181818;stroke-width:1.0;" x1="287" x2="342" y1="188.7813" y2="188.7813"/><line style="stroke:#181818;stroke-width:1.0;" x1="342" x2="342" y1="188.7813" y2="210.7813"/><polygon fill="#181818" points="338,200.7813,342,210.7813,346,200.7813,342,204.7813" style="stroke:#181818;stroke-width:1.0;"/><line style="stroke:#181818;stroke-width:1.0;" x1="147" x2="147" y1="245.875" y2="863.0547"/><line style="stroke:#181818;stroke-width:1.0;" x1="147" x2="232.5" y1="863.0547" y2="863.0547"/><polygon fill="#181818" points="222.5,859.0547,232.5,863.0547,222.5,867.0547,226.5,863.0547" style="stroke:#181818;stroke-width:1.0;"/><line style="stroke:#181818;stroke-width:1.0;" x1="342" x2="342" y1="845.0547" y2="863.0547"/><line style="stroke:#181818;stroke-width:1.0;" x1="342" x2="256.5" y1="863.0547" y2="863.0547"/><polygon fill="#181818" points="266.5,859.0547,256.5,863.0547,266.5,867.0547,262.5,863.0547" style="stroke:#181818;stroke-width:1.0;"/><line style="stroke:#181818;stroke-width:1.0;" x1="244.5" x2="244.5" y1="156.7813" y2="176.7813"/><polygon fill="#181818" points="240.5,166.7813,244.5,176.7813,248.5,166.7813,244.5,170.7813" style="stroke:#181818;stroke-width:1.0;"/><line style="stroke:#181818;stroke-width:1.0;" x1="207" x2="207" y1="896.5547" y2="915.0547"/><polygon fill="#181818" points="203,905.0547,207,915.0547,211,905.0547,207,909.0547" style="stroke:#181818;stroke-width:1.0;"/><line style="stroke:#181818;stroke-width:1.0;" x1="280.5" x2="280.5" y1="896.5547" y2="915.0547"/><polygon fill="#181818" points="276.5,905.0547,280.5,915.0547,284.5,905.0547,280.5,909.0547" style="stroke:#181818;stroke-width:1.0;"/><line style="stroke:#181818;stroke-width:1.0;" x1="244.5" x2="244.5" y1="875.0547" y2="895.0547"/><polygon fill="#181818" points="240.5,885.0547,244.5,895.0547,248.5,885.0547,244.5,889.0547" style="stroke:#181818;stroke-width:1.0;"/><!--MD5=[6cb4e599a802fdc40c2d1108e0509c8c]
@startuml name Service 
split 
    -[hidden]->
    : Sensor überschreitet Schwellenwert;
split again
    -[hidden]->
    : Datenblatt;
split again 
    -[hidden]->
    : to_Sensordaten;
end split
' Kasten eins
: Prüfen ob 
Wartungsfall vorliegt;
if (Wartungsfall) then (Nein)
: leer>
else (Ja)
split 
:leer>
split again
    -[hidden]->
    :leer|
split again
    -[hidden]->
    :leer|
split again
-[hidden]->
    :leer|
end split
' Kasten zwei 
: leer
;
if () then ()
: leer;
elseif () then ()
:leer;
else ()
:leer;
endif
split 
:leer>
split again
    -[hidden]->
    :leer|
split again
    -[hidden]->
    :leer|
split again
-[hidden]->
    :leer|
end split
' Kasten drei 
:leer
;
if (leer) then (leer)
:leer;
else
:leer;
endif
' letzter Kasten vier
: leer
;
endif
split
    : leer;
    -[hidden]->
split again
    : leer |
    -[hidden]->   
end split 

@enduml

@startuml name Service 
split 
    -[hidden]->
    : Sensor überschreitet Schwellenwert;
split again
    -[hidden]->
    : Datenblatt;
split again 
    -[hidden]->
    : to_Sensordaten;
end split
: Prüfen ob 
Wartungsfall vorliegt;
if (Wartungsfall) then (Nein)
: leer>
else (Ja)
split 
:leer>
split again
    -[hidden]->
    :leer|
split again
    -[hidden]->
    :leer|
split again
-[hidden]->
    :leer|
end split
: leer
;
if () then ()
: leer;
elseif () then ()
:leer;
else ()
:leer;
endif
split 
:leer>
split again
    -[hidden]->
    :leer|
split again
    -[hidden]->
    :leer|
split again
-[hidden]->
    :leer|
end split
:leer
;
if (leer) then (leer)
:leer;
else
:leer;
endif
: leer
;
endif
split
    : leer;
    -[hidden]->
split again
    : leer |
    -[hidden]->   
end split 

@enduml

PlantUML version 1.2022.7(Mon Aug 22 19:01:30 CEST 2022)
(GPL source distribution)
Java Runtime: OpenJDK Runtime Environment
JVM: OpenJDK 64-Bit Server VM
Default Encoding: Cp1252
Language: de
Country: DE
--></g></svg>