<?xml version="1.0" encoding="UTF-8" standalone="no"?><svg xmlns="http://www.w3.org/2000/svg" xmlns:xlink="http://www.w3.org/1999/xlink" contentStyleType="text/css" height="1035px" preserveAspectRatio="none" style="width:615px;height:1035px;background:#FFFFFF;" version="1.1" viewBox="0 0 615 1035" width="615px" zoomAndPan="magnify"><defs/><g><line style="stroke:none;stroke-width:1.5;" x1="130.5" x2="441.5" y1="10" y2="10"/><polygon fill="#F1F1F1" points="20,31.5,241,31.5,251,49.0469,241,66.5938,20,66.5938" style="stroke:#181818;stroke-width:0.5;"/><text fill="#000000" font-family="sans-serif" font-size="12" lengthAdjust="spacing" textLength="198" x="33" y="53.957">Sensor überschreitet Schwellenwert</text><rect fill="#F1F1F1" height="35.0938" rx="12.5" ry="12.5" style="stroke:#181818;stroke-width:0.5;" width="79" x="279" y="31.5"/><text fill="#000000" font-family="sans-serif" font-size="12" lengthAdjust="spacing" textLength="56" x="292" y="53.957">Datenblatt</text><rect fill="#F1F1F1" height="35.0938" rx="12.5" ry="12.5" style="stroke:#181818;stroke-width:0.5;" width="111" x="386" y="31.5"/><text fill="#000000" font-family="sans-serif" font-size="12" lengthAdjust="spacing" textLength="88" x="399" y="53.957">to_Sensordaten</text><line style="stroke:#181818;stroke-width:1.5;" x1="130.5" x2="441.5" y1="86.5938" y2="86.5938"/><rect fill="#F1F1F1" height="50.1875" rx="12.5" ry="12.5" style="stroke:#181818;stroke-width:0.5;" width="131" x="193" y="106.5938"/><text fill="#000000" font-family="sans-serif" font-size="12" lengthAdjust="spacing" textLength="53" x="206" y="129.0508">Prüfen ob</text><text fill="#000000" font-family="sans-serif" font-size="12" lengthAdjust="spacing" textLength="111" x="203" y="144.1445">Wartungsfall vorliegt</text><polygon fill="#F1F1F1" points="246.5,176.7813,270.5,176.7813,282.5,188.7813,270.5,200.7813,246.5,200.7813,234.5,188.7813,246.5,176.7813" style="stroke:#181818;stroke-width:0.5;"/><text fill="#000000" font-family="sans-serif" font-size="11" lengthAdjust="spacing" textLength="22" x="247.5" y="193.2822">XOR</text><text fill="#000000" font-family="sans-serif" font-size="11" lengthAdjust="spacing" textLength="21" x="213.5" y="186.3643">Nein</text><text fill="#000000" font-family="sans-serif" font-size="11" lengthAdjust="spacing" textLength="11" x="282.5" y="186.3643">Ja</text><polygon fill="#F1F1F1" points="72,210.7813,164,210.7813,174,228.3281,164,245.875,72,245.875" style="stroke:#181818;stroke-width:0.5;"/><text fill="#000000" font-family="sans-serif" font-size="12" lengthAdjust="spacing" textLength="69" x="85" y="233.2383">Wartungsfall</text><polygon fill="#F1F1F1" points="340,210.7813,458,210.7813,468,228.3281,458,245.875,340,245.875" style="stroke:#181818;stroke-width:0.5;"/><text fill="#000000" font-family="sans-serif" font-size="12" lengthAdjust="spacing" textLength="95" x="353" y="233.2383">kein Wartungsfall</text><line style="stroke:#181818;stroke-width:1.5;" x1="290.5" x2="539" y1="265.875" y2="265.875"/><polygon fill="#F1F1F1" points="238.5,285.875,342.5,285.875,352.5,303.4219,342.5,320.9688,238.5,320.9688" style="stroke:#181818;stroke-width:0.5;"/><text fill="#000000" font-family="sans-serif" font-size="12" lengthAdjust="spacing" textLength="84" x="248.5" y="308.332">Mitarbeiter prüft</text><rect fill="#F1F1F1" height="35.0938" style="stroke:#181818;stroke-width:0.5;" width="41" x="380.5" y="285.875"/><line style="stroke:#181818;stroke-width:0.5;" x1="385.5" x2="385.5" y1="285.875" y2="320.9688"/><line style="stroke:#181818;stroke-width:0.5;" x1="416.5" x2="416.5" y1="285.875" y2="320.9688"/><text fill="#000000" font-family="sans-serif" font-size="12" lengthAdjust="spacing" textLength="21" x="390.5" y="308.332">leer</text><rect fill="#F1F1F1" height="35.0938" style="stroke:#181818;stroke-width:0.5;" width="41" x="449.5" y="285.875"/><line style="stroke:#181818;stroke-width:0.5;" x1="454.5" x2="454.5" y1="285.875" y2="320.9688"/><line style="stroke:#181818;stroke-width:0.5;" x1="485.5" x2="485.5" y1="285.875" y2="320.9688"/><text fill="#000000" font-family="sans-serif" font-size="12" lengthAdjust="spacing" textLength="21" x="459.5" y="308.332">leer</text><rect fill="#F1F1F1" height="35.0938" style="stroke:#181818;stroke-width:0.5;" width="41" x="518.5" y="285.875"/><line style="stroke:#181818;stroke-width:0.5;" x1="523.5" x2="523.5" y1="285.875" y2="320.9688"/><line style="stroke:#181818;stroke-width:0.5;" x1="554.5" x2="554.5" y1="285.875" y2="320.9688"/><text fill="#000000" font-family="sans-serif" font-size="12" lengthAdjust="spacing" textLength="21" x="528.5" y="308.332">leer</text><line style="stroke:#181818;stroke-width:1.5;" x1="290.5" x2="539" y1="340.9688" y2="340.9688"/><rect fill="#F1F1F1" height="50.1875" rx="12.5" ry="12.5" style="stroke:#181818;stroke-width:0.5;" width="91" x="353.5" y="360.9688"/><text fill="#000000" font-family="sans-serif" font-size="12" lengthAdjust="spacing" textLength="68" x="366.5" y="383.4258">Dringlichkeit</text><text fill="#000000" font-family="sans-serif" font-size="12" lengthAdjust="spacing" textLength="51" x="375.5" y="398.5195">bewerten</text><polygon fill="#F1F1F1" points="233,431.1563,268,431.1563,280,443.1563,268,455.1563,233,455.1563,221,443.1563,233,431.1563" style="stroke:#181818;stroke-width:0.5;"/><text fill="#000000" font-family="sans-serif" font-size="11" lengthAdjust="spacing" textLength="35" x="233" y="447.6572">) then (</text><rect fill="#F1F1F1" height="35.0938" rx="12.5" ry="12.5" style="stroke:#181818;stroke-width:0.5;" width="113" x="194" y="475.1563"/><text fill="#000000" font-family="sans-serif" font-size="12" lengthAdjust="spacing" textLength="90" x="207" y="497.6133">hohe driglichkeit</text><polygon fill="#F1F1F1" points="394.5,431.1563,394.5,431.1563,406.5,443.1563,394.5,455.1563,394.5,455.1563,382.5,443.1563,394.5,431.1563" style="stroke:#181818;stroke-width:0.5;"/><text fill="#000000" font-family="sans-serif" font-size="11" lengthAdjust="spacing" textLength="3" x="398.5" y="466.5752"> </text><text fill="#000000" font-family="sans-serif" font-size="11" lengthAdjust="spacing" textLength="3" x="406.5" y="440.7393"> </text><rect fill="#F1F1F1" height="35.0938" rx="12.5" ry="12.5" style="stroke:#181818;stroke-width:0.5;" width="135" x="327" y="488.9922"/><text fill="#000000" font-family="sans-serif" font-size="12" lengthAdjust="spacing" textLength="112" x="340" y="511.4492">mittlere Dringlichkeit</text><rect fill="#F1F1F1" height="35.0938" rx="12.5" ry="12.5" style="stroke:#181818;stroke-width:0.5;" width="122" x="482" y="485.0742"/><text fill="#000000" font-family="sans-serif" font-size="12" lengthAdjust="spacing" textLength="99" x="495" y="507.5313">hohe Dringlichkeit</text><line style="stroke:#181818;stroke-width:1.5;" x1="289" x2="507.5" y1="564.0859" y2="564.0859"/><polygon fill="#F1F1F1" points="268.5,584.0859,309.5,584.0859,319.5,601.6328,309.5,619.1797,268.5,619.1797" style="stroke:#181818;stroke-width:0.5;"/><text fill="#000000" font-family="sans-serif" font-size="12" lengthAdjust="spacing" textLength="21" x="278.5" y="606.543">leer</text><rect fill="#F1F1F1" height="35.0938" style="stroke:#181818;stroke-width:0.5;" width="41" x="347.5" y="584.0859"/><line style="stroke:#181818;stroke-width:0.5;" x1="352.5" x2="352.5" y1="584.0859" y2="619.1797"/><line style="stroke:#181818;stroke-width:0.5;" x1="383.5" x2="383.5" y1="584.0859" y2="619.1797"/><text fill="#000000" font-family="sans-serif" font-size="12" lengthAdjust="spacing" textLength="21" x="357.5" y="606.543">leer</text><rect fill="#F1F1F1" height="35.0938" style="stroke:#181818;stroke-width:0.5;" width="41" x="416.5" y="584.0859"/><line style="stroke:#181818;stroke-width:0.5;" x1="421.5" x2="421.5" y1="584.0859" y2="619.1797"/><line style="stroke:#181818;stroke-width:0.5;" x1="452.5" x2="452.5" y1="584.0859" y2="619.1797"/><text fill="#000000" font-family="sans-serif" font-size="12" lengthAdjust="spacing" textLength="21" x="426.5" y="606.543">leer</text><rect fill="#F1F1F1" height="35.0938" rx="12.5" ry="12.5" style="stroke:#181818;stroke-width:0.5;" width="44" x="485.5" y="584.0859"/><text fill="#000000" font-family="sans-serif" font-size="12" lengthAdjust="spacing" textLength="21" x="498.5" y="606.543">leer</text><line style="stroke:#181818;stroke-width:1.5;" x1="289" x2="507.5" y1="639.1797" y2="639.1797"/><rect fill="#F1F1F1" height="50.1875" rx="12.5" ry="12.5" style="stroke:#181818;stroke-width:0.5;" width="44" x="377" y="659.1797"/><text fill="#000000" font-family="sans-serif" font-size="12" lengthAdjust="spacing" textLength="21" x="390" y="681.6367">leer</text><text fill="#000000" font-family="sans-serif" font-size="12" lengthAdjust="spacing" textLength="3" x="387" y="696.7305"> </text><polygon fill="#F1F1F1" points="387,729.3672,411,729.3672,423,741.3672,411,753.3672,387,753.3672,375,741.3672,387,729.3672" style="stroke:#181818;stroke-width:0.5;"/><text fill="#000000" font-family="sans-serif" font-size="11" lengthAdjust="spacing" textLength="18" x="390" y="745.8682">leer</text><text fill="#000000" font-family="sans-serif" font-size="11" lengthAdjust="spacing" textLength="18" x="357" y="738.9502">leer</text><rect fill="#F1F1F1" height="35.0938" rx="12.5" ry="12.5" style="stroke:#181818;stroke-width:0.5;" width="41" x="344.5" y="763.3672"/><text fill="#000000" font-family="sans-serif" font-size="12" lengthAdjust="spacing" textLength="21" x="354.5" y="785.8242">leer</text><rect fill="#F1F1F1" height="35.0938" rx="12.5" ry="12.5" style="stroke:#181818;stroke-width:0.5;" width="41" x="412.5" y="763.3672"/><text fill="#000000" font-family="sans-serif" font-size="12" lengthAdjust="spacing" textLength="21" x="422.5" y="785.8242">leer</text><polygon fill="#F1F1F1" points="399,804.4609,411,816.4609,399,828.4609,387,816.4609,399,804.4609" style="stroke:#181818;stroke-width:0.5;"/><rect fill="#F1F1F1" height="50.1875" rx="12.5" ry="12.5" style="stroke:#181818;stroke-width:0.5;" width="44" x="377" y="848.4609"/><text fill="#000000" font-family="sans-serif" font-size="12" lengthAdjust="spacing" textLength="21" x="390" y="870.918">leer</text><text fill="#000000" font-family="sans-serif" font-size="12" lengthAdjust="spacing" textLength="3" x="387" y="886.0117"> </text><polygon fill="#F1F1F1" points="258.5,904.6484,270.5,916.6484,258.5,928.6484,246.5,916.6484,258.5,904.6484" style="stroke:#181818;stroke-width:0.5;"/><line style="stroke:#181818;stroke-width:1.5;" x1="221" x2="294.5" y1="948.6484" y2="948.6484"/><rect fill="#F1F1F1" height="35.0938" rx="12.5" ry="12.5" style="stroke:#181818;stroke-width:0.5;" width="44" x="199" y="968.6484"/><text fill="#000000" font-family="sans-serif" font-size="12" lengthAdjust="spacing" textLength="21" x="212" y="991.1055">leer</text><rect fill="#F1F1F1" height="35.0938" style="stroke:#181818;stroke-width:0.5;" width="47" x="271" y="968.6484"/><line style="stroke:#181818;stroke-width:0.5;" x1="276" x2="276" y1="968.6484" y2="1003.7422"/><line style="stroke:#181818;stroke-width:0.5;" x1="313" x2="313" y1="968.6484" y2="1003.7422"/><text fill="#000000" font-family="sans-serif" font-size="12" lengthAdjust="spacing" textLength="21" x="284" y="991.1055">leer</text><line style="stroke:#181818;stroke-width:1.5;" x1="221" x2="294.5" y1="1023.7422" y2="1023.7422"/><line style="stroke:#181818;stroke-width:1.0;" x1="130.5" x2="130.5" y1="66.5938" y2="86.5938"/><polygon fill="#181818" points="126.5,76.5938,130.5,86.5938,134.5,76.5938,130.5,80.5938" style="stroke:#181818;stroke-width:1.0;"/><line style="stroke:#181818;stroke-width:1.0;" x1="318.5" x2="318.5" y1="66.5938" y2="86.5938"/><polygon fill="#181818" points="314.5,76.5938,318.5,86.5938,322.5,76.5938,318.5,80.5938" style="stroke:#181818;stroke-width:1.0;"/><line style="stroke:#181818;stroke-width:1.0;" x1="441.5" x2="441.5" y1="66.5938" y2="86.5938"/><polygon fill="#181818" points="437.5,76.5938,441.5,86.5938,445.5,76.5938,441.5,80.5938" style="stroke:#181818;stroke-width:1.0;"/><line style="stroke:#181818;stroke-width:1.0;" x1="258.5" x2="258.5" y1="88.0938" y2="106.5938"/><polygon fill="#181818" points="254.5,96.5938,258.5,106.5938,262.5,96.5938,258.5,100.5938" style="stroke:#181818;stroke-width:1.0;"/><line style="stroke:#181818;stroke-width:1.0;" x1="290.5" x2="290.5" y1="267.375" y2="285.875"/><polygon fill="#181818" points="286.5,275.875,290.5,285.875,294.5,275.875,290.5,279.875" style="stroke:#181818;stroke-width:1.0;"/><line style="stroke:#181818;stroke-width:1.0;" x1="290.5" x2="290.5" y1="320.9688" y2="340.9688"/><polygon fill="#181818" points="286.5,330.9688,290.5,340.9688,294.5,330.9688,290.5,334.9688" style="stroke:#181818;stroke-width:1.0;"/><line style="stroke:#181818;stroke-width:1.0;" x1="401" x2="401" y1="320.9688" y2="340.9688"/><polygon fill="#181818" points="397,330.9688,401,340.9688,405,330.9688,401,334.9688" style="stroke:#181818;stroke-width:1.0;"/><line style="stroke:#181818;stroke-width:1.0;" x1="470" x2="470" y1="320.9688" y2="340.9688"/><polygon fill="#181818" points="466,330.9688,470,340.9688,474,330.9688,470,334.9688" style="stroke:#181818;stroke-width:1.0;"/><line style="stroke:#181818;stroke-width:1.0;" x1="539" x2="539" y1="320.9688" y2="340.9688"/><polygon fill="#181818" points="535,330.9688,539,340.9688,543,330.9688,539,334.9688" style="stroke:#181818;stroke-width:1.0;"/><line style="stroke:#181818;stroke-width:1.0;" x1="399" x2="399" y1="245.875" y2="265.875"/><polygon fill="#181818" points="395,255.875,399,265.875,403,255.875,399,259.875" style="stroke:#181818;stroke-width:1.0;"/><line style="stroke:#181818;stroke-width:1.0;" x1="399" x2="399" y1="342.4688" y2="360.9688"/><polygon fill="#181818" points="395,350.9688,399,360.9688,403,350.9688,399,354.9688" style="stroke:#181818;stroke-width:1.0;"/><line style="stroke:#181818;stroke-width:1.0;" x1="250.5" x2="250.5" y1="455.1563" y2="475.1563"/><polygon fill="#181818" points="246.5,465.1563,250.5,475.1563,254.5,465.1563,250.5,469.1563" style="stroke:#181818;stroke-width:1.0;"/><line style="stroke:#181818;stroke-width:1.0;" x1="250.5" x2="250.5" y1="510.25" y2="544.0859"/><polygon fill="#181818" points="246.5,534.0859,250.5,544.0859,254.5,534.0859,250.5,538.0859" style="stroke:#181818;stroke-width:1.0;"/><line style="stroke:#181818;stroke-width:1.0;" x1="394.5" x2="394.5" y1="455.1563" y2="488.9922"/><polygon fill="#181818" points="390.5,478.9922,394.5,488.9922,398.5,478.9922,394.5,482.9922" style="stroke:#181818;stroke-width:1.0;"/><line style="stroke:#181818;stroke-width:1.0;" x1="394.5" x2="394.5" y1="524.0859" y2="544.0859"/><polygon fill="#181818" points="390.5,534.0859,394.5,544.0859,398.5,534.0859,394.5,538.0859" style="stroke:#181818;stroke-width:1.0;"/><line style="stroke:#181818;stroke-width:1.0;" x1="280" x2="382.5" y1="443.1563" y2="443.1563"/><polygon fill="#181818" points="372.5,439.1563,382.5,443.1563,372.5,447.1563,376.5,443.1563" style="stroke:#181818;stroke-width:1.0;"/><line style="stroke:#181818;stroke-width:1.0;" x1="399" x2="399" y1="411.1563" y2="416.1563"/><line style="stroke:#181818;stroke-width:1.0;" x1="399" x2="250.5" y1="416.1563" y2="416.1563"/><line style="stroke:#181818;stroke-width:1.0;" x1="250.5" x2="250.5" y1="416.1563" y2="431.1563"/><polygon fill="#181818" points="246.5,421.1563,250.5,431.1563,254.5,421.1563,250.5,425.1563" style="stroke:#181818;stroke-width:1.0;"/><line style="stroke:#181818;stroke-width:1.0;" x1="406.5" x2="543" y1="443.1563" y2="443.1563"/><line style="stroke:#181818;stroke-width:1.0;" x1="543" x2="543" y1="443.1563" y2="485.0742"/><polygon fill="#181818" points="539,475.0742,543,485.0742,547,475.0742,543,479.0742" style="stroke:#181818;stroke-width:1.0;"/><line style="stroke:#181818;stroke-width:1.0;" x1="543" x2="543" y1="520.168" y2="544.0859"/><polygon fill="#181818" points="539,534.0859,543,544.0859,547,534.0859,543,538.0859" style="stroke:#181818;stroke-width:1.0;"/><line style="stroke:#181818;stroke-width:1.0;" x1="250.5" x2="543" y1="544.0859" y2="544.0859"/><line style="stroke:#181818;stroke-width:1.0;" x1="289" x2="289" y1="565.5859" y2="584.0859"/><polygon fill="#181818" points="285,574.0859,289,584.0859,293,574.0859,289,578.0859" style="stroke:#181818;stroke-width:1.0;"/><line style="stroke:#181818;stroke-width:1.0;" x1="289" x2="289" y1="619.1797" y2="639.1797"/><polygon fill="#181818" points="285,629.1797,289,639.1797,293,629.1797,289,633.1797" style="stroke:#181818;stroke-width:1.0;"/><line style="stroke:#181818;stroke-width:1.0;" x1="368" x2="368" y1="619.1797" y2="639.1797"/><polygon fill="#181818" points="364,629.1797,368,639.1797,372,629.1797,368,633.1797" style="stroke:#181818;stroke-width:1.0;"/><line style="stroke:#181818;stroke-width:1.0;" x1="437" x2="437" y1="619.1797" y2="639.1797"/><polygon fill="#181818" points="433,629.1797,437,639.1797,441,629.1797,437,633.1797" style="stroke:#181818;stroke-width:1.0;"/><line style="stroke:#181818;stroke-width:1.0;" x1="507.5" x2="507.5" y1="619.1797" y2="639.1797"/><polygon fill="#181818" points="503.5,629.1797,507.5,639.1797,511.5,629.1797,507.5,633.1797" style="stroke:#181818;stroke-width:1.0;"/><line style="stroke:#181818;stroke-width:1.0;" x1="399" x2="399" y1="544.0859" y2="564.0859"/><polygon fill="#181818" points="395,554.0859,399,564.0859,403,554.0859,399,558.0859" style="stroke:#181818;stroke-width:1.0;"/><line style="stroke:#181818;stroke-width:1.0;" x1="399" x2="399" y1="640.6797" y2="659.1797"/><polygon fill="#181818" points="395,649.1797,399,659.1797,403,649.1797,399,653.1797" style="stroke:#181818;stroke-width:1.0;"/><line style="stroke:#181818;stroke-width:1.0;" x1="375" x2="365" y1="741.3672" y2="741.3672"/><line style="stroke:#181818;stroke-width:1.0;" x1="365" x2="365" y1="741.3672" y2="763.3672"/><polygon fill="#181818" points="361,753.3672,365,763.3672,369,753.3672,365,757.3672" style="stroke:#181818;stroke-width:1.0;"/><line style="stroke:#181818;stroke-width:1.0;" x1="423" x2="433" y1="741.3672" y2="741.3672"/><line style="stroke:#181818;stroke-width:1.0;" x1="433" x2="433" y1="741.3672" y2="763.3672"/><polygon fill="#181818" points="429,753.3672,433,763.3672,437,753.3672,433,757.3672" style="stroke:#181818;stroke-width:1.0;"/><line style="stroke:#181818;stroke-width:1.0;" x1="365" x2="365" y1="798.4609" y2="816.4609"/><line style="stroke:#181818;stroke-width:1.0;" x1="365" x2="387" y1="816.4609" y2="816.4609"/><polygon fill="#181818" points="377,812.4609,387,816.4609,377,820.4609,381,816.4609" style="stroke:#181818;stroke-width:1.0;"/><line style="stroke:#181818;stroke-width:1.0;" x1="433" x2="433" y1="798.4609" y2="816.4609"/><line style="stroke:#181818;stroke-width:1.0;" x1="433" x2="411" y1="816.4609" y2="816.4609"/><polygon fill="#181818" points="421,812.4609,411,816.4609,421,820.4609,417,816.4609" style="stroke:#181818;stroke-width:1.0;"/><line style="stroke:#181818;stroke-width:1.0;" x1="399" x2="399" y1="709.3672" y2="729.3672"/><polygon fill="#181818" points="395,719.3672,399,729.3672,403,719.3672,399,723.3672" style="stroke:#181818;stroke-width:1.0;"/><line style="stroke:#181818;stroke-width:1.0;" x1="399" x2="399" y1="828.4609" y2="848.4609"/><polygon fill="#181818" points="395,838.4609,399,848.4609,403,838.4609,399,842.4609" style="stroke:#181818;stroke-width:1.0;"/><line style="stroke:#181818;stroke-width:1.0;" x1="234.5" x2="118" y1="188.7813" y2="188.7813"/><line style="stroke:#181818;stroke-width:1.0;" x1="118" x2="118" y1="188.7813" y2="210.7813"/><polygon fill="#181818" points="114,200.7813,118,210.7813,122,200.7813,118,204.7813" style="stroke:#181818;stroke-width:1.0;"/><line style="stroke:#181818;stroke-width:1.0;" x1="282.5" x2="399" y1="188.7813" y2="188.7813"/><line style="stroke:#181818;stroke-width:1.0;" x1="399" x2="399" y1="188.7813" y2="210.7813"/><polygon fill="#181818" points="395,200.7813,399,210.7813,403,200.7813,399,204.7813" style="stroke:#181818;stroke-width:1.0;"/><line style="stroke:#181818;stroke-width:1.0;" x1="118" x2="118" y1="245.875" y2="916.6484"/><line style="stroke:#181818;stroke-width:1.0;" x1="118" x2="246.5" y1="916.6484" y2="916.6484"/><polygon fill="#181818" points="236.5,912.6484,246.5,916.6484,236.5,920.6484,240.5,916.6484" style="stroke:#181818;stroke-width:1.0;"/><line style="stroke:#181818;stroke-width:1.0;" x1="399" x2="399" y1="898.6484" y2="916.6484"/><line style="stroke:#181818;stroke-width:1.0;" x1="399" x2="270.5" y1="916.6484" y2="916.6484"/><polygon fill="#181818" points="280.5,912.6484,270.5,916.6484,280.5,920.6484,276.5,916.6484" style="stroke:#181818;stroke-width:1.0;"/><line style="stroke:#181818;stroke-width:1.0;" x1="258.5" x2="258.5" y1="156.7813" y2="176.7813"/><polygon fill="#181818" points="254.5,166.7813,258.5,176.7813,262.5,166.7813,258.5,170.7813" style="stroke:#181818;stroke-width:1.0;"/><line style="stroke:#181818;stroke-width:1.0;" x1="221" x2="221" y1="950.1484" y2="968.6484"/><polygon fill="#181818" points="217,958.6484,221,968.6484,225,958.6484,221,962.6484" style="stroke:#181818;stroke-width:1.0;"/><line style="stroke:#181818;stroke-width:1.0;" x1="294.5" x2="294.5" y1="950.1484" y2="968.6484"/><polygon fill="#181818" points="290.5,958.6484,294.5,968.6484,298.5,958.6484,294.5,962.6484" style="stroke:#181818;stroke-width:1.0;"/><line style="stroke:#181818;stroke-width:1.0;" x1="258.5" x2="258.5" y1="928.6484" y2="948.6484"/><polygon fill="#181818" points="254.5,938.6484,258.5,948.6484,262.5,938.6484,258.5,942.6484" style="stroke:#181818;stroke-width:1.0;"/><!--MD5=[fc4910f2340340830c357946ba952e16]
@startuml name Service 
split 
    -[hidden]->
    : Sensor überschreitet Schwellenwert>
split again
    -[hidden]->
    : Datenblatt;
split again 
    -[hidden]->
    : to_Sensordaten;
end split
' Kasten eins
: Prüfen ob 
Wartungsfall vorliegt;
if (XOR) then (Nein)
: Wartungsfall>
else (Ja)
: kein Wartungsfall>
split 
:Mitarbeiter prüft>
split again
    -[hidden]->
    :leer|
split again
    -[hidden]->
    :leer|
split again
-[hidden]->
    :leer|
end split
' Kasten zwei 
: Dringlichkeit 
    bewerten;
if () then ()
: hohe driglichkeit;
elseif () then ()
: mittlere Dringlichkeit;
else ()
: hohe Dringlichkeit;
endif
split 
:leer>
split again
    -[hidden]->
    :leer|
split again
    -[hidden]->
    :leer|
split again
-[hidden]->
    : leer;
end split
' Kasten drei 
: leer
;
if (leer) then (leer)
:leer;
else
:leer;
endif
' letzter Kasten vier
: leer
;
endif
split
    : leer;
    -[hidden]->
split again
    : leer |
    -[hidden]->   
end split 

@enduml

@startuml name Service 
split 
    -[hidden]->
    : Sensor überschreitet Schwellenwert>
split again
    -[hidden]->
    : Datenblatt;
split again 
    -[hidden]->
    : to_Sensordaten;
end split
: Prüfen ob 
Wartungsfall vorliegt;
if (XOR) then (Nein)
: Wartungsfall>
else (Ja)
: kein Wartungsfall>
split 
:Mitarbeiter prüft>
split again
    -[hidden]->
    :leer|
split again
    -[hidden]->
    :leer|
split again
-[hidden]->
    :leer|
end split
: Dringlichkeit 
    bewerten;
if () then ()
: hohe driglichkeit;
elseif () then ()
: mittlere Dringlichkeit;
else ()
: hohe Dringlichkeit;
endif
split 
:leer>
split again
    -[hidden]->
    :leer|
split again
    -[hidden]->
    :leer|
split again
-[hidden]->
    : leer;
end split
: leer
;
if (leer) then (leer)
:leer;
else
:leer;
endif
: leer
;
endif
split
    : leer;
    -[hidden]->
split again
    : leer |
    -[hidden]->   
end split 

@enduml

PlantUML version 1.2022.7(Mon Aug 22 19:01:30 CEST 2022)
(GPL source distribution)
Java Runtime: OpenJDK Runtime Environment
JVM: OpenJDK 64-Bit Server VM
Default Encoding: UTF-8
Language: de
Country: DE
--></g></svg>