<?xml version="1.0" encoding="UTF-8" standalone="no"?><svg xmlns="http://www.w3.org/2000/svg" xmlns:xlink="http://www.w3.org/1999/xlink" contentStyleType="text/css" height="982px" preserveAspectRatio="none" style="width:637px;height:982px;background:#FFFFFF;" version="1.1" viewBox="0 0 637 982" width="637px" zoomAndPan="magnify"><defs/><g><line style="stroke:none;stroke-width:1.5;" x1="139" x2="440" y1="10" y2="10"/><rect fill="#F1F1F1" height="35.0938" rx="12.5" ry="12.5" style="stroke:#181818;stroke-width:0.5;" width="221" x="28.5" y="31.5"/><text fill="#000000" font-family="sans-serif" font-size="12" lengthAdjust="spacing" textLength="198" x="41.5" y="53.957">Sensor überschreitet Schwellenwert</text><rect fill="#F1F1F1" height="35.0938" rx="12.5" ry="12.5" style="stroke:#181818;stroke-width:0.5;" width="79" x="277.5" y="31.5"/><text fill="#000000" font-family="sans-serif" font-size="12" lengthAdjust="spacing" textLength="56" x="290.5" y="53.957">Datenblatt</text><rect fill="#F1F1F1" height="35.0938" rx="12.5" ry="12.5" style="stroke:#181818;stroke-width:0.5;" width="111" x="384.5" y="31.5"/><text fill="#000000" font-family="sans-serif" font-size="12" lengthAdjust="spacing" textLength="88" x="397.5" y="53.957">to_Sensordaten</text><line style="stroke:#181818;stroke-width:1.5;" x1="139" x2="440" y1="86.5938" y2="86.5938"/><rect fill="#F1F1F1" height="50.1875" rx="12.5" ry="12.5" style="stroke:#181818;stroke-width:0.5;" width="131" x="196.5" y="106.5938"/><text fill="#000000" font-family="sans-serif" font-size="12" lengthAdjust="spacing" textLength="53" x="209.5" y="129.0508">Prüfen ob</text><text fill="#000000" font-family="sans-serif" font-size="12" lengthAdjust="spacing" textLength="111" x="206.5" y="144.1445">Wartungsfall vorliegt</text><polygon fill="#F1F1F1" points="231.5,176.7813,292.5,176.7813,304.5,188.7813,292.5,200.7813,231.5,200.7813,219.5,188.7813,231.5,176.7813" style="stroke:#181818;stroke-width:0.5;"/><text fill="#000000" font-family="sans-serif" font-size="11" lengthAdjust="spacing" textLength="61" x="231.5" y="193.2822">Wartungsfall</text><text fill="#000000" font-family="sans-serif" font-size="11" lengthAdjust="spacing" textLength="21" x="198.5" y="186.3643">Nein</text><text fill="#000000" font-family="sans-serif" font-size="11" lengthAdjust="spacing" textLength="11" x="304.5" y="186.3643">Ja</text><polygon fill="#F1F1F1" points="20,210.7813,186,210.7813,196,228.3281,186,245.875,20,245.875" style="stroke:#181818;stroke-width:0.5;"/><text fill="#000000" font-family="sans-serif" font-size="12" lengthAdjust="spacing" textLength="143" x="33" y="233.2383">Wartungsfall liegt nicht vor</text><line style="stroke:#181818;stroke-width:1.5;" x1="312.5" x2="561" y1="210.7813" y2="210.7813"/><polygon fill="#F1F1F1" points="260.5,232.2813,364.5,232.2813,374.5,249.8281,364.5,267.375,260.5,267.375" style="stroke:#181818;stroke-width:0.5;"/><text fill="#000000" font-family="sans-serif" font-size="12" lengthAdjust="spacing" textLength="84" x="270.5" y="254.7383">Mitarbeiter prüft</text><rect fill="#F1F1F1" height="35.0938" style="stroke:#181818;stroke-width:0.5;" width="41" x="402.5" y="232.2813"/><line style="stroke:#181818;stroke-width:0.5;" x1="407.5" x2="407.5" y1="232.2813" y2="267.375"/><line style="stroke:#181818;stroke-width:0.5;" x1="438.5" x2="438.5" y1="232.2813" y2="267.375"/><text fill="#000000" font-family="sans-serif" font-size="12" lengthAdjust="spacing" textLength="21" x="412.5" y="254.7383">leer</text><rect fill="#F1F1F1" height="35.0938" style="stroke:#181818;stroke-width:0.5;" width="41" x="471.5" y="232.2813"/><line style="stroke:#181818;stroke-width:0.5;" x1="476.5" x2="476.5" y1="232.2813" y2="267.375"/><line style="stroke:#181818;stroke-width:0.5;" x1="507.5" x2="507.5" y1="232.2813" y2="267.375"/><text fill="#000000" font-family="sans-serif" font-size="12" lengthAdjust="spacing" textLength="21" x="481.5" y="254.7383">leer</text><rect fill="#F1F1F1" height="35.0938" style="stroke:#181818;stroke-width:0.5;" width="41" x="540.5" y="232.2813"/><line style="stroke:#181818;stroke-width:0.5;" x1="545.5" x2="545.5" y1="232.2813" y2="267.375"/><line style="stroke:#181818;stroke-width:0.5;" x1="576.5" x2="576.5" y1="232.2813" y2="267.375"/><text fill="#000000" font-family="sans-serif" font-size="12" lengthAdjust="spacing" textLength="21" x="550.5" y="254.7383">leer</text><line style="stroke:#181818;stroke-width:1.5;" x1="312.5" x2="561" y1="287.375" y2="287.375"/><rect fill="#F1F1F1" height="50.1875" rx="12.5" ry="12.5" style="stroke:#181818;stroke-width:0.5;" width="91" x="375.5" y="307.375"/><text fill="#000000" font-family="sans-serif" font-size="12" lengthAdjust="spacing" textLength="68" x="388.5" y="329.832">Dringlichkeit</text><text fill="#000000" font-family="sans-serif" font-size="12" lengthAdjust="spacing" textLength="51" x="397.5" y="344.9258">bewerten</text><polygon fill="#F1F1F1" points="255,377.5625,290,377.5625,302,389.5625,290,401.5625,255,401.5625,243,389.5625,255,377.5625" style="stroke:#181818;stroke-width:0.5;"/><text fill="#000000" font-family="sans-serif" font-size="11" lengthAdjust="spacing" textLength="35" x="255" y="394.0635">) then (</text><rect fill="#F1F1F1" height="35.0938" rx="12.5" ry="12.5" style="stroke:#181818;stroke-width:0.5;" width="113" x="216" y="421.5625"/><text fill="#000000" font-family="sans-serif" font-size="12" lengthAdjust="spacing" textLength="90" x="229" y="444.0195">hohe driglichkeit</text><polygon fill="#F1F1F1" points="416.5,377.5625,416.5,377.5625,428.5,389.5625,416.5,401.5625,416.5,401.5625,404.5,389.5625,416.5,377.5625" style="stroke:#181818;stroke-width:0.5;"/><text fill="#000000" font-family="sans-serif" font-size="11" lengthAdjust="spacing" textLength="3" x="420.5" y="412.9814"> </text><text fill="#000000" font-family="sans-serif" font-size="11" lengthAdjust="spacing" textLength="3" x="428.5" y="387.1455"> </text><rect fill="#F1F1F1" height="35.0938" rx="12.5" ry="12.5" style="stroke:#181818;stroke-width:0.5;" width="135" x="349" y="435.3984"/><text fill="#000000" font-family="sans-serif" font-size="12" lengthAdjust="spacing" textLength="112" x="362" y="457.8555">mittlere Dringlichkeit</text><rect fill="#F1F1F1" height="35.0938" rx="12.5" ry="12.5" style="stroke:#181818;stroke-width:0.5;" width="122" x="504" y="431.4805"/><text fill="#000000" font-family="sans-serif" font-size="12" lengthAdjust="spacing" textLength="99" x="517" y="453.9375">hohe Dringlichkeit</text><line style="stroke:#181818;stroke-width:1.5;" x1="311" x2="529.5" y1="510.4922" y2="510.4922"/><polygon fill="#F1F1F1" points="290.5,530.4922,331.5,530.4922,341.5,548.0391,331.5,565.5859,290.5,565.5859" style="stroke:#181818;stroke-width:0.5;"/><text fill="#000000" font-family="sans-serif" font-size="12" lengthAdjust="spacing" textLength="21" x="300.5" y="552.9492">leer</text><rect fill="#F1F1F1" height="35.0938" style="stroke:#181818;stroke-width:0.5;" width="41" x="369.5" y="530.4922"/><line style="stroke:#181818;stroke-width:0.5;" x1="374.5" x2="374.5" y1="530.4922" y2="565.5859"/><line style="stroke:#181818;stroke-width:0.5;" x1="405.5" x2="405.5" y1="530.4922" y2="565.5859"/><text fill="#000000" font-family="sans-serif" font-size="12" lengthAdjust="spacing" textLength="21" x="379.5" y="552.9492">leer</text><rect fill="#F1F1F1" height="35.0938" style="stroke:#181818;stroke-width:0.5;" width="41" x="438.5" y="530.4922"/><line style="stroke:#181818;stroke-width:0.5;" x1="443.5" x2="443.5" y1="530.4922" y2="565.5859"/><line style="stroke:#181818;stroke-width:0.5;" x1="474.5" x2="474.5" y1="530.4922" y2="565.5859"/><text fill="#000000" font-family="sans-serif" font-size="12" lengthAdjust="spacing" textLength="21" x="448.5" y="552.9492">leer</text><rect fill="#F1F1F1" height="35.0938" rx="12.5" ry="12.5" style="stroke:#181818;stroke-width:0.5;" width="44" x="507.5" y="530.4922"/><text fill="#000000" font-family="sans-serif" font-size="12" lengthAdjust="spacing" textLength="21" x="520.5" y="552.9492">leer</text><line style="stroke:#181818;stroke-width:1.5;" x1="311" x2="529.5" y1="585.5859" y2="585.5859"/><rect fill="#F1F1F1" height="50.1875" rx="12.5" ry="12.5" style="stroke:#181818;stroke-width:0.5;" width="44" x="399" y="605.5859"/><text fill="#000000" font-family="sans-serif" font-size="12" lengthAdjust="spacing" textLength="21" x="412" y="628.043">leer</text><text fill="#000000" font-family="sans-serif" font-size="12" lengthAdjust="spacing" textLength="3" x="409" y="643.1367"> </text><polygon fill="#F1F1F1" points="409,675.7734,433,675.7734,445,687.7734,433,699.7734,409,699.7734,397,687.7734,409,675.7734" style="stroke:#181818;stroke-width:0.5;"/><text fill="#000000" font-family="sans-serif" font-size="11" lengthAdjust="spacing" textLength="18" x="412" y="692.2744">leer</text><text fill="#000000" font-family="sans-serif" font-size="11" lengthAdjust="spacing" textLength="18" x="379" y="685.3564">leer</text><rect fill="#F1F1F1" height="35.0938" rx="12.5" ry="12.5" style="stroke:#181818;stroke-width:0.5;" width="41" x="366.5" y="709.7734"/><text fill="#000000" font-family="sans-serif" font-size="12" lengthAdjust="spacing" textLength="21" x="376.5" y="732.2305">leer</text><rect fill="#F1F1F1" height="35.0938" rx="12.5" ry="12.5" style="stroke:#181818;stroke-width:0.5;" width="41" x="434.5" y="709.7734"/><text fill="#000000" font-family="sans-serif" font-size="12" lengthAdjust="spacing" textLength="21" x="444.5" y="732.2305">leer</text><polygon fill="#F1F1F1" points="421,750.8672,433,762.8672,421,774.8672,409,762.8672,421,750.8672" style="stroke:#181818;stroke-width:0.5;"/><rect fill="#F1F1F1" height="50.1875" rx="12.5" ry="12.5" style="stroke:#181818;stroke-width:0.5;" width="44" x="399" y="794.8672"/><text fill="#000000" font-family="sans-serif" font-size="12" lengthAdjust="spacing" textLength="21" x="412" y="817.3242">leer</text><text fill="#000000" font-family="sans-serif" font-size="12" lengthAdjust="spacing" textLength="3" x="409" y="832.418"> </text><polygon fill="#F1F1F1" points="262,851.0547,274,863.0547,262,875.0547,250,863.0547,262,851.0547" style="stroke:#181818;stroke-width:0.5;"/><line style="stroke:#181818;stroke-width:1.5;" x1="224.5" x2="298" y1="895.0547" y2="895.0547"/><rect fill="#F1F1F1" height="35.0938" rx="12.5" ry="12.5" style="stroke:#181818;stroke-width:0.5;" width="44" x="202.5" y="915.0547"/><text fill="#000000" font-family="sans-serif" font-size="12" lengthAdjust="spacing" textLength="21" x="215.5" y="937.5117">leer</text><rect fill="#F1F1F1" height="35.0938" style="stroke:#181818;stroke-width:0.5;" width="47" x="274.5" y="915.0547"/><line style="stroke:#181818;stroke-width:0.5;" x1="279.5" x2="279.5" y1="915.0547" y2="950.1484"/><line style="stroke:#181818;stroke-width:0.5;" x1="316.5" x2="316.5" y1="915.0547" y2="950.1484"/><text fill="#000000" font-family="sans-serif" font-size="12" lengthAdjust="spacing" textLength="21" x="287.5" y="937.5117">leer</text><line style="stroke:#181818;stroke-width:1.5;" x1="224.5" x2="298" y1="970.1484" y2="970.1484"/><line style="stroke:#181818;stroke-width:1.0;" x1="139" x2="139" y1="66.5938" y2="86.5938"/><polygon fill="#181818" points="135,76.5938,139,86.5938,143,76.5938,139,80.5938" style="stroke:#181818;stroke-width:1.0;"/><line style="stroke:#181818;stroke-width:1.0;" x1="317" x2="317" y1="66.5938" y2="86.5938"/><polygon fill="#181818" points="313,76.5938,317,86.5938,321,76.5938,317,80.5938" style="stroke:#181818;stroke-width:1.0;"/><line style="stroke:#181818;stroke-width:1.0;" x1="440" x2="440" y1="66.5938" y2="86.5938"/><polygon fill="#181818" points="436,76.5938,440,86.5938,444,76.5938,440,80.5938" style="stroke:#181818;stroke-width:1.0;"/><line style="stroke:#181818;stroke-width:1.0;" x1="262" x2="262" y1="88.0938" y2="106.5938"/><polygon fill="#181818" points="258,96.5938,262,106.5938,266,96.5938,262,100.5938" style="stroke:#181818;stroke-width:1.0;"/><line style="stroke:#181818;stroke-width:1.0;" x1="312.5" x2="312.5" y1="212.2813" y2="232.2813"/><polygon fill="#181818" points="308.5,222.2813,312.5,232.2813,316.5,222.2813,312.5,226.2813" style="stroke:#181818;stroke-width:1.0;"/><line style="stroke:#181818;stroke-width:1.0;" x1="312.5" x2="312.5" y1="267.375" y2="287.375"/><polygon fill="#181818" points="308.5,277.375,312.5,287.375,316.5,277.375,312.5,281.375" style="stroke:#181818;stroke-width:1.0;"/><line style="stroke:#181818;stroke-width:1.0;" x1="423" x2="423" y1="267.375" y2="287.375"/><polygon fill="#181818" points="419,277.375,423,287.375,427,277.375,423,281.375" style="stroke:#181818;stroke-width:1.0;"/><line style="stroke:#181818;stroke-width:1.0;" x1="492" x2="492" y1="267.375" y2="287.375"/><polygon fill="#181818" points="488,277.375,492,287.375,496,277.375,492,281.375" style="stroke:#181818;stroke-width:1.0;"/><line style="stroke:#181818;stroke-width:1.0;" x1="561" x2="561" y1="267.375" y2="287.375"/><polygon fill="#181818" points="557,277.375,561,287.375,565,277.375,561,281.375" style="stroke:#181818;stroke-width:1.0;"/><line style="stroke:#181818;stroke-width:1.0;" x1="421" x2="421" y1="288.875" y2="307.375"/><polygon fill="#181818" points="417,297.375,421,307.375,425,297.375,421,301.375" style="stroke:#181818;stroke-width:1.0;"/><line style="stroke:#181818;stroke-width:1.0;" x1="272.5" x2="272.5" y1="401.5625" y2="421.5625"/><polygon fill="#181818" points="268.5,411.5625,272.5,421.5625,276.5,411.5625,272.5,415.5625" style="stroke:#181818;stroke-width:1.0;"/><line style="stroke:#181818;stroke-width:1.0;" x1="272.5" x2="272.5" y1="456.6563" y2="490.4922"/><polygon fill="#181818" points="268.5,480.4922,272.5,490.4922,276.5,480.4922,272.5,484.4922" style="stroke:#181818;stroke-width:1.0;"/><line style="stroke:#181818;stroke-width:1.0;" x1="416.5" x2="416.5" y1="401.5625" y2="435.3984"/><polygon fill="#181818" points="412.5,425.3984,416.5,435.3984,420.5,425.3984,416.5,429.3984" style="stroke:#181818;stroke-width:1.0;"/><line style="stroke:#181818;stroke-width:1.0;" x1="416.5" x2="416.5" y1="470.4922" y2="490.4922"/><polygon fill="#181818" points="412.5,480.4922,416.5,490.4922,420.5,480.4922,416.5,484.4922" style="stroke:#181818;stroke-width:1.0;"/><line style="stroke:#181818;stroke-width:1.0;" x1="302" x2="404.5" y1="389.5625" y2="389.5625"/><polygon fill="#181818" points="394.5,385.5625,404.5,389.5625,394.5,393.5625,398.5,389.5625" style="stroke:#181818;stroke-width:1.0;"/><line style="stroke:#181818;stroke-width:1.0;" x1="421" x2="421" y1="357.5625" y2="362.5625"/><line style="stroke:#181818;stroke-width:1.0;" x1="421" x2="272.5" y1="362.5625" y2="362.5625"/><line style="stroke:#181818;stroke-width:1.0;" x1="272.5" x2="272.5" y1="362.5625" y2="377.5625"/><polygon fill="#181818" points="268.5,367.5625,272.5,377.5625,276.5,367.5625,272.5,371.5625" style="stroke:#181818;stroke-width:1.0;"/><line style="stroke:#181818;stroke-width:1.0;" x1="428.5" x2="565" y1="389.5625" y2="389.5625"/><line style="stroke:#181818;stroke-width:1.0;" x1="565" x2="565" y1="389.5625" y2="431.4805"/><polygon fill="#181818" points="561,421.4805,565,431.4805,569,421.4805,565,425.4805" style="stroke:#181818;stroke-width:1.0;"/><line style="stroke:#181818;stroke-width:1.0;" x1="565" x2="565" y1="466.5742" y2="490.4922"/><polygon fill="#181818" points="561,480.4922,565,490.4922,569,480.4922,565,484.4922" style="stroke:#181818;stroke-width:1.0;"/><line style="stroke:#181818;stroke-width:1.0;" x1="272.5" x2="565" y1="490.4922" y2="490.4922"/><line style="stroke:#181818;stroke-width:1.0;" x1="311" x2="311" y1="511.9922" y2="530.4922"/><polygon fill="#181818" points="307,520.4922,311,530.4922,315,520.4922,311,524.4922" style="stroke:#181818;stroke-width:1.0;"/><line style="stroke:#181818;stroke-width:1.0;" x1="311" x2="311" y1="565.5859" y2="585.5859"/><polygon fill="#181818" points="307,575.5859,311,585.5859,315,575.5859,311,579.5859" style="stroke:#181818;stroke-width:1.0;"/><line style="stroke:#181818;stroke-width:1.0;" x1="390" x2="390" y1="565.5859" y2="585.5859"/><polygon fill="#181818" points="386,575.5859,390,585.5859,394,575.5859,390,579.5859" style="stroke:#181818;stroke-width:1.0;"/><line style="stroke:#181818;stroke-width:1.0;" x1="459" x2="459" y1="565.5859" y2="585.5859"/><polygon fill="#181818" points="455,575.5859,459,585.5859,463,575.5859,459,579.5859" style="stroke:#181818;stroke-width:1.0;"/><line style="stroke:#181818;stroke-width:1.0;" x1="529.5" x2="529.5" y1="565.5859" y2="585.5859"/><polygon fill="#181818" points="525.5,575.5859,529.5,585.5859,533.5,575.5859,529.5,579.5859" style="stroke:#181818;stroke-width:1.0;"/><line style="stroke:#181818;stroke-width:1.0;" x1="421" x2="421" y1="490.4922" y2="510.4922"/><polygon fill="#181818" points="417,500.4922,421,510.4922,425,500.4922,421,504.4922" style="stroke:#181818;stroke-width:1.0;"/><line style="stroke:#181818;stroke-width:1.0;" x1="421" x2="421" y1="587.0859" y2="605.5859"/><polygon fill="#181818" points="417,595.5859,421,605.5859,425,595.5859,421,599.5859" style="stroke:#181818;stroke-width:1.0;"/><line style="stroke:#181818;stroke-width:1.0;" x1="397" x2="387" y1="687.7734" y2="687.7734"/><line style="stroke:#181818;stroke-width:1.0;" x1="387" x2="387" y1="687.7734" y2="709.7734"/><polygon fill="#181818" points="383,699.7734,387,709.7734,391,699.7734,387,703.7734" style="stroke:#181818;stroke-width:1.0;"/><line style="stroke:#181818;stroke-width:1.0;" x1="445" x2="455" y1="687.7734" y2="687.7734"/><line style="stroke:#181818;stroke-width:1.0;" x1="455" x2="455" y1="687.7734" y2="709.7734"/><polygon fill="#181818" points="451,699.7734,455,709.7734,459,699.7734,455,703.7734" style="stroke:#181818;stroke-width:1.0;"/><line style="stroke:#181818;stroke-width:1.0;" x1="387" x2="387" y1="744.8672" y2="762.8672"/><line style="stroke:#181818;stroke-width:1.0;" x1="387" x2="409" y1="762.8672" y2="762.8672"/><polygon fill="#181818" points="399,758.8672,409,762.8672,399,766.8672,403,762.8672" style="stroke:#181818;stroke-width:1.0;"/><line style="stroke:#181818;stroke-width:1.0;" x1="455" x2="455" y1="744.8672" y2="762.8672"/><line style="stroke:#181818;stroke-width:1.0;" x1="455" x2="433" y1="762.8672" y2="762.8672"/><polygon fill="#181818" points="443,758.8672,433,762.8672,443,766.8672,439,762.8672" style="stroke:#181818;stroke-width:1.0;"/><line style="stroke:#181818;stroke-width:1.0;" x1="421" x2="421" y1="655.7734" y2="675.7734"/><polygon fill="#181818" points="417,665.7734,421,675.7734,425,665.7734,421,669.7734" style="stroke:#181818;stroke-width:1.0;"/><line style="stroke:#181818;stroke-width:1.0;" x1="421" x2="421" y1="774.8672" y2="794.8672"/><polygon fill="#181818" points="417,784.8672,421,794.8672,425,784.8672,421,788.8672" style="stroke:#181818;stroke-width:1.0;"/><line style="stroke:#181818;stroke-width:1.0;" x1="219.5" x2="103" y1="188.7813" y2="188.7813"/><line style="stroke:#181818;stroke-width:1.0;" x1="103" x2="103" y1="188.7813" y2="210.7813"/><polygon fill="#181818" points="99,200.7813,103,210.7813,107,200.7813,103,204.7813" style="stroke:#181818;stroke-width:1.0;"/><line style="stroke:#181818;stroke-width:1.0;" x1="304.5" x2="421" y1="188.7813" y2="188.7813"/><line style="stroke:#181818;stroke-width:1.0;" x1="421" x2="421" y1="188.7813" y2="210.7813"/><polygon fill="#181818" points="417,200.7813,421,210.7813,425,200.7813,421,204.7813" style="stroke:#181818;stroke-width:1.0;"/><line style="stroke:#181818;stroke-width:1.0;" x1="103" x2="103" y1="245.875" y2="863.0547"/><line style="stroke:#181818;stroke-width:1.0;" x1="103" x2="250" y1="863.0547" y2="863.0547"/><polygon fill="#181818" points="240,859.0547,250,863.0547,240,867.0547,244,863.0547" style="stroke:#181818;stroke-width:1.0;"/><line style="stroke:#181818;stroke-width:1.0;" x1="421" x2="421" y1="845.0547" y2="863.0547"/><line style="stroke:#181818;stroke-width:1.0;" x1="421" x2="274" y1="863.0547" y2="863.0547"/><polygon fill="#181818" points="284,859.0547,274,863.0547,284,867.0547,280,863.0547" style="stroke:#181818;stroke-width:1.0;"/><line style="stroke:#181818;stroke-width:1.0;" x1="262" x2="262" y1="156.7813" y2="176.7813"/><polygon fill="#181818" points="258,166.7813,262,176.7813,266,166.7813,262,170.7813" style="stroke:#181818;stroke-width:1.0;"/><line style="stroke:#181818;stroke-width:1.0;" x1="224.5" x2="224.5" y1="896.5547" y2="915.0547"/><polygon fill="#181818" points="220.5,905.0547,224.5,915.0547,228.5,905.0547,224.5,909.0547" style="stroke:#181818;stroke-width:1.0;"/><line style="stroke:#181818;stroke-width:1.0;" x1="298" x2="298" y1="896.5547" y2="915.0547"/><polygon fill="#181818" points="294,905.0547,298,915.0547,302,905.0547,298,909.0547" style="stroke:#181818;stroke-width:1.0;"/><line style="stroke:#181818;stroke-width:1.0;" x1="262" x2="262" y1="875.0547" y2="895.0547"/><polygon fill="#181818" points="258,885.0547,262,895.0547,266,885.0547,262,889.0547" style="stroke:#181818;stroke-width:1.0;"/><!--MD5=[8801a47f1a0f9f29fba37153806161f1]
@startuml name Service 
split 
    -[hidden]->
    : Sensor überschreitet Schwellenwert;
split again
    -[hidden]->
    : Datenblatt;
split again 
    -[hidden]->
    : to_Sensordaten;
end split
' Kasten eins
: Prüfen ob 
Wartungsfall vorliegt;
if (Wartungsfall) then (Nein)
: Wartungsfall liegt nicht vor>
else (Ja)
split 
:Mitarbeiter prüft>
split again
    -[hidden]->
    :leer|
split again
    -[hidden]->
    :leer|
split again
-[hidden]->
    :leer|
end split
' Kasten zwei 
: Dringlichkeit 
    bewerten;
if () then ()
: hohe driglichkeit;
elseif () then ()
: mittlere Dringlichkeit;
else ()
: hohe Dringlichkeit;
endif
split 
:leer>
split again
    -[hidden]->
    :leer|
split again
    -[hidden]->
    :leer|
split again
-[hidden]->
    : leer;
end split
' Kasten drei 
: leer
;
if (leer) then (leer)
:leer;
else
:leer;
endif
' letzter Kasten vier
: leer
;
endif
split
    : leer;
    -[hidden]->
split again
    : leer |
    -[hidden]->   
end split 

@enduml

@startuml name Service 
split 
    -[hidden]->
    : Sensor überschreitet Schwellenwert;
split again
    -[hidden]->
    : Datenblatt;
split again 
    -[hidden]->
    : to_Sensordaten;
end split
: Prüfen ob 
Wartungsfall vorliegt;
if (Wartungsfall) then (Nein)
: Wartungsfall liegt nicht vor>
else (Ja)
split 
:Mitarbeiter prüft>
split again
    -[hidden]->
    :leer|
split again
    -[hidden]->
    :leer|
split again
-[hidden]->
    :leer|
end split
: Dringlichkeit 
    bewerten;
if () then ()
: hohe driglichkeit;
elseif () then ()
: mittlere Dringlichkeit;
else ()
: hohe Dringlichkeit;
endif
split 
:leer>
split again
    -[hidden]->
    :leer|
split again
    -[hidden]->
    :leer|
split again
-[hidden]->
    : leer;
end split
: leer
;
if (leer) then (leer)
:leer;
else
:leer;
endif
: leer
;
endif
split
    : leer;
    -[hidden]->
split again
    : leer |
    -[hidden]->   
end split 

@enduml

PlantUML version 1.2022.7(Mon Aug 22 19:01:30 CEST 2022)
(GPL source distribution)
Java Runtime: OpenJDK Runtime Environment
JVM: OpenJDK 64-Bit Server VM
Default Encoding: UTF-8
Language: de
Country: DE
--></g></svg>