<svg xmlns="http://www.w3.org/2000/svg" xmlns:xlink="http://www.w3.org/1999/xlink" contentStyleType="text/css" height="189px" preserveAspectRatio="none" style="width:650px;height:189px;background:#FFFFFF;" version="1.1" viewBox="0 0 650 189" width="650px" zoomAndPan="magnify"><defs/><g><line style="stroke:#181818;stroke-width:0.5;stroke-dasharray:5.0,5.0;" x1="29" x2="29" y1="36.4883" y2="154.4883"/><line style="stroke:#181818;stroke-width:0.5;stroke-dasharray:5.0,5.0;" x1="108.4717" x2="108.4717" y1="36.4883" y2="154.4883"/><line style="stroke:#181818;stroke-width:0.5;stroke-dasharray:5.0,5.0;" x1="188.3711" x2="188.3711" y1="36.4883" y2="154.4883"/><line style="stroke:#181818;stroke-width:0.5;stroke-dasharray:5.0,5.0;" x1="275.4873" x2="275.4873" y1="36.4883" y2="154.4883"/><line style="stroke:#181818;stroke-width:0.5;stroke-dasharray:5.0,5.0;" x1="363.2393" x2="363.2393" y1="36.4883" y2="154.4883"/><line style="stroke:#181818;stroke-width:0.5;stroke-dasharray:5.0,5.0;" x1="446.3555" x2="446.3555" y1="36.4883" y2="154.4883"/><line style="stroke:#181818;stroke-width:0.5;stroke-dasharray:5.0,5.0;" x1="539.2549" x2="539.2549" y1="36.4883" y2="154.4883"/><line style="stroke:#181818;stroke-width:0.5;stroke-dasharray:5.0,5.0;" x1="613.7627" x2="613.7627" y1="36.4883" y2="154.4883"/><rect fill="#E2E2F0" height="30.4883" rx="2.5" ry="2.5" style="stroke:#181818;stroke-width:0.5;" width="49.4717" x="5" y="5"/><text fill="#000000" font-family="sans-serif" font-size="14" lengthAdjust="spacing" textLength="35.4717" x="12" y="25.5352">input</text><rect fill="#E2E2F0" height="30.4883" rx="2.5" ry="2.5" style="stroke:#181818;stroke-width:0.5;" width="49.4717" x="5" y="153.4883"/><text fill="#000000" font-family="sans-serif" font-size="14" lengthAdjust="spacing" textLength="35.4717" x="12" y="174.0234">input</text><rect fill="#E2E2F0" height="30.4883" rx="2.5" ry="2.5" style="stroke:#181818;stroke-width:0.5;" width="89.8994" x="64.4717" y="5"/><text fill="#000000" font-family="sans-serif" font-size="14" lengthAdjust="spacing" textLength="75.8994" x="71.4717" y="25.5352">dense(512)</text><rect fill="#E2E2F0" height="30.4883" rx="2.5" ry="2.5" style="stroke:#181818;stroke-width:0.5;" width="89.8994" x="64.4717" y="153.4883"/><text fill="#000000" font-family="sans-serif" font-size="14" lengthAdjust="spacing" textLength="75.8994" x="71.4717" y="174.0234">dense(512)</text><rect fill="#E2E2F0" height="30.4883" rx="2.5" ry="2.5" style="stroke:#181818;stroke-width:0.5;" width="49.1162" x="164.3711" y="5"/><text fill="#000000" font-family="sans-serif" font-size="14" lengthAdjust="spacing" textLength="35.1162" x="171.3711" y="25.5352">relu1</text><rect fill="#E2E2F0" height="30.4883" rx="2.5" ry="2.5" style="stroke:#181818;stroke-width:0.5;" width="49.1162" x="164.3711" y="153.4883"/><text fill="#000000" font-family="sans-serif" font-size="14" lengthAdjust="spacing" textLength="35.1162" x="171.3711" y="174.0234">relu1</text><rect fill="#E2E2F0" height="30.4883" rx="2.5" ry="2.5" style="stroke:#181818;stroke-width:0.5;" width="105.752" x="223.4873" y="5"/><text fill="#000000" font-family="sans-serif" font-size="14" lengthAdjust="spacing" textLength="91.752" x="230.4873" y="25.5352">dense_2(512)</text><rect fill="#E2E2F0" height="30.4883" rx="2.5" ry="2.5" style="stroke:#181818;stroke-width:0.5;" width="105.752" x="223.4873" y="153.4883"/><text fill="#000000" font-family="sans-serif" font-size="14" lengthAdjust="spacing" textLength="91.752" x="230.4873" y="174.0234">dense_2(512)</text><rect fill="#E2E2F0" height="30.4883" rx="2.5" ry="2.5" style="stroke:#181818;stroke-width:0.5;" width="49.1162" x="339.2393" y="5"/><text fill="#000000" font-family="sans-serif" font-size="14" lengthAdjust="spacing" textLength="35.1162" x="346.2393" y="25.5352">relu2</text><rect fill="#E2E2F0" height="30.4883" rx="2.5" ry="2.5" style="stroke:#181818;stroke-width:0.5;" width="49.1162" x="339.2393" y="153.4883"/><text fill="#000000" font-family="sans-serif" font-size="14" lengthAdjust="spacing" textLength="35.1162" x="346.2393" y="174.0234">relu2</text><rect fill="#E2E2F0" height="30.4883" rx="2.5" ry="2.5" style="stroke:#181818;stroke-width:0.5;" width="96.8994" x="398.3555" y="5"/><text fill="#000000" font-family="sans-serif" font-size="14" lengthAdjust="spacing" textLength="82.8994" x="405.3555" y="25.5352">dense_3(10)</text><rect fill="#E2E2F0" height="30.4883" rx="2.5" ry="2.5" style="stroke:#181818;stroke-width:0.5;" width="96.8994" x="398.3555" y="153.4883"/><text fill="#000000" font-family="sans-serif" font-size="14" lengthAdjust="spacing" textLength="82.8994" x="405.3555" y="174.0234">dense_3(10)</text><rect fill="#E2E2F0" height="30.4883" rx="2.5" ry="2.5" style="stroke:#181818;stroke-width:0.5;" width="69.5078" x="505.2549" y="5"/><text fill="#000000" font-family="sans-serif" font-size="14" lengthAdjust="spacing" textLength="55.5078" x="512.2549" y="25.5352">softmax</text><rect fill="#E2E2F0" height="30.4883" rx="2.5" ry="2.5" style="stroke:#181818;stroke-width:0.5;" width="69.5078" x="505.2549" y="153.4883"/><text fill="#000000" font-family="sans-serif" font-size="14" lengthAdjust="spacing" textLength="55.5078" x="512.2549" y="174.0234">softmax</text><rect fill="#E2E2F0" height="30.4883" rx="2.5" ry="2.5" style="stroke:#181818;stroke-width:0.5;" width="59.2607" x="584.7627" y="5"/><text fill="#000000" font-family="sans-serif" font-size="14" lengthAdjust="spacing" textLength="45.2607" x="591.7627" y="25.5352">output</text><rect fill="#E2E2F0" height="30.4883" rx="2.5" ry="2.5" style="stroke:#181818;stroke-width:0.5;" width="59.2607" x="584.7627" y="153.4883"/><text fill="#000000" font-family="sans-serif" font-size="14" lengthAdjust="spacing" textLength="45.2607" x="591.7627" y="174.0234">output</text><polygon fill="#181818" points="97.4214,48.4883,107.4214,52.4883,97.4214,56.4883,101.4214,52.4883" style="stroke:#181818;stroke-width:1;"/><line style="stroke:#181818;stroke-width:1;" x1="29.7358" x2="103.4214" y1="52.4883" y2="52.4883"/><polygon fill="#181818" points="176.9292,62.4883,186.9292,66.4883,176.9292,70.4883,180.9292,66.4883" style="stroke:#181818;stroke-width:1;"/><line style="stroke:#181818;stroke-width:1;" x1="109.4214" x2="182.9292" y1="66.4883" y2="66.4883"/><polygon fill="#181818" points="264.3633,76.4883,274.3633,80.4883,264.3633,84.4883,268.3633,80.4883" style="stroke:#181818;stroke-width:1;"/><line style="stroke:#181818;stroke-width:1;" x1="188.9292" x2="270.3633" y1="80.4883" y2="80.4883"/><polygon fill="#181818" points="351.7974,90.4883,361.7974,94.4883,351.7974,98.4883,355.7974,94.4883" style="stroke:#181818;stroke-width:1;"/><line style="stroke:#181818;stroke-width:1;" x1="276.3633" x2="357.7974" y1="94.4883" y2="94.4883"/><polygon fill="#181818" points="434.8052,104.4883,444.8052,108.4883,434.8052,112.4883,438.8052,108.4883" style="stroke:#181818;stroke-width:1;"/><line style="stroke:#181818;stroke-width:1;" x1="363.7974" x2="440.8052" y1="108.4883" y2="108.4883"/><polygon fill="#181818" points="528.0088,118.4883,538.0088,122.4883,528.0088,126.4883,532.0088,122.4883" style="stroke:#181818;stroke-width:1;"/><line style="stroke:#181818;stroke-width:1;" x1="446.8052" x2="534.0088" y1="122.4883" y2="122.4883"/><polygon fill="#181818" points="602.3931,132.4883,612.3931,136.4883,602.3931,140.4883,606.3931,136.4883" style="stroke:#181818;stroke-width:1;"/><line style="stroke:#181818;stroke-width:1;" x1="540.0088" x2="608.3931" y1="136.4883" y2="136.4883"/><!--SRC=[oymhA2rHqBLJK4f9pIjErJ0rDD9KuaBcW2IBKdDA3Rd0949jl16AQXWNfju8hDu8IRsnXg41GZc41v8kpayhoKsiu8BI8A7yqXAGkm00]--></g></svg>