<?xml version="1.0" encoding="UTF-8" standalone="no"?><svg xmlns="http://www.w3.org/2000/svg" xmlns:xlink="http://www.w3.org/1999/xlink" contentStyleType="text/css" height="488px" preserveAspectRatio="none" style="width:871px;height:488px;background:#FFFFFF;" version="1.1" viewBox="0 0 871 488" width="871px" zoomAndPan="magnify"><defs/><g><!--MD5=[9a17d88036cda3886c97ba8bb934ec44]
class Legende--><g id="elem_Legende"><rect codeLine="1" fill="#F1F1F1" height="118.4375" id="Legende" rx="2.5" ry="2.5" style="stroke:#181818;stroke-width:0.5;" width="145" x="138" y="7"/><ellipse cx="178.65" cy="23" fill="#ADD1B2" rx="11" ry="11" style="stroke:#181818;stroke-width:1.0;"/><path d="M181.4156,18.875 Q181.5719,18.6563 181.7594,18.5469 Q181.9469,18.4375 182.1656,18.4375 Q182.5406,18.4375 182.775,18.7031 Q183.0094,18.9531 183.0094,19.5625 L183.0094,21.0156 Q183.0094,21.625 182.775,21.8906 Q182.5406,22.1563 182.1656,22.1563 Q181.8219,22.1563 181.6188,21.9531 Q181.4156,21.7656 181.3063,21.25 Q181.2594,20.8906 181.0719,20.7031 Q180.7438,20.3281 180.1344,20.1094 Q179.525,19.8906 178.9,19.8906 Q178.1344,19.8906 177.4938,20.2188 Q176.8688,20.5469 176.3688,21.2969 Q175.8844,22.0469 175.8844,23.0781 L175.8844,24.1719 Q175.8844,25.4063 176.775,26.2344 Q177.6656,27.0469 179.2594,27.0469 Q180.1969,27.0469 180.8531,26.7969 Q181.2438,26.6406 181.6656,26.2031 Q181.9313,25.9375 182.0719,25.8594 Q182.2281,25.7813 182.4313,25.7813 Q182.7594,25.7813 183.0094,26.0469 Q183.275,26.2969 183.275,26.6406 Q183.275,26.9844 182.9313,27.3906 Q182.4313,27.9688 181.6344,28.2969 Q180.5563,28.75 179.2594,28.75 Q177.7438,28.75 176.5406,28.125 Q175.5563,27.625 174.8688,26.5625 Q174.1813,25.4844 174.1813,24.2031 L174.1813,23.0469 Q174.1813,21.7188 174.7906,20.5781 Q175.4156,19.4219 176.5094,18.8125 Q177.6031,18.1875 178.8375,18.1875 Q179.5719,18.1875 180.2125,18.3594 Q180.8688,18.5156 181.4156,18.875 Z " fill="#000000"/><text fill="#000000" font-family="sans-serif" font-size="14" lengthAdjust="spacing" textLength="56" x="198.35" y="28.7285">Legende</text><line style="stroke:#181818;stroke-width:0.5;" x1="139" x2="282" y1="39" y2="39"/><text fill="#000000" font-family="sans-serif" font-size="14" lengthAdjust="spacing" textLength="133" x="144" y="57.5332">FAZ |               | FEZ |</text><text fill="#000000" font-family="sans-serif" font-size="14" lengthAdjust="spacing" textLength="106" x="144" y="75.1426">1   | Beispiel |     |</text><text fill="#000000" font-family="sans-serif" font-size="14" lengthAdjust="spacing" textLength="133" x="144" y="92.752">D   | GP            | FP  |</text><text fill="#000000" font-family="sans-serif" font-size="14" lengthAdjust="spacing" textLength="133" x="144" y="110.3613">SAZ |               | SEZ |</text><line style="stroke:#181818;stroke-width:0.5;" x1="139" x2="282" y1="117.4375" y2="117.4375"/></g><!--MD5=[a86914796289e7dc052475b369dec5b1]
class Entscheidung der Geschäftsführung--><g id="elem_Entscheidung der Geschäftsführung"><rect codeLine="7" fill="#F1F1F1" height="118.4375" id="Entscheidung der Geschäftsführung" rx="2.5" ry="2.5" style="stroke:#181818;stroke-width:0.5;" width="293" x="318" y="7"/><ellipse cx="347.85" cy="23" fill="#ADD1B2" rx="11" ry="11" style="stroke:#181818;stroke-width:1.0;"/><path d="M350.6156,18.875 Q350.7719,18.6563 350.9594,18.5469 Q351.1469,18.4375 351.3656,18.4375 Q351.7406,18.4375 351.975,18.7031 Q352.2094,18.9531 352.2094,19.5625 L352.2094,21.0156 Q352.2094,21.625 351.975,21.8906 Q351.7406,22.1563 351.3656,22.1563 Q351.0219,22.1563 350.8188,21.9531 Q350.6156,21.7656 350.5063,21.25 Q350.4594,20.8906 350.2719,20.7031 Q349.9438,20.3281 349.3344,20.1094 Q348.725,19.8906 348.1,19.8906 Q347.3344,19.8906 346.6938,20.2188 Q346.0688,20.5469 345.5688,21.2969 Q345.0844,22.0469 345.0844,23.0781 L345.0844,24.1719 Q345.0844,25.4063 345.975,26.2344 Q346.8656,27.0469 348.4594,27.0469 Q349.3969,27.0469 350.0531,26.7969 Q350.4438,26.6406 350.8656,26.2031 Q351.1313,25.9375 351.2719,25.8594 Q351.4281,25.7813 351.6313,25.7813 Q351.9594,25.7813 352.2094,26.0469 Q352.475,26.2969 352.475,26.6406 Q352.475,26.9844 352.1313,27.3906 Q351.6313,27.9688 350.8344,28.2969 Q349.7563,28.75 348.4594,28.75 Q346.9438,28.75 345.7406,28.125 Q344.7563,27.625 344.0688,26.5625 Q343.3813,25.4844 343.3813,24.2031 L343.3813,23.0469 Q343.3813,21.7188 343.9906,20.5781 Q344.6156,19.4219 345.7094,18.8125 Q346.8031,18.1875 348.0375,18.1875 Q348.7719,18.1875 349.4125,18.3594 Q350.0688,18.5156 350.6156,18.875 Z " fill="#000000"/><text fill="#000000" font-family="sans-serif" font-size="14" lengthAdjust="spacing" textLength="228" x="365.15" y="28.7285">Entscheidung der Geschäftsführung</text><line style="stroke:#181818;stroke-width:0.5;" x1="319" x2="610" y1="39" y2="39"/><text fill="#000000" font-family="sans-serif" font-size="14" lengthAdjust="spacing" textLength="133" x="324" y="57.5332">FAZ |               | FEZ |</text><text fill="#000000" font-family="sans-serif" font-size="14" lengthAdjust="spacing" textLength="281" x="324" y="75.1426">1   | Entscheidung der Geschäftsführung|     |</text><text fill="#000000" font-family="sans-serif" font-size="14" lengthAdjust="spacing" textLength="131" x="324" y="92.752">2   | GP            | FP  |</text><text fill="#000000" font-family="sans-serif" font-size="14" lengthAdjust="spacing" textLength="133" x="324" y="110.3613">SAZ |               | SEZ |</text><line style="stroke:#181818;stroke-width:0.5;" x1="319" x2="610" y1="117.4375" y2="117.4375"/></g><!--MD5=[731e0da5d93624a87444395d2add9b1e]
class Angebot einholen--><g id="elem_Angebot einholen"><rect codeLine="13" fill="#F1F1F1" height="118.4375" id="Angebot einholen" rx="2.5" ry="2.5" style="stroke:#181818;stroke-width:0.5;" width="176" x="264.5" y="185"/><ellipse cx="294.35" cy="201" fill="#ADD1B2" rx="11" ry="11" style="stroke:#181818;stroke-width:1.0;"/><path d="M297.1156,196.875 Q297.2719,196.6563 297.4594,196.5469 Q297.6469,196.4375 297.8656,196.4375 Q298.2406,196.4375 298.475,196.7031 Q298.7094,196.9531 298.7094,197.5625 L298.7094,199.0156 Q298.7094,199.625 298.475,199.8906 Q298.2406,200.1563 297.8656,200.1563 Q297.5219,200.1563 297.3188,199.9531 Q297.1156,199.7656 297.0063,199.25 Q296.9594,198.8906 296.7719,198.7031 Q296.4438,198.3281 295.8344,198.1094 Q295.225,197.8906 294.6,197.8906 Q293.8344,197.8906 293.1938,198.2188 Q292.5688,198.5469 292.0688,199.2969 Q291.5844,200.0469 291.5844,201.0781 L291.5844,202.1719 Q291.5844,203.4063 292.475,204.2344 Q293.3656,205.0469 294.9594,205.0469 Q295.8969,205.0469 296.5531,204.7969 Q296.9438,204.6406 297.3656,204.2031 Q297.6313,203.9375 297.7719,203.8594 Q297.9281,203.7813 298.1313,203.7813 Q298.4594,203.7813 298.7094,204.0469 Q298.975,204.2969 298.975,204.6406 Q298.975,204.9844 298.6313,205.3906 Q298.1313,205.9688 297.3344,206.2969 Q296.2563,206.75 294.9594,206.75 Q293.4438,206.75 292.2406,206.125 Q291.2563,205.625 290.5688,204.5625 Q289.8813,203.4844 289.8813,202.2031 L289.8813,201.0469 Q289.8813,199.7188 290.4906,198.5781 Q291.1156,197.4219 292.2094,196.8125 Q293.3031,196.1875 294.5375,196.1875 Q295.2719,196.1875 295.9125,196.3594 Q296.5688,196.5156 297.1156,196.875 Z " fill="#000000"/><text fill="#000000" font-family="sans-serif" font-size="14" lengthAdjust="spacing" textLength="111" x="311.65" y="206.7285">Angebot einholen</text><line style="stroke:#181818;stroke-width:0.5;" x1="265.5" x2="439.5" y1="217" y2="217"/><text fill="#000000" font-family="sans-serif" font-size="14" lengthAdjust="spacing" textLength="133" x="270.5" y="235.5332">FAZ |               | FEZ |</text><text fill="#000000" font-family="sans-serif" font-size="14" lengthAdjust="spacing" textLength="164" x="270.5" y="253.1426">1   | Angebot einholen|     |</text><text fill="#000000" font-family="sans-serif" font-size="14" lengthAdjust="spacing" textLength="139" x="270.5" y="270.752">14   | GP            | FP  |</text><text fill="#000000" font-family="sans-serif" font-size="14" lengthAdjust="spacing" textLength="133" x="270.5" y="288.3613">SAZ |               | SEZ |</text><line style="stroke:#181818;stroke-width:0.5;" x1="265.5" x2="439.5" y1="295.4375" y2="295.4375"/></g><!--MD5=[30f17514571a51108b288469ca1cc3d0]
class Mitarbeiterinformation--><g id="elem_Mitarbeiterinformation"><rect codeLine="19" fill="#F1F1F1" height="118.4375" id="Mitarbeiterinformation" rx="2.5" ry="2.5" style="stroke:#181818;stroke-width:0.5;" width="202" x="475.5" y="185"/><ellipse cx="505.35" cy="201" fill="#ADD1B2" rx="11" ry="11" style="stroke:#181818;stroke-width:1.0;"/><path d="M508.1156,196.875 Q508.2719,196.6563 508.4594,196.5469 Q508.6469,196.4375 508.8656,196.4375 Q509.2406,196.4375 509.475,196.7031 Q509.7094,196.9531 509.7094,197.5625 L509.7094,199.0156 Q509.7094,199.625 509.475,199.8906 Q509.2406,200.1563 508.8656,200.1563 Q508.5219,200.1563 508.3188,199.9531 Q508.1156,199.7656 508.0063,199.25 Q507.9594,198.8906 507.7719,198.7031 Q507.4438,198.3281 506.8344,198.1094 Q506.225,197.8906 505.6,197.8906 Q504.8344,197.8906 504.1938,198.2188 Q503.5688,198.5469 503.0688,199.2969 Q502.5844,200.0469 502.5844,201.0781 L502.5844,202.1719 Q502.5844,203.4063 503.475,204.2344 Q504.3656,205.0469 505.9594,205.0469 Q506.8969,205.0469 507.5531,204.7969 Q507.9438,204.6406 508.3656,204.2031 Q508.6313,203.9375 508.7719,203.8594 Q508.9281,203.7813 509.1313,203.7813 Q509.4594,203.7813 509.7094,204.0469 Q509.975,204.2969 509.975,204.6406 Q509.975,204.9844 509.6313,205.3906 Q509.1313,205.9688 508.3344,206.2969 Q507.2563,206.75 505.9594,206.75 Q504.4438,206.75 503.2406,206.125 Q502.2563,205.625 501.5688,204.5625 Q500.8813,203.4844 500.8813,202.2031 L500.8813,201.0469 Q500.8813,199.7188 501.4906,198.5781 Q502.1156,197.4219 503.2094,196.8125 Q504.3031,196.1875 505.5375,196.1875 Q506.2719,196.1875 506.9125,196.3594 Q507.5688,196.5156 508.1156,196.875 Z " fill="#000000"/><text fill="#000000" font-family="sans-serif" font-size="14" lengthAdjust="spacing" textLength="137" x="522.65" y="206.7285">Mitarbeiterinformation</text><line style="stroke:#181818;stroke-width:0.5;" x1="476.5" x2="676.5" y1="217" y2="217"/><text fill="#000000" font-family="sans-serif" font-size="14" lengthAdjust="spacing" textLength="133" x="481.5" y="235.5332">FAZ |               | FEZ |</text><text fill="#000000" font-family="sans-serif" font-size="14" lengthAdjust="spacing" textLength="190" x="481.5" y="253.1426">1   | Mitarbeiterinformation|     |</text><text fill="#000000" font-family="sans-serif" font-size="14" lengthAdjust="spacing" textLength="131" x="481.5" y="270.752">1   | GP            | FP  |</text><text fill="#000000" font-family="sans-serif" font-size="14" lengthAdjust="spacing" textLength="133" x="481.5" y="288.3613">SAZ |               | SEZ |</text><line style="stroke:#181818;stroke-width:0.5;" x1="476.5" x2="676.5" y1="295.4375" y2="295.4375"/></g><!--MD5=[31862ba0254261ee451b0d2dc63e464c]
class Testen des Gerätes 1--><g id="elem_Testen des Gerätes 1"><rect codeLine="25" fill="#F1F1F1" height="118.4375" id="Testen des Gerätes 1" rx="2.5" ry="2.5" style="stroke:#181818;stroke-width:0.5;" width="207" x="7" y="363"/><ellipse cx="38.65" cy="379" fill="#ADD1B2" rx="11" ry="11" style="stroke:#181818;stroke-width:1.0;"/><path d="M41.4156,374.875 Q41.5719,374.6563 41.7594,374.5469 Q41.9469,374.4375 42.1656,374.4375 Q42.5406,374.4375 42.775,374.7031 Q43.0094,374.9531 43.0094,375.5625 L43.0094,377.0156 Q43.0094,377.625 42.775,377.8906 Q42.5406,378.1563 42.1656,378.1563 Q41.8219,378.1563 41.6188,377.9531 Q41.4156,377.7656 41.3063,377.25 Q41.2594,376.8906 41.0719,376.7031 Q40.7438,376.3281 40.1344,376.1094 Q39.525,375.8906 38.9,375.8906 Q38.1344,375.8906 37.4938,376.2188 Q36.8688,376.5469 36.3688,377.2969 Q35.8844,378.0469 35.8844,379.0781 L35.8844,380.1719 Q35.8844,381.4063 36.775,382.2344 Q37.6656,383.0469 39.2594,383.0469 Q40.1969,383.0469 40.8531,382.7969 Q41.2438,382.6406 41.6656,382.2031 Q41.9313,381.9375 42.0719,381.8594 Q42.2281,381.7813 42.4313,381.7813 Q42.7594,381.7813 43.0094,382.0469 Q43.275,382.2969 43.275,382.6406 Q43.275,382.9844 42.9313,383.3906 Q42.4313,383.9688 41.6344,384.2969 Q40.5563,384.75 39.2594,384.75 Q37.7438,384.75 36.5406,384.125 Q35.5563,383.625 34.8688,382.5625 Q34.1813,381.4844 34.1813,380.2031 L34.1813,379.0469 Q34.1813,377.7188 34.7906,376.5781 Q35.4156,375.4219 36.5094,374.8125 Q37.6031,374.1875 38.8375,374.1875 Q39.5719,374.1875 40.2125,374.3594 Q40.8688,374.5156 41.4156,374.875 Z " fill="#000000"/><text fill="#000000" font-family="sans-serif" font-size="14" lengthAdjust="spacing" textLength="138" x="56.35" y="384.7285">Testen des Gerätes 1</text><line style="stroke:#181818;stroke-width:0.5;" x1="8" x2="213" y1="395" y2="395"/><text fill="#000000" font-family="sans-serif" font-size="14" lengthAdjust="spacing" textLength="133" x="13" y="413.5332">FAZ |               | FEZ |</text><text fill="#000000" font-family="sans-serif" font-size="14" lengthAdjust="spacing" textLength="195" x="13" y="431.1426">1   | Testen des Gerätes 1 |     |</text><text fill="#000000" font-family="sans-serif" font-size="14" lengthAdjust="spacing" textLength="131" x="13" y="448.752">1   | GP            | FP  |</text><text fill="#000000" font-family="sans-serif" font-size="14" lengthAdjust="spacing" textLength="133" x="13" y="466.3613">SAZ |               | SEZ |</text><line style="stroke:#181818;stroke-width:0.5;" x1="8" x2="213" y1="473.4375" y2="473.4375"/></g><!--MD5=[ab01f34f18fc2625c356843d359647c1]
class Testen des Gerätes 2--><g id="elem_Testen des Gerätes 2"><rect codeLine="31" fill="#F1F1F1" height="118.4375" id="Testen des Gerätes 2" rx="2.5" ry="2.5" style="stroke:#181818;stroke-width:0.5;" width="207" x="249" y="363"/><ellipse cx="280.65" cy="379" fill="#ADD1B2" rx="11" ry="11" style="stroke:#181818;stroke-width:1.0;"/><path d="M283.4156,374.875 Q283.5719,374.6563 283.7594,374.5469 Q283.9469,374.4375 284.1656,374.4375 Q284.5406,374.4375 284.775,374.7031 Q285.0094,374.9531 285.0094,375.5625 L285.0094,377.0156 Q285.0094,377.625 284.775,377.8906 Q284.5406,378.1563 284.1656,378.1563 Q283.8219,378.1563 283.6188,377.9531 Q283.4156,377.7656 283.3063,377.25 Q283.2594,376.8906 283.0719,376.7031 Q282.7438,376.3281 282.1344,376.1094 Q281.525,375.8906 280.9,375.8906 Q280.1344,375.8906 279.4938,376.2188 Q278.8688,376.5469 278.3688,377.2969 Q277.8844,378.0469 277.8844,379.0781 L277.8844,380.1719 Q277.8844,381.4063 278.775,382.2344 Q279.6656,383.0469 281.2594,383.0469 Q282.1969,383.0469 282.8531,382.7969 Q283.2438,382.6406 283.6656,382.2031 Q283.9313,381.9375 284.0719,381.8594 Q284.2281,381.7813 284.4313,381.7813 Q284.7594,381.7813 285.0094,382.0469 Q285.275,382.2969 285.275,382.6406 Q285.275,382.9844 284.9313,383.3906 Q284.4313,383.9688 283.6344,384.2969 Q282.5563,384.75 281.2594,384.75 Q279.7438,384.75 278.5406,384.125 Q277.5563,383.625 276.8688,382.5625 Q276.1813,381.4844 276.1813,380.2031 L276.1813,379.0469 Q276.1813,377.7188 276.7906,376.5781 Q277.4156,375.4219 278.5094,374.8125 Q279.6031,374.1875 280.8375,374.1875 Q281.5719,374.1875 282.2125,374.3594 Q282.8688,374.5156 283.4156,374.875 Z " fill="#000000"/><text fill="#000000" font-family="sans-serif" font-size="14" lengthAdjust="spacing" textLength="138" x="298.35" y="384.7285">Testen des Gerätes 2</text><line style="stroke:#181818;stroke-width:0.5;" x1="250" x2="455" y1="395" y2="395"/><text fill="#000000" font-family="sans-serif" font-size="14" lengthAdjust="spacing" textLength="133" x="255" y="413.5332">FAZ |               | FEZ |</text><text fill="#000000" font-family="sans-serif" font-size="14" lengthAdjust="spacing" textLength="195" x="255" y="431.1426">1   | Testen des Gerätes 2 |     |</text><text fill="#000000" font-family="sans-serif" font-size="14" lengthAdjust="spacing" textLength="131" x="255" y="448.752">1   | GP            | FP  |</text><text fill="#000000" font-family="sans-serif" font-size="14" lengthAdjust="spacing" textLength="133" x="255" y="466.3613">SAZ |               | SEZ |</text><line style="stroke:#181818;stroke-width:0.5;" x1="250" x2="455" y1="473.4375" y2="473.4375"/></g><!--MD5=[bbda3a390bddf6a8a0fd198e5373483f]
class Testen des Gerätes 3--><g id="elem_Testen des Gerätes 3"><rect codeLine="37" fill="#F1F1F1" height="118.4375" id="Testen des Gerätes 3" rx="2.5" ry="2.5" style="stroke:#181818;stroke-width:0.5;" width="207" x="491" y="363"/><ellipse cx="522.65" cy="379" fill="#ADD1B2" rx="11" ry="11" style="stroke:#181818;stroke-width:1.0;"/><path d="M525.4156,374.875 Q525.5719,374.6563 525.7594,374.5469 Q525.9469,374.4375 526.1656,374.4375 Q526.5406,374.4375 526.775,374.7031 Q527.0094,374.9531 527.0094,375.5625 L527.0094,377.0156 Q527.0094,377.625 526.775,377.8906 Q526.5406,378.1563 526.1656,378.1563 Q525.8219,378.1563 525.6188,377.9531 Q525.4156,377.7656 525.3063,377.25 Q525.2594,376.8906 525.0719,376.7031 Q524.7438,376.3281 524.1344,376.1094 Q523.525,375.8906 522.9,375.8906 Q522.1344,375.8906 521.4938,376.2188 Q520.8688,376.5469 520.3688,377.2969 Q519.8844,378.0469 519.8844,379.0781 L519.8844,380.1719 Q519.8844,381.4063 520.775,382.2344 Q521.6656,383.0469 523.2594,383.0469 Q524.1969,383.0469 524.8531,382.7969 Q525.2438,382.6406 525.6656,382.2031 Q525.9313,381.9375 526.0719,381.8594 Q526.2281,381.7813 526.4313,381.7813 Q526.7594,381.7813 527.0094,382.0469 Q527.275,382.2969 527.275,382.6406 Q527.275,382.9844 526.9313,383.3906 Q526.4313,383.9688 525.6344,384.2969 Q524.5563,384.75 523.2594,384.75 Q521.7438,384.75 520.5406,384.125 Q519.5563,383.625 518.8688,382.5625 Q518.1813,381.4844 518.1813,380.2031 L518.1813,379.0469 Q518.1813,377.7188 518.7906,376.5781 Q519.4156,375.4219 520.5094,374.8125 Q521.6031,374.1875 522.8375,374.1875 Q523.5719,374.1875 524.2125,374.3594 Q524.8688,374.5156 525.4156,374.875 Z " fill="#000000"/><text fill="#000000" font-family="sans-serif" font-size="14" lengthAdjust="spacing" textLength="138" x="540.35" y="384.7285">Testen des Gerätes 3</text><line style="stroke:#181818;stroke-width:0.5;" x1="492" x2="697" y1="395" y2="395"/><text fill="#000000" font-family="sans-serif" font-size="14" lengthAdjust="spacing" textLength="133" x="497" y="413.5332">FAZ |               | FEZ |</text><text fill="#000000" font-family="sans-serif" font-size="14" lengthAdjust="spacing" textLength="195" x="497" y="431.1426">1   | Testen des Gerätes 3 |     |</text><text fill="#000000" font-family="sans-serif" font-size="14" lengthAdjust="spacing" textLength="131" x="497" y="448.752">1   | GP            | FP  |</text><text fill="#000000" font-family="sans-serif" font-size="14" lengthAdjust="spacing" textLength="133" x="497" y="466.3613">SAZ |               | SEZ |</text><line style="stroke:#181818;stroke-width:0.5;" x1="492" x2="697" y1="473.4375" y2="473.4375"/></g><!--MD5=[c8a46ce7129fbc4ad6d65ad5ec816ca5]
class Auswahl der Lieferanten--><g id="elem_Auswahl der Lieferanten"><rect codeLine="43" fill="#F1F1F1" height="118.4375" id="Auswahl der Lieferanten" rx="2.5" ry="2.5" style="stroke:#181818;stroke-width:0.5;" width="218" x="646.5" y="7"/><ellipse cx="676.35" cy="23" fill="#ADD1B2" rx="11" ry="11" style="stroke:#181818;stroke-width:1.0;"/><path d="M679.1156,18.875 Q679.2719,18.6563 679.4594,18.5469 Q679.6469,18.4375 679.8656,18.4375 Q680.2406,18.4375 680.475,18.7031 Q680.7094,18.9531 680.7094,19.5625 L680.7094,21.0156 Q680.7094,21.625 680.475,21.8906 Q680.2406,22.1563 679.8656,22.1563 Q679.5219,22.1563 679.3188,21.9531 Q679.1156,21.7656 679.0063,21.25 Q678.9594,20.8906 678.7719,20.7031 Q678.4438,20.3281 677.8344,20.1094 Q677.225,19.8906 676.6,19.8906 Q675.8344,19.8906 675.1938,20.2188 Q674.5688,20.5469 674.0688,21.2969 Q673.5844,22.0469 673.5844,23.0781 L673.5844,24.1719 Q673.5844,25.4063 674.475,26.2344 Q675.3656,27.0469 676.9594,27.0469 Q677.8969,27.0469 678.5531,26.7969 Q678.9438,26.6406 679.3656,26.2031 Q679.6313,25.9375 679.7719,25.8594 Q679.9281,25.7813 680.1313,25.7813 Q680.4594,25.7813 680.7094,26.0469 Q680.975,26.2969 680.975,26.6406 Q680.975,26.9844 680.6313,27.3906 Q680.1313,27.9688 679.3344,28.2969 Q678.2563,28.75 676.9594,28.75 Q675.4438,28.75 674.2406,28.125 Q673.2563,27.625 672.5688,26.5625 Q671.8813,25.4844 671.8813,24.2031 L671.8813,23.0469 Q671.8813,21.7188 672.4906,20.5781 Q673.1156,19.4219 674.2094,18.8125 Q675.3031,18.1875 676.5375,18.1875 Q677.2719,18.1875 677.9125,18.3594 Q678.5688,18.5156 679.1156,18.875 Z " fill="#000000"/><text fill="#000000" font-family="sans-serif" font-size="14" lengthAdjust="spacing" textLength="153" x="693.65" y="28.7285">Auswahl der Lieferanten</text><line style="stroke:#181818;stroke-width:0.5;" x1="647.5" x2="863.5" y1="39" y2="39"/><text fill="#000000" font-family="sans-serif" font-size="14" lengthAdjust="spacing" textLength="133" x="652.5" y="57.5332">FAZ |               | FEZ |</text><text fill="#000000" font-family="sans-serif" font-size="14" lengthAdjust="spacing" textLength="206" x="652.5" y="75.1426">1   | Auswahl der Lieferanten|     |</text><text fill="#000000" font-family="sans-serif" font-size="14" lengthAdjust="spacing" textLength="131" x="652.5" y="92.752">1   | GP            | FP  |</text><text fill="#000000" font-family="sans-serif" font-size="14" lengthAdjust="spacing" textLength="133" x="652.5" y="110.3613">SAZ |               | SEZ |</text><line style="stroke:#181818;stroke-width:0.5;" x1="647.5" x2="863.5" y1="117.4375" y2="117.4375"/></g><!--MD5=[a17a0831027d71853157e5abd043204e]
link Entscheidung der Geschäftsführung to Angebot einholen--><g id="link_Entscheidung der Geschäftsführung_Angebot einholen"><path codeLine="49" d="M427.52,125.12 C416.24,142.84 403.79,162.4 392.34,180.4 " fill="none" id="Entscheidung der Geschäftsführung-to-Angebot einholen" style="stroke:#181818;stroke-width:1.0;"/><polygon fill="#181818" points="389.44,184.94,397.6418,179.4874,392.1207,180.7193,390.8887,175.1983,389.44,184.94" style="stroke:#181818;stroke-width:1.0;"/></g><!--MD5=[b360d04af8df03712f62fea1472b03af]
link Entscheidung der Geschäftsführung to Mitarbeiterinformation--><g id="link_Entscheidung der Geschäftsführung_Mitarbeiterinformation"><path codeLine="50" d="M501.48,125.12 C512.76,142.84 525.21,162.4 536.66,180.4 " fill="none" id="Entscheidung der Geschäftsführung-to-Mitarbeiterinformation" style="stroke:#181818;stroke-width:1.0;"/><polygon fill="#181818" points="539.56,184.94,538.1113,175.1983,536.8793,180.7193,531.3582,179.4874,539.56,184.94" style="stroke:#181818;stroke-width:1.0;"/></g><!--MD5=[915f46905243ee26344bad2ea3c241d5]
link Angebot einholen to Testen des Gerätes 1--><g id="link_Angebot einholen_Testen des Gerätes 1"><path codeLine="51" d="M272.59,303.12 C247.5,321.36 219.73,341.56 194.37,360 " fill="none" id="Angebot einholen-to-Testen des Gerätes 1" style="stroke:#181818;stroke-width:1.0;"/><polygon fill="#181818" points="190.33,362.94,199.9604,360.8774,194.3724,359.9974,195.2524,354.4094,190.33,362.94" style="stroke:#181818;stroke-width:1.0;"/></g><!--MD5=[5afe42df3be48b6c5339b02931fa1be0]
link Angebot einholen to Testen des Gerätes 2--><g id="link_Angebot einholen_Testen des Gerätes 2"><path codeLine="52" d="M352.5,303.12 C352.5,320.69 352.5,340.07 352.5,357.94 " fill="none" id="Angebot einholen-to-Testen des Gerätes 2" style="stroke:#181818;stroke-width:1.0;"/><polygon fill="#181818" points="352.5,362.94,356.5,353.94,352.5,357.94,348.5,353.94,352.5,362.94" style="stroke:#181818;stroke-width:1.0;"/></g><!--MD5=[02e3e37545b8bde98a6a1c59904f0fd3]
link Angebot einholen to Testen des Gerätes 3--><g id="link_Angebot einholen_Testen des Gerätes 3"><path codeLine="53" d="M432.41,303.12 C457.5,321.36 485.27,341.56 510.63,360 " fill="none" id="Angebot einholen-to-Testen des Gerätes 3" style="stroke:#181818;stroke-width:1.0;"/><polygon fill="#181818" points="514.67,362.94,509.7476,354.4094,510.6276,359.9974,505.0396,360.8774,514.67,362.94" style="stroke:#181818;stroke-width:1.0;"/></g><!--MD5=[84faf2514f69cbd0aca76286dfa07208]
@startuml
class Legende {
    FAZ |               | FEZ |
1   | Beispiel |     |
D   | GP            | FP  |
SAZ |               | SEZ |
}
class "Entscheidung der Geschäftsführung" {
FAZ |               | FEZ |
1   | Entscheidung der Geschäftsführung|     |
2   | GP            | FP  |
SAZ |               | SEZ |
}
class "Angebot einholen" {
    FAZ |               | FEZ |
1   | Angebot einholen|     |
14   | GP            | FP  |
SAZ |               | SEZ |
}
class "Mitarbeiterinformation" {
    FAZ |               | FEZ |
1   | Mitarbeiterinformation|     |
1   | GP            | FP  |
SAZ |               | SEZ |
}
class "Testen des Gerätes 1" {
    FAZ |               | FEZ |
1   | Testen des Gerätes 1 |     |
1   | GP            | FP  |
SAZ |               | SEZ |
}
class "Testen des Gerätes 2" {
    FAZ |               | FEZ |
1   | Testen des Gerätes 2 |     |
1   | GP            | FP  |
SAZ |               | SEZ |
}
class "Testen des Gerätes 3" {
    FAZ |               | FEZ |
1   | Testen des Gerätes 3 |     |
1   | GP            | FP  |
SAZ |               | SEZ |
}
class "Auswahl der Lieferanten" {
    FAZ |               | FEZ |
1   | Auswahl der Lieferanten|     |
1   | GP            | FP  |
SAZ |               | SEZ |
}
"Entscheidung der Geschäftsführung" - -> "Angebot einholen" 
"Entscheidung der Geschäftsführung"  - -> "Mitarbeiterinformation"
"Angebot einholen" - -> "Testen des Gerätes 1"
"Angebot einholen" - -> "Testen des Gerätes 2"
"Angebot einholen" - -> "Testen des Gerätes 3"

@enduml

PlantUML version 1.2022.7(Mon Aug 22 19:01:30 CEST 2022)
(GPL source distribution)
Java Runtime: OpenJDK Runtime Environment
JVM: OpenJDK 64-Bit Server VM
Default Encoding: UTF-8
Language: de
Country: DE
--></g></svg>