<svg xmlns="http://www.w3.org/2000/svg" xmlns:xlink="http://www.w3.org/1999/xlink" contentStyleType="text/css" height="252px" preserveAspectRatio="none" style="width:547px;height:252px;background:#FFFFFF;" version="1.1" viewBox="0 0 547 252" width="547px" zoomAndPan="magnify"><defs/><g><path d="M159.28,7 L233.0505,7 A12.5,12.5 0 0 1 245.5505,19.5 L245.5505,33.4883 L146.78,33.4883 L146.78,19.5 A12.5,12.5 0 0 1 159.28,7 " fill="#F1F1F1" style="stroke:#F1F1F1;stroke-width:1;"/><rect fill="none" height="239.4883" rx="12.5" ry="12.5" style="stroke:#181818;stroke-width:0.5;" width="98.7705" x="146.78" y="7"/><line style="stroke:#181818;stroke-width:0.5;" x1="146.78" x2="245.5505" y1="33.4883" y2="33.4883"/><text fill="#000000" font-family="sans-serif" font-size="14" lengthAdjust="spacing" textLength="37.6592" x="177.3357" y="25.5352">Offen</text><ellipse cx="197.67" cy="54.4883" fill="#222222" rx="10" ry="10" style="stroke:#222222;stroke-width:1;"/><g id="Offen.Arbeiten"><rect fill="#F1F1F1" height="50" rx="12.5" ry="12.5" style="stroke:#181818;stroke-width:0.5;" width="77.7705" x="158.78" y="100.4883"/><line style="stroke:#181818;stroke-width:0.5;" x1="158.78" x2="236.5505" y1="126.9766" y2="126.9766"/><text fill="#000000" font-family="sans-serif" font-size="14" lengthAdjust="spacing" textLength="57.7705" x="168.78" y="119.0234">Arbeiten</text></g><g id="Offen.Pause"><rect fill="#F1F1F1" height="50" rx="12.5" ry="12.5" style="stroke:#181818;stroke-width:0.5;" width="59.0947" x="168.12" y="186.4883"/><line style="stroke:#181818;stroke-width:0.5;" x1="168.12" x2="227.2147" y1="212.9766" y2="212.9766"/><text fill="#000000" font-family="sans-serif" font-size="14" lengthAdjust="spacing" textLength="39.0947" x="178.12" y="205.0234">Pause</text></g><!--link *start*Offen to Arbeiten--><g id="link_*start*Offen_Arbeiten"><path d="M197.67,64.7983 C197.67,73.8383 197.67,81.9783 197.67,94.2183 " fill="none" id="*start*Offen-to-Arbeiten" style="stroke:#181818;stroke-width:1;"/><polygon fill="#181818" points="197.67,100.2183,201.67,91.2183,197.67,95.2183,193.67,91.2183,197.67,100.2183" style="stroke:#181818;stroke-width:1;"/></g><!--link Arbeiten to Pause--><g id="link_Arbeiten_Pause"><path d="M197.67,150.7883 C197.67,161.9283 197.67,169.1083 197.67,180.2483 " fill="none" id="Arbeiten-to-Pause" style="stroke:#181818;stroke-width:1;"/><polygon fill="#181818" points="197.67,186.2483,201.67,177.2483,197.67,181.2483,193.67,177.2483,197.67,186.2483" style="stroke:#181818;stroke-width:1;"/></g><g id="Geschlossen"><rect fill="#F1F1F1" height="50" rx="12.5" ry="12.5" style="stroke:#181818;stroke-width:0.5;" width="104.3213" x="7" y="101.75"/><line style="stroke:#181818;stroke-width:0.5;" x1="7" x2="111.3213" y1="128.2383" y2="128.2383"/><text fill="#000000" font-family="sans-serif" font-size="14" lengthAdjust="spacing" textLength="84.3213" x="17" y="120.2852">Geschlossen</text></g><path d="M293.16,17.4 L521.16,17.4 A12.5,12.5 0 0 1 533.66,29.9 L533.66,43.8883 L280.66,43.8883 L280.66,29.9 A12.5,12.5 0 0 1 293.16,17.4 " fill="#F1F1F1" style="stroke:#F1F1F1;stroke-width:1;"/><rect fill="none" height="218.6883" rx="12.5" ry="12.5" style="stroke:#181818;stroke-width:0.5;" width="253" x="280.66" y="17.4"/><line style="stroke:#181818;stroke-width:0.5;" x1="280.66" x2="533.66" y1="43.8883" y2="43.8883"/><text fill="#000000" font-family="sans-serif" font-size="14" lengthAdjust="spacing" textLength="96.6738" x="358.8231" y="35.9352">Buchhandlung</text><ellipse cx="301.66" cy="108.7383" fill="#222222" rx="10" ry="10" style="stroke:#222222;stroke-width:1;"/><g id="Buchhandlung.Suchnend"><rect fill="#F1F1F1" height="50" rx="12.5" ry="12.5" style="stroke:#181818;stroke-width:0.5;" width="86.0762" x="329.62" y="83.7383"/><line style="stroke:#181818;stroke-width:0.5;" x1="329.62" x2="415.6962" y1="110.2266" y2="110.2266"/><text fill="#000000" font-family="sans-serif" font-size="14" lengthAdjust="spacing" textLength="66.0762" x="339.62" y="102.2734">Suchnend</text></g><ellipse cx="514.66" cy="108.7383" fill="none" rx="11" ry="11" style="stroke:#222222;stroke-width:1;"/><ellipse cx="514.66" cy="108.7383" fill="#222222" rx="6" ry="6" style="stroke:#222222;stroke-width:1;"/><g id="elem_GMN2"><path d="M433.22,96.0783 L433.22,104.7383 L416.16,108.7383 L433.22,112.7383 L433.22,121.3888 A0,0 0 0 0 433.22,121.3888 L486.1043,121.3888 A0,0 0 0 0 486.1043,121.3888 L486.1043,106.0783 L476.1043,96.0783 L433.22,96.0783 A0,0 0 0 0 433.22,96.0783 " fill="#FEFFDD" style="stroke:#181818;stroke-width:0.5;"/><path d="M476.1043,96.0783 L476.1043,106.0783 L486.1043,106.0783 L476.1043,96.0783 " fill="#FEFFDD" style="stroke:#181818;stroke-width:0.5;"/><text fill="#000000" font-family="sans-serif" font-size="13" lengthAdjust="spacing" textLength="31.8843" x="439.22" y="113.6466">Geist</text></g><!--link *start*Buchhandlung to Suchnend--><g id="link_*start*Buchhandlung_Suchnend"><path d="M311.92,108.7383 C317.77,108.7383 317.63,108.7383 323.48,108.7383 " fill="none" id="*start*Buchhandlung-to-Suchnend" style="stroke:#181818;stroke-width:1;"/><polygon fill="#181818" points="329.48,108.7383,320.48,104.7383,324.48,108.7383,320.48,112.7383,329.48,108.7383" style="stroke:#181818;stroke-width:1;"/></g><!--link Suchnend to *end*Buchhandlung--><g id="link_Suchnend_*end*Buchhandlung"><path d="M401.08,83.2983 C410.74,76.1983 422.05,69.4183 433.66,65.7383 C455.69,58.7583 465.25,54.8883 485.66,65.7383 C498.38,72.4983 504.2246,82.0689 508.5446,92.4489 " fill="none" id="Suchnend-to-*end*Buchhandlung" style="stroke:#181818;stroke-width:1;"/><polygon fill="#181818" points="510.85,97.9883,511.0848,88.1422,508.9288,93.3721,503.6989,91.2161,510.85,97.9883" style="stroke:#181818;stroke-width:1;"/></g><line style="stroke:#181818;stroke-width:1.5;stroke-dasharray:8.0,10.0;" x1="285.66" x2="526.66" y1="138.7383" y2="138.7383"/><ellipse cx="301.66" cy="201.0883" fill="#222222" rx="10" ry="10" style="stroke:#222222;stroke-width:1;"/><g id="Buchhandlung.CONC2.Gehend"><rect fill="#F1F1F1" height="50" rx="12.5" ry="12.5" style="stroke:#181818;stroke-width:0.5;" width="71.9053" x="329.71" y="176.0883"/><line style="stroke:#181818;stroke-width:0.5;" x1="329.71" x2="401.6153" y1="202.5766" y2="202.5766"/><text fill="#000000" font-family="sans-serif" font-size="14" lengthAdjust="spacing" textLength="51.9053" x="339.71" y="194.6234">Gehend</text></g><ellipse cx="512.66" cy="201.0883" fill="none" rx="11" ry="11" style="stroke:#222222;stroke-width:1;"/><ellipse cx="512.66" cy="201.0883" fill="#222222" rx="6" ry="6" style="stroke:#222222;stroke-width:1;"/><g id="elem_GMN5"><path d="M419.89,188.4283 L419.89,197.0883 L401.94,201.0883 L419.89,205.0883 L419.89,213.7388 A0,0 0 0 0 419.89,213.7388 L483.4256,213.7388 A0,0 0 0 0 483.4256,213.7388 L483.4256,198.4283 L473.4256,188.4283 L419.89,188.4283 A0,0 0 0 0 419.89,188.4283 " fill="#FEFFDD" style="stroke:#181818;stroke-width:0.5;"/><path d="M473.4256,188.4283 L473.4256,198.4283 L483.4256,198.4283 L473.4256,188.4283 " fill="#FEFFDD" style="stroke:#181818;stroke-width:0.5;"/><text fill="#000000" font-family="sans-serif" font-size="13" lengthAdjust="spacing" textLength="42.5356" x="425.89" y="205.9966">K&#246;rper</text></g><!--link *start*CONC2 to Gehend--><g id="link_*start*CONC2_Gehend"><path d="M312.16,201.0883 C317.87,201.0883 317.58,201.0883 323.3,201.0883 " fill="none" id="*start*CONC2-to-Gehend" style="stroke:#181818;stroke-width:1;"/><polygon fill="#181818" points="329.3,201.0883,320.3,197.0883,324.3,201.0883,320.3,205.0883,329.3,201.0883" style="stroke:#181818;stroke-width:1;"/></g><!--link Gehend to *end*CONC2--><g id="link_Gehend_*end*CONC2"><path d="M390.39,175.6883 C398.92,168.5883 409.03,161.8083 419.66,158.0883 C446.51,148.7083 458.55,144.7383 483.66,158.0883 C496.38,164.8483 502.2246,174.4189 506.5446,184.7989 " fill="none" id="Gehend-to-*end*CONC2" style="stroke:#181818;stroke-width:1;"/><polygon fill="#181818" points="508.85,190.3383,509.0848,180.4922,506.9288,185.7221,501.6989,183.5661,508.85,190.3383" style="stroke:#181818;stroke-width:1;"/></g><!--link Geschlossen to Offen--><g id="link_Geschlossen_Offen"><path d="M111.61,126.75 C123.17,126.75 128.73,126.75 140.29,126.75 " fill="none" id="Geschlossen-to-Offen" style="stroke:#181818;stroke-width:1;"/><polygon fill="#181818" points="146.29,126.75,137.29,122.75,141.29,126.75,137.29,130.75,146.29,126.75" style="stroke:#181818;stroke-width:1;"/></g><!--SRC=[VOuz2i9048NxFSLqWh1N26YJmaB1Jh68SP89X5dPdqfoBI_WnNn9o8-DrRxzvfl7K8X5P3fM5Ikz3D5rUoDhCzhvEpUH5MYA0pyLAR2Xpj2ucNCefNKX3Ehg1tTe1TsGyr5SxRHeKND9MDM7mMJisATI1AHDMYz7P7G6LuP9S-mnfY3giEcRMYAvQgtct8I8jxTx2T7QfJHdcJpvKpXhXy_RFzd_5dRc2m00]--></g></svg>