<svg xmlns="http://www.w3.org/2000/svg" xmlns:xlink="http://www.w3.org/1999/xlink" contentStyleType="text/css" height="286px" preserveAspectRatio="none" style="width:1490px;height:286px;background:#FFFFFF;" version="1.1" viewBox="0 0 1490 286" width="1490px" zoomAndPan="magnify"><defs/><g><g id="buch"><rect fill="#F1F1F1" height="78.8867" rx="12.5" ry="12.5" style="stroke:#181818;stroke-width:0.5;" width="185.7852" x="427.74" y="41.05"/><line style="stroke:#181818;stroke-width:0.5;" x1="427.74" x2="613.5252" y1="67.5383" y2="67.5383"/><text fill="#000000" font-family="sans-serif" font-size="14" lengthAdjust="spacing" textLength="140.5947" x="450.3352" y="59.5852">In der Buchhandlung</text><text fill="#000000" font-family="sans-serif" font-size="12" lengthAdjust="spacing" textLength="94.1719" x="432.74" y="84.1398">entry/&#246;ffneT&#252;r()</text><text fill="#000000" font-family="sans-serif" font-size="12" lengthAdjust="spacing" textLength="95.5898" x="432.74" y="98.2727">do/umschauen()</text><text fill="#000000" font-family="sans-serif" font-size="12" lengthAdjust="spacing" textLength="165.7852" x="432.74" y="112.4055">exit/verlasseBuchhandlung()</text></g><g id="weg"><rect fill="#F1F1F1" height="50" rx="12.5" ry="12.5" style="stroke:#181818;stroke-width:0.5;" width="167.2734" x="7" y="55.49"/><line style="stroke:#181818;stroke-width:0.5;" x1="7" x2="174.2734" y1="81.9783" y2="81.9783"/><text fill="#000000" font-family="sans-serif" font-size="14" lengthAdjust="spacing" textLength="147.2734" x="17" y="74.0252">Buch nicht vorhanden</text></g><g id="da"><rect fill="#F1F1F1" height="50" rx="12.5" ry="12.5" style="stroke:#181818;stroke-width:0.5;" width="121.2813" x="271" y="55.49"/><line style="stroke:#181818;stroke-width:0.5;" x1="271" x2="392.2813" y1="81.9783" y2="81.9783"/><text fill="#000000" font-family="sans-serif" font-size="14" lengthAdjust="spacing" textLength="101.2813" x="281" y="74.0252">Buch vorhnden</text></g><g id="empty"><rect fill="#F1F1F1" height="50" rx="12.5" ry="12.5" style="stroke:#181818;stroke-width:0.5;" width="102.6875" x="648.29" y="55.49"/><line style="stroke:#181818;stroke-width:0.5;" x1="648.29" x2="750.9775" y1="81.9783" y2="81.9783"/><text fill="#000000" font-family="sans-serif" font-size="14" lengthAdjust="spacing" textLength="82.6875" x="658.29" y="74.0252">Napf ist leer</text></g><g id="full"><rect fill="#F1F1F1" height="50" rx="12.5" ry="12.5" style="stroke:#181818;stroke-width:0.5;" width="105.6816" x="646.8" y="230.98"/><line style="stroke:#181818;stroke-width:0.5;" x1="646.8" x2="752.4816" y1="257.4683" y2="257.4683"/><text fill="#000000" font-family="sans-serif" font-size="14" lengthAdjust="spacing" textLength="81.252" x="661.2297" y="249.5152">Napf ist voll</text></g><path d="M1074.61,7 L1464.6617,7 A12.5,12.5 0 0 1 1477.1617,19.5 L1477.1617,33.4883 L1062.11,33.4883 L1062.11,19.5 A12.5,12.5 0 0 1 1074.61,7 " fill="#F1F1F1" style="stroke:#F1F1F1;stroke-width:1;"/><rect fill="none" height="146.9766" rx="12.5" ry="12.5" style="stroke:#181818;stroke-width:0.5;" width="415.0517" x="1062.11" y="7"/><line style="stroke:#181818;stroke-width:0.5;" x1="1062.11" x2="1477.1617" y1="33.4883" y2="33.4883"/><text fill="#000000" font-family="sans-serif" font-size="14" lengthAdjust="spacing" textLength="96.6738" x="1221.2989" y="25.5352">Buchhandlung</text><path d="M1086.61,45.4883 L1237.0447,45.4883 A12.5,12.5 0 0 1 1249.5447,57.9883 L1249.5447,71.9766 L1074.11,71.9766 L1074.11,57.9883 A12.5,12.5 0 0 1 1086.61,45.4883 " fill="#F1F1F1" style="stroke:#F1F1F1;stroke-width:1;"/><rect fill="none" height="98.4883" rx="12.5" ry="12.5" style="stroke:#181818;stroke-width:0.5;" width="175.4347" x="1074.11" y="45.4883"/><line style="stroke:#181818;stroke-width:0.5;" x1="1074.11" x2="1249.5447" y1="71.9766" y2="71.9766"/><text fill="#000000" font-family="sans-serif" font-size="14" lengthAdjust="spacing" textLength="37.6592" x="1142.9978" y="64.0234">Offen</text><g id="Buchhandlung.Offen.Arbeiten"><rect fill="#F1F1F1" height="50" rx="12.5" ry="12.5" style="stroke:#181818;stroke-width:0.5;" width="77.7705" x="1086.11" y="83.9766"/><line style="stroke:#181818;stroke-width:0.5;" x1="1086.11" x2="1163.8805" y1="110.4648" y2="110.4648"/><text fill="#000000" font-family="sans-serif" font-size="14" lengthAdjust="spacing" textLength="57.7705" x="1096.11" y="102.5117">Arbeiten</text></g><g id="Buchhandlung.Offen.Pause"><rect fill="#F1F1F1" height="50" rx="12.5" ry="12.5" style="stroke:#181818;stroke-width:0.5;" width="59.0947" x="1181.45" y="83.9766"/><line style="stroke:#181818;stroke-width:0.5;" x1="1181.45" x2="1240.5447" y1="110.4648" y2="110.4648"/><text fill="#000000" font-family="sans-serif" font-size="14" lengthAdjust="spacing" textLength="39.0947" x="1191.45" y="102.5117">Pause</text></g><path d="M1280,45.4883 L1455.6617,45.4883 A12.5,12.5 0 0 1 1468.1617,57.9883 L1468.1617,71.9766 L1267.5,71.9766 L1267.5,57.9883 A12.5,12.5 0 0 1 1280,45.4883 " fill="#F1F1F1" style="stroke:#F1F1F1;stroke-width:1;"/><rect fill="none" height="98.4883" rx="12.5" ry="12.5" style="stroke:#181818;stroke-width:0.5;" width="200.6617" x="1267.5" y="45.4883"/><line style="stroke:#181818;stroke-width:0.5;" x1="1267.5" x2="1468.1617" y1="71.9766" y2="71.9766"/><text fill="#000000" font-family="sans-serif" font-size="14" lengthAdjust="spacing" textLength="84.3213" x="1325.6702" y="64.0234">Geschlossen</text><g id="Buchhandlung.Geschlossen.Inventur"><rect fill="#F1F1F1" height="50" rx="12.5" ry="12.5" style="stroke:#181818;stroke-width:0.5;" width="76.1094" x="1279.5" y="83.9766"/><line style="stroke:#181818;stroke-width:0.5;" x1="1279.5" x2="1355.6094" y1="110.4648" y2="110.4648"/><text fill="#000000" font-family="sans-serif" font-size="14" lengthAdjust="spacing" textLength="56.1094" x="1289.5" y="102.5117">Inventur</text></g><g id="Buchhandlung.Geschlossen.Verlassen"><rect fill="#F1F1F1" height="50" rx="12.5" ry="12.5" style="stroke:#181818;stroke-width:0.5;" width="85.2217" x="1373.94" y="83.9766"/><line style="stroke:#181818;stroke-width:0.5;" x1="1373.94" x2="1459.1617" y1="110.4648" y2="110.4648"/><text fill="#000000" font-family="sans-serif" font-size="14" lengthAdjust="spacing" textLength="65.2217" x="1383.94" y="102.5117">Verlassen</text></g><!--link weg to da--><g id="link_weg_da"><path d="M174.59,80.49 C206.24,80.49 235.61,80.49 264.75,80.49 " fill="none" id="weg-to-da" style="stroke:#181818;stroke-width:1;"/><polygon fill="#181818" points="270.75,80.49,261.75,76.49,265.75,80.49,261.75,84.49,270.75,80.49" style="stroke:#181818;stroke-width:1;"/><text fill="#000000" font-family="sans-serif" font-size="13" lengthAdjust="spacing" textLength="60.7407" x="192.63" y="74.0584">bestelllen</text></g><!--link empty to full--><g id="link_empty_full"><path d="M699.64,105.98 C699.64,139.04 699.64,191.62 699.64,224.62 " fill="none" id="empty-to-full" style="stroke:#181818;stroke-width:1;"/><polygon fill="#181818" points="699.64,230.62,703.64,221.62,699.64,225.62,695.64,221.62,699.64,230.62" style="stroke:#181818;stroke-width:1;"/><text fill="#000000" font-family="sans-serif" font-size="13" lengthAdjust="spacing" textLength="166.1626" x="700.64" y="197.5484">aufforden [wird aufgef&#252;llt]</text></g><!--link empty to empty--><g id="link_empty_empty"><path d="M751.48,59.53 C770.44,58.96 785.98,65.95 785.98,80.49 C785.98,95.04 776.4373,102.2103 757.4773,101.6403 " fill="none" id="empty-to-empty" style="stroke:#181818;stroke-width:1;"/><polygon fill="#181818" points="751.48,101.46,760.3557,105.7286,756.4777,101.6102,760.5961,97.7323,751.48,101.46" style="stroke:#181818;stroke-width:1;"/><text fill="#000000" font-family="sans-serif" font-size="13" lengthAdjust="spacing" textLength="246.562" x="791.98" y="85.5584">aufforden [hat gerade schon gegessen]</text></g><!--SRC=[LL4zJyCm4DtzAqvTWA7AtW6fBD056103g8ERd6CBzrpv8wL2_JVy1gPk-MESan2InVAxz-xU-Jb46H4M6u8AFTobKcj9bKrKBq06s751v6C5ID6VYlP7ASANzkAlRmQYSaNQXrBBX3GMyTF4ea5lPGWu7SiASVMMGcGCQ0X3vuf1X7wLZ81CgICqpkSsf6wN8zOpJMP7ifA2ULZUyWrMiCCGqLgBn6xmaDXh_H6D8m73Y4TvK61218lekn6uFyJJoCCeQ9ordK0bQqKlWoKxPRm2cPHodlU0zwFnLSOrglPYRTnErVrjfjSoGerULWYSdoC6DN9UjCrRQyEKBxLX3Y57rdxpUuSCffd2bu1XxoUbU7B6VvMrtw697CH_wLccW8pFOziziebrsNlMlA66_ptvIUbr-5Jg1fp5Bm00]--></g></svg>