<?xml version="1.0" encoding="UTF-8" standalone="no"?><svg xmlns="http://www.w3.org/2000/svg" xmlns:xlink="http://www.w3.org/1999/xlink" contentStyleType="text/css" height="418px" preserveAspectRatio="none" style="width:277px;height:418px;background:#FFFFFF;" version="1.1" viewBox="0 0 277 418" width="277px" zoomAndPan="magnify"><defs/><g><!--MD5=[9201b6cde17120aa9ad7c48f8c4c585c]
class Pc__Data--><g id="elem_Pc__Data"><rect codeLine="1" fill="#F1F1F1" height="100.8281" id="Pc__Data" rx="2.5" ry="2.5" style="stroke:#181818;stroke-width:0.5;" width="251" x="13" y="7"/><ellipse cx="103.25" cy="23" fill="#ADD1B2" rx="11" ry="11" style="stroke:#181818;stroke-width:1.0;"/><path d="M102.1094,23.7969 L102.1094,26.2969 L106.4375,26.2969 L106.4375,25.375 Q106.4375,24.7656 106.6719,24.5 Q106.9219,24.2344 107.2969,24.2344 Q107.6719,24.2344 107.9063,24.5 Q108.1406,24.7656 108.1406,25.375 L108.1406,28 L100.1406,28 Q99.5156,28 99.25,27.7656 Q99,27.5313 99,27.1406 Q99,26.7656 99.2656,26.5313 Q99.5313,26.2969 100.1406,26.2969 L100.4063,26.2969 L100.4063,19.6406 L100.1406,19.6406 Q99.5156,19.6406 99.25,19.4063 Q99,19.1719 99,18.7813 Q99,18.4063 99.25,18.1719 Q99.5156,17.9375 100.1406,17.9375 L107.7656,17.9375 L107.7656,20.5313 Q107.7656,21.1406 107.5313,21.4063 Q107.3125,21.6563 106.9219,21.6563 Q106.5469,21.6563 106.3125,21.4063 Q106.0781,21.1406 106.0781,20.5313 L106.0781,19.6406 L102.1094,19.6406 L102.1094,22.0938 L103.5938,22.0938 Q103.5938,21.4375 103.7188,21.25 Q103.9844,20.8438 104.4531,20.8438 Q104.8281,20.8438 105.0625,21.1094 Q105.2969,21.3594 105.2969,21.9688 L105.2969,23.9375 Q105.2969,24.4844 105.1719,24.6719 Q104.9063,25.0625 104.4531,25.0625 Q103.9844,25.0625 103.7188,24.6563 Q103.5938,24.4688 103.5938,23.7969 L102.1094,23.7969 Z " fill="#000000"/><text fill="#000000" font-family="sans-serif" font-size="14" lengthAdjust="spacing" textLength="62" x="123.75" y="28.7285">Pc__Data</text><line style="stroke:#181818;stroke-width:0.5;" x1="14" x2="263" y1="39" y2="39"/><ellipse cx="24" cy="53.3047" fill="#000000" rx="3" ry="3" style="stroke:#000000;stroke-width:1.0;"/><text fill="#000000" font-family="sans-serif" font-size="14" lengthAdjust="spacing" textLength="225" x="33" y="57.5332">PcId int primary key auto_increment</text><line style="stroke:#181818;stroke-width:1.0;" x1="14" x2="263" y1="64.6094" y2="64.6094"/><ellipse cx="24" cy="78.9141" fill="#000000" rx="3" ry="3" style="stroke:#000000;stroke-width:1.0;"/><text fill="#000000" font-family="sans-serif" font-size="14" lengthAdjust="spacing" textLength="157" x="33" y="83.1426">Description varchar(255)</text><ellipse cx="24" cy="96.5234" fill="#000000" rx="3" ry="3" style="stroke:#000000;stroke-width:1.0;"/><text fill="#000000" font-family="sans-serif" font-size="14" lengthAdjust="spacing" textLength="131" x="33" y="100.752">Purpose varchar(50)</text></g><!--MD5=[f7bf6c4c2ef5f0329d2c571bf04868d8]
class MainUser--><g id="elem_MainUser"><rect codeLine="8" fill="#F1F1F1" height="83.2188" id="MainUser" rx="2.5" ry="2.5" style="stroke:#181818;stroke-width:0.5;" width="263" x="7" y="168"/><ellipse cx="104.75" cy="184" fill="#ADD1B2" rx="11" ry="11" style="stroke:#181818;stroke-width:1.0;"/><path d="M103.6094,184.7969 L103.6094,187.2969 L107.9375,187.2969 L107.9375,186.375 Q107.9375,185.7656 108.1719,185.5 Q108.4219,185.2344 108.7969,185.2344 Q109.1719,185.2344 109.4063,185.5 Q109.6406,185.7656 109.6406,186.375 L109.6406,189 L101.6406,189 Q101.0156,189 100.75,188.7656 Q100.5,188.5313 100.5,188.1406 Q100.5,187.7656 100.7656,187.5313 Q101.0313,187.2969 101.6406,187.2969 L101.9063,187.2969 L101.9063,180.6406 L101.6406,180.6406 Q101.0156,180.6406 100.75,180.4063 Q100.5,180.1719 100.5,179.7813 Q100.5,179.4063 100.75,179.1719 Q101.0156,178.9375 101.6406,178.9375 L109.2656,178.9375 L109.2656,181.5313 Q109.2656,182.1406 109.0313,182.4063 Q108.8125,182.6563 108.4219,182.6563 Q108.0469,182.6563 107.8125,182.4063 Q107.5781,182.1406 107.5781,181.5313 L107.5781,180.6406 L103.6094,180.6406 L103.6094,183.0938 L105.0938,183.0938 Q105.0938,182.4375 105.2188,182.25 Q105.4844,181.8438 105.9531,181.8438 Q106.3281,181.8438 106.5625,182.1094 Q106.7969,182.3594 106.7969,182.9688 L106.7969,184.9375 Q106.7969,185.4844 106.6719,185.6719 Q106.4063,186.0625 105.9531,186.0625 Q105.4844,186.0625 105.2188,185.6563 Q105.0938,185.4688 105.0938,184.7969 L103.6094,184.7969 Z " fill="#000000"/><text fill="#000000" font-family="sans-serif" font-size="14" lengthAdjust="spacing" textLength="59" x="125.25" y="189.7285">MainUser</text><line style="stroke:#181818;stroke-width:0.5;" x1="8" x2="269" y1="200" y2="200"/><ellipse cx="18" cy="214.3047" fill="#000000" rx="3" ry="3" style="stroke:#000000;stroke-width:1.0;"/><text fill="#000000" font-family="sans-serif" font-size="14" lengthAdjust="spacing" textLength="237" x="27" y="218.5332">userId int primary key auto_increment</text><line style="stroke:#181818;stroke-width:1.0;" x1="8" x2="269" y1="225.6094" y2="225.6094"/><ellipse cx="18" cy="239.9141" fill="#000000" rx="3" ry="3" style="stroke:#000000;stroke-width:1.0;"/><text fill="#000000" font-family="sans-serif" font-size="14" lengthAdjust="spacing" textLength="150" x="27" y="244.1426">userName varchar(255)</text></g><!--MD5=[d421ba8fe5d5216972334c08c85c328c]
class IPAddresses--><g id="elem_IPAddresses"><rect codeLine="14" fill="#F1F1F1" height="100.8281" id="IPAddresses" rx="2.5" ry="2.5" style="stroke:#181818;stroke-width:0.5;" width="168" x="54.5" y="311"/><ellipse cx="95.15" cy="327" fill="#ADD1B2" rx="11" ry="11" style="stroke:#181818;stroke-width:1.0;"/><path d="M94.0094,327.7969 L94.0094,330.2969 L98.3375,330.2969 L98.3375,329.375 Q98.3375,328.7656 98.5719,328.5 Q98.8219,328.2344 99.1969,328.2344 Q99.5719,328.2344 99.8063,328.5 Q100.0406,328.7656 100.0406,329.375 L100.0406,332 L92.0406,332 Q91.4156,332 91.15,331.7656 Q90.9,331.5313 90.9,331.1406 Q90.9,330.7656 91.1656,330.5313 Q91.4313,330.2969 92.0406,330.2969 L92.3063,330.2969 L92.3063,323.6406 L92.0406,323.6406 Q91.4156,323.6406 91.15,323.4063 Q90.9,323.1719 90.9,322.7813 Q90.9,322.4063 91.15,322.1719 Q91.4156,321.9375 92.0406,321.9375 L99.6656,321.9375 L99.6656,324.5313 Q99.6656,325.1406 99.4313,325.4063 Q99.2125,325.6563 98.8219,325.6563 Q98.4469,325.6563 98.2125,325.4063 Q97.9781,325.1406 97.9781,324.5313 L97.9781,323.6406 L94.0094,323.6406 L94.0094,326.0938 L95.4938,326.0938 Q95.4938,325.4375 95.6188,325.25 Q95.8844,324.8438 96.3531,324.8438 Q96.7281,324.8438 96.9625,325.1094 Q97.1969,325.3594 97.1969,325.9688 L97.1969,327.9375 Q97.1969,328.4844 97.0719,328.6719 Q96.8063,329.0625 96.3531,329.0625 Q95.8844,329.0625 95.6188,328.6563 Q95.4938,328.4688 95.4938,327.7969 L94.0094,327.7969 Z " fill="#000000"/><text fill="#000000" font-family="sans-serif" font-size="14" lengthAdjust="spacing" textLength="79" x="114.85" y="332.7285">IPAddresses</text><line style="stroke:#181818;stroke-width:0.5;" x1="55.5" x2="221.5" y1="343" y2="343"/><ellipse cx="65.5" cy="357.3047" fill="#000000" rx="3" ry="3" style="stroke:#000000;stroke-width:1.0;"/><text fill="#000000" font-family="sans-serif" font-size="14" lengthAdjust="spacing" textLength="132" x="74.5" y="361.5332">userId int foreign key</text><line style="stroke:#181818;stroke-width:1.0;" x1="55.5" x2="221.5" y1="368.6094" y2="368.6094"/><ellipse cx="65.5" cy="382.9141" fill="#000000" rx="3" ry="3" style="stroke:#000000;stroke-width:1.0;"/><text fill="#000000" font-family="sans-serif" font-size="14" lengthAdjust="spacing" textLength="114" x="74.5" y="387.1426">Value varchar(50)</text><ellipse cx="65.5" cy="400.5234" fill="#000000" rx="3" ry="3" style="stroke:#000000;stroke-width:1.0;"/><text fill="#000000" font-family="sans-serif" font-size="14" lengthAdjust="spacing" textLength="142" x="74.5" y="404.752">Type ENUM("v4", "v6")</text></g><!--MD5=[03970cb3f8469164b55dadeb1ac92836]
link MainUser to IPAddresses--><g id="link_MainUser_IPAddresses"><path codeLine="21" d="M138.5,251.09 C138.5,269.49 138.5,291.41 138.5,310.78 " fill="none" id="MainUser-IPAddresses" style="stroke:#181818;stroke-width:1.0;"/><text fill="#000000" font-family="sans-serif" font-size="13" lengthAdjust="spacing" textLength="7" x="130.9203" y="272.8095">1</text><text fill="#000000" font-family="sans-serif" font-size="13" lengthAdjust="spacing" textLength="7" x="131.0078" y="300.0544">n</text></g><!--MD5=[9b1827d3b6bda29c9f7e0d602d97fa17]
link Pc__Data to MainUser--><g id="link_Pc__Data_MainUser"><path codeLine="22" d="M138.5,108.03 C138.5,127.32 138.5,149.15 138.5,167.53 " fill="none" id="Pc__Data-MainUser" style="stroke:#181818;stroke-width:1.0;"/><text fill="#000000" font-family="sans-serif" font-size="13" lengthAdjust="spacing" textLength="7" x="131.0297" y="129.4253">1</text><text fill="#000000" font-family="sans-serif" font-size="13" lengthAdjust="spacing" textLength="7" x="130.9422" y="157.0717">1</text></g><!--MD5=[4ba18c3cce6a1829143e45f4fe868fb4]
@startuml
entity Pc__Data {
    * PcId int primary key auto_increment
    - -
    * Description varchar(255)
    * Purpose varchar(50)
}

entity MainUser {
    * userId int primary key auto_increment
    - -
    * userName varchar(255)
}

entity IPAddresses{
    * userId int foreign key 
    - -
    * Value varchar(50)
    * Type ENUM("v4", "v6")
}

MainUser "1" - - "n" IPAddresses
Pc__Data "1" - - "1" MainUser
@enduml

PlantUML version 1.2022.7(Mon Aug 22 19:01:30 CEST 2022)
(GPL source distribution)
Java Runtime: OpenJDK Runtime Environment
JVM: OpenJDK 64-Bit Server VM
Default Encoding: UTF-8
Language: de
Country: DE
--></g></svg>