<?xml version="1.0" encoding="us-ascii" standalone="no"?><svg xmlns="http://www.w3.org/2000/svg" xmlns:xlink="http://www.w3.org/1999/xlink" contentStyleType="text/css" height="407px" preserveAspectRatio="none" style="width:2315px;height:407px;background:#FFFFFF;" version="1.1" viewBox="0 0 2315 407" width="2315px" zoomAndPan="magnify"><defs/><g><!--cluster Room Booking System over Samply.Beam--><g id="cluster_Room Booking System over Samply.Beam"><rect fill="none" height="352.97" rx="2.5" ry="2.5" style="stroke:#181818;stroke-width:1.0;" width="2302" x="7" y="48.17"/><text fill="#000000" font-family="sans-serif" font-size="14" font-weight="bold" lengthAdjust="spacing" textLength="298" x="1009" y="63.7052">Room Booking System over Samply.Beam</text></g><!--cluster Client--><g id="cluster_Client"><rect fill="none" height="173.78" rx="2.5" ry="2.5" style="stroke:#181818;stroke-width:1.0;" width="1279" x="31" y="91.17"/><text fill="#000000" font-family="sans-serif" font-size="14" font-weight="bold" lengthAdjust="spacing" textLength="43" x="649" y="106.7052">Client</text></g><!--cluster BeamRequestTask--><g id="cluster_BeamRequestTask"><rect fill="none" height="106.78" rx="2.5" ry="2.5" style="stroke:#181818;stroke-width:1.0;" width="758" x="55" y="134.17"/><text fill="#000000" font-family="sans-serif" font-size="14" font-weight="bold" lengthAdjust="spacing" textLength="132" x="368" y="149.7052">BeamRequestTask</text></g><!--cluster Beam.Proxy Client--><g id="cluster_Beam.Proxy Client"><rect fill="none" height="102.88" rx="2.5" ry="2.5" style="stroke:#181818;stroke-width:1.0;" width="449" x="837" y="136.12"/><text fill="#000000" font-family="sans-serif" font-size="14" font-weight="bold" lengthAdjust="spacing" textLength="130" x="996.5" y="151.6552">Beam.Proxy Client</text></g><!--cluster Broker test-no-real-data.broker.samply.de--><g id="cluster_Broker test-no-real-data.broker.samply.de"><rect fill="none" height="122.62" rx="2.5" ry="2.5" style="stroke:#181818;stroke-width:1.0;" width="324" x="1334" y="126.25"/><text fill="#000000" font-family="sans-serif" font-size="14" font-weight="bold" lengthAdjust="spacing" textLength="308" x="1342" y="141.7852">Broker test-no-real-data.broker.samply.de</text></g><!--cluster Backend Connector--><g id="cluster_Backend Connector"><rect fill="none" height="283.57" rx="2.5" ry="2.5" style="stroke:#181818;stroke-width:1.0;" width="603" x="1682" y="93.57"/><text fill="#000000" font-family="sans-serif" font-size="14" font-weight="bold" lengthAdjust="spacing" textLength="137" x="1915" y="109.1052">Backend Connector</text></g><!--cluster Beam.Proxy Backend Connector--><g id="cluster_Beam.Proxy Backend Connector"><rect fill="none" height="101.98" rx="2.5" ry="2.5" style="stroke:#181818;stroke-width:1.0;" width="337" x="1706" y="136.57"/><text fill="#000000" font-family="sans-serif" font-size="14" font-weight="bold" lengthAdjust="spacing" textLength="224" x="1762.5" y="152.1052">Beam.Proxy Backend Connector</text></g><g id="elem_generate Task"><ellipse cx="141.9965" cy="206.5613" fill="#F1F1F1" rx="71.3565" ry="16.6713" style="stroke:#181818;stroke-width:0.5;"/><text fill="#000000" font-family="sans-serif" font-size="14" lengthAdjust="spacing" textLength="97" x="92.4143" y="210.1385">generate Task</text></g><g id="elem_ID"><ellipse cx="324.0048" cy="206.559" fill="#F1F1F1" rx="21.3848" ry="14.659" style="stroke:#181818;stroke-width:0.5;"/><text fill="#000000" font-family="sans-serif" font-size="14" lengthAdjust="spacing" textLength="14" x="317.0048" y="209.85">ID</text></g><g id="elem_waiting on Result"><ellipse cx="514.9985" cy="206.5637" fill="#F1F1F1" rx="79.9685" ry="18.3937" style="stroke:#181818;stroke-width:0.5;"/><text fill="#000000" font-family="sans-serif" font-size="14" lengthAdjust="spacing" textLength="118" x="455.9985" y="209.8547">waiting on Result</text></g><g id="elem_create Task"><ellipse cx="916.9978" cy="206.5596" fill="#F1F1F1" rx="64.4478" ry="15.2896" style="stroke:#181818;stroke-width:0.5;"/><text fill="#000000" font-family="sans-serif" font-size="14" lengthAdjust="spacing" textLength="78" x="874.9978" y="210.5771">create Task</text></g><g id="elem_recieve Result"><ellipse cx="1199.999" cy="206.5598" fill="#F1F1F1" rx="70.199" ry="16.4398" style="stroke:#181818;stroke-width:0.5;"/><text fill="#000000" font-family="sans-serif" font-size="14" lengthAdjust="spacing" textLength="94" x="1151.3115" y="210.2847">recieve Result</text></g><g id="elem_check registrated destinations"><ellipse cx="1496.0039" cy="206.5568" fill="#F1F1F1" rx="119.5339" ry="26.3068" style="stroke:#181818;stroke-width:0.5;"/><text fill="#000000" font-family="sans-serif" font-size="14" lengthAdjust="spacing" textLength="206" x="1393.0039" y="209.8478">check registrated destinations</text></g><g id="elem_process Tasks"><ellipse cx="1788.9977" cy="344.5535" fill="#F1F1F1" rx="70.9677" ry="16.5935" style="stroke:#181818;stroke-width:0.5;"/><text fill="#000000" font-family="sans-serif" font-size="14" lengthAdjust="spacing" textLength="96" x="1739.716" y="348.1804">process Tasks</text></g><g id="elem_generate Result"><ellipse cx="2194.0037" cy="206.5567" fill="#F1F1F1" rx="75.3837" ry="17.4767" style="stroke:#181818;stroke-width:0.5;"/><text fill="#000000" font-family="sans-serif" font-size="14" lengthAdjust="spacing" textLength="107" x="2140.5037" y="209.8478">generate Result</text></g><g id="elem_recieve Task"><ellipse cx="1788.9961" cy="206.5572" fill="#F1F1F1" rx="66.5361" ry="15.7072" style="stroke:#181818;stroke-width:0.5;"/><text fill="#000000" font-family="sans-serif" font-size="14" lengthAdjust="spacing" textLength="84" x="1743.9961" y="210.5748">recieve Task</text></g><g id="elem_create Result"><ellipse cx="1958.998" cy="206.5636" fill="#F1F1F1" rx="67.968" ry="15.9936" style="stroke:#181818;stroke-width:0.5;"/><text fill="#000000" font-family="sans-serif" font-size="14" lengthAdjust="spacing" textLength="88" x="1912.0352" y="210.5734">create Result</text></g><!--link generate Task to ID--><g id="link_generate Task_ID"><path d="M213.67,206.56 C245.5,206.56 280.64,206.56 302.52,206.56 " fill="none" id="generate Task-ID" style="stroke:#181818;stroke-width:1.0;stroke-dasharray:7.0,7.0;"/><text fill="#000000" font-family="sans-serif" font-size="13" lengthAdjust="spacing" textLength="53" x="231.49" y="200.1284">depends</text></g><!--link ID to waiting on Result--><g id="link_ID_waiting on Result"><path d="M345.54,206.56 C367.3,206.56 402.25,206.56 434.77,206.56 " fill="none" id="ID-waiting on Result" style="stroke:#181818;stroke-width:1.0;stroke-dasharray:7.0,7.0;"/><text fill="#000000" font-family="sans-serif" font-size="13" lengthAdjust="spacing" textLength="53" x="363.71" y="200.1284">depends</text></g><!--link waiting on Result to waiting on Result--><g id="link_waiting on Result_waiting on Result"><path d="M566.73,192.15 C599.09,188.6 629.97,193.4 629.97,206.56 C629.97,219.71 605.0542,225.1743 572.6942,221.6243 " fill="none" id="waiting on Result-to-waiting on Result" style="stroke:#181818;stroke-width:1.0;"/><polygon fill="#181818" points="566.73,220.97,575.2401,225.9276,571.7002,221.5152,576.1125,217.9753,566.73,220.97" style="stroke:#181818;stroke-width:1.0;"/><text fill="#000000" font-family="sans-serif" font-size="13" lengthAdjust="spacing" textLength="172" x="635.97" y="211.6284">waiting on incoming Result</text></g><!--link generate Task to create Task--><g id="link_generate Task_create Task"><path d="M151.99,189.91 C172.29,157.9 221.85,88.63 285,62.31 C393.3,17.18 708.55,8.86 813,62.31 C866.87,89.88 897.027,154.2012 909.237,185.4612 " fill="none" id="generate Task-to-create Task" style="stroke:#181818;stroke-width:1.0;"/><polygon fill="#181818" points="911.42,191.05,911.8714,181.2115,909.6009,186.3927,904.4197,184.1221,911.42,191.05" style="stroke:#181818;stroke-width:1.0;"/><text fill="#000000" font-family="sans-serif" font-size="13" lengthAdjust="spacing" textLength="55" x="505.5" y="28.7384">init Task</text></g><!--reverse link recieve Result to waiting on Result--><g id="link_recieve Result_waiting on Result"><path d="M1180.5962,185.9594 C1149.4362,153.9294 1078.73,87.96 999,62.31 C823.93,6 610.83,138.8 539.54,188.62 " fill="none" id="recieve Result-backto-waiting on Result" style="stroke:#181818;stroke-width:1.0;"/><polygon fill="#181818" points="1184.78,190.26,1181.3713,181.0198,1181.2935,186.6761,1175.6372,186.5983,1184.78,190.26" style="stroke:#181818;stroke-width:1.0;"/><text fill="#000000" font-family="sans-serif" font-size="13" lengthAdjust="spacing" textLength="110" x="1019" y="28.7384">requesting Result</text></g><!--link create Task to check registrated destinations--><g id="link_create Task_check registrated destinations"><path d="M930.74,191.24 C960.21,159.7 1033.21,88.29 1112,62.31 C1185.45,38.1 1212.14,39.39 1286,62.31 C1360.77,85.52 1428.1641,141.4849 1465.3341,176.3549 " fill="none" id="create Task-to-check registrated destinations" style="stroke:#181818;stroke-width:1.0;"/><polygon fill="#181818" points="1469.71,180.46,1465.8829,171.3851,1466.0634,177.0391,1460.4095,177.2196,1469.71,180.46" style="stroke:#181818;stroke-width:1.0;"/><text fill="#000000" font-family="sans-serif" font-size="13" lengthAdjust="spacing" textLength="30" x="982" y="28.7384">send</text></g><!--reverse link recieve Result to check registrated destinations--><g id="link_recieve Result_check registrated destinations"><path d="M1276.52,206.56 C1308.07,206.56 1340.16,206.56 1375.98,206.56 " fill="none" id="recieve Result-backto-check registrated destinations" style="stroke:#181818;stroke-width:1.0;"/><polygon fill="#181818" points="1270.52,206.56,1279.52,210.56,1275.52,206.56,1279.52,202.56,1270.52,206.56" style="stroke:#181818;stroke-width:1.0;"/><text fill="#000000" font-family="sans-serif" font-size="13" lengthAdjust="spacing" textLength="30" x="1308.33" y="200.1284">send</text></g><!--link check registrated destinations to recieve Task--><g id="link_check registrated destinations_recieve Task"><path d="M1616.02,206.56 C1652.21,206.56 1684.63,206.56 1716.05,206.56 " fill="none" id="check registrated destinations-to-recieve Task" style="stroke:#181818;stroke-width:1.0;"/><polygon fill="#181818" points="1722.05,206.56,1713.05,202.56,1717.05,206.56,1713.05,210.56,1722.05,206.56" style="stroke:#181818;stroke-width:1.0;"/><text fill="#000000" font-family="sans-serif" font-size="13" lengthAdjust="spacing" textLength="30" x="1654" y="200.1284">send</text></g><!--link create Result to check registrated destinations--><g id="link_create Result_check registrated destinations"><path d="M1954.96,190.19 C1946.21,158.68 1922.18,90.25 1873,62.31 C1808.46,25.66 1776.89,40.31 1706,62.31 C1631.23,85.52 1563.8359,141.4849 1526.6659,176.3549 " fill="none" id="create Result-to-check registrated destinations" style="stroke:#181818;stroke-width:1.0;"/><polygon fill="#181818" points="1522.29,180.46,1531.5905,177.2196,1525.9366,177.0391,1526.1171,171.3851,1522.29,180.46" style="stroke:#181818;stroke-width:1.0;"/><text fill="#000000" font-family="sans-serif" font-size="13" lengthAdjust="spacing" textLength="30" x="1738" y="28.7384">send</text></g><!--reverse link recieve Task to process Tasks--><g id="link_recieve Task_process Tasks"><path d="M1789,228.63 C1789,254.49 1789,301.09 1789,327.57 " fill="none" id="recieve Task-backto-process Tasks" style="stroke:#181818;stroke-width:1.0;"/><polygon fill="#181818" points="1789,222.63,1785,231.63,1789,227.63,1793,231.63,1789,222.63" style="stroke:#181818;stroke-width:1.0;"/><text fill="#000000" font-family="sans-serif" font-size="13" lengthAdjust="spacing" textLength="93" x="1790" y="294.5184">reqesting Task</text></g><!--link process Tasks to process Tasks--><g id="link_process Tasks_process Tasks"><path d="M1846.23,334.4 C1872.3,333.36 1894.97,336.75 1894.97,344.55 C1894.97,352.35 1878.2952,355.9692 1852.2252,354.9292 " fill="none" id="process Tasks-to-process Tasks" style="stroke:#181818;stroke-width:1.0;"/><polygon fill="#181818" points="1846.23,354.69,1855.0634,359.0456,1851.226,354.8893,1855.3823,351.0519,1846.23,354.69" style="stroke:#181818;stroke-width:1.0;"/><text fill="#000000" font-family="sans-serif" font-size="13" lengthAdjust="spacing" textLength="170" x="1900.97" y="349.6184">waiting on incoming Tasks</text></g><!--link generate Result to create Result--><g id="link_generate Result_create Result"><path d="M2118.12,206.56 C2088.91,206.56 2061.75,206.56 2033.29,206.56 " fill="none" id="generate Result-to-create Result" style="stroke:#181818;stroke-width:1.0;"/><polygon fill="#181818" points="2027.29,206.56,2036.29,210.56,2032.29,206.56,2036.29,202.56,2027.29,206.56" style="stroke:#181818;stroke-width:1.0;"/><text fill="#000000" font-family="sans-serif" font-size="13" lengthAdjust="spacing" textLength="55" x="2045.29" y="200.1284">init Task</text></g><!--SRC=[bL91ReCm4BppYXMdv00FYA8Uabvwgv9-m8KLjG1lOZjfKSNVkyQKOY1fwvErisFFxAp6p0fLL0ZnWQY67L4fLG77nbYiWQweuIZgKzMaEnHr39yHyD43RLz9LBOlXr3i60SyNz3O5s7AUDJbpgf0XLfO18Uk8ONLq-Dw0pcUKEKcx6N4DRmBQPq-Kd10SwdiJp-4X7ad90_B3ungKcLKkxi7XoVRM_xIPqqVJJ-6tnmw0Pd6eR3X_wJjxY6FFv5unK7vDbbMhlrqRmfkewbaJIL7QfcKA4fOIvNamehqjGDIuxFESMmbqEnDl65Myhk5DDRvopa49qDOISgmCCE9H7Vj_Fs9kGcHbGp2dfJYAkduzlxr-TobU8_tzNIslttquGKcnuCQBzp_HjNEX-QdlaruPYTD6HhJbOoFlqy_MA59NoTZIbtQ-GwBviiRs0aSJXUuZTel]--></g></svg>