<?xml version="1.0" encoding="us-ascii" standalone="no"?><svg xmlns="http://www.w3.org/2000/svg" xmlns:xlink="http://www.w3.org/1999/xlink" contentStyleType="text/css" height="359px" preserveAspectRatio="none" style="width:417px;height:359px;background:#FFFFFF;" version="1.1" viewBox="0 0 417 359" width="417px" zoomAndPan="magnify"><defs/><g><!--cluster Komponente--><g id="cluster_Komponente"><rect fill="none" height="97.48" rx="2.5" ry="2.5" style="stroke:#181818;stroke-width:1.0;" width="285" x="7" y="7"/><path d="M108,7 L108,16.4883 L98,26.4883 L7,26.4883 " fill="none" style="stroke:#181818;stroke-width:1.0;"/><text fill="#000000" font-family="sans-serif" font-size="14" font-weight="bold" lengthAdjust="spacing" textLength="91" x="10" y="21.5352">Komponente</text></g><!--cluster central Service--><g id="cluster_central Service"><polygon fill="none" points="117,138.48,127,128.48,297,128.48,297,220.97,287,230.97,117,230.97,117,138.48" style="stroke:#181818;stroke-width:1.0;"/><line style="stroke:#181818;stroke-width:1.0;" x1="287" x2="297" y1="138.48" y2="128.48"/><line style="stroke:#181818;stroke-width:1.0;" x1="117" x2="287" y1="138.48" y2="138.48"/><line style="stroke:#181818;stroke-width:1.0;" x1="287" x2="287" y1="138.48" y2="230.97"/><text fill="#000000" font-family="sans-serif" font-size="14" font-weight="bold" lengthAdjust="spacing" textLength="104" x="151" y="155.0152">central Service</text></g><!--cluster central Server--><g id="cluster_central Server"><path d="M124.5,254.97 L223.5,254.97 A3.75,3.75 0 0 1 226,257.47 L233,277.4583 L407.5,277.4583 A2.5,2.5 0 0 1 410,279.9583 L410,349.96 A2.5,2.5 0 0 1 407.5,352.46 L124.5,352.46 A2.5,2.5 0 0 1 122,349.96 L122,257.47 A2.5,2.5 0 0 1 124.5,254.97 " fill="none" style="stroke:#000000;stroke-width:1.5;"/><line style="stroke:#000000;stroke-width:1.5;" x1="122" x2="233" y1="277.4583" y2="277.4583"/><text fill="#000000" font-family="sans-serif" font-size="14" font-weight="bold" lengthAdjust="spacing" textLength="98" x="126" y="270.5052">central Server</text></g><!--entity Client--><g id="elem_Client"><rect fill="#F1F1F1" height="46.4883" rx="2.5" ry="2.5" style="stroke:#181818;stroke-width:0.5;" width="80" x="23" y="42"/><rect fill="#F1F1F1" height="10" style="stroke:#181818;stroke-width:0.5;" width="15" x="83" y="47"/><rect fill="#F1F1F1" height="2" style="stroke:#181818;stroke-width:0.5;" width="4" x="81" y="49"/><rect fill="#F1F1F1" height="2" style="stroke:#181818;stroke-width:0.5;" width="4" x="81" y="53"/><text fill="#000000" font-family="sans-serif" font-size="14" lengthAdjust="spacing" textLength="40" x="38" y="75.5352">Client</text></g><!--entity SamplyProxy1--><g id="elem_SamplyProxy1"><rect fill="#F1F1F1" height="46.4883" rx="2.5" ry="2.5" style="stroke:#181818;stroke-width:0.5;" width="137" x="138.5" y="42"/><rect fill="#F1F1F1" height="10" style="stroke:#181818;stroke-width:0.5;" width="15" x="255.5" y="47"/><rect fill="#F1F1F1" height="2" style="stroke:#181818;stroke-width:0.5;" width="4" x="253.5" y="49"/><rect fill="#F1F1F1" height="2" style="stroke:#181818;stroke-width:0.5;" width="4" x="253.5" y="53"/><text fill="#000000" font-family="sans-serif" font-size="14" lengthAdjust="spacing" textLength="97" x="153.5" y="75.5352">SamplyProxy1</text></g><!--entity Broker--><g id="elem_Broker"><rect fill="#F1F1F1" height="46.4883" rx="2.5" ry="2.5" style="stroke:#181818;stroke-width:0.5;" width="85" x="164.5" y="168.48"/><rect fill="#F1F1F1" height="10" style="stroke:#181818;stroke-width:0.5;" width="15" x="229.5" y="173.48"/><rect fill="#F1F1F1" height="2" style="stroke:#181818;stroke-width:0.5;" width="4" x="227.5" y="175.48"/><rect fill="#F1F1F1" height="2" style="stroke:#181818;stroke-width:0.5;" width="4" x="227.5" y="179.48"/><text fill="#000000" font-family="sans-serif" font-size="14" lengthAdjust="spacing" textLength="45" x="179.5" y="202.0152">Broker</text></g><!--entity SamplyProxy2--><g id="elem_SamplyProxy2"><rect fill="#F1F1F1" height="46.4883" rx="2.5" ry="2.5" style="stroke:#181818;stroke-width:0.5;" width="137" x="138.5" y="289.97"/><rect fill="#F1F1F1" height="10" style="stroke:#181818;stroke-width:0.5;" width="15" x="255.5" y="294.97"/><rect fill="#F1F1F1" height="2" style="stroke:#181818;stroke-width:0.5;" width="4" x="253.5" y="296.97"/><rect fill="#F1F1F1" height="2" style="stroke:#181818;stroke-width:0.5;" width="4" x="253.5" y="300.97"/><text fill="#000000" font-family="sans-serif" font-size="14" lengthAdjust="spacing" textLength="97" x="153.5" y="323.5052">SamplyProxy2</text></g><!--entity Server--><g id="elem_Server"><rect fill="#F1F1F1" height="46.4883" rx="2.5" ry="2.5" style="stroke:#181818;stroke-width:0.5;" width="83" x="310.5" y="289.97"/><rect fill="#F1F1F1" height="10" style="stroke:#181818;stroke-width:0.5;" width="15" x="373.5" y="294.97"/><rect fill="#F1F1F1" height="2" style="stroke:#181818;stroke-width:0.5;" width="4" x="371.5" y="296.97"/><rect fill="#F1F1F1" height="2" style="stroke:#181818;stroke-width:0.5;" width="4" x="371.5" y="300.97"/><text fill="#000000" font-family="sans-serif" font-size="14" lengthAdjust="spacing" textLength="43" x="325.5" y="323.5052">Server</text></g><!--link Client to SamplyProxy1--><g id="link_Client_SamplyProxy1"><path d="M103.22,65.24 C114.84,65.24 126.46,65.24 138.08,65.24 " fill="none" id="Client-SamplyProxy1" style="stroke:#181818;stroke-width:1.0;"/></g><!--link SamplyProxy1 to Broker--><g id="link_SamplyProxy1_Broker"><path d="M207,88.78 C207,111.34 207,145.85 207,168.35 " fill="none" id="SamplyProxy1-Broker" style="stroke:#181818;stroke-width:1.0;"/></g><!--link Broker to SamplyProxy2--><g id="link_Broker_SamplyProxy2"><path d="M207,215.2 C207,236.56 207,268.51 207,289.84 " fill="none" id="Broker-SamplyProxy2" style="stroke:#181818;stroke-width:1.0;"/></g><!--link SamplyProxy2 to Server--><g id="link_SamplyProxy2_Server"><path d="M275.82,313.22 C287.23,313.22 298.63,313.22 310.04,313.22 " fill="none" id="SamplyProxy2-Server" style="stroke:#181818;stroke-width:1.0;"/></g><!--SRC=[NOwz3i8m38HtFuMLfLC6U0GOMP0giQ0E8JLLrFp9eeWAyUv4AG5IJpxhEzzTMJb2SGWk1a_-Hk89cEQyjoR9RX6jSj7EHmwFUTF12y27Fhbq8bXPR8dlHfF0ZtV7OIJE84IbHpMiOE8l-_TwMz8oaUrDWoVYY_7zv0VoK6gXN9Ug9Khvgr6MVAppQfc_Bk5l]--></g></svg>