<?xml version="1.0" encoding="UTF-8" standalone="no"?><svg xmlns="http://www.w3.org/2000/svg" xmlns:xlink="http://www.w3.org/1999/xlink" contentStyleType="text/css" height="614px" preserveAspectRatio="none" style="width:471px;height:614px;background:#FFFFFF;" version="1.1" viewBox="0 0 471 614" width="471px" zoomAndPan="magnify"><defs/><g><!--MD5=[fbd9d5635a2a61116c1734a766ba791c]
cluster mobile App--><g id="cluster_mobile App"><rect fill="none" height="208" rx="2.5" ry="2.5" style="stroke:#181818;stroke-width:1.0;" width="206" x="21" y="7"/><path d="M109,7 L109,17.6094 L99,27.6094 L21,27.6094 " fill="none" style="stroke:#181818;stroke-width:1.0;"/><text fill="#000000" font-family="sans-serif" font-size="14" font-weight="bold" lengthAdjust="spacing" textLength="78" x="24" y="22.5332">mobile App</text></g><!--MD5=[5166bb842ef0518b189718832e210401]
cluster central Service--><g id="cluster_central Service"><polygon fill="none" points="37,249,47,239,220,239,220,334,210,344,37,344,37,249" style="stroke:#181818;stroke-width:1.0;"/><line style="stroke:#181818;stroke-width:1.0;" x1="210" x2="220" y1="249" y2="239"/><line style="stroke:#181818;stroke-width:1.0;" x1="37" x2="210" y1="249" y2="249"/><line style="stroke:#181818;stroke-width:1.0;" x1="210" x2="210" y1="249" y2="344"/><text fill="#000000" font-family="sans-serif" font-size="14" font-weight="bold" lengthAdjust="spacing" textLength="107" x="71" y="266.5332">central Service</text></g><!--MD5=[470ed74b7b165da1eff8dd4ca3f57bfb]
cluster central Server--><g id="cluster_central Server"><path d="M8.5,368 L110.5,368 A3.75,3.75 0 0 1 113,370.5 L120,391.6094 L461.5,391.6094 A2.5,2.5 0 0 1 464,394.1094 L464,604.5 A2.5,2.5 0 0 1 461.5,607 L8.5,607 A2.5,2.5 0 0 1 6,604.5 L6,370.5 A2.5,2.5 0 0 1 8.5,368 " fill="none" style="stroke:#000000;stroke-width:1.5;"/><line style="stroke:#000000;stroke-width:1.5;" x1="6" x2="120" y1="391.6094" y2="391.6094"/><text fill="#000000" font-family="sans-serif" font-size="14" font-weight="bold" lengthAdjust="spacing" textLength="101" x="10" y="384.5332">central Server</text></g><g id="cluster_##10"><path d="M38.2282,512.6959 C42.5231,506.2059 48.1479,505.5218 52.4324,512.7066 C54.7397,506.1098 60.5984,505.6984 64.3804,511.257 C68.3485,505.15 73.4182,506.4057 76.281,512.3486 C79.2912,505.7294 84.2026,505.77 88.6467,510.8304 C91.9524,504.4307 96.0541,504.8215 100.4944,509.6312 C105.2845,503.0328 110.0413,504.2606 113.6171,510.8404 C117.5319,505.0626 122.4042,504.4074 126.2321,510.9295 C129.5344,504.6958 133.9828,504.7143 137.615,510.6202 C141.3215,505.2834 146.3664,505.1426 149.161,511.519 C153.2764,504.7092 157.8623,504.4919 162.8982,510.5353 C166.5891,505.8894 170.2952,505.7032 174.1711,510.31 C178.6888,505.8359 182.9025,505.9884 185.9937,511.9292 C189.9791,506.2443 194.5433,506.2759 198.7194,511.711 C202.8543,507.2705 207.6051,507.9221 210.4531,513.2559 C217.961,516.8764 219.7864,521.9004 213.1429,528.0874 C223.3649,531.6091 223.3539,538.4064 216.3572,545.1684 C221.7858,551.4429 221.9224,556.831 213.4474,560.4598 C219.7497,567.3655 218.889,572.8465 210.4388,577.0819 C206.9168,583.1766 201.3118,581.8356 198.3913,576.4508 C194.0964,582.882 189.852,582.3432 185.4597,576.5538 C181.5688,581.9359 177.5158,582.0435 173.4297,576.7742 C169.3194,582.2832 165.4728,583.0357 160.9927,577.1789 C156.6225,581.7785 152.8655,582.0436 149.719,575.8953 C147.4482,581.3214 142.4622,581.9633 138.5521,577.8054 C133.8479,583.8335 128.8774,583.598 124.2994,577.6551 C121.0932,583.4713 116.726,582.8669 113.0281,578.1829 C108.309,583.8385 102.9313,582.7726 100.5088,575.8898 C97.5785,581.7897 91.9791,580.8798 88.7484,576.2244 C85.1945,583.307 80.8391,582.5194 75.8356,577.8121 C72.1576,582.4704 67.6074,581.9633 64.4234,577.2129 C60.2672,583.0394 55.4163,582.4449 51.8074,576.6203 C47.9349,583.044 42.1135,583.3415 38.8278,576.0643 C31.7764,572.5609 29.1612,566.0851 36.3173,560.3167 C28.3252,557.1214 26.5693,550.811 33.4972,544.8885 C26.9329,537.883 28.1602,532.4073 36.6008,528.1906 C29.708,522.3126 30.2966,517.0169 38.2282,512.6959 " fill="none" style="stroke:#181818;stroke-width:1.0;"/></g><!--MD5=[35416571f72b437e1b0191dcaf7d4da4]
cluster Mrbs--><g id="cluster_Mrbs"><path d="M242,478 C242,468 341,468 341,468 C341,468 440,468 440,478 L440,573 C440,583 341,583 341,583 C341,583 242,583 242,573 L242,478 " fill="none" style="stroke:#181818;stroke-width:1.0;"/><path d="M242,478 C242,488 341,488 341,488 C341,488 440,488 440,478 " fill="none" style="stroke:#181818;stroke-width:1.0;"/><text fill="#000000" font-family="sans-serif" font-size="14" font-weight="bold" lengthAdjust="spacing" textLength="36" x="323" y="504.5332">Mrbs</text></g><!--MD5=[a263d1ce1eebadbc674f2d48a6e9a2c8]
entity Tauri--><g id="elem_Tauri"><rect fill="#F1F1F1" height="47.6094" rx="2.5" ry="2.5" style="stroke:#181818;stroke-width:0.5;" width="73" x="87.5" y="43"/><rect fill="#F1F1F1" height="10" style="stroke:#181818;stroke-width:0.5;" width="15" x="140.5" y="48"/><rect fill="#F1F1F1" height="2" style="stroke:#181818;stroke-width:0.5;" width="4" x="138.5" y="50"/><rect fill="#F1F1F1" height="2" style="stroke:#181818;stroke-width:0.5;" width="4" x="138.5" y="54"/><text fill="#000000" font-family="sans-serif" font-size="14" lengthAdjust="spacing" textLength="33" x="102.5" y="77.5332">Tauri</text></g><!--MD5=[81026714d7846fb593feb67150cd0701]
entity Samply_Proxy_Client--><g id="elem_Samply_Proxy_Client"><rect fill="#F1F1F1" height="47.6094" rx="2.5" ry="2.5" style="stroke:#181818;stroke-width:0.5;" width="173" x="37.5" y="151"/><rect fill="#F1F1F1" height="10" style="stroke:#181818;stroke-width:0.5;" width="15" x="190.5" y="156"/><rect fill="#F1F1F1" height="2" style="stroke:#181818;stroke-width:0.5;" width="4" x="188.5" y="158"/><rect fill="#F1F1F1" height="2" style="stroke:#181818;stroke-width:0.5;" width="4" x="188.5" y="162"/><text fill="#000000" font-family="sans-serif" font-size="14" lengthAdjust="spacing" textLength="133" x="52.5" y="185.5332">Samply_Proxy_Client</text></g><!--MD5=[241b36de05534b6660b3ddf6e8766aa9]
entity Broker--><g id="elem_Broker"><rect fill="#F1F1F1" height="47.6094" rx="2.5" ry="2.5" style="stroke:#181818;stroke-width:0.5;" width="82" x="83" y="280"/><rect fill="#F1F1F1" height="10" style="stroke:#181818;stroke-width:0.5;" width="15" x="145" y="285"/><rect fill="#F1F1F1" height="2" style="stroke:#181818;stroke-width:0.5;" width="4" x="143" y="287"/><rect fill="#F1F1F1" height="2" style="stroke:#181818;stroke-width:0.5;" width="4" x="143" y="291"/><text fill="#000000" font-family="sans-serif" font-size="14" lengthAdjust="spacing" textLength="42" x="98" y="314.5332">Broker</text></g><!--MD5=[a1b9d70e4213532ab7b518d54737a1bc]
entity Samply_Proxy_Server--><g id="elem_Samply_Proxy_Server"><rect fill="#F1F1F1" height="47.6094" rx="2.5" ry="2.5" style="stroke:#181818;stroke-width:0.5;" width="179" x="34.5" y="404"/><rect fill="#F1F1F1" height="10" style="stroke:#181818;stroke-width:0.5;" width="15" x="193.5" y="409"/><rect fill="#F1F1F1" height="2" style="stroke:#181818;stroke-width:0.5;" width="4" x="191.5" y="411"/><rect fill="#F1F1F1" height="2" style="stroke:#181818;stroke-width:0.5;" width="4" x="191.5" y="415"/><text fill="#000000" font-family="sans-serif" font-size="14" lengthAdjust="spacing" textLength="139" x="49.5" y="438.5332">Samply_Proxy_Server</text></g><!--MD5=[76d4525ec49858fec3d316d6597b97fa]
entity Server_REST_API--><g id="elem_Server_REST_API"><rect fill="#F1F1F1" height="47.6094" rx="2.5" ry="2.5" style="stroke:#181818;stroke-width:0.5;" width="156" x="46" y="519"/><rect fill="#F1F1F1" height="10" style="stroke:#181818;stroke-width:0.5;" width="15" x="182" y="524"/><rect fill="#F1F1F1" height="2" style="stroke:#181818;stroke-width:0.5;" width="4" x="180" y="526"/><rect fill="#F1F1F1" height="2" style="stroke:#181818;stroke-width:0.5;" width="4" x="180" y="530"/><text fill="#000000" font-family="sans-serif" font-size="14" lengthAdjust="spacing" textLength="116" x="61" y="553.5332">Server_REST_API</text></g><!--MD5=[aa670ab98ddb6c13b71b71b59872f278]
entity Verbis_Raumplaner--><g id="elem_Verbis_Raumplaner"><rect fill="#F1F1F1" height="47.6094" rx="2.5" ry="2.5" style="stroke:#181818;stroke-width:0.5;" width="165" x="258.5" y="519"/><rect fill="#F1F1F1" height="10" style="stroke:#181818;stroke-width:0.5;" width="15" x="403.5" y="524"/><rect fill="#F1F1F1" height="2" style="stroke:#181818;stroke-width:0.5;" width="4" x="401.5" y="526"/><rect fill="#F1F1F1" height="2" style="stroke:#181818;stroke-width:0.5;" width="4" x="401.5" y="530"/><text fill="#000000" font-family="sans-serif" font-size="14" lengthAdjust="spacing" textLength="125" x="273.5" y="553.5332">Verbis_Raumplaner</text></g><!--MD5=[e4d57bb42f0fe5b02b823bbef05fa6eb]
link Tauri to Samply_Proxy_Client--><g id="link_Tauri_Samply_Proxy_Client"><path d="M124,91 C124,108.66 124,132.94 124,150.68 " fill="none" id="Tauri-Samply_Proxy_Client" style="stroke:#181818;stroke-width:1.0;stroke-dasharray:7.0,7.0;"/></g><!--MD5=[d6a74fc8eeef0c2cd0f286fbe661f19e]
link Samply_Proxy_Client to Broker--><g id="link_Samply_Proxy_Client_Broker"><path d="M124,199.29 C124,222.21 124,256.99 124,279.85 " fill="none" id="Samply_Proxy_Client-Broker" style="stroke:#181818;stroke-width:1.0;"/></g><!--MD5=[ff0bcd878e9a4e92822be96669d6c88e]
link Broker to Samply_Proxy_Server--><g id="link_Broker_Samply_Proxy_Server"><path d="M124,328.23 C124,349.94 124,382.17 124,403.85 " fill="none" id="Broker-Samply_Proxy_Server" style="stroke:#181818;stroke-width:1.0;"/></g><!--MD5=[2dba2340578c58048ebfa2c8b985b42c]
link Samply_Proxy_Server to Server_REST_API--><g id="link_Samply_Proxy_Server_Server_REST_API"><path d="M124,452.14 C124,471.64 124,499.4 124,518.89 " fill="none" id="Samply_Proxy_Server-Server_REST_API" style="stroke:#181818;stroke-width:1.0;"/></g><!--MD5=[8eafb448d7de8113e3e19c01490b68bf]
link Server_REST_API to Verbis_Raumplaner--><g id="link_Server_REST_API_Verbis_Raumplaner"><path d="M202.41,543 C221.09,543 239.76,543 258.44,543 " fill="none" id="Server_REST_API-Verbis_Raumplaner" style="stroke:#181818;stroke-width:1.0;"/></g><!--MD5=[cbdc5cf5bc50a5817fcee8fe66b56dac]
@startuml


frame "mobile App"{
    [Tauri]
    [Samply_Proxy_Client]
}

node "central Service" {
    [Broker]
}


package "central Server" {
    [Samply_Proxy_Server]
    cloud {
        [Server_REST_API]
    }
    database "Mrbs" {
        [Verbis_Raumplaner]
    }
}

'' Verbindungen
[Tauri] .. [Samply_Proxy_Client]
[Samply_Proxy_Client] - - [Broker]
[Broker] - - [Samply_Proxy_Server]
[Samply_Proxy_Server] - - [Server_REST_API]
[Server_REST_API] - [Verbis_Raumplaner]
@enduml

@startuml


frame "mobile App"{
    [Tauri]
    [Samply_Proxy_Client]
}

node "central Service" {
    [Broker]
}


package "central Server" {
    [Samply_Proxy_Server]
    cloud {
        [Server_REST_API]
    }
    database "Mrbs" {
        [Verbis_Raumplaner]
    }
}

[Tauri] .. [Samply_Proxy_Client]
[Samply_Proxy_Client] - - [Broker]
[Broker] - - [Samply_Proxy_Server]
[Samply_Proxy_Server] - - [Server_REST_API]
[Server_REST_API] - [Verbis_Raumplaner]
@enduml

PlantUML version 1.2022.7(Mon Aug 22 19:01:30 CEST 2022)
(GPL source distribution)
Java Runtime: OpenJDK Runtime Environment
JVM: OpenJDK 64-Bit Server VM
Default Encoding: UTF-8
Language: de
Country: DE
--></g></svg>