<?xml version="1.0" encoding="us-ascii" standalone="no"?><svg xmlns="http://www.w3.org/2000/svg" xmlns:xlink="http://www.w3.org/1999/xlink" contentStyleType="text/css" height="572px" preserveAspectRatio="none" style="width:813px;height:572px;background:#FFFFFF;" version="1.1" viewBox="0 0 813 572" width="813px" zoomAndPan="magnify"><defs/><g><!--cluster Browser--><g id="cluster_Browser"><rect fill="none" height="97.49" rx="2.5" ry="2.5" style="stroke:#181818;stroke-width:1.0;" width="102" x="7" y="7"/><path d="M75,7 L75,16.4883 L65,26.4883 L7,26.4883 " fill="none" style="stroke:#181818;stroke-width:1.0;"/><text fill="#000000" font-family="sans-serif" font-size="14" font-weight="bold" lengthAdjust="spacing" textLength="58" x="10" y="21.5352">Browser</text></g><!--cluster Client Komponente--><g id="cluster_Client Komponente"><rect fill="none" height="203.98" rx="2.5" ry="2.5" style="stroke:#181818;stroke-width:1.0;" width="351" x="133" y="7"/><path d="M282,7 L282,16.4883 L272,26.4883 L133,26.4883 " fill="none" style="stroke:#181818;stroke-width:1.0;"/><text fill="#000000" font-family="sans-serif" font-size="14" font-weight="bold" lengthAdjust="spacing" textLength="139" x="136" y="21.5352">Client Komponente</text></g><!--cluster central Service--><g id="cluster_central Service"><polygon fill="none" points="313,244.98,323,234.98,726,234.98,726,327.46,716,337.46,313,337.46,313,244.98" style="stroke:#181818;stroke-width:1.0;"/><line style="stroke:#181818;stroke-width:1.0;" x1="716" x2="726" y1="244.98" y2="234.98"/><line style="stroke:#181818;stroke-width:1.0;" x1="313" x2="716" y1="244.98" y2="244.98"/><line style="stroke:#181818;stroke-width:1.0;" x1="716" x2="716" y1="244.98" y2="337.46"/><text fill="#000000" font-family="sans-serif" font-size="14" font-weight="bold" lengthAdjust="spacing" textLength="104" x="463.5" y="261.5152">central Service</text></g><!--cluster Server Meeting Room Booking--><g id="cluster_Server Meeting Room Booking"><path d="M314.5,361.46 L533.5,361.46 A3.75,3.75 0 0 1 536,363.96 L543,383.9483 L803.5,383.9483 A2.5,2.5 0 0 1 806,386.4483 L806,562.94 A2.5,2.5 0 0 1 803.5,565.44 L314.5,565.44 A2.5,2.5 0 0 1 312,562.94 L312,363.96 A2.5,2.5 0 0 1 314.5,361.46 " fill="none" style="stroke:#000000;stroke-width:1.5;"/><line style="stroke:#000000;stroke-width:1.5;" x1="312" x2="543" y1="383.9483" y2="383.9483"/><text fill="#000000" font-family="sans-serif" font-size="14" font-weight="bold" lengthAdjust="spacing" textLength="218" x="316" y="376.9952">Server Meeting Room Booking</text></g><!--entity User--><g id="elem_User"><rect fill="#F1F1F1" height="46.4883" rx="2.5" ry="2.5" style="stroke:#181818;stroke-width:0.5;" width="71" x="22.5" y="42"/><rect fill="#F1F1F1" height="10" style="stroke:#181818;stroke-width:0.5;" width="15" x="73.5" y="47"/><rect fill="#F1F1F1" height="2" style="stroke:#181818;stroke-width:0.5;" width="4" x="71.5" y="49"/><rect fill="#F1F1F1" height="2" style="stroke:#181818;stroke-width:0.5;" width="4" x="71.5" y="53"/><text fill="#000000" font-family="sans-serif" font-size="14" lengthAdjust="spacing" textLength="31" x="37.5" y="75.5352">User</text></g><!--entity Client_Frontend--><g id="elem_Client_Frontend"><rect fill="#F1F1F1" height="46.4883" rx="2.5" ry="2.5" style="stroke:#181818;stroke-width:0.5;" width="150" x="149" y="42"/><rect fill="#F1F1F1" height="10" style="stroke:#181818;stroke-width:0.5;" width="15" x="279" y="47"/><rect fill="#F1F1F1" height="2" style="stroke:#181818;stroke-width:0.5;" width="4" x="277" y="49"/><rect fill="#F1F1F1" height="2" style="stroke:#181818;stroke-width:0.5;" width="4" x="277" y="53"/><text fill="#000000" font-family="sans-serif" font-size="14" lengthAdjust="spacing" textLength="110" x="164" y="75.5352">Client_Frontend</text></g><!--entity Client_Backend--><g id="elem_Client_Backend"><rect fill="#F1F1F1" height="46.4883" rx="2.5" ry="2.5" style="stroke:#181818;stroke-width:0.5;" width="144" x="149" y="148.49"/><rect fill="#F1F1F1" height="10" style="stroke:#181818;stroke-width:0.5;" width="15" x="273" y="153.49"/><rect fill="#F1F1F1" height="2" style="stroke:#181818;stroke-width:0.5;" width="4" x="271" y="155.49"/><rect fill="#F1F1F1" height="2" style="stroke:#181818;stroke-width:0.5;" width="4" x="271" y="159.49"/><text fill="#000000" font-family="sans-serif" font-size="14" lengthAdjust="spacing" textLength="104" x="164" y="182.0252">Client_Backend</text></g><!--entity Samply.Proxy1--><g id="elem_Samply.Proxy1"><rect fill="#F1F1F1" height="46.4883" rx="2.5" ry="2.5" style="stroke:#181818;stroke-width:0.5;" width="141" x="327.5" y="148.49"/><rect fill="#F1F1F1" height="10" style="stroke:#181818;stroke-width:0.5;" width="15" x="448.5" y="153.49"/><rect fill="#F1F1F1" height="2" style="stroke:#181818;stroke-width:0.5;" width="4" x="446.5" y="155.49"/><rect fill="#F1F1F1" height="2" style="stroke:#181818;stroke-width:0.5;" width="4" x="446.5" y="159.49"/><text fill="#000000" font-family="sans-serif" font-size="14" lengthAdjust="spacing" textLength="101" x="342.5" y="182.0252">Samply.Proxy1</text></g><!--entity Samply.Broker--><g id="elem_Samply.Broker"><rect fill="#F1F1F1" height="46.4883" rx="2.5" ry="2.5" style="stroke:#181818;stroke-width:0.5;" width="138" x="329" y="274.98"/><rect fill="#F1F1F1" height="10" style="stroke:#181818;stroke-width:0.5;" width="15" x="447" y="279.98"/><rect fill="#F1F1F1" height="2" style="stroke:#181818;stroke-width:0.5;" width="4" x="445" y="281.98"/><rect fill="#F1F1F1" height="2" style="stroke:#181818;stroke-width:0.5;" width="4" x="445" y="285.98"/><text fill="#000000" font-family="sans-serif" font-size="14" lengthAdjust="spacing" textLength="98" x="344" y="308.5152">Samply.Broker</text></g><!--entity Public Key Infrastructure--><g id="elem_Public Key Infrastructure"><rect fill="#F1F1F1" height="46.4883" rx="2.5" ry="2.5" style="stroke:#181818;stroke-width:0.5;" width="207" x="502.5" y="274.98"/><rect fill="#F1F1F1" height="10" style="stroke:#181818;stroke-width:0.5;" width="15" x="689.5" y="279.98"/><rect fill="#F1F1F1" height="2" style="stroke:#181818;stroke-width:0.5;" width="4" x="687.5" y="281.98"/><rect fill="#F1F1F1" height="2" style="stroke:#181818;stroke-width:0.5;" width="4" x="687.5" y="285.98"/><text fill="#000000" font-family="sans-serif" font-size="14" lengthAdjust="spacing" textLength="167" x="517.5" y="308.5152">Public Key Infrastructure</text></g><!--entity Samply.Proxy2--><g id="elem_Samply.Proxy2"><rect fill="#F1F1F1" height="46.4883" rx="2.5" ry="2.5" style="stroke:#181818;stroke-width:0.5;" width="141" x="327.5" y="396.46"/><rect fill="#F1F1F1" height="10" style="stroke:#181818;stroke-width:0.5;" width="15" x="448.5" y="401.46"/><rect fill="#F1F1F1" height="2" style="stroke:#181818;stroke-width:0.5;" width="4" x="446.5" y="403.46"/><rect fill="#F1F1F1" height="2" style="stroke:#181818;stroke-width:0.5;" width="4" x="446.5" y="407.46"/><text fill="#000000" font-family="sans-serif" font-size="14" lengthAdjust="spacing" textLength="101" x="342.5" y="429.9952">Samply.Proxy2</text></g><!--entity Backend_Connector--><g id="elem_Backend_Connector"><rect fill="#F1F1F1" height="46.4883" rx="2.5" ry="2.5" style="stroke:#181818;stroke-width:0.5;" width="176" x="503" y="396.46"/><rect fill="#F1F1F1" height="10" style="stroke:#181818;stroke-width:0.5;" width="15" x="659" y="401.46"/><rect fill="#F1F1F1" height="2" style="stroke:#181818;stroke-width:0.5;" width="4" x="657" y="403.46"/><rect fill="#F1F1F1" height="2" style="stroke:#181818;stroke-width:0.5;" width="4" x="657" y="407.46"/><text fill="#000000" font-family="sans-serif" font-size="14" lengthAdjust="spacing" textLength="136" x="518" y="429.9952">Backend_Connector</text></g><!--entity MRBS--><g id="elem_MRBS"><rect fill="#F1F1F1" height="46.4883" rx="2.5" ry="2.5" style="stroke:#181818;stroke-width:0.5;" width="77" x="713.5" y="396.46"/><rect fill="#F1F1F1" height="10" style="stroke:#181818;stroke-width:0.5;" width="15" x="770.5" y="401.46"/><rect fill="#F1F1F1" height="2" style="stroke:#181818;stroke-width:0.5;" width="4" x="768.5" y="403.46"/><rect fill="#F1F1F1" height="2" style="stroke:#181818;stroke-width:0.5;" width="4" x="768.5" y="407.46"/><text fill="#000000" font-family="sans-serif" font-size="14" lengthAdjust="spacing" textLength="37" x="728.5" y="429.9952">MRBS</text></g><!--entity Database--><g id="elem_Database"><rect fill="#F1F1F1" height="46.4883" rx="2.5" ry="2.5" style="stroke:#181818;stroke-width:0.5;" width="103" x="612.5" y="502.95"/><rect fill="#F1F1F1" height="10" style="stroke:#181818;stroke-width:0.5;" width="15" x="695.5" y="507.95"/><rect fill="#F1F1F1" height="2" style="stroke:#181818;stroke-width:0.5;" width="4" x="693.5" y="509.95"/><rect fill="#F1F1F1" height="2" style="stroke:#181818;stroke-width:0.5;" width="4" x="693.5" y="513.95"/><text fill="#000000" font-family="sans-serif" font-size="14" lengthAdjust="spacing" textLength="63" x="627.5" y="536.4852">Database</text></g><!--link User to Client_Frontend--><g id="link_User_Client_Frontend"><path d="M93.99,65.24 C112.19,65.24 130.38,65.24 148.58,65.24 " fill="none" id="User-Client_Frontend" style="stroke:#181818;stroke-width:1.0;stroke-dasharray:7.0,7.0;"/></g><!--link Client_Frontend to Client_Backend--><g id="link_Client_Frontend_Client_Backend"><path d="M223.35,88.92 C222.85,106.44 222.15,130.59 221.65,148.1 " fill="none" id="Client_Frontend-Client_Backend" style="stroke:#181818;stroke-width:1.0;"/></g><!--link Client_Backend to Samply.Proxy1--><g id="link_Client_Backend_Samply.Proxy1"><path d="M293.25,171.73 C304.57,171.73 315.89,171.73 327.21,171.73 " fill="none" id="Client_Backend-Samply.Proxy1" style="stroke:#181818;stroke-width:1.0;"/></g><!--link Samply.Proxy1 to Samply.Broker--><g id="link_Samply.Proxy1_Samply.Broker"><path d="M398,195.27 C398,217.84 398,252.34 398,274.84 " fill="none" id="Samply.Proxy1-Samply.Broker" style="stroke:#181818;stroke-width:1.0;"/></g><!--link Samply.Broker to Samply.Proxy2--><g id="link_Samply.Broker_Samply.Proxy2"><path d="M398,321.69 C398,343.06 398,375 398,396.33 " fill="none" id="Samply.Broker-Samply.Proxy2" style="stroke:#181818;stroke-width:1.0;"/></g><!--link Samply.Broker to Public Key Infrastructure--><g id="link_Samply.Broker_Public Key Infrastructure"><path d="M467.47,298.22 C479.01,298.22 490.56,298.22 502.1,298.22 " fill="none" id="Samply.Broker-Public Key Infrastructure" style="stroke:#181818;stroke-width:1.0;"/></g><!--link Samply.Proxy2 to Backend_Connector--><g id="link_Samply.Proxy2_Backend_Connector"><path d="M468.87,419.71 C480.16,419.71 491.45,419.71 502.74,419.71 " fill="none" id="Samply.Proxy2-Backend_Connector" style="stroke:#181818;stroke-width:1.0;"/></g><!--link Backend_Connector to Database--><g id="link_Backend_Connector_Database"><path d="M606.84,443.38 C619.08,460.91 635.95,485.05 648.19,502.57 " fill="none" id="Backend_Connector-Database" style="stroke:#181818;stroke-width:1.0;"/></g><!--link MRBS to Database--><g id="link_MRBS_Database"><path d="M732.91,443.38 C718.14,460.91 697.81,485.05 683.06,502.57 " fill="none" id="MRBS-Database" style="stroke:#181818;stroke-width:1.0;"/></g><!--SRC=[VP1HQuCm58NVyoikllJ9mleJx1YCKYYLxMMK4kEjY7glnBXDnlxxOapNDSfyoZqvddloNRHi4A94yqU7Ee8l0VPxUx73INmBSPdkjtM9P637JSjaJnXvutHnVj9iHSfFTseYLNKJKzcqzR0-QFuS7bmuSMwpbRLgMKEA-hrK-Dl1-ssrQYpZj4EVrQM27GxmJBPRPtIlJA_HvOdMBfI5pHopKCCUqPHKm96vWOIviaEOx_fiVBvlVDuo4Ih3rxtxOvBwuwCqCfFTj76rWbVKMKbvJmMIcC31UW7CJ84udfCA1OXdu8BPnGIiWlclvVhScULVkC7Veti1rOBcLj-GJI3lnHy0]--></g></svg>