<?xml version="1.0" encoding="us-ascii" standalone="no"?><svg xmlns="http://www.w3.org/2000/svg" xmlns:xlink="http://www.w3.org/1999/xlink" contentStyleType="text/css" height="572px" preserveAspectRatio="none" style="width:810px;height:572px;background:#FFFFFF;" version="1.1" viewBox="0 0 810 572" width="810px" zoomAndPan="magnify"><defs/><g><!--cluster Browser--><g id="cluster_Browser"><rect fill="none" height="97.49" rx="2.5" ry="2.5" style="stroke:#181818;stroke-width:1.0;" width="102" x="7" y="7"/><path d="M75,7 L75,16.4883 L65,26.4883 L7,26.4883 " fill="none" style="stroke:#181818;stroke-width:1.0;"/><text fill="#000000" font-family="sans-serif" font-size="14" font-weight="bold" lengthAdjust="spacing" textLength="58" x="10" y="21.5352">Browser</text></g><!--cluster Komponente als Docker Container--><g id="cluster_Komponente als Docker Container"><rect fill="none" height="203.98" rx="2.5" ry="2.5" style="stroke:#181818;stroke-width:1.0;" width="349" x="133" y="7"/><path d="M390,7 L390,16.4883 L380,26.4883 L133,26.4883 " fill="none" style="stroke:#181818;stroke-width:1.0;"/><text fill="#000000" font-family="sans-serif" font-size="14" font-weight="bold" lengthAdjust="spacing" textLength="247" x="136" y="21.5352">Komponente als Docker Container</text></g><!--cluster central Service--><g id="cluster_central Service"><polygon fill="none" points="307,244.98,317,234.98,487,234.98,487,327.46,477,337.46,307,337.46,307,244.98" style="stroke:#181818;stroke-width:1.0;"/><line style="stroke:#181818;stroke-width:1.0;" x1="477" x2="487" y1="244.98" y2="234.98"/><line style="stroke:#181818;stroke-width:1.0;" x1="307" x2="477" y1="244.98" y2="244.98"/><line style="stroke:#181818;stroke-width:1.0;" x1="477" x2="477" y1="244.98" y2="337.46"/><text fill="#000000" font-family="sans-serif" font-size="14" font-weight="bold" lengthAdjust="spacing" textLength="104" x="341" y="261.5152">central Service</text></g><!--cluster Meeting Room Booking System Docker Container--><g id="cluster_Meeting Room Booking System Docker Container"><path d="M314.5,361.46 L671.5,361.46 A3.75,3.75 0 0 1 674,363.96 L681,383.9483 L800.5,383.9483 A2.5,2.5 0 0 1 803,386.4483 L803,562.94 A2.5,2.5 0 0 1 800.5,565.44 L314.5,565.44 A2.5,2.5 0 0 1 312,562.94 L312,363.96 A2.5,2.5 0 0 1 314.5,361.46 " fill="none" style="stroke:#000000;stroke-width:1.5;"/><line style="stroke:#000000;stroke-width:1.5;" x1="312" x2="681" y1="383.9483" y2="383.9483"/><text fill="#000000" font-family="sans-serif" font-size="14" font-weight="bold" lengthAdjust="spacing" textLength="356" x="316" y="376.9952">Meeting Room Booking System Docker Container</text></g><!--entity User--><g id="elem_User"><rect fill="#F1F1F1" height="46.4883" rx="2.5" ry="2.5" style="stroke:#181818;stroke-width:0.5;" width="71" x="22.5" y="42"/><rect fill="#F1F1F1" height="10" style="stroke:#181818;stroke-width:0.5;" width="15" x="73.5" y="47"/><rect fill="#F1F1F1" height="2" style="stroke:#181818;stroke-width:0.5;" width="4" x="71.5" y="49"/><rect fill="#F1F1F1" height="2" style="stroke:#181818;stroke-width:0.5;" width="4" x="71.5" y="53"/><text fill="#000000" font-family="sans-serif" font-size="14" lengthAdjust="spacing" textLength="31" x="37.5" y="75.5352">User</text></g><!--entity Client_Frontend--><g id="elem_Client_Frontend"><rect fill="#F1F1F1" height="46.4883" rx="2.5" ry="2.5" style="stroke:#181818;stroke-width:0.5;" width="150" x="149" y="42"/><rect fill="#F1F1F1" height="10" style="stroke:#181818;stroke-width:0.5;" width="15" x="279" y="47"/><rect fill="#F1F1F1" height="2" style="stroke:#181818;stroke-width:0.5;" width="4" x="277" y="49"/><rect fill="#F1F1F1" height="2" style="stroke:#181818;stroke-width:0.5;" width="4" x="277" y="53"/><text fill="#000000" font-family="sans-serif" font-size="14" lengthAdjust="spacing" textLength="110" x="164" y="75.5352">Client_Frontend</text></g><!--entity Client_Backend--><g id="elem_Client_Backend"><rect fill="#F1F1F1" height="46.4883" rx="2.5" ry="2.5" style="stroke:#181818;stroke-width:0.5;" width="144" x="149" y="148.49"/><rect fill="#F1F1F1" height="10" style="stroke:#181818;stroke-width:0.5;" width="15" x="273" y="153.49"/><rect fill="#F1F1F1" height="2" style="stroke:#181818;stroke-width:0.5;" width="4" x="271" y="155.49"/><rect fill="#F1F1F1" height="2" style="stroke:#181818;stroke-width:0.5;" width="4" x="271" y="159.49"/><text fill="#000000" font-family="sans-serif" font-size="14" lengthAdjust="spacing" textLength="104" x="164" y="182.0252">Client_Backend</text></g><!--entity SamplyProxy1--><g id="elem_SamplyProxy1"><rect fill="#F1F1F1" height="46.4883" rx="2.5" ry="2.5" style="stroke:#181818;stroke-width:0.5;" width="137" x="328.5" y="148.49"/><rect fill="#F1F1F1" height="10" style="stroke:#181818;stroke-width:0.5;" width="15" x="445.5" y="153.49"/><rect fill="#F1F1F1" height="2" style="stroke:#181818;stroke-width:0.5;" width="4" x="443.5" y="155.49"/><rect fill="#F1F1F1" height="2" style="stroke:#181818;stroke-width:0.5;" width="4" x="443.5" y="159.49"/><text fill="#000000" font-family="sans-serif" font-size="14" lengthAdjust="spacing" textLength="97" x="343.5" y="182.0252">SamplyProxy1</text></g><!--entity Broker--><g id="elem_Broker"><rect fill="#F1F1F1" height="46.4883" rx="2.5" ry="2.5" style="stroke:#181818;stroke-width:0.5;" width="85" x="354.5" y="274.98"/><rect fill="#F1F1F1" height="10" style="stroke:#181818;stroke-width:0.5;" width="15" x="419.5" y="279.98"/><rect fill="#F1F1F1" height="2" style="stroke:#181818;stroke-width:0.5;" width="4" x="417.5" y="281.98"/><rect fill="#F1F1F1" height="2" style="stroke:#181818;stroke-width:0.5;" width="4" x="417.5" y="285.98"/><text fill="#000000" font-family="sans-serif" font-size="14" lengthAdjust="spacing" textLength="45" x="369.5" y="308.5152">Broker</text></g><!--entity SamplyProxy2--><g id="elem_SamplyProxy2"><rect fill="#F1F1F1" height="46.4883" rx="2.5" ry="2.5" style="stroke:#181818;stroke-width:0.5;" width="137" x="328.5" y="396.46"/><rect fill="#F1F1F1" height="10" style="stroke:#181818;stroke-width:0.5;" width="15" x="445.5" y="401.46"/><rect fill="#F1F1F1" height="2" style="stroke:#181818;stroke-width:0.5;" width="4" x="443.5" y="403.46"/><rect fill="#F1F1F1" height="2" style="stroke:#181818;stroke-width:0.5;" width="4" x="443.5" y="407.46"/><text fill="#000000" font-family="sans-serif" font-size="14" lengthAdjust="spacing" textLength="97" x="343.5" y="429.9952">SamplyProxy2</text></g><!--entity Backend_Connector--><g id="elem_Backend_Connector"><rect fill="#F1F1F1" height="46.4883" rx="2.5" ry="2.5" style="stroke:#181818;stroke-width:0.5;" width="176" x="500" y="396.46"/><rect fill="#F1F1F1" height="10" style="stroke:#181818;stroke-width:0.5;" width="15" x="656" y="401.46"/><rect fill="#F1F1F1" height="2" style="stroke:#181818;stroke-width:0.5;" width="4" x="654" y="403.46"/><rect fill="#F1F1F1" height="2" style="stroke:#181818;stroke-width:0.5;" width="4" x="654" y="407.46"/><text fill="#000000" font-family="sans-serif" font-size="14" lengthAdjust="spacing" textLength="136" x="515" y="429.9952">Backend_Connector</text></g><!--entity MRBS--><g id="elem_MRBS"><rect fill="#F1F1F1" height="46.4883" rx="2.5" ry="2.5" style="stroke:#181818;stroke-width:0.5;" width="77" x="710.5" y="396.46"/><rect fill="#F1F1F1" height="10" style="stroke:#181818;stroke-width:0.5;" width="15" x="767.5" y="401.46"/><rect fill="#F1F1F1" height="2" style="stroke:#181818;stroke-width:0.5;" width="4" x="765.5" y="403.46"/><rect fill="#F1F1F1" height="2" style="stroke:#181818;stroke-width:0.5;" width="4" x="765.5" y="407.46"/><text fill="#000000" font-family="sans-serif" font-size="14" lengthAdjust="spacing" textLength="37" x="725.5" y="429.9952">MRBS</text></g><!--entity Database--><g id="elem_Database"><rect fill="#F1F1F1" height="46.4883" rx="2.5" ry="2.5" style="stroke:#181818;stroke-width:0.5;" width="103" x="609.5" y="502.95"/><rect fill="#F1F1F1" height="10" style="stroke:#181818;stroke-width:0.5;" width="15" x="692.5" y="507.95"/><rect fill="#F1F1F1" height="2" style="stroke:#181818;stroke-width:0.5;" width="4" x="690.5" y="509.95"/><rect fill="#F1F1F1" height="2" style="stroke:#181818;stroke-width:0.5;" width="4" x="690.5" y="513.95"/><text fill="#000000" font-family="sans-serif" font-size="14" lengthAdjust="spacing" textLength="63" x="624.5" y="536.4852">Database</text></g><!--link User to Client_Frontend--><g id="link_User_Client_Frontend"><path d="M93.99,65.24 C112.19,65.24 130.38,65.24 148.58,65.24 " fill="none" id="User-Client_Frontend" style="stroke:#181818;stroke-width:1.0;stroke-dasharray:7.0,7.0;"/></g><!--link Client_Frontend to Client_Backend--><g id="link_Client_Frontend_Client_Backend"><path d="M223.35,88.92 C222.85,106.44 222.15,130.59 221.65,148.1 " fill="none" id="Client_Frontend-Client_Backend" style="stroke:#181818;stroke-width:1.0;"/></g><!--link Client_Backend to SamplyProxy1--><g id="link_Client_Backend_SamplyProxy1"><path d="M293.19,171.73 C304.81,171.73 316.44,171.73 328.06,171.73 " fill="none" id="Client_Backend-SamplyProxy1" style="stroke:#181818;stroke-width:1.0;"/></g><!--link SamplyProxy1 to Broker--><g id="link_SamplyProxy1_Broker"><path d="M397,195.27 C397,217.84 397,252.34 397,274.84 " fill="none" id="SamplyProxy1-Broker" style="stroke:#181818;stroke-width:1.0;"/></g><!--link Broker to SamplyProxy2--><g id="link_Broker_SamplyProxy2"><path d="M397,321.69 C397,343.06 397,375 397,396.33 " fill="none" id="Broker-SamplyProxy2" style="stroke:#181818;stroke-width:1.0;"/></g><!--link SamplyProxy2 to Backend_Connector--><g id="link_SamplyProxy2_Backend_Connector"><path d="M465.64,419.71 C476.95,419.71 488.26,419.71 499.58,419.71 " fill="none" id="SamplyProxy2-Backend_Connector" style="stroke:#181818;stroke-width:1.0;"/></g><!--link Backend_Connector to Database--><g id="link_Backend_Connector_Database"><path d="M603.84,443.38 C616.08,460.91 632.95,485.05 645.19,502.57 " fill="none" id="Backend_Connector-Database" style="stroke:#181818;stroke-width:1.0;"/></g><!--link MRBS to Database--><g id="link_MRBS_Database"><path d="M729.91,443.38 C715.14,460.91 694.81,485.05 680.06,502.57 " fill="none" id="MRBS-Database" style="stroke:#181818;stroke-width:1.0;"/></g><!--SRC=[RL1DQyCm3BtxLuXUUifW-mbfsMKKHiDs6QMuYHfCOYautaSO- -zJ7QURc_XaFJqzFRspqnPXbJl-xD6ju5k1lBSNAGxgHwdps7zYsp4XUGJTzh3bia476oQl3SbS7DkqHZZ7HoSDfEgGeBcMeIjOQDkrmxFZh-4-R2AkP54fJATRAD1zc1AlXiHW4osfJeHqBUGTeZTKmvxPGixSN8fYw3tQkSL9wT_YX-WbEZiAcR3qx2A-s-T5_6wrroVTOt2mNiChkfEXwfrg93N61NSB0SmGoB9v8hS0PBS1fMKGcIAPFW5ChqlBY-h2gGjOaFexUGmY1Ny1]--></g></svg>