<?xml version="1.0" encoding="UTF-8" standalone="no"?><svg xmlns="http://www.w3.org/2000/svg" xmlns:xlink="http://www.w3.org/1999/xlink" contentStyleType="text/css" height="425px" preserveAspectRatio="none" style="width:593px;height:425px;background:#FFFFFF;" version="1.1" viewBox="0 0 593 425" width="593px" zoomAndPan="magnify"><defs/><g><!--MD5=[8699c0c8e953ee53654a072cc875bfb4]
cluster Browser--><g id="cluster_Browser"><rect fill="none" height="100" rx="2.5" ry="2.5" style="stroke:#181818;stroke-width:1.0;" width="108" x="13" y="7"/><path d="M82,7 L82,17.6094 L72,27.6094 L13,27.6094 " fill="none" style="stroke:#181818;stroke-width:1.0;"/><text fill="#000000" font-family="sans-serif" font-size="14" font-weight="bold" lengthAdjust="spacing" textLength="59" x="16" y="22.5332">Browser</text></g><!--MD5=[5166bb842ef0518b189718832e210401]
cluster central Service--><g id="cluster_central Service"><polygon fill="none" points="16,160,26,150,235,150,235,384,225,394,16,394,16,160" style="stroke:#181818;stroke-width:1.0;"/><line style="stroke:#181818;stroke-width:1.0;" x1="225" x2="235" y1="160" y2="150"/><line style="stroke:#181818;stroke-width:1.0;" x1="16" x2="225" y1="160" y2="160"/><line style="stroke:#181818;stroke-width:1.0;" x1="225" x2="225" y1="160" y2="394"/><text fill="#000000" font-family="sans-serif" font-size="14" font-weight="bold" lengthAdjust="spacing" textLength="107" x="68" y="177.5332">central Service</text></g><!--MD5=[470ed74b7b165da1eff8dd4ca3f57bfb]
cluster central Server--><g id="cluster_central Server"><path d="M261.5,131 L363.5,131 A3.75,3.75 0 0 1 366,133.5 L373,154.6094 L583.5,154.6094 A2.5,2.5 0 0 1 586,157.1094 L586,415.5 A2.5,2.5 0 0 1 583.5,418 L261.5,418 A2.5,2.5 0 0 1 259,415.5 L259,133.5 A2.5,2.5 0 0 1 261.5,131 " fill="none" style="stroke:#000000;stroke-width:1.5;"/><line style="stroke:#000000;stroke-width:1.5;" x1="259" x2="373" y1="154.6094" y2="154.6094"/><text fill="#000000" font-family="sans-serif" font-size="14" font-weight="bold" lengthAdjust="spacing" textLength="101" x="263" y="147.5332">central Server</text></g><g id="cluster_##11"><path d="M382.2282,184.6959 C386.5231,178.2059 392.1479,177.5218 396.4324,184.7066 C398.7397,178.1098 404.5984,177.6984 408.3804,183.257 C412.3485,177.15 417.4182,178.4057 420.281,184.3486 C423.2912,177.7294 428.2026,177.77 432.6467,182.8304 C435.9524,176.4307 440.0541,176.8215 444.4944,181.6312 C449.2845,175.0328 454.0413,176.2606 457.6171,182.8404 C461.5319,177.0626 466.4042,176.4074 470.2321,182.9295 C473.5344,176.6958 477.9828,176.7143 481.615,182.6202 C485.3215,177.2834 490.3664,177.1426 493.161,183.519 C497.2764,176.7092 501.8623,176.4919 506.8982,182.5353 C510.5891,177.8894 514.2952,177.7032 518.1711,182.31 C522.6888,177.8359 526.9025,177.9884 529.9937,183.9292 C533.9791,178.2443 538.5433,178.2759 542.7194,183.711 C546.8543,179.2705 551.6051,179.9221 554.4531,185.2559 C561.961,188.8764 563.7864,193.9004 557.1429,200.0874 C567.3649,203.6091 567.3539,210.4064 560.3572,217.1684 C565.7858,223.4429 565.9224,228.831 557.4474,232.4598 C563.7497,239.3655 562.889,244.8465 554.4388,249.0819 C550.9168,255.1766 545.3118,253.8356 542.3913,248.4508 C538.0964,254.882 533.852,254.3432 529.4597,248.5538 C525.5688,253.9359 521.5158,254.0435 517.4297,248.7742 C513.3194,254.2832 509.4728,255.0357 504.9927,249.1789 C500.6225,253.7785 496.8655,254.0436 493.719,247.8953 C491.4482,253.3214 486.4622,253.9633 482.5521,249.8054 C477.8479,255.8335 472.8774,255.598 468.2994,249.6551 C465.0932,255.4713 460.726,254.8669 457.0281,250.1829 C452.309,255.8385 446.9313,254.7726 444.5088,247.8898 C441.5785,253.7897 435.9791,252.8798 432.7484,248.2244 C429.1945,255.307 424.8391,254.5194 419.8356,249.8121 C416.1576,254.4704 411.6074,253.9633 408.4234,249.2129 C404.2672,255.0394 399.4163,254.4449 395.8074,248.6203 C391.9349,255.044 386.1135,255.3415 382.8278,248.0643 C375.7764,244.5609 373.1612,238.0851 380.3173,232.3167 C372.3252,229.1214 370.5693,222.811 377.4972,216.8885 C370.9329,209.883 372.1602,204.4073 380.6008,200.1906 C373.708,194.3126 374.2966,189.0169 382.2282,184.6959 " fill="none" style="stroke:#181818;stroke-width:1.0;"/></g><!--MD5=[35416571f72b437e1b0191dcaf7d4da4]
cluster Mrbs--><g id="cluster_Mrbs"><path d="M364,289 C364,279 463,279 463,279 C463,279 562,279 562,289 L562,384 C562,394 463,394 463,394 C463,394 364,394 364,384 L364,289 " fill="none" style="stroke:#181818;stroke-width:1.0;"/><path d="M364,289 C364,299 463,299 463,299 C463,299 562,299 562,289 " fill="none" style="stroke:#181818;stroke-width:1.0;"/><text fill="#000000" font-family="sans-serif" font-size="14" font-weight="bold" lengthAdjust="spacing" textLength="36" x="445" y="315.5332">Mrbs</text></g><!--MD5=[0ba5ee7700168656dc1b457c6fe9fdac]
entity Client--><g id="elem_Client"><rect fill="#F1F1F1" height="47.6094" rx="2.5" ry="2.5" style="stroke:#181818;stroke-width:0.5;" width="76" x="29" y="43"/><rect fill="#F1F1F1" height="10" style="stroke:#181818;stroke-width:0.5;" width="15" x="85" y="48"/><rect fill="#F1F1F1" height="2" style="stroke:#181818;stroke-width:0.5;" width="4" x="83" y="50"/><rect fill="#F1F1F1" height="2" style="stroke:#181818;stroke-width:0.5;" width="4" x="83" y="54"/><text fill="#000000" font-family="sans-serif" font-size="14" lengthAdjust="spacing" textLength="36" x="44" y="77.5332">Client</text></g><!--MD5=[fcbe7c4c79f3d28870999aecd6f15576]
entity OAuth--><g id="elem_OAuth"><rect fill="#F1F1F1" height="47.6094" rx="2.5" ry="2.5" style="stroke:#181818;stroke-width:0.5;" width="80" x="32" y="330"/><rect fill="#F1F1F1" height="10" style="stroke:#181818;stroke-width:0.5;" width="15" x="92" y="335"/><rect fill="#F1F1F1" height="2" style="stroke:#181818;stroke-width:0.5;" width="4" x="90" y="337"/><rect fill="#F1F1F1" height="2" style="stroke:#181818;stroke-width:0.5;" width="4" x="90" y="341"/><text fill="#000000" font-family="sans-serif" font-size="14" lengthAdjust="spacing" textLength="40" x="47" y="364.5332">OAuth</text></g><!--MD5=[58e779c6ff2a4894f52d28f7869c5d92]
entity Spot--><g id="elem_Spot"><rect fill="#F1F1F1" height="47.6094" rx="2.5" ry="2.5" style="stroke:#181818;stroke-width:0.5;" width="69" x="32.5" y="191"/><rect fill="#F1F1F1" height="10" style="stroke:#181818;stroke-width:0.5;" width="15" x="81.5" y="196"/><rect fill="#F1F1F1" height="2" style="stroke:#181818;stroke-width:0.5;" width="4" x="79.5" y="198"/><rect fill="#F1F1F1" height="2" style="stroke:#181818;stroke-width:0.5;" width="4" x="79.5" y="202"/><text fill="#000000" font-family="sans-serif" font-size="14" lengthAdjust="spacing" textLength="29" x="47.5" y="225.5332">Spot</text></g><!--MD5=[241b36de05534b6660b3ddf6e8766aa9]
entity Broker--><g id="elem_Broker"><rect fill="#F1F1F1" height="47.6094" rx="2.5" ry="2.5" style="stroke:#181818;stroke-width:0.5;" width="82" x="137" y="191"/><rect fill="#F1F1F1" height="10" style="stroke:#181818;stroke-width:0.5;" width="15" x="199" y="196"/><rect fill="#F1F1F1" height="2" style="stroke:#181818;stroke-width:0.5;" width="4" x="197" y="198"/><rect fill="#F1F1F1" height="2" style="stroke:#181818;stroke-width:0.5;" width="4" x="197" y="202"/><text fill="#000000" font-family="sans-serif" font-size="14" lengthAdjust="spacing" textLength="42" x="152" y="225.5332">Broker</text></g><!--MD5=[c746395a6b9a78361d937adc1edc53c5]
entity Focus--><g id="elem_Focus"><rect fill="#F1F1F1" height="47.6094" rx="2.5" ry="2.5" style="stroke:#181818;stroke-width:0.5;" width="79" x="275.5" y="191"/><rect fill="#F1F1F1" height="10" style="stroke:#181818;stroke-width:0.5;" width="15" x="334.5" y="196"/><rect fill="#F1F1F1" height="2" style="stroke:#181818;stroke-width:0.5;" width="4" x="332.5" y="198"/><rect fill="#F1F1F1" height="2" style="stroke:#181818;stroke-width:0.5;" width="4" x="332.5" y="202"/><text fill="#000000" font-family="sans-serif" font-size="14" lengthAdjust="spacing" textLength="39" x="290.5" y="225.5332">Focus</text></g><!--MD5=[76d4525ec49858fec3d316d6597b97fa]
entity Server_REST_API--><g id="elem_Server_REST_API"><rect fill="#F1F1F1" height="47.6094" rx="2.5" ry="2.5" style="stroke:#181818;stroke-width:0.5;" width="156" x="390" y="191"/><rect fill="#F1F1F1" height="10" style="stroke:#181818;stroke-width:0.5;" width="15" x="526" y="196"/><rect fill="#F1F1F1" height="2" style="stroke:#181818;stroke-width:0.5;" width="4" x="524" y="198"/><rect fill="#F1F1F1" height="2" style="stroke:#181818;stroke-width:0.5;" width="4" x="524" y="202"/><text fill="#000000" font-family="sans-serif" font-size="14" lengthAdjust="spacing" textLength="116" x="405" y="225.5332">Server_REST_API</text></g><!--MD5=[aa670ab98ddb6c13b71b71b59872f278]
entity Verbis_Raumplaner--><g id="elem_Verbis_Raumplaner"><rect fill="#F1F1F1" height="47.6094" rx="2.5" ry="2.5" style="stroke:#181818;stroke-width:0.5;" width="165" x="380.5" y="330"/><rect fill="#F1F1F1" height="10" style="stroke:#181818;stroke-width:0.5;" width="15" x="525.5" y="335"/><rect fill="#F1F1F1" height="2" style="stroke:#181818;stroke-width:0.5;" width="4" x="523.5" y="337"/><rect fill="#F1F1F1" height="2" style="stroke:#181818;stroke-width:0.5;" width="4" x="523.5" y="341"/><text fill="#000000" font-family="sans-serif" font-size="14" lengthAdjust="spacing" textLength="125" x="395.5" y="364.5332">Verbis_Raumplaner</text></g><!--MD5=[dd8bacd02b75001aabfb1f3b5faee0cf]
link Client to Spot--><g id="link_Client_Spot"><path d="M67,91.13 C67,118.47 67,163.68 67,190.97 " fill="none" id="Client-Spot" style="stroke:#181818;stroke-width:1.0;"/></g><!--MD5=[df9185a44f469a97aa4b50eab0038664]
link Spot to OAuth--><g id="link_Spot_OAuth"><path d="M67.85,239.24 C68.77,264.43 70.23,304.41 71.15,329.65 " fill="none" id="Spot-OAuth" style="stroke:#181818;stroke-width:1.0;stroke-dasharray:7.0,7.0;"/></g><!--MD5=[2cf0cdde0443ca5eabb31ff22b155778]
link Spot to Broker--><g id="link_Spot_Broker"><path d="M101.69,215 C113.41,215 125.14,215 136.86,215 " fill="none" id="Spot-Broker" style="stroke:#181818;stroke-width:1.0;"/></g><!--MD5=[2e0391499c8ab8f8bba73d13b8d44b87]
link Broker to Focus--><g id="link_Broker_Focus"><path d="M219.21,230.14 C237.92,234.06 256.63,233.95 275.34,229.81 " fill="none" id="Broker-Focus" style="stroke:#181818;stroke-width:1.0;"/></g><!--MD5=[55649a30d04f9a10c66e245ac5bc32b1]
link Focus to Server_REST_API--><g id="link_Focus_Server_REST_API"><path d="M354.74,215 C366.39,215 378.04,215 389.69,215 " fill="none" id="Focus-Server_REST_API" style="stroke:#181818;stroke-width:1.0;"/></g><!--MD5=[8eafb448d7de8113e3e19c01490b68bf]
link Server_REST_API to Verbis_Raumplaner--><g id="link_Server_REST_API_Verbis_Raumplaner"><path d="M467.15,239.24 C466.23,264.43 464.77,304.41 463.85,329.65 " fill="none" id="Server_REST_API-Verbis_Raumplaner" style="stroke:#181818;stroke-width:1.0;"/></g><!--MD5=[2cb01e8455ae2d3d4275360fa10e48fd]
@startuml

frame "Browser" {
    [Client]
}

node "central Service" {
    [OAuth]
    [Spot]
    [Broker]
}

package "central Server" {
    [Focus]
    cloud {
        [Server_REST_API]
    }
    database "Mrbs" {
        [Verbis_Raumplaner]
    }
}
'' Verbindungen
[Client] - - [Spot]
[Spot] .. [OAuth]
[Spot] - [Broker]
[Broker] - [Focus]
[Focus] - [Server_REST_API]
[Server_REST_API] - - [Verbis_Raumplaner]
@enduml

@startuml

frame "Browser" {
    [Client]
}

node "central Service" {
    [OAuth]
    [Spot]
    [Broker]
}

package "central Server" {
    [Focus]
    cloud {
        [Server_REST_API]
    }
    database "Mrbs" {
        [Verbis_Raumplaner]
    }
}
[Client] - - [Spot]
[Spot] .. [OAuth]
[Spot] - [Broker]
[Broker] - [Focus]
[Focus] - [Server_REST_API]
[Server_REST_API] - - [Verbis_Raumplaner]
@enduml

PlantUML version 1.2022.7(Mon Aug 22 19:01:30 CEST 2022)
(GPL source distribution)
Java Runtime: OpenJDK Runtime Environment
JVM: OpenJDK 64-Bit Server VM
Default Encoding: UTF-8
Language: de
Country: DE
--></g></svg>