<?xml version="1.0" encoding="us-ascii" standalone="no"?><svg xmlns="http://www.w3.org/2000/svg" xmlns:xlink="http://www.w3.org/1999/xlink" contentStyleType="text/css" height="503px" preserveAspectRatio="none" style="width:753px;height:503px;background:#FFFFFF;" version="1.1" viewBox="0 0 753 503" width="753px" zoomAndPan="magnify"><defs/><g><!--cluster Browser--><g id="cluster_Browser"><rect fill="none" height="97.49" rx="2.5" ry="2.5" style="stroke:#181818;stroke-width:1.0;" width="102" x="7" y="11"/><path d="M75,11 L75,20.4883 L65,30.4883 L7,30.4883 " fill="none" style="stroke:#181818;stroke-width:1.0;"/><text fill="#000000" font-family="sans-serif" font-size="14" font-weight="bold" lengthAdjust="spacing" textLength="58" x="10" y="25.5352">Browser</text></g><!--cluster central Service--><g id="cluster_central Service"><polygon fill="none" points="133,16,143,6,468,6,468,219.97,458,229.97,133,229.97,133,16" style="stroke:#181818;stroke-width:1.0;"/><line style="stroke:#181818;stroke-width:1.0;" x1="458" x2="468" y1="16" y2="6"/><line style="stroke:#181818;stroke-width:1.0;" x1="133" x2="458" y1="16" y2="16"/><line style="stroke:#181818;stroke-width:1.0;" x1="458" x2="458" y1="16" y2="229.97"/><text fill="#000000" font-family="sans-serif" font-size="14" font-weight="bold" lengthAdjust="spacing" textLength="104" x="244.5" y="32.5352">central Service</text></g><!--cluster central Server--><g id="cluster_central Server"><path d="M494.5,132.49 L593.5,132.49 A3.75,3.75 0 0 1 596,134.99 L603,154.9783 L743.5,154.9783 A2.5,2.5 0 0 1 746,157.4783 L746,494.45 A2.5,2.5 0 0 1 743.5,496.95 L494.5,496.95 A2.5,2.5 0 0 1 492,494.45 L492,134.99 A2.5,2.5 0 0 1 494.5,132.49 " fill="none" style="stroke:#000000;stroke-width:1.5;"/><line style="stroke:#000000;stroke-width:1.5;" x1="492" x2="603" y1="154.9783" y2="154.9783"/><text fill="#000000" font-family="sans-serif" font-size="14" font-weight="bold" lengthAdjust="spacing" textLength="98" x="496" y="148.0252">central Server</text></g><g id="cluster_##11"><path d="M529.257,266.4684 C533.2302,260.1049 538.7991,260.3124 541.9193,267.2786 C545.6326,261.3976 549.7758,258.9917 555.1246,265.5411 C557.3073,259.6436 562.8954,258.7522 566.6885,263.8469 C569.7136,257.6706 575.317,257.9244 579.2282,262.8456 C582.2102,258.0621 588.0827,257.0194 590.9504,262.9704 C593.3352,256.8098 599.4055,257.0017 602.9969,261.622 C605.9176,254.2104 611.2163,253.8161 615.8243,260.034 C619.8498,254.6841 625.4498,254.0671 628.2907,261.2155 C631.8438,256.4548 636.8205,258.0707 638.6421,263.0549 C643.0277,256.5831 648.6413,257.5999 651.4099,264.5888 C654.8936,257.5837 660.1445,257.5747 664.5931,263.6136 C668.3119,259.8493 672.7423,259.3492 674.7656,265.3753 C679.2525,257.6189 685.094,258.7505 689.1118,265.8289 C694.3422,260.7748 697.7162,261.8553 700.5377,268.236 C707.8599,271.8195 706.9561,278.9313 701.0233,282.9522 C708.7833,287.4174 708.2508,294.0728 701.8911,299.2881 C708.7192,304.5015 708.242,309.4807 700.9565,313.7842 C708.7699,318.4864 707.2568,324.4586 701.0133,329.2125 C697.7339,335.5488 692.7645,335.8807 687.9225,331.0432 C683.7846,337.8777 679.8299,337.2625 674.9335,331.8475 C671.5147,336.9156 666.926,337.1304 663.2064,332.2003 C660.5066,336.8424 655.6217,337.1974 652.6162,332.5489 C649.8427,339.0004 643.8826,340.5387 638.886,335.1204 C634.6514,340.4247 631.1319,340.6779 627.4052,334.6077 C623.7126,340.6702 619.67,342.1144 614.7625,335.8541 C610.7831,340.2564 606.0893,340.5731 603.2061,334.6295 C599.7342,340.1963 594.0803,340.5694 591.3875,333.8783 C587.3212,340.7733 583.2457,341.51 578.2619,334.7609 C573.6604,340.0133 569.6735,339.0868 566.8367,332.9851 C561.7364,337.7651 556.8987,337.0466 554.0091,330.4848 C550.8932,335.9435 546.0332,336.0587 542.2136,331.297 C536.6556,337.4167 532.2452,334.7926 529.4255,328.4803 C522.5296,324.3194 521.6768,318.1187 529.552,314.0877 C521.4708,311.1601 520.274,305.1672 526.7978,299.485 C520.8562,293.3683 521.6306,287.7255 529.3916,283.8874 C521.3636,279.2911 519.8719,271.1993 529.257,266.4684 " fill="none" style="stroke:#181818;stroke-width:1.0;"/></g><!--cluster Mrbs--><g id="cluster_Mrbs"><path d="M516,370.46 C516,360.46 619,360.46 619,360.46 C619,360.46 722,360.46 722,370.46 L722,462.95 C722,472.95 619,472.95 619,472.95 C619,472.95 516,472.95 516,462.95 L516,370.46 " fill="none" style="stroke:#181818;stroke-width:1.0;"/><path d="M516,370.46 C516,380.46 619,380.46 619,380.46 C619,380.46 722,380.46 722,370.46 " fill="none" style="stroke:#181818;stroke-width:1.0;"/><text fill="#000000" font-family="sans-serif" font-size="14" font-weight="bold" lengthAdjust="spacing" textLength="36" x="601" y="395.9952">Mrbs</text></g><!--entity User--><g id="elem_User"><rect fill="#F1F1F1" height="46.4883" rx="2.5" ry="2.5" style="stroke:#181818;stroke-width:0.5;" width="71" x="22.5" y="46"/><rect fill="#F1F1F1" height="10" style="stroke:#181818;stroke-width:0.5;" width="15" x="73.5" y="51"/><rect fill="#F1F1F1" height="2" style="stroke:#181818;stroke-width:0.5;" width="4" x="71.5" y="53"/><rect fill="#F1F1F1" height="2" style="stroke:#181818;stroke-width:0.5;" width="4" x="71.5" y="57"/><text fill="#000000" font-family="sans-serif" font-size="14" lengthAdjust="spacing" textLength="31" x="37.5" y="79.5352">User</text></g><!--entity Client--><g id="elem_Client"><rect fill="#F1F1F1" height="46.4883" rx="2.5" ry="2.5" style="stroke:#181818;stroke-width:0.5;" width="80" x="174" y="46"/><rect fill="#F1F1F1" height="10" style="stroke:#181818;stroke-width:0.5;" width="15" x="234" y="51"/><rect fill="#F1F1F1" height="2" style="stroke:#181818;stroke-width:0.5;" width="4" x="232" y="53"/><rect fill="#F1F1F1" height="2" style="stroke:#181818;stroke-width:0.5;" width="4" x="232" y="57"/><text fill="#000000" font-family="sans-serif" font-size="14" lengthAdjust="spacing" textLength="40" x="189" y="79.5352">Client</text></g><!--entity OAuth--><g id="elem_OAuth"><rect fill="#F1F1F1" height="46.4883" rx="2.5" ry="2.5" style="stroke:#181818;stroke-width:0.5;" width="84" x="289" y="46"/><rect fill="#F1F1F1" height="10" style="stroke:#181818;stroke-width:0.5;" width="15" x="353" y="51"/><rect fill="#F1F1F1" height="2" style="stroke:#181818;stroke-width:0.5;" width="4" x="351" y="53"/><rect fill="#F1F1F1" height="2" style="stroke:#181818;stroke-width:0.5;" width="4" x="351" y="57"/><text fill="#000000" font-family="sans-serif" font-size="14" lengthAdjust="spacing" textLength="44" x="304" y="79.5352">OAuth</text></g><!--entity Samply_Proxy_Client--><g id="elem_Samply_Proxy_Client"><rect fill="#F1F1F1" height="46.4883" rx="2.5" ry="2.5" style="stroke:#181818;stroke-width:0.5;" width="182" x="149" y="167.49"/><rect fill="#F1F1F1" height="10" style="stroke:#181818;stroke-width:0.5;" width="15" x="311" y="172.49"/><rect fill="#F1F1F1" height="2" style="stroke:#181818;stroke-width:0.5;" width="4" x="309" y="174.49"/><rect fill="#F1F1F1" height="2" style="stroke:#181818;stroke-width:0.5;" width="4" x="309" y="178.49"/><text fill="#000000" font-family="sans-serif" font-size="14" lengthAdjust="spacing" textLength="142" x="164" y="201.0252">Samply_Proxy_Client</text></g><!--entity Broker--><g id="elem_Broker"><rect fill="#F1F1F1" height="46.4883" rx="2.5" ry="2.5" style="stroke:#181818;stroke-width:0.5;" width="85" x="366.5" y="167.49"/><rect fill="#F1F1F1" height="10" style="stroke:#181818;stroke-width:0.5;" width="15" x="431.5" y="172.49"/><rect fill="#F1F1F1" height="2" style="stroke:#181818;stroke-width:0.5;" width="4" x="429.5" y="174.49"/><rect fill="#F1F1F1" height="2" style="stroke:#181818;stroke-width:0.5;" width="4" x="429.5" y="178.49"/><text fill="#000000" font-family="sans-serif" font-size="14" lengthAdjust="spacing" textLength="45" x="381.5" y="201.0252">Broker</text></g><!--entity Samply_Proxy_Server--><g id="elem_Samply_Proxy_Server"><rect fill="#F1F1F1" height="46.4883" rx="2.5" ry="2.5" style="stroke:#181818;stroke-width:0.5;" width="185" x="511.5" y="167.49"/><rect fill="#F1F1F1" height="10" style="stroke:#181818;stroke-width:0.5;" width="15" x="676.5" y="172.49"/><rect fill="#F1F1F1" height="2" style="stroke:#181818;stroke-width:0.5;" width="4" x="674.5" y="174.49"/><rect fill="#F1F1F1" height="2" style="stroke:#181818;stroke-width:0.5;" width="4" x="674.5" y="178.49"/><text fill="#000000" font-family="sans-serif" font-size="14" lengthAdjust="spacing" textLength="145" x="526.5" y="201.0252">Samply_Proxy_Server</text></g><!--entity Server_REST_API--><g id="elem_Server_REST_API"><rect fill="#F1F1F1" height="46.4883" rx="2.5" ry="2.5" style="stroke:#181818;stroke-width:0.5;" width="153" x="537.5" y="273.97"/><rect fill="#F1F1F1" height="10" style="stroke:#181818;stroke-width:0.5;" width="15" x="670.5" y="278.97"/><rect fill="#F1F1F1" height="2" style="stroke:#181818;stroke-width:0.5;" width="4" x="668.5" y="280.97"/><rect fill="#F1F1F1" height="2" style="stroke:#181818;stroke-width:0.5;" width="4" x="668.5" y="284.97"/><text fill="#000000" font-family="sans-serif" font-size="14" lengthAdjust="spacing" textLength="113" x="552.5" y="307.5052">Server_REST_API</text></g><!--entity Verbis_Raumplaner--><g id="elem_Verbis_Raumplaner"><rect fill="#F1F1F1" height="46.4883" rx="2.5" ry="2.5" style="stroke:#181818;stroke-width:0.5;" width="173" x="532.5" y="410.46"/><rect fill="#F1F1F1" height="10" style="stroke:#181818;stroke-width:0.5;" width="15" x="685.5" y="415.46"/><rect fill="#F1F1F1" height="2" style="stroke:#181818;stroke-width:0.5;" width="4" x="683.5" y="417.46"/><rect fill="#F1F1F1" height="2" style="stroke:#181818;stroke-width:0.5;" width="4" x="683.5" y="421.46"/><text fill="#000000" font-family="sans-serif" font-size="14" lengthAdjust="spacing" textLength="133" x="547.5" y="443.9952">Verbis_Raumplaner</text></g><!--link User to Client--><g id="link_User_Client"><path d="M93.95,69.24 C120.53,69.24 147.1,69.24 173.67,69.24 " fill="none" id="User-Client" style="stroke:#181818;stroke-width:1.0;"/></g><!--link Client to Samply_Proxy_Client--><g id="link_Client_Samply_Proxy_Client"><path d="M218.89,92.72 C223.54,114.08 230.49,146.03 235.13,167.36 " fill="none" id="Client-Samply_Proxy_Client" style="stroke:#181818;stroke-width:1.0;"/></g><!--link Client to OAuth--><g id="link_Client_OAuth"><path d="M254.22,69.24 C265.72,69.24 277.21,69.24 288.71,69.24 " fill="none" id="Client-OAuth" style="stroke:#181818;stroke-width:1.0;stroke-dasharray:7.0,7.0;"/></g><!--link Samply_Proxy_Client to Broker--><g id="link_Samply_Proxy_Client_Broker"><path d="M331.43,190.73 C343.05,190.73 354.66,190.73 366.28,190.73 " fill="none" id="Samply_Proxy_Client-Broker" style="stroke:#181818;stroke-width:1.0;"/></g><!--link Broker to Samply_Proxy_Server--><g id="link_Broker_Samply_Proxy_Server"><path d="M451.66,202.65 C471.49,206.64 491.33,208.46 511.17,208.12 " fill="none" id="Broker-Samply_Proxy_Server" style="stroke:#181818;stroke-width:1.0;"/></g><!--link Samply_Proxy_Server to Server_REST_API--><g id="link_Samply_Proxy_Server_Server_REST_API"><path d="M606.17,214.4 C607.85,231.93 610.16,256.07 611.83,273.59 " fill="none" id="Samply_Proxy_Server-Server_REST_API" style="stroke:#181818;stroke-width:1.0;"/></g><!--link Server_REST_API to Verbis_Raumplaner--><g id="link_Server_REST_API_Verbis_Raumplaner"><path d="M614.84,320.73 C615.76,345.55 617.24,385.27 618.16,410.12 " fill="none" id="Server_REST_API-Verbis_Raumplaner" style="stroke:#181818;stroke-width:1.0;"/></g><!--SRC=[TL3B3e8m4BptAnekdF0Vq7ZmO2IWNWnf5gX8A8KKK8dXtwqKa6SFpMvdEhipTm49nTfMfA-S2Wr_49RdTf6DYsg4U1f8sAUy4C2mGyKpycbFsx588gvgJcPPFDhQWIHZ5R54-gx8Y2KdnQrs1duCuKH-iCH8H65An6Tf6RGinMn0Ok-TCp6jWsBLpHr00HxaSifHUBas_7MbmejoOaCfvm3lr6kvcwxZ1kL1oKFAaGe46t_BNO4DOyLkpzZqsImIVwfTAbs1ZHNxYwzgXsa6ivU6DZVz1G00]--></g></svg>