<svg xmlns="http://www.w3.org/2000/svg" xmlns:xlink="http://www.w3.org/1999/xlink" contentStyleType="text/css" data-diagram-type="DESCRIPTION" height="517px" preserveAspectRatio="none" style="width:236px;height:517px;background:#FFFFFF;" version="1.1" viewBox="0 0 236 517" width="236px" zoomAndPan="magnify"><defs/><g><!--entity A--><g class="entity" data-entity="A" data-source-line="2" data-uid="ent0002" id="entity_A"><rect fill="#F1F1F1" height="52.9766" rx="2.5" ry="2.5" style="stroke:#181818;stroke-width:0.5;" width="121.6162" x="53.8" y="7"/><text fill="#000000" font-family="sans-serif" font-size="14" lengthAdjust="spacing" textLength="101.6162" x="63.8" y="30.5352">Planungsphase</text><text fill="#000000" font-family="sans-serif" font-size="14" lengthAdjust="spacing" textLength="55.501" x="63.8" y="47.0234">(5 Tage)</text></g><!--entity B--><g class="entity" data-entity="B" data-source-line="3" data-uid="ent0003" id="entity_B"><rect fill="#F1F1F1" height="52.9766" rx="2.5" ry="2.5" style="stroke:#181818;stroke-width:0.5;" width="95.2227" x="7" y="119.97"/><text fill="#000000" font-family="sans-serif" font-size="14" lengthAdjust="spacing" textLength="75.2227" x="17" y="143.5052">Installation</text><text fill="#000000" font-family="sans-serif" font-size="14" lengthAdjust="spacing" textLength="55.501" x="17" y="159.9934">(4 Tage)</text></g><!--entity C--><g class="entity" data-entity="C" data-source-line="4" data-uid="ent0004" id="entity_C"><rect fill="#F1F1F1" height="52.9766" rx="2.5" ry="2.5" style="stroke:#181818;stroke-width:0.5;" width="75.501" x="136.86" y="119.97"/><text fill="#000000" font-family="sans-serif" font-size="14" lengthAdjust="spacing" textLength="51.8643" x="146.86" y="143.5052">Entwurf</text><text fill="#000000" font-family="sans-serif" font-size="14" lengthAdjust="spacing" textLength="55.501" x="146.86" y="159.9934">(2 Tage)</text></g><!--entity D--><g class="entity" data-entity="D" data-source-line="5" data-uid="ent0005" id="entity_D"><rect fill="#F1F1F1" height="52.9766" rx="2.5" ry="2.5" style="stroke:#181818;stroke-width:0.5;" width="136.2383" x="46.49" y="232.95"/><text fill="#000000" font-family="sans-serif" font-size="14" lengthAdjust="spacing" textLength="116.2383" x="56.49" y="256.4852">Implementierung</text><text fill="#000000" font-family="sans-serif" font-size="14" lengthAdjust="spacing" textLength="64.3535" x="56.49" y="272.9734">(16 Tage)</text></g><!--entity E--><g class="entity" data-entity="E" data-source-line="6" data-uid="ent0006" id="entity_E"><rect fill="#F1F1F1" height="52.9766" rx="2.5" ry="2.5" style="stroke:#181818;stroke-width:0.5;" width="75.501" x="13.86" y="345.93"/><text fill="#000000" font-family="sans-serif" font-size="14" lengthAdjust="spacing" textLength="45.5137" x="23.86" y="369.4652">Testen</text><text fill="#000000" font-family="sans-serif" font-size="14" lengthAdjust="spacing" textLength="55.501" x="23.86" y="385.9534">(3 Tage)</text></g><!--entity F--><g class="entity" data-entity="F" data-source-line="7" data-uid="ent0007" id="entity_F"><rect fill="#F1F1F1" height="52.9766" rx="2.5" ry="2.5" style="stroke:#181818;stroke-width:0.5;" width="106.0986" x="124.56" y="345.93"/><text fill="#000000" font-family="sans-serif" font-size="14" lengthAdjust="spacing" textLength="86.0986" x="134.56" y="369.4652">Kundendoku</text><text fill="#000000" font-family="sans-serif" font-size="14" lengthAdjust="spacing" textLength="55.501" x="134.56" y="385.9534">(5 Tage)</text></g><!--entity G--><g class="entity" data-entity="G" data-source-line="8" data-uid="ent0008" id="entity_G"><rect fill="#F1F1F1" height="52.9766" rx="2.5" ry="2.5" style="stroke:#181818;stroke-width:0.5;" width="83.3076" x="9.96" y="458.9"/><text fill="#000000" font-family="sans-serif" font-size="14" lengthAdjust="spacing" textLength="63.3076" x="19.96" y="482.4352">Testdoku</text><text fill="#000000" font-family="sans-serif" font-size="14" lengthAdjust="spacing" textLength="55.501" x="19.96" y="498.9234">(3 Tage)</text></g><!--link A to B--><g class="link" data-entity-1="A" data-entity-2="B" data-source-line="10" data-uid="lnk9" id="link_A_B"><path d="M100.7,60.22 C91.07,78.03 81.1622,96.3413 71.5122,114.2013" fill="none" id="A-to-B" style="stroke:#181818;stroke-width:1;"/><polygon fill="#181818" points="68.66,119.48,76.4574,113.4633,71.0368,115.081,69.4191,109.6604,68.66,119.48" style="stroke:#181818;stroke-width:1;"/></g><!--link A to C--><g class="link" data-entity-1="A" data-entity-2="C" data-source-line="11" data-uid="lnk10" id="link_A_C"><path d="M128.53,60.22 C138.15,78.03 148.0578,96.3413 157.7078,114.2013" fill="none" id="A-to-C" style="stroke:#181818;stroke-width:1;"/><polygon fill="#181818" points="160.56,119.48,159.8009,109.6604,158.1832,115.081,152.7626,113.4633,160.56,119.48" style="stroke:#181818;stroke-width:1;"/></g><!--link B to D--><g class="link" data-entity-1="B" data-entity-2="D" data-source-line="12" data-uid="lnk11" id="link_B_D"><path d="M68.53,173.2 C78.15,191 88.0566,209.3219 97.7066,227.1719" fill="none" id="B-to-D" style="stroke:#181818;stroke-width:1;"/><polygon fill="#181818" points="100.56,232.45,99.7986,222.6306,98.1822,228.0516,92.7612,226.4352,100.56,232.45" style="stroke:#181818;stroke-width:1;"/></g><!--link C to D--><g class="link" data-entity-1="C" data-entity-2="D" data-source-line="13" data-uid="lnk12" id="link_C_D"><path d="M160.7,173.2 C151.07,191 141.1634,209.3219 131.5134,227.1719" fill="none" id="C-to-D" style="stroke:#181818;stroke-width:1;"/><polygon fill="#181818" points="128.66,232.45,136.4588,226.4352,131.0378,228.0516,129.4214,222.6306,128.66,232.45" style="stroke:#181818;stroke-width:1;"/></g><!--link D to E--><g class="link" data-entity-1="D" data-entity-2="E" data-source-line="14" data-uid="lnk13" id="link_D_E"><path d="M100,286.18 C89.89,303.98 79.4636,322.363 69.3236,340.213" fill="none" id="D-to-E" style="stroke:#181818;stroke-width:1;"/><polygon fill="#181818" points="66.36,345.43,74.2834,339.5802,68.8297,341.0825,67.3274,335.6288,66.36,345.43" style="stroke:#181818;stroke-width:1;"/></g><!--link D to F--><g class="link" data-entity-1="D" data-entity-2="F" data-source-line="15" data-uid="lnk14" id="link_D_F"><path d="M129.22,286.18 C139.33,303.98 149.7686,322.3617 159.8986,340.2117" fill="none" id="D-to-F" style="stroke:#181818;stroke-width:1;"/><polygon fill="#181818" points="162.86,345.43,161.8967,335.6284,160.3922,341.0815,154.9391,339.5769,162.86,345.43" style="stroke:#181818;stroke-width:1;"/></g><!--link E to G--><g class="link" data-entity-1="E" data-entity-2="G" data-source-line="16" data-uid="lnk15" id="link_E_G"><path d="M51.61,399.15 C51.61,416.95 51.61,434.55 51.61,452.41" fill="none" id="E-to-G" style="stroke:#181818;stroke-width:1;"/><polygon fill="#181818" points="51.61,458.41,55.61,449.41,51.61,453.41,47.61,449.41,51.61,458.41" style="stroke:#181818;stroke-width:1;"/></g><!--SRC=[NS-x3e9048NXVfvYGwK5XTVIXCj2Z8q5fSr6HY0k0zbBV7rN976a-filPtODtfsYHgE8hbgHfyQEhR9uezL1LAh1TIIK5GcO7poJTKfhvRg1Wjipbt8doRsyUGIoPIJxc-f7ZJsIwz24su5kZipct5Pe7NuExfYGN5myrKZryFIBvnVBdTdmfH8W4N5y2d_uDeDqQWxPt7ogd5k0d5h26m00]--></g></svg>