<svg xmlns="http://www.w3.org/2000/svg" xmlns:xlink="http://www.w3.org/1999/xlink" contentStyleType="text/css" data-diagram-type="ACTIVITY" height="583px" preserveAspectRatio="none" style="width:389px;height:583px;background:#FFFFFF;" version="1.1" viewBox="0 0 389 583" width="389px" zoomAndPan="magnify"><defs/><g><ellipse cx="194.7334" cy="20" fill="#222222" rx="10" ry="10" style="stroke:#222222;stroke-width:1;"/><rect fill="#F1F1F1" height="34.1328" rx="12.5" ry="12.5" style="stroke:#181818;stroke-width:0.5;" width="107.0996" x="141.1836" y="50"/><text fill="#000000" font-family="sans-serif" font-size="12" lengthAdjust="spacing" textLength="87.0996" x="151.1836" y="71.6016">Planungsphase</text><rect fill="#F1F1F1" height="34.1328" rx="12.5" ry="12.5" style="stroke:#181818;stroke-width:0.5;" width="285.541" x="51.9629" y="104.1328"/><text fill="#000000" font-family="sans-serif" font-size="12" lengthAdjust="spacing" textLength="265.541" x="61.9629" y="125.7344">Installation der n&#246;tigen Entwicklungssoftware</text><rect fill="#F1F1F1" height="34.1328" rx="12.5" ry="12.5" style="stroke:#181818;stroke-width:0.5;" width="156.541" x="116.4629" y="158.2656"/><text fill="#000000" font-family="sans-serif" font-size="12" lengthAdjust="spacing" textLength="136.541" x="126.4629" y="179.8672">Erstellung des Entwurfs</text><rect fill="#555555" height="6" rx="2.5" ry="2.5" style="stroke:#555555;stroke-width:1;" width="367.4668" x="11" y="212.3984"/><rect fill="#F1F1F1" height="34.1328" rx="12.5" ry="12.5" style="stroke:#181818;stroke-width:0.5;" width="119.6328" x="23" y="238.3984"/><text fill="#000000" font-family="sans-serif" font-size="12" lengthAdjust="spacing" textLength="99.6328" x="33" y="260">Implementierung</text><rect fill="#F1F1F1" height="34.1328" rx="12.5" ry="12.5" style="stroke:#181818;stroke-width:0.5;" width="74.0645" x="45.7842" y="307.5313"/><text fill="#000000" font-family="sans-serif" font-size="12" lengthAdjust="spacing" textLength="54.0645" x="55.7842" y="329.1328">-&gt; [next]</text><rect fill="#F1F1F1" height="34.1328" rx="12.5" ry="12.5" style="stroke:#181818;stroke-width:0.5;" width="195.834" x="170.6328" y="272.9648"/><text fill="#000000" font-family="sans-serif" font-size="12" lengthAdjust="spacing" textLength="175.834" x="180.6328" y="294.5664">-&gt; [wait for Implementierung]</text><rect fill="#555555" height="6" rx="2.5" ry="2.5" style="stroke:#555555;stroke-width:1;" width="367.4668" x="11" y="361.6641"/><rect fill="#F1F1F1" height="34.1328" rx="12.5" ry="12.5" style="stroke:#181818;stroke-width:0.5;" width="59.0117" x="165.2275" y="387.6641"/><text fill="#000000" font-family="sans-serif" font-size="12" lengthAdjust="spacing" textLength="39.0117" x="175.2275" y="409.2656">Testen</text><rect fill="#F1F1F1" height="34.1328" rx="12.5" ry="12.5" style="stroke:#181818;stroke-width:0.5;" width="236.6152" x="76.4258" y="441.7969"/><text fill="#000000" font-family="sans-serif" font-size="12" lengthAdjust="spacing" textLength="216.6152" x="86.4258" y="463.3984">Verfassen der Kundendokumentation</text><rect fill="#F1F1F1" height="34.1328" rx="12.5" ry="12.5" style="stroke:#181818;stroke-width:0.5;" width="217.0801" x="86.1934" y="495.9297"/><text fill="#000000" font-family="sans-serif" font-size="12" lengthAdjust="spacing" textLength="197.0801" x="96.1934" y="517.5313">Verfassen der Testdokumentation</text><ellipse cx="194.7334" cy="561.0625" fill="none" rx="11" ry="11" style="stroke:#222222;stroke-width:1;"/><ellipse cx="194.7334" cy="561.0625" fill="#222222" rx="6" ry="6" style="stroke:#222222;stroke-width:1;"/><line style="stroke:#181818;stroke-width:1;" x1="194.7334" x2="194.7334" y1="30" y2="50"/><polygon fill="#181818" points="190.7334,40,194.7334,50,198.7334,40,194.7334,44" style="stroke:#181818;stroke-width:1;"/><line style="stroke:#181818;stroke-width:1;" x1="194.7334" x2="194.7334" y1="84.1328" y2="104.1328"/><polygon fill="#181818" points="190.7334,94.1328,194.7334,104.1328,198.7334,94.1328,194.7334,98.1328" style="stroke:#181818;stroke-width:1;"/><line style="stroke:#181818;stroke-width:1;" x1="194.7334" x2="194.7334" y1="138.2656" y2="158.2656"/><polygon fill="#181818" points="190.7334,148.2656,194.7334,158.2656,198.7334,148.2656,194.7334,152.2656" style="stroke:#181818;stroke-width:1;"/><line style="stroke:#181818;stroke-width:1;" x1="82.8164" x2="82.8164" y1="272.5313" y2="307.5313"/><polygon fill="#181818" points="78.8164,297.5313,82.8164,307.5313,86.8164,297.5313,82.8164,301.5313" style="stroke:#181818;stroke-width:1;"/><line style="stroke:#181818;stroke-width:1;" x1="82.8164" x2="82.8164" y1="218.3984" y2="238.3984"/><polygon fill="#181818" points="78.8164,228.3984,82.8164,238.3984,86.8164,228.3984,82.8164,232.3984" style="stroke:#181818;stroke-width:1;"/><line style="stroke:#181818;stroke-width:1;" x1="268.5498" x2="268.5498" y1="218.3984" y2="272.9648"/><polygon fill="#181818" points="264.5498,262.9648,268.5498,272.9648,272.5498,262.9648,268.5498,266.9648" style="stroke:#181818;stroke-width:1;"/><line style="stroke:#181818;stroke-width:1;" x1="82.8164" x2="82.8164" y1="341.6641" y2="361.6641"/><polygon fill="#181818" points="78.8164,351.6641,82.8164,361.6641,86.8164,351.6641,82.8164,355.6641" style="stroke:#181818;stroke-width:1;"/><line style="stroke:#181818;stroke-width:1;" x1="268.5498" x2="268.5498" y1="307.0977" y2="361.6641"/><polygon fill="#181818" points="264.5498,351.6641,268.5498,361.6641,272.5498,351.6641,268.5498,355.6641" style="stroke:#181818;stroke-width:1;"/><line style="stroke:#181818;stroke-width:1;" x1="194.7334" x2="194.7334" y1="192.3984" y2="212.3984"/><polygon fill="#181818" points="190.7334,202.3984,194.7334,212.3984,198.7334,202.3984,194.7334,206.3984" style="stroke:#181818;stroke-width:1;"/><line style="stroke:#181818;stroke-width:1;" x1="194.7334" x2="194.7334" y1="367.6641" y2="387.6641"/><polygon fill="#181818" points="190.7334,377.6641,194.7334,387.6641,198.7334,377.6641,194.7334,381.6641" style="stroke:#181818;stroke-width:1;"/><line style="stroke:#181818;stroke-width:1;" x1="194.7334" x2="194.7334" y1="421.7969" y2="441.7969"/><polygon fill="#181818" points="190.7334,431.7969,194.7334,441.7969,198.7334,431.7969,194.7334,435.7969" style="stroke:#181818;stroke-width:1;"/><line style="stroke:#181818;stroke-width:1;" x1="194.7334" x2="194.7334" y1="475.9297" y2="495.9297"/><polygon fill="#181818" points="190.7334,485.9297,194.7334,495.9297,198.7334,485.9297,194.7334,489.9297" style="stroke:#181818;stroke-width:1;"/><line style="stroke:#181818;stroke-width:1;" x1="194.7334" x2="194.7334" y1="530.0625" y2="550.0625"/><polygon fill="#181818" points="190.7334,540.0625,194.7334,550.0625,198.7334,540.0625,194.7334,544.0625" style="stroke:#181818;stroke-width:1;"/><!--SRC=[NOyn3eCm34Ltdy8Nu08WTMD0NJfKNIe6gnWQ4HmKEw8dwmLwiIPKNLYVtlV_LgDe0FN5aoIPT7sISWDr9shaFPaBWWD7bC_RtCI2hTZc7hCljeRHDeebq4OrzeLcNNShnL4RW3746H3hRbazBopcE6QjoQogJdWNVbc_MqWJEVdpZPnXndW8zi0ou7uLwYldMidzDuuZgV9lxJd9aAqmfvBRlyXB3bB97XMriC8N]--></g></svg>