<svg xmlns="http://www.w3.org/2000/svg" xmlns:xlink="http://www.w3.org/1999/xlink" contentStyleType="text/css" data-diagram-type="ACTIVITY" height="374px" preserveAspectRatio="none" style="width:740px;height:374px;background:#FFFFFF;" version="1.1" viewBox="0 0 740 374" width="740px" zoomAndPan="magnify"><defs/><g><ellipse cx="368.8977" cy="20" fill="#222222" rx="10" ry="10" style="stroke:#222222;stroke-width:1;"/><rect fill="#F1F1F1" height="34.1328" rx="12.5" ry="12.5" style="stroke:#181818;stroke-width:0.5;" width="139.7246" x="299.0354" y="50"/><text fill="#000000" font-family="sans-serif" font-size="12" lengthAdjust="spacing" textLength="115.9277" x="312.8323" y="71.6016">Ticketpreis einlesen</text><rect fill="#F1F1F1" height="34.1328" rx="12.5" ry="12.5" style="stroke:#181818;stroke-width:0.5;" width="130.4199" x="303.6877" y="104.1328"/><text fill="#000000" font-family="sans-serif" font-size="12" lengthAdjust="spacing" textLength="106.623" x="317.4846" y="125.7344">Rabatt deklarieren</text><polygon fill="#F1F1F1" points="53.9429,158.2656,152.5239,158.2656,164.5239,170.2656,152.5239,182.2656,53.9429,182.2656,41.9429,170.2656,53.9429,158.2656" style="stroke:#181818;stroke-width:0.5;"/><text fill="#000000" font-family="sans-serif" font-size="11" lengthAdjust="spacing" textLength="17.4829" x="107.2334" y="192.9004">yes</text><text fill="#000000" font-family="sans-serif" font-size="11" lengthAdjust="spacing" textLength="98.5811" x="53.9429" y="174.4229">Schwerbehinderun</text><rect fill="#F1F1F1" height="34.1328" rx="12.5" ry="12.5" style="stroke:#181818;stroke-width:0.5;" width="184.4668" x="11" y="215.2207"/><text fill="#000000" font-family="sans-serif" font-size="12" lengthAdjust="spacing" textLength="160.6699" x="24.7969" y="236.8223">Rabatt = Behinderungsgrad</text><polygon fill="#F1F1F1" points="227.866,158.2656,276.5442,158.2656,288.5442,170.2656,276.5442,182.2656,227.866,182.2656,215.866,170.2656,227.866,158.2656" style="stroke:#181818;stroke-width:0.5;"/><text fill="#000000" font-family="sans-serif" font-size="11" lengthAdjust="spacing" textLength="17.4829" x="256.2051" y="192.9004">yes</text><text fill="#000000" font-family="sans-serif" font-size="11" lengthAdjust="spacing" textLength="48.6782" x="227.866" y="174.4229">age &lt; 18</text><rect fill="#F1F1F1" height="34.1328" rx="12.5" ry="12.5" style="stroke:#181818;stroke-width:0.5;" width="93.4766" x="205.4668" y="215.2207"/><text fill="#000000" font-family="sans-serif" font-size="12" lengthAdjust="spacing" textLength="69.6797" x="219.2637" y="236.8223">Rabatt = 35</text><polygon fill="#F1F1F1" points="330.9434,158.2656,463.7114,158.2656,475.7114,170.2656,463.7114,182.2656,330.9434,182.2656,318.9434,170.2656,330.9434,158.2656" style="stroke:#181818;stroke-width:0.5;"/><text fill="#000000" font-family="sans-serif" font-size="11" lengthAdjust="spacing" textLength="17.4829" x="401.3274" y="192.9004">yes</text><text fill="#000000" font-family="sans-serif" font-size="11" lengthAdjust="spacing" textLength="132.7681" x="330.9434" y="174.4229">Student-Freiwillig-Sozial</text><rect fill="#F1F1F1" height="34.1328" rx="12.5" ry="12.5" style="stroke:#181818;stroke-width:0.5;" width="93.4766" x="350.5891" y="215.2207"/><text fill="#000000" font-family="sans-serif" font-size="12" lengthAdjust="spacing" textLength="69.6797" x="364.386" y="236.8223">Rabatt = 25</text><polygon fill="#F1F1F1" points="514.4023,158.2656,555.8833,158.2656,567.8833,170.2656,555.8833,182.2656,514.4023,182.2656,502.4023,170.2656,514.4023,158.2656" style="stroke:#181818;stroke-width:0.5;"/><text fill="#000000" font-family="sans-serif" font-size="11" lengthAdjust="spacing" textLength="17.4829" x="539.1428" y="192.9004">yes</text><text fill="#000000" font-family="sans-serif" font-size="11" lengthAdjust="spacing" textLength="41.481" x="514.4023" y="174.4229">Rentner</text><text fill="#000000" font-family="sans-serif" font-size="11" lengthAdjust="spacing" textLength="41.3896" x="567.8833" y="167.9453">nothing</text><rect fill="#F1F1F1" height="34.1328" rx="12.5" ry="12.5" style="stroke:#181818;stroke-width:0.5;" width="93.4766" x="488.4045" y="215.2207"/><text fill="#000000" font-family="sans-serif" font-size="12" lengthAdjust="spacing" textLength="69.6797" x="502.2014" y="236.8223">Rabatt = 15</text><rect fill="#F1F1F1" height="34.1328" rx="12.5" ry="12.5" style="stroke:#181818;stroke-width:0.5;" width="127.6074" x="601.8811" y="211.7432"/><text fill="#000000" font-family="sans-serif" font-size="12" lengthAdjust="spacing" textLength="103.8105" x="615.678" y="233.3447">return Ticketpreis</text><rect fill="#F1F1F1" height="34.1328" rx="12.5" ry="12.5" style="stroke:#181818;stroke-width:0.5;" width="219.0137" x="259.3909" y="289.3535"/><text fill="#000000" font-family="sans-serif" font-size="12" lengthAdjust="spacing" textLength="195.2168" x="273.1877" y="310.9551">return (Ticketpreis /100) * Rabatt</text><ellipse cx="368.8977" cy="353.4863" fill="none" rx="10" ry="10" style="stroke:#222222;stroke-width:1.5;"/><line style="stroke:#222222;stroke-width:2.5;" x1="362.7105" x2="375.0849" y1="347.2991" y2="359.6735"/><line style="stroke:#222222;stroke-width:2.5;" x1="375.0849" x2="362.7105" y1="347.2991" y2="359.6735"/><line style="stroke:#181818;stroke-width:1;" x1="368.8977" x2="368.8977" y1="30" y2="50"/><polygon fill="#181818" points="364.8977,40,368.8977,50,372.8977,40,368.8977,44" style="stroke:#181818;stroke-width:1;"/><line style="stroke:#181818;stroke-width:1;" x1="368.8977" x2="368.8977" y1="84.1328" y2="104.1328"/><polygon fill="#181818" points="364.8977,94.1328,368.8977,104.1328,372.8977,94.1328,368.8977,98.1328" style="stroke:#181818;stroke-width:1;"/><line style="stroke:#181818;stroke-width:1;" x1="103.2334" x2="103.2334" y1="182.2656" y2="215.2207"/><polygon fill="#181818" points="99.2334,205.2207,103.2334,215.2207,107.2334,205.2207,103.2334,209.2207" style="stroke:#181818;stroke-width:1;"/><line style="stroke:#181818;stroke-width:1;" x1="103.2334" x2="103.2334" y1="249.3535" y2="269.3535"/><polygon fill="#181818" points="99.2334,259.3535,103.2334,269.3535,107.2334,259.3535,103.2334,263.3535" style="stroke:#181818;stroke-width:1;"/><line style="stroke:#181818;stroke-width:1;" x1="252.2051" x2="252.2051" y1="182.2656" y2="215.2207"/><polygon fill="#181818" points="248.2051,205.2207,252.2051,215.2207,256.2051,205.2207,252.2051,209.2207" style="stroke:#181818;stroke-width:1;"/><line style="stroke:#181818;stroke-width:1;" x1="252.2051" x2="252.2051" y1="249.3535" y2="269.3535"/><polygon fill="#181818" points="248.2051,259.3535,252.2051,269.3535,256.2051,259.3535,252.2051,263.3535" style="stroke:#181818;stroke-width:1;"/><line style="stroke:#181818;stroke-width:1;" x1="397.3274" x2="397.3274" y1="182.2656" y2="215.2207"/><polygon fill="#181818" points="393.3274,205.2207,397.3274,215.2207,401.3274,205.2207,397.3274,209.2207" style="stroke:#181818;stroke-width:1;"/><line style="stroke:#181818;stroke-width:1;" x1="397.3274" x2="397.3274" y1="249.3535" y2="269.3535"/><polygon fill="#181818" points="393.3274,259.3535,397.3274,269.3535,401.3274,259.3535,397.3274,263.3535" style="stroke:#181818;stroke-width:1;"/><line style="stroke:#181818;stroke-width:1;" x1="535.1428" x2="535.1428" y1="182.2656" y2="215.2207"/><polygon fill="#181818" points="531.1428,205.2207,535.1428,215.2207,539.1428,205.2207,535.1428,209.2207" style="stroke:#181818;stroke-width:1;"/><line style="stroke:#181818;stroke-width:1;" x1="535.1428" x2="535.1428" y1="249.3535" y2="269.3535"/><polygon fill="#181818" points="531.1428,259.3535,535.1428,269.3535,539.1428,259.3535,535.1428,263.3535" style="stroke:#181818;stroke-width:1;"/><line style="stroke:#181818;stroke-width:1;" x1="164.5239" x2="215.866" y1="170.2656" y2="170.2656"/><polygon fill="#181818" points="205.866,166.2656,215.866,170.2656,205.866,174.2656,209.866,170.2656" style="stroke:#181818;stroke-width:1;"/><line style="stroke:#181818;stroke-width:1;" x1="288.5442" x2="318.9434" y1="170.2656" y2="170.2656"/><polygon fill="#181818" points="308.9434,166.2656,318.9434,170.2656,308.9434,174.2656,312.9434,170.2656" style="stroke:#181818;stroke-width:1;"/><line style="stroke:#181818;stroke-width:1;" x1="475.7114" x2="502.4023" y1="170.2656" y2="170.2656"/><polygon fill="#181818" points="492.4023,166.2656,502.4023,170.2656,492.4023,174.2656,496.4023,170.2656" style="stroke:#181818;stroke-width:1;"/><line style="stroke:#181818;stroke-width:1;" x1="368.8977" x2="368.8977" y1="138.2656" y2="143.2656"/><line style="stroke:#181818;stroke-width:1;" x1="368.8977" x2="103.2334" y1="143.2656" y2="143.2656"/><line style="stroke:#181818;stroke-width:1;" x1="103.2334" x2="103.2334" y1="143.2656" y2="158.2656"/><polygon fill="#181818" points="99.2334,148.2656,103.2334,158.2656,107.2334,148.2656,103.2334,152.2656" style="stroke:#181818;stroke-width:1;"/><line style="stroke:#181818;stroke-width:1;" x1="567.8833" x2="665.6848" y1="170.2656" y2="170.2656"/><line style="stroke:#181818;stroke-width:1;" x1="665.6848" x2="665.6848" y1="170.2656" y2="211.7432"/><polygon fill="#181818" points="661.6848,201.7432,665.6848,211.7432,669.6848,201.7432,665.6848,205.7432" style="stroke:#181818;stroke-width:1;"/><line style="stroke:#181818;stroke-width:1;" x1="665.6848" x2="665.6848" y1="245.876" y2="269.3535"/><polygon fill="#181818" points="661.6848,259.3535,665.6848,269.3535,669.6848,259.3535,665.6848,263.3535" style="stroke:#181818;stroke-width:1;"/><line style="stroke:#181818;stroke-width:1;" x1="103.2334" x2="665.6848" y1="269.3535" y2="269.3535"/><line style="stroke:#181818;stroke-width:1;" x1="368.8977" x2="368.8977" y1="269.3535" y2="289.3535"/><polygon fill="#181818" points="364.8977,279.3535,368.8977,289.3535,372.8977,279.3535,368.8977,283.3535" style="stroke:#181818;stroke-width:1;"/><line style="stroke:#181818;stroke-width:1;" x1="368.8977" x2="368.8977" y1="323.4863" y2="343.4863"/><polygon fill="#181818" points="364.8977,333.4863,368.8977,343.4863,372.8977,333.4863,368.8977,337.4863" style="stroke:#181818;stroke-width:1;"/><!--SRC=[VP31Yi9044Jl-Oe-9eAiKGHPzRA7_G3Z3unEEMaSMkdf8BjVxoWQSqeVgryLHILpQiKtxVbuXbqLd0Wi4GcoplhE7PmPUPoZKuO-L3vHsHpR6_I0biL3Ewd8MWYLVqXLGVbwwvP-UYgaeCwl2yI4HueBe0tLgp7tOldX6-iynAQ_kUUDO-GmRIx_xE9Om7mGiCjkWOxXzGkdKYwMYuSteR1EPRXK1iNpgUX_vN36htesgsZoIdwoTm00]--></g></svg>