<svg xmlns="http://www.w3.org/2000/svg" xmlns:xlink="http://www.w3.org/1999/xlink" contentStyleType="text/css" data-diagram-type="CLASS" height="508px" preserveAspectRatio="none" style="width:683px;height:508px;background:#FFFFFF;" version="1.1" viewBox="0 0 683 508" width="683px" zoomAndPan="magnify"><defs/><g><!--class BestellPosition--><g class="entity" data-entity="BestellPosition" data-source-line="2" data-uid="ent0002" id="entity_BestellPosition"><rect fill="#F1F1F1" height="80.9766" rx="2.5" ry="2.5" style="stroke:#181818;stroke-width:0.5;" width="159.0205" x="109.62" y="15.25"/><ellipse cx="137.5839" cy="31.25" fill="#ADD1B2" rx="11" ry="11" style="stroke:#181818;stroke-width:1;"/><path d="M140.057,37.3931 Q139.476,37.6919 138.8368,37.8413 Q138.1976,37.9907 137.4921,37.9907 Q134.9852,37.9907 133.6654,36.3389 Q132.3456,34.687 132.3456,31.5659 Q132.3456,28.4365 133.6654,26.7847 Q134.9852,25.1328 137.4921,25.1328 Q138.1976,25.1328 138.8451,25.2822 Q139.4926,25.4316 140.057,25.7305 L140.057,28.4531 Q139.4262,27.8721 138.8326,27.6023 Q138.2391,27.3325 137.6083,27.3325 Q136.2636,27.3325 135.5787,28.3992 Q134.8939,29.4658 134.8939,31.5659 Q134.8939,33.6577 135.5787,34.7244 Q136.2636,35.791 137.6083,35.791 Q138.2391,35.791 138.8326,35.5212 Q139.4262,35.2515 140.057,34.6704 Z " fill="#000000"/><text fill="#000000" font-family="sans-serif" font-size="14" lengthAdjust="spacing" textLength="98.2119" x="154.4647" y="36.541">BestellPosition</text><line style="stroke:#181818;stroke-width:0.5;" x1="110.62" x2="267.6405" y1="47.25" y2="47.25"/><rect fill="none" height="6" style="stroke:#C82930;stroke-width:1;" width="6" x="117.62" y="57.9941"/><text fill="#000000" font-family="sans-serif" font-size="14" lengthAdjust="spacing" textLength="41.248" x="129.62" y="64.7852">nr: int</text><rect fill="none" height="6" style="stroke:#C82930;stroke-width:1;" width="6" x="117.62" y="74.4824"/><text fill="#000000" font-family="sans-serif" font-size="14" lengthAdjust="spacing" textLength="133.0205" x="129.62" y="81.2734">interfaceAnzahl: int</text><line style="stroke:#181818;stroke-width:1;" x1="110.62" x2="267.6405" y1="88.2266" y2="88.2266"/></g><!--class Komponente--><g class="entity" data-entity="Komponente" data-source-line="8" data-uid="ent0003" id="entity_Komponente"><rect fill="#F1F1F1" height="97.4648" rx="2.5" ry="2.5" style="stroke:#181818;stroke-width:0.5;" width="137.3369" x="303.46" y="7"/><ellipse cx="326.9665" cy="23" fill="#A9DCDF" rx="11" ry="11" style="stroke:#181818;stroke-width:1;"/><path d="M326.8298,18.3481 L325.676,23.4199 L327.9919,23.4199 Z M325.3356,16.1069 L328.3322,16.1069 L331.6774,28.5 L329.2287,28.5 L328.465,25.437 L325.1862,25.437 L324.4392,28.5 L321.9904,28.5 Z " fill="#000000"/><text fill="#000000" font-family="sans-serif" font-size="14" font-style="italic" lengthAdjust="spacing" textLength="86.4336" x="342.8568" y="28.291">Komponente</text><line style="stroke:#181818;stroke-width:0.5;" x1="304.46" x2="439.7969" y1="39" y2="39"/><rect fill="none" height="6" style="stroke:#C82930;stroke-width:1;" width="6" x="311.46" y="49.7441"/><text fill="#000000" font-family="sans-serif" font-size="14" lengthAdjust="spacing" textLength="39.6895" x="323.46" y="56.5352">id: int</text><rect fill="none" height="6" style="stroke:#C82930;stroke-width:1;" width="6" x="311.46" y="66.2324"/><text fill="#000000" font-family="sans-serif" font-size="14" lengthAdjust="spacing" textLength="89.1406" x="323.46" y="73.0234">preis: double</text><line style="stroke:#181818;stroke-width:1;" x1="304.46" x2="439.7969" y1="79.9766" y2="79.9766"/><ellipse cx="314.46" cy="93.7207" fill="#84BE84" rx="3" ry="3" style="stroke:#038048;stroke-width:1;"/><text fill="#000000" font-family="sans-serif" font-size="14" lengthAdjust="spacing" textLength="111.3369" x="323.46" y="97.5117">toString(): string</text></g><!--class Wechselrichter--><g class="entity" data-entity="Wechselrichter" data-source-line="15" data-uid="ent0004" id="entity_Wechselrichter"><rect fill="#F1F1F1" height="97.4648" rx="2.5" ry="2.5" style="stroke:#181818;stroke-width:0.5;" width="183.6982" x="476.28" y="7"/><ellipse cx="514.9859" cy="23" fill="#ADD1B2" rx="11" ry="11" style="stroke:#181818;stroke-width:1;"/><path d="M517.459,29.1431 Q516.8779,29.4419 516.2388,29.5913 Q515.5996,29.7407 514.8941,29.7407 Q512.3872,29.7407 511.0674,28.0889 Q509.7476,26.437 509.7476,23.3159 Q509.7476,20.1865 511.0674,18.5347 Q512.3872,16.8828 514.8941,16.8828 Q515.5996,16.8828 516.2471,17.0322 Q516.8946,17.1816 517.459,17.4805 L517.459,20.2031 Q516.8281,19.6221 516.2346,19.3523 Q515.6411,19.0825 515.0103,19.0825 Q513.6655,19.0825 512.9807,20.1492 Q512.2959,21.2158 512.2959,23.3159 Q512.2959,25.4077 512.9807,26.4744 Q513.6655,27.541 515.0103,27.541 Q515.6411,27.541 516.2346,27.2712 Q516.8281,27.0015 517.459,26.4204 Z " fill="#000000"/><text fill="#000000" font-family="sans-serif" font-size="14" lengthAdjust="spacing" textLength="99.0186" x="534.2538" y="28.291">Wechselrichter</text><line style="stroke:#181818;stroke-width:0.5;" x1="477.28" x2="658.9782" y1="39" y2="39"/><rect fill="none" height="6" style="stroke:#C82930;stroke-width:1;" width="6" x="484.28" y="49.7441"/><text fill="#000000" font-family="sans-serif" font-size="14" lengthAdjust="spacing" textLength="69.8975" x="496.28" y="56.5352">mppts: int</text><rect fill="none" height="6" style="stroke:#C82930;stroke-width:1;" width="6" x="484.28" y="66.2324"/><text fill="#000000" font-family="sans-serif" font-size="14" lengthAdjust="spacing" textLength="144.9082" x="496.28" y="73.0234">leistungMppt: double</text><rect fill="none" height="6" style="stroke:#C82930;stroke-width:1;" width="6" x="484.28" y="82.7207"/><text fill="#000000" font-family="sans-serif" font-size="14" lengthAdjust="spacing" textLength="157.6982" x="496.28" y="89.5117">spannungMppt: double</text><line style="stroke:#181818;stroke-width:1;" x1="477.28" x2="658.9782" y1="96.4648" y2="96.4648"/></g><!--class HybridWechselrichter--><g class="entity" data-entity="HybridWechselrichter" data-source-line="22" data-uid="ent0005" id="entity_HybridWechselrichter"><rect fill="#F1F1F1" height="97.4648" rx="2.5" ry="2.5" style="stroke:#181818;stroke-width:0.5;" width="182.4951" x="97.88" y="180.96"/><ellipse cx="115.794" cy="196.96" fill="#ADD1B2" rx="11" ry="11" style="stroke:#181818;stroke-width:1;"/><path d="M118.2672,203.1031 Q117.6861,203.4019 117.0469,203.5513 Q116.4078,203.7007 115.7022,203.7007 Q113.1954,203.7007 111.8756,202.0489 Q110.5557,200.397 110.5557,197.2759 Q110.5557,194.1465 111.8756,192.4947 Q113.1954,190.8428 115.7022,190.8428 Q116.4078,190.8428 117.0552,190.9922 Q117.7027,191.1416 118.2672,191.4405 L118.2672,194.1631 Q117.6363,193.5821 117.0428,193.3123 Q116.4493,193.0425 115.8184,193.0425 Q114.4737,193.0425 113.7889,194.1092 Q113.1041,195.1758 113.1041,197.2759 Q113.1041,199.3677 113.7889,200.4344 Q114.4737,201.501 115.8184,201.501 Q116.4493,201.501 117.0428,201.2312 Q117.6363,200.9615 118.2672,200.3804 Z " fill="#000000"/><text fill="#000000" font-family="sans-serif" font-size="14" lengthAdjust="spacing" textLength="144.0195" x="130.4416" y="202.251">HybridWechselrichter</text><line style="stroke:#181818;stroke-width:0.5;" x1="98.88" x2="279.3751" y1="212.96" y2="212.96"/><rect fill="none" height="6" style="stroke:#C82930;stroke-width:1;" width="6" x="105.88" y="223.7041"/><text fill="#000000" font-family="sans-serif" font-size="14" lengthAdjust="spacing" textLength="151.1699" x="117.88" y="230.4952">ladespannung: double</text><rect fill="none" height="6" style="stroke:#C82930;stroke-width:1;" width="6" x="105.88" y="240.1924"/><text fill="#000000" font-family="sans-serif" font-size="14" lengthAdjust="spacing" textLength="123.7783" x="117.88" y="246.9834">ladestrom: double</text><rect fill="none" height="6" style="stroke:#C82930;stroke-width:1;" width="6" x="105.88" y="256.6807"/><text fill="#000000" font-family="sans-serif" font-size="14" lengthAdjust="spacing" textLength="156.4951" x="117.88" y="263.4717">maxKapazitaet: double</text><line style="stroke:#181818;stroke-width:1;" x1="98.88" x2="279.3751" y1="270.4248" y2="270.4248"/></g><!--class PvModul--><g class="entity" data-entity="PvModul" data-source-line="29" data-uid="ent0006" id="entity_PvModul"><rect fill="#F1F1F1" height="130.4414" rx="2.5" ry="2.5" style="stroke:#181818;stroke-width:0.5;" width="148.7803" x="315.74" y="164.47"/><ellipse cx="357.5559" cy="180.47" fill="#ADD1B2" rx="11" ry="11" style="stroke:#181818;stroke-width:1;"/><path d="M360.029,186.6131 Q359.448,186.9119 358.8088,187.0613 Q358.1696,187.2107 357.4641,187.2107 Q354.9572,187.2107 353.6374,185.5589 Q352.3176,183.907 352.3176,180.7859 Q352.3176,177.6565 353.6374,176.0047 Q354.9572,174.3528 357.4641,174.3528 Q358.1696,174.3528 358.8171,174.5022 Q359.4646,174.6516 360.029,174.9505 L360.029,177.6731 Q359.3982,177.0921 358.8046,176.8223 Q358.2111,176.5525 357.5803,176.5525 Q356.2356,176.5525 355.5507,177.6192 Q354.8659,178.6858 354.8659,180.7859 Q354.8659,182.8777 355.5507,183.9444 Q356.2356,185.011 357.5803,185.011 Q358.2111,185.011 358.8046,184.7412 Q359.3982,184.4715 360.029,183.8904 Z " fill="#000000"/><text fill="#000000" font-family="sans-serif" font-size="14" lengthAdjust="spacing" textLength="57.1895" x="377.515" y="185.761">PvModul</text><line style="stroke:#181818;stroke-width:0.5;" x1="316.74" x2="463.5203" y1="196.47" y2="196.47"/><rect fill="none" height="6" style="stroke:#C82930;stroke-width:1;" width="6" x="323.74" y="207.2141"/><text fill="#000000" font-family="sans-serif" font-size="14" lengthAdjust="spacing" textLength="109.9902" x="335.74" y="214.0052">leistung: double</text><rect fill="none" height="6" style="stroke:#C82930;stroke-width:1;" width="6" x="323.74" y="223.7024"/><text fill="#000000" font-family="sans-serif" font-size="14" lengthAdjust="spacing" textLength="122.7803" x="335.74" y="230.4934">spannung: double</text><rect fill="none" height="6" style="stroke:#C82930;stroke-width:1;" width="6" x="323.74" y="240.1907"/><text fill="#000000" font-family="sans-serif" font-size="14" lengthAdjust="spacing" textLength="100.4131" x="335.74" y="246.9817">laenge: double</text><rect fill="none" height="6" style="stroke:#C82930;stroke-width:1;" width="6" x="323.74" y="256.679"/><text fill="#000000" font-family="sans-serif" font-size="14" lengthAdjust="spacing" textLength="95.04" x="335.74" y="263.47">breite: double</text><rect fill="none" height="6" style="stroke:#C82930;stroke-width:1;" width="6" x="323.74" y="273.1673"/><text fill="#000000" font-family="sans-serif" font-size="14" lengthAdjust="spacing" textLength="97.1934" x="335.74" y="279.9583">hoehe: double</text><line style="stroke:#181818;stroke-width:1;" x1="316.74" x2="463.5203" y1="286.9114" y2="286.9114"/></g><!--class Batteriespeicher--><g class="entity" data-entity="Batteriespeicher" data-source-line="38" data-uid="ent0007" id="entity_Batteriespeicher"><rect fill="#F1F1F1" height="80.9766" rx="2.5" ry="2.5" style="stroke:#181818;stroke-width:0.5;" width="177.1699" x="499.55" y="189.2"/><ellipse cx="530.91" cy="205.2" fill="#ADD1B2" rx="11" ry="11" style="stroke:#181818;stroke-width:1;"/><path d="M533.3831,211.3431 Q532.8021,211.6419 532.1629,211.7913 Q531.5237,211.9407 530.8182,211.9407 Q528.3113,211.9407 526.9915,210.2889 Q525.6717,208.637 525.6717,205.5159 Q525.6717,202.3865 526.9915,200.7347 Q528.3113,199.0828 530.8182,199.0828 Q531.5237,199.0828 532.1712,199.2322 Q532.8187,199.3816 533.3831,199.6805 L533.3831,202.4031 Q532.7522,201.8221 532.1587,201.5523 Q531.5652,201.2825 530.9344,201.2825 Q529.5896,201.2825 528.9048,202.3492 Q528.22,203.4158 528.22,205.5159 Q528.22,207.6077 528.9048,208.6744 Q529.5896,209.741 530.9344,209.741 Q531.5652,209.741 532.1587,209.4712 Q532.7522,209.2015 533.3831,208.6204 Z " fill="#000000"/><text fill="#000000" font-family="sans-serif" font-size="14" lengthAdjust="spacing" textLength="108.8145" x="548.5455" y="210.491">Batteriespeicher</text><line style="stroke:#181818;stroke-width:0.5;" x1="500.55" x2="675.7199" y1="221.2" y2="221.2"/><rect fill="none" height="6" style="stroke:#C82930;stroke-width:1;" width="6" x="507.55" y="231.9441"/><text fill="#000000" font-family="sans-serif" font-size="14" lengthAdjust="spacing" textLength="126.1504" x="519.55" y="238.7352">kapazitaet: double</text><rect fill="none" height="6" style="stroke:#C82930;stroke-width:1;" width="6" x="507.55" y="248.4324"/><text fill="#000000" font-family="sans-serif" font-size="14" lengthAdjust="spacing" textLength="151.1699" x="519.55" y="255.2234">ladespannung: double</text><line style="stroke:#181818;stroke-width:1;" x1="500.55" x2="675.7199" y1="262.1766" y2="262.1766"/></g><!--class DBVerbindungsManager--><g class="entity" data-entity="DBVerbindungsManager" data-source-line="44" data-uid="ent0008" id="entity_DBVerbindungsManager"><rect fill="#F1F1F1" height="146.9297" rx="2.5" ry="2.5" style="stroke:#181818;stroke-width:0.5;" width="364.2627" x="7" y="354.91"/><ellipse cx="103.2363" cy="370.91" fill="#ADD1B2" rx="11" ry="11" style="stroke:#181818;stroke-width:1;"/><path d="M105.7095,377.0531 Q105.1284,377.3519 104.4893,377.5013 Q103.8501,377.6507 103.1445,377.6507 Q100.6377,377.6507 99.3179,375.9989 Q97.998,374.347 97.998,371.2259 Q97.998,368.0965 99.3179,366.4447 Q100.6377,364.7928 103.1445,364.7928 Q103.8501,364.7928 104.4976,364.9422 Q105.145,365.0916 105.7095,365.3905 L105.7095,368.1131 Q105.0786,367.5321 104.4851,367.2623 Q103.8916,366.9925 103.2607,366.9925 Q101.916,366.9925 101.2312,368.0592 Q100.5464,369.1258 100.5464,371.2259 Q100.5464,373.3177 101.2312,374.3844 Q101.916,375.451 103.2607,375.451 Q103.8916,375.451 104.4851,375.1812 Q105.0786,374.9115 105.7095,374.3304 Z " fill="#000000"/><text fill="#000000" font-family="sans-serif" font-size="14" lengthAdjust="spacing" textLength="163.29" x="123.7363" y="376.201">DBVerbindungsManager</text><line style="stroke:#181818;stroke-width:0.5;" x1="8" x2="370.2627" y1="386.91" y2="386.91"/><rect fill="none" height="6" style="stroke:#C82930;stroke-width:1;" width="6" x="15" y="397.6541"/><text fill="#000000" font-family="sans-serif" font-size="14" lengthAdjust="spacing" textLength="201.291" x="27" y="404.4452">dbConnection: SqlConnection</text><rect fill="none" height="6" style="stroke:#C82930;stroke-width:1;" width="6" x="15" y="414.1424"/><text fill="#000000" font-family="sans-serif" font-size="14" lengthAdjust="spacing" textLength="163.085" x="27" y="420.9334">connectionString: string</text><line style="stroke:#181818;stroke-width:1;" x1="8" x2="370.2627" y1="427.8866" y2="427.8866"/><ellipse cx="18" cy="441.6307" fill="#84BE84" rx="3" ry="3" style="stroke:#038048;stroke-width:1;"/><text fill="#000000" font-family="sans-serif" font-size="14" lengthAdjust="spacing" textLength="128.7617" x="27" y="445.4217">GetDbConnection()</text><ellipse cx="18" cy="458.119" fill="#84BE84" rx="3" ry="3" style="stroke:#038048;stroke-width:1;"/><text fill="#000000" font-family="sans-serif" font-size="14" lengthAdjust="spacing" textLength="172.4023" x="27" y="461.91">GetPvModule(): PvModul[]</text><ellipse cx="18" cy="474.6073" fill="#84BE84" rx="3" ry="3" style="stroke:#038048;stroke-width:1;"/><text fill="#000000" font-family="sans-serif" font-size="14" lengthAdjust="spacing" textLength="248.2607" x="27" y="478.3983">GetWechselrichter(): Wechselrichter[]</text><ellipse cx="18" cy="491.0955" fill="#84BE84" rx="3" ry="3" style="stroke:#038048;stroke-width:1;"/><text fill="#000000" font-family="sans-serif" font-size="14" lengthAdjust="spacing" textLength="338.2627" x="27" y="494.8866">GetHybridWechselrichter(): HybridWechselrichter[]</text></g><!--SRC=[XPB1ReCm38RlF8MFhQQ-0BTrbJQfgbIfqdQOTZ31WsZ1OOaxRPtwxWkKGg2jneNaj_Fz_C7AeFUm92zapDPwBTeo_2OGdWMmIq6pTBkm8lUEYkxvWAM9Ielac2IOUN6e15JBNDkgjapXJ8_JUOoh7McVGcxtcQ4pftdTWTYTECt5R9w2RrVGE9p0BwHAJyPfLORlwU5LNOjl-T0f9l1bpyKcLCO-u6jalbfQ34PFFvdJ-GqxWpcTAHDuMn9dgubUuVSQQpneGRhjkltQs7nl1gCknOq45zx41Kt4BDoqJCNIKjbhSF4PIvGGLuUC5997mJyk8i2_Ln9nLyjdSfdcF3Jv3J8M4JlF7YmpgMO8KzXzcc7RTQXUE4t8UJx6y_D8iefGi_cWTzTBpMXrwzUteJp-sqtJM8bxhyr7S-AQ7iuTapy0]--></g></svg>