<?xml version="1.0" encoding="UTF-8" standalone="no"?><svg xmlns="http://www.w3.org/2000/svg" xmlns:xlink="http://www.w3.org/1999/xlink" contentStyleType="text/css" height="577px" preserveAspectRatio="none" style="width:1205px;height:577px;background:#FFFFFF;" version="1.1" viewBox="0 0 1205 577" width="1205px" zoomAndPan="magnify"><defs/><g><!--MD5=[7bd246584a64dd4b0f566e68c9a4a068]
class Fahrzeug--><g id="elem_Fahrzeug"><rect codeLine="1" fill="#F1F1F1" height="171.2656" id="Fahrzeug" rx="2.5" ry="2.5" style="stroke:#181818;stroke-width:0.5;" width="516" x="335.5" y="7"/><ellipse cx="558.75" cy="23" fill="#B4A7E5" rx="11" ry="11" style="stroke:#181818;stroke-width:1.0;"/><path d="M559.7031,19.6406 L559.7031,26.2969 L561.4219,26.2969 Q562.0313,26.2969 562.2969,26.5313 Q562.5625,26.7656 562.5625,27.1563 Q562.5625,27.5313 562.2969,27.7656 Q562.0313,28 561.4219,28 L556.2813,28 Q555.6719,28 555.4063,27.7656 Q555.1406,27.5313 555.1406,27.1406 Q555.1406,26.7656 555.4063,26.5313 Q555.6719,26.2969 556.2813,26.2969 L558,26.2969 L558,19.6406 L556.2813,19.6406 Q555.6719,19.6406 555.4063,19.4063 Q555.1406,19.1719 555.1406,18.7813 Q555.1406,18.4063 555.4063,18.1719 Q555.6719,17.9375 556.2813,17.9375 L561.4219,17.9375 Q562.0313,17.9375 562.2969,18.1719 Q562.5625,18.4063 562.5625,18.7813 Q562.5625,19.1719 562.2969,19.4063 Q562.0313,19.6406 561.4219,19.6406 L559.7031,19.6406 Z " fill="#000000"/><text fill="#000000" font-family="sans-serif" font-size="14" font-style="italic" lengthAdjust="spacing" textLength="61" x="579.25" y="28.7285">Fahrzeug</text><line style="stroke:#181818;stroke-width:0.5;" x1="336.5" x2="850.5" y1="39" y2="39"/><polygon fill="none" points="346.5,48.3047,350.5,52.3047,346.5,56.3047,342.5,52.3047" style="stroke:#B38D22;stroke-width:1.0;"/><text fill="#000000" font-family="sans-serif" font-size="14" lengthAdjust="spacing" textLength="82" x="355.5" y="57.5332">kategorie: int</text><polygon fill="none" points="346.5,65.9141,350.5,69.9141,346.5,73.9141,342.5,69.9141" style="stroke:#B38D22;stroke-width:1.0;"/><text fill="#000000" font-family="sans-serif" font-size="14" lengthAdjust="spacing" textLength="86" x="355.5" y="75.1426">modell: String</text><polygon fill="none" points="346.5,83.5234,350.5,87.5234,346.5,91.5234,342.5,87.5234" style="stroke:#B38D22;stroke-width:1.0;"/><text fill="#000000" font-family="sans-serif" font-size="14" lengthAdjust="spacing" textLength="137" x="355.5" y="92.752">ertzulassungsJahr: int</text><polygon fill="none" points="346.5,101.1328,350.5,105.1328,346.5,109.1328,342.5,105.1328" style="stroke:#B38D22;stroke-width:1.0;"/><text fill="#000000" font-family="sans-serif" font-size="14" lengthAdjust="spacing" textLength="78" x="355.5" y="110.3613">kmStand: int</text><text fill="#000000" font-family="sans-serif" font-size="14" lengthAdjust="spacing" textLength="10" x="355.5" y="127.9707">--</text><line style="stroke:#181818;stroke-width:0.5;" x1="336.5" x2="850.5" y1="135.0469" y2="135.0469"/><ellipse cx="346.5" cy="149.3516" fill="#84BE84" rx="3" ry="3" style="stroke:#038048;stroke-width:1.0;"/><text fill="#000000" font-family="sans-serif" font-size="14" lengthAdjust="spacing" textLength="484" x="355.5" y="153.5801">Fahrzeug(kategorie: int, modell: String, erstzulassungsJahr: int, kmStand: int)</text><ellipse cx="346.5" cy="166.9609" fill="#84BE84" rx="3" ry="3" style="stroke:#038048;stroke-width:1.0;"/><text fill="#000000" font-family="sans-serif" font-size="14" lengthAdjust="spacing" textLength="490" x="355.5" y="171.1895">mieten(ausleihDatum: String, uhrzeit: String, fahrer: String, kmStand: int): bool</text></g><!--MD5=[b5aec2d829a0280ef022f965c75acd95]
class Buchung--><g id="elem_Buchung"><rect codeLine="11" fill="#F1F1F1" height="171.2656" id="Buchung" rx="2.5" ry="2.5" style="stroke:#181818;stroke-width:0.5;" width="409" x="389" y="399"/><ellipse cx="561.25" cy="415" fill="#ADD1B2" rx="11" ry="11" style="stroke:#181818;stroke-width:1.0;"/><path d="M564.0156,410.875 Q564.1719,410.6563 564.3594,410.5469 Q564.5469,410.4375 564.7656,410.4375 Q565.1406,410.4375 565.375,410.7031 Q565.6094,410.9531 565.6094,411.5625 L565.6094,413.0156 Q565.6094,413.625 565.375,413.8906 Q565.1406,414.1563 564.7656,414.1563 Q564.4219,414.1563 564.2188,413.9531 Q564.0156,413.7656 563.9063,413.25 Q563.8594,412.8906 563.6719,412.7031 Q563.3438,412.3281 562.7344,412.1094 Q562.125,411.8906 561.5,411.8906 Q560.7344,411.8906 560.0938,412.2188 Q559.4688,412.5469 558.9688,413.2969 Q558.4844,414.0469 558.4844,415.0781 L558.4844,416.1719 Q558.4844,417.4063 559.375,418.2344 Q560.2656,419.0469 561.8594,419.0469 Q562.7969,419.0469 563.4531,418.7969 Q563.8438,418.6406 564.2656,418.2031 Q564.5313,417.9375 564.6719,417.8594 Q564.8281,417.7813 565.0313,417.7813 Q565.3594,417.7813 565.6094,418.0469 Q565.875,418.2969 565.875,418.6406 Q565.875,418.9844 565.5313,419.3906 Q565.0313,419.9688 564.2344,420.2969 Q563.1563,420.75 561.8594,420.75 Q560.3438,420.75 559.1406,420.125 Q558.1563,419.625 557.4688,418.5625 Q556.7813,417.4844 556.7813,416.2031 L556.7813,415.0469 Q556.7813,413.7188 557.3906,412.5781 Q558.0156,411.4219 559.1094,410.8125 Q560.2031,410.1875 561.4375,410.1875 Q562.1719,410.1875 562.8125,410.3594 Q563.4688,410.5156 564.0156,410.875 Z " fill="#000000"/><text fill="#000000" font-family="sans-serif" font-size="14" lengthAdjust="spacing" textLength="56" x="581.75" y="420.7285">Buchung</text><line style="stroke:#181818;stroke-width:0.5;" x1="390" x2="797" y1="431" y2="431"/><rect fill="none" height="6" style="stroke:#C82930;stroke-width:1.0;" width="6" x="397" y="442.3047"/><text fill="#000000" font-family="sans-serif" font-size="14" lengthAdjust="spacing" textLength="131" x="409" y="449.5332">ausleihDatum: String</text><rect fill="none" height="6" style="stroke:#C82930;stroke-width:1.0;" width="6" x="397" y="459.9141"/><text fill="#000000" font-family="sans-serif" font-size="14" lengthAdjust="spacing" textLength="87" x="409" y="467.1426">uhrzeit: String</text><rect fill="none" height="6" style="stroke:#C82930;stroke-width:1.0;" width="6" x="397" y="477.5234"/><text fill="#000000" font-family="sans-serif" font-size="14" lengthAdjust="spacing" textLength="83" x="409" y="484.752">fahrer: String</text><line style="stroke:#181818;stroke-width:1.0;" x1="390" x2="797" y1="491.8281" y2="491.8281"/><ellipse cx="400" cy="506.1328" fill="#84BE84" rx="3" ry="3" style="stroke:#038048;stroke-width:1.0;"/><text fill="#000000" font-family="sans-serif" font-size="14" lengthAdjust="spacing" textLength="383" x="409" y="510.3613">Buchung(ausleihDatum: String, uhrzeit: String, fahrer: String)</text><ellipse cx="400" cy="523.7422" fill="#84BE84" rx="3" ry="3" style="stroke:#038048;stroke-width:1.0;"/><text fill="#000000" font-family="sans-serif" font-size="14" lengthAdjust="spacing" textLength="162" x="409" y="527.9707">getAusleihDatum(): String</text><ellipse cx="400" cy="541.3516" fill="#84BE84" rx="3" ry="3" style="stroke:#038048;stroke-width:1.0;"/><text fill="#000000" font-family="sans-serif" font-size="14" lengthAdjust="spacing" textLength="118" x="409" y="545.5801">getUhrzeit(): String</text><ellipse cx="400" cy="558.9609" fill="#84BE84" rx="3" ry="3" style="stroke:#038048;stroke-width:1.0;"/><text fill="#000000" font-family="sans-serif" font-size="14" lengthAdjust="spacing" textLength="114" x="409" y="563.1895">getFahrer():String</text></g><!--MD5=[70cbdd4c801aae6e421ae7fd2886b804]
class PKW--><g id="elem_PKW"><rect codeLine="22" fill="#F1F1F1" height="100.8281" id="PKW" rx="2.5" ry="2.5" style="stroke:#181818;stroke-width:0.5;" width="561" x="7" y="238"/><ellipse cx="267.75" cy="254" fill="#ADD1B2" rx="11" ry="11" style="stroke:#181818;stroke-width:1.0;"/><path d="M270.5156,249.875 Q270.6719,249.6563 270.8594,249.5469 Q271.0469,249.4375 271.2656,249.4375 Q271.6406,249.4375 271.875,249.7031 Q272.1094,249.9531 272.1094,250.5625 L272.1094,252.0156 Q272.1094,252.625 271.875,252.8906 Q271.6406,253.1563 271.2656,253.1563 Q270.9219,253.1563 270.7188,252.9531 Q270.5156,252.7656 270.4063,252.25 Q270.3594,251.8906 270.1719,251.7031 Q269.8438,251.3281 269.2344,251.1094 Q268.625,250.8906 268,250.8906 Q267.2344,250.8906 266.5938,251.2188 Q265.9688,251.5469 265.4688,252.2969 Q264.9844,253.0469 264.9844,254.0781 L264.9844,255.1719 Q264.9844,256.4063 265.875,257.2344 Q266.7656,258.0469 268.3594,258.0469 Q269.2969,258.0469 269.9531,257.7969 Q270.3438,257.6406 270.7656,257.2031 Q271.0313,256.9375 271.1719,256.8594 Q271.3281,256.7813 271.5313,256.7813 Q271.8594,256.7813 272.1094,257.0469 Q272.375,257.2969 272.375,257.6406 Q272.375,257.9844 272.0313,258.3906 Q271.5313,258.9688 270.7344,259.2969 Q269.6563,259.75 268.3594,259.75 Q266.8438,259.75 265.6406,259.125 Q264.6563,258.625 263.9688,257.5625 Q263.2813,256.4844 263.2813,255.2031 L263.2813,254.0469 Q263.2813,252.7188 263.8906,251.5781 Q264.5156,250.4219 265.6094,249.8125 Q266.7031,249.1875 267.9375,249.1875 Q268.6719,249.1875 269.3125,249.3594 Q269.9688,249.5156 270.5156,249.875 Z " fill="#000000"/><text fill="#000000" font-family="sans-serif" font-size="14" lengthAdjust="spacing" textLength="31" x="288.25" y="259.7285">PKW</text><line style="stroke:#181818;stroke-width:0.5;" x1="8" x2="567" y1="270" y2="270"/><rect fill="none" height="6" style="stroke:#C82930;stroke-width:1.0;" width="6" x="15" y="281.3047"/><text fill="#000000" font-family="sans-serif" font-size="14" lengthAdjust="spacing" textLength="78" x="27" y="288.5332">farbe: String</text><line style="stroke:#181818;stroke-width:1.0;" x1="8" x2="567" y1="295.6094" y2="295.6094"/><ellipse cx="18" cy="309.9141" fill="#84BE84" rx="3" ry="3" style="stroke:#038048;stroke-width:1.0;"/><text fill="#000000" font-family="sans-serif" font-size="14" lengthAdjust="spacing" textLength="535" x="27" y="314.1426">Pkw(kategorie: int, modell: String, farbe: String, erstzulassungsJahr: int, kmStand: int)</text><ellipse cx="18" cy="327.5234" fill="#84BE84" rx="3" ry="3" style="stroke:#038048;stroke-width:1.0;"/><text fill="#000000" font-family="sans-serif" font-size="14" lengthAdjust="spacing" textLength="490" x="27" y="331.752">mieten(ausleihDatum: String, uhrzeit: String, fahrer: String, kmStand: int): bool</text></g><!--MD5=[be750fe08bbd4d61de7e13958f267bed]
class LKW--><g id="elem_LKW"><rect codeLine="29" fill="#F1F1F1" height="100.8281" id="LKW" rx="2.5" ry="2.5" style="stroke:#181818;stroke-width:0.5;" width="595" x="603" y="238"/><ellipse cx="881.25" cy="254" fill="#ADD1B2" rx="11" ry="11" style="stroke:#181818;stroke-width:1.0;"/><path d="M884.0156,249.875 Q884.1719,249.6563 884.3594,249.5469 Q884.5469,249.4375 884.7656,249.4375 Q885.1406,249.4375 885.375,249.7031 Q885.6094,249.9531 885.6094,250.5625 L885.6094,252.0156 Q885.6094,252.625 885.375,252.8906 Q885.1406,253.1563 884.7656,253.1563 Q884.4219,253.1563 884.2188,252.9531 Q884.0156,252.7656 883.9063,252.25 Q883.8594,251.8906 883.6719,251.7031 Q883.3438,251.3281 882.7344,251.1094 Q882.125,250.8906 881.5,250.8906 Q880.7344,250.8906 880.0938,251.2188 Q879.4688,251.5469 878.9688,252.2969 Q878.4844,253.0469 878.4844,254.0781 L878.4844,255.1719 Q878.4844,256.4063 879.375,257.2344 Q880.2656,258.0469 881.8594,258.0469 Q882.7969,258.0469 883.4531,257.7969 Q883.8438,257.6406 884.2656,257.2031 Q884.5313,256.9375 884.6719,256.8594 Q884.8281,256.7813 885.0313,256.7813 Q885.3594,256.7813 885.6094,257.0469 Q885.875,257.2969 885.875,257.6406 Q885.875,257.9844 885.5313,258.3906 Q885.0313,258.9688 884.2344,259.2969 Q883.1563,259.75 881.8594,259.75 Q880.3438,259.75 879.1406,259.125 Q878.1563,258.625 877.4688,257.5625 Q876.7813,256.4844 876.7813,255.2031 L876.7813,254.0469 Q876.7813,252.7188 877.3906,251.5781 Q878.0156,250.4219 879.1094,249.8125 Q880.2031,249.1875 881.4375,249.1875 Q882.1719,249.1875 882.8125,249.3594 Q883.4688,249.5156 884.0156,249.875 Z " fill="#000000"/><text fill="#000000" font-family="sans-serif" font-size="14" lengthAdjust="spacing" textLength="30" x="901.75" y="259.7285">LKW</text><line style="stroke:#181818;stroke-width:0.5;" x1="604" x2="1197" y1="270" y2="270"/><rect fill="none" height="6" style="stroke:#C82930;stroke-width:1.0;" width="6" x="611" y="281.3047"/><text fill="#000000" font-family="sans-serif" font-size="14" lengthAdjust="spacing" textLength="107" x="623" y="288.5332">maxZuladung: Int</text><line style="stroke:#181818;stroke-width:1.0;" x1="604" x2="1197" y1="295.6094" y2="295.6094"/><ellipse cx="614" cy="309.9141" fill="#84BE84" rx="3" ry="3" style="stroke:#038048;stroke-width:1.0;"/><text fill="#000000" font-family="sans-serif" font-size="14" lengthAdjust="spacing" textLength="569" x="623" y="314.1426">LKW(kategorie: int, modell: String, maxZuladung: Int, erstzulassungsJahr: int, kmStand: int)</text><ellipse cx="614" cy="327.5234" fill="#84BE84" rx="3" ry="3" style="stroke:#038048;stroke-width:1.0;"/><text fill="#000000" font-family="sans-serif" font-size="14" lengthAdjust="spacing" textLength="490" x="623" y="331.752">mieten(ausleihDatum: String, uhrzeit: String, fahrer: String, kmStand: int): bool</text></g><!--MD5=[d11ee9786c5faadc41eba7ed6f376f24]
link Fahrzeug to LKW--><g id="link_Fahrzeug_LKW"><path codeLine="36" d="M727.26,178.03 C759.58,198.45 793.08,219.62 821.91,237.84 " fill="none" id="Fahrzeug-LKW" style="stroke:#181818;stroke-width:1.0;"/></g><!--MD5=[532fe54d3cc32c7b41ac662ab0353943]
link Fahrzeug to PKW--><g id="link_Fahrzeug_PKW"><path codeLine="37" d="M460.17,178.03 C427.96,198.45 394.57,219.62 365.83,237.84 " fill="none" id="Fahrzeug-PKW" style="stroke:#181818;stroke-width:1.0;"/></g><!--MD5=[4778b305420a08c0c8ae724518d84589]
reverse link PKW to Buchung--><g id="link_PKW_Buchung"><path codeLine="39" d="M377.22,346.38 C403.16,362.83 432.05,381.15 460.06,398.9 " fill="none" id="PKW-backto-Buchung" style="stroke:#181818;stroke-width:1.0;"/><polygon fill="#181818" points="365.91,339.21,368.835,345.8012,376.0442,345.6363,373.1192,339.0451,365.91,339.21" style="stroke:#181818;stroke-width:1.0;"/><text fill="#000000" font-family="sans-serif" font-size="13" lengthAdjust="spacing" textLength="107" x="336.4107" y="388.0627">- buchungen[] 0...*</text></g><!--MD5=[fb76bdca9a7065843f45effc0a066e05]
reverse link LKW to Buchung--><g id="link_LKW_Buchung"><path codeLine="40" d="M810.84,346.16 C784.72,362.66 755.6,381.07 727.38,398.9 " fill="none" id="LKW-backto-Buchung" style="stroke:#181818;stroke-width:1.0;"/><polygon fill="#181818" points="821.84,339.21,814.631,339.0341,811.696,345.6209,818.905,345.7968,821.84,339.21" style="stroke:#181818;stroke-width:1.0;"/><text fill="#000000" font-family="sans-serif" font-size="13" lengthAdjust="spacing" textLength="107" x="627.5388" y="388.0627">- buchungen[] 0...*</text></g><!--MD5=[09692c7dd92d53d8c902b7dc10046ae9]
@startuml
interface Fahrzeug{
  # kategorie: int
  # modell: String
  # ertzulassungsJahr: int
  # kmStand: int
    - -
  + Fahrzeug(kategorie: int, modell: String, erstzulassungsJahr: int, kmStand: int)
  + mieten(ausleihDatum: String, uhrzeit: String, fahrer: String, kmStand: int): bool

}
class Buchung {
  - ausleihDatum: String 
  - uhrzeit: String 
  - fahrer: String
  - -
  + Buchung(ausleihDatum: String, uhrzeit: String, fahrer: String)            
  + getAusleihDatum(): String
  + getUhrzeit(): String
  + getFahrer():String
}

class PKW{
  - farbe: String
  - -
  + Pkw(kategorie: int, modell: String, farbe: String, erstzulassungsJahr: int, kmStand: int)
  + mieten(ausleihDatum: String, uhrzeit: String, fahrer: String, kmStand: int): bool
}

class LKW{
-maxZuladung: Int
- -
  + LKW(kategorie: int, modell: String, maxZuladung: Int, erstzulassungsJahr: int, kmStand: int)
  + mieten(ausleihDatum: String, uhrzeit: String, fahrer: String, kmStand: int): bool
}

Fahrzeug - - LKW
Fahrzeug - - PKW

PKW *- - "- buchungen[] 0...*" Buchung
LKW *- - "- buchungen[] 0...*" Buchung

@enduml

PlantUML version 1.2022.7(Mon Aug 22 19:01:30 CEST 2022)
(GPL source distribution)
Java Runtime: OpenJDK Runtime Environment
JVM: OpenJDK 64-Bit Server VM
Default Encoding: UTF-8
Language: de
Country: DE
--></g></svg>