<?xml version="1.0" encoding="us-ascii" standalone="no"?><svg xmlns="http://www.w3.org/2000/svg" xmlns:xlink="http://www.w3.org/1999/xlink" contentStyleType="text/css" height="849px" preserveAspectRatio="none" style="width:2992px;height:849px;background:#FFFFFF;" version="1.1" viewBox="0 0 2992 849" width="2992px" zoomAndPan="magnify"><defs/><g><!--cluster Room Booking System over Samply.Beam--><g id="cluster_Room Booking System over Samply.Beam"><rect fill="none" height="798.67" rx="2.5" ry="2.5" style="stroke:#181818;stroke-width:1.0;" width="2933" x="53.5" y="44.56"/><text fill="#000000" font-family="sans-serif" font-size="14" font-weight="bold" lengthAdjust="spacing" textLength="298" x="1371" y="60.0952">Room Booking System over Samply.Beam</text></g><!--cluster Client--><g id="cluster_Client"><rect fill="none" height="550.53" rx="2.5" ry="2.5" style="stroke:#181818;stroke-width:1.0;" width="1279" x="77.5" y="87.56"/><text fill="#000000" font-family="sans-serif" font-size="14" font-weight="bold" lengthAdjust="spacing" textLength="43" x="695.5" y="103.0952">Client</text></g><!--cluster BeamRequestTask--><g id="cluster_BeamRequestTask"><rect fill="none" height="106.79" rx="2.5" ry="2.5" style="stroke:#181818;stroke-width:1.0;" width="758" x="101.5" y="130.56"/><text fill="#000000" font-family="sans-serif" font-size="14" font-weight="bold" lengthAdjust="spacing" textLength="132" x="414.5" y="146.0952">BeamRequestTask</text></g><!--cluster Beam.Proxy Client--><g id="cluster_Beam.Proxy Client"><rect fill="none" height="102.88" rx="2.5" ry="2.5" style="stroke:#181818;stroke-width:1.0;" width="449" x="883.5" y="132.52"/><text fill="#000000" font-family="sans-serif" font-size="14" font-weight="bold" lengthAdjust="spacing" textLength="130" x="1043" y="148.0552">Beam.Proxy Client</text></g><!--cluster Broker test-no-real-data.broker.samply.de--><g id="cluster_Broker test-no-real-data.broker.samply.de"><rect fill="none" height="122.61" rx="2.5" ry="2.5" style="stroke:#181818;stroke-width:1.0;" width="324" x="1380.5" y="122.65"/><text fill="#000000" font-family="sans-serif" font-size="14" font-weight="bold" lengthAdjust="spacing" textLength="308" x="1388.5" y="138.1852">Broker test-no-real-data.broker.samply.de</text></g><!--cluster Backend Connector--><g id="cluster_Backend Connector"><rect fill="none" height="729.27" rx="2.5" ry="2.5" style="stroke:#181818;stroke-width:1.0;" width="1085" x="1728.5" y="89.96"/><text fill="#000000" font-family="sans-serif" font-size="14" font-weight="bold" lengthAdjust="spacing" textLength="137" x="2202.5" y="105.4952">Backend Connector</text></g><!--cluster Beam.Proxy Backend Connector--><g id="cluster_Beam.Proxy Backend Connector"><rect fill="none" height="101.99" rx="2.5" ry="2.5" style="stroke:#181818;stroke-width:1.0;" width="337" x="1752.5" y="132.96"/><text fill="#000000" font-family="sans-serif" font-size="14" font-weight="bold" lengthAdjust="spacing" textLength="224" x="1809" y="148.4952">Beam.Proxy Backend Connector</text></g><!--cluster MRBS database--><g id="cluster_MRBS database"><path d="M2837.5,697.09 C2837.5,687.09 2900,687.09 2900,687.09 C2900,687.09 2962.5,687.09 2962.5,697.09 L2962.5,806.41 C2962.5,816.41 2900,816.41 2900,816.41 C2900,816.41 2837.5,816.41 2837.5,806.41 L2837.5,697.09 " fill="none" style="stroke:#181818;stroke-width:1.0;"/><path d="M2837.5,697.09 C2837.5,707.09 2900,707.09 2900,707.09 C2900,707.09 2962.5,707.09 2962.5,697.09 " fill="none" style="stroke:#181818;stroke-width:1.0;"/><text fill="#000000" font-family="sans-serif" font-size="14" font-weight="bold" lengthAdjust="spacing" textLength="109" x="2845.5" y="722.6252">MRBS database</text></g><g id="elem_request day view"><ellipse cx="380.4971" cy="346.5074" fill="#F1F1F1" rx="78.2871" ry="18.0574" style="stroke:#181818;stroke-width:0.5;"/><text fill="#000000" font-family="sans-serif" font-size="14" lengthAdjust="spacing" textLength="114" x="323.4971" y="349.7984">request day view</text></g><g id="elem_request delete participant"><ellipse cx="694.5009" cy="485.2782" fill="#F1F1F1" rx="105.6409" ry="23.5282" style="stroke:#181818;stroke-width:0.5;"/><text fill="#000000" font-family="sans-serif" font-size="14" lengthAdjust="spacing" textLength="176" x="606.5009" y="488.5692">request delete participant</text></g><g id="elem_request join room"><ellipse cx="380.5011" cy="485.2782" fill="#F1F1F1" rx="82.0911" ry="18.8182" style="stroke:#181818;stroke-width:0.5;"/><text fill="#000000" font-family="sans-serif" font-size="14" lengthAdjust="spacing" textLength="123" x="319.0011" y="488.5692">request join room</text></g><g id="elem_request join rooms"><ellipse cx="178.4984" cy="485.2797" fill="#F1F1F1" rx="85.0984" ry="19.4197" style="stroke:#181818;stroke-width:0.5;"/><text fill="#000000" font-family="sans-serif" font-size="14" lengthAdjust="spacing" textLength="130" x="113.4984" y="488.5707">request join rooms</text></g><g id="elem_update day view"><ellipse cx="532.5016" cy="604.3743" fill="#F1F1F1" rx="76.6216" ry="17.7243" style="stroke:#181818;stroke-width:0.5;"/><text fill="#000000" font-family="sans-serif" font-size="14" lengthAdjust="spacing" textLength="110" x="477.5016" y="607.6653">update day view</text></g><g id="elem_generate Task"><ellipse cx="188.4965" cy="202.9613" fill="#F1F1F1" rx="71.3565" ry="16.6713" style="stroke:#181818;stroke-width:0.5;"/><text fill="#000000" font-family="sans-serif" font-size="14" lengthAdjust="spacing" textLength="97" x="138.9143" y="206.5385">generate Task</text></g><g id="elem_ID"><ellipse cx="370.5048" cy="202.959" fill="#F1F1F1" rx="21.3848" ry="14.659" style="stroke:#181818;stroke-width:0.5;"/><text fill="#000000" font-family="sans-serif" font-size="14" lengthAdjust="spacing" textLength="14" x="363.5048" y="206.25">ID</text></g><g id="elem_waiting on Result"><ellipse cx="561.4985" cy="202.9637" fill="#F1F1F1" rx="79.9685" ry="18.3937" style="stroke:#181818;stroke-width:0.5;"/><text fill="#000000" font-family="sans-serif" font-size="14" lengthAdjust="spacing" textLength="118" x="502.4985" y="206.2547">waiting on Result</text></g><g id="elem_create Task"><ellipse cx="963.4978" cy="202.9596" fill="#F1F1F1" rx="64.4478" ry="15.2896" style="stroke:#181818;stroke-width:0.5;"/><text fill="#000000" font-family="sans-serif" font-size="14" lengthAdjust="spacing" textLength="78" x="921.4978" y="206.9771">create Task</text></g><g id="elem_recieve Result"><ellipse cx="1246.499" cy="202.9598" fill="#F1F1F1" rx="70.199" ry="16.4398" style="stroke:#181818;stroke-width:0.5;"/><text fill="#000000" font-family="sans-serif" font-size="14" lengthAdjust="spacing" textLength="94" x="1197.8115" y="206.6847">recieve Result</text></g><g id="elem_check registrated destinations"><ellipse cx="1542.5039" cy="202.9568" fill="#F1F1F1" rx="119.5339" ry="26.3068" style="stroke:#181818;stroke-width:0.5;"/><text fill="#000000" font-family="sans-serif" font-size="14" lengthAdjust="spacing" textLength="206" x="1439.5039" y="206.2478">check registrated destinations</text></g><g id="elem_process Tasks"><ellipse cx="2006.4977" cy="346.5135" fill="#F1F1F1" rx="70.9677" ry="16.5935" style="stroke:#181818;stroke-width:0.5;"/><text fill="#000000" font-family="sans-serif" font-size="14" lengthAdjust="spacing" textLength="96" x="1957.216" y="350.1404">process Tasks</text></g><g id="elem_extracting endpoint"><ellipse cx="2103.4962" cy="485.2812" fill="#F1F1F1" rx="87.7062" ry="19.9412" style="stroke:#181818;stroke-width:0.5;"/><text fill="#000000" font-family="sans-serif" font-size="14" lengthAdjust="spacing" textLength="136" x="2035.4962" y="488.5723">extracting endpoint</text></g><g id="elem_generate Result"><ellipse cx="2021.5037" cy="785.7467" fill="#F1F1F1" rx="75.3837" ry="17.4767" style="stroke:#181818;stroke-width:0.5;"/><text fill="#000000" font-family="sans-serif" font-size="14" lengthAdjust="spacing" textLength="107" x="1968.0037" y="789.0378">generate Result</text></g><g id="elem_day overview"><ellipse cx="1949.498" cy="604.3736" fill="#F1F1F1" rx="67.968" ry="15.9936" style="stroke:#181818;stroke-width:0.5;"/><text fill="#000000" font-family="sans-serif" font-size="14" lengthAdjust="spacing" textLength="88" x="1902.5352" y="608.3834">day overview</text></g><g id="elem_join room"><ellipse cx="2528.4982" cy="604.3689" fill="#F1F1F1" rx="59.3882" ry="14.7689" style="stroke:#181818;stroke-width:0.5;"/><text fill="#000000" font-family="sans-serif" font-size="14" lengthAdjust="spacing" textLength="67" x="2491.9982" y="608.3865">join room</text></g><g id="elem_join rooms"><ellipse cx="2115.4986" cy="604.3697" fill="#F1F1F1" rx="63.0986" ry="15.0197" style="stroke:#181818;stroke-width:0.5;"/><text fill="#000000" font-family="sans-serif" font-size="14" lengthAdjust="spacing" textLength="74" x="2075.4986" y="608.3873">join rooms</text></g><g id="elem_delete participant"><ellipse cx="2328.5048" cy="604.373" fill="#F1F1F1" rx="80.8148" ry="18.563" style="stroke:#181818;stroke-width:0.5;"/><text fill="#000000" font-family="sans-serif" font-size="14" lengthAdjust="spacing" textLength="120" x="2268.5048" y="607.664">delete participant</text></g><g id="elem_recieve Task"><ellipse cx="2006.4961" cy="202.9572" fill="#F1F1F1" rx="66.5361" ry="15.7072" style="stroke:#181818;stroke-width:0.5;"/><text fill="#000000" font-family="sans-serif" font-size="14" lengthAdjust="spacing" textLength="84" x="1961.4961" y="206.9748">recieve Task</text></g><g id="elem_create Result"><ellipse cx="1836.498" cy="202.9636" fill="#F1F1F1" rx="67.968" ry="15.9936" style="stroke:#181818;stroke-width:0.5;"/><text fill="#000000" font-family="sans-serif" font-size="14" lengthAdjust="spacing" textLength="88" x="1789.5352" y="206.9734">create Result</text></g><g id="elem_MRBS"><ellipse cx="2891.4982" cy="785.749" fill="#F1F1F1" rx="37.6482" ry="14.659" style="stroke:#181818;stroke-width:0.5;"/><text fill="#000000" font-family="sans-serif" font-size="14" lengthAdjust="spacing" textLength="37" x="2872.9982" y="789.04">MRBS</text></g><!--entity User--><g id="elem_User"><ellipse cx="21.5" cy="316.76" fill="#F1F1F1" rx="8" ry="8" style="stroke:#181818;stroke-width:0.5;"/><path d="M21.5,324.76 L21.5,351.76 M8.5,332.76 L34.5,332.76 M21.5,351.76 L8.5,366.76 M21.5,351.76 L34.5,366.76 " fill="none" style="stroke:#181818;stroke-width:0.5;"/><text fill="#000000" font-family="sans-serif" font-size="14" lengthAdjust="spacing" textLength="31" x="6" y="381.7952">User</text></g><!--link User to request day view--><g id="link_User_request day view"><path d="M37.12,333.2 C47.82,324.78 62.7,314.37 77.5,308.26 C135.58,284.32 153.95,276.63 216.5,282.55 C266.24,287.27 314.0658,309.1895 345.9458,326.4795 " fill="none" id="User-to-request day view" style="stroke:#181818;stroke-width:1.0;"/><polygon fill="#181818" points="351.22,329.34,345.2156,321.5331,346.8248,326.9563,341.4016,328.5655,351.22,329.34" style="stroke:#181818;stroke-width:1.0;"/></g><!--link User to request delete participant--><g id="link_User_request delete participant"><path d="M37.34,360.07 C48.13,368.11 63.03,378.21 77.5,384.75 C275.97,474.49 345.59,433.02 561.5,461.75 C578.56,464.02 590.8713,465.8558 608.1913,468.7358 " fill="none" id="User-to-request delete participant" style="stroke:#181818;stroke-width:1.0;"/><polygon fill="#181818" points="614.11,469.72,605.888,464.2979,609.1777,468.8999,604.5758,472.1896,614.11,469.72" style="stroke:#181818;stroke-width:1.0;"/></g><!--link User to request join room--><g id="link_User_request join room"><path d="M37.2,368.46 C53.15,388.12 79.68,416.67 109.5,431.75 C178.75,466.77 205.42,446.47 281.5,461.75 C295.58,464.58 304.8886,466.563 318.9986,469.763 " fill="none" id="User-to-request join room" style="stroke:#181818;stroke-width:1.0;"/><polygon fill="#181818" points="324.85,471.09,316.9576,465.1985,319.9738,469.9841,315.1882,473.0004,324.85,471.09" style="stroke:#181818;stroke-width:1.0;"/></g><!--link User to request join rooms--><g id="link_User_request join rooms"><path d="M29.8,385.08 C34.94,401.12 43.02,419.02 55.5,431.75 C73.46,450.07 93.1658,460.391 116.2058,468.441 " fill="none" id="User-to-request join rooms" style="stroke:#181818;stroke-width:1.0;"/><polygon fill="#181818" points="121.87,470.42,114.693,463.6753,117.1498,468.7708,112.0543,471.2276,121.87,470.42" style="stroke:#181818;stroke-width:1.0;"/></g><!--link request day view to request join room--><g id="link_request day view_request join room"><path d="M380.5,364.83 C380.5,390.85 380.5,439.79 380.5,466.23 " fill="none" id="request day view-request join room" style="stroke:#181818;stroke-width:1.0;stroke-dasharray:7.0,7.0;"/><text fill="#000000" font-family="sans-serif" font-size="13" lengthAdjust="spacing" textLength="53" x="381.5" y="428.3184">depends</text></g><!--link request day view to request delete participant--><g id="link_request day view_request delete participant"><path d="M408.37,363.75 C439.98,381.77 493.4,411.05 541.5,431.75 C571.17,444.52 605.05,456.41 633.38,465.65 " fill="none" id="request day view-request delete participant" style="stroke:#181818;stroke-width:1.0;stroke-dasharray:7.0,7.0;"/><text fill="#000000" font-family="sans-serif" font-size="13" lengthAdjust="spacing" textLength="53" x="542.5" y="428.3184">depends</text></g><!--link request day view to request join rooms--><g id="link_request day view_request join rooms"><path d="M356.13,364 C317.94,389.87 244.27,439.75 204.87,466.42 " fill="none" id="request day view-request join rooms" style="stroke:#181818;stroke-width:1.0;stroke-dasharray:7.0,7.0;"/><text fill="#000000" font-family="sans-serif" font-size="13" lengthAdjust="spacing" textLength="53" x="280.5" y="428.3184">depends</text></g><!--reverse link request day view to update day view--><g id="link_request day view_update day view"><path d="M401.4044,368.8598 C414.3544,382.2298 428.38,397.16 443.5,414.75 C460.83,434.91 467.54,438.54 480.5,461.75 C504.13,504.05 520.76,559.17 528.17,586.49 " fill="none" id="request day view-backto-update day view" style="stroke:#181818;stroke-width:1.0;"/><polygon fill="#181818" points="397.23,364.55,400.6184,373.7976,400.7087,368.1415,406.3648,368.2318,397.23,364.55" style="stroke:#181818;stroke-width:1.0;"/><text fill="#000000" font-family="sans-serif" font-size="13" lengthAdjust="spacing" textLength="19" x="502.5" y="490.3484">set</text></g><!--link request delete participant to update day view--><g id="link_request delete participant_update day view"><path d="M664.41,508.03 C632.75,530.91 588.5031,562.8957 559.9831,583.5057 " fill="none" id="request delete participant-to-update day view" style="stroke:#181818;stroke-width:1.0;"/><polygon fill="#181818" points="555.12,587.02,564.7575,584.9906,559.1726,584.0914,560.0718,578.5065,555.12,587.02" style="stroke:#181818;stroke-width:1.0;"/></g><!--link request join room to update day view--><g id="link_request join room_update day view"><path d="M403.26,503.81 C432.57,526.39 478.3766,561.6787 506.7966,583.5687 " fill="none" id="request join room-to-update day view" style="stroke:#181818;stroke-width:1.0;"/><polygon fill="#181818" points="511.55,587.23,506.8607,578.5692,507.5888,584.179,501.979,584.9071,511.55,587.23" style="stroke:#181818;stroke-width:1.0;"/></g><!--reverse link generate Task to request day view--><g id="link_generate Task_request day view"><path d="M217.9493,222.048 C235.8693,233.238 255.57,246.03 276.5,261.26 C306.94,283.41 340.5,311.26 361.04,328.73 " fill="none" id="generate Task-backto-request day view" style="stroke:#181818;stroke-width:1.0;"/><polygon fill="#181818" points="212.86,218.87,218.3753,227.0298,217.1011,221.5183,222.6125,220.2441,212.86,218.87" style="stroke:#181818;stroke-width:1.0;"/></g><!--reverse link generate Task to request delete participant--><g id="link_generate Task_request delete participant"><path d="M226.5367,220.4879 C255.0467,232.2479 292.41,245.87 331.5,253.26 C352.48,257.23 506,249.02 523.5,261.26 C572.16,295.3 539.28,336.95 574.5,384.75 C597.94,416.56 633.68,444.46 660.06,462.56 " fill="none" id="generate Task-backto-request delete participant" style="stroke:#181818;stroke-width:1.0;"/><polygon fill="#181818" points="220.99,218.2,227.7847,225.3297,225.6122,220.1066,230.8353,217.9341,220.99,218.2" style="stroke:#181818;stroke-width:1.0;"/></g><!--reverse link generate Task to request join room--><g id="link_generate Task_request join room"><path d="M202.3473,224.7493 C209.7873,236.1093 216.52,246.88 224.5,261.26 C254.11,314.62 249.55,334.73 284.5,384.75 C306.77,416.63 339.3,448.02 360.18,466.77 " fill="none" id="generate Task-backto-request join room" style="stroke:#181818;stroke-width:1.0;"/><polygon fill="#181818" points="199.06,219.73,200.6447,229.4505,201.7994,223.9128,207.3372,225.0675,199.06,219.73" style="stroke:#181818;stroke-width:1.0;"/></g><!--reverse link generate Task to request join rooms--><g id="link_generate Task_request join rooms"><path d="M187.717,225.8262 C185.997,274.2362 181.01,413.87 179.16,465.71 " fill="none" id="generate Task-backto-request join rooms" style="stroke:#181818;stroke-width:1.0;"/><polygon fill="#181818" points="187.93,219.83,183.613,228.6823,187.7525,224.8268,191.6079,228.9664,187.93,219.83" style="stroke:#181818;stroke-width:1.0;"/></g><!--link generate Task to ID--><g id="link_generate Task_ID"><path d="M260.17,202.96 C292,202.96 327.14,202.96 349.02,202.96 " fill="none" id="generate Task-ID" style="stroke:#181818;stroke-width:1.0;stroke-dasharray:7.0,7.0;"/><text fill="#000000" font-family="sans-serif" font-size="13" lengthAdjust="spacing" textLength="53" x="277.99" y="196.5284">depends</text></g><!--link ID to waiting on Result--><g id="link_ID_waiting on Result"><path d="M392.04,202.96 C413.8,202.96 448.75,202.96 481.27,202.96 " fill="none" id="ID-waiting on Result" style="stroke:#181818;stroke-width:1.0;stroke-dasharray:7.0,7.0;"/><text fill="#000000" font-family="sans-serif" font-size="13" lengthAdjust="spacing" textLength="53" x="410.21" y="196.5284">depends</text></g><!--link waiting on Result to request day view--><g id="link_waiting on Result_request day view"><path d="M539.67,221.03 C504.69,248.38 441.2466,298.0041 406.5766,325.1141 " fill="none" id="waiting on Result-to-request day view" style="stroke:#181818;stroke-width:1.0;"/><polygon fill="#181818" points="401.85,328.81,411.4038,326.4172,405.7888,325.7301,406.4759,320.1151,401.85,328.81" style="stroke:#181818;stroke-width:1.0;"/><text fill="#000000" font-family="sans-serif" font-size="13" lengthAdjust="spacing" textLength="38" x="487.5" y="274.8284">return</text></g><!--link waiting on Result to request join room--><g id="link_waiting on Result_request join room"><path d="M565.48,221.78 C576.61,272.53 606.43,415.25 593.5,431.75 C593.19,432.15 504.0778,454.0227 441.0778,469.4527 " fill="none" id="waiting on Result-to-request join room" style="stroke:#181818;stroke-width:1.0;"/><polygon fill="#181818" points="435.25,470.88,444.9432,472.6242,440.1065,469.6906,443.0401,464.8538,435.25,470.88" style="stroke:#181818;stroke-width:1.0;"/><text fill="#000000" font-family="sans-serif" font-size="13" lengthAdjust="spacing" textLength="38" x="595.5" y="351.5784">return</text></g><!--link waiting on Result to request delete participant--><g id="link_waiting on Result_request delete participant"><path d="M579.4,221.13 C598.66,240.56 628.87,273.99 646.5,308.26 C672.86,359.53 685.0761,420.9316 690.4761,455.5816 " fill="none" id="waiting on Result-to-request delete participant" style="stroke:#181818;stroke-width:1.0;"/><polygon fill="#181818" points="691.4,461.51,693.9664,452.0014,690.6301,456.5696,686.0618,453.2333,691.4,461.51" style="stroke:#181818;stroke-width:1.0;"/><text fill="#000000" font-family="sans-serif" font-size="13" lengthAdjust="spacing" textLength="38" x="675.5" y="351.5784">return</text></g><!--link waiting on Result to waiting on Result--><g id="link_waiting on Result_waiting on Result"><path d="M622.42,190.71 C651.2,189.28 676.47,193.37 676.47,202.96 C676.47,212.55 657.1927,216.9257 628.4127,215.5057 " fill="none" id="waiting on Result-to-waiting on Result" style="stroke:#181818;stroke-width:1.0;"/><polygon fill="#181818" points="622.42,215.21,631.2119,219.6487,627.4139,215.4564,631.6062,211.6584,622.42,215.21" style="stroke:#181818;stroke-width:1.0;"/><text fill="#000000" font-family="sans-serif" font-size="13" lengthAdjust="spacing" textLength="172" x="682.47" y="208.0284">waiting on incoming Result</text></g><!--link generate Task to create Task--><g id="link_generate Task_create Task"><path d="M198.89,186.11 C219.53,154.47 269.14,87.04 331.5,61.39 C440.01,16.76 754.81,8.4 859.5,61.39 C912.56,88.25 942.8797,150.768 955.3897,181.688 " fill="none" id="generate Task-to-create Task" style="stroke:#181818;stroke-width:1.0;"/><polygon fill="#181818" points="957.64,187.25,957.9725,177.4068,955.7647,182.615,950.5565,180.4072,957.64,187.25" style="stroke:#181818;stroke-width:1.0;"/><text fill="#000000" font-family="sans-serif" font-size="13" lengthAdjust="spacing" textLength="55" x="552" y="25.1284">init Task</text></g><!--reverse link recieve Result to waiting on Result--><g id="link_recieve Result_waiting on Result"><path d="M1226.4947,182.22 C1194.9347,150.55 1124.44,86.4 1045.5,61.39 C870.65,6 657.84,136.08 586.3,185.16 " fill="none" id="recieve Result-backto-waiting on Result" style="stroke:#181818;stroke-width:1.0;"/><polygon fill="#181818" points="1230.73,186.47,1227.2105,177.2715,1227.2006,182.9283,1221.5438,182.9185,1230.73,186.47" style="stroke:#181818;stroke-width:1.0;"/><text fill="#000000" font-family="sans-serif" font-size="13" lengthAdjust="spacing" textLength="110" x="1065.5" y="25.1284">requesting Result</text></g><!--link create Task to check registrated destinations--><g id="link_create Task_check registrated destinations"><path d="M977.31,187.92 C1006.89,156.95 1080.11,86.84 1158.5,61.39 C1232.05,37.51 1258.54,38.79 1332.5,61.39 C1406.72,84.07 1473.9979,138.7147 1511.3679,172.9847 " fill="none" id="create Task-to-check registrated destinations" style="stroke:#181818;stroke-width:1.0;"/><polygon fill="#181818" points="1515.79,177.04,1511.8604,168.0091,1512.1049,173.6606,1506.4534,173.9052,1515.79,177.04" style="stroke:#181818;stroke-width:1.0;"/><text fill="#000000" font-family="sans-serif" font-size="13" lengthAdjust="spacing" textLength="30" x="1028.5" y="25.1284">send</text></g><!--reverse link recieve Result to check registrated destinations--><g id="link_recieve Result_check registrated destinations"><path d="M1323.02,202.96 C1354.57,202.96 1386.66,202.96 1422.48,202.96 " fill="none" id="recieve Result-backto-check registrated destinations" style="stroke:#181818;stroke-width:1.0;"/><polygon fill="#181818" points="1317.02,202.96,1326.02,206.96,1322.02,202.96,1326.02,198.96,1317.02,202.96" style="stroke:#181818;stroke-width:1.0;"/><text fill="#000000" font-family="sans-serif" font-size="13" lengthAdjust="spacing" textLength="30" x="1354.83" y="196.5284">send</text></g><!--link check registrated destinations to recieve Task--><g id="link_check registrated destinations_recieve Task"><path d="M1569.21,177.04 C1606.58,142.77 1678.28,84.07 1752.5,61.39 C1824.33,39.44 1856.13,24.4 1921.5,61.39 C1969.9,88.79 1992.1336,150.1846 2000.8436,181.1146 " fill="none" id="check registrated destinations-to-recieve Task" style="stroke:#181818;stroke-width:1.0;"/><polygon fill="#181818" points="2002.47,186.89,2003.8807,177.1427,2001.1147,182.0772,1996.1802,179.3112,2002.47,186.89" style="stroke:#181818;stroke-width:1.0;"/><text fill="#000000" font-family="sans-serif" font-size="13" lengthAdjust="spacing" textLength="30" x="1785.5" y="25.1284">send</text></g><!--link create Result to check registrated destinations--><g id="link_create Result_check registrated destinations"><path d="M1768.29,202.96 C1736.83,202.96 1704.55,202.96 1668.51,202.96 " fill="none" id="create Result-to-check registrated destinations" style="stroke:#181818;stroke-width:1.0;"/><polygon fill="#181818" points="1662.51,202.96,1671.51,206.96,1667.51,202.96,1671.51,198.96,1662.51,202.96" style="stroke:#181818;stroke-width:1.0;"/><text fill="#000000" font-family="sans-serif" font-size="13" lengthAdjust="spacing" textLength="30" x="1700.28" y="196.5284">send</text></g><!--link recieve Task to process Tasks--><g id="link_recieve Task_process Tasks"><path d="M2006.5,219.1 C2006.5,246.06 2006.5,296.11 2006.5,323.6 " fill="none" id="recieve Task-to-process Tasks" style="stroke:#181818;stroke-width:1.0;"/><polygon fill="#181818" points="2006.5,329.6,2010.5,320.6,2006.5,324.6,2002.5,320.6,2006.5,329.6" style="stroke:#181818;stroke-width:1.0;"/><text fill="#000000" font-family="sans-serif" font-size="13" lengthAdjust="spacing" textLength="93" x="2007.5" y="274.8284">reqesting Task</text></g><!--link process Tasks to process Tasks--><g id="link_process Tasks_process Tasks"><path d="M2052.25,333.39 C2082.76,329.69 2112.47,334.07 2112.47,346.51 C2112.47,358.95 2088.7166,364.0404 2058.2066,360.3504 " fill="none" id="process Tasks-to-process Tasks" style="stroke:#181818;stroke-width:1.0;"/><polygon fill="#181818" points="2052.25,359.63,2060.7046,364.6817,2057.2138,360.2303,2061.6652,356.7396,2052.25,359.63" style="stroke:#181818;stroke-width:1.0;"/><text fill="#000000" font-family="sans-serif" font-size="13" lengthAdjust="spacing" textLength="170" x="2118.47" y="351.5784">waiting on incoming Tasks</text></g><!--link process Tasks to extracting endpoint--><g id="link_process Tasks_extracting endpoint"><path d="M2017.63,363.2 C2035.54,388.46 2067.2484,433.1663 2086.5584,460.3863 " fill="none" id="process Tasks-to-extracting endpoint" style="stroke:#181818;stroke-width:1.0;"/><polygon fill="#181818" points="2090.03,465.28,2088.0851,455.6251,2087.137,461.2019,2081.5602,460.2539,2090.03,465.28" style="stroke:#181818;stroke-width:1.0;"/></g><!--link process Tasks to generate Result--><g id="link_process Tasks_generate Result"><path d="M1985.81,362.8 C1948.23,392.01 1869.96,459.92 1840.5,538.81 C1837.86,545.89 1839.52,548.32 1840.5,555.81 C1845.88,596.98 1842.67,610.77 1864.5,646.09 C1898.34,700.85 1960.44,746.17 1995.54,768.93 " fill="none" id="process Tasks-generate Result" style="stroke:#181818;stroke-width:1.0;stroke-dasharray:7.0,7.0;"/><text fill="#000000" font-family="sans-serif" font-size="13" lengthAdjust="spacing" textLength="53" x="1841.5" y="552.3784">depends</text></g><!--link extracting endpoint to day overview--><g id="link_extracting endpoint_day overview"><path d="M2030.16,496.63 C1981.37,505.2 1923.56,519.15 1908.5,538.81 C1895.98,555.14 1909.0647,571.5003 1924.9547,584.9103 " fill="none" id="extracting endpoint-to-day overview" style="stroke:#181818;stroke-width:1.0;"/><polygon fill="#181818" points="1929.54,588.78,1925.2418,579.9186,1925.7189,585.5553,1920.0822,586.0323,1929.54,588.78" style="stroke:#181818;stroke-width:1.0;"/><text fill="#000000" font-family="sans-serif" font-size="13" lengthAdjust="spacing" textLength="180" x="1909.5" y="552.3784">parameter day(default today)</text></g><!--link extracting endpoint to join room--><g id="link_extracting endpoint_join room"><path d="M2187.41,491.41 C2280.77,498.31 2424.77,512.8 2472.5,538.81 C2494.13,550.59 2508.097,569.1353 2517.467,584.3053 " fill="none" id="extracting endpoint-to-join room" style="stroke:#181818;stroke-width:1.0;"/><polygon fill="#181818" points="2520.62,589.41,2519.2936,579.6509,2517.9925,585.156,2512.4873,583.8549,2520.62,589.41" style="stroke:#181818;stroke-width:1.0;"/><text fill="#000000" font-family="sans-serif" font-size="13" lengthAdjust="spacing" textLength="267" x="2495.5" y="552.3784">parameters room id and day(default today)</text></g><!--link extracting endpoint to join rooms--><g id="link_extracting endpoint_join rooms"><path d="M2100.66,505.57 C2099.08,519.59 2097.91,538.97 2100.5,555.81 C2102.27,567.27 2104.2085,574.1426 2107.6485,583.4426 " fill="none" id="extracting endpoint-to-join rooms" style="stroke:#181818;stroke-width:1.0;"/><polygon fill="#181818" points="2109.73,589.07,2110.3593,579.2413,2107.9954,584.3805,2102.8561,582.0166,2109.73,589.07" style="stroke:#181818;stroke-width:1.0;"/><text fill="#000000" font-family="sans-serif" font-size="13" lengthAdjust="spacing" textLength="183" x="2101.5" y="552.3784">parameters room id and days</text></g><!--link extracting endpoint to delete participant--><g id="link_extracting endpoint_delete participant"><path d="M2180.84,494.87 C2216.74,501.99 2258.28,515.01 2289.5,538.81 C2305.12,550.72 2313.4939,565.3035 2319.6739,579.9235 " fill="none" id="extracting endpoint-to-delete participant" style="stroke:#181818;stroke-width:1.0;"/><polygon fill="#181818" points="2322.01,585.45,2322.1902,575.6028,2320.0632,580.8446,2314.8215,578.7176,2322.01,585.45" style="stroke:#181818;stroke-width:1.0;"/><text fill="#000000" font-family="sans-serif" font-size="13" lengthAdjust="spacing" textLength="158" x="2305.5" y="552.3784">parameter participants id</text></g><!--link day overview to generate Result--><g id="link_day overview_generate Result"><path d="M1955.64,620.66 C1969.04,654.05 1998.5859,727.6515 2012.5159,762.3715 " fill="none" id="day overview-to-generate Result" style="stroke:#181818;stroke-width:1.0;"/><polygon fill="#181818" points="2014.75,767.94,2015.1111,758.0978,2012.8882,763.2996,2007.6864,761.0766,2014.75,767.94" style="stroke:#181818;stroke-width:1.0;"/></g><!--link join room to generate Result--><g id="link_join room_generate Result"><path d="M2503.7,618.13 C2483.5,627.8 2453.94,640.38 2426.5,646.09 C2397.88,652.05 2190.57,643.06 2163.5,654.09 C2104.25,678.25 2057.9175,734.2511 2036.4075,763.5911 " fill="none" id="join room-to-generate Result" style="stroke:#181818;stroke-width:1.0;"/><polygon fill="#181818" points="2032.86,768.43,2041.4072,763.5367,2035.8163,764.3976,2034.9554,758.8066,2032.86,768.43" style="stroke:#181818;stroke-width:1.0;"/></g><!--link join rooms to generate Result--><g id="link_join rooms_generate Result"><path d="M2093.6,618.9 C2081.32,627.56 2066.66,639.82 2057.5,654.09 C2034.12,690.53 2026.4031,736.1256 2023.5431,762.2456 " fill="none" id="join rooms-to-generate Result" style="stroke:#181818;stroke-width:1.0;"/><polygon fill="#181818" points="2022.89,768.21,2027.8458,759.6988,2023.4342,763.2397,2019.8934,758.8281,2022.89,768.21" style="stroke:#181818;stroke-width:1.0;"/></g><!--link delete participant to generate Result--><g id="link_delete participant_generate Result"><path d="M2286.86,620.64 C2261.16,629.46 2227.32,639.98 2196.5,646.09 C2177.67,649.83 2127.03,644.35 2110.5,654.09 C2065.82,680.44 2040.7648,733.5041 2029.5848,762.4041 " fill="none" id="delete participant-to-generate Result" style="stroke:#181818;stroke-width:1.0;"/><polygon fill="#181818" points="2027.42,768,2034.3977,761.0494,2029.224,763.3368,2026.9366,758.163,2027.42,768" style="stroke:#181818;stroke-width:1.0;"/></g><!--link generate Result to create Result--><g id="link_generate Result_create Result"><path d="M1988.38,769.6 C1945.85,748.34 1873.08,705.49 1835.5,646.09 C1801.09,591.72 1799.86,572.32 1789.5,508.81 C1771.4,397.82 1812.5797,269.4224 1828.6997,224.8424 " fill="none" id="generate Result-to-create Result" style="stroke:#181818;stroke-width:1.0;"/><polygon fill="#181818" points="1830.74,219.2,1823.9179,226.3035,1829.0398,223.902,1831.4412,229.0239,1830.74,219.2" style="stroke:#181818;stroke-width:1.0;"/><text fill="#000000" font-family="sans-serif" font-size="13" lengthAdjust="spacing" textLength="55" x="1790.5" y="490.3484">init Task</text></g><!--link day overview to MRBS--><g id="link_day overview_MRBS"><path d="M1973.1,619.72 C1989.66,629.01 2012.65,640.4 2034.5,646.09 C2089.23,660.35 2106.02,643.12 2161.5,654.09 C2184.53,658.65 2188.37,667.11 2211.5,671.09 C2244.46,676.77 2783.74,663.82 2813.5,679.09 C2851.84,698.77 2873.7495,741.4511 2883.8195,765.3411 " fill="none" id="day overview-to-MRBS" style="stroke:#181818;stroke-width:1.0;"/><polygon fill="#181818" points="2886.15,770.87,2886.3402,761.023,2884.2079,766.2626,2878.9683,764.1303,2886.15,770.87" style="stroke:#181818;stroke-width:1.0;"/><text fill="#000000" font-family="sans-serif" font-size="13" lengthAdjust="spacing" textLength="47" x="2212.5" y="667.6584">request</text></g><!--link join room to MRBS--><g id="link_join room_MRBS"><path d="M2585.56,608.92 C2646.61,615.12 2744.04,632.18 2813.5,679.09 C2848.83,702.96 2871.5381,742.9481 2882.6281,765.6681 " fill="none" id="join room-to-MRBS" style="stroke:#181818;stroke-width:1.0;"/><polygon fill="#181818" points="2885.26,771.06,2884.9068,761.2175,2883.0668,766.5667,2877.7175,764.7267,2885.26,771.06" style="stroke:#181818;stroke-width:1.0;"/><text fill="#000000" font-family="sans-serif" font-size="13" lengthAdjust="spacing" textLength="47" x="2800.5" y="667.6584">request</text></g><!--link join rooms to MRBS--><g id="link_join rooms_MRBS"><path d="M2145.22,617.94 C2168.13,627.12 2200.81,639.13 2230.5,646.09 C2320.72,667.24 2345.06,664.55 2437.5,671.09 C2458.34,672.57 2794.95,669.48 2813.5,679.09 C2851.76,698.92 2873.7014,741.5345 2883.7914,765.3745 " fill="none" id="join rooms-to-MRBS" style="stroke:#181818;stroke-width:1.0;"/><polygon fill="#181818" points="2886.13,770.9,2886.3058,761.0527,2884.1812,766.2954,2878.9385,764.1708,2886.13,770.9" style="stroke:#181818;stroke-width:1.0;"/><text fill="#000000" font-family="sans-serif" font-size="13" lengthAdjust="spacing" textLength="47" x="2438.5" y="667.6584">request</text></g><!--link delete participant to MRBS--><g id="link_delete participant_MRBS"><path d="M2368.04,620.98 C2391.85,629.75 2422.99,640.1 2451.5,646.09 C2566.4,670.26 2597.54,660.81 2714.5,671.09 C2736.49,673.03 2794.21,668.36 2813.5,679.09 C2851.16,700.05 2873.3245,742.1533 2883.6045,765.6433 " fill="none" id="delete participant-to-MRBS" style="stroke:#181818;stroke-width:1.0;"/><polygon fill="#181818" points="2886.01,771.14,2886.0662,761.2913,2884.0054,766.5594,2878.7373,764.4987,2886.01,771.14" style="stroke:#181818;stroke-width:1.0;"/><text fill="#000000" font-family="sans-serif" font-size="13" lengthAdjust="spacing" textLength="47" x="2715.5" y="667.6584">request</text></g><!--SRC=[fLRBafim4BpxAwPyyXxW0rnRU_3caaEgKdRo0LgOE0eW4KdshYl5lsU4A10Wi9puP4lJJS-hCSkCLF1Tezeep0mJvn9XUvIoWeEK1HTdEDsqmGha5HMSM5MNj_I0hDh2dmtGPu2zbXo5wOxjnz92yW8xXRylg0tax0PNZkzFAo5Oea6ecJ8yupKJPYNub-G258cDYT53q5mGf6c8TazwQXIvZeK6vCF399xaAEnpai3kKkUCdjoVxa6Z2Q020XDRhob-3XtAie3e8TuesL4vEe9lJ1TRRpnQyZCAL9R6tdQfB8_BVSZA-Dm51yOf7gFNGTJUpvy2xMnZwSO6l3DkxCP90KVKbz8CyJ06p2DTIsQLsrClp4M9n-3-0lmBFj25UAANS26yCouoMTdlxhAdR9O6CFsgvCUjCwXx8sW5P0hxWpqzZvls-nX73-5unLxvSn9MtbLbKN2pcKfMiY0NCmHAX4n8IvdGgh7qhRr8jNFX7FrKHffT4ZynAuZtpBMn-UNK5ok36Iw5RWr2v9lLTE8fvacmhA1BU9L2e7tB-6B3_Lc5k1pNzNJ6x_BecZTAqY-KFt2FbQgP5wshkkMgbSnGw_P8k_PttH-Dq2GEGj3GpBTtoooM1ZyeYQn5akoQbjbpmIaYzHPWwZe3A4Jf7cQjnlutwEo6TfvLjFpAUj0knn-C6C58-lKKG-TRJy-bsnFWEJ0QZ_yarglCSJc7_6t8t3lNH3qmZchbgAQr7uAdhzk8I7qtTF7rlmoPtlW6sG_Cs2BTWbZBUcEQTlpByN3gVywMEb0L2nYSSnm-hKjKh8u8NgnD0DHichy0]--></g></svg>