<?xml version="1.0" encoding="us-ascii" standalone="no"?><svg xmlns="http://www.w3.org/2000/svg" xmlns:xlink="http://www.w3.org/1999/xlink" contentStyleType="text/css" height="650px" preserveAspectRatio="none" style="width:991px;height:650px;background:#FFFFFF;" version="1.1" viewBox="0 0 991 650" width="991px" zoomAndPan="magnify"><defs/><g><!--cluster Room Booking System over Samply.Beam--><g id="cluster_Room Booking System over Samply.Beam"><rect fill="none" height="637.63" rx="2.5" ry="2.5" style="stroke:#181818;stroke-width:1.0;" width="932" x="53.5" y="7"/><text fill="#000000" font-family="sans-serif" font-size="14" font-weight="bold" lengthAdjust="spacing" textLength="298" x="370.5" y="22.5352">Room Booking System over Samply.Beam</text></g><!--cluster Client--><g id="cluster_Client"><rect fill="none" height="570.63" rx="2.5" ry="2.5" style="stroke:#181818;stroke-width:1.0;" width="452" x="77.5" y="50"/><text fill="#000000" font-family="sans-serif" font-size="14" font-weight="bold" lengthAdjust="spacing" textLength="43" x="282" y="65.5352">Client</text></g><!--cluster BeamRequestTask--><g id="cluster_BeamRequestTask"><rect fill="none" height="273.61" rx="2.5" ry="2.5" style="stroke:#181818;stroke-width:1.0;" width="211" x="101.5" y="93.41"/><text fill="#000000" font-family="sans-serif" font-size="14" font-weight="bold" lengthAdjust="spacing" textLength="132" x="141" y="108.9452">BeamRequestTask</text></g><!--cluster Beam.Proxy--><g id="cluster_Beam.Proxy"><rect fill="none" height="81.86" rx="2.5" ry="2.5" style="stroke:#181818;stroke-width:1.0;" width="162" x="343.5" y="93"/><text fill="#000000" font-family="sans-serif" font-size="14" font-weight="bold" lengthAdjust="spacing" textLength="82" x="383.5" y="108.5352">Beam.Proxy</text></g><!--cluster Broker test-no-real-data.broker.samply.de--><g id="cluster_Broker test-no-real-data.broker.samply.de"><rect fill="none" height="83.58" rx="2.5" ry="2.5" style="stroke:#181818;stroke-width:1.0;" width="324" x="553.5" y="92.14"/><text fill="#000000" font-family="sans-serif" font-size="14" font-weight="bold" lengthAdjust="spacing" textLength="308" x="561.5" y="107.6752">Broker test-no-real-data.broker.samply.de</text></g><g id="elem_request day view"><ellipse cx="215.4971" cy="452.2574" fill="#F1F1F1" rx="78.2871" ry="18.0574" style="stroke:#181818;stroke-width:0.5;"/><text fill="#000000" font-family="sans-serif" font-size="14" lengthAdjust="spacing" textLength="114" x="158.4971" y="455.5484">request day view</text></g><g id="elem_join room"><ellipse cx="349.4982" cy="586.0689" fill="#F1F1F1" rx="59.3882" ry="14.7689" style="stroke:#181818;stroke-width:0.5;"/><text fill="#000000" font-family="sans-serif" font-size="14" lengthAdjust="spacing" textLength="67" x="312.9982" y="590.0865">join room</text></g><g id="elem_delete participant"><ellipse cx="174.5048" cy="586.073" fill="#F1F1F1" rx="80.8148" ry="18.563" style="stroke:#181818;stroke-width:0.5;"/><text fill="#000000" font-family="sans-serif" font-size="14" lengthAdjust="spacing" textLength="120" x="114.5048" y="589.364">delete participant</text></g><g id="elem_create task"><ellipse cx="180.4986" cy="143.4297" fill="#F1F1F1" rx="63.0986" ry="15.0197" style="stroke:#181818;stroke-width:0.5;"/><text fill="#000000" font-family="sans-serif" font-size="14" lengthAdjust="spacing" textLength="74" x="140.4986" y="147.4473">create task</text></g><g id="elem_ID"><ellipse cx="200.5048" cy="237.379" fill="#F1F1F1" rx="21.3848" ry="14.659" style="stroke:#181818;stroke-width:0.5;"/><text fill="#000000" font-family="sans-serif" font-size="14" lengthAdjust="spacing" textLength="14" x="193.5048" y="240.67">ID</text></g><g id="elem_wait on result task"><ellipse cx="213.4962" cy="332.0292" fill="#F1F1F1" rx="82.9462" ry="18.9892" style="stroke:#181818;stroke-width:0.5;"/><text fill="#000000" font-family="sans-serif" font-size="14" lengthAdjust="spacing" textLength="125" x="150.9962" y="335.3203">wait on result task</text></g><g id="elem_receive task"><ellipse cx="424.4956" cy="143.4271" fill="#F1F1F1" rx="65.1356" ry="15.4271" style="stroke:#181818;stroke-width:0.5;"/><text fill="#000000" font-family="sans-serif" font-size="14" lengthAdjust="spacing" textLength="80" x="381.4956" y="147.4447">receive task</text></g><g id="elem_check destiny"><ellipse cx="638.5025" cy="143.4285" fill="#F1F1F1" rx="69.4425" ry="16.2885" style="stroke:#181818;stroke-width:0.5;"/><text fill="#000000" font-family="sans-serif" font-size="14" lengthAdjust="spacing" textLength="92" x="590.3998" y="147.25">check destiny</text></g><!--entity Backend--><g id="elem_Backend"><rect fill="#F1F1F1" height="36.4883" rx="2.5" ry="2.5" style="stroke:#181818;stroke-width:0.5;" width="77" x="893" y="125.19"/><text fill="#000000" font-family="sans-serif" font-size="14" lengthAdjust="spacing" textLength="57" x="903" y="148.7252">Backend</text></g><!--entity User--><g id="elem_User"><ellipse cx="21.5" cy="422.52" fill="#F1F1F1" rx="8" ry="8" style="stroke:#181818;stroke-width:0.5;"/><path d="M21.5,430.52 L21.5,457.52 M8.5,438.52 L34.5,438.52 M21.5,457.52 L8.5,472.52 M21.5,457.52 L34.5,472.52 " fill="none" style="stroke:#181818;stroke-width:0.5;"/><text fill="#000000" font-family="sans-serif" font-size="14" lengthAdjust="spacing" textLength="31" x="6" y="487.5552">User</text></g><!--link User to request day view--><g id="link_User_request day view"><path d="M37.41,452.26 C70.57,452.26 97.73,452.26 130.89,452.26 " fill="none" id="User-to-request day view" style="stroke:#181818;stroke-width:1.0;"/><polygon fill="#181818" points="136.89,452.26,127.89,448.26,131.89,452.26,127.89,456.26,136.89,452.26" style="stroke:#181818;stroke-width:1.0;"/></g><!--link request day view to join room--><g id="link_request day view_join room"><path d="M227.07,470.57 C239.53,488.48 260.52,516.69 282.5,537.5 C296.38,550.65 314.09,563.06 327.81,571.91 " fill="none" id="request day view-join room" style="stroke:#181818;stroke-width:1.0;"/><text fill="#000000" font-family="sans-serif" font-size="13" lengthAdjust="spacing" textLength="53" x="283.5" y="534.0684">depends</text></g><!--link request day view to delete participant--><g id="link_request day view_delete participant"><path d="M204.99,470.58 C197.49,483.79 187.81,502.68 182.5,520.5 C177.92,535.87 175.96,554.06 175.12,567.2 " fill="none" id="request day view-delete participant" style="stroke:#181818;stroke-width:1.0;"/><text fill="#000000" font-family="sans-serif" font-size="13" lengthAdjust="spacing" textLength="53" x="183.5" y="534.0684">depends</text></g><!--reverse link create task to request day view--><g id="link_create task_request day view"><path d="M165.8518,163.4163 C138.2818,200.5263 75.03,298.24 113.5,375.02 C127.41,402.79 156.78,423.04 180.44,435.66 " fill="none" id="create task-backto-request day view" style="stroke:#181818;stroke-width:1.0;"/><polygon fill="#181818" points="169.43,158.6,160.8519,163.439,166.4482,162.6136,167.2736,168.2099,169.43,158.6" style="stroke:#181818;stroke-width:1.0;"/></g><!--link create task to ID--><g id="link_create task_ID"><path d="M183.63,158.8 C187.4,176.17 193.72,205.22 197.46,222.41 " fill="none" id="create task-ID" style="stroke:#181818;stroke-width:1.0;stroke-dasharray:7.0,7.0;"/></g><!--link ID to wait on result task--><g id="link_ID_wait on result task"><path d="M202.47,252.45 C204.73,268.55 208.44,294.96 210.92,312.67 " fill="none" id="ID-wait on result task" style="stroke:#181818;stroke-width:1.0;stroke-dasharray:7.0,7.0;"/></g><!--link wait on result task to request day view--><g id="link_wait on result task_request day view"><path d="M213.81,351.5 C214.19,374.1 214.7391,406.0708 215.1091,428.0708 " fill="none" id="wait on result task-to-request day view" style="stroke:#181818;stroke-width:1.0;"/><polygon fill="#181818" points="215.21,434.07,219.0581,425.004,215.1259,429.0707,211.0592,425.1385,215.21,434.07" style="stroke:#181818;stroke-width:1.0;"/></g><!--link wait on result task to join room--><g id="link_wait on result task_join room"><path d="M242.49,350.08 C264.51,364.47 293.91,387.01 311.5,414.02 C344.54,464.74 349.0987,533.9606 349.5187,564.9506 " fill="none" id="wait on result task-to-join room" style="stroke:#181818;stroke-width:1.0;"/><polygon fill="#181818" points="349.6,570.95,353.4777,561.8966,349.5322,565.9505,345.4784,562.005,349.6,570.95" style="stroke:#181818;stroke-width:1.0;"/></g><!--link wait on result task to delete participant--><g id="link_wait on result task_delete participant"><path d="M182.23,350.07 C160.16,364.02 132.34,386.01 119.5,414.02 C94.87,467.75 133.2661,530.8405 156.7361,562.4905 " fill="none" id="wait on result task-to-delete participant" style="stroke:#181818;stroke-width:1.0;"/><polygon fill="#181818" points="160.31,567.31,158.1622,557.6982,157.3318,563.2938,151.7362,562.4634,160.31,567.31" style="stroke:#181818;stroke-width:1.0;"/></g><!--link create task to receive task--><g id="link_create task_receive task"><path d="M243.97,143.43 C279.41,143.43 317.49,143.43 353.22,143.43 " fill="none" id="create task-to-receive task" style="stroke:#181818;stroke-width:1.0;"/><polygon fill="#181818" points="359.22,143.43,350.22,139.43,354.22,143.43,350.22,147.43,359.22,143.43" style="stroke:#181818;stroke-width:1.0;"/><text fill="#000000" font-family="sans-serif" font-size="13" lengthAdjust="spacing" textLength="79" x="261.98" y="136.9984">forward task</text></g><!--link receive task to check destiny--><g id="link_receive task_check destiny"><path d="M489.87,143.43 C514.82,143.43 537.35,143.43 562.7,143.43 " fill="none" id="receive task-to-check destiny" style="stroke:#181818;stroke-width:1.0;"/><polygon fill="#181818" points="568.7,143.43,559.7,139.43,563.7,143.43,559.7,147.43,568.7,143.43" style="stroke:#181818;stroke-width:1.0;"/><text fill="#000000" font-family="sans-serif" font-size="13" lengthAdjust="spacing" textLength="30" x="514.35" y="136.9984">send</text></g><!--SRC=[ZL91Si8m3Bpp2Wsdv90yWEbmI7lfhGFj0rHRfMuIEzWYDDF9twia30G8fJxPMgrMAmiLEmzlWVpCasAqcu9WldAkXCovtDWDh9l0L8AhoSCQowfeqeomdCFF3EISQ8-58Sk7S7Uwif0i8VAqtL5WqDX0RMWV7rEk8KWIYBwSiU2bYtW1cYgoEjoZQ2g82IhqR9Ifq78Cr-JZPUIsSxCQQhvYoESZ1xsUyeHIcGMBuQ7Jkktdcf2c43q_NMH8e0VsQ1YSMAMmAtXWd6TEPOZVvTqcRXDFm_qlOsAsHsfxQwJfYtVVpT_J77meClKXie0Fv_VeTVyy-x51g9rTIdcNovgnZ2AnBf7gHQAHCNtlWJGCAwjftCcvQD-6-YILoxu4DhQHFeBipQHYXYeNJAeTuFON]--></g></svg>