<svg xmlns="http://www.w3.org/2000/svg" xmlns:xlink="http://www.w3.org/1999/xlink" contentStyleType="text/css" data-diagram-type="CLASS" height="460px" preserveAspectRatio="none" style="width:321px;height:460px;background:#FFFFFF;" version="1.1" viewBox="0 0 321 460" width="321px" zoomAndPan="magnify"><defs/><g><!--class freie Mitarbeiter--><g class="entity" data-entity="freie Mitarbeiter" data-source-line="1" data-uid="ent0002" id="entity_freie Mitarbeiter"><rect fill="#F1F1F1" height="80.9766" rx="2.5" ry="2.5" style="stroke:#181818;stroke-width:0.5;" width="141.1768" x="7" y="214.44"/><ellipse cx="22" cy="230.44" fill="#ADD1B2" rx="11" ry="11" style="stroke:#181818;stroke-width:1;"/><path d="M25.6143,236.94 L17.8945,236.94 L17.8945,224.5469 L25.6143,224.5469 L25.6143,226.7051 L20.3433,226.7051 L20.3433,229.378 L25.1162,229.378 L25.1162,231.5362 L20.3433,231.5362 L20.3433,234.7818 L25.6143,234.7818 Z " fill="#000000"/><text fill="#000000" font-family="sans-serif" font-size="14" lengthAdjust="spacing" textLength="109.1768" x="36" y="235.731">freie Mitarbeiter</text><line style="stroke:#181818;stroke-width:0.5;" x1="8" x2="147.1768" y1="246.44" y2="246.44"/><ellipse cx="18" cy="260.1841" fill="#000000" rx="3" ry="3" style="stroke:#000000;stroke-width:1;"/><text fill="#000000" font-family="sans-serif" font-size="14" lengthAdjust="spacing" textLength="14.5195" x="27" y="263.9752">ID</text><line style="stroke:#181818;stroke-width:1;" x1="8" x2="147.1768" y1="270.9283" y2="270.9283"/><ellipse cx="18" cy="284.6724" fill="#000000" rx="3" ry="3" style="stroke:#000000;stroke-width:1;"/><text fill="#000000" font-family="sans-serif" font-size="14" lengthAdjust="spacing" textLength="38.9443" x="27" y="288.4634">Name</text></g><!--class Mitarbeiter--><g class="entity" data-entity="Mitarbeiter" data-source-line="6" data-uid="ent0003" id="entity_Mitarbeiter"><rect fill="#F1F1F1" height="80.9766" rx="2.5" ry="2.5" style="stroke:#181818;stroke-width:0.5;" width="106.2246" x="183.48" y="214.44"/><ellipse cx="198.48" cy="230.44" fill="#ADD1B2" rx="11" ry="11" style="stroke:#181818;stroke-width:1;"/><path d="M202.0943,236.94 L194.3745,236.94 L194.3745,224.5469 L202.0943,224.5469 L202.0943,226.7051 L196.8233,226.7051 L196.8233,229.378 L201.5962,229.378 L201.5962,231.5362 L196.8233,231.5362 L196.8233,234.7818 L202.0943,234.7818 Z " fill="#000000"/><text fill="#000000" font-family="sans-serif" font-size="14" lengthAdjust="spacing" textLength="74.2246" x="212.48" y="235.731">Mitarbeiter</text><line style="stroke:#181818;stroke-width:0.5;" x1="184.48" x2="288.7046" y1="246.44" y2="246.44"/><ellipse cx="194.48" cy="260.1841" fill="#000000" rx="3" ry="3" style="stroke:#000000;stroke-width:1;"/><text fill="#000000" font-family="sans-serif" font-size="14" lengthAdjust="spacing" textLength="14.5195" x="203.48" y="263.9752">ID</text><line style="stroke:#181818;stroke-width:1;" x1="184.48" x2="288.7046" y1="270.9283" y2="270.9283"/><ellipse cx="194.48" cy="284.6724" fill="#000000" rx="3" ry="3" style="stroke:#000000;stroke-width:1;"/><text fill="#000000" font-family="sans-serif" font-size="14" lengthAdjust="spacing" textLength="38.9443" x="203.48" y="288.4634">Name</text></g><!--class Projekt--><g class="entity" data-entity="Projekt" data-source-line="11" data-uid="ent0004" id="entity_Projekt"><rect fill="#F1F1F1" height="130.4414" rx="2.5" ry="2.5" style="stroke:#181818;stroke-width:0.5;" width="117.3418" x="97.92" y="7"/><ellipse cx="129.929" cy="23" fill="#ADD1B2" rx="11" ry="11" style="stroke:#181818;stroke-width:1;"/><path d="M133.5433,29.5 L125.8236,29.5 L125.8236,17.1069 L133.5433,17.1069 L133.5433,19.2651 L128.2723,19.2651 L128.2723,21.938 L133.0452,21.938 L133.0452,24.0962 L128.2723,24.0962 L128.2723,27.3418 L133.5433,27.3418 Z " fill="#000000"/><text fill="#000000" font-family="sans-serif" font-size="14" lengthAdjust="spacing" textLength="47.5439" x="147.7088" y="28.291">Projekt</text><line style="stroke:#181818;stroke-width:0.5;" x1="98.92" x2="214.2618" y1="39" y2="39"/><ellipse cx="108.92" cy="52.7441" fill="#000000" rx="3" ry="3" style="stroke:#000000;stroke-width:1;"/><text fill="#000000" font-family="sans-serif" font-size="14" lengthAdjust="spacing" textLength="14.5195" x="117.92" y="56.5352">ID</text><line style="stroke:#181818;stroke-width:1;" x1="98.92" x2="214.2618" y1="63.4883" y2="63.4883"/><ellipse cx="108.92" cy="77.2324" fill="#000000" rx="3" ry="3" style="stroke:#000000;stroke-width:1;"/><text fill="#000000" font-family="sans-serif" font-size="14" lengthAdjust="spacing" textLength="38.9443" x="117.92" y="81.0234">Name</text><ellipse cx="108.92" cy="93.7207" fill="#000000" rx="3" ry="3" style="stroke:#000000;stroke-width:1;"/><text fill="#000000" font-family="sans-serif" font-size="14" lengthAdjust="spacing" textLength="91.3418" x="117.92" y="97.5117">Beschreibung</text><ellipse cx="108.92" cy="110.209" fill="#000000" rx="3" ry="3" style="stroke:#000000;stroke-width:1;"/><text fill="#000000" font-family="sans-serif" font-size="14" lengthAdjust="spacing" textLength="48.6445" x="117.92" y="114">Anfang</text><ellipse cx="108.92" cy="126.6973" fill="#000000" rx="3" ry="3" style="stroke:#000000;stroke-width:1;"/><text fill="#000000" font-family="sans-serif" font-size="14" lengthAdjust="spacing" textLength="32.8877" x="117.92" y="130.4883">Ende</text></g><!--class Lohntabelle--><g class="entity" data-entity="Lohntabelle" data-source-line="19" data-uid="ent0005" id="entity_Lohntabelle"><rect fill="#F1F1F1" height="80.9766" rx="2.5" ry="2.5" style="stroke:#181818;stroke-width:0.5;" width="110.9141" x="181.13" y="372.41"/><ellipse cx="196.13" cy="388.41" fill="#ADD1B2" rx="11" ry="11" style="stroke:#181818;stroke-width:1;"/><path d="M199.7443,394.91 L192.0245,394.91 L192.0245,382.5169 L199.7443,382.5169 L199.7443,384.6751 L194.4733,384.6751 L194.4733,387.348 L199.2462,387.348 L199.2462,389.5062 L194.4733,389.5062 L194.4733,392.7518 L199.7443,392.7518 Z " fill="#000000"/><text fill="#000000" font-family="sans-serif" font-size="14" lengthAdjust="spacing" textLength="78.9141" x="210.13" y="393.701">Lohntabelle</text><line style="stroke:#181818;stroke-width:0.5;" x1="182.13" x2="291.0441" y1="404.41" y2="404.41"/><ellipse cx="192.13" cy="418.1541" fill="#000000" rx="3" ry="3" style="stroke:#000000;stroke-width:1;"/><text fill="#000000" font-family="sans-serif" font-size="14" lengthAdjust="spacing" textLength="14.5195" x="201.13" y="421.9452">ID</text><line style="stroke:#181818;stroke-width:1;" x1="182.13" x2="291.0441" y1="428.8983" y2="428.8983"/><ellipse cx="192.13" cy="442.6424" fill="#000000" rx="3" ry="3" style="stroke:#000000;stroke-width:1;"/><text fill="#000000" font-family="sans-serif" font-size="14" lengthAdjust="spacing" textLength="77.4785" x="201.13" y="446.4334">Lohnbetrag</text></g><!--class Honorar--><g class="entity" data-entity="Honorar" data-source-line="24" data-uid="ent0006" id="entity_Honorar"><rect fill="#F1F1F1" height="80.9766" rx="2.5" ry="2.5" style="stroke:#181818;stroke-width:0.5;" width="109.4121" x="22.88" y="372.41"/><ellipse cx="47.8015" cy="388.41" fill="#ADD1B2" rx="11" ry="11" style="stroke:#181818;stroke-width:1;"/><path d="M51.4158,394.91 L43.6961,394.91 L43.6961,382.5169 L51.4158,382.5169 L51.4158,384.6751 L46.1448,384.6751 L46.1448,387.348 L50.9177,387.348 L50.9177,389.5062 L46.1448,389.5062 L46.1448,392.7518 L51.4158,392.7518 Z " fill="#000000"/><text fill="#000000" font-family="sans-serif" font-size="14" lengthAdjust="spacing" textLength="55.3643" x="64.0063" y="393.701">Honorar</text><line style="stroke:#181818;stroke-width:0.5;" x1="23.88" x2="131.2921" y1="404.41" y2="404.41"/><ellipse cx="33.88" cy="418.1541" fill="#000000" rx="3" ry="3" style="stroke:#000000;stroke-width:1;"/><text fill="#000000" font-family="sans-serif" font-size="14" lengthAdjust="spacing" textLength="14.5195" x="42.88" y="421.9452">ID</text><line style="stroke:#181818;stroke-width:1;" x1="23.88" x2="131.2921" y1="428.8983" y2="428.8983"/><ellipse cx="33.88" cy="442.6424" fill="#000000" rx="3" ry="3" style="stroke:#000000;stroke-width:1;"/><text fill="#000000" font-family="sans-serif" font-size="14" lengthAdjust="spacing" textLength="83.4121" x="42.88" y="446.4334">Honorah&#246;he</text></g><!--link Projekt to Mitarbeiter--><g class="link" data-entity-1="Projekt" data-entity-2="Mitarbeiter" data-source-line="30" data-uid="lnk7" id="link_Projekt_Mitarbeiter"><path codeLine="30" d="M185.13,137.69 C196.39,163.13 208.98,191.56 218.89,213.94" fill="none" id="Projekt-Mitarbeiter" style="stroke:#181818;stroke-width:1;"/><text fill="#000000" font-family="sans-serif" font-size="13" lengthAdjust="spacing" textLength="55.3516" x="204.75" y="181.0084">zugeteilt</text><text fill="#000000" font-family="sans-serif" font-size="13" lengthAdjust="spacing" textLength="8.0679" x="179.6641" y="157.7993">n</text><text fill="#000000" font-family="sans-serif" font-size="13" lengthAdjust="spacing" textLength="12.1367" x="203.1233" y="203.8053">m</text></g><!--link Projekt to freie Mitarbeiter--><g class="link" data-entity-1="Projekt" data-entity-2="freie Mitarbeiter" data-source-line="31" data-uid="lnk8" id="link_Projekt_freie Mitarbeiter"><path codeLine="31" d="M128.4,137.69 C117.28,163.13 104.85,191.56 95.07,213.94" fill="none" id="Projekt-freie Mitarbeiter" style="stroke:#181818;stroke-width:1;"/><text fill="#000000" font-family="sans-serif" font-size="13" lengthAdjust="spacing" textLength="55.3516" x="115.72" y="181.0084">zugeteilt</text><text fill="#000000" font-family="sans-serif" font-size="13" lengthAdjust="spacing" textLength="8.0679" x="117.0838" y="157.7993">n</text><text fill="#000000" font-family="sans-serif" font-size="13" lengthAdjust="spacing" textLength="12.1367" x="84.9108" y="203.8053">m</text></g><!--link Mitarbeiter to Lohntabelle--><g class="link" data-entity-1="Mitarbeiter" data-entity-2="Lohntabelle" data-source-line="32" data-uid="lnk9" id="link_Mitarbeiter_Lohntabelle"><path codeLine="32" d="M236.59,295.69 C236.59,319.06 236.59,348.53 236.59,371.94" fill="none" id="Mitarbeiter-Lohntabelle" style="stroke:#181818;stroke-width:1;"/><text fill="#000000" font-family="sans-serif" font-size="13" lengthAdjust="spacing" textLength="76.0767" x="237.59" y="338.9784">eingeordnet</text><text fill="#000000" font-family="sans-serif" font-size="13" lengthAdjust="spacing" textLength="8.0679" x="227.9575" y="315.9748">n</text><text fill="#000000" font-family="sans-serif" font-size="13" lengthAdjust="spacing" textLength="8.2202" x="227.9705" y="361.8101">1</text></g><!--link freie Mitarbeiter to Honorar--><g class="link" data-entity-1="freie Mitarbeiter" data-entity-2="Honorar" data-source-line="33" data-uid="lnk10" id="link_freie Mitarbeiter_Honorar"><path codeLine="33" d="M77.59,295.69 C77.59,319.06 77.59,348.53 77.59,371.94" fill="none" id="freie Mitarbeiter-Honorar" style="stroke:#181818;stroke-width:1;"/><text fill="#000000" font-family="sans-serif" font-size="13" lengthAdjust="spacing" textLength="63.9019" x="78.59" y="338.9784">vereinbart</text><text fill="#000000" font-family="sans-serif" font-size="13" lengthAdjust="spacing" textLength="8.0679" x="68.9582" y="315.9748">n</text><text fill="#000000" font-family="sans-serif" font-size="13" lengthAdjust="spacing" textLength="8.2202" x="68.9707" y="361.8101">1</text></g><!--SRC=[ZP5D2i8m48NtESMGfT25s-uK1GKLhv3eCutM2SHHKF5QNi2BMMsBMLGngvdaVVFp0XOlPzAR20-QUp7HmWkYfgkYwlHeEde7MTRa2xE7kYdKP8ByIInZs68dlzLrECHXLLIJsIExvch06yEEccpCwwJoB1Ging8iyRNwIsCXqRWFDmaSela-V_rUFEx5gvbg5z2iAmtflKvToEboT13uKhgK7KwdH6fdI_LrkbbEyEmGufeXgklZ4gxPBASJAXrR4qKz0G00]--></g></svg>