<svg xmlns="http://www.w3.org/2000/svg" xmlns:xlink="http://www.w3.org/1999/xlink" contentStyleType="text/css" data-diagram-type="CLASS" height="268px" preserveAspectRatio="none" style="width:620px;height:268px;background:#FFFFFF;" version="1.1" viewBox="0 0 620 268" width="620px" zoomAndPan="magnify"><defs/><g><!--class Kunden--><g class="entity" data-entity="Kunden" data-source-line="1" data-uid="ent0002" id="entity_Kunden"><rect fill="#F1F1F1" height="97.4648" rx="2.5" ry="2.5" style="stroke:#181818;stroke-width:0.5;" width="183.9238" x="429.22" y="15.24"/><ellipse cx="491.0237" cy="31.24" fill="#ADD1B2" rx="11" ry="11" style="stroke:#181818;stroke-width:1;"/><path d="M494.638,37.74 L486.9182,37.74 L486.9182,25.3469 L494.638,25.3469 L494.638,27.5051 L489.367,27.5051 L489.367,30.178 L494.1399,30.178 L494.1399,32.3362 L489.367,32.3362 L489.367,35.5818 L494.638,35.5818 Z " fill="#000000"/><text fill="#000000" font-family="sans-serif" font-size="14" lengthAdjust="spacing" textLength="51.8164" x="511.5237" y="36.531">Kunden</text><line style="stroke:#181818;stroke-width:0.5;" x1="430.22" x2="612.1438" y1="47.24" y2="47.24"/><ellipse cx="440.22" cy="60.9841" fill="#000000" rx="3" ry="3" style="stroke:#000000;stroke-width:1;"/><text fill="#000000" font-family="sans-serif" font-size="14" lengthAdjust="spacing" textLength="157.9238" x="449.22" y="64.7752">Kunden_ID primary key</text><line style="stroke:#181818;stroke-width:1;" x1="430.22" x2="612.1438" y1="71.7283" y2="71.7283"/><ellipse cx="440.22" cy="85.4724" fill="#000000" rx="3" ry="3" style="stroke:#000000;stroke-width:1;"/><text fill="#000000" font-family="sans-serif" font-size="14" lengthAdjust="spacing" textLength="60.7715" x="449.22" y="89.2634">Vorname</text><ellipse cx="440.22" cy="101.9607" fill="#000000" rx="3" ry="3" style="stroke:#000000;stroke-width:1;"/><text fill="#000000" font-family="sans-serif" font-size="14" lengthAdjust="spacing" textLength="38.9443" x="449.22" y="105.7517">Name</text></g><!--class Konto--><g class="entity" data-entity="Konto" data-source-line="7" data-uid="ent0003" id="entity_Konto"><rect fill="#F1F1F1" height="113.9531" rx="2.5" ry="2.5" style="stroke:#181818;stroke-width:0.5;" width="172.3711" x="7" y="7"/><ellipse cx="68.8037" cy="23" fill="#ADD1B2" rx="11" ry="11" style="stroke:#181818;stroke-width:1;"/><path d="M72.418,29.5 L64.6982,29.5 L64.6982,17.1069 L72.418,17.1069 L72.418,19.2651 L67.147,19.2651 L67.147,21.938 L71.9199,21.938 L71.9199,24.0962 L67.147,24.0962 L67.147,27.3418 L72.418,27.3418 Z " fill="#000000"/><text fill="#000000" font-family="sans-serif" font-size="14" lengthAdjust="spacing" textLength="40.2637" x="89.3037" y="28.291">Konto</text><line style="stroke:#181818;stroke-width:0.5;" x1="8" x2="178.3711" y1="39" y2="39"/><ellipse cx="18" cy="52.7441" fill="#000000" rx="3" ry="3" style="stroke:#000000;stroke-width:1;"/><text fill="#000000" font-family="sans-serif" font-size="14" lengthAdjust="spacing" textLength="146.3711" x="27" y="56.5352">Konto_ID primary key</text><line style="stroke:#181818;stroke-width:1;" x1="8" x2="178.3711" y1="63.4883" y2="63.4883"/><ellipse cx="18" cy="77.2324" fill="#000000" rx="3" ry="3" style="stroke:#000000;stroke-width:1;"/><text fill="#000000" font-family="sans-serif" font-size="14" lengthAdjust="spacing" textLength="58.7002" x="27" y="81.0234">Nummer</text><ellipse cx="18" cy="93.7207" fill="#000000" rx="3" ry="3" style="stroke:#000000;stroke-width:1;"/><text fill="#000000" font-family="sans-serif" font-size="14" lengthAdjust="spacing" textLength="42.1436" x="27" y="97.5117">Art_ID</text><ellipse cx="18" cy="110.209" fill="#000000" rx="3" ry="3" style="stroke:#000000;stroke-width:1;"/><text fill="#000000" font-family="sans-serif" font-size="14" lengthAdjust="spacing" textLength="45.2129" x="27" y="114">Datum</text></g><!--class Kontoarten--><g class="entity" data-entity="Kontoarten" data-source-line="14" data-uid="ent0004" id="entity_Kontoarten"><rect fill="#F1F1F1" height="80.9766" rx="2.5" ry="2.5" style="stroke:#181818;stroke-width:0.5;" width="152.7314" x="16.82" y="180.95"/><ellipse cx="52.1974" cy="196.95" fill="#ADD1B2" rx="11" ry="11" style="stroke:#181818;stroke-width:1;"/><path d="M55.8117,203.45 L48.092,203.45 L48.092,191.0569 L55.8117,191.0569 L55.8117,193.2151 L50.5407,193.2151 L50.5407,195.888 L55.3137,195.888 L55.3137,198.0462 L50.5407,198.0462 L50.5407,201.2918 L55.8117,201.2918 Z " fill="#000000"/><text fill="#000000" font-family="sans-serif" font-size="14" lengthAdjust="spacing" textLength="75.4482" x="70.7258" y="202.241">Kontoarten</text><line style="stroke:#181818;stroke-width:0.5;" x1="17.82" x2="168.5514" y1="212.95" y2="212.95"/><ellipse cx="27.82" cy="226.6941" fill="#000000" rx="3" ry="3" style="stroke:#000000;stroke-width:1;"/><text fill="#000000" font-family="sans-serif" font-size="14" lengthAdjust="spacing" textLength="126.7314" x="36.82" y="230.4852">Art_ID primary key</text><line style="stroke:#181818;stroke-width:1;" x1="17.82" x2="168.5514" y1="237.4383" y2="237.4383"/><ellipse cx="27.82" cy="251.1824" fill="#000000" rx="3" ry="3" style="stroke:#000000;stroke-width:1;"/><text fill="#000000" font-family="sans-serif" font-size="14" lengthAdjust="spacing" textLength="91.3418" x="36.82" y="254.9734">Beschreibung</text></g><!--class Kunde_Konto--><g class="entity" data-entity="Kunde_Konto" data-source-line="19" data-uid="ent0005" id="entity_Kunde_Konto"><rect fill="#F1F1F1" height="80.9766" rx="2.5" ry="2.5" style="stroke:#181818;stroke-width:0.5;" width="180.2324" x="214.07" y="23.49"/><ellipse cx="255.0984" cy="39.49" fill="#ADD1B2" rx="11" ry="11" style="stroke:#181818;stroke-width:1;"/><path d="M258.7126,45.99 L250.9929,45.99 L250.9929,33.5969 L258.7126,33.5969 L258.7126,35.7551 L253.4416,35.7551 L253.4416,38.428 L258.2146,38.428 L258.2146,40.5862 L253.4416,40.5862 L253.4416,43.8318 L258.7126,43.8318 Z " fill="#000000"/><text fill="#000000" font-family="sans-serif" font-size="14" lengthAdjust="spacing" textLength="90.3916" x="274.8825" y="44.781">Kunde_Konto</text><line style="stroke:#181818;stroke-width:0.5;" x1="215.07" x2="393.3024" y1="55.49" y2="55.49"/><ellipse cx="225.07" cy="69.2341" fill="#000000" rx="3" ry="3" style="stroke:#000000;stroke-width:1;"/><text fill="#000000" font-family="sans-serif" font-size="14" lengthAdjust="spacing" textLength="154.2324" x="234.07" y="73.0252">Kunden_ID foreign key</text><line style="stroke:#181818;stroke-width:1;" x1="215.07" x2="393.3024" y1="79.9783" y2="79.9783"/><ellipse cx="225.07" cy="93.7224" fill="#000000" rx="3" ry="3" style="stroke:#000000;stroke-width:1;"/><text fill="#000000" font-family="sans-serif" font-size="14" lengthAdjust="spacing" textLength="142.6797" x="234.07" y="97.5134">Konto_ID foreign key</text></g><!--link Konto to Kontoarten--><g class="link" data-entity-1="Konto" data-entity-2="Kontoarten" data-source-line="24" data-uid="lnk6" id="link_Konto_Kontoarten"><path codeLine="24" d="M93.19,121.1 C93.19,140.76 93.19,162.42 93.19,180.48" fill="none" id="Konto-Kontoarten" style="stroke:#181818;stroke-width:1;"/><text fill="#000000" font-family="sans-serif" font-size="13" lengthAdjust="spacing" textLength="8.0679" x="84.7072" y="141.5633">n</text><text fill="#000000" font-family="sans-serif" font-size="13" lengthAdjust="spacing" textLength="8.2202" x="84.5707" y="170.3501">1</text></g><!--link Konto to Kunde_Konto--><g class="link" data-entity-1="Konto" data-entity-2="Kunde_Konto" data-source-line="25" data-uid="lnk7" id="link_Konto_Kunde_Konto"><path codeLine="25" d="M179.73,63.98 C191.07,63.98 202.42,63.98 213.76,63.98" fill="none" id="Konto-Kunde_Konto" style="stroke:#181818;stroke-width:1;"/></g><!--link Kunde_Konto to Kunden--><g class="link" data-entity-1="Kunde_Konto" data-entity-2="Kunden" data-source-line="26" data-uid="lnk8" id="link_Kunde_Konto_Kunden"><path codeLine="26" d="M394.46,63.98 C406.01,63.98 417.56,63.98 429.11,63.98" fill="none" id="Kunde_Konto-Kunden" style="stroke:#181818;stroke-width:1;"/></g><!--SRC=[VO-n3i8m34JtV8ML4Ia3dm3gWf0wibO1J8bG76II8KBzTngmIgY0J3xv_7A755tCi4rqH8AxWl4jH7QR1gxilEKC5ypmN1eZdbrWiXv5jMKS50ekK0nlMb7_OMto7Xb4hJWMkwZ6nkHX1hSSgxnoy9k_njlXpEZsYVeQLNfsixHJzrCOBthwWfiQVLW6zI9fqgCLz59NMMLdwZzLDSk27W00]--></g></svg>