<?xml version="1.0" encoding="us-ascii" standalone="no"?><svg xmlns="http://www.w3.org/2000/svg" xmlns:xlink="http://www.w3.org/1999/xlink" contentStyleType="text/css" height="302px" preserveAspectRatio="none" style="width:1205px;height:302px;background:#FFFFFF;" version="1.1" viewBox="0 0 1205 302" width="1205px" zoomAndPan="magnify"><defs/><g><!--cluster routes--><g id="cluster_routes"><path d="M243,6 L290,6 A3.75,3.75 0 0 1 292.5,8.5 L299.5,28.4883 L1196,28.4883 A2.5,2.5 0 0 1 1198.5,30.9883 L1198.5,292.56 A2.5,2.5 0 0 1 1196,295.06 L243,295.06 A2.5,2.5 0 0 1 240.5,292.56 L240.5,8.5 A2.5,2.5 0 0 1 243,6 " fill="none" style="stroke:#000000;stroke-width:1.5;"/><line style="stroke:#000000;stroke-width:1.5;" x1="240.5" x2="299.5" y1="28.4883" y2="28.4883"/><text fill="#000000" font-family="sans-serif" font-size="14" font-weight="bold" lengthAdjust="spacing" textLength="46" x="244.5" y="21.5352">routes</text><text fill="#000000" font-family="sans-serif" font-size="14" font-style="italic" lengthAdjust="spacing" textLength="72" x="687.5" y="44.0234">&#171;Modules&#187;</text></g><!--cluster api_connect--><g id="cluster_api_connect"><path d="M267,65 L352,65 A3.75,3.75 0 0 1 354.5,67.5 L361.5,87.4883 L1172,87.4883 A2.5,2.5 0 0 1 1174.5,89.9883 L1174.5,268.56 A2.5,2.5 0 0 1 1172,271.06 L267,271.06 A2.5,2.5 0 0 1 264.5,268.56 L264.5,67.5 A2.5,2.5 0 0 1 267,65 " fill="none" style="stroke:#000000;stroke-width:1.5;"/><line style="stroke:#000000;stroke-width:1.5;" x1="264.5" x2="361.5" y1="87.4883" y2="87.4883"/><text fill="#000000" font-family="sans-serif" font-size="14" font-weight="bold" lengthAdjust="spacing" textLength="84" x="268.5" y="80.5352">api_connect</text><text fill="#000000" font-family="sans-serif" font-size="14" font-style="italic" lengthAdjust="spacing" textLength="57" x="695" y="103.0234">&#171;Modul&#187;</text></g><!--class BeamRequestTask--><g id="elem_BeamRequestTask"><rect codeLine="8" fill="#F1F1F1" height="139.0625" id="BeamRequestTask" rx="2.5" ry="2.5" style="stroke:#181818;stroke-width:0.5;" width="879" x="280" y="116"/><ellipse cx="653.25" cy="136.3105" fill="#FF7700" rx="11" ry="11" style="stroke:#181818;stroke-width:1.0;"/><path d="M652.9834,137.3735 Q651.1323,136.668 650.4766,135.8918 Q649.8208,135.1157 649.8208,133.8042 Q649.8208,132.1191 650.8999,131.1563 Q651.979,130.1934 653.8633,130.1934 Q654.7183,130.1934 655.5732,130.3884 Q656.4282,130.5835 657.2666,130.9653 L657.2666,133.356 Q656.478,132.7998 655.6646,132.5093 Q654.8511,132.2188 654.0542,132.2188 Q653.166,132.2188 652.6929,132.5757 Q652.2197,132.9326 652.2197,133.5967 Q652.2197,134.1113 652.5642,134.4475 Q652.9087,134.7837 654.0044,135.1904 L655.0586,135.5889 Q656.5527,136.1367 657.2583,137.0415 Q657.9639,137.9463 657.9639,139.3242 Q657.9639,141.2002 656.8557,142.1257 Q655.7476,143.0513 653.5063,143.0513 Q652.585,143.0513 651.6594,142.8313 Q650.7339,142.6113 649.8706,142.1797 L649.8706,139.6479 Q650.8501,140.3452 651.7673,140.6855 Q652.6846,141.0259 653.5811,141.0259 Q654.4858,141.0259 654.9839,140.615 Q655.4819,140.2041 655.4819,139.4653 Q655.4819,138.9092 655.1499,138.49 Q654.8179,138.0708 654.187,137.8301 Z " fill="#000000"/><text fill="#000000" font-family="sans-serif" font-size="12" font-style="italic" lengthAdjust="spacing" textLength="44" x="713.75" y="132.6016">&#171;Struct&#187;</text><text fill="#000000" font-family="sans-serif" font-size="14" lengthAdjust="spacing" textLength="124" x="673.75" y="148.668">BeamRequestTask</text><line style="stroke:#181818;stroke-width:0.5;" x1="281" x2="1158" y1="156.6211" y2="156.6211"/><line style="stroke:#181818;stroke-width:1.0;" x1="281" x2="1158" y1="164.6211" y2="164.6211"/><ellipse cx="291" cy="178.3652" fill="#84BE84" rx="3" ry="3" style="stroke:#038048;stroke-width:1.0;"/><text fill="#000000" font-family="sans-serif" font-size="14" lengthAdjust="spacing" textLength="843" x="300" y="182.1563">read_overview_day(Query(query_day): Query&lt;GetTimestamp&gt;): Result&lt;Json&lt;Vec&lt;EntryRelatedData&gt;&gt;, Json&lt;ErrorType&gt;&gt;</text><ellipse cx="291" cy="194.8535" fill="#84BE84" rx="3" ry="3" style="stroke:#038048;stroke-width:1.0;"/><text fill="#000000" font-family="sans-serif" font-size="14" lengthAdjust="spacing" textLength="557" x="300" y="198.6445">joinroom(Path(id): Path&lt;i32&gt;): Result&lt;Json&lt;ResponseType&gt;, Json&lt;ErrorType&gt;&gt;</text><ellipse cx="291" cy="211.3418" fill="#84BE84" rx="3" ry="3" style="stroke:#038048;stroke-width:1.0;"/><text fill="#000000" font-family="sans-serif" font-size="14" lengthAdjust="spacing" textLength="853" x="300" y="215.1328">joinrooms(Path(entry_id): Path&lt;i32&gt;, Json(payload): Json&lt;Vec&lt;String&gt;&gt;): Result&lt;Json&lt;ResponseType&gt;, Json&lt;ErrorType&gt;&gt;</text><ellipse cx="291" cy="227.8301" fill="#84BE84" rx="3" ry="3" style="stroke:#038048;stroke-width:1.0;"/><text fill="#000000" font-family="sans-serif" font-size="14" lengthAdjust="spacing" textLength="659" x="300" y="231.6211">delete_participant(Path(entry_id): Path&lt;i32&gt;): Result&lt;Json&lt;ResponseType&gt;, Json&lt;ErrorType&gt;&gt;</text><ellipse cx="291" cy="244.3184" fill="#84BE84" rx="3" ry="3" style="stroke:#038048;stroke-width:1.0;"/><text fill="#000000" font-family="sans-serif" font-size="14" lengthAdjust="spacing" textLength="255" x="300" y="248.1094">get_user(): Json&lt;std::string::String&gt; {</text></g><!--class servieces--><g id="elem_servieces"><rect codeLine="1" fill="#F1F1F1" height="89.5977" id="servieces" rx="2.5" ry="2.5" style="stroke:#181818;stroke-width:0.5;" width="217" x="7" y="140.73"/><ellipse cx="80.25" cy="161.0405" fill="#6A3100" rx="11" ry="11" style="stroke:#181818;stroke-width:1.0;"/><path d="M75.9639,155.1475 L78.8857,155.1475 L80.3633,160.5845 L81.8325,155.1475 L84.771,155.1475 L84.771,167.5405 L82.6626,167.5405 L82.6626,157.6128 L81.3511,163.0332 L79.4004,163.0332 L78.0723,157.6128 L78.0723,167.5405 L75.9639,167.5405 Z " fill="#000000"/><text fill="#000000" font-family="sans-serif" font-size="12" font-style="italic" lengthAdjust="spacing" textLength="54" x="104.75" y="157.3316">&#171;Module&#187;</text><text fill="#000000" font-family="sans-serif" font-size="14" lengthAdjust="spacing" textLength="62" x="100.75" y="173.398">servieces</text><line style="stroke:#181818;stroke-width:0.5;" x1="8" x2="223" y1="181.3511" y2="181.3511"/><line style="stroke:#181818;stroke-width:1.0;" x1="8" x2="223" y1="189.3511" y2="189.3511"/><ellipse cx="18" cy="203.0952" fill="#84BE84" rx="3" ry="3" style="stroke:#038048;stroke-width:1.0;"/><text fill="#000000" font-family="sans-serif" font-size="14" lengthAdjust="spacing" textLength="191" x="27" y="206.8863">front_public_route(): Router</text><ellipse cx="18" cy="219.5835" fill="#84BE84" rx="3" ry="3" style="stroke:#038048;stroke-width:1.0;"/><text fill="#000000" font-family="sans-serif" font-size="14" lengthAdjust="spacing" textLength="186" x="27" y="223.3745">back_token_route(): Router</text></g><!--SRC=[fP9HQy8m4CVV_HI1lLHKS1Ccb5BOc0u6mgQort2cDvTPavXS7MNutPUaLZPXCF0Uqall-F_lTqIKu1npQFSI1JgMPIoPzTdLxTteUZZiifakgXBpd7rrc8_187vwxCrgHTnKgr8ARdL5c7HJDW-9PSUU5OWD9xr1TTxHENICBy8QMQm4tyR9vNdZrDR1I2wqKYYeRMfRGeWu_pt2Tewx2XqjmMqYnS9JJAVZSQ1OaAq4dIZQEDAqqMCMeU1w7xVnoGkeavSARPtimXdkdY3-oHwHbdBh_M1hyi25hYefUt9QPQyeieaYMy-n1CBY0GZolCzYSMAjjilQ-9sUcNzegQpMs-GPw3sHXLSDMIP7D-SEFZTQEOmw_nPsZJA6qVXl_KOZCL2N6aBb1E9N9zKwlso20aiav0OiII4DAFfxb8kCraYyygyvQH4S5Mdg8aEQ7bb-l893fpaFtm00]--></g></svg>